<?xml version="1.0" encoding="UTF-8" standalone="no"?>
<!DOCTYPE svg PUBLIC "-//W3C//DTD SVG 1.1//EN"
 "http://www.w3.org/Graphics/SVG/1.1/DTD/svg11.dtd">
<!-- Generated by graphviz version 2.43.0 (0)
 -->
<!-- Title: srp_initiator Pages: 1 -->
<svg width="704pt" height="761pt"
 viewBox="0.00 0.00 703.51 760.85" xmlns="http://www.w3.org/2000/svg" xmlns:xlink="http://www.w3.org/1999/xlink">
<g id="graph0" class="graph" transform="scale(1 1) rotate(0) translate(4 756.85)">
<title>srp_initiator</title>
<polygon fill="white" stroke="transparent" points="-4,4 -4,-756.85 699.51,-756.85 699.51,4 -4,4"/>
<!-- running -->
<g id="node1" class="node">
<title>running</title>
<ellipse fill="none" stroke="black" cx="215.51" cy="-521.48" rx="48.6" ry="48.6"/>
<ellipse fill="none" stroke="black" cx="215.51" cy="-521.48" rx="52.58" ry="52.58"/>
<text text-anchor="middle" x="215.51" y="-540.28" font-family="Times,serif" font-size="14.00">running;</text>
<text text-anchor="middle" x="215.51" y="-525.28" font-family="Times,serif" font-size="14.00">reconnect</text>
<text text-anchor="middle" x="215.51" y="-510.28" font-family="Times,serif" font-size="14.00">timer</text>
<text text-anchor="middle" x="215.51" y="-495.28" font-family="Times,serif" font-size="14.00">stopped</text>
</g>
<!-- lost -->
<g id="node2" class="node">
<title>lost</title>
<ellipse fill="none" stroke="black" cx="194.51" cy="-27.4" rx="23.31" ry="23.31"/>
<ellipse fill="none" stroke="black" cx="194.51" cy="-27.4" rx="27.3" ry="27.3"/>
<text text-anchor="middle" x="194.51" y="-23.7" font-family="Times,serif" font-size="14.00">lost</text>
</g>
<!-- running&#45;&gt;lost -->
<g id="edge11" class="edge">
<title>running&#45;&gt;lost</title>
<path fill="none" stroke="black" d="M162.6,-516.34C118.11,-509.85 56.64,-493.22 23.51,-450.69 -19.77,-395.1 11.07,-363.35 7.51,-292.99 6.17,-266.36 -1.9,-257.94 7.51,-232.99 41,-144.25 83,-141.39 148.51,-72.8 154.57,-66.45 161.28,-59.79 167.65,-53.61"/>
<polygon fill="black" stroke="black" points="170.13,-56.08 174.92,-46.63 165.28,-51.03 170.13,-56.08"/>
<text text-anchor="middle" x="72.51" y="-259.29" font-family="Times,serif" font-size="14.00">srp_stop_rport_timers()</text>
</g>
<!-- running_rta -->
<g id="node3" class="node">
<title>running_rta</title>
<ellipse fill="none" stroke="black" cx="383.51" cy="-704.06" rx="48.58" ry="48.58"/>
<text text-anchor="middle" x="383.51" y="-722.86" font-family="Times,serif" font-size="14.00">running;</text>
<text text-anchor="middle" x="383.51" y="-707.86" font-family="Times,serif" font-size="14.00">reconnect</text>
<text text-anchor="middle" x="383.51" y="-692.86" font-family="Times,serif" font-size="14.00">timer</text>
<text text-anchor="middle" x="383.51" y="-677.86" font-family="Times,serif" font-size="14.00">active</text>
</g>
<!-- running&#45;&gt;running_rta -->
<g id="edge1" class="edge">
<title>running&#45;&gt;running_rta</title>
<path fill="none" stroke="black" d="M266.94,-534.44C298.92,-544.54 338.25,-562.31 361.51,-592.27 373.14,-607.23 379.12,-626.67 382.06,-645.09"/>
<polygon fill="black" stroke="black" points="378.62,-645.73 383.4,-655.18 385.56,-644.81 378.62,-645.73"/>
<text text-anchor="middle" x="452.01" y="-626.07" font-family="Times,serif" font-size="14.00">fast_io_fail_tmo = off and</text>
<text text-anchor="middle" x="452.01" y="-611.07" font-family="Times,serif" font-size="14.00">dev_loss_tmo = off;</text>
<text text-anchor="middle" x="452.01" y="-596.07" font-family="Times,serif" font-size="14.00">srp_start_tl_fail_timers()</text>
</g>
<!-- blocked -->
<g id="node4" class="node">
<title>blocked</title>
<ellipse fill="none" stroke="black" cx="155.51" cy="-349.34" rx="38.19" ry="38.19"/>
<text text-anchor="middle" x="155.51" y="-345.64" font-family="Times,serif" font-size="14.00">blocked</text>
</g>
<!-- running&#45;&gt;blocked -->
<g id="edge3" class="edge">
<title>running&#45;&gt;blocked</title>
<path fill="none" stroke="black" d="M162.68,-515.75C120.46,-508.88 63.82,-492.03 35.51,-450.69 24.21,-434.18 24.73,-422.53 35.51,-405.69 51.47,-380.75 81.82,-366.89 108.01,-359.28"/>
<polygon fill="black" stroke="black" points="109.05,-362.62 117.8,-356.66 107.23,-355.86 109.05,-362.62"/>
<text text-anchor="middle" x="103.51" y="-439.49" font-family="Times,serif" font-size="14.00">fast_io_fail_tmo &gt;= 0 or</text>
<text text-anchor="middle" x="103.51" y="-424.49" font-family="Times,serif" font-size="14.00">dev_loss_tmo &gt;= 0;</text>
<text text-anchor="middle" x="103.51" y="-409.49" font-family="Times,serif" font-size="14.00">srp_start_tl_fail_timers()</text>
</g>
<!-- failfast -->
<g id="node5" class="node">
<title>failfast</title>
<ellipse fill="none" stroke="black" cx="327.51" cy="-175.39" rx="39.7" ry="39.7"/>
<text text-anchor="middle" x="327.51" y="-179.19" font-family="Times,serif" font-size="14.00">fail I/O</text>
<text text-anchor="middle" x="327.51" y="-164.19" font-family="Times,serif" font-size="14.00">fast</text>
</g>
<!-- running&#45;&gt;failfast -->
<g id="edge4" class="edge">
<title>running&#45;&gt;failfast</title>
<path fill="none" stroke="black" d="M248.3,-479.7C254.44,-470.56 260.26,-460.62 264.51,-450.69 289.46,-392.49 278.32,-372.7 292.51,-310.99 299.23,-281.81 307.65,-249.3 314.55,-223.55"/>
<polygon fill="black" stroke="black" points="317.99,-224.24 317.21,-213.68 311.23,-222.42 317.99,-224.24"/>
<text text-anchor="middle" x="365.01" y="-360.64" font-family="Times,serif" font-size="14.00">fast_io_fail_tmo = off and</text>
<text text-anchor="middle" x="365.01" y="-345.64" font-family="Times,serif" font-size="14.00">dev_loss_tmo = off;</text>
<text text-anchor="middle" x="365.01" y="-330.64" font-family="Times,serif" font-size="14.00">reconnecting failed</text>
</g>
<!-- running_rta&#45;&gt;running -->
<g id="edge2" class="edge">
<title>running_rta&#45;&gt;running</title>
<path fill="none" stroke="black" d="M334.93,-698.98C294.67,-692.74 239.79,-676.99 212.51,-637.27 201.7,-621.52 199.4,-601.49 200.76,-582.58"/>
<polygon fill="black" stroke="black" points="204.25,-582.84 201.81,-572.53 197.29,-582.11 204.25,-582.84"/>
<text text-anchor="middle" x="285.01" y="-626.07" font-family="Times,serif" font-size="14.00">fast_io_fail_tmo = off and</text>
<text text-anchor="middle" x="285.01" y="-611.07" font-family="Times,serif" font-size="14.00">dev_loss_tmo = off;</text>
<text text-anchor="middle" x="285.01" y="-596.07" font-family="Times,serif" font-size="14.00">reconnecting succeeded</text>
</g>
<!-- running_rta&#45;&gt;lost -->
<g id="edge12" class="edge">
<title>running_rta&#45;&gt;lost</title>
<path fill="none" stroke="black" d="M431.01,-692.26C462.68,-682.75 503.03,-665.84 528.51,-637.27 564.19,-597.26 565.51,-576.08 565.51,-522.48 565.51,-522.48 565.51,-522.48 565.51,-174.39 565.51,-90.53 484.16,-104.49 406.51,-72.8 348.14,-48.97 275.28,-37.31 231.96,-32.1"/>
<polygon fill="black" stroke="black" points="232.21,-28.6 221.87,-30.94 231.41,-35.56 232.21,-28.6"/>
<text text-anchor="middle" x="630.51" y="-345.64" font-family="Times,serif" font-size="14.00">srp_stop_rport_timers()</text>
</g>
<!-- blocked&#45;&gt;running -->
<g id="edge8" class="edge">
<title>blocked&#45;&gt;running</title>
<path fill="none" stroke="black" d="M167.97,-385.66C175.72,-407.63 185.87,-436.42 194.8,-461.75"/>
<polygon fill="black" stroke="black" points="191.53,-463 198.16,-471.26 198.13,-460.67 191.53,-463"/>
<text text-anchor="middle" x="225.51" y="-431.99" font-family="Times,serif" font-size="14.00">reconnecting</text>
<text text-anchor="middle" x="225.51" y="-416.99" font-family="Times,serif" font-size="14.00">succeeded</text>
</g>
<!-- blocked&#45;&gt;lost -->
<g id="edge6" class="edge">
<title>blocked&#45;&gt;lost</title>
<path fill="none" stroke="black" d="M149.13,-311.42C142.92,-268.67 136.09,-196.37 148.51,-135.8 153.92,-109.43 166.08,-81.55 176.54,-60.8"/>
<polygon fill="black" stroke="black" points="179.71,-62.29 181.19,-51.8 173.49,-59.07 179.71,-62.29"/>
<text text-anchor="middle" x="213.51" y="-186.69" font-family="Times,serif" font-size="14.00">dev_loss_tmo</text>
<text text-anchor="middle" x="213.51" y="-171.69" font-family="Times,serif" font-size="14.00">expired or</text>
<text text-anchor="middle" x="213.51" y="-156.69" font-family="Times,serif" font-size="14.00">srp_stop_rport_timers()</text>
</g>
<!-- blocked&#45;&gt;failfast -->
<g id="edge5" class="edge">
<title>blocked&#45;&gt;failfast</title>
<path fill="none" stroke="black" d="M151.04,-311.25C150.16,-285.88 153.68,-253.29 173.51,-232.99 205.07,-200.69 231.91,-232.55 273.51,-214.99 278.69,-212.81 283.85,-210.06 288.82,-207.03"/>
<polygon fill="black" stroke="black" points="291.05,-209.75 297.51,-201.36 287.22,-203.89 291.05,-209.75"/>
<text text-anchor="middle" x="219.01" y="-281.79" font-family="Times,serif" font-size="14.00">fast_io_fail_tmo</text>
<text text-anchor="middle" x="219.01" y="-266.79" font-family="Times,serif" font-size="14.00">expired or</text>
<text text-anchor="middle" x="219.01" y="-251.79" font-family="Times,serif" font-size="14.00">reconnecting</text>
<text text-anchor="middle" x="219.01" y="-236.79" font-family="Times,serif" font-size="14.00">failed</text>
</g>
<!-- failfast&#45;&gt;running -->
<g id="edge10" class="edge">
<title>failfast&#45;&gt;running</title>
<path fill="none" stroke="black" d="M357.63,-201.43C401.8,-241.3 475.05,-321.49 437.51,-387.69 403.21,-448.18 329.17,-484.08 276.02,-503"/>
<polygon fill="black" stroke="black" points="274.66,-499.77 266.35,-506.34 276.95,-506.38 274.66,-499.77"/>
<text text-anchor="middle" x="482.51" y="-353.14" font-family="Times,serif" font-size="14.00">reconnecting</text>
<text text-anchor="middle" x="482.51" y="-338.14" font-family="Times,serif" font-size="14.00">succeeded</text>
</g>
<!-- failfast&#45;&gt;lost -->
<g id="edge7" class="edge">
<title>failfast&#45;&gt;lost</title>
<path fill="none" stroke="black" d="M301.24,-145.55C277.5,-119.49 242.81,-81.41 219.48,-55.81"/>
<polygon fill="black" stroke="black" points="221.96,-53.32 212.63,-48.29 216.78,-58.04 221.96,-53.32"/>
<text text-anchor="middle" x="337.51" y="-106.6" font-family="Times,serif" font-size="14.00">dev_loss_tmo</text>
<text text-anchor="middle" x="337.51" y="-91.6" font-family="Times,serif" font-size="14.00">expired or</text>
<text text-anchor="middle" x="337.51" y="-76.6" font-family="Times,serif" font-size="14.00">srp_stop_rport_timers()</text>
</g>
<!-- failfast&#45;&gt;failfast -->
<g id="edge9" class="edge">
<title>failfast&#45;&gt;failfast</title>
<path fill="none" stroke="black" d="M364.35,-190.39C375.96,-190.16 385.11,-185.16 385.11,-175.39 385.11,-168.68 380.78,-164.22 374.31,-162.01"/>
<polygon fill="black" stroke="black" points="374.78,-158.54 364.35,-160.4 373.66,-165.45 374.78,-158.54"/>
<text text-anchor="middle" x="420.11" y="-179.19" font-family="Times,serif" font-size="14.00">reconnecting</text>
<text text-anchor="middle" x="420.11" y="-164.19" font-family="Times,serif" font-size="14.00">failed</text>
</g>
</g>
</svg>
