<?xml version="1.0" encoding="UTF-8" standalone="no"?>
<!DOCTYPE svg PUBLIC "-//W3C//DTD SVG 1.1//EN"
 "http://www.w3.org/Graphics/SVG/1.1/DTD/svg11.dtd">
<!-- Generated by graphviz version 2.43.0 (0)
 -->
<!-- Title: Fencing Cycle Pages: 1 -->
<svg width="481pt" height="48pt"
 viewBox="0.00 0.00 481.00 47.65" xmlns="http://www.w3.org/2000/svg" xmlns:xlink="http://www.w3.org/1999/xlink">
<g id="graph0" class="graph" transform="scale(1 1) rotate(0) translate(4 43.65)">
<title>Fencing Cycle</title>
<polygon fill="white" stroke="transparent" points="-4,4 -4,-43.65 477,-43.65 477,4 -4,4"/>
<!-- kernel -->
<g id="node1" class="node">
<title>kernel</title>
<polygon fill="lightgrey" stroke="black" points="130,-39.65 0,-39.65 0,-3.65 130,-3.65 130,-39.65"/>
<text text-anchor="middle" x="65" y="-17.95" font-family="Times,serif" font-size="14.00">Kernel DMA Fences</text>
</g>
<!-- userspace -->
<g id="node2" class="node">
<title>userspace</title>
<polygon fill="lightgrey" stroke="black" points="473,-39.65 307,-39.65 307,-3.65 473,-3.65 473,-39.65"/>
<text text-anchor="middle" x="390" y="-17.95" font-family="Times,serif" font-size="14.00">userspace controlled fences</text>
</g>
<!-- kernel&#45;&gt;userspace -->
<g id="edge1" class="edge">
<title>kernel&#45;&gt;userspace</title>
<path fill="none" stroke="black" d="M130.06,-7.42C139.4,-5.86 148.91,-4.52 158,-3.65 211.53,1.49 225.4,0.67 279,-3.65 284.8,-4.11 290.75,-4.71 296.74,-5.41"/>
<polygon fill="black" stroke="black" points="296.48,-8.91 306.84,-6.68 297.35,-1.96 296.48,-8.91"/>
<text text-anchor="middle" x="218.5" y="-7.45" font-family="Times,serif" font-size="14.00">memory management</text>
</g>
<!-- userspace&#45;&gt;kernel -->
<g id="edge2" class="edge">
<title>userspace&#45;&gt;kernel</title>
<path fill="none" stroke="black" d="M306.78,-21.65C255.48,-21.65 190.22,-21.65 140.44,-21.65"/>
<polygon fill="black" stroke="black" points="140.38,-18.15 130.38,-21.65 140.38,-25.15 140.38,-18.15"/>
<text text-anchor="middle" x="218.5" y="-28.45" font-family="Times,serif" font-size="14.00">Future fence, fence proxy, ...</text>
</g>
</g>
</svg>
