<?xml version="1.0" encoding="UTF-8" standalone="no"?>
<!DOCTYPE svg PUBLIC "-//W3C//DTD SVG 1.1//EN"
 "http://www.w3.org/Graphics/SVG/1.1/DTD/svg11.dtd">
<!-- Generated by graphviz version 2.43.0 (0)
 -->
<!-- Title: decoder_state_machine Pages: 1 -->
<svg width="1223pt" height="951pt"
 viewBox="0.00 0.00 1222.68 950.90" xmlns="http://www.w3.org/2000/svg" xmlns:xlink="http://www.w3.org/1999/xlink">
<g id="graph0" class="graph" transform="scale(1 1) rotate(0) translate(4 946.9)">
<title>decoder_state_machine</title>
<polygon fill="white" stroke="transparent" points="-4,4 -4,-946.9 1218.68,-946.9 1218.68,4 -4,4"/>
<!-- Decoding -->
<g id="node1" class="node">
<title>Decoding</title>
<ellipse fill="none" stroke="black" cx="552.68" cy="-894.05" rx="44.71" ry="44.71"/>
<ellipse fill="none" stroke="black" cx="552.68" cy="-894.05" rx="48.69" ry="48.69"/>
<text text-anchor="middle" x="552.68" y="-890.35" font-family="Times,serif" font-size="14.00">Decoding</text>
</g>
<!-- Decoding&#45;&gt;Decoding -->
<g id="edge9" class="edge">
<title>Decoding&#45;&gt;Decoding</title>
<path fill="none" stroke="black" d="M598.92,-910.35C610.69,-909.28 619.53,-903.85 619.53,-894.05 619.53,-887.32 615.35,-882.64 608.92,-880.03"/>
<polygon fill="black" stroke="black" points="609.45,-876.56 598.92,-877.75 607.89,-883.39 609.45,-876.56"/>
</g>
<!-- ResChange -->
<g id="node4" class="node">
<title>ResChange</title>
<ellipse fill="none" stroke="black" cx="205.68" cy="-701.81" rx="53.07" ry="53.07"/>
<text text-anchor="middle" x="205.68" y="-713.11" font-family="Times,serif" font-size="14.00">Dynamic</text>
<text text-anchor="middle" x="205.68" y="-698.11" font-family="Times,serif" font-size="14.00">Resolution</text>
<text text-anchor="middle" x="205.68" y="-683.11" font-family="Times,serif" font-size="14.00">Change</text>
</g>
<!-- Decoding&#45;&gt;ResChange -->
<g id="edge4" class="edge">
<title>Decoding&#45;&gt;ResChange</title>
<path fill="none" stroke="black" d="M503.92,-890.43C420.4,-884.86 255.35,-868.76 217.68,-827.21 202.52,-810.48 197.7,-786.8 197.32,-764.58"/>
<polygon fill="black" stroke="black" points="200.82,-764.54 197.44,-754.5 193.82,-764.46 200.82,-764.54"/>
<text text-anchor="middle" x="245.18" y="-816.01" font-family="Times,serif" font-size="14.00">Stream</text>
<text text-anchor="middle" x="245.18" y="-801.01" font-family="Times,serif" font-size="14.00">resolution</text>
<text text-anchor="middle" x="245.18" y="-786.01" font-family="Times,serif" font-size="14.00">change</text>
</g>
<!-- Stopped -->
<g id="node5" class="node">
<title>Stopped</title>
<ellipse fill="none" stroke="black" cx="511.68" cy="-339.33" rx="39.79" ry="39.79"/>
<text text-anchor="middle" x="511.68" y="-335.63" font-family="Times,serif" font-size="14.00">Stopped</text>
</g>
<!-- Decoding&#45;&gt;Stopped -->
<g id="edge8" class="edge">
<title>Decoding&#45;&gt;Stopped</title>
<path fill="none" stroke="black" d="M514.52,-862.94C460.31,-817.45 363.41,-725.41 325.68,-621.42 318.86,-602.62 312.34,-591.32 325.68,-576.42 349.84,-549.43 462.08,-584.04 487.68,-558.42 531.63,-514.42 529.29,-437.85 521.82,-388.14"/>
<polygon fill="black" stroke="black" points="525.27,-387.58 520.22,-378.27 518.36,-388.7 525.27,-387.58"/>
<text text-anchor="middle" x="428.18" y="-595.22" font-family="Times,serif" font-size="14.00">VIDIOC_STREAMOFF(CAPTURE)</text>
</g>
<!-- Drain -->
<g id="node6" class="node">
<title>Drain</title>
<ellipse fill="none" stroke="black" cx="782.68" cy="-516.7" rx="30.59" ry="30.59"/>
<text text-anchor="middle" x="782.68" y="-513" font-family="Times,serif" font-size="14.00">Drain</text>
</g>
<!-- Decoding&#45;&gt;Drain -->
<g id="edge5" class="edge">
<title>Decoding&#45;&gt;Drain</title>
<path fill="none" stroke="black" d="M572.32,-848.97C598.67,-793.95 650.09,-699.77 717.68,-639.42 731.03,-627.5 742.3,-635.21 753.68,-621.42 768.51,-603.45 775.77,-578.4 779.32,-557.42"/>
<polygon fill="black" stroke="black" points="782.79,-557.9 780.79,-547.49 775.87,-556.88 782.79,-557.9"/>
<text text-anchor="middle" x="789.68" y="-698.11" font-family="Times,serif" font-size="14.00">V4L2_DEC_CMD_STOP</text>
</g>
<!-- Seek -->
<g id="node7" class="node">
<title>Seek</title>
<ellipse fill="none" stroke="black" cx="374.68" cy="-190.74" rx="27.9" ry="27.9"/>
<text text-anchor="middle" x="374.68" y="-187.04" font-family="Times,serif" font-size="14.00">Seek</text>
</g>
<!-- Decoding&#45;&gt;Seek -->
<g id="edge7" class="edge">
<title>Decoding&#45;&gt;Seek</title>
<path fill="none" stroke="black" d="M505.62,-879.27C453.9,-861.52 372.6,-825.43 330.68,-764.21 293.96,-710.56 262.66,-535.39 286.68,-474.98 290.75,-464.75 298.32,-466.59 303.68,-456.98 345.4,-382.25 363.52,-281.89 370.63,-228.6"/>
<polygon fill="black" stroke="black" points="374.11,-228.95 371.91,-218.59 367.17,-228.06 374.11,-228.95"/>
<text text-anchor="middle" x="385.18" y="-513" font-family="Times,serif" font-size="14.00">VIDIOC_STREAMOFF(OUTPUT)</text>
</g>
<!-- EoS -->
<g id="node8" class="node">
<title>EoS</title>
<ellipse fill="none" stroke="black" cx="932.68" cy="-701.81" rx="62.29" ry="62.29"/>
<text text-anchor="middle" x="932.68" y="-698.11" font-family="Times,serif" font-size="14.00">End of Stream</text>
</g>
<!-- Decoding&#45;&gt;EoS -->
<g id="edge6" class="edge">
<title>Decoding&#45;&gt;EoS</title>
<path fill="none" stroke="black" d="M599.19,-878.51C660.82,-858.11 771.66,-817.45 856.68,-764.21 863.71,-759.81 870.82,-754.85 877.73,-749.71"/>
<polygon fill="black" stroke="black" points="879.9,-752.45 885.74,-743.61 875.66,-746.88 879.9,-752.45"/>
<text text-anchor="middle" x="861.68" y="-808.51" font-family="Times,serif" font-size="14.00">EoS mark</text>
<text text-anchor="middle" x="861.68" y="-793.51" font-family="Times,serif" font-size="14.00">in the stream</text>
</g>
<!-- Initialization -->
<g id="node2" class="node">
<title>Initialization</title>
<ellipse fill="none" stroke="black" cx="278.68" cy="-55.9" rx="55.79" ry="55.79"/>
<text text-anchor="middle" x="278.68" y="-52.2" font-family="Times,serif" font-size="14.00">Initialization</text>
</g>
<!-- CaptureSetup -->
<g id="node3" class="node">
<title>CaptureSetup</title>
<ellipse fill="none" stroke="black" cx="207.68" cy="-516.7" rx="41.94" ry="41.94"/>
<text text-anchor="middle" x="207.68" y="-520.5" font-family="Times,serif" font-size="14.00">Capture</text>
<text text-anchor="middle" x="207.68" y="-505.5" font-family="Times,serif" font-size="14.00">setup</text>
</g>
<!-- Initialization&#45;&gt;CaptureSetup -->
<g id="edge2" class="edge">
<title>Initialization&#45;&gt;CaptureSetup</title>
<path fill="none" stroke="black" d="M266.44,-110.57C258.61,-146.2 248.65,-194.07 241.68,-236.69 228.71,-316.02 218.35,-408.8 212.62,-464.86"/>
<polygon fill="black" stroke="black" points="209.13,-464.58 211.6,-474.89 216.09,-465.29 209.13,-464.58"/>
<text text-anchor="middle" x="272.68" y="-270.49" font-family="Times,serif" font-size="14.00">CAPTURE</text>
<text text-anchor="middle" x="272.68" y="-255.49" font-family="Times,serif" font-size="14.00">format</text>
<text text-anchor="middle" x="272.68" y="-240.49" font-family="Times,serif" font-size="14.00">established</text>
</g>
<!-- CaptureSetup&#45;&gt;Stopped -->
<g id="edge3" class="edge">
<title>CaptureSetup&#45;&gt;Stopped</title>
<path fill="none" stroke="black" d="M240.67,-491.11C248.43,-485.61 256.75,-479.95 264.68,-474.98 333.65,-431.77 417.48,-387.77 467.61,-362.31"/>
<polygon fill="black" stroke="black" points="469.22,-365.41 476.56,-357.77 466.06,-359.17 469.22,-365.41"/>
<text text-anchor="middle" x="427.68" y="-438.28" font-family="Times,serif" font-size="14.00">CAPTURE</text>
<text text-anchor="middle" x="427.68" y="-423.28" font-family="Times,serif" font-size="14.00">buffers</text>
<text text-anchor="middle" x="427.68" y="-408.28" font-family="Times,serif" font-size="14.00">ready</text>
</g>
<!-- ResChange&#45;&gt;CaptureSetup -->
<g id="edge10" class="edge">
<title>ResChange&#45;&gt;CaptureSetup</title>
<path fill="none" stroke="black" d="M206.26,-648.34C206.53,-623.37 206.85,-593.63 207.12,-568.84"/>
<polygon fill="black" stroke="black" points="210.63,-568.58 207.24,-558.54 203.63,-568.5 210.63,-568.58"/>
<text text-anchor="middle" x="238.68" y="-610.22" font-family="Times,serif" font-size="14.00">CAPTURE</text>
<text text-anchor="middle" x="238.68" y="-595.22" font-family="Times,serif" font-size="14.00">format</text>
<text text-anchor="middle" x="238.68" y="-580.22" font-family="Times,serif" font-size="14.00">established</text>
</g>
<!-- ResChange&#45;&gt;Seek -->
<g id="edge11" class="edge">
<title>ResChange&#45;&gt;Seek</title>
<path fill="none" stroke="black" d="M162.25,-671.12C90.25,-618.02 -40.82,-502.45 12.68,-396.98 77.36,-269.5 258.31,-216.47 337.16,-198.96"/>
<polygon fill="black" stroke="black" points="338.11,-202.34 347.15,-196.81 336.63,-195.49 338.11,-202.34"/>
<text text-anchor="middle" x="111.18" y="-423.28" font-family="Times,serif" font-size="14.00">VIDIOC_STREAMOFF(OUTPUT)</text>
</g>
<!-- Stopped&#45;&gt;Decoding -->
<g id="edge17" class="edge">
<title>Stopped&#45;&gt;Decoding</title>
<path fill="none" stroke="black" d="M525.47,-376.5C527.56,-383.22 529.43,-390.25 530.68,-396.98 546.01,-479.37 550.75,-722.76 552.14,-835.07"/>
<polygon fill="black" stroke="black" points="548.64,-835.24 552.26,-845.19 555.64,-835.15 548.64,-835.24"/>
<text text-anchor="middle" x="646.68" y="-610.22" font-family="Times,serif" font-size="14.00">V4L2_DEC_CMD_START</text>
<text text-anchor="middle" x="646.68" y="-595.22" font-family="Times,serif" font-size="14.00">or</text>
<text text-anchor="middle" x="646.68" y="-580.22" font-family="Times,serif" font-size="14.00">VIDIOC_STREAMON(CAPTURE)</text>
</g>
<!-- Stopped&#45;&gt;Seek -->
<g id="edge18" class="edge">
<title>Stopped&#45;&gt;Seek</title>
<path fill="none" stroke="black" d="M484.94,-309.72C460.52,-283.59 424.66,-245.22 400.53,-219.39"/>
<polygon fill="black" stroke="black" points="402.83,-216.73 393.44,-211.81 397.71,-221.51 402.83,-216.73"/>
<text text-anchor="middle" x="553.18" y="-255.49" font-family="Times,serif" font-size="14.00">VIDIOC_STREAMOFF(OUTPUT)</text>
</g>
<!-- Drain&#45;&gt;Stopped -->
<g id="edge13" class="edge">
<title>Drain&#45;&gt;Stopped</title>
<path fill="none" stroke="black" d="M751.98,-515.08C708.11,-512.58 627.42,-501.71 578.68,-456.98 557.64,-437.67 569.7,-421.86 555.68,-396.98 552.07,-390.56 547.77,-384.09 543.31,-377.93"/>
<polygon fill="black" stroke="black" points="545.97,-375.64 537.17,-369.75 540.38,-379.85 545.97,-375.64"/>
<text text-anchor="middle" x="681.18" y="-445.78" font-family="Times,serif" font-size="14.00">All CAPTURE</text>
<text text-anchor="middle" x="681.18" y="-430.78" font-family="Times,serif" font-size="14.00">buffers dequeued</text>
<text text-anchor="middle" x="681.18" y="-415.78" font-family="Times,serif" font-size="14.00">or</text>
<text text-anchor="middle" x="681.18" y="-400.78" font-family="Times,serif" font-size="14.00">VIDIOC_STREAMOFF(CAPTURE)</text>
</g>
<!-- Drain&#45;&gt;Seek -->
<g id="edge14" class="edge">
<title>Drain&#45;&gt;Seek</title>
<path fill="none" stroke="black" d="M788.31,-486.5C791.8,-461.9 793.9,-426.16 783.68,-396.98 753.54,-310.94 735.69,-280.39 655.68,-236.69 621.57,-218.05 519.96,-225.45 481.68,-218.69 457.96,-214.49 431.72,-207.92 411.17,-202.31"/>
<polygon fill="black" stroke="black" points="411.85,-198.87 401.28,-199.57 409.98,-205.61 411.85,-198.87"/>
<text text-anchor="middle" x="875.18" y="-335.63" font-family="Times,serif" font-size="14.00">VIDIOC_STREAMOFF(OUTPUT)</text>
</g>
<!-- Seek&#45;&gt;Decoding -->
<g id="edge15" class="edge">
<title>Seek&#45;&gt;Decoding</title>
<path fill="none" stroke="black" d="M401.25,-199.73C422.74,-205.88 453.9,-214.08 481.68,-218.69 603.15,-238.81 1022.68,-215.2 1022.68,-338.33 1022.68,-702.81 1022.68,-702.81 1022.68,-702.81 1022.68,-779.94 973.59,-799.32 901.68,-827.21 804.01,-865.08 682.27,-881.68 611.42,-888.57"/>
<polygon fill="black" stroke="black" points="610.98,-885.09 601.35,-889.51 611.63,-892.06 610.98,-885.09"/>
<text text-anchor="middle" x="1118.68" y="-513" font-family="Times,serif" font-size="14.00">VIDIOC_STREAMON(OUTPUT)</text>
</g>
<!-- Seek&#45;&gt;Initialization -->
<g id="edge16" class="edge">
<title>Seek&#45;&gt;Initialization</title>
<path fill="none" stroke="black" d="M346.91,-184.85C324.53,-179.3 294.45,-167.83 279.68,-144.79 275.17,-137.76 272.55,-129.71 271.2,-121.41"/>
<polygon fill="black" stroke="black" points="274.66,-120.8 270.16,-111.21 267.7,-121.51 274.66,-120.8"/>
<text text-anchor="middle" x="375.18" y="-133.59" font-family="Times,serif" font-size="14.00">VIDIOC_REQBUFS(OUTPUT, 0)</text>
</g>
<!-- EoS&#45;&gt;Drain -->
<g id="edge12" class="edge">
<title>EoS&#45;&gt;Drain</title>
<path fill="none" stroke="black" d="M893.27,-652.7C866.41,-619.91 831.62,-577.44 808.3,-548.97"/>
<polygon fill="black" stroke="black" points="810.79,-546.49 801.75,-540.97 805.38,-550.92 810.79,-546.49"/>
<text text-anchor="middle" x="887.68" y="-602.72" font-family="Times,serif" font-size="14.00">Implicit</text>
<text text-anchor="middle" x="887.68" y="-587.72" font-family="Times,serif" font-size="14.00">drain</text>
</g>
<!-- qi -->
<g id="node9" class="node">
<title>qi</title>
<ellipse fill="black" stroke="black" cx="492.68" cy="-190.74" rx="1.8" ry="1.8"/>
</g>
<!-- qi&#45;&gt;Initialization -->
<g id="edge1" class="edge">
<title>qi&#45;&gt;Initialization</title>
<path fill="none" stroke="black" d="M492.62,-188.74C492.14,-182.45 488.77,-148.08 470.68,-129.79 436.75,-95.48 385.03,-77.07 343.82,-67.34"/>
<polygon fill="black" stroke="black" points="344.38,-63.88 333.85,-65.11 342.85,-70.71 344.38,-63.88"/>
<text text-anchor="middle" x="497.68" y="-133.59" font-family="Times,serif" font-size="14.00">open()</text>
</g>
</g>
</svg>
