<?xml version="1.0" encoding="UTF-8" standalone="no"?>
<!DOCTYPE svg PUBLIC "-//W3C//DTD SVG 1.1//EN"
 "http://www.w3.org/Graphics/SVG/1.1/DTD/svg11.dtd">
<!-- Generated by graphviz version 2.43.0 (0)
 -->
<!-- Title: %3 Pages: 1 -->
<svg width="1274pt" height="412pt"
 viewBox="0.00 0.00 1274.00 412.00" xmlns="http://www.w3.org/2000/svg" xmlns:xlink="http://www.w3.org/1999/xlink">
<g id="graph0" class="graph" transform="scale(1 1) rotate(0) translate(4 408)">
<title>%3</title>
<polygon fill="white" stroke="transparent" points="-4,4 -4,-408 1270,-408 1270,4 -4,4"/>
<g id="clust1" class="cluster">
<title>cluster_state</title>
<polygon fill="none" stroke="black" stroke-dasharray="5,2" points="8,-248 8,-396 985,-396 985,-248 8,-248"/>
<text text-anchor="middle" x="496.5" y="-380.8" font-family="Times,serif" font-size="14.00">Free&#45;standing state</text>
</g>
<g id="clust2" class="cluster">
<title>cluster_current</title>
<polygon fill="none" stroke="black" stroke-dasharray="5,2" points="581,-8 581,-229 1258,-229 1258,-8 581,-8"/>
<text text-anchor="middle" x="919.5" y="-213.8" font-family="Times,serif" font-size="14.00">Current state</text>
</g>
<!-- drm_atomic_state -->
<g id="node1" class="node">
<title>drm_atomic_state</title>
<polygon fill="none" stroke="black" points="621.5,-365 506.5,-365 506.5,-329 621.5,-329 621.5,-365"/>
<text text-anchor="middle" x="564" y="-343.3" font-family="Times,serif" font-size="14.00">drm_atomic_state</text>
</g>
<!-- duplicated drm_plane_state A -->
<g id="node2" class="node">
<title>duplicated drm_plane_state A</title>
<polygon fill="none" stroke="black" points="196,-292 16,-292 16,-256 196,-256 196,-292"/>
<text text-anchor="middle" x="106" y="-270.3" font-family="Times,serif" font-size="14.00">duplicated drm_plane_state A</text>
</g>
<!-- drm_atomic_state&#45;&gt;duplicated drm_plane_state A -->
<g id="edge1" class="edge">
<title>drm_atomic_state&#45;&gt;duplicated drm_plane_state A</title>
<path fill="none" stroke="black" d="M506.43,-337.72C437.55,-327.72 318.48,-310.18 206.24,-292.18"/>
<polygon fill="black" stroke="black" points="206.52,-288.68 196.09,-290.55 205.41,-295.6 206.52,-288.68"/>
</g>
<!-- duplicated drm_plane_state B -->
<g id="node3" class="node">
<title>duplicated drm_plane_state B</title>
<polygon fill="none" stroke="black" points="393.5,-292 214.5,-292 214.5,-256 393.5,-256 393.5,-292"/>
<text text-anchor="middle" x="304" y="-270.3" font-family="Times,serif" font-size="14.00">duplicated drm_plane_state B</text>
</g>
<!-- drm_atomic_state&#45;&gt;duplicated drm_plane_state B -->
<g id="edge2" class="edge">
<title>drm_atomic_state&#45;&gt;duplicated drm_plane_state B</title>
<path fill="none" stroke="black" d="M506.3,-330.24C467.93,-319.77 417.25,-305.93 376.21,-294.72"/>
<polygon fill="black" stroke="black" points="377.11,-291.34 366.54,-292.08 375.26,-298.09 377.11,-291.34"/>
</g>
<!-- duplicated drm_crtc_state -->
<g id="node4" class="node">
<title>duplicated drm_crtc_state</title>
<polygon fill="none" stroke="black" points="570,-292 412,-292 412,-256 570,-256 570,-292"/>
<text text-anchor="middle" x="491" y="-270.3" font-family="Times,serif" font-size="14.00">duplicated drm_crtc_state</text>
</g>
<!-- drm_atomic_state&#45;&gt;duplicated drm_crtc_state -->
<g id="edge3" class="edge">
<title>drm_atomic_state&#45;&gt;duplicated drm_crtc_state</title>
<path fill="none" stroke="black" d="M546.33,-328.81C537.18,-319.92 525.86,-308.91 515.85,-299.17"/>
<polygon fill="black" stroke="black" points="518.12,-296.49 508.51,-292.03 513.24,-301.51 518.12,-296.49"/>
</g>
<!-- duplicated drm_connector_state -->
<g id="node5" class="node">
<title>duplicated drm_connector_state</title>
<polygon fill="none" stroke="black" points="779.5,-292 588.5,-292 588.5,-256 779.5,-256 779.5,-292"/>
<text text-anchor="middle" x="684" y="-270.3" font-family="Times,serif" font-size="14.00">duplicated drm_connector_state</text>
</g>
<!-- drm_atomic_state&#45;&gt;duplicated drm_connector_state -->
<g id="edge4" class="edge">
<title>drm_atomic_state&#45;&gt;duplicated drm_connector_state</title>
<path fill="none" stroke="black" d="M592.74,-328.99C608.8,-319.49 629.01,-307.54 646.32,-297.29"/>
<polygon fill="black" stroke="black" points="648.25,-300.22 655.08,-292.11 644.69,-294.19 648.25,-300.22"/>
</g>
<!-- duplicated driver private state -->
<g id="node6" class="node">
<title>duplicated driver private state</title>
<polygon fill="none" stroke="black" points="976.5,-292 797.5,-292 797.5,-256 976.5,-256 976.5,-292"/>
<text text-anchor="middle" x="887" y="-270.3" font-family="Times,serif" font-size="14.00">duplicated driver private state</text>
</g>
<!-- drm_atomic_state&#45;&gt;duplicated driver private state -->
<g id="edge5" class="edge">
<title>drm_atomic_state&#45;&gt;duplicated driver private state</title>
<path fill="none" stroke="black" d="M621.75,-333.31C671.13,-322.45 742.96,-306.66 799.42,-294.25"/>
<polygon fill="black" stroke="black" points="800.4,-297.62 809.42,-292.05 798.9,-290.78 800.4,-297.62"/>
</g>
<!-- drm_device -->
<g id="node7" class="node">
<title>drm_device</title>
<polygon fill="none" stroke="black" points="954.5,-198 873.5,-198 873.5,-162 954.5,-162 954.5,-198"/>
<text text-anchor="middle" x="914" y="-176.3" font-family="Times,serif" font-size="14.00">drm_device</text>
</g>
<!-- drm_atomic_state&#45;&gt;drm_device -->
<g id="edge16" class="edge">
<title>drm_atomic_state&#45;&gt;drm_device</title>
<path fill="none" stroke="black" d="M621.68,-342.79C731.6,-336.08 962.3,-318.92 986,-292 1010.35,-264.34 975.91,-227.76 946.8,-204.3"/>
<polygon fill="black" stroke="black" points="948.82,-201.44 938.78,-198.05 944.52,-206.96 948.82,-201.44"/>
<text text-anchor="middle" x="1038" y="-270.3" font-family="Times,serif" font-size="14.00">atomic_commit</text>
</g>
<!-- duplicated drm_plane_state A&#45;&gt;drm_device -->
<!-- drm_plane A -->
<g id="node8" class="node">
<title>drm_plane A</title>
<polygon fill="none" stroke="black" points="729.5,-125 640.5,-125 640.5,-89 729.5,-89 729.5,-125"/>
<text text-anchor="middle" x="685" y="-103.3" font-family="Times,serif" font-size="14.00">drm_plane A</text>
</g>
<!-- drm_device&#45;&gt;drm_plane A -->
<g id="edge6" class="edge">
<title>drm_device&#45;&gt;drm_plane A</title>
<path fill="none" stroke="black" d="M873.32,-166.39C835.96,-154.8 780.32,-137.55 739.2,-124.8"/>
<polygon fill="black" stroke="black" points="740.19,-121.45 729.6,-121.83 738.12,-128.13 740.19,-121.45"/>
</g>
<!-- drm_plane B -->
<g id="node9" class="node">
<title>drm_plane B</title>
<polygon fill="none" stroke="black" points="855,-125 767,-125 767,-89 855,-89 855,-125"/>
<text text-anchor="middle" x="811" y="-103.3" font-family="Times,serif" font-size="14.00">drm_plane B</text>
</g>
<!-- drm_device&#45;&gt;drm_plane B -->
<g id="edge7" class="edge">
<title>drm_device&#45;&gt;drm_plane B</title>
<path fill="none" stroke="black" d="M889.33,-161.99C875.8,-152.67 858.84,-140.97 844.16,-130.86"/>
<polygon fill="black" stroke="black" points="846.05,-127.91 835.83,-125.11 842.07,-133.67 846.05,-127.91"/>
</g>
<!-- drm_crtc -->
<g id="node10" class="node">
<title>drm_crtc</title>
<polygon fill="none" stroke="black" points="947,-125 881,-125 881,-89 947,-89 947,-125"/>
<text text-anchor="middle" x="914" y="-103.3" font-family="Times,serif" font-size="14.00">drm_crtc</text>
</g>
<!-- drm_device&#45;&gt;drm_crtc -->
<g id="edge8" class="edge">
<title>drm_device&#45;&gt;drm_crtc</title>
<path fill="none" stroke="black" d="M914,-161.81C914,-153.79 914,-144.05 914,-135.07"/>
<polygon fill="black" stroke="black" points="917.5,-135.03 914,-125.03 910.5,-135.03 917.5,-135.03"/>
</g>
<!-- drm_connector -->
<g id="node11" class="node">
<title>drm_connector</title>
<polygon fill="none" stroke="black" points="1080.5,-125 981.5,-125 981.5,-89 1080.5,-89 1080.5,-125"/>
<text text-anchor="middle" x="1031" y="-103.3" font-family="Times,serif" font-size="14.00">drm_connector</text>
</g>
<!-- drm_device&#45;&gt;drm_connector -->
<g id="edge9" class="edge">
<title>drm_device&#45;&gt;drm_connector</title>
<path fill="none" stroke="black" d="M942.02,-161.99C957.54,-152.58 977.02,-140.76 993.8,-130.57"/>
<polygon fill="black" stroke="black" points="996.07,-133.29 1002.8,-125.11 992.43,-127.31 996.07,-133.29"/>
</g>
<!-- driver private object -->
<g id="node12" class="node">
<title>driver private object</title>
<polygon fill="none" stroke="black" points="1237.5,-125 1110.5,-125 1110.5,-89 1237.5,-89 1237.5,-125"/>
<text text-anchor="middle" x="1174" y="-103.3" font-family="Times,serif" font-size="14.00">driver private object</text>
</g>
<!-- drm_device&#45;&gt;driver private object -->
<g id="edge10" class="edge">
<title>drm_device&#45;&gt;driver private object</title>
<path fill="none" stroke="black" d="M954.62,-167.91C993.83,-157.2 1054.04,-140.76 1101.48,-127.8"/>
<polygon fill="black" stroke="black" points="1102.67,-131.11 1111.39,-125.1 1100.82,-124.35 1102.67,-131.11"/>
</g>
<!-- drm_plane_state A -->
<g id="node13" class="node">
<title>drm_plane_state A</title>
<polygon fill="none" stroke="black" points="709,-52 589,-52 589,-16 709,-16 709,-52"/>
<text text-anchor="middle" x="649" y="-30.3" font-family="Times,serif" font-size="14.00">drm_plane_state A</text>
</g>
<!-- drm_plane A&#45;&gt;drm_plane_state A -->
<g id="edge11" class="edge">
<title>drm_plane A&#45;&gt;drm_plane_state A</title>
<path fill="none" stroke="black" d="M676.29,-88.81C672.08,-80.53 666.95,-70.41 662.28,-61.19"/>
<polygon fill="black" stroke="black" points="665.28,-59.37 657.63,-52.03 659.04,-62.53 665.28,-59.37"/>
</g>
<!-- drm_plane_state B -->
<g id="node14" class="node">
<title>drm_plane_state B</title>
<polygon fill="none" stroke="black" points="846.5,-52 727.5,-52 727.5,-16 846.5,-16 846.5,-52"/>
<text text-anchor="middle" x="787" y="-30.3" font-family="Times,serif" font-size="14.00">drm_plane_state B</text>
</g>
<!-- drm_plane B&#45;&gt;drm_plane_state B -->
<g id="edge12" class="edge">
<title>drm_plane B&#45;&gt;drm_plane_state B</title>
<path fill="none" stroke="black" d="M805.19,-88.81C802.45,-80.7 799.11,-70.84 796.05,-61.78"/>
<polygon fill="black" stroke="black" points="799.27,-60.38 792.76,-52.03 792.64,-62.62 799.27,-60.38"/>
</g>
<!-- drm_crtc_state -->
<g id="node15" class="node">
<title>drm_crtc_state</title>
<polygon fill="none" stroke="black" points="963,-52 865,-52 865,-16 963,-16 963,-52"/>
<text text-anchor="middle" x="914" y="-30.3" font-family="Times,serif" font-size="14.00">drm_crtc_state</text>
</g>
<!-- drm_crtc&#45;&gt;drm_crtc_state -->
<g id="edge13" class="edge">
<title>drm_crtc&#45;&gt;drm_crtc_state</title>
<path fill="none" stroke="black" d="M914,-88.81C914,-80.79 914,-71.05 914,-62.07"/>
<polygon fill="black" stroke="black" points="917.5,-62.03 914,-52.03 910.5,-62.03 917.5,-62.03"/>
</g>
<!-- drm_connector_state -->
<g id="node16" class="node">
<title>drm_connector_state</title>
<polygon fill="none" stroke="black" points="1112.5,-52 981.5,-52 981.5,-16 1112.5,-16 1112.5,-52"/>
<text text-anchor="middle" x="1047" y="-30.3" font-family="Times,serif" font-size="14.00">drm_connector_state</text>
</g>
<!-- drm_connector&#45;&gt;drm_connector_state -->
<g id="edge14" class="edge">
<title>drm_connector&#45;&gt;drm_connector_state</title>
<path fill="none" stroke="black" d="M1034.87,-88.81C1036.68,-80.79 1038.88,-71.05 1040.9,-62.07"/>
<polygon fill="black" stroke="black" points="1044.38,-62.55 1043.16,-52.03 1037.55,-61.01 1044.38,-62.55"/>
</g>
<!-- driver private state -->
<g id="node17" class="node">
<title>driver private state</title>
<polygon fill="none" stroke="black" points="1249.5,-52 1130.5,-52 1130.5,-16 1249.5,-16 1249.5,-52"/>
<text text-anchor="middle" x="1190" y="-30.3" font-family="Times,serif" font-size="14.00">driver private state</text>
</g>
<!-- driver private object&#45;&gt;driver private state -->
<g id="edge15" class="edge">
<title>driver private object&#45;&gt;driver private state</title>
<path fill="none" stroke="black" d="M1177.87,-88.81C1179.68,-80.79 1181.88,-71.05 1183.9,-62.07"/>
<polygon fill="black" stroke="black" points="1187.38,-62.55 1186.16,-52.03 1180.55,-61.01 1187.38,-62.55"/>
</g>
</g>
</svg>
