<?xml version="1.0" encoding="UTF-8" standalone="no"?>
<!DOCTYPE svg PUBLIC "-//W3C//DTD SVG 1.1//EN"
 "http://www.w3.org/Graphics/SVG/1.1/DTD/svg11.dtd">
<!-- Generated by graphviz version 2.43.0 (0)
 -->
<!-- Title: KMS Pages: 1 -->
<svg width="375pt" height="409pt"
 viewBox="0.00 0.00 375.00 409.00" xmlns="http://www.w3.org/2000/svg" xmlns:xlink="http://www.w3.org/1999/xlink">
<g id="graph0" class="graph" transform="scale(1 1) rotate(0) translate(4 405)">
<title>KMS</title>
<polygon fill="white" stroke="transparent" points="-4,4 -4,-405 371,-405 371,4 -4,4"/>
<g id="clust1" class="cluster">
<title>cluster_static</title>
<polygon fill="none" stroke="black" stroke-dasharray="5,2" points="67,-91 67,-310 305,-310 305,-91 67,-91"/>
<text text-anchor="middle" x="186" y="-294.8" font-family="Times,serif" font-size="14.00">Static Objects</text>
</g>
<g id="clust2" class="cluster">
<title>cluster_user_created</title>
<polygon fill="none" stroke="black" stroke-dasharray="5,2" points="8,-318 8,-393 359,-393 359,-318 8,-318"/>
<text text-anchor="middle" x="183.5" y="-377.8" font-family="Times,serif" font-size="14.00">Userspace&#45;Created</text>
</g>
<g id="clust3" class="cluster">
<title>cluster_connector</title>
<polygon fill="none" stroke="black" stroke-dasharray="5,2" points="56,-8 56,-83 316,-83 316,-8 56,-8"/>
<text text-anchor="middle" x="186" y="-67.8" font-family="Times,serif" font-size="14.00">Hotpluggable</text>
</g>
<!-- drm_plane A -->
<g id="node1" class="node">
<title>drm_plane A</title>
<polygon fill="lightgrey" stroke="black" points="285.5,-279 196.5,-279 196.5,-243 285.5,-243 285.5,-279"/>
<text text-anchor="middle" x="241" y="-257.3" font-family="Times,serif" font-size="14.00">drm_plane A</text>
</g>
<!-- drm_crtc -->
<g id="node2" class="node">
<title>drm_crtc</title>
<polygon fill="lightgrey" stroke="black" points="164,-207 98,-207 98,-171 164,-171 164,-207"/>
<text text-anchor="middle" x="131" y="-185.3" font-family="Times,serif" font-size="14.00">drm_crtc</text>
</g>
<!-- drm_plane A&#45;&gt;drm_crtc -->
<g id="edge1" class="edge">
<title>drm_plane A&#45;&gt;drm_crtc</title>
<path fill="none" stroke="black" d="M214.09,-242.88C199.84,-233.81 182.15,-222.55 166.76,-212.76"/>
<polygon fill="black" stroke="black" points="168.33,-209.61 158.01,-207.19 164.57,-215.51 168.33,-209.61"/>
</g>
<!-- drm_encoder A -->
<g id="node4" class="node">
<title>drm_encoder A</title>
<polygon fill="lightgrey" stroke="black" points="177,-135 75,-135 75,-99 177,-99 177,-135"/>
<text text-anchor="middle" x="126" y="-113.3" font-family="Times,serif" font-size="14.00">drm_encoder A</text>
</g>
<!-- drm_crtc&#45;&gt;drm_encoder A -->
<g id="edge3" class="edge">
<title>drm_crtc&#45;&gt;drm_encoder A</title>
<path fill="none" stroke="black" d="M129.76,-170.7C129.21,-162.98 128.55,-153.71 127.94,-145.11"/>
<polygon fill="black" stroke="black" points="131.43,-144.83 127.22,-135.1 124.44,-145.33 131.43,-144.83"/>
</g>
<!-- drm_encoder B -->
<g id="node5" class="node">
<title>drm_encoder B</title>
<polygon fill="lightgrey" stroke="black" points="296.5,-135 195.5,-135 195.5,-99 296.5,-99 296.5,-135"/>
<text text-anchor="middle" x="246" y="-113.3" font-family="Times,serif" font-size="14.00">drm_encoder B</text>
</g>
<!-- drm_crtc&#45;&gt;drm_encoder B -->
<g id="edge4" class="edge">
<title>drm_crtc&#45;&gt;drm_encoder B</title>
<path fill="none" stroke="black" d="M159.13,-170.88C174.17,-161.72 192.87,-150.34 209.06,-140.48"/>
<polygon fill="black" stroke="black" points="211.04,-143.38 217.76,-135.19 207.4,-137.4 211.04,-143.38"/>
</g>
<!-- drm_plane B -->
<g id="node3" class="node">
<title>drm_plane B</title>
<polygon fill="lightgrey" stroke="black" points="169,-279 81,-279 81,-243 169,-243 169,-279"/>
<text text-anchor="middle" x="125" y="-257.3" font-family="Times,serif" font-size="14.00">drm_plane B</text>
</g>
<!-- drm_plane B&#45;&gt;drm_crtc -->
<g id="edge2" class="edge">
<title>drm_plane B&#45;&gt;drm_crtc</title>
<path fill="none" stroke="black" d="M126.48,-242.7C127.14,-234.98 127.94,-225.71 128.68,-217.11"/>
<polygon fill="black" stroke="black" points="132.17,-217.37 129.53,-207.1 125.19,-216.77 132.17,-217.37"/>
</g>
<!-- drm_connector A -->
<g id="node8" class="node">
<title>drm_connector A</title>
<polygon fill="none" stroke="black" points="177.5,-52 64.5,-52 64.5,-16 177.5,-16 177.5,-52"/>
<text text-anchor="middle" x="121" y="-30.3" font-family="Times,serif" font-size="14.00">drm_connector A</text>
</g>
<!-- drm_encoder A&#45;&gt;drm_connector A -->
<g id="edge7" class="edge">
<title>drm_encoder A&#45;&gt;drm_connector A</title>
<path fill="none" stroke="black" d="M124.94,-98.82C124.28,-88.19 123.43,-74.31 122.68,-62.2"/>
<polygon fill="black" stroke="black" points="126.17,-61.92 122.06,-52.15 119.18,-62.35 126.17,-61.92"/>
</g>
<!-- drm_connector B -->
<g id="node9" class="node">
<title>drm_connector B</title>
<polygon fill="none" stroke="black" points="308,-52 196,-52 196,-16 308,-16 308,-52"/>
<text text-anchor="middle" x="252" y="-30.3" font-family="Times,serif" font-size="14.00">drm_connector B</text>
</g>
<!-- drm_encoder B&#45;&gt;drm_connector B -->
<g id="edge8" class="edge">
<title>drm_encoder B&#45;&gt;drm_connector B</title>
<path fill="none" stroke="black" d="M247.27,-98.82C248.06,-88.19 249.09,-74.31 249.98,-62.2"/>
<polygon fill="black" stroke="black" points="253.48,-62.38 250.73,-52.15 246.5,-61.87 253.48,-62.38"/>
</g>
<!-- drm_framebuffer 1 -->
<g id="node6" class="node">
<title>drm_framebuffer 1</title>
<ellipse fill="none" stroke="black" cx="272" cy="-344" rx="79.09" ry="18"/>
<text text-anchor="middle" x="272" y="-340.3" font-family="Times,serif" font-size="14.00">drm_framebuffer 1</text>
</g>
<!-- drm_framebuffer 1&#45;&gt;drm_plane A -->
<g id="edge5" class="edge">
<title>drm_framebuffer 1&#45;&gt;drm_plane A</title>
<path fill="none" stroke="black" d="M265.43,-325.82C261.32,-315.08 255.94,-301.03 251.27,-288.84"/>
<polygon fill="black" stroke="black" points="254.41,-287.24 247.56,-279.15 247.87,-289.74 254.41,-287.24"/>
</g>
<!-- drm_framebuffer 2 -->
<g id="node7" class="node">
<title>drm_framebuffer 2</title>
<ellipse fill="none" stroke="black" cx="95" cy="-344" rx="79.09" ry="18"/>
<text text-anchor="middle" x="95" y="-340.3" font-family="Times,serif" font-size="14.00">drm_framebuffer 2</text>
</g>
<!-- drm_framebuffer 2&#45;&gt;drm_plane B -->
<g id="edge6" class="edge">
<title>drm_framebuffer 2&#45;&gt;drm_plane B</title>
<path fill="none" stroke="black" d="M101.36,-325.82C105.34,-315.08 110.55,-301.03 115.06,-288.84"/>
<polygon fill="black" stroke="black" points="118.46,-289.75 118.65,-279.15 111.89,-287.32 118.46,-289.75"/>
</g>
</g>
</svg>
