<?xml version="1.0" encoding="UTF-8" standalone="no"?>
<!DOCTYPE svg PUBLIC "-//W3C//DTD SVG 1.1//EN"
 "http://www.w3.org/Graphics/SVG/1.1/DTD/svg11.dtd">
<!-- Generated by graphviz version 2.43.0 (0)
 -->
<!-- Title: Output Pipeline Pages: 1 -->
<svg width="506pt" height="362pt"
 viewBox="0.00 0.00 506.00 362.00" xmlns="http://www.w3.org/2000/svg" xmlns:xlink="http://www.w3.org/1999/xlink">
<g id="graph0" class="graph" transform="scale(1 1) rotate(0) translate(4 358)">
<title>Output Pipeline</title>
<polygon fill="white" stroke="transparent" points="-4,4 -4,-358 502,-358 502,4 -4,4"/>
<g id="clust2" class="cluster">
<title>cluster_internal</title>
<polygon fill="none" stroke="black" stroke-dasharray="5,2" points="116,-91 116,-310 473,-310 473,-91 116,-91"/>
<text text-anchor="middle" x="294.5" y="-294.8" font-family="Times,serif" font-size="14.00">Internal Pipeline</text>
</g>
<g id="clust5" class="cluster">
<title>cluster_output</title>
<polygon fill="none" stroke="black" stroke-dasharray="5,2" points="8,-8 8,-83 490,-83 490,-8 8,-8"/>
<text text-anchor="middle" x="249" y="-67.8" font-family="Times,serif" font-size="14.00">Outputs</text>
</g>
<!-- drm_crtc -->
<g id="node1" class="node">
<title>drm_crtc</title>
<polygon fill="lightgrey" stroke="black" points="327,-354 261,-354 261,-318 327,-318 327,-354"/>
<text text-anchor="middle" x="294" y="-332.3" font-family="Times,serif" font-size="14.00">drm_crtc</text>
</g>
<!-- drm_encoder A -->
<g id="node2" class="node">
<title>drm_encoder A</title>
<polygon fill="lightgrey" stroke="black" points="465,-279 363,-279 363,-243 465,-243 465,-279"/>
<text text-anchor="middle" x="414" y="-257.3" font-family="Times,serif" font-size="14.00">drm_encoder A</text>
</g>
<!-- drm_crtc&#45;&gt;drm_encoder A -->
<g id="edge4" class="edge">
<title>drm_crtc&#45;&gt;drm_encoder A</title>
<path fill="none" stroke="black" d="M327.19,-323.11C336.14,-319.39 345.65,-314.95 354,-310 365.77,-303.03 377.75,-293.93 387.87,-285.54"/>
<polygon fill="black" stroke="black" points="390.19,-288.16 395.55,-279.01 385.66,-282.82 390.19,-288.16"/>
</g>
<!-- drm_encoder B -->
<g id="node3" class="node">
<title>drm_encoder B</title>
<polygon fill="lightgrey" stroke="black" points="344.5,-279 243.5,-279 243.5,-243 344.5,-243 344.5,-279"/>
<text text-anchor="middle" x="294" y="-257.3" font-family="Times,serif" font-size="14.00">drm_encoder B</text>
</g>
<!-- drm_crtc&#45;&gt;drm_encoder B -->
<g id="edge5" class="edge">
<title>drm_crtc&#45;&gt;drm_encoder B</title>
<path fill="none" stroke="black" d="M294,-317.7C294,-309.25 294,-298.87 294,-289.37"/>
<polygon fill="black" stroke="black" points="297.5,-289.18 294,-279.18 290.5,-289.18 297.5,-289.18"/>
</g>
<!-- drm_encoder C -->
<g id="node4" class="node">
<title>drm_encoder C</title>
<polygon fill="lightgrey" stroke="black" points="225.5,-279 124.5,-279 124.5,-243 225.5,-243 225.5,-279"/>
<text text-anchor="middle" x="175" y="-257.3" font-family="Times,serif" font-size="14.00">drm_encoder C</text>
</g>
<!-- drm_crtc&#45;&gt;drm_encoder C -->
<g id="edge6" class="edge">
<title>drm_crtc&#45;&gt;drm_encoder C</title>
<path fill="none" stroke="black" d="M260.76,-322.79C252.14,-319.12 243.03,-314.79 235,-310 223.34,-303.04 211.46,-294.03 201.39,-285.7"/>
<polygon fill="black" stroke="black" points="203.63,-283.01 193.74,-279.21 199.1,-288.35 203.63,-283.01"/>
</g>
<!-- drm_connector A -->
<g id="node8" class="node">
<title>drm_connector A</title>
<polygon fill="none" stroke="black" points="481.5,-52 368.5,-52 368.5,-16 481.5,-16 481.5,-52"/>
<text text-anchor="middle" x="425" y="-30.3" font-family="Times,serif" font-size="14.00">drm_connector A</text>
</g>
<!-- drm_encoder A&#45;&gt;drm_connector A -->
<g id="edge7" class="edge">
<title>drm_encoder A&#45;&gt;drm_connector A</title>
<path fill="none" stroke="black" d="M414.84,-242.72C416.75,-203.77 421.39,-108.88 423.68,-62.05"/>
<polygon fill="black" stroke="black" points="427.17,-62.19 424.17,-52.03 420.18,-61.85 427.17,-62.19"/>
</g>
<!-- drm_bridge B -->
<g id="node5" class="node">
<title>drm_bridge B</title>
<polygon fill="lightgrey" stroke="black" points="340.5,-207 247.5,-207 247.5,-171 340.5,-171 340.5,-207"/>
<text text-anchor="middle" x="294" y="-185.3" font-family="Times,serif" font-size="14.00">drm_bridge B</text>
</g>
<!-- drm_encoder B&#45;&gt;drm_bridge B -->
<g id="edge1" class="edge">
<title>drm_encoder B&#45;&gt;drm_bridge B</title>
<path fill="none" stroke="black" d="M294,-242.7C294,-234.98 294,-225.71 294,-217.11"/>
<polygon fill="black" stroke="black" points="297.5,-217.1 294,-207.1 290.5,-217.1 297.5,-217.1"/>
</g>
<!-- drm_bridge C1 -->
<g id="node6" class="node">
<title>drm_bridge C1</title>
<polygon fill="lightgrey" stroke="black" points="224,-207 124,-207 124,-171 224,-171 224,-207"/>
<text text-anchor="middle" x="174" y="-185.3" font-family="Times,serif" font-size="14.00">drm_bridge C1</text>
</g>
<!-- drm_encoder C&#45;&gt;drm_bridge C1 -->
<g id="edge2" class="edge">
<title>drm_encoder C&#45;&gt;drm_bridge C1</title>
<path fill="none" stroke="black" d="M174.75,-242.7C174.64,-234.98 174.51,-225.71 174.39,-217.11"/>
<polygon fill="black" stroke="black" points="177.89,-217.05 174.24,-207.1 170.89,-217.15 177.89,-217.05"/>
</g>
<!-- drm_connector B -->
<g id="node9" class="node">
<title>drm_connector B</title>
<polygon fill="none" stroke="black" points="350,-52 238,-52 238,-16 350,-16 350,-52"/>
<text text-anchor="middle" x="294" y="-30.3" font-family="Times,serif" font-size="14.00">drm_connector B</text>
</g>
<!-- drm_bridge B&#45;&gt;drm_connector B -->
<g id="edge8" class="edge">
<title>drm_bridge B&#45;&gt;drm_connector B</title>
<path fill="none" stroke="black" d="M294,-170.75C294,-144.46 294,-94.13 294,-62.69"/>
<polygon fill="black" stroke="black" points="297.5,-62.43 294,-52.43 290.5,-62.43 297.5,-62.43"/>
</g>
<!-- drm_bridge C2 -->
<g id="node7" class="node">
<title>drm_bridge C2</title>
<polygon fill="lightgrey" stroke="black" points="224,-135 124,-135 124,-99 224,-99 224,-135"/>
<text text-anchor="middle" x="174" y="-113.3" font-family="Times,serif" font-size="14.00">drm_bridge C2</text>
</g>
<!-- drm_bridge C1&#45;&gt;drm_bridge C2 -->
<g id="edge3" class="edge">
<title>drm_bridge C1&#45;&gt;drm_bridge C2</title>
<path fill="none" stroke="black" d="M174,-170.7C174,-162.98 174,-153.71 174,-145.11"/>
<polygon fill="black" stroke="black" points="177.5,-145.1 174,-135.1 170.5,-145.1 177.5,-145.1"/>
</g>
<!-- drm_connector C -->
<g id="node10" class="node">
<title>drm_connector C</title>
<polygon fill="none" stroke="black" points="220,-52 108,-52 108,-16 220,-16 220,-52"/>
<text text-anchor="middle" x="164" y="-30.3" font-family="Times,serif" font-size="14.00">drm_connector C</text>
</g>
<!-- drm_bridge C2&#45;&gt;drm_connector C -->
<g id="edge9" class="edge">
<title>drm_bridge C2&#45;&gt;drm_connector C</title>
<path fill="none" stroke="black" d="M171.88,-98.82C170.57,-88.19 168.85,-74.31 167.36,-62.2"/>
<polygon fill="black" stroke="black" points="170.82,-61.65 166.12,-52.15 163.87,-62.51 170.82,-61.65"/>
</g>
<!-- drm_panel -->
<g id="node11" class="node">
<title>drm_panel</title>
<polygon fill="none" stroke="black" points="90.5,-52 15.5,-52 15.5,-16 90.5,-16 90.5,-52"/>
<text text-anchor="middle" x="53" y="-30.3" font-family="Times,serif" font-size="14.00">drm_panel</text>
</g>
</g>
</svg>
