<?xml version="1.0" encoding="UTF-8" standalone="no"?>
<!DOCTYPE svg PUBLIC "-//W3C//DTD SVG 1.1//EN"
 "http://www.w3.org/Graphics/SVG/1.1/DTD/svg11.dtd">
<!-- Generated by graphviz version 2.43.0 (0)
 -->
<!-- Title: IPU3 ImgU Pages: 1 -->
<svg width="640pt" height="314pt"
 viewBox="0.00 0.00 640.00 314.00" xmlns="http://www.w3.org/2000/svg" xmlns:xlink="http://www.w3.org/1999/xlink">
<g id="graph0" class="graph" transform="scale(1 1) rotate(0) translate(4 310)">
<title>IPU3 ImgU</title>
<polygon fill="white" stroke="transparent" points="-4,4 -4,-310 636,-310 636,4 -4,4"/>
<!-- a -->
<g id="node1" class="node">
<title>a</title>
<polygon fill="none" stroke="black" points="159,-306 82,-306 82,-270 159,-270 159,-306"/>
<text text-anchor="middle" x="120.5" y="-284.3" font-family="Times,serif" font-size="14.00">Raw pixels</text>
</g>
<!-- b -->
<g id="node2" class="node">
<title>b</title>
<polygon fill="none" stroke="black" points="182.5,-252 58.5,-252 58.5,-216 182.5,-216 182.5,-252"/>
<text text-anchor="middle" x="120.5" y="-230.3" font-family="Times,serif" font-size="14.00">Bayer Downscaling</text>
</g>
<!-- a&#45;&gt;b -->
<g id="edge1" class="edge">
<title>a&#45;&gt;b</title>
<path fill="none" stroke="black" d="M121,-269.72C121,-269.72 121,-262.26 121,-262.26"/>
<polygon fill="black" stroke="black" points="124.5,-262.26 121,-252.26 117.5,-262.26 124.5,-262.26"/>
</g>
<!-- g -->
<g id="node7" class="node">
<title>g</title>
<polygon fill="none" stroke="black" points="423.5,-306 280.5,-306 280.5,-270 423.5,-270 423.5,-306"/>
<text text-anchor="middle" x="352" y="-284.3" font-family="Times,serif" font-size="14.00">Bayer Noise Reduction</text>
</g>
<!-- a&#45;&gt;g -->
<!-- c -->
<g id="node3" class="node">
<title>c</title>
<polygon fill="none" stroke="black" points="197,-198 44,-198 44,-162 197,-162 197,-198"/>
<text text-anchor="middle" x="120.5" y="-176.3" font-family="Times,serif" font-size="14.00">Optical Black Correction</text>
</g>
<!-- b&#45;&gt;c -->
<g id="edge2" class="edge">
<title>b&#45;&gt;c</title>
<path fill="none" stroke="black" d="M121,-215.72C121,-215.72 121,-208.26 121,-208.26"/>
<polygon fill="black" stroke="black" points="124.5,-208.26 121,-198.26 117.5,-208.26 124.5,-208.26"/>
</g>
<!-- d -->
<g id="node4" class="node">
<title>d</title>
<polygon fill="none" stroke="black" points="165,-144 76,-144 76,-108 165,-108 165,-144"/>
<text text-anchor="middle" x="120.5" y="-122.3" font-family="Times,serif" font-size="14.00">Linearization</text>
</g>
<!-- c&#45;&gt;d -->
<g id="edge3" class="edge">
<title>c&#45;&gt;d</title>
<path fill="none" stroke="black" d="M121,-161.72C121,-161.72 121,-154.26 121,-154.26"/>
<polygon fill="black" stroke="black" points="124.5,-154.26 121,-144.26 117.5,-154.26 124.5,-154.26"/>
</g>
<!-- e -->
<g id="node5" class="node">
<title>e</title>
<polygon fill="none" stroke="black" points="196.5,-90 44.5,-90 44.5,-54 196.5,-54 196.5,-90"/>
<text text-anchor="middle" x="120.5" y="-68.3" font-family="Times,serif" font-size="14.00">Lens Shading Correction</text>
</g>
<!-- d&#45;&gt;e -->
<g id="edge4" class="edge">
<title>d&#45;&gt;e</title>
<path fill="none" stroke="black" d="M121,-107.72C121,-107.72 121,-100.26 121,-100.26"/>
<polygon fill="black" stroke="black" points="124.5,-100.26 121,-90.26 117.5,-100.26 124.5,-100.26"/>
</g>
<!-- f -->
<g id="node6" class="node">
<title>f</title>
<polygon fill="none" stroke="black" points="241,-36 0,-36 0,0 241,0 241,-36"/>
<text text-anchor="middle" x="120.5" y="-14.3" font-family="Times,serif" font-size="14.00">White Balance / Exposure / Focus Apply</text>
</g>
<!-- e&#45;&gt;f -->
<g id="edge5" class="edge">
<title>e&#45;&gt;f</title>
<path fill="none" stroke="black" d="M121,-53.72C121,-53.72 121,-46.26 121,-46.26"/>
<polygon fill="black" stroke="black" points="124.5,-46.26 121,-36.26 117.5,-46.26 124.5,-46.26"/>
</g>
<!-- f&#45;&gt;g -->
<g id="edge18" class="edge">
<title>f&#45;&gt;g</title>
<path fill="none" stroke="black" d="M220,-36.15C220,-95.79 220,-282 220,-282 220,-282 270.21,-282 270.21,-282"/>
<polygon fill="black" stroke="black" points="270.21,-285.5 280.21,-282 270.21,-278.5 270.21,-285.5"/>
</g>
<!-- h -->
<g id="node8" class="node">
<title>h</title>
<polygon fill="none" stroke="black" points="379,-252 325,-252 325,-216 379,-216 379,-252"/>
<text text-anchor="middle" x="352" y="-230.3" font-family="Times,serif" font-size="14.00">ANR</text>
</g>
<!-- g&#45;&gt;h -->
<g id="edge6" class="edge">
<title>g&#45;&gt;h</title>
<path fill="none" stroke="black" d="M353,-269.72C353,-269.72 353,-262.26 353,-262.26"/>
<polygon fill="black" stroke="black" points="356.5,-262.26 353,-252.26 349.5,-262.26 356.5,-262.26"/>
</g>
<!-- m -->
<g id="node13" class="node">
<title>m</title>
<polygon fill="none" stroke="black" points="618.5,-306 476.5,-306 476.5,-270 618.5,-270 618.5,-306"/>
<text text-anchor="middle" x="547.5" y="-284.3" font-family="Times,serif" font-size="14.00">Chroma Down Scaling</text>
</g>
<!-- g&#45;&gt;m -->
<!-- i -->
<g id="node9" class="node">
<title>i</title>
<polygon fill="none" stroke="black" points="396.5,-198 307.5,-198 307.5,-162 396.5,-162 396.5,-198"/>
<text text-anchor="middle" x="352" y="-176.3" font-family="Times,serif" font-size="14.00">Demosaicing</text>
</g>
<!-- h&#45;&gt;i -->
<g id="edge7" class="edge">
<title>h&#45;&gt;i</title>
<path fill="none" stroke="black" d="M353,-215.72C353,-215.72 353,-208.26 353,-208.26"/>
<polygon fill="black" stroke="black" points="356.5,-208.26 353,-198.26 349.5,-208.26 356.5,-208.26"/>
</g>
<!-- j -->
<g id="node10" class="node">
<title>j</title>
<polygon fill="none" stroke="black" points="427,-144 277,-144 277,-108 427,-108 427,-144"/>
<text text-anchor="middle" x="352" y="-122.3" font-family="Times,serif" font-size="14.00">Color Correction Matrix</text>
</g>
<!-- i&#45;&gt;j -->
<g id="edge8" class="edge">
<title>i&#45;&gt;j</title>
<path fill="none" stroke="black" d="M353,-161.72C353,-161.72 353,-154.26 353,-154.26"/>
<polygon fill="black" stroke="black" points="356.5,-154.26 353,-144.26 349.5,-154.26 356.5,-154.26"/>
</g>
<!-- k -->
<g id="node11" class="node">
<title>k</title>
<polygon fill="none" stroke="black" points="411.5,-90 292.5,-90 292.5,-54 411.5,-54 411.5,-90"/>
<text text-anchor="middle" x="352" y="-68.3" font-family="Times,serif" font-size="14.00">Gamma correction</text>
</g>
<!-- j&#45;&gt;k -->
<g id="edge9" class="edge">
<title>j&#45;&gt;k</title>
<path fill="none" stroke="black" d="M353,-107.72C353,-107.72 353,-100.26 353,-100.26"/>
<polygon fill="black" stroke="black" points="356.5,-100.26 353,-90.26 349.5,-100.26 356.5,-100.26"/>
</g>
<!-- l -->
<g id="node12" class="node">
<title>l</title>
<polygon fill="none" stroke="black" points="426.5,-36 277.5,-36 277.5,0 426.5,0 426.5,-36"/>
<text text-anchor="middle" x="352" y="-14.3" font-family="Times,serif" font-size="14.00">Color Space Conversion</text>
</g>
<!-- k&#45;&gt;l -->
<g id="edge10" class="edge">
<title>k&#45;&gt;l</title>
<path fill="none" stroke="black" d="M353,-53.72C353,-53.72 353,-46.26 353,-46.26"/>
<polygon fill="black" stroke="black" points="356.5,-46.26 353,-36.26 349.5,-46.26 356.5,-46.26"/>
</g>
<!-- l&#45;&gt;m -->
<g id="edge19" class="edge">
<title>l&#45;&gt;m</title>
<path fill="none" stroke="black" d="M426.52,-18C437.93,-18 446,-18 446,-18 446,-18 446,-282 446,-282 446,-282 466.45,-282 466.45,-282"/>
<polygon fill="black" stroke="black" points="466.45,-285.5 476.45,-282 466.45,-278.5 466.45,-285.5"/>
</g>
<!-- n -->
<g id="node14" class="node">
<title>n</title>
<polygon fill="none" stroke="black" points="632,-252 463,-252 463,-216 632,-216 632,-252"/>
<text text-anchor="middle" x="547.5" y="-230.3" font-family="Times,serif" font-size="14.00">Chromatic Noise Reduction</text>
</g>
<!-- m&#45;&gt;n -->
<g id="edge11" class="edge">
<title>m&#45;&gt;n</title>
<path fill="none" stroke="black" d="M548,-269.72C548,-269.72 548,-262.26 548,-262.26"/>
<polygon fill="black" stroke="black" points="551.5,-262.26 548,-252.26 544.5,-262.26 551.5,-262.26"/>
</g>
<!-- o -->
<g id="node15" class="node">
<title>o</title>
<polygon fill="none" stroke="black" points="618,-198 477,-198 477,-162 618,-162 618,-198"/>
<text text-anchor="middle" x="547.5" y="-176.3" font-family="Times,serif" font-size="14.00">Total Color Correction</text>
</g>
<!-- n&#45;&gt;o -->
<g id="edge12" class="edge">
<title>n&#45;&gt;o</title>
<path fill="none" stroke="black" d="M548,-215.72C548,-215.72 548,-208.26 548,-208.26"/>
<polygon fill="black" stroke="black" points="551.5,-208.26 548,-198.26 544.5,-208.26 551.5,-208.26"/>
</g>
<!-- p -->
<g id="node16" class="node">
<title>p</title>
<polygon fill="none" stroke="black" points="574.5,-144 520.5,-144 520.5,-108 574.5,-108 574.5,-144"/>
<text text-anchor="middle" x="547.5" y="-122.3" font-family="Times,serif" font-size="14.00">XNR3</text>
</g>
<!-- o&#45;&gt;p -->
<g id="edge13" class="edge">
<title>o&#45;&gt;p</title>
<path fill="none" stroke="black" d="M548,-161.72C548,-161.72 548,-154.26 548,-154.26"/>
<polygon fill="black" stroke="black" points="551.5,-154.26 548,-144.26 544.5,-154.26 551.5,-154.26"/>
</g>
<!-- q -->
<g id="node17" class="node">
<title>q</title>
<polygon fill="none" stroke="black" points="574.5,-90 520.5,-90 520.5,-54 574.5,-54 574.5,-90"/>
<text text-anchor="middle" x="547.5" y="-68.3" font-family="Times,serif" font-size="14.00">TNR</text>
</g>
<!-- p&#45;&gt;q -->
<g id="edge14" class="edge">
<title>p&#45;&gt;q</title>
<path fill="none" stroke="black" d="M548,-107.72C548,-107.72 548,-100.26 548,-100.26"/>
<polygon fill="black" stroke="black" points="551.5,-100.26 548,-90.26 544.5,-100.26 551.5,-100.26"/>
</g>
<!-- r -->
<g id="node18" class="node">
<title>r</title>
<polygon fill="none" stroke="black" points="574.5,-36 520.5,-36 520.5,0 574.5,0 574.5,-36"/>
<text text-anchor="middle" x="547.5" y="-14.3" font-family="Times,serif" font-size="14.00">DDR</text>
</g>
<!-- q&#45;&gt;r -->
<g id="edge15" class="edge">
<title>q&#45;&gt;r</title>
<path fill="none" stroke="black" d="M548,-53.72C548,-53.72 548,-46.26 548,-46.26"/>
<polygon fill="black" stroke="black" points="551.5,-46.26 548,-36.26 544.5,-46.26 551.5,-46.26"/>
</g>
</g>
</svg>
