<?xml version="1.0" encoding="UTF-8" standalone="no"?>
<!DOCTYPE svg PUBLIC "-//W3C//DTD SVG 1.1//EN"
 "http://www.w3.org/Graphics/SVG/1.1/DTD/svg11.dtd">
<!-- Generated by graphviz version 2.43.0 (0)
 -->
<!-- Title: NFC Pages: 1 -->
<svg width="410pt" height="404pt"
 viewBox="0.00 0.00 410.38 404.00" xmlns="http://www.w3.org/2000/svg" xmlns:xlink="http://www.w3.org/1999/xlink">
<g id="graph0" class="graph" transform="scale(1 1) rotate(0) translate(4 400)">
<title>NFC</title>
<polygon fill="white" stroke="transparent" points="-4,4 -4,-400 406.38,-400 406.38,4 -4,4"/>
<!-- cl_nfc -->
<g id="node1" class="node">
<title>cl_nfc</title>
<ellipse fill="none" stroke="black" cx="208.34" cy="-90" rx="55.79" ry="18"/>
<text text-anchor="middle" x="208.34" y="-86.3" font-family="Times,serif" font-size="14.00">mei/bus(nfc)</text>
</g>
<!-- me_cl_nfc -->
<g id="node2" class="node">
<title>me_cl_nfc</title>
<ellipse fill="none" stroke="black" cx="208.34" cy="-18" rx="53.09" ry="18"/>
<text text-anchor="middle" x="208.34" y="-14.3" font-family="Times,serif" font-size="14.00">me fw (nfc)</text>
</g>
<!-- cl_nfc&#45;&gt;me_cl_nfc -->
<g id="edge1" class="edge">
<title>cl_nfc&#45;&gt;me_cl_nfc</title>
<path fill="none" stroke="black" d="M208.34,-71.7C208.34,-63.98 208.34,-54.71 208.34,-46.11"/>
<polygon fill="black" stroke="black" points="211.84,-46.1 208.34,-36.1 204.84,-46.1 211.84,-46.1"/>
</g>
<!-- drivers/nfc/mei_phy -->
<g id="node3" class="node">
<title>drivers/nfc/mei_phy</title>
<ellipse fill="none" stroke="black" cx="208.34" cy="-162" rx="82.59" ry="18"/>
<text text-anchor="middle" x="208.34" y="-158.3" font-family="Times,serif" font-size="14.00">drivers/nfc/mei_phy</text>
</g>
<!-- drivers/nfc/mei_phy&#45;&gt;cl_nfc -->
<g id="edge2" class="edge">
<title>drivers/nfc/mei_phy&#45;&gt;cl_nfc</title>
<path fill="none" stroke="black" d="M208.34,-143.7C208.34,-135.98 208.34,-126.71 208.34,-118.11"/>
<polygon fill="black" stroke="black" points="211.84,-118.1 208.34,-108.1 204.84,-118.1 211.84,-118.1"/>
</g>
<!-- drivers/nfc/microread/mei -->
<g id="node4" class="node">
<title>drivers/nfc/microread/mei</title>
<ellipse fill="none" stroke="black" cx="103.34" cy="-234" rx="103.18" ry="18"/>
<text text-anchor="middle" x="103.34" y="-230.3" font-family="Times,serif" font-size="14.00">drivers/nfc/microread/mei</text>
</g>
<!-- drivers/nfc/microread/mei&#45;&gt;cl_nfc -->
<g id="edge3" class="edge">
<title>drivers/nfc/microread/mei&#45;&gt;cl_nfc</title>
<path fill="none" stroke="black" d="M101.63,-215.69C100.63,-196.5 101.78,-165.44 116.34,-144 127.26,-127.92 144.8,-116.09 161.65,-107.74"/>
<polygon fill="black" stroke="black" points="163.29,-110.84 170.89,-103.46 160.35,-104.49 163.29,-110.84"/>
</g>
<!-- drivers/nfc/microread/mei&#45;&gt;drivers/nfc/mei_phy -->
<g id="edge4" class="edge">
<title>drivers/nfc/microread/mei&#45;&gt;drivers/nfc/mei_phy</title>
<path fill="none" stroke="black" d="M128.22,-216.41C142.32,-207.02 160.12,-195.15 175.37,-184.98"/>
<polygon fill="black" stroke="black" points="177.62,-187.69 184,-179.23 173.74,-181.86 177.62,-187.69"/>
</g>
<!-- drivers/nfc/pn544/mei -->
<g id="node5" class="node">
<title>drivers/nfc/pn544/mei</title>
<ellipse fill="none" stroke="black" cx="313.34" cy="-234" rx="89.08" ry="18"/>
<text text-anchor="middle" x="313.34" y="-230.3" font-family="Times,serif" font-size="14.00">drivers/nfc/pn544/mei</text>
</g>
<!-- drivers/nfc/pn544/mei&#45;&gt;cl_nfc -->
<g id="edge5" class="edge">
<title>drivers/nfc/pn544/mei&#45;&gt;cl_nfc</title>
<path fill="none" stroke="black" d="M315.05,-215.69C316.05,-196.5 314.9,-165.44 300.34,-144 289.42,-127.92 271.88,-116.09 255.03,-107.74"/>
<polygon fill="black" stroke="black" points="256.33,-104.49 245.79,-103.46 253.39,-110.84 256.33,-104.49"/>
</g>
<!-- drivers/nfc/pn544/mei&#45;&gt;drivers/nfc/mei_phy -->
<g id="edge6" class="edge">
<title>drivers/nfc/pn544/mei&#45;&gt;drivers/nfc/mei_phy</title>
<path fill="none" stroke="black" d="M288.72,-216.59C274.64,-207.2 256.78,-195.29 241.47,-185.09"/>
<polygon fill="black" stroke="black" points="243.07,-181.94 232.8,-179.31 239.18,-187.77 243.07,-181.94"/>
</g>
<!-- net/nfc -->
<g id="node6" class="node">
<title>net/nfc</title>
<ellipse fill="none" stroke="black" cx="208.34" cy="-306" rx="35.19" ry="18"/>
<text text-anchor="middle" x="208.34" y="-302.3" font-family="Times,serif" font-size="14.00">net/nfc</text>
</g>
<!-- net/nfc&#45;&gt;drivers/nfc/microread/mei -->
<g id="edge7" class="edge">
<title>net/nfc&#45;&gt;drivers/nfc/microread/mei</title>
<path fill="none" stroke="black" d="M187.85,-291.34C173.31,-281.65 153.48,-268.43 136.69,-257.23"/>
<polygon fill="black" stroke="black" points="138.49,-254.22 128.22,-251.59 134.6,-260.05 138.49,-254.22"/>
</g>
<!-- net/nfc&#45;&gt;drivers/nfc/pn544/mei -->
<g id="edge8" class="edge">
<title>net/nfc&#45;&gt;drivers/nfc/pn544/mei</title>
<path fill="none" stroke="black" d="M228.84,-291.34C243.47,-281.58 263.48,-268.24 280.35,-257"/>
<polygon fill="black" stroke="black" points="282.46,-259.79 288.84,-251.33 278.58,-253.97 282.46,-259.79"/>
</g>
<!-- neard -->
<g id="node7" class="node">
<title>neard</title>
<ellipse fill="none" stroke="black" cx="208.34" cy="-378" rx="30.59" ry="18"/>
<text text-anchor="middle" x="208.34" y="-374.3" font-family="Times,serif" font-size="14.00">neard</text>
</g>
<!-- neard&#45;&gt;net/nfc -->
<g id="edge9" class="edge">
<title>neard&#45;&gt;net/nfc</title>
<path fill="none" stroke="black" d="M208.34,-359.7C208.34,-351.98 208.34,-342.71 208.34,-334.11"/>
<polygon fill="black" stroke="black" points="211.84,-334.1 208.34,-324.1 204.84,-334.1 211.84,-334.1"/>
</g>
</g>
</svg>
