<?xml version="1.0" encoding="UTF-8" standalone="no"?>
<!DOCTYPE svg PUBLIC "-//W3C//DTD SVG 1.1//EN"
 "http://www.w3.org/Graphics/SVG/1.1/DTD/svg11.dtd">
<!-- Generated by graphviz version 2.43.0 (0)
 -->
<!-- Title: encoder_state_machine Pages: 1 -->
<svg width="1206pt" height="667pt"
 viewBox="0.00 0.00 1205.71 666.66" xmlns="http://www.w3.org/2000/svg" xmlns:xlink="http://www.w3.org/1999/xlink">
<g id="graph0" class="graph" transform="scale(1 1) rotate(0) translate(4 662.66)">
<title>encoder_state_machine</title>
<polygon fill="white" stroke="transparent" points="-4,4 -4,-662.66 1201.71,-662.66 1201.71,4 -4,4"/>
<!-- Encoding -->
<g id="node1" class="node">
<title>Encoding</title>
<ellipse fill="none" stroke="black" cx="548.71" cy="-610.47" rx="44.38" ry="44.38"/>
<ellipse fill="none" stroke="black" cx="548.71" cy="-610.47" rx="48.39" ry="48.39"/>
<text text-anchor="middle" x="548.71" y="-606.77" font-family="Times,serif" font-size="14.00">Encoding</text>
</g>
<!-- Encoding&#45;&gt;Encoding -->
<g id="edge6" class="edge">
<title>Encoding&#45;&gt;Encoding</title>
<path fill="none" stroke="black" d="M595.11,-623.76C606.46,-622.77 614.91,-618.34 614.91,-610.47 614.91,-605.18 611.09,-601.44 605.15,-599.26"/>
<polygon fill="black" stroke="black" points="605.61,-595.78 595.11,-597.18 604.19,-602.64 605.61,-595.78"/>
</g>
<!-- Stopped -->
<g id="node3" class="node">
<title>Stopped</title>
<ellipse fill="none" stroke="black" cx="230.71" cy="-314.53" rx="39.79" ry="39.79"/>
<text text-anchor="middle" x="230.71" y="-310.83" font-family="Times,serif" font-size="14.00">Stopped</text>
</g>
<!-- Encoding&#45;&gt;Stopped -->
<g id="edge5" class="edge">
<title>Encoding&#45;&gt;Stopped</title>
<path fill="none" stroke="black" d="M501.13,-601.65C421.09,-587.42 265.04,-554.71 232.71,-511.27 201.15,-468.87 207.2,-405.74 216.81,-362.72"/>
<polygon fill="black" stroke="black" points="220.27,-363.32 219.17,-352.78 213.46,-361.7 220.27,-363.32"/>
<text text-anchor="middle" x="331.21" y="-477.02" font-family="Times,serif" font-size="14.00">VIDIOC_STREAMOFF(OUTPUT)</text>
</g>
<!-- Drain -->
<g id="node4" class="node">
<title>Drain</title>
<ellipse fill="none" stroke="black" cx="469.71" cy="-480.72" rx="30.59" ry="30.59"/>
<text text-anchor="middle" x="469.71" y="-477.02" font-family="Times,serif" font-size="14.00">Drain</text>
</g>
<!-- Encoding&#45;&gt;Drain -->
<g id="edge3" class="edge">
<title>Encoding&#45;&gt;Drain</title>
<path fill="none" stroke="black" d="M507.23,-585.33C492.97,-574.7 478.62,-560.84 470.71,-544.27 467.36,-537.25 465.81,-529.27 465.31,-521.4"/>
<polygon fill="black" stroke="black" points="468.8,-521.19 465.19,-511.23 461.81,-521.26 468.8,-521.19"/>
<text text-anchor="middle" x="542.71" y="-533.07" font-family="Times,serif" font-size="14.00">V4L2_ENC_CMD_STOP</text>
</g>
<!-- Reset -->
<g id="node5" class="node">
<title>Reset</title>
<ellipse fill="none" stroke="black" cx="701.71" cy="-193.34" rx="30.59" ry="30.59"/>
<text text-anchor="middle" x="701.71" y="-189.64" font-family="Times,serif" font-size="14.00">Reset</text>
</g>
<!-- Encoding&#45;&gt;Reset -->
<g id="edge4" class="edge">
<title>Encoding&#45;&gt;Reset</title>
<path fill="none" stroke="black" d="M586.82,-580.65C597.66,-570.4 608.27,-557.97 614.71,-544.27 647.36,-474.78 581.53,-431.95 629.71,-372.18 646.65,-351.16 670.77,-375.19 687.71,-354.18 714.93,-320.43 714.22,-268.64 709.49,-233.21"/>
<polygon fill="black" stroke="black" points="712.94,-232.61 708,-223.24 706.02,-233.64 712.94,-232.61"/>
<text text-anchor="middle" x="732.21" y="-398.48" font-family="Times,serif" font-size="14.00">VIDIOC_STREAMOFF(CAPTURE)</text>
</g>
<!-- Initialization -->
<g id="node2" class="node">
<title>Initialization</title>
<ellipse fill="none" stroke="black" cx="1071.71" cy="-55.9" rx="55.79" ry="55.79"/>
<text text-anchor="middle" x="1071.71" y="-52.2" font-family="Times,serif" font-size="14.00">Initialization</text>
</g>
<!-- Initialization&#45;&gt;Encoding -->
<g id="edge2" class="edge">
<title>Initialization&#45;&gt;Encoding</title>
<path fill="none" stroke="black" d="M1071.71,-111.92C1071.71,-136.52 1071.71,-165.88 1071.71,-192.34 1071.71,-481.72 1071.71,-481.72 1071.71,-481.72 1071.71,-576.46 743.76,-601.26 607.25,-607.48"/>
<polygon fill="black" stroke="black" points="606.81,-604 596.98,-607.93 607.12,-610.99 606.81,-604"/>
<text text-anchor="middle" x="1134.71" y="-310.83" font-family="Times,serif" font-size="14.00">Both queues streaming</text>
</g>
<!-- Stopped&#45;&gt;Encoding -->
<g id="edge11" class="edge">
<title>Stopped&#45;&gt;Encoding</title>
<path fill="none" stroke="black" d="M193.48,-328.93C116.11,-358.72 -49.66,-433.99 14.71,-511.27 74.78,-583.4 364.56,-602.73 490.29,-607.76"/>
<polygon fill="black" stroke="black" points="490.37,-611.27 500.5,-608.15 490.64,-604.27 490.37,-611.27"/>
<text text-anchor="middle" x="110.71" y="-492.02" font-family="Times,serif" font-size="14.00">V4L2_ENC_CMD_START</text>
<text text-anchor="middle" x="110.71" y="-477.02" font-family="Times,serif" font-size="14.00">or</text>
<text text-anchor="middle" x="110.71" y="-462.02" font-family="Times,serif" font-size="14.00">VIDIOC_STREAMON(OUTPUT)</text>
</g>
<!-- Stopped&#45;&gt;Reset -->
<g id="edge12" class="edge">
<title>Stopped&#45;&gt;Reset</title>
<path fill="none" stroke="black" d="M232.54,-274.72C235.1,-262.51 240.13,-250.09 249.71,-241.88 280.64,-215.4 555.54,-200.71 660.88,-196.02"/>
<polygon fill="black" stroke="black" points="661.28,-199.5 671.12,-195.57 660.98,-192.51 661.28,-199.5"/>
<text text-anchor="middle" x="352.21" y="-245.68" font-family="Times,serif" font-size="14.00">VIDIOC_STREAMOFF(CAPTURE)</text>
</g>
<!-- Drain&#45;&gt;Stopped -->
<g id="edge7" class="edge">
<title>Drain&#45;&gt;Stopped</title>
<path fill="none" stroke="black" d="M446.07,-461.22C439.49,-456.92 432.1,-452.83 424.71,-450.18 389.57,-437.58 285.64,-456.94 257.71,-432.18 247.39,-423.03 240.52,-392.02 236.29,-364.27"/>
<polygon fill="black" stroke="black" points="239.73,-363.65 234.85,-354.25 232.8,-364.64 239.73,-363.65"/>
<text text-anchor="middle" x="356.21" y="-420.98" font-family="Times,serif" font-size="14.00">All CAPTURE</text>
<text text-anchor="middle" x="356.21" y="-405.98" font-family="Times,serif" font-size="14.00">buffers dequeued</text>
<text text-anchor="middle" x="356.21" y="-390.98" font-family="Times,serif" font-size="14.00">or</text>
<text text-anchor="middle" x="356.21" y="-375.98" font-family="Times,serif" font-size="14.00">VIDIOC_STREAMOFF(OUTPUT)</text>
</g>
<!-- Drain&#45;&gt;Reset -->
<g id="edge8" class="edge">
<title>Drain&#45;&gt;Reset</title>
<path fill="none" stroke="black" d="M467.76,-450.13C465.07,-400.14 462.63,-301.81 482.71,-274.88 524.63,-218.68 609.97,-201.66 660.86,-196.53"/>
<polygon fill="black" stroke="black" points="661.21,-200.01 670.86,-195.63 660.59,-193.04 661.21,-200.01"/>
<text text-anchor="middle" x="585.21" y="-310.83" font-family="Times,serif" font-size="14.00">VIDIOC_STREAMOFF(CAPTURE)</text>
</g>
<!-- Reset&#45;&gt;Encoding -->
<g id="edge9" class="edge">
<title>Reset&#45;&gt;Encoding</title>
<path fill="none" stroke="black" d="M725.74,-212.53C775.27,-252.32 880.39,-350.12 834.71,-432.18 785.76,-520.11 673.17,-569.99 604.77,-593.2"/>
<polygon fill="black" stroke="black" points="603.4,-589.97 595.01,-596.43 605.6,-596.61 603.4,-589.97"/>
<text text-anchor="middle" x="945.71" y="-398.48" font-family="Times,serif" font-size="14.00">VIDIOC_STREAMON(CAPTURE)</text>
</g>
<!-- Reset&#45;&gt;Initialization -->
<g id="edge10" class="edge">
<title>Reset&#45;&gt;Initialization</title>
<path fill="none" stroke="black" d="M729.97,-181.42C762.77,-168.8 818.54,-147.48 866.71,-129.79 914.47,-112.25 968.73,-92.98 1009.42,-78.67"/>
<polygon fill="black" stroke="black" points="1010.66,-81.94 1018.94,-75.32 1008.34,-75.34 1010.66,-81.94"/>
<text text-anchor="middle" x="962.21" y="-133.59" font-family="Times,serif" font-size="14.00">VIDIOC_REQBUFS(OUTPUT, 0)</text>
</g>
<!-- qi -->
<g id="node6" class="node">
<title>qi</title>
<ellipse fill="black" stroke="black" cx="1104.71" cy="-193.34" rx="1.8" ry="1.8"/>
</g>
<!-- qi&#45;&gt;Initialization -->
<g id="edge1" class="edge">
<title>qi&#45;&gt;Initialization</title>
<path fill="none" stroke="black" d="M1104.5,-191.47C1103.1,-185.74 1094.98,-152.41 1087.18,-120.37"/>
<polygon fill="black" stroke="black" points="1090.54,-119.38 1084.77,-110.49 1083.74,-121.04 1090.54,-119.38"/>
<text text-anchor="middle" x="1110.71" y="-133.59" font-family="Times,serif" font-size="14.00">open()</text>
</g>
</g>
</svg>
