<?xml version="1.0" encoding="UTF-8" standalone="no"?>
<!DOCTYPE svg PUBLIC "-//W3C//DTD SVG 1.1//EN"
 "http://www.w3.org/Graphics/SVG/1.1/DTD/svg11.dtd">
<!-- Generated by graphviz version 2.43.0 (0)
 -->
<!-- Title: IPU3 ImgU Pages: 1 -->
<svg width="543pt" height="530pt"
 viewBox="0.00 0.00 543.00 530.00" xmlns="http://www.w3.org/2000/svg" xmlns:xlink="http://www.w3.org/1999/xlink">
<g id="graph0" class="graph" transform="scale(1 1) rotate(0) translate(4 526)">
<title>IPU3 ImgU</title>
<polygon fill="white" stroke="transparent" points="-4,4 -4,-526 539,-526 539,4 -4,4"/>
<!-- a -->
<g id="node1" class="node">
<title>a</title>
<polygon fill="none" stroke="black" points="158.5,-522 81.5,-522 81.5,-486 158.5,-486 158.5,-522"/>
<text text-anchor="middle" x="120" y="-500.3" font-family="Times,serif" font-size="14.00">Raw pixels</text>
</g>
<!-- b -->
<g id="node2" class="node">
<title>b</title>
<polygon fill="none" stroke="black" points="182,-468 58,-468 58,-432 182,-432 182,-468"/>
<text text-anchor="middle" x="120" y="-446.3" font-family="Times,serif" font-size="14.00">Bayer Downscaling</text>
</g>
<!-- a&#45;&gt;b -->
<g id="edge1" class="edge">
<title>a&#45;&gt;b</title>
<path fill="none" stroke="black" d="M120,-485.72C120,-485.72 120,-478.26 120,-478.26"/>
<polygon fill="black" stroke="black" points="123.5,-478.26 120,-468.26 116.5,-478.26 123.5,-478.26"/>
</g>
<!-- j -->
<g id="node10" class="node">
<title>j</title>
<polygon fill="none" stroke="black" points="435.5,-522 285.5,-522 285.5,-486 435.5,-486 435.5,-522"/>
<text text-anchor="middle" x="360.5" y="-500.3" font-family="Times,serif" font-size="14.00">Color Correction Matrix</text>
</g>
<!-- a&#45;&gt;j -->
<!-- c -->
<g id="node3" class="node">
<title>c</title>
<polygon fill="none" stroke="black" points="196.5,-414 43.5,-414 43.5,-378 196.5,-378 196.5,-414"/>
<text text-anchor="middle" x="120" y="-392.3" font-family="Times,serif" font-size="14.00">Optical Black Correction</text>
</g>
<!-- b&#45;&gt;c -->
<g id="edge2" class="edge">
<title>b&#45;&gt;c</title>
<path fill="none" stroke="black" d="M120,-431.72C120,-431.72 120,-424.26 120,-424.26"/>
<polygon fill="black" stroke="black" points="123.5,-424.26 120,-414.26 116.5,-424.26 123.5,-424.26"/>
</g>
<!-- d -->
<g id="node4" class="node">
<title>d</title>
<polygon fill="none" stroke="black" points="164.5,-360 75.5,-360 75.5,-324 164.5,-324 164.5,-360"/>
<text text-anchor="middle" x="120" y="-338.3" font-family="Times,serif" font-size="14.00">Linearization</text>
</g>
<!-- c&#45;&gt;d -->
<g id="edge3" class="edge">
<title>c&#45;&gt;d</title>
<path fill="none" stroke="black" d="M120,-377.72C120,-377.72 120,-370.26 120,-370.26"/>
<polygon fill="black" stroke="black" points="123.5,-370.26 120,-360.26 116.5,-370.26 123.5,-370.26"/>
</g>
<!-- e -->
<g id="node5" class="node">
<title>e</title>
<polygon fill="none" stroke="black" points="196,-306 44,-306 44,-270 196,-270 196,-306"/>
<text text-anchor="middle" x="120" y="-284.3" font-family="Times,serif" font-size="14.00">Lens Shading Correction</text>
</g>
<!-- d&#45;&gt;e -->
<g id="edge4" class="edge">
<title>d&#45;&gt;e</title>
<path fill="none" stroke="black" d="M120,-323.72C120,-323.72 120,-316.26 120,-316.26"/>
<polygon fill="black" stroke="black" points="123.5,-316.26 120,-306.26 116.5,-316.26 123.5,-316.26"/>
</g>
<!-- f -->
<g id="node6" class="node">
<title>f</title>
<polygon fill="none" stroke="black" points="240,-252 0,-252 0,-216 240,-216 240,-252"/>
<text text-anchor="middle" x="120" y="-230.3" font-family="Times,serif" font-size="14.00">White Balance / Exposure / Focus Apply</text>
</g>
<!-- e&#45;&gt;f -->
<g id="edge5" class="edge">
<title>e&#45;&gt;f</title>
<path fill="none" stroke="black" d="M120,-269.72C120,-269.72 120,-262.26 120,-262.26"/>
<polygon fill="black" stroke="black" points="123.5,-262.26 120,-252.26 116.5,-262.26 123.5,-262.26"/>
</g>
<!-- g -->
<g id="node7" class="node">
<title>g</title>
<polygon fill="none" stroke="black" points="191.5,-198 48.5,-198 48.5,-162 191.5,-162 191.5,-198"/>
<text text-anchor="middle" x="120" y="-176.3" font-family="Times,serif" font-size="14.00">Bayer Noise Reduction</text>
</g>
<!-- f&#45;&gt;g -->
<g id="edge6" class="edge">
<title>f&#45;&gt;g</title>
<path fill="none" stroke="black" d="M120,-215.72C120,-215.72 120,-208.26 120,-208.26"/>
<polygon fill="black" stroke="black" points="123.5,-208.26 120,-198.26 116.5,-208.26 123.5,-208.26"/>
</g>
<!-- h -->
<g id="node8" class="node">
<title>h</title>
<polygon fill="none" stroke="black" points="147,-144 93,-144 93,-108 147,-108 147,-144"/>
<text text-anchor="middle" x="120" y="-122.3" font-family="Times,serif" font-size="14.00">ANR</text>
</g>
<!-- g&#45;&gt;h -->
<g id="edge7" class="edge">
<title>g&#45;&gt;h</title>
<path fill="none" stroke="black" d="M120,-161.72C120,-161.72 120,-154.26 120,-154.26"/>
<polygon fill="black" stroke="black" points="123.5,-154.26 120,-144.26 116.5,-154.26 123.5,-154.26"/>
</g>
<!-- i -->
<g id="node9" class="node">
<title>i</title>
<polygon fill="none" stroke="black" points="164.5,-90 75.5,-90 75.5,-54 164.5,-54 164.5,-90"/>
<text text-anchor="middle" x="120" y="-68.3" font-family="Times,serif" font-size="14.00">Demosaicing</text>
</g>
<!-- h&#45;&gt;i -->
<g id="edge8" class="edge">
<title>h&#45;&gt;i</title>
<path fill="none" stroke="black" d="M120,-107.72C120,-107.72 120,-100.26 120,-100.26"/>
<polygon fill="black" stroke="black" points="123.5,-100.26 120,-90.26 116.5,-100.26 123.5,-100.26"/>
</g>
<!-- i&#45;&gt;j -->
<g id="edge19" class="edge">
<title>i&#45;&gt;j</title>
<path fill="none" stroke="black" d="M164.8,-72C205.1,-72 258,-72 258,-72 258,-72 258,-498 258,-498 258,-498 275.47,-498 275.47,-498"/>
<polygon fill="black" stroke="black" points="275.47,-501.5 285.47,-498 275.47,-494.5 275.47,-501.5"/>
</g>
<!-- k -->
<g id="node11" class="node">
<title>k</title>
<polygon fill="none" stroke="black" points="420,-468 301,-468 301,-432 420,-432 420,-468"/>
<text text-anchor="middle" x="360.5" y="-446.3" font-family="Times,serif" font-size="14.00">Gamma correction</text>
</g>
<!-- j&#45;&gt;k -->
<g id="edge9" class="edge">
<title>j&#45;&gt;k</title>
<path fill="none" stroke="black" d="M361,-485.72C361,-485.72 361,-478.26 361,-478.26"/>
<polygon fill="black" stroke="black" points="364.5,-478.26 361,-468.26 357.5,-478.26 364.5,-478.26"/>
</g>
<!-- l -->
<g id="node12" class="node">
<title>l</title>
<polygon fill="none" stroke="black" points="435,-414 286,-414 286,-378 435,-378 435,-414"/>
<text text-anchor="middle" x="360.5" y="-392.3" font-family="Times,serif" font-size="14.00">Color Space Conversion</text>
</g>
<!-- k&#45;&gt;l -->
<g id="edge10" class="edge">
<title>k&#45;&gt;l</title>
<path fill="none" stroke="black" d="M361,-431.72C361,-431.72 361,-424.26 361,-424.26"/>
<polygon fill="black" stroke="black" points="364.5,-424.26 361,-414.26 357.5,-424.26 364.5,-424.26"/>
</g>
<!-- m -->
<g id="node13" class="node">
<title>m</title>
<polygon fill="none" stroke="black" points="431.5,-360 289.5,-360 289.5,-324 431.5,-324 431.5,-360"/>
<text text-anchor="middle" x="360.5" y="-338.3" font-family="Times,serif" font-size="14.00">Chroma Down Scaling</text>
</g>
<!-- l&#45;&gt;m -->
<g id="edge11" class="edge">
<title>l&#45;&gt;m</title>
<path fill="none" stroke="black" d="M361,-377.72C361,-377.72 361,-370.26 361,-370.26"/>
<polygon fill="black" stroke="black" points="364.5,-370.26 361,-360.26 357.5,-370.26 364.5,-370.26"/>
</g>
<!-- n -->
<g id="node14" class="node">
<title>n</title>
<polygon fill="none" stroke="black" points="445,-306 276,-306 276,-270 445,-270 445,-306"/>
<text text-anchor="middle" x="360.5" y="-284.3" font-family="Times,serif" font-size="14.00">Chromatic Noise Reduction</text>
</g>
<!-- m&#45;&gt;n -->
<g id="edge12" class="edge">
<title>m&#45;&gt;n</title>
<path fill="none" stroke="black" d="M361,-323.72C361,-323.72 361,-316.26 361,-316.26"/>
<polygon fill="black" stroke="black" points="364.5,-316.26 361,-306.26 357.5,-316.26 364.5,-316.26"/>
</g>
<!-- o -->
<g id="node15" class="node">
<title>o</title>
<polygon fill="none" stroke="black" points="431,-252 290,-252 290,-216 431,-216 431,-252"/>
<text text-anchor="middle" x="360.5" y="-230.3" font-family="Times,serif" font-size="14.00">Total Color Correction</text>
</g>
<!-- n&#45;&gt;o -->
<g id="edge13" class="edge">
<title>n&#45;&gt;o</title>
<path fill="none" stroke="black" d="M361,-269.72C361,-269.72 361,-262.26 361,-262.26"/>
<polygon fill="black" stroke="black" points="364.5,-262.26 361,-252.26 357.5,-262.26 364.5,-262.26"/>
</g>
<!-- p -->
<g id="node16" class="node">
<title>p</title>
<polygon fill="none" stroke="black" points="387.5,-198 333.5,-198 333.5,-162 387.5,-162 387.5,-198"/>
<text text-anchor="middle" x="360.5" y="-176.3" font-family="Times,serif" font-size="14.00">XNR3</text>
</g>
<!-- o&#45;&gt;p -->
<g id="edge14" class="edge">
<title>o&#45;&gt;p</title>
<path fill="none" stroke="black" d="M361,-215.72C361,-215.72 361,-208.26 361,-208.26"/>
<polygon fill="black" stroke="black" points="364.5,-208.26 361,-198.26 357.5,-208.26 364.5,-208.26"/>
</g>
<!-- q -->
<g id="node17" class="node">
<title>q</title>
<polygon fill="none" stroke="black" points="387.5,-144 333.5,-144 333.5,-108 387.5,-108 387.5,-144"/>
<text text-anchor="middle" x="360.5" y="-122.3" font-family="Times,serif" font-size="14.00">TNR</text>
</g>
<!-- p&#45;&gt;q -->
<g id="edge15" class="edge">
<title>p&#45;&gt;q</title>
<path fill="none" stroke="black" d="M361,-161.72C361,-161.72 361,-154.26 361,-154.26"/>
<polygon fill="black" stroke="black" points="364.5,-154.26 361,-144.26 357.5,-154.26 364.5,-154.26"/>
</g>
<!-- r -->
<g id="node18" class="node">
<title>r</title>
<path fill="yellow" stroke="black" d="M535,-140.73C535,-142.53 522.9,-144 508,-144 493.1,-144 481,-142.53 481,-140.73 481,-140.73 481,-111.27 481,-111.27 481,-109.47 493.1,-108 508,-108 522.9,-108 535,-109.47 535,-111.27 535,-111.27 535,-140.73 535,-140.73"/>
<path fill="none" stroke="black" d="M535,-140.73C535,-138.92 522.9,-137.45 508,-137.45 493.1,-137.45 481,-138.92 481,-140.73"/>
<text text-anchor="middle" x="508" y="-122.3" font-family="Times,serif" font-size="14.00">DDR</text>
</g>
<!-- q&#45;&gt;r -->
<g id="edge20" class="edge">
<title>q&#45;&gt;r</title>
<path fill="none" stroke="black" d="M387.55,-126C387.55,-126 470.87,-126 470.87,-126"/>
<polygon fill="black" stroke="black" points="470.87,-129.5 480.87,-126 470.87,-122.5 470.87,-129.5"/>
</g>
<!-- s -->
<g id="node19" class="node">
<title>s</title>
<polygon fill="none" stroke="black" points="420.5,-90 300.5,-90 300.5,-54 420.5,-54 420.5,-90"/>
<text text-anchor="middle" x="360.5" y="-68.3" font-family="Times,serif" font-size="14.00">YUV Downscaling</text>
</g>
<!-- q&#45;&gt;s -->
<g id="edge16" class="edge">
<title>q&#45;&gt;s</title>
<path fill="none" stroke="black" d="M361,-107.72C361,-107.72 361,-100.26 361,-100.26"/>
<polygon fill="black" stroke="black" points="364.5,-100.26 361,-90.26 357.5,-100.26 364.5,-100.26"/>
</g>
<!-- t -->
<g id="node20" class="node">
<title>t</title>
<path fill="yellow" stroke="black" d="M387.5,-32.73C387.5,-34.53 375.4,-36 360.5,-36 345.6,-36 333.5,-34.53 333.5,-32.73 333.5,-32.73 333.5,-3.27 333.5,-3.27 333.5,-1.47 345.6,0 360.5,0 375.4,0 387.5,-1.47 387.5,-3.27 387.5,-3.27 387.5,-32.73 387.5,-32.73"/>
<path fill="none" stroke="black" d="M387.5,-32.73C387.5,-30.92 375.4,-29.45 360.5,-29.45 345.6,-29.45 333.5,-30.92 333.5,-32.73"/>
<text text-anchor="middle" x="360.5" y="-14.3" font-family="Times,serif" font-size="14.00">DDR</text>
</g>
<!-- s&#45;&gt;t -->
<g id="edge17" class="edge">
<title>s&#45;&gt;t</title>
<path fill="none" stroke="black" d="M361,-53.72C361,-53.72 361,-46.26 361,-46.26"/>
<polygon fill="black" stroke="black" points="364.5,-46.26 361,-36.26 357.5,-46.26 364.5,-46.26"/>
</g>
</g>
</svg>
