<?xml version="1.0" encoding="UTF-8" standalone="no"?>
<!DOCTYPE svg PUBLIC "-//W3C//DTD SVG 1.1//EN"
 "http://www.w3.org/Graphics/SVG/1.1/DTD/svg11.dtd">
<!-- Generated by graphviz version 2.43.0 (0)
 -->
<!-- Title: %3 Pages: 1 -->
<svg width="1273pt" height="412pt"
 viewBox="0.00 0.00 1273.00 412.00" xmlns="http://www.w3.org/2000/svg" xmlns:xlink="http://www.w3.org/1999/xlink">
<g id="graph0" class="graph" transform="scale(1 1) rotate(0) translate(4 408)">
<title>%3</title>
<polygon fill="white" stroke="transparent" points="-4,4 -4,-408 1269,-408 1269,4 -4,4"/>
<g id="clust1" class="cluster">
<title>cluster_state</title>
<polygon fill="none" stroke="black" stroke-dasharray="5,2" points="8,-248 8,-396 984,-396 984,-248 8,-248"/>
<text text-anchor="middle" x="496" y="-380.8" font-family="Times,serif" font-size="14.00">Free&#45;standing state</text>
</g>
<g id="clust2" class="cluster">
<title>cluster_current</title>
<polygon fill="none" stroke="black" stroke-dasharray="5,2" points="581,-8 581,-229 1257,-229 1257,-8 581,-8"/>
<text text-anchor="middle" x="919" y="-213.8" font-family="Times,serif" font-size="14.00">Current state</text>
</g>
<!-- drm_atomic_state -->
<g id="node1" class="node">
<title>drm_atomic_state</title>
<polygon fill="none" stroke="black" points="620.5,-365 505.5,-365 505.5,-329 620.5,-329 620.5,-365"/>
<text text-anchor="middle" x="563" y="-343.3" font-family="Times,serif" font-size="14.00">drm_atomic_state</text>
</g>
<!-- duplicated drm_plane_state A -->
<g id="node2" class="node">
<title>duplicated drm_plane_state A</title>
<polygon fill="none" stroke="black" points="195.5,-292 16.5,-292 16.5,-256 195.5,-256 195.5,-292"/>
<text text-anchor="middle" x="106" y="-270.3" font-family="Times,serif" font-size="14.00">duplicated drm_plane_state A</text>
</g>
<!-- drm_atomic_state&#45;&gt;duplicated drm_plane_state A -->
<g id="edge1" class="edge">
<title>drm_atomic_state&#45;&gt;duplicated drm_plane_state A</title>
<path fill="none" stroke="black" d="M505.42,-337.75C436.54,-327.78 317.47,-310.27 205.8,-292.27"/>
<polygon fill="black" stroke="black" points="206.14,-288.78 195.71,-290.64 205.02,-295.69 206.14,-288.78"/>
</g>
<!-- duplicated drm_plane_state B -->
<g id="node3" class="node">
<title>duplicated drm_plane_state B</title>
<polygon fill="none" stroke="black" points="392.5,-292 213.5,-292 213.5,-256 392.5,-256 392.5,-292"/>
<text text-anchor="middle" x="303" y="-270.3" font-family="Times,serif" font-size="14.00">duplicated drm_plane_state B</text>
</g>
<!-- drm_atomic_state&#45;&gt;duplicated drm_plane_state B -->
<g id="edge2" class="edge">
<title>drm_atomic_state&#45;&gt;duplicated drm_plane_state B</title>
<path fill="none" stroke="black" d="M505.3,-330.24C466.93,-319.77 416.25,-305.93 375.21,-294.72"/>
<polygon fill="black" stroke="black" points="376.11,-291.34 365.54,-292.08 374.26,-298.09 376.11,-291.34"/>
</g>
<!-- duplicated drm_crtc_state -->
<g id="node4" class="node">
<title>duplicated drm_crtc_state</title>
<polygon fill="none" stroke="black" points="569,-292 411,-292 411,-256 569,-256 569,-292"/>
<text text-anchor="middle" x="490" y="-270.3" font-family="Times,serif" font-size="14.00">duplicated drm_crtc_state</text>
</g>
<!-- drm_atomic_state&#45;&gt;duplicated drm_crtc_state -->
<g id="edge3" class="edge">
<title>drm_atomic_state&#45;&gt;duplicated drm_crtc_state</title>
<path fill="none" stroke="black" d="M545.33,-328.81C536.18,-319.92 524.86,-308.91 514.85,-299.17"/>
<polygon fill="black" stroke="black" points="517.12,-296.49 507.51,-292.03 512.24,-301.51 517.12,-296.49"/>
</g>
<!-- duplicated drm_connector_state -->
<g id="node5" class="node">
<title>duplicated drm_connector_state</title>
<polygon fill="none" stroke="black" points="778.5,-292 587.5,-292 587.5,-256 778.5,-256 778.5,-292"/>
<text text-anchor="middle" x="683" y="-270.3" font-family="Times,serif" font-size="14.00">duplicated drm_connector_state</text>
</g>
<!-- drm_atomic_state&#45;&gt;duplicated drm_connector_state -->
<g id="edge4" class="edge">
<title>drm_atomic_state&#45;&gt;duplicated drm_connector_state</title>
<path fill="none" stroke="black" d="M591.74,-328.99C607.8,-319.49 628.01,-307.54 645.32,-297.29"/>
<polygon fill="black" stroke="black" points="647.25,-300.22 654.08,-292.11 643.69,-294.19 647.25,-300.22"/>
</g>
<!-- duplicated driver private state -->
<g id="node6" class="node">
<title>duplicated driver private state</title>
<polygon fill="none" stroke="black" points="975.5,-292 796.5,-292 796.5,-256 975.5,-256 975.5,-292"/>
<text text-anchor="middle" x="886" y="-270.3" font-family="Times,serif" font-size="14.00">duplicated driver private state</text>
</g>
<!-- drm_atomic_state&#45;&gt;duplicated driver private state -->
<g id="edge5" class="edge">
<title>drm_atomic_state&#45;&gt;duplicated driver private state</title>
<path fill="none" stroke="black" d="M620.75,-333.31C670.13,-322.45 741.96,-306.66 798.42,-294.25"/>
<polygon fill="black" stroke="black" points="799.4,-297.62 808.42,-292.05 797.9,-290.78 799.4,-297.62"/>
</g>
<!-- drm_device -->
<g id="node7" class="node">
<title>drm_device</title>
<polygon fill="none" stroke="black" points="953.5,-198 872.5,-198 872.5,-162 953.5,-162 953.5,-198"/>
<text text-anchor="middle" x="913" y="-176.3" font-family="Times,serif" font-size="14.00">drm_device</text>
</g>
<!-- drm_atomic_state&#45;&gt;drm_device -->
<g id="edge16" class="edge">
<title>drm_atomic_state&#45;&gt;drm_device</title>
<path fill="none" stroke="black" d="M620.68,-342.79C730.6,-336.08 961.3,-318.92 985,-292 1009.35,-264.34 974.91,-227.76 945.8,-204.3"/>
<polygon fill="black" stroke="black" points="947.82,-201.44 937.78,-198.05 943.52,-206.96 947.82,-201.44"/>
<text text-anchor="middle" x="1037" y="-270.3" font-family="Times,serif" font-size="14.00">atomic_commit</text>
</g>
<!-- duplicated drm_plane_state A&#45;&gt;drm_device -->
<!-- drm_plane A -->
<g id="node8" class="node">
<title>drm_plane A</title>
<polygon fill="none" stroke="black" points="728,-125 640,-125 640,-89 728,-89 728,-125"/>
<text text-anchor="middle" x="684" y="-103.3" font-family="Times,serif" font-size="14.00">drm_plane A</text>
</g>
<!-- drm_device&#45;&gt;drm_plane A -->
<g id="edge6" class="edge">
<title>drm_device&#45;&gt;drm_plane A</title>
<path fill="none" stroke="black" d="M872.32,-166.39C834.84,-154.77 778.96,-137.44 737.8,-124.68"/>
<polygon fill="black" stroke="black" points="738.79,-121.32 728.2,-121.71 736.72,-128.01 738.79,-121.32"/>
</g>
<!-- drm_plane B -->
<g id="node9" class="node">
<title>drm_plane B</title>
<polygon fill="none" stroke="black" points="854,-125 766,-125 766,-89 854,-89 854,-125"/>
<text text-anchor="middle" x="810" y="-103.3" font-family="Times,serif" font-size="14.00">drm_plane B</text>
</g>
<!-- drm_device&#45;&gt;drm_plane B -->
<g id="edge7" class="edge">
<title>drm_device&#45;&gt;drm_plane B</title>
<path fill="none" stroke="black" d="M888.33,-161.99C874.8,-152.67 857.84,-140.97 843.16,-130.86"/>
<polygon fill="black" stroke="black" points="845.05,-127.91 834.83,-125.11 841.07,-133.67 845.05,-127.91"/>
</g>
<!-- drm_crtc -->
<g id="node10" class="node">
<title>drm_crtc</title>
<polygon fill="none" stroke="black" points="946,-125 880,-125 880,-89 946,-89 946,-125"/>
<text text-anchor="middle" x="913" y="-103.3" font-family="Times,serif" font-size="14.00">drm_crtc</text>
</g>
<!-- drm_device&#45;&gt;drm_crtc -->
<g id="edge8" class="edge">
<title>drm_device&#45;&gt;drm_crtc</title>
<path fill="none" stroke="black" d="M913,-161.81C913,-153.79 913,-144.05 913,-135.07"/>
<polygon fill="black" stroke="black" points="916.5,-135.03 913,-125.03 909.5,-135.03 916.5,-135.03"/>
</g>
<!-- drm_connector -->
<g id="node11" class="node">
<title>drm_connector</title>
<polygon fill="none" stroke="black" points="1079.5,-125 980.5,-125 980.5,-89 1079.5,-89 1079.5,-125"/>
<text text-anchor="middle" x="1030" y="-103.3" font-family="Times,serif" font-size="14.00">drm_connector</text>
</g>
<!-- drm_device&#45;&gt;drm_connector -->
<g id="edge9" class="edge">
<title>drm_device&#45;&gt;drm_connector</title>
<path fill="none" stroke="black" d="M941.02,-161.99C956.54,-152.58 976.02,-140.76 992.8,-130.57"/>
<polygon fill="black" stroke="black" points="995.07,-133.29 1001.8,-125.11 991.43,-127.31 995.07,-133.29"/>
</g>
<!-- driver private object -->
<g id="node12" class="node">
<title>driver private object</title>
<polygon fill="none" stroke="black" points="1236.5,-125 1109.5,-125 1109.5,-89 1236.5,-89 1236.5,-125"/>
<text text-anchor="middle" x="1173" y="-103.3" font-family="Times,serif" font-size="14.00">driver private object</text>
</g>
<!-- drm_device&#45;&gt;driver private object -->
<g id="edge10" class="edge">
<title>drm_device&#45;&gt;driver private object</title>
<path fill="none" stroke="black" d="M953.62,-167.91C992.83,-157.2 1053.04,-140.76 1100.48,-127.8"/>
<polygon fill="black" stroke="black" points="1101.67,-131.11 1110.39,-125.1 1099.82,-124.35 1101.67,-131.11"/>
</g>
<!-- drm_plane_state A -->
<g id="node13" class="node">
<title>drm_plane_state A</title>
<polygon fill="none" stroke="black" points="708.5,-52 589.5,-52 589.5,-16 708.5,-16 708.5,-52"/>
<text text-anchor="middle" x="649" y="-30.3" font-family="Times,serif" font-size="14.00">drm_plane_state A</text>
</g>
<!-- drm_plane A&#45;&gt;drm_plane_state A -->
<g id="edge11" class="edge">
<title>drm_plane A&#45;&gt;drm_plane_state A</title>
<path fill="none" stroke="black" d="M675.53,-88.81C671.44,-80.53 666.46,-70.41 661.91,-61.19"/>
<polygon fill="black" stroke="black" points="664.96,-59.45 657.39,-52.03 658.68,-62.55 664.96,-59.45"/>
</g>
<!-- drm_plane_state B -->
<g id="node14" class="node">
<title>drm_plane_state B</title>
<polygon fill="none" stroke="black" points="845.5,-52 726.5,-52 726.5,-16 845.5,-16 845.5,-52"/>
<text text-anchor="middle" x="786" y="-30.3" font-family="Times,serif" font-size="14.00">drm_plane_state B</text>
</g>
<!-- drm_plane B&#45;&gt;drm_plane_state B -->
<g id="edge12" class="edge">
<title>drm_plane B&#45;&gt;drm_plane_state B</title>
<path fill="none" stroke="black" d="M804.19,-88.81C801.45,-80.7 798.11,-70.84 795.05,-61.78"/>
<polygon fill="black" stroke="black" points="798.27,-60.38 791.76,-52.03 791.64,-62.62 798.27,-60.38"/>
</g>
<!-- drm_crtc_state -->
<g id="node15" class="node">
<title>drm_crtc_state</title>
<polygon fill="none" stroke="black" points="962,-52 864,-52 864,-16 962,-16 962,-52"/>
<text text-anchor="middle" x="913" y="-30.3" font-family="Times,serif" font-size="14.00">drm_crtc_state</text>
</g>
<!-- drm_crtc&#45;&gt;drm_crtc_state -->
<g id="edge13" class="edge">
<title>drm_crtc&#45;&gt;drm_crtc_state</title>
<path fill="none" stroke="black" d="M913,-88.81C913,-80.79 913,-71.05 913,-62.07"/>
<polygon fill="black" stroke="black" points="916.5,-62.03 913,-52.03 909.5,-62.03 916.5,-62.03"/>
</g>
<!-- drm_connector_state -->
<g id="node16" class="node">
<title>drm_connector_state</title>
<polygon fill="none" stroke="black" points="1111.5,-52 980.5,-52 980.5,-16 1111.5,-16 1111.5,-52"/>
<text text-anchor="middle" x="1046" y="-30.3" font-family="Times,serif" font-size="14.00">drm_connector_state</text>
</g>
<!-- drm_connector&#45;&gt;drm_connector_state -->
<g id="edge14" class="edge">
<title>drm_connector&#45;&gt;drm_connector_state</title>
<path fill="none" stroke="black" d="M1033.87,-88.81C1035.68,-80.79 1037.88,-71.05 1039.9,-62.07"/>
<polygon fill="black" stroke="black" points="1043.38,-62.55 1042.16,-52.03 1036.55,-61.01 1043.38,-62.55"/>
</g>
<!-- driver private state -->
<g id="node17" class="node">
<title>driver private state</title>
<polygon fill="none" stroke="black" points="1248.5,-52 1129.5,-52 1129.5,-16 1248.5,-16 1248.5,-52"/>
<text text-anchor="middle" x="1189" y="-30.3" font-family="Times,serif" font-size="14.00">driver private state</text>
</g>
<!-- driver private object&#45;&gt;driver private state -->
<g id="edge15" class="edge">
<title>driver private object&#45;&gt;driver private state</title>
<path fill="none" stroke="black" d="M1176.87,-88.81C1178.68,-80.79 1180.88,-71.05 1182.9,-62.07"/>
<polygon fill="black" stroke="black" points="1186.38,-62.55 1185.16,-52.03 1179.55,-61.01 1186.38,-62.55"/>
</g>
</g>
</svg>
