<?xml version="1.0" encoding="UTF-8" standalone="no"?>
<!DOCTYPE svg PUBLIC "-//W3C//DTD SVG 1.1//EN"
 "http://www.w3.org/Graphics/SVG/1.1/DTD/svg11.dtd">
<!-- Generated by graphviz version 2.43.0 (0)
 -->
<!-- Title: node_states Pages: 1 -->
<svg width="185pt" height="131pt"
 viewBox="0.00 0.00 185.44 131.00" xmlns="http://www.w3.org/2000/svg" xmlns:xlink="http://www.w3.org/1999/xlink">
<g id="graph0" class="graph" transform="scale(1 1) rotate(0) translate(4 127)">
<title>node_states</title>
<polygon fill="white" stroke="transparent" points="-4,4 -4,-127 181.44,-127 181.44,4 -4,4"/>
<!-- Secondary -->
<g id="node1" class="node">
<title>Secondary</title>
<ellipse fill="none" stroke="black" cx="56.44" cy="-105" rx="48.19" ry="18"/>
<text text-anchor="middle" x="56.44" y="-101.3" font-family="Times,serif" font-size="14.00">Secondary</text>
</g>
<!-- Primary -->
<g id="node2" class="node">
<title>Primary</title>
<ellipse fill="none" stroke="black" cx="56.44" cy="-18" rx="39.79" ry="18"/>
<text text-anchor="middle" x="56.44" y="-14.3" font-family="Times,serif" font-size="14.00">Primary</text>
</g>
<!-- Secondary&#45;&gt;Primary -->
<g id="edge1" class="edge">
<title>Secondary&#45;&gt;Primary</title>
<path fill="none" stroke="black" d="M25.53,-91.12C16.44,-85.7 7.57,-78.42 2.44,-69 -4.63,-55.99 5.78,-44.5 19.29,-35.84"/>
<polygon fill="black" stroke="black" points="21.06,-38.85 27.97,-30.81 17.56,-32.79 21.06,-38.85"/>
<text text-anchor="middle" x="45.94" y="-57.8" font-family="Times,serif" font-size="14.00">ioctl_set_state()</text>
</g>
<!-- Primary&#45;&gt;Secondary -->
<g id="edge2" class="edge">
<title>Primary&#45;&gt;Secondary</title>
<path fill="none" stroke="black" d="M75.74,-33.85C85.58,-43.35 94.51,-56.24 89.44,-69 87.77,-73.22 85.32,-77.22 82.5,-80.91"/>
<polygon fill="black" stroke="black" points="79.84,-78.63 75.88,-88.46 85.11,-83.24 79.84,-78.63"/>
<text text-anchor="middle" x="133.94" y="-57.8" font-family="Times,serif" font-size="14.00">ioctl_set_state()</text>
</g>
</g>
</svg>
<?xml version="1.0" encoding="UTF-8" standalone="no"?>
<!DOCTYPE svg PUBLIC "-//W3C//DTD SVG 1.1//EN"
 "http://www.w3.org/Graphics/SVG/1.1/DTD/svg11.dtd">
<!-- Generated by graphviz version 2.43.0 (0)
 -->
<!-- Title: peer_states Pages: 1 -->
<svg width="380pt" height="218pt"
 viewBox="0.00 0.00 379.61 218.00" xmlns="http://www.w3.org/2000/svg" xmlns:xlink="http://www.w3.org/1999/xlink">
<g id="page0,1_graph0" class="graph" transform="scale(1 1) rotate(0) translate(4 214)">
<title>peer_states</title>
<polygon fill="white" stroke="transparent" points="-4,4 -4,-214 375.61,-214 375.61,4 -4,4"/>
<!-- Secondary -->
<g id="node1" class="node">
<title>Secondary</title>
<ellipse fill="none" stroke="black" cx="170.61" cy="-192" rx="48.19" ry="18"/>
<text text-anchor="middle" x="170.61" y="-188.3" font-family="Times,serif" font-size="14.00">Secondary</text>
</g>
<!-- Primary -->
<g id="node2" class="node">
<title>Primary</title>
<ellipse fill="none" stroke="black" cx="82.61" cy="-105" rx="39.79" ry="18"/>
<text text-anchor="middle" x="82.61" y="-101.3" font-family="Times,serif" font-size="14.00">Primary</text>
</g>
<!-- Secondary&#45;&gt;Primary -->
<g id="edge1" class="edge">
<title>Secondary&#45;&gt;Primary</title>
<path fill="none" stroke="black" d="M123.94,-187.61C80.21,-183.34 19.41,-174.24 4.61,-156 -9.25,-138.91 13.99,-125.8 38.63,-117.3"/>
<polygon fill="black" stroke="black" points="39.98,-120.55 48.44,-114.17 37.85,-113.88 39.98,-120.55"/>
<text text-anchor="middle" x="50.11" y="-144.8" font-family="Times,serif" font-size="14.00">recv state packet</text>
</g>
<!-- Unknown -->
<g id="node3" class="node">
<title>Unknown</title>
<ellipse fill="none" stroke="black" cx="188.61" cy="-18" rx="45.49" ry="18"/>
<text text-anchor="middle" x="188.61" y="-14.3" font-family="Times,serif" font-size="14.00">Unknown</text>
</g>
<!-- Secondary&#45;&gt;Unknown -->
<g id="edge4" class="edge">
<title>Secondary&#45;&gt;Unknown</title>
<path fill="none" stroke="black" d="M193.51,-176.07C199.94,-170.6 206.13,-163.81 209.61,-156 216.1,-141.46 244.84,-187.3 208.61,-54 207.75,-50.83 206.53,-47.64 205.11,-44.55"/>
<polygon fill="black" stroke="black" points="208.2,-42.89 200.43,-35.68 202.01,-46.16 208.2,-42.89"/>
<text text-anchor="middle" x="266.11" y="-101.3" font-family="Times,serif" font-size="14.00">connection lost</text>
</g>
<!-- Primary&#45;&gt;Secondary -->
<g id="edge2" class="edge">
<title>Primary&#45;&gt;Secondary</title>
<path fill="none" stroke="black" d="M92.63,-122.91C99.22,-133.19 108.47,-146.18 118.61,-156 124.09,-161.31 130.47,-166.34 136.85,-170.84"/>
<polygon fill="black" stroke="black" points="135.2,-173.95 145.46,-176.63 139.11,-168.14 135.2,-173.95"/>
<text text-anchor="middle" x="164.11" y="-144.8" font-family="Times,serif" font-size="14.00">recv state packet</text>
</g>
<!-- Primary&#45;&gt;Unknown -->
<g id="edge3" class="edge">
<title>Primary&#45;&gt;Unknown</title>
<path fill="none" stroke="black" d="M62.17,-89.42C50.43,-79.25 39.63,-65.5 48.61,-54 59.45,-40.12 100.63,-30.92 135.54,-25.46"/>
<polygon fill="black" stroke="black" points="136.28,-28.89 145.66,-23.95 135.25,-21.96 136.28,-28.89"/>
<text text-anchor="middle" x="90.11" y="-57.8" font-family="Times,serif" font-size="14.00">connection lost</text>
</g>
<!-- Unknown&#45;&gt;Secondary -->
<g id="edge6" class="edge">
<title>Unknown&#45;&gt;Secondary</title>
<path fill="none" stroke="black" d="M222.53,-30.06C267.49,-46.65 338.23,-80.61 311.61,-123 292.25,-153.84 254.52,-171.03 222.97,-180.4"/>
<polygon fill="black" stroke="black" points="221.67,-177.13 212.97,-183.18 223.54,-183.87 221.67,-177.13"/>
<text text-anchor="middle" x="344.11" y="-101.3" font-family="Times,serif" font-size="14.00">connected</text>
</g>
<!-- Unknown&#45;&gt;Primary -->
<g id="edge5" class="edge">
<title>Unknown&#45;&gt;Primary</title>
<path fill="none" stroke="black" d="M171.53,-34.78C160.41,-44.86 145.44,-58.04 131.61,-69 125.53,-73.82 118.85,-78.79 112.44,-83.42"/>
<polygon fill="black" stroke="black" points="110.06,-80.82 103.94,-89.46 114.11,-86.52 110.06,-80.82"/>
<text text-anchor="middle" x="177.11" y="-57.8" font-family="Times,serif" font-size="14.00">connected</text>
</g>
</g>
</svg>
