<?xml version="1.0" encoding="UTF-8" standalone="no"?>
<!DOCTYPE svg PUBLIC "-//W3C//DTD SVG 1.1//EN"
 "http://www.w3.org/Graphics/SVG/1.1/DTD/svg11.dtd">
<!-- Generated by graphviz version 2.43.0 (0)
 -->
<!-- Title: board Pages: 1 -->
<svg width="538pt" height="651pt"
 viewBox="0.00 0.00 538.00 651.00" xmlns="http://www.w3.org/2000/svg" xmlns:xlink="http://www.w3.org/1999/xlink">
<g id="graph0" class="graph" transform="scale(1 1) rotate(0) translate(4 647)">
<title>board</title>
<polygon fill="white" stroke="transparent" points="-4,4 -4,-647 534,-647 534,4 -4,4"/>
<!-- n00000001 -->
<g id="node1" class="node">
<title>n00000001</title>
<path fill="green" stroke="black" d="M157.5,-437.5C157.5,-437.5 243.5,-437.5 243.5,-437.5 249.5,-437.5 255.5,-443.5 255.5,-449.5 255.5,-449.5 255.5,-509.5 255.5,-509.5 255.5,-515.5 249.5,-521.5 243.5,-521.5 243.5,-521.5 157.5,-521.5 157.5,-521.5 151.5,-521.5 145.5,-515.5 145.5,-509.5 145.5,-509.5 145.5,-449.5 145.5,-449.5 145.5,-443.5 151.5,-437.5 157.5,-437.5"/>
<text text-anchor="middle" x="200.5" y="-506.3" font-family="Times,serif" font-size="14.00">0</text>
<polyline fill="none" stroke="black" points="145.5,-498.5 255.5,-498.5 "/>
<text text-anchor="middle" x="200.5" y="-483.3" font-family="Times,serif" font-size="14.00">msm_csiphy0</text>
<text text-anchor="middle" x="200.5" y="-468.3" font-family="Times,serif" font-size="14.00">/dev/v4l&#45;subdev0</text>
<polyline fill="none" stroke="black" points="145.5,-460.5 255.5,-460.5 "/>
<text text-anchor="middle" x="200.5" y="-445.3" font-family="Times,serif" font-size="14.00">1</text>
</g>
<!-- n00000007 -->
<g id="node2" class="node">
<title>n00000007</title>
<path fill="green" stroke="black" d="M157.5,-316.5C157.5,-316.5 243.5,-316.5 243.5,-316.5 249.5,-316.5 255.5,-322.5 255.5,-328.5 255.5,-328.5 255.5,-388.5 255.5,-388.5 255.5,-394.5 249.5,-400.5 243.5,-400.5 243.5,-400.5 157.5,-400.5 157.5,-400.5 151.5,-400.5 145.5,-394.5 145.5,-388.5 145.5,-388.5 145.5,-328.5 145.5,-328.5 145.5,-322.5 151.5,-316.5 157.5,-316.5"/>
<text text-anchor="middle" x="200.5" y="-385.3" font-family="Times,serif" font-size="14.00">0</text>
<polyline fill="none" stroke="black" points="145.5,-377.5 255.5,-377.5 "/>
<text text-anchor="middle" x="200.5" y="-362.3" font-family="Times,serif" font-size="14.00">msm_csid0</text>
<text text-anchor="middle" x="200.5" y="-347.3" font-family="Times,serif" font-size="14.00">/dev/v4l&#45;subdev2</text>
<polyline fill="none" stroke="black" points="145.5,-339.5 255.5,-339.5 "/>
<text text-anchor="middle" x="200.5" y="-324.3" font-family="Times,serif" font-size="14.00">1</text>
</g>
<!-- n00000001&#45;&gt;n00000007 -->
<g id="edge1" class="edge">
<title>n00000001:port1&#45;&gt;n00000007:port0</title>
<path fill="none" stroke="black" stroke-dasharray="5,2" d="M200.5,-437C200.5,-425 200.5,-419.75 200.5,-411.12"/>
<polygon fill="black" stroke="black" points="204,-411 200.5,-401 197,-411 204,-411"/>
</g>
<!-- n0000000a -->
<g id="node3" class="node">
<title>n0000000a</title>
<path fill="green" stroke="black" d="M285.5,-316.5C285.5,-316.5 371.5,-316.5 371.5,-316.5 377.5,-316.5 383.5,-322.5 383.5,-328.5 383.5,-328.5 383.5,-388.5 383.5,-388.5 383.5,-394.5 377.5,-400.5 371.5,-400.5 371.5,-400.5 285.5,-400.5 285.5,-400.5 279.5,-400.5 273.5,-394.5 273.5,-388.5 273.5,-388.5 273.5,-328.5 273.5,-328.5 273.5,-322.5 279.5,-316.5 285.5,-316.5"/>
<text text-anchor="middle" x="328.5" y="-385.3" font-family="Times,serif" font-size="14.00">0</text>
<polyline fill="none" stroke="black" points="273.5,-377.5 383.5,-377.5 "/>
<text text-anchor="middle" x="328.5" y="-362.3" font-family="Times,serif" font-size="14.00">msm_csid1</text>
<text text-anchor="middle" x="328.5" y="-347.3" font-family="Times,serif" font-size="14.00">/dev/v4l&#45;subdev3</text>
<polyline fill="none" stroke="black" points="273.5,-339.5 383.5,-339.5 "/>
<text text-anchor="middle" x="328.5" y="-324.3" font-family="Times,serif" font-size="14.00">1</text>
</g>
<!-- n00000001&#45;&gt;n0000000a -->
<g id="edge2" class="edge">
<title>n00000001:port1&#45;&gt;n0000000a:port0</title>
<path fill="none" stroke="black" stroke-dasharray="5,2" d="M256.5,-448.5C266.9,-448.5 262.79,-413.92 266.39,-397.7"/>
<polygon fill="black" stroke="black" points="269.33,-399.61 272.5,-389.5 263.72,-395.43 269.33,-399.61"/>
</g>
<!-- n0000000d -->
<g id="node5" class="node">
<title>n0000000d</title>
<path fill="green" stroke="black" d="M157.5,-195.5C157.5,-195.5 243.5,-195.5 243.5,-195.5 249.5,-195.5 255.5,-201.5 255.5,-207.5 255.5,-207.5 255.5,-267.5 255.5,-267.5 255.5,-273.5 249.5,-279.5 243.5,-279.5 243.5,-279.5 157.5,-279.5 157.5,-279.5 151.5,-279.5 145.5,-273.5 145.5,-267.5 145.5,-267.5 145.5,-207.5 145.5,-207.5 145.5,-201.5 151.5,-195.5 157.5,-195.5"/>
<text text-anchor="middle" x="200.5" y="-264.3" font-family="Times,serif" font-size="14.00">0</text>
<polyline fill="none" stroke="black" points="145.5,-256.5 255.5,-256.5 "/>
<text text-anchor="middle" x="200.5" y="-241.3" font-family="Times,serif" font-size="14.00">msm_ispif0</text>
<text text-anchor="middle" x="200.5" y="-226.3" font-family="Times,serif" font-size="14.00">/dev/v4l&#45;subdev4</text>
<polyline fill="none" stroke="black" points="145.5,-218.5 255.5,-218.5 "/>
<text text-anchor="middle" x="200.5" y="-203.3" font-family="Times,serif" font-size="14.00">1</text>
</g>
<!-- n00000007&#45;&gt;n0000000d -->
<g id="edge5" class="edge">
<title>n00000007:port1&#45;&gt;n0000000d:port0</title>
<path fill="none" stroke="black" stroke-dasharray="5,2" d="M200.5,-316C200.5,-304 200.5,-298.75 200.5,-290.12"/>
<polygon fill="black" stroke="black" points="204,-290 200.5,-280 197,-290 204,-290"/>
</g>
<!-- n00000010 -->
<g id="node6" class="node">
<title>n00000010</title>
<path fill="green" stroke="black" d="M285.5,-195.5C285.5,-195.5 371.5,-195.5 371.5,-195.5 377.5,-195.5 383.5,-201.5 383.5,-207.5 383.5,-207.5 383.5,-267.5 383.5,-267.5 383.5,-273.5 377.5,-279.5 371.5,-279.5 371.5,-279.5 285.5,-279.5 285.5,-279.5 279.5,-279.5 273.5,-273.5 273.5,-267.5 273.5,-267.5 273.5,-207.5 273.5,-207.5 273.5,-201.5 279.5,-195.5 285.5,-195.5"/>
<text text-anchor="middle" x="328.5" y="-264.3" font-family="Times,serif" font-size="14.00">0</text>
<polyline fill="none" stroke="black" points="273.5,-256.5 383.5,-256.5 "/>
<text text-anchor="middle" x="328.5" y="-241.3" font-family="Times,serif" font-size="14.00">msm_ispif1</text>
<text text-anchor="middle" x="328.5" y="-226.3" font-family="Times,serif" font-size="14.00">/dev/v4l&#45;subdev5</text>
<polyline fill="none" stroke="black" points="273.5,-218.5 383.5,-218.5 "/>
<text text-anchor="middle" x="328.5" y="-203.3" font-family="Times,serif" font-size="14.00">1</text>
</g>
<!-- n00000007&#45;&gt;n00000010 -->
<g id="edge6" class="edge">
<title>n00000007:port1&#45;&gt;n00000010:port0</title>
<path fill="none" stroke="black" stroke-dasharray="5,2" d="M256.5,-327.5C266.9,-327.5 262.79,-292.92 266.39,-276.7"/>
<polygon fill="black" stroke="black" points="269.33,-278.61 272.5,-268.5 263.72,-274.43 269.33,-278.61"/>
</g>
<!-- n0000000a&#45;&gt;n0000000d -->
<g id="edge7" class="edge">
<title>n0000000a:port1&#45;&gt;n0000000d:port0</title>
<path fill="none" stroke="black" stroke-dasharray="5,2" d="M272.5,-327.5C262.1,-327.5 266.21,-292.92 262.61,-276.7"/>
<polygon fill="black" stroke="black" points="265.28,-274.43 256.5,-268.5 259.67,-278.61 265.28,-274.43"/>
</g>
<!-- n0000000a&#45;&gt;n00000010 -->
<g id="edge8" class="edge">
<title>n0000000a:port1&#45;&gt;n00000010:port0</title>
<path fill="none" stroke="black" stroke-dasharray="5,2" d="M328.5,-316C328.5,-304 328.5,-298.75 328.5,-290.12"/>
<polygon fill="black" stroke="black" points="332,-290 328.5,-280 325,-290 332,-290"/>
</g>
<!-- n00000004 -->
<g id="node4" class="node">
<title>n00000004</title>
<path fill="green" stroke="black" d="M285.5,-437.5C285.5,-437.5 371.5,-437.5 371.5,-437.5 377.5,-437.5 383.5,-443.5 383.5,-449.5 383.5,-449.5 383.5,-509.5 383.5,-509.5 383.5,-515.5 377.5,-521.5 371.5,-521.5 371.5,-521.5 285.5,-521.5 285.5,-521.5 279.5,-521.5 273.5,-515.5 273.5,-509.5 273.5,-509.5 273.5,-449.5 273.5,-449.5 273.5,-443.5 279.5,-437.5 285.5,-437.5"/>
<text text-anchor="middle" x="328.5" y="-506.3" font-family="Times,serif" font-size="14.00">0</text>
<polyline fill="none" stroke="black" points="273.5,-498.5 383.5,-498.5 "/>
<text text-anchor="middle" x="328.5" y="-483.3" font-family="Times,serif" font-size="14.00">msm_csiphy1</text>
<text text-anchor="middle" x="328.5" y="-468.3" font-family="Times,serif" font-size="14.00">/dev/v4l&#45;subdev1</text>
<polyline fill="none" stroke="black" points="273.5,-460.5 383.5,-460.5 "/>
<text text-anchor="middle" x="328.5" y="-445.3" font-family="Times,serif" font-size="14.00">1</text>
</g>
<!-- n00000004&#45;&gt;n00000007 -->
<g id="edge3" class="edge">
<title>n00000004:port1&#45;&gt;n00000007:port0</title>
<path fill="none" stroke="black" stroke-dasharray="5,2" d="M272.5,-448.5C262.1,-448.5 266.21,-413.92 262.61,-397.7"/>
<polygon fill="black" stroke="black" points="265.28,-395.43 256.5,-389.5 259.67,-399.61 265.28,-395.43"/>
</g>
<!-- n00000004&#45;&gt;n0000000a -->
<g id="edge4" class="edge">
<title>n00000004:port1&#45;&gt;n0000000a:port0</title>
<path fill="none" stroke="black" stroke-dasharray="5,2" d="M328.5,-437C328.5,-425 328.5,-419.75 328.5,-411.12"/>
<polygon fill="black" stroke="black" points="332,-411 328.5,-401 325,-411 332,-411"/>
</g>
<!-- n00000013 -->
<g id="node7" class="node">
<title>n00000013</title>
<path fill="green" stroke="black" d="M29.5,-74.5C29.5,-74.5 115.5,-74.5 115.5,-74.5 121.5,-74.5 127.5,-80.5 127.5,-86.5 127.5,-86.5 127.5,-146.5 127.5,-146.5 127.5,-152.5 121.5,-158.5 115.5,-158.5 115.5,-158.5 29.5,-158.5 29.5,-158.5 23.5,-158.5 17.5,-152.5 17.5,-146.5 17.5,-146.5 17.5,-86.5 17.5,-86.5 17.5,-80.5 23.5,-74.5 29.5,-74.5"/>
<text text-anchor="middle" x="72.5" y="-143.3" font-family="Times,serif" font-size="14.00">0</text>
<polyline fill="none" stroke="black" points="17.5,-135.5 127.5,-135.5 "/>
<text text-anchor="middle" x="72.5" y="-120.3" font-family="Times,serif" font-size="14.00">msm_vfe0_rdi0</text>
<text text-anchor="middle" x="72.5" y="-105.3" font-family="Times,serif" font-size="14.00">/dev/v4l&#45;subdev6</text>
<polyline fill="none" stroke="black" points="17.5,-97.5 127.5,-97.5 "/>
<text text-anchor="middle" x="72.5" y="-82.3" font-family="Times,serif" font-size="14.00">1</text>
</g>
<!-- n0000000d&#45;&gt;n00000013 -->
<g id="edge9" class="edge">
<title>n0000000d:port1&#45;&gt;n00000013:port0</title>
<path fill="none" stroke="black" stroke-dasharray="5,2" d="M144.5,-206.5C134.1,-206.5 138.21,-171.92 134.61,-155.7"/>
<polygon fill="black" stroke="black" points="137.28,-153.43 128.5,-147.5 131.67,-157.61 137.28,-153.43"/>
</g>
<!-- n0000001c -->
<g id="node8" class="node">
<title>n0000001c</title>
<path fill="green" stroke="black" d="M157.5,-74.5C157.5,-74.5 243.5,-74.5 243.5,-74.5 249.5,-74.5 255.5,-80.5 255.5,-86.5 255.5,-86.5 255.5,-146.5 255.5,-146.5 255.5,-152.5 249.5,-158.5 243.5,-158.5 243.5,-158.5 157.5,-158.5 157.5,-158.5 151.5,-158.5 145.5,-152.5 145.5,-146.5 145.5,-146.5 145.5,-86.5 145.5,-86.5 145.5,-80.5 151.5,-74.5 157.5,-74.5"/>
<text text-anchor="middle" x="200.5" y="-143.3" font-family="Times,serif" font-size="14.00">0</text>
<polyline fill="none" stroke="black" points="145.5,-135.5 255.5,-135.5 "/>
<text text-anchor="middle" x="200.5" y="-120.3" font-family="Times,serif" font-size="14.00">msm_vfe0_rdi1</text>
<text text-anchor="middle" x="200.5" y="-105.3" font-family="Times,serif" font-size="14.00">/dev/v4l&#45;subdev7</text>
<polyline fill="none" stroke="black" points="145.5,-97.5 255.5,-97.5 "/>
<text text-anchor="middle" x="200.5" y="-82.3" font-family="Times,serif" font-size="14.00">1</text>
</g>
<!-- n0000000d&#45;&gt;n0000001c -->
<g id="edge10" class="edge">
<title>n0000000d:port1&#45;&gt;n0000001c:port0</title>
<path fill="none" stroke="black" stroke-dasharray="5,2" d="M200.5,-195C200.5,-183 200.5,-177.75 200.5,-169.12"/>
<polygon fill="black" stroke="black" points="204,-169 200.5,-159 197,-169 204,-169"/>
</g>
<!-- n00000025 -->
<g id="node9" class="node">
<title>n00000025</title>
<path fill="green" stroke="black" d="M285.5,-74.5C285.5,-74.5 371.5,-74.5 371.5,-74.5 377.5,-74.5 383.5,-80.5 383.5,-86.5 383.5,-86.5 383.5,-146.5 383.5,-146.5 383.5,-152.5 377.5,-158.5 371.5,-158.5 371.5,-158.5 285.5,-158.5 285.5,-158.5 279.5,-158.5 273.5,-152.5 273.5,-146.5 273.5,-146.5 273.5,-86.5 273.5,-86.5 273.5,-80.5 279.5,-74.5 285.5,-74.5"/>
<text text-anchor="middle" x="328.5" y="-143.3" font-family="Times,serif" font-size="14.00">0</text>
<polyline fill="none" stroke="black" points="273.5,-135.5 383.5,-135.5 "/>
<text text-anchor="middle" x="328.5" y="-120.3" font-family="Times,serif" font-size="14.00">msm_vfe0_rdi2</text>
<text text-anchor="middle" x="328.5" y="-105.3" font-family="Times,serif" font-size="14.00">/dev/v4l&#45;subdev8</text>
<polyline fill="none" stroke="black" points="273.5,-97.5 383.5,-97.5 "/>
<text text-anchor="middle" x="328.5" y="-82.3" font-family="Times,serif" font-size="14.00">1</text>
</g>
<!-- n0000000d&#45;&gt;n00000025 -->
<g id="edge11" class="edge">
<title>n0000000d:port1&#45;&gt;n00000025:port0</title>
<path fill="none" stroke="black" stroke-dasharray="5,2" d="M256.5,-206.5C266.9,-206.5 262.79,-171.92 266.39,-155.7"/>
<polygon fill="black" stroke="black" points="269.33,-157.61 272.5,-147.5 263.72,-153.43 269.33,-157.61"/>
</g>
<!-- n0000002e -->
<g id="node10" class="node">
<title>n0000002e</title>
<path fill="green" stroke="black" d="M413.5,-74.5C413.5,-74.5 499.5,-74.5 499.5,-74.5 505.5,-74.5 511.5,-80.5 511.5,-86.5 511.5,-86.5 511.5,-146.5 511.5,-146.5 511.5,-152.5 505.5,-158.5 499.5,-158.5 499.5,-158.5 413.5,-158.5 413.5,-158.5 407.5,-158.5 401.5,-152.5 401.5,-146.5 401.5,-146.5 401.5,-86.5 401.5,-86.5 401.5,-80.5 407.5,-74.5 413.5,-74.5"/>
<text text-anchor="middle" x="456.5" y="-143.3" font-family="Times,serif" font-size="14.00">0</text>
<polyline fill="none" stroke="black" points="401.5,-135.5 511.5,-135.5 "/>
<text text-anchor="middle" x="456.5" y="-120.3" font-family="Times,serif" font-size="14.00">msm_vfe0_pix</text>
<text text-anchor="middle" x="456.5" y="-105.3" font-family="Times,serif" font-size="14.00">/dev/v4l&#45;subdev9</text>
<polyline fill="none" stroke="black" points="401.5,-97.5 511.5,-97.5 "/>
<text text-anchor="middle" x="456.5" y="-82.3" font-family="Times,serif" font-size="14.00">1</text>
</g>
<!-- n0000000d&#45;&gt;n0000002e -->
<g id="edge12" class="edge">
<title>n0000000d:port1&#45;&gt;n0000002e:port0</title>
<path fill="none" stroke="black" stroke-dasharray="5,2" d="M256.5,-206.5C262.73,-206.5 259.43,-198.61 264.5,-195 312.65,-160.73 344.35,-193.27 392.5,-159 393.61,-158.21 394.32,-157.22 394.81,-156.14"/>
<polygon fill="black" stroke="black" points="397.93,-157.78 400.5,-147.5 392.08,-153.93 397.93,-157.78"/>
</g>
<!-- n00000010&#45;&gt;n00000013 -->
<g id="edge13" class="edge">
<title>n00000010:port1&#45;&gt;n00000013:port0</title>
<path fill="none" stroke="black" stroke-dasharray="5,2" d="M272.5,-206.5C266.27,-206.5 269.57,-198.61 264.5,-195 216.35,-160.73 184.65,-193.27 136.5,-159 135.39,-158.21 134.68,-157.22 134.19,-156.14"/>
<polygon fill="black" stroke="black" points="136.92,-153.93 128.5,-147.5 131.07,-157.78 136.92,-153.93"/>
</g>
<!-- n00000010&#45;&gt;n0000001c -->
<g id="edge14" class="edge">
<title>n00000010:port1&#45;&gt;n0000001c:port0</title>
<path fill="none" stroke="black" stroke-dasharray="5,2" d="M272.5,-206.5C262.1,-206.5 266.21,-171.92 262.61,-155.7"/>
<polygon fill="black" stroke="black" points="265.28,-153.43 256.5,-147.5 259.67,-157.61 265.28,-153.43"/>
</g>
<!-- n00000010&#45;&gt;n00000025 -->
<g id="edge15" class="edge">
<title>n00000010:port1&#45;&gt;n00000025:port0</title>
<path fill="none" stroke="black" stroke-dasharray="5,2" d="M328.5,-195C328.5,-183 328.5,-177.75 328.5,-169.12"/>
<polygon fill="black" stroke="black" points="332,-169 328.5,-159 325,-169 332,-169"/>
</g>
<!-- n00000010&#45;&gt;n0000002e -->
<g id="edge16" class="edge">
<title>n00000010:port1&#45;&gt;n0000002e:port0</title>
<path fill="none" stroke="black" stroke-dasharray="5,2" d="M384.5,-206.5C394.9,-206.5 390.79,-171.92 394.39,-155.7"/>
<polygon fill="black" stroke="black" points="397.33,-157.61 400.5,-147.5 391.72,-153.43 397.33,-157.61"/>
</g>
<!-- n00000016 -->
<g id="node11" class="node">
<title>n00000016</title>
<polygon fill="yellow" stroke="black" points="119,-38 0,-38 0,0 119,0 119,-38"/>
<text text-anchor="middle" x="59.5" y="-22.8" font-family="Times,serif" font-size="14.00">msm_vfe0_video0</text>
<text text-anchor="middle" x="59.5" y="-7.8" font-family="Times,serif" font-size="14.00">/dev/video0</text>
</g>
<!-- n00000013&#45;&gt;n00000016 -->
<g id="edge17" class="edge">
<title>n00000013:port1&#45;&gt;n00000016</title>
<path fill="none" stroke="black" stroke-width="2" d="M72.5,-74C72.5,-65.46 70.94,-56.36 68.91,-48.11"/>
<polygon fill="black" stroke="black" stroke-width="2" points="72.21,-46.93 66.15,-38.23 65.47,-48.81 72.21,-46.93"/>
</g>
<!-- n0000001f -->
<g id="node12" class="node">
<title>n0000001f</title>
<polygon fill="yellow" stroke="black" points="256,-38 137,-38 137,0 256,0 256,-38"/>
<text text-anchor="middle" x="196.5" y="-22.8" font-family="Times,serif" font-size="14.00">msm_vfe0_video1</text>
<text text-anchor="middle" x="196.5" y="-7.8" font-family="Times,serif" font-size="14.00">/dev/video1</text>
</g>
<!-- n0000001c&#45;&gt;n0000001f -->
<g id="edge18" class="edge">
<title>n0000001c:port1&#45;&gt;n0000001f</title>
<path fill="none" stroke="black" stroke-width="2" d="M200.5,-74C200.5,-65.76 200.03,-56.84 199.42,-48.67"/>
<polygon fill="black" stroke="black" stroke-width="2" points="202.88,-48.14 198.55,-38.47 195.91,-48.73 202.88,-48.14"/>
</g>
<!-- n00000028 -->
<g id="node13" class="node">
<title>n00000028</title>
<polygon fill="yellow" stroke="black" points="393,-38 274,-38 274,0 393,0 393,-38"/>
<text text-anchor="middle" x="333.5" y="-22.8" font-family="Times,serif" font-size="14.00">msm_vfe0_video2</text>
<text text-anchor="middle" x="333.5" y="-7.8" font-family="Times,serif" font-size="14.00">/dev/video2</text>
</g>
<!-- n00000025&#45;&gt;n00000028 -->
<g id="edge19" class="edge">
<title>n00000025:port1&#45;&gt;n00000028</title>
<path fill="none" stroke="black" stroke-width="2" d="M328.5,-74C328.5,-65.75 329.09,-56.82 329.86,-48.65"/>
<polygon fill="black" stroke="black" stroke-width="2" points="333.36,-48.77 330.94,-38.46 326.4,-48.03 333.36,-48.77"/>
</g>
<!-- n00000031 -->
<g id="node14" class="node">
<title>n00000031</title>
<polygon fill="yellow" stroke="black" points="530,-38 411,-38 411,0 530,0 530,-38"/>
<text text-anchor="middle" x="470.5" y="-22.8" font-family="Times,serif" font-size="14.00">msm_vfe0_video3</text>
<text text-anchor="middle" x="470.5" y="-7.8" font-family="Times,serif" font-size="14.00">/dev/video3</text>
</g>
<!-- n0000002e&#45;&gt;n00000031 -->
<g id="edge20" class="edge">
<title>n0000002e:port1&#45;&gt;n00000031</title>
<path fill="none" stroke="black" stroke-width="2" d="M456.5,-74C456.5,-65.32 458.21,-56.11 460.44,-47.79"/>
<polygon fill="black" stroke="black" stroke-width="2" points="463.8,-48.78 463.34,-38.19 457.1,-46.76 463.8,-48.78"/>
</g>
<!-- n00000057 -->
<g id="node15" class="node">
<title>n00000057</title>
<path fill="green" stroke="black" d="M151,-558.5C151,-558.5 244,-558.5 244,-558.5 250,-558.5 256,-564.5 256,-570.5 256,-570.5 256,-630.5 256,-630.5 256,-636.5 250,-642.5 244,-642.5 244,-642.5 151,-642.5 151,-642.5 145,-642.5 139,-636.5 139,-630.5 139,-630.5 139,-570.5 139,-570.5 139,-564.5 145,-558.5 151,-558.5"/>
<text text-anchor="middle" x="197.5" y="-627.3" font-family="Times,serif" font-size="14.00"> </text>
<polyline fill="none" stroke="black" points="139,-619.5 256,-619.5 "/>
<text text-anchor="middle" x="197.5" y="-604.3" font-family="Times,serif" font-size="14.00">ov5645 1&#45;0076</text>
<text text-anchor="middle" x="197.5" y="-589.3" font-family="Times,serif" font-size="14.00">/dev/v4l&#45;subdev10</text>
<polyline fill="none" stroke="black" points="139,-581.5 256,-581.5 "/>
<text text-anchor="middle" x="197.5" y="-566.3" font-family="Times,serif" font-size="14.00">0</text>
</g>
<!-- n00000057&#45;&gt;n00000001 -->
<g id="edge21" class="edge">
<title>n00000057:port0&#45;&gt;n00000001:port0</title>
<path fill="none" stroke="black" stroke-width="2" d="M197.5,-558C197.5,-545.96 199.19,-540.76 200.03,-532.14"/>
<polygon fill="black" stroke="black" stroke-width="2" points="203.53,-532.15 200.5,-522 196.54,-531.83 203.53,-532.15"/>
</g>
<!-- n00000059 -->
<g id="node16" class="node">
<title>n00000059</title>
<path fill="green" stroke="black" d="M286,-558.5C286,-558.5 379,-558.5 379,-558.5 385,-558.5 391,-564.5 391,-570.5 391,-570.5 391,-630.5 391,-630.5 391,-636.5 385,-642.5 379,-642.5 379,-642.5 286,-642.5 286,-642.5 280,-642.5 274,-636.5 274,-630.5 274,-630.5 274,-570.5 274,-570.5 274,-564.5 280,-558.5 286,-558.5"/>
<text text-anchor="middle" x="332.5" y="-627.3" font-family="Times,serif" font-size="14.00"> </text>
<polyline fill="none" stroke="black" points="274,-619.5 391,-619.5 "/>
<text text-anchor="middle" x="332.5" y="-604.3" font-family="Times,serif" font-size="14.00">ov5645 1&#45;0074</text>
<text text-anchor="middle" x="332.5" y="-589.3" font-family="Times,serif" font-size="14.00">/dev/v4l&#45;subdev11</text>
<polyline fill="none" stroke="black" points="274,-581.5 391,-581.5 "/>
<text text-anchor="middle" x="332.5" y="-566.3" font-family="Times,serif" font-size="14.00">0</text>
</g>
<!-- n00000059&#45;&gt;n00000004 -->
<g id="edge22" class="edge">
<title>n00000059:port0&#45;&gt;n00000004:port0</title>
<path fill="none" stroke="black" stroke-width="2" d="M332.5,-558C332.5,-545.93 330.25,-540.77 329.12,-532.15"/>
<polygon fill="black" stroke="black" stroke-width="2" points="332.61,-531.77 328.5,-522 325.62,-532.2 332.61,-531.77"/>
</g>
</g>
</svg>
