<?xml version="1.0" encoding="UTF-8" standalone="no"?>
<!DOCTYPE svg PUBLIC "-//W3C//DTD SVG 1.1//EN"
 "http://www.w3.org/Graphics/SVG/1.1/DTD/svg11.dtd">
<!-- Generated by graphviz version 2.43.0 (0)
 -->
<!-- Title: writeback_data_flow Pages: 1 -->
<svg width="458pt" height="98pt"
 viewBox="0.00 0.00 458.00 98.00" xmlns="http://www.w3.org/2000/svg" xmlns:xlink="http://www.w3.org/1999/xlink">
<g id="graph0" class="graph" transform="scale(1 1) rotate(0) translate(4 94)">
<title>writeback_data_flow</title>
<polygon fill="white" stroke="transparent" points="-4,4 -4,-94 454,-94 454,4 -4,4"/>
<!-- Compiz -->
<g id="node1" class="node">
<title>Compiz</title>
<polygon fill="none" stroke="black" points="60,-63 0,-63 0,-27 60,-27 60,-63"/>
<text text-anchor="middle" x="30" y="-41.3" font-family="Times,serif" font-size="14.00">Compiz</text>
</g>
<!-- Splitter -->
<g id="node2" class="node">
<title>Splitter</title>
<polygon fill="none" stroke="black" points="152,-63 96,-63 96,-27 152,-27 152,-63"/>
<text text-anchor="middle" x="124" y="-41.3" font-family="Times,serif" font-size="14.00">Splitter</text>
</g>
<!-- Compiz&#45;&gt;Splitter -->
<g id="edge1" class="edge">
<title>Compiz&#45;&gt;Splitter</title>
<path fill="none" stroke="black" d="M60.11,-45C68.27,-45 77.25,-45 85.81,-45"/>
<polygon fill="black" stroke="black" points="85.96,-48.5 95.96,-45 85.96,-41.5 85.96,-48.5"/>
</g>
<!-- Scaler&#45;0 -->
<g id="node3" class="node">
<title>Scaler&#45;0</title>
<polygon fill="none" stroke="black" points="250,-90 188,-90 188,-54 250,-54 250,-90"/>
<text text-anchor="middle" x="219" y="-68.3" font-family="Times,serif" font-size="14.00">Scaler&#45;0</text>
</g>
<!-- Splitter&#45;&gt;Scaler&#45;0 -->
<g id="edge2" class="edge">
<title>Splitter&#45;&gt;Scaler&#45;0</title>
<path fill="none" stroke="black" d="M152.4,-52.95C160.5,-55.31 169.53,-57.93 178.24,-60.46"/>
<polygon fill="black" stroke="black" points="177.29,-63.83 187.87,-63.25 179.24,-57.1 177.29,-63.83"/>
</g>
<!-- Scaler&#45;1 -->
<g id="node5" class="node">
<title>Scaler&#45;1</title>
<polygon fill="none" stroke="black" points="250,-36 188,-36 188,0 250,0 250,-36"/>
<text text-anchor="middle" x="219" y="-14.3" font-family="Times,serif" font-size="14.00">Scaler&#45;1</text>
</g>
<!-- Splitter&#45;&gt;Scaler&#45;1 -->
<g id="edge4" class="edge">
<title>Splitter&#45;&gt;Scaler&#45;1</title>
<path fill="none" stroke="black" d="M152.4,-37.05C160.5,-34.69 169.53,-32.07 178.24,-29.54"/>
<polygon fill="black" stroke="black" points="179.24,-32.9 187.87,-26.75 177.29,-26.17 179.24,-32.9"/>
</g>
<!-- Merger -->
<g id="node4" class="node">
<title>Merger</title>
<polygon fill="none" stroke="black" points="343,-63 286,-63 286,-27 343,-27 343,-63"/>
<text text-anchor="middle" x="314.5" y="-41.3" font-family="Times,serif" font-size="14.00">Merger</text>
</g>
<!-- Scaler&#45;0&#45;&gt;Merger -->
<g id="edge3" class="edge">
<title>Scaler&#45;0&#45;&gt;Merger</title>
<path fill="none" stroke="black" d="M250.1,-63.31C258.39,-60.92 267.48,-58.29 276.12,-55.79"/>
<polygon fill="black" stroke="black" points="277.36,-59.08 285.99,-52.94 275.41,-52.36 277.36,-59.08"/>
</g>
<!-- Wb_layer -->
<g id="node6" class="node">
<title>Wb_layer</title>
<polygon fill="none" stroke="black" points="450,-63 379,-63 379,-27 450,-27 450,-63"/>
<text text-anchor="middle" x="414.5" y="-41.3" font-family="Times,serif" font-size="14.00">Wb_layer</text>
</g>
<!-- Merger&#45;&gt;Wb_layer -->
<g id="edge6" class="edge">
<title>Merger&#45;&gt;Wb_layer</title>
<path fill="none" stroke="black" d="M343.06,-45C351.03,-45 359.95,-45 368.69,-45"/>
<polygon fill="black" stroke="black" points="368.8,-48.5 378.8,-45 368.8,-41.5 368.8,-48.5"/>
</g>
<!-- Scaler&#45;1&#45;&gt;Merger -->
<g id="edge5" class="edge">
<title>Scaler&#45;1&#45;&gt;Merger</title>
<path fill="none" stroke="black" d="M250.1,-26.69C258.39,-29.08 267.48,-31.71 276.12,-34.21"/>
<polygon fill="black" stroke="black" points="275.41,-37.64 285.99,-37.06 277.36,-30.92 275.41,-37.64"/>
</g>
</g>
</svg>
