<?xml version="1.0" encoding="UTF-8" standalone="no"?>
<!DOCTYPE svg PUBLIC "-//W3C//DTD SVG 1.1//EN"
 "http://www.w3.org/Graphics/SVG/1.1/DTD/svg11.dtd">
<!-- Generated by graphviz version 2.43.0 (0)
 -->
<!-- Title: IPU3 ImgU Pages: 1 -->
<svg width="639pt" height="314pt"
 viewBox="0.00 0.00 639.00 314.00" xmlns="http://www.w3.org/2000/svg" xmlns:xlink="http://www.w3.org/1999/xlink">
<g id="graph0" class="graph" transform="scale(1 1) rotate(0) translate(4 310)">
<title>IPU3 ImgU</title>
<polygon fill="white" stroke="transparent" points="-4,4 -4,-310 635,-310 635,4 -4,4"/>
<!-- a -->
<g id="node1" class="node">
<title>a</title>
<polygon fill="none" stroke="black" points="158.5,-306 81.5,-306 81.5,-270 158.5,-270 158.5,-306"/>
<text text-anchor="middle" x="120" y="-284.3" font-family="Times,serif" font-size="14.00">Raw pixels</text>
</g>
<!-- b -->
<g id="node2" class="node">
<title>b</title>
<polygon fill="none" stroke="black" points="182,-252 58,-252 58,-216 182,-216 182,-252"/>
<text text-anchor="middle" x="120" y="-230.3" font-family="Times,serif" font-size="14.00">Bayer Downscaling</text>
</g>
<!-- a&#45;&gt;b -->
<g id="edge1" class="edge">
<title>a&#45;&gt;b</title>
<path fill="none" stroke="black" d="M121,-269.72C121,-269.72 121,-262.26 121,-262.26"/>
<polygon fill="black" stroke="black" points="124.5,-262.26 121,-252.26 117.5,-262.26 124.5,-262.26"/>
</g>
<!-- g -->
<g id="node7" class="node">
<title>g</title>
<polygon fill="none" stroke="black" points="422.5,-306 279.5,-306 279.5,-270 422.5,-270 422.5,-306"/>
<text text-anchor="middle" x="351" y="-284.3" font-family="Times,serif" font-size="14.00">Bayer Noise Reduction</text>
</g>
<!-- a&#45;&gt;g -->
<!-- c -->
<g id="node3" class="node">
<title>c</title>
<polygon fill="none" stroke="black" points="196.5,-198 43.5,-198 43.5,-162 196.5,-162 196.5,-198"/>
<text text-anchor="middle" x="120" y="-176.3" font-family="Times,serif" font-size="14.00">Optical Black Correction</text>
</g>
<!-- b&#45;&gt;c -->
<g id="edge2" class="edge">
<title>b&#45;&gt;c</title>
<path fill="none" stroke="black" d="M121,-215.72C121,-215.72 121,-208.26 121,-208.26"/>
<polygon fill="black" stroke="black" points="124.5,-208.26 121,-198.26 117.5,-208.26 124.5,-208.26"/>
</g>
<!-- d -->
<g id="node4" class="node">
<title>d</title>
<polygon fill="none" stroke="black" points="164.5,-144 75.5,-144 75.5,-108 164.5,-108 164.5,-144"/>
<text text-anchor="middle" x="120" y="-122.3" font-family="Times,serif" font-size="14.00">Linearization</text>
</g>
<!-- c&#45;&gt;d -->
<g id="edge3" class="edge">
<title>c&#45;&gt;d</title>
<path fill="none" stroke="black" d="M121,-161.72C121,-161.72 121,-154.26 121,-154.26"/>
<polygon fill="black" stroke="black" points="124.5,-154.26 121,-144.26 117.5,-154.26 124.5,-154.26"/>
</g>
<!-- e -->
<g id="node5" class="node">
<title>e</title>
<polygon fill="none" stroke="black" points="196,-90 44,-90 44,-54 196,-54 196,-90"/>
<text text-anchor="middle" x="120" y="-68.3" font-family="Times,serif" font-size="14.00">Lens Shading Correction</text>
</g>
<!-- d&#45;&gt;e -->
<g id="edge4" class="edge">
<title>d&#45;&gt;e</title>
<path fill="none" stroke="black" d="M121,-107.72C121,-107.72 121,-100.26 121,-100.26"/>
<polygon fill="black" stroke="black" points="124.5,-100.26 121,-90.26 117.5,-100.26 124.5,-100.26"/>
</g>
<!-- f -->
<g id="node6" class="node">
<title>f</title>
<polygon fill="none" stroke="black" points="240,-36 0,-36 0,0 240,0 240,-36"/>
<text text-anchor="middle" x="120" y="-14.3" font-family="Times,serif" font-size="14.00">White Balance / Exposure / Focus Apply</text>
</g>
<!-- e&#45;&gt;f -->
<g id="edge5" class="edge">
<title>e&#45;&gt;f</title>
<path fill="none" stroke="black" d="M121,-53.72C121,-53.72 121,-46.26 121,-46.26"/>
<polygon fill="black" stroke="black" points="124.5,-46.26 121,-36.26 117.5,-46.26 124.5,-46.26"/>
</g>
<!-- f&#45;&gt;g -->
<g id="edge18" class="edge">
<title>f&#45;&gt;g</title>
<path fill="none" stroke="black" d="M219,-36.15C219,-95.79 219,-282 219,-282 219,-282 269.21,-282 269.21,-282"/>
<polygon fill="black" stroke="black" points="269.21,-285.5 279.21,-282 269.21,-278.5 269.21,-285.5"/>
</g>
<!-- h -->
<g id="node8" class="node">
<title>h</title>
<polygon fill="none" stroke="black" points="378,-252 324,-252 324,-216 378,-216 378,-252"/>
<text text-anchor="middle" x="351" y="-230.3" font-family="Times,serif" font-size="14.00">ANR</text>
</g>
<!-- g&#45;&gt;h -->
<g id="edge6" class="edge">
<title>g&#45;&gt;h</title>
<path fill="none" stroke="black" d="M352,-269.72C352,-269.72 352,-262.26 352,-262.26"/>
<polygon fill="black" stroke="black" points="355.5,-262.26 352,-252.26 348.5,-262.26 355.5,-262.26"/>
</g>
<!-- m -->
<g id="node13" class="node">
<title>m</title>
<polygon fill="none" stroke="black" points="617.5,-306 475.5,-306 475.5,-270 617.5,-270 617.5,-306"/>
<text text-anchor="middle" x="546.5" y="-284.3" font-family="Times,serif" font-size="14.00">Chroma Down Scaling</text>
</g>
<!-- g&#45;&gt;m -->
<!-- i -->
<g id="node9" class="node">
<title>i</title>
<polygon fill="none" stroke="black" points="395.5,-198 306.5,-198 306.5,-162 395.5,-162 395.5,-198"/>
<text text-anchor="middle" x="351" y="-176.3" font-family="Times,serif" font-size="14.00">Demosaicing</text>
</g>
<!-- h&#45;&gt;i -->
<g id="edge7" class="edge">
<title>h&#45;&gt;i</title>
<path fill="none" stroke="black" d="M352,-215.72C352,-215.72 352,-208.26 352,-208.26"/>
<polygon fill="black" stroke="black" points="355.5,-208.26 352,-198.26 348.5,-208.26 355.5,-208.26"/>
</g>
<!-- j -->
<g id="node10" class="node">
<title>j</title>
<polygon fill="none" stroke="black" points="426,-144 276,-144 276,-108 426,-108 426,-144"/>
<text text-anchor="middle" x="351" y="-122.3" font-family="Times,serif" font-size="14.00">Color Correction Matrix</text>
</g>
<!-- i&#45;&gt;j -->
<g id="edge8" class="edge">
<title>i&#45;&gt;j</title>
<path fill="none" stroke="black" d="M352,-161.72C352,-161.72 352,-154.26 352,-154.26"/>
<polygon fill="black" stroke="black" points="355.5,-154.26 352,-144.26 348.5,-154.26 355.5,-154.26"/>
</g>
<!-- k -->
<g id="node11" class="node">
<title>k</title>
<polygon fill="none" stroke="black" points="410.5,-90 291.5,-90 291.5,-54 410.5,-54 410.5,-90"/>
<text text-anchor="middle" x="351" y="-68.3" font-family="Times,serif" font-size="14.00">Gamma correction</text>
</g>
<!-- j&#45;&gt;k -->
<g id="edge9" class="edge">
<title>j&#45;&gt;k</title>
<path fill="none" stroke="black" d="M352,-107.72C352,-107.72 352,-100.26 352,-100.26"/>
<polygon fill="black" stroke="black" points="355.5,-100.26 352,-90.26 348.5,-100.26 355.5,-100.26"/>
</g>
<!-- l -->
<g id="node12" class="node">
<title>l</title>
<polygon fill="none" stroke="black" points="425.5,-36 276.5,-36 276.5,0 425.5,0 425.5,-36"/>
<text text-anchor="middle" x="351" y="-14.3" font-family="Times,serif" font-size="14.00">Color Space Conversion</text>
</g>
<!-- k&#45;&gt;l -->
<g id="edge10" class="edge">
<title>k&#45;&gt;l</title>
<path fill="none" stroke="black" d="M352,-53.72C352,-53.72 352,-46.26 352,-46.26"/>
<polygon fill="black" stroke="black" points="355.5,-46.26 352,-36.26 348.5,-46.26 355.5,-46.26"/>
</g>
<!-- l&#45;&gt;m -->
<g id="edge19" class="edge">
<title>l&#45;&gt;m</title>
<path fill="none" stroke="black" d="M425.52,-18C436.93,-18 445,-18 445,-18 445,-18 445,-282 445,-282 445,-282 465.45,-282 465.45,-282"/>
<polygon fill="black" stroke="black" points="465.45,-285.5 475.45,-282 465.45,-278.5 465.45,-285.5"/>
</g>
<!-- n -->
<g id="node14" class="node">
<title>n</title>
<polygon fill="none" stroke="black" points="631,-252 462,-252 462,-216 631,-216 631,-252"/>
<text text-anchor="middle" x="546.5" y="-230.3" font-family="Times,serif" font-size="14.00">Chromatic Noise Reduction</text>
</g>
<!-- m&#45;&gt;n -->
<g id="edge11" class="edge">
<title>m&#45;&gt;n</title>
<path fill="none" stroke="black" d="M547,-269.72C547,-269.72 547,-262.26 547,-262.26"/>
<polygon fill="black" stroke="black" points="550.5,-262.26 547,-252.26 543.5,-262.26 550.5,-262.26"/>
</g>
<!-- o -->
<g id="node15" class="node">
<title>o</title>
<polygon fill="none" stroke="black" points="617,-198 476,-198 476,-162 617,-162 617,-198"/>
<text text-anchor="middle" x="546.5" y="-176.3" font-family="Times,serif" font-size="14.00">Total Color Correction</text>
</g>
<!-- n&#45;&gt;o -->
<g id="edge12" class="edge">
<title>n&#45;&gt;o</title>
<path fill="none" stroke="black" d="M547,-215.72C547,-215.72 547,-208.26 547,-208.26"/>
<polygon fill="black" stroke="black" points="550.5,-208.26 547,-198.26 543.5,-208.26 550.5,-208.26"/>
</g>
<!-- p -->
<g id="node16" class="node">
<title>p</title>
<polygon fill="none" stroke="black" points="573.5,-144 519.5,-144 519.5,-108 573.5,-108 573.5,-144"/>
<text text-anchor="middle" x="546.5" y="-122.3" font-family="Times,serif" font-size="14.00">XNR3</text>
</g>
<!-- o&#45;&gt;p -->
<g id="edge13" class="edge">
<title>o&#45;&gt;p</title>
<path fill="none" stroke="black" d="M547,-161.72C547,-161.72 547,-154.26 547,-154.26"/>
<polygon fill="black" stroke="black" points="550.5,-154.26 547,-144.26 543.5,-154.26 550.5,-154.26"/>
</g>
<!-- q -->
<g id="node17" class="node">
<title>q</title>
<polygon fill="none" stroke="black" points="573.5,-90 519.5,-90 519.5,-54 573.5,-54 573.5,-90"/>
<text text-anchor="middle" x="546.5" y="-68.3" font-family="Times,serif" font-size="14.00">TNR</text>
</g>
<!-- p&#45;&gt;q -->
<g id="edge14" class="edge">
<title>p&#45;&gt;q</title>
<path fill="none" stroke="black" d="M547,-107.72C547,-107.72 547,-100.26 547,-100.26"/>
<polygon fill="black" stroke="black" points="550.5,-100.26 547,-90.26 543.5,-100.26 550.5,-100.26"/>
</g>
<!-- r -->
<g id="node18" class="node">
<title>r</title>
<polygon fill="none" stroke="black" points="573.5,-36 519.5,-36 519.5,0 573.5,0 573.5,-36"/>
<text text-anchor="middle" x="546.5" y="-14.3" font-family="Times,serif" font-size="14.00">DDR</text>
</g>
<!-- q&#45;&gt;r -->
<g id="edge15" class="edge">
<title>q&#45;&gt;r</title>
<path fill="none" stroke="black" d="M547,-53.72C547,-53.72 547,-46.26 547,-46.26"/>
<polygon fill="black" stroke="black" points="550.5,-46.26 547,-36.26 543.5,-46.26 550.5,-46.26"/>
</g>
</g>
</svg>
