<?xml version="1.0" encoding="UTF-8" standalone="no"?>
<!DOCTYPE svg PUBLIC "-//W3C//DTD SVG 1.1//EN"
 "http://www.w3.org/Graphics/SVG/1.1/DTD/svg11.dtd">
<!-- Generated by graphviz version 2.43.0 (0)
 -->
<!-- Title: disk_states Pages: 1 -->
<svg width="754pt" height="479pt"
 viewBox="0.00 0.00 753.90 479.00" xmlns="http://www.w3.org/2000/svg" xmlns:xlink="http://www.w3.org/1999/xlink">
<g id="graph0" class="graph" transform="scale(1 1) rotate(0) translate(4 475)">
<title>disk_states</title>
<polygon fill="white" stroke="transparent" points="-4,4 -4,-475 749.9,-475 749.9,4 -4,4"/>
<!-- Diskless -->
<g id="node1" class="node">
<title>Diskless</title>
<ellipse fill="none" stroke="black" cx="245.9" cy="-453" rx="40.09" ry="18"/>
<text text-anchor="middle" x="245.9" y="-449.3" font-family="Times,serif" font-size="14.00">Diskless</text>
</g>
<!-- Inconsistent -->
<g id="node2" class="node">
<title>Inconsistent</title>
<ellipse fill="none" stroke="black" cx="157.9" cy="-192" rx="53.09" ry="18"/>
<text text-anchor="middle" x="157.9" y="-188.3" font-family="Times,serif" font-size="14.00">Inconsistent</text>
</g>
<!-- Diskless&#45;&gt;Inconsistent -->
<g id="edge1" class="edge">
<title>Diskless&#45;&gt;Inconsistent</title>
<path fill="none" stroke="black" d="M225.84,-437.39C199.56,-416.85 154.72,-376.7 136.9,-330 122.91,-293.36 135.25,-247.84 146.06,-219.6"/>
<polygon fill="black" stroke="black" points="149.42,-220.61 149.92,-210.03 142.93,-218 149.42,-220.61"/>
<text text-anchor="middle" x="179.4" y="-318.8" font-family="Times,serif" font-size="14.00">ioctl_set_disk()</text>
</g>
<!-- Consistent -->
<g id="node3" class="node">
<title>Consistent</title>
<ellipse fill="none" stroke="black" cx="352.9" cy="-366" rx="48.19" ry="18"/>
<text text-anchor="middle" x="352.9" y="-362.3" font-family="Times,serif" font-size="14.00">Consistent</text>
</g>
<!-- Diskless&#45;&gt;Consistent -->
<g id="edge2" class="edge">
<title>Diskless&#45;&gt;Consistent</title>
<path fill="none" stroke="black" d="M265.03,-436.8C281.78,-423.49 306.34,-403.99 325.23,-388.97"/>
<polygon fill="black" stroke="black" points="327.56,-391.6 333.21,-382.64 323.2,-386.12 327.56,-391.6"/>
<text text-anchor="middle" x="347.4" y="-405.8" font-family="Times,serif" font-size="14.00">ioctl_set_disk()</text>
</g>
<!-- Outdated -->
<g id="node4" class="node">
<title>Outdated</title>
<ellipse fill="none" stroke="black" cx="42.9" cy="-279" rx="42.79" ry="18"/>
<text text-anchor="middle" x="42.9" y="-275.3" font-family="Times,serif" font-size="14.00">Outdated</text>
</g>
<!-- Diskless&#45;&gt;Outdated -->
<g id="edge3" class="edge">
<title>Diskless&#45;&gt;Outdated</title>
<path fill="none" stroke="black" d="M205.51,-452.01C156.88,-449.55 77.22,-437.07 40.9,-384 25.57,-361.62 28.92,-329.69 34.3,-307.13"/>
<polygon fill="black" stroke="black" points="37.76,-307.76 36.95,-297.19 31,-305.96 37.76,-307.76"/>
<text text-anchor="middle" x="83.4" y="-362.3" font-family="Times,serif" font-size="14.00">ioctl_set_disk()</text>
</g>
<!-- UpToDate -->
<g id="node5" class="node">
<title>UpToDate</title>
<ellipse fill="none" stroke="black" cx="312.9" cy="-105" rx="48.19" ry="18"/>
<text text-anchor="middle" x="312.9" y="-101.3" font-family="Times,serif" font-size="14.00">UpToDate</text>
</g>
<!-- Inconsistent&#45;&gt;UpToDate -->
<g id="edge9" class="edge">
<title>Inconsistent&#45;&gt;UpToDate</title>
<path fill="none" stroke="black" d="M158.01,-173.93C159.01,-163.06 162.13,-149.48 170.9,-141 197.09,-115.66 215.54,-131.82 250.9,-123 255.78,-121.78 260.87,-120.47 265.93,-119.12"/>
<polygon fill="black" stroke="black" points="266.84,-122.5 275.59,-116.53 265.03,-115.74 266.84,-122.5"/>
<text text-anchor="middle" x="219.4" y="-144.8" font-family="Times,serif" font-size="14.00">resync completed</text>
</g>
<!-- Failed -->
<g id="node6" class="node">
<title>Failed</title>
<ellipse fill="none" stroke="black" cx="312.9" cy="-18" rx="32.49" ry="18"/>
<text text-anchor="middle" x="312.9" y="-14.3" font-family="Times,serif" font-size="14.00">Failed</text>
</g>
<!-- Inconsistent&#45;&gt;Failed -->
<g id="edge13" class="edge">
<title>Inconsistent&#45;&gt;Failed</title>
<path fill="none" stroke="black" d="M150.58,-173.9C142.4,-151.84 132.42,-113.22 149.9,-87 176.66,-46.83 232.15,-30.35 270.92,-23.61"/>
<polygon fill="black" stroke="black" points="271.55,-27.06 280.87,-22.03 270.45,-20.14 271.55,-27.06"/>
<text text-anchor="middle" x="202.9" y="-101.3" font-family="Times,serif" font-size="14.00">io completion error</text>
</g>
<!-- Consistent&#45;&gt;Inconsistent -->
<g id="edge6" class="edge">
<title>Consistent&#45;&gt;Inconsistent</title>
<path fill="none" stroke="black" d="M351.25,-347.87C349.54,-337.51 346.04,-324.51 338.9,-315 329.79,-302.87 322.6,-305.29 309.9,-297 267.23,-269.19 218.82,-235.72 188.32,-214.41"/>
<polygon fill="black" stroke="black" points="190.04,-211.34 179.84,-208.47 186.02,-217.07 190.04,-211.34"/>
<text text-anchor="middle" x="341.4" y="-275.3" font-family="Times,serif" font-size="14.00">start resync</text>
</g>
<!-- Consistent&#45;&gt;Outdated -->
<g id="edge4" class="edge">
<title>Consistent&#45;&gt;Outdated</title>
<path fill="none" stroke="black" d="M314.93,-354.75C294.81,-348.7 269.98,-340.22 248.9,-330 237.91,-324.68 237.21,-319.57 225.9,-315 183.67,-297.97 132.55,-289.08 95.09,-284.54"/>
<polygon fill="black" stroke="black" points="95.23,-281.03 84.9,-283.37 94.43,-287.98 95.23,-281.03"/>
<text text-anchor="middle" x="293.9" y="-318.8" font-family="Times,serif" font-size="14.00">receive_param()</text>
</g>
<!-- Consistent&#45;&gt;UpToDate -->
<g id="edge5" class="edge">
<title>Consistent&#45;&gt;UpToDate</title>
<path fill="none" stroke="black" d="M360.1,-348.12C375.68,-308.76 408.12,-209.07 368.9,-141 365.12,-134.44 359.57,-128.94 353.41,-124.39"/>
<polygon fill="black" stroke="black" points="355.03,-121.27 344.74,-118.75 351.21,-127.14 355.03,-121.27"/>
<text text-anchor="middle" x="431.9" y="-231.8" font-family="Times,serif" font-size="14.00">receive_param()</text>
</g>
<!-- Consistent&#45;&gt;Failed -->
<g id="edge10" class="edge">
<title>Consistent&#45;&gt;Failed</title>
<path fill="none" stroke="black" d="M395.73,-357.48C436.58,-347.56 491.9,-325.68 491.9,-280 491.9,-280 491.9,-280 491.9,-104 491.9,-43.85 408.4,-26.21 355.46,-21.08"/>
<polygon fill="black" stroke="black" points="355.57,-17.57 345.31,-20.21 354.98,-24.55 355.57,-17.57"/>
<text text-anchor="middle" x="544.9" y="-188.3" font-family="Times,serif" font-size="14.00">io completion error</text>
</g>
<!-- Outdated&#45;&gt;Inconsistent -->
<g id="edge7" class="edge">
<title>Outdated&#45;&gt;Inconsistent</title>
<path fill="none" stroke="black" d="M46.08,-260.71C48.86,-250.03 53.92,-236.74 62.9,-228 73.85,-217.34 88.32,-209.89 102.65,-204.69"/>
<polygon fill="black" stroke="black" points="104.11,-207.9 112.51,-201.44 101.92,-201.25 104.11,-207.9"/>
<text text-anchor="middle" x="94.4" y="-231.8" font-family="Times,serif" font-size="14.00">start resync</text>
</g>
<!-- Outdated&#45;&gt;Failed -->
<g id="edge11" class="edge">
<title>Outdated&#45;&gt;Failed</title>
<path fill="none" stroke="black" d="M36,-261.2C26.03,-234.1 10.96,-179.87 31.9,-141 78.46,-54.55 204.01,-29.34 270.4,-22"/>
<polygon fill="black" stroke="black" points="270.93,-25.47 280.53,-20.97 270.23,-18.5 270.93,-25.47"/>
<text text-anchor="middle" x="84.9" y="-144.8" font-family="Times,serif" font-size="14.00">io completion error</text>
</g>
<!-- UpToDate&#45;&gt;Inconsistent -->
<g id="edge8" class="edge">
<title>UpToDate&#45;&gt;Inconsistent</title>
<path fill="none" stroke="black" d="M302.67,-123.05C295.35,-133.91 284.57,-147.49 271.9,-156 254.77,-167.49 233.7,-175.34 214.36,-180.64"/>
<polygon fill="black" stroke="black" points="213.25,-177.31 204.43,-183.19 214.99,-184.09 213.25,-177.31"/>
<text text-anchor="middle" x="325.9" y="-144.8" font-family="Times,serif" font-size="14.00">ioctl_replicate</text>
</g>
<!-- UpToDate&#45;&gt;Failed -->
<g id="edge12" class="edge">
<title>UpToDate&#45;&gt;Failed</title>
<path fill="none" stroke="black" d="M312.9,-86.8C312.9,-75.16 312.9,-59.55 312.9,-46.24"/>
<polygon fill="black" stroke="black" points="316.4,-46.18 312.9,-36.18 309.4,-46.18 316.4,-46.18"/>
<text text-anchor="middle" x="365.9" y="-57.8" font-family="Times,serif" font-size="14.00">io completion error</text>
</g>
<!-- Failed&#45;&gt;Diskless -->
<g id="edge14" class="edge">
<title>Failed&#45;&gt;Diskless</title>
<path fill="none" stroke="black" d="M345.21,-20.9C425.18,-26.5 625.9,-46.28 625.9,-104 625.9,-367 625.9,-367 625.9,-367 625.9,-433.75 399.8,-448.1 296.41,-451.17"/>
<polygon fill="black" stroke="black" points="296.1,-447.68 286.2,-451.45 296.29,-454.67 296.1,-447.68"/>
<text text-anchor="middle" x="685.9" y="-231.8" font-family="Times,serif" font-size="14.00">sending notify to peer</text>
</g>
</g>
</svg>
