<?xml version="1.0" encoding="UTF-8" standalone="no"?>
<!DOCTYPE svg PUBLIC "-//W3C//DTD SVG 1.1//EN"
 "http://www.w3.org/Graphics/SVG/1.1/DTD/svg11.dtd">
<!-- Generated by graphviz version 2.43.0 (0)
 -->
<!-- Title: single_ppl Pages: 1 -->
<svg width="312pt" height="44pt"
 viewBox="0.00 0.00 312.00 44.00" xmlns="http://www.w3.org/2000/svg" xmlns:xlink="http://www.w3.org/1999/xlink">
<g id="graph0" class="graph" transform="scale(1 1) rotate(0) translate(4 40)">
<title>single_ppl</title>
<polygon fill="white" stroke="transparent" points="-4,4 -4,-40 308,-40 308,4 -4,4"/>
<!-- Compiz -->
<g id="node1" class="node">
<title>Compiz</title>
<polygon fill="none" stroke="black" points="60,-36 0,-36 0,0 60,0 60,-36"/>
<text text-anchor="middle" x="30" y="-14.3" font-family="Times,serif" font-size="14.00">Compiz</text>
</g>
<!-- Improc -->
<g id="node2" class="node">
<title>Improc</title>
<polygon fill="none" stroke="black" points="152,-36 96,-36 96,0 152,0 152,-36"/>
<text text-anchor="middle" x="124" y="-14.3" font-family="Times,serif" font-size="14.00">Improc</text>
</g>
<!-- Compiz&#45;&gt;Improc -->
<g id="edge1" class="edge">
<title>Compiz&#45;&gt;Improc</title>
<path fill="none" stroke="black" d="M60.11,-18C68.27,-18 77.25,-18 85.81,-18"/>
<polygon fill="black" stroke="black" points="85.96,-21.5 95.96,-18 85.96,-14.5 85.96,-21.5"/>
</g>
<!-- Timing Controller -->
<g id="node3" class="node">
<title>Timing Controller</title>
<polygon fill="none" stroke="black" points="304,-36 188,-36 188,0 304,0 304,-36"/>
<text text-anchor="middle" x="246" y="-14.3" font-family="Times,serif" font-size="14.00">Timing Controller</text>
</g>
<!-- Improc&#45;&gt;Timing Controller -->
<g id="edge2" class="edge">
<title>Improc&#45;&gt;Timing Controller</title>
<path fill="none" stroke="black" d="M152.23,-18C159.97,-18 168.75,-18 177.76,-18"/>
<polygon fill="black" stroke="black" points="177.98,-21.5 187.98,-18 177.98,-14.5 177.98,-21.5"/>
</g>
</g>
</svg>
