<?xml version="1.0" encoding="UTF-8" standalone="no"?>
<!DOCTYPE svg PUBLIC "-//W3C//DTD SVG 1.1//EN"
 "http://www.w3.org/Graphics/SVG/1.1/DTD/svg11.dtd">
<!-- Generated by graphviz version 2.43.0 (0)
 -->
<!-- Title: board Pages: 1 -->
<svg width="858pt" height="772pt"
 viewBox="0.00 0.00 858.00 772.00" xmlns="http://www.w3.org/2000/svg" xmlns:xlink="http://www.w3.org/1999/xlink">
<g id="graph0" class="graph" transform="scale(1 1) rotate(0) translate(4 768)">
<title>board</title>
<polygon fill="white" stroke="transparent" points="-4,4 -4,-768 854,-768 854,4 -4,4"/>
<!-- n00000001 -->
<g id="node1" class="node">
<title>n00000001</title>
<path fill="green" stroke="black" d="M15.5,-437.5C15.5,-437.5 101.5,-437.5 101.5,-437.5 107.5,-437.5 113.5,-443.5 113.5,-449.5 113.5,-449.5 113.5,-509.5 113.5,-509.5 113.5,-515.5 107.5,-521.5 101.5,-521.5 101.5,-521.5 15.5,-521.5 15.5,-521.5 9.5,-521.5 3.5,-515.5 3.5,-509.5 3.5,-509.5 3.5,-449.5 3.5,-449.5 3.5,-443.5 9.5,-437.5 15.5,-437.5"/>
<text text-anchor="middle" x="58.5" y="-506.3" font-family="Times,serif" font-size="14.00">0</text>
<polyline fill="none" stroke="black" points="3.5,-498.5 113.5,-498.5 "/>
<text text-anchor="middle" x="58.5" y="-483.3" font-family="Times,serif" font-size="14.00">ipu1_csi0</text>
<text text-anchor="middle" x="58.5" y="-468.3" font-family="Times,serif" font-size="14.00">/dev/v4l&#45;subdev0</text>
<polyline fill="none" stroke="black" points="3.5,-460.5 113.5,-460.5 "/>
<text text-anchor="middle" x="31" y="-445.3" font-family="Times,serif" font-size="14.00">1</text>
<polyline fill="none" stroke="black" points="58.5,-437.5 58.5,-460.5 "/>
<text text-anchor="middle" x="86" y="-445.3" font-family="Times,serif" font-size="14.00">2</text>
</g>
<!-- n00000005 -->
<g id="node2" class="node">
<title>n00000005</title>
<polygon fill="yellow" stroke="black" points="143,-377.5 30,-377.5 30,-339.5 143,-339.5 143,-377.5"/>
<text text-anchor="middle" x="86.5" y="-362.3" font-family="Times,serif" font-size="14.00">ipu1_csi0 capture</text>
<text text-anchor="middle" x="86.5" y="-347.3" font-family="Times,serif" font-size="14.00">/dev/video0</text>
</g>
<!-- n00000001&#45;&gt;n00000005 -->
<g id="edge1" class="edge">
<title>n00000001:port2&#45;&gt;n00000005</title>
<path fill="none" stroke="black" stroke-dasharray="5,2" d="M86.5,-437C86.5,-420.81 86.5,-402.72 86.5,-388.09"/>
<polygon fill="black" stroke="black" points="90,-387.66 86.5,-377.66 83,-387.66 90,-387.66"/>
</g>
<!-- n0000000f -->
<g id="node3" class="node">
<title>n0000000f</title>
<path fill="green" stroke="black" d="M173.5,-195.5C173.5,-195.5 259.5,-195.5 259.5,-195.5 265.5,-195.5 271.5,-201.5 271.5,-207.5 271.5,-207.5 271.5,-267.5 271.5,-267.5 271.5,-273.5 265.5,-279.5 259.5,-279.5 259.5,-279.5 173.5,-279.5 173.5,-279.5 167.5,-279.5 161.5,-273.5 161.5,-267.5 161.5,-267.5 161.5,-207.5 161.5,-207.5 161.5,-201.5 167.5,-195.5 173.5,-195.5"/>
<text text-anchor="middle" x="216.5" y="-264.3" font-family="Times,serif" font-size="14.00">0</text>
<polyline fill="none" stroke="black" points="161.5,-256.5 271.5,-256.5 "/>
<text text-anchor="middle" x="216.5" y="-241.3" font-family="Times,serif" font-size="14.00">ipu1_ic_prp</text>
<text text-anchor="middle" x="216.5" y="-226.3" font-family="Times,serif" font-size="14.00">/dev/v4l&#45;subdev2</text>
<polyline fill="none" stroke="black" points="161.5,-218.5 271.5,-218.5 "/>
<text text-anchor="middle" x="189" y="-203.3" font-family="Times,serif" font-size="14.00">1</text>
<polyline fill="none" stroke="black" points="216.5,-195.5 216.5,-218.5 "/>
<text text-anchor="middle" x="244" y="-203.3" font-family="Times,serif" font-size="14.00">2</text>
</g>
<!-- n00000001&#45;&gt;n0000000f -->
<g id="edge2" class="edge">
<title>n00000001:port1&#45;&gt;n0000000f:port0</title>
<path fill="none" stroke="black" stroke-dasharray="5,2" d="M30.5,-437C30.5,-420.39 22.74,-417.45 20.5,-401 15.4,-363.57 -1.51,-346.71 20.5,-316 37.92,-291.7 112.39,-272.28 150.4,-268.99"/>
<polygon fill="black" stroke="black" points="150.68,-272.48 160.5,-268.5 150.34,-265.49 150.68,-272.48"/>
</g>
<!-- n0000000b -->
<g id="node4" class="node">
<title>n0000000b</title>
<path fill="green" stroke="black" d="M173.5,-316.5C173.5,-316.5 259.5,-316.5 259.5,-316.5 265.5,-316.5 271.5,-322.5 271.5,-328.5 271.5,-328.5 271.5,-388.5 271.5,-388.5 271.5,-394.5 265.5,-400.5 259.5,-400.5 259.5,-400.5 173.5,-400.5 173.5,-400.5 167.5,-400.5 161.5,-394.5 161.5,-388.5 161.5,-388.5 161.5,-328.5 161.5,-328.5 161.5,-322.5 167.5,-316.5 173.5,-316.5"/>
<text text-anchor="middle" x="189" y="-385.3" font-family="Times,serif" font-size="14.00">0</text>
<polyline fill="none" stroke="black" points="216.5,-377.5 216.5,-400.5 "/>
<text text-anchor="middle" x="244" y="-385.3" font-family="Times,serif" font-size="14.00">1</text>
<polyline fill="none" stroke="black" points="161.5,-377.5 271.5,-377.5 "/>
<text text-anchor="middle" x="216.5" y="-362.3" font-family="Times,serif" font-size="14.00">ipu1_vdic</text>
<text text-anchor="middle" x="216.5" y="-347.3" font-family="Times,serif" font-size="14.00">/dev/v4l&#45;subdev1</text>
<polyline fill="none" stroke="black" points="161.5,-339.5 271.5,-339.5 "/>
<text text-anchor="middle" x="216.5" y="-324.3" font-family="Times,serif" font-size="14.00">2</text>
</g>
<!-- n00000001&#45;&gt;n0000000b -->
<g id="edge3" class="edge">
<title>n00000001:port1&#45;&gt;n0000000b:port0</title>
<path fill="none" stroke="black" stroke-dasharray="5,2" d="M30.5,-437C30.5,-380.89 105.13,-432.59 151.5,-401 152.84,-400.09 153.67,-398.91 154.26,-397.66"/>
<polygon fill="black" stroke="black" points="157.2,-399.57 160.5,-389.5 151.64,-395.32 157.2,-399.57"/>
</g>
<!-- n00000013 -->
<g id="node5" class="node">
<title>n00000013</title>
<path fill="green" stroke="black" d="M101.5,-74.5C101.5,-74.5 187.5,-74.5 187.5,-74.5 193.5,-74.5 199.5,-80.5 199.5,-86.5 199.5,-86.5 199.5,-146.5 199.5,-146.5 199.5,-152.5 193.5,-158.5 187.5,-158.5 187.5,-158.5 101.5,-158.5 101.5,-158.5 95.5,-158.5 89.5,-152.5 89.5,-146.5 89.5,-146.5 89.5,-86.5 89.5,-86.5 89.5,-80.5 95.5,-74.5 101.5,-74.5"/>
<text text-anchor="middle" x="144.5" y="-143.3" font-family="Times,serif" font-size="14.00">0</text>
<polyline fill="none" stroke="black" points="89.5,-135.5 199.5,-135.5 "/>
<text text-anchor="middle" x="144.5" y="-120.3" font-family="Times,serif" font-size="14.00">ipu1_ic_prpenc</text>
<text text-anchor="middle" x="144.5" y="-105.3" font-family="Times,serif" font-size="14.00">/dev/v4l&#45;subdev3</text>
<polyline fill="none" stroke="black" points="89.5,-97.5 199.5,-97.5 "/>
<text text-anchor="middle" x="144.5" y="-82.3" font-family="Times,serif" font-size="14.00">1</text>
</g>
<!-- n0000000f&#45;&gt;n00000013 -->
<g id="edge5" class="edge">
<title>n0000000f:port1&#45;&gt;n00000013:port0</title>
<path fill="none" stroke="black" stroke-dasharray="5,2" d="M188.5,-195C188.5,-180.54 203.39,-164.34 207.02,-155.08"/>
<polygon fill="black" stroke="black" points="209.67,-152.8 200.5,-147.5 204.37,-157.36 209.67,-152.8"/>
</g>
<!-- n0000001c -->
<g id="node6" class="node">
<title>n0000001c</title>
<path fill="green" stroke="black" d="M237.5,-74.5C237.5,-74.5 323.5,-74.5 323.5,-74.5 329.5,-74.5 335.5,-80.5 335.5,-86.5 335.5,-86.5 335.5,-146.5 335.5,-146.5 335.5,-152.5 329.5,-158.5 323.5,-158.5 323.5,-158.5 237.5,-158.5 237.5,-158.5 231.5,-158.5 225.5,-152.5 225.5,-146.5 225.5,-146.5 225.5,-86.5 225.5,-86.5 225.5,-80.5 231.5,-74.5 237.5,-74.5"/>
<text text-anchor="middle" x="280.5" y="-143.3" font-family="Times,serif" font-size="14.00">0</text>
<polyline fill="none" stroke="black" points="225.5,-135.5 335.5,-135.5 "/>
<text text-anchor="middle" x="280.5" y="-120.3" font-family="Times,serif" font-size="14.00">ipu1_ic_prpvf</text>
<text text-anchor="middle" x="280.5" y="-105.3" font-family="Times,serif" font-size="14.00">/dev/v4l&#45;subdev4</text>
<polyline fill="none" stroke="black" points="225.5,-97.5 335.5,-97.5 "/>
<text text-anchor="middle" x="280.5" y="-82.3" font-family="Times,serif" font-size="14.00">1</text>
</g>
<!-- n0000000f&#45;&gt;n0000001c -->
<g id="edge6" class="edge">
<title>n0000000f:port2&#45;&gt;n0000001c:port0</title>
<path fill="none" stroke="black" stroke-dasharray="5,2" d="M244.5,-195C244.5,-181.04 228.57,-166.46 221.3,-157.19"/>
<polygon fill="black" stroke="black" points="224.69,-158.09 224.5,-147.5 218.04,-155.9 224.69,-158.09"/>
</g>
<!-- n0000000b&#45;&gt;n0000000f -->
<g id="edge4" class="edge">
<title>n0000000b:port2&#45;&gt;n0000000f:port0</title>
<path fill="none" stroke="black" stroke-dasharray="5,2" d="M216.5,-316C216.5,-304 216.5,-298.75 216.5,-290.12"/>
<polygon fill="black" stroke="black" points="220,-290 216.5,-280 213,-290 220,-290"/>
</g>
<!-- n00000016 -->
<g id="node7" class="node">
<title>n00000016</title>
<polygon fill="yellow" stroke="black" points="201.5,-38 57.5,-38 57.5,0 201.5,0 201.5,-38"/>
<text text-anchor="middle" x="129.5" y="-22.8" font-family="Times,serif" font-size="14.00">ipu1_ic_prpenc capture</text>
<text text-anchor="middle" x="129.5" y="-7.8" font-family="Times,serif" font-size="14.00">/dev/video1</text>
</g>
<!-- n00000013&#45;&gt;n00000016 -->
<g id="edge7" class="edge">
<title>n00000013:port1&#45;&gt;n00000016</title>
<path fill="none" stroke="black" stroke-dasharray="5,2" d="M144.5,-74C144.5,-65.28 142.66,-56.06 140.28,-47.74"/>
<polygon fill="black" stroke="black" points="143.58,-46.59 137.18,-38.15 136.92,-48.74 143.58,-46.59"/>
</g>
<!-- n0000001f -->
<g id="node8" class="node">
<title>n0000001f</title>
<polygon fill="yellow" stroke="black" points="357,-38 220,-38 220,0 357,0 357,-38"/>
<text text-anchor="middle" x="288.5" y="-22.8" font-family="Times,serif" font-size="14.00">ipu1_ic_prpvf capture</text>
<text text-anchor="middle" x="288.5" y="-7.8" font-family="Times,serif" font-size="14.00">/dev/video2</text>
</g>
<!-- n0000001c&#45;&gt;n0000001f -->
<g id="edge8" class="edge">
<title>n0000001c:port1&#45;&gt;n0000001f</title>
<path fill="none" stroke="black" stroke-dasharray="5,2" d="M280.5,-74C280.5,-65.6 281.46,-56.55 282.71,-48.3"/>
<polygon fill="black" stroke="black" points="286.17,-48.84 284.41,-38.39 279.27,-47.66 286.17,-48.84"/>
</g>
<!-- n0000002f -->
<g id="node9" class="node">
<title>n0000002f</title>
<path fill="green" stroke="black" d="M284.5,-437.5C284.5,-437.5 370.5,-437.5 370.5,-437.5 376.5,-437.5 382.5,-443.5 382.5,-449.5 382.5,-449.5 382.5,-509.5 382.5,-509.5 382.5,-515.5 376.5,-521.5 370.5,-521.5 370.5,-521.5 284.5,-521.5 284.5,-521.5 278.5,-521.5 272.5,-515.5 272.5,-509.5 272.5,-509.5 272.5,-449.5 272.5,-449.5 272.5,-443.5 278.5,-437.5 284.5,-437.5"/>
<text text-anchor="middle" x="327.5" y="-506.3" font-family="Times,serif" font-size="14.00">0</text>
<polyline fill="none" stroke="black" points="272.5,-498.5 382.5,-498.5 "/>
<text text-anchor="middle" x="327.5" y="-483.3" font-family="Times,serif" font-size="14.00">ipu1_csi1</text>
<text text-anchor="middle" x="327.5" y="-468.3" font-family="Times,serif" font-size="14.00">/dev/v4l&#45;subdev5</text>
<polyline fill="none" stroke="black" points="272.5,-460.5 382.5,-460.5 "/>
<text text-anchor="middle" x="300" y="-445.3" font-family="Times,serif" font-size="14.00">1</text>
<polyline fill="none" stroke="black" points="327.5,-437.5 327.5,-460.5 "/>
<text text-anchor="middle" x="355" y="-445.3" font-family="Times,serif" font-size="14.00">2</text>
</g>
<!-- n0000002f&#45;&gt;n0000000f -->
<g id="edge10" class="edge">
<title>n0000002f:port1&#45;&gt;n0000000f:port0</title>
<path fill="none" stroke="black" stroke-dasharray="5,2" d="M299.5,-437C299.5,-364.86 343.69,-277.51 282.74,-269.15"/>
<polygon fill="black" stroke="black" points="282.7,-265.64 272.5,-268.5 282.26,-272.63 282.7,-265.64"/>
</g>
<!-- n0000002f&#45;&gt;n0000000b -->
<g id="edge11" class="edge">
<title>n0000002f:port1&#45;&gt;n0000000b:port0</title>
<path fill="none" stroke="black" stroke-dasharray="5,2" d="M271.5,-448.5C232.65,-448.5 195.48,-444.32 189.37,-411.15"/>
<polygon fill="black" stroke="black" points="192.84,-410.66 188.5,-401 185.87,-411.26 192.84,-410.66"/>
</g>
<!-- n00000033 -->
<g id="node10" class="node">
<title>n00000033</title>
<polygon fill="yellow" stroke="black" points="441,-377.5 328,-377.5 328,-339.5 441,-339.5 441,-377.5"/>
<text text-anchor="middle" x="384.5" y="-362.3" font-family="Times,serif" font-size="14.00">ipu1_csi1 capture</text>
<text text-anchor="middle" x="384.5" y="-347.3" font-family="Times,serif" font-size="14.00">/dev/video3</text>
</g>
<!-- n0000002f&#45;&gt;n00000033 -->
<g id="edge9" class="edge">
<title>n0000002f:port2&#45;&gt;n00000033</title>
<path fill="none" stroke="black" stroke-dasharray="5,2" d="M355.5,-437C355.5,-419.61 361.99,-401.33 368.82,-386.9"/>
<polygon fill="black" stroke="black" points="372.15,-388.08 373.54,-377.58 365.9,-384.92 372.15,-388.08"/>
</g>
<!-- n0000003d -->
<g id="node11" class="node">
<title>n0000003d</title>
<path fill="green" stroke="black" d="M424.5,-558.5C424.5,-558.5 510.5,-558.5 510.5,-558.5 516.5,-558.5 522.5,-564.5 522.5,-570.5 522.5,-570.5 522.5,-630.5 522.5,-630.5 522.5,-636.5 516.5,-642.5 510.5,-642.5 510.5,-642.5 424.5,-642.5 424.5,-642.5 418.5,-642.5 412.5,-636.5 412.5,-630.5 412.5,-630.5 412.5,-570.5 412.5,-570.5 412.5,-564.5 418.5,-558.5 424.5,-558.5"/>
<text text-anchor="middle" x="467.5" y="-627.3" font-family="Times,serif" font-size="14.00">0</text>
<polyline fill="none" stroke="black" points="412.5,-619.5 522.5,-619.5 "/>
<text text-anchor="middle" x="467.5" y="-604.3" font-family="Times,serif" font-size="14.00">ipu2_csi0</text>
<text text-anchor="middle" x="467.5" y="-589.3" font-family="Times,serif" font-size="14.00">/dev/v4l&#45;subdev6</text>
<polyline fill="none" stroke="black" points="412.5,-581.5 522.5,-581.5 "/>
<text text-anchor="middle" x="440" y="-566.3" font-family="Times,serif" font-size="14.00">1</text>
<polyline fill="none" stroke="black" points="467.5,-558.5 467.5,-581.5 "/>
<text text-anchor="middle" x="495" y="-566.3" font-family="Times,serif" font-size="14.00">2</text>
</g>
<!-- n00000041 -->
<g id="node12" class="node">
<title>n00000041</title>
<polygon fill="yellow" stroke="black" points="552,-498.5 439,-498.5 439,-460.5 552,-460.5 552,-498.5"/>
<text text-anchor="middle" x="495.5" y="-483.3" font-family="Times,serif" font-size="14.00">ipu2_csi0 capture</text>
<text text-anchor="middle" x="495.5" y="-468.3" font-family="Times,serif" font-size="14.00">/dev/video4</text>
</g>
<!-- n0000003d&#45;&gt;n00000041 -->
<g id="edge12" class="edge">
<title>n0000003d:port2&#45;&gt;n00000041</title>
<path fill="none" stroke="black" stroke-dasharray="5,2" d="M495.5,-558C495.5,-541.81 495.5,-523.72 495.5,-509.09"/>
<polygon fill="black" stroke="black" points="499,-508.66 495.5,-498.66 492,-508.66 499,-508.66"/>
</g>
<!-- n0000004b -->
<g id="node13" class="node">
<title>n0000004b</title>
<path fill="green" stroke="black" d="M582.5,-316.5C582.5,-316.5 668.5,-316.5 668.5,-316.5 674.5,-316.5 680.5,-322.5 680.5,-328.5 680.5,-328.5 680.5,-388.5 680.5,-388.5 680.5,-394.5 674.5,-400.5 668.5,-400.5 668.5,-400.5 582.5,-400.5 582.5,-400.5 576.5,-400.5 570.5,-394.5 570.5,-388.5 570.5,-388.5 570.5,-328.5 570.5,-328.5 570.5,-322.5 576.5,-316.5 582.5,-316.5"/>
<text text-anchor="middle" x="625.5" y="-385.3" font-family="Times,serif" font-size="14.00">0</text>
<polyline fill="none" stroke="black" points="570.5,-377.5 680.5,-377.5 "/>
<text text-anchor="middle" x="625.5" y="-362.3" font-family="Times,serif" font-size="14.00">ipu2_ic_prp</text>
<text text-anchor="middle" x="625.5" y="-347.3" font-family="Times,serif" font-size="14.00">/dev/v4l&#45;subdev8</text>
<polyline fill="none" stroke="black" points="570.5,-339.5 680.5,-339.5 "/>
<text text-anchor="middle" x="598" y="-324.3" font-family="Times,serif" font-size="14.00">1</text>
<polyline fill="none" stroke="black" points="625.5,-316.5 625.5,-339.5 "/>
<text text-anchor="middle" x="653" y="-324.3" font-family="Times,serif" font-size="14.00">2</text>
</g>
<!-- n0000003d&#45;&gt;n0000004b -->
<g id="edge13" class="edge">
<title>n0000003d:port1&#45;&gt;n0000004b:port0</title>
<path fill="none" stroke="black" stroke-dasharray="5,2" d="M439.5,-558C439.5,-541.39 431.74,-538.45 429.5,-522 424.4,-484.57 407.49,-467.71 429.5,-437 446.92,-412.7 521.39,-393.28 559.4,-389.99"/>
<polygon fill="black" stroke="black" points="559.68,-393.48 569.5,-389.5 559.34,-386.49 559.68,-393.48"/>
</g>
<!-- n00000047 -->
<g id="node14" class="node">
<title>n00000047</title>
<path fill="green" stroke="black" d="M582.5,-437.5C582.5,-437.5 668.5,-437.5 668.5,-437.5 674.5,-437.5 680.5,-443.5 680.5,-449.5 680.5,-449.5 680.5,-509.5 680.5,-509.5 680.5,-515.5 674.5,-521.5 668.5,-521.5 668.5,-521.5 582.5,-521.5 582.5,-521.5 576.5,-521.5 570.5,-515.5 570.5,-509.5 570.5,-509.5 570.5,-449.5 570.5,-449.5 570.5,-443.5 576.5,-437.5 582.5,-437.5"/>
<text text-anchor="middle" x="598" y="-506.3" font-family="Times,serif" font-size="14.00">0</text>
<polyline fill="none" stroke="black" points="625.5,-498.5 625.5,-521.5 "/>
<text text-anchor="middle" x="653" y="-506.3" font-family="Times,serif" font-size="14.00">1</text>
<polyline fill="none" stroke="black" points="570.5,-498.5 680.5,-498.5 "/>
<text text-anchor="middle" x="625.5" y="-483.3" font-family="Times,serif" font-size="14.00">ipu2_vdic</text>
<text text-anchor="middle" x="625.5" y="-468.3" font-family="Times,serif" font-size="14.00">/dev/v4l&#45;subdev7</text>
<polyline fill="none" stroke="black" points="570.5,-460.5 680.5,-460.5 "/>
<text text-anchor="middle" x="625.5" y="-445.3" font-family="Times,serif" font-size="14.00">2</text>
</g>
<!-- n0000003d&#45;&gt;n00000047 -->
<g id="edge14" class="edge">
<title>n0000003d:port1&#45;&gt;n00000047:port0</title>
<path fill="none" stroke="black" stroke-dasharray="5,2" d="M439.5,-558C439.5,-501.89 514.13,-553.59 560.5,-522 561.84,-521.09 562.67,-519.91 563.26,-518.66"/>
<polygon fill="black" stroke="black" points="566.2,-520.57 569.5,-510.5 560.64,-516.32 566.2,-520.57"/>
</g>
<!-- n0000004f -->
<g id="node15" class="node">
<title>n0000004f</title>
<path fill="green" stroke="black" d="M512.5,-195.5C512.5,-195.5 598.5,-195.5 598.5,-195.5 604.5,-195.5 610.5,-201.5 610.5,-207.5 610.5,-207.5 610.5,-267.5 610.5,-267.5 610.5,-273.5 604.5,-279.5 598.5,-279.5 598.5,-279.5 512.5,-279.5 512.5,-279.5 506.5,-279.5 500.5,-273.5 500.5,-267.5 500.5,-267.5 500.5,-207.5 500.5,-207.5 500.5,-201.5 506.5,-195.5 512.5,-195.5"/>
<text text-anchor="middle" x="555.5" y="-264.3" font-family="Times,serif" font-size="14.00">0</text>
<polyline fill="none" stroke="black" points="500.5,-256.5 610.5,-256.5 "/>
<text text-anchor="middle" x="555.5" y="-241.3" font-family="Times,serif" font-size="14.00">ipu2_ic_prpenc</text>
<text text-anchor="middle" x="555.5" y="-226.3" font-family="Times,serif" font-size="14.00">/dev/v4l&#45;subdev9</text>
<polyline fill="none" stroke="black" points="500.5,-218.5 610.5,-218.5 "/>
<text text-anchor="middle" x="555.5" y="-203.3" font-family="Times,serif" font-size="14.00">1</text>
</g>
<!-- n0000004b&#45;&gt;n0000004f -->
<g id="edge16" class="edge">
<title>n0000004b:port1&#45;&gt;n0000004f:port0</title>
<path fill="none" stroke="black" stroke-dasharray="5,2" d="M597.5,-316C597.5,-301.73 612.64,-285.99 617.29,-276.69"/>
<polygon fill="black" stroke="black" points="620.13,-274.65 611.5,-268.5 614.41,-278.69 620.13,-274.65"/>
</g>
<!-- n00000058 -->
<g id="node16" class="node">
<title>n00000058</title>
<path fill="green" stroke="black" d="M648,-195.5C648,-195.5 741,-195.5 741,-195.5 747,-195.5 753,-201.5 753,-207.5 753,-207.5 753,-267.5 753,-267.5 753,-273.5 747,-279.5 741,-279.5 741,-279.5 648,-279.5 648,-279.5 642,-279.5 636,-273.5 636,-267.5 636,-267.5 636,-207.5 636,-207.5 636,-201.5 642,-195.5 648,-195.5"/>
<text text-anchor="middle" x="694.5" y="-264.3" font-family="Times,serif" font-size="14.00">0</text>
<polyline fill="none" stroke="black" points="636,-256.5 753,-256.5 "/>
<text text-anchor="middle" x="694.5" y="-241.3" font-family="Times,serif" font-size="14.00">ipu2_ic_prpvf</text>
<text text-anchor="middle" x="694.5" y="-226.3" font-family="Times,serif" font-size="14.00">/dev/v4l&#45;subdev10</text>
<polyline fill="none" stroke="black" points="636,-218.5 753,-218.5 "/>
<text text-anchor="middle" x="694.5" y="-203.3" font-family="Times,serif" font-size="14.00">1</text>
</g>
<!-- n0000004b&#45;&gt;n00000058 -->
<g id="edge17" class="edge">
<title>n0000004b:port2&#45;&gt;n00000058:port0</title>
<path fill="none" stroke="black" stroke-dasharray="5,2" d="M653.5,-316C653.5,-301.97 637.6,-287.16 630.77,-277.88"/>
<polygon fill="black" stroke="black" points="634.06,-279.09 634.5,-268.5 627.56,-276.5 634.06,-279.09"/>
</g>
<!-- n00000047&#45;&gt;n0000004b -->
<g id="edge15" class="edge">
<title>n00000047:port2&#45;&gt;n0000004b:port0</title>
<path fill="none" stroke="black" stroke-dasharray="5,2" d="M625.5,-437C625.5,-425 625.5,-419.75 625.5,-411.12"/>
<polygon fill="black" stroke="black" points="629,-411 625.5,-401 622,-411 629,-411"/>
</g>
<!-- n00000052 -->
<g id="node17" class="node">
<title>n00000052</title>
<polygon fill="yellow" stroke="black" points="620.5,-135.5 476.5,-135.5 476.5,-97.5 620.5,-97.5 620.5,-135.5"/>
<text text-anchor="middle" x="548.5" y="-120.3" font-family="Times,serif" font-size="14.00">ipu2_ic_prpenc capture</text>
<text text-anchor="middle" x="548.5" y="-105.3" font-family="Times,serif" font-size="14.00">/dev/video5</text>
</g>
<!-- n0000004f&#45;&gt;n00000052 -->
<g id="edge18" class="edge">
<title>n0000004f:port1&#45;&gt;n00000052</title>
<path fill="none" stroke="black" stroke-dasharray="5,2" d="M555.5,-195C555.5,-178.58 553.92,-160.29 552.27,-145.6"/>
<polygon fill="black" stroke="black" points="555.73,-145.13 551.07,-135.62 548.78,-145.97 555.73,-145.13"/>
</g>
<!-- n0000005b -->
<g id="node18" class="node">
<title>n0000005b</title>
<polygon fill="yellow" stroke="black" points="776,-135.5 639,-135.5 639,-97.5 776,-97.5 776,-135.5"/>
<text text-anchor="middle" x="707.5" y="-120.3" font-family="Times,serif" font-size="14.00">ipu2_ic_prpvf capture</text>
<text text-anchor="middle" x="707.5" y="-105.3" font-family="Times,serif" font-size="14.00">/dev/video6</text>
</g>
<!-- n00000058&#45;&gt;n0000005b -->
<g id="edge19" class="edge">
<title>n00000058:port1&#45;&gt;n0000005b</title>
<path fill="none" stroke="black" stroke-dasharray="5,2" d="M694.5,-195C694.5,-178.42 697.43,-160.12 700.51,-145.47"/>
<polygon fill="black" stroke="black" points="703.96,-146.04 702.73,-135.52 697.13,-144.52 703.96,-146.04"/>
</g>
<!-- n0000006b -->
<g id="node19" class="node">
<title>n0000006b</title>
<path fill="green" stroke="black" d="M692,-558.5C692,-558.5 785,-558.5 785,-558.5 791,-558.5 797,-564.5 797,-570.5 797,-570.5 797,-630.5 797,-630.5 797,-636.5 791,-642.5 785,-642.5 785,-642.5 692,-642.5 692,-642.5 686,-642.5 680,-636.5 680,-630.5 680,-630.5 680,-570.5 680,-570.5 680,-564.5 686,-558.5 692,-558.5"/>
<text text-anchor="middle" x="738.5" y="-627.3" font-family="Times,serif" font-size="14.00">0</text>
<polyline fill="none" stroke="black" points="680,-619.5 797,-619.5 "/>
<text text-anchor="middle" x="738.5" y="-604.3" font-family="Times,serif" font-size="14.00">ipu2_csi1</text>
<text text-anchor="middle" x="738.5" y="-589.3" font-family="Times,serif" font-size="14.00">/dev/v4l&#45;subdev11</text>
<polyline fill="none" stroke="black" points="680,-581.5 797,-581.5 "/>
<text text-anchor="middle" x="709" y="-566.3" font-family="Times,serif" font-size="14.00">1</text>
<polyline fill="none" stroke="black" points="738,-558.5 738,-581.5 "/>
<text text-anchor="middle" x="767.5" y="-566.3" font-family="Times,serif" font-size="14.00">2</text>
</g>
<!-- n0000006b&#45;&gt;n0000004b -->
<g id="edge21" class="edge">
<title>n0000006b:port1&#45;&gt;n0000004b:port0</title>
<path fill="none" stroke="black" stroke-dasharray="5,2" d="M708.5,-558C708.5,-485.86 752.69,-398.51 691.74,-390.15"/>
<polygon fill="black" stroke="black" points="691.7,-386.64 681.5,-389.5 691.26,-393.63 691.7,-386.64"/>
</g>
<!-- n0000006b&#45;&gt;n00000047 -->
<g id="edge22" class="edge">
<title>n0000006b:port1&#45;&gt;n00000047:port0</title>
<path fill="none" stroke="black" stroke-dasharray="5,2" d="M678.5,-569.5C640.35,-569.5 604.27,-564.68 598.35,-531.98"/>
<polygon fill="black" stroke="black" points="601.83,-531.67 597.5,-522 594.86,-532.26 601.83,-531.67"/>
</g>
<!-- n0000006f -->
<g id="node20" class="node">
<title>n0000006f</title>
<polygon fill="yellow" stroke="black" points="850,-498.5 737,-498.5 737,-460.5 850,-460.5 850,-498.5"/>
<text text-anchor="middle" x="793.5" y="-483.3" font-family="Times,serif" font-size="14.00">ipu2_csi1 capture</text>
<text text-anchor="middle" x="793.5" y="-468.3" font-family="Times,serif" font-size="14.00">/dev/video7</text>
</g>
<!-- n0000006b&#45;&gt;n0000006f -->
<g id="edge20" class="edge">
<title>n0000006b:port2&#45;&gt;n0000006f</title>
<path fill="none" stroke="black" stroke-dasharray="5,2" d="M767.5,-558C767.5,-540.82 773.31,-522.56 779.44,-508.08"/>
<polygon fill="black" stroke="black" points="782.75,-509.27 783.67,-498.72 776.37,-506.39 782.75,-509.27"/>
</g>
<!-- n00000079 -->
<g id="node21" class="node">
<title>n00000079</title>
<path fill="green" stroke="black" d="M12,-558.5C12,-558.5 105,-558.5 105,-558.5 111,-558.5 117,-564.5 117,-570.5 117,-570.5 117,-630.5 117,-630.5 117,-636.5 111,-642.5 105,-642.5 105,-642.5 12,-642.5 12,-642.5 6,-642.5 0,-636.5 0,-630.5 0,-630.5 0,-570.5 0,-570.5 0,-564.5 6,-558.5 12,-558.5"/>
<text text-anchor="middle" x="29" y="-627.3" font-family="Times,serif" font-size="14.00">0</text>
<polyline fill="none" stroke="black" points="58,-619.5 58,-642.5 "/>
<text text-anchor="middle" x="87.5" y="-627.3" font-family="Times,serif" font-size="14.00">1</text>
<polyline fill="none" stroke="black" points="0,-619.5 117,-619.5 "/>
<text text-anchor="middle" x="58.5" y="-604.3" font-family="Times,serif" font-size="14.00">ipu1_csi0_mux</text>
<text text-anchor="middle" x="58.5" y="-589.3" font-family="Times,serif" font-size="14.00">/dev/v4l&#45;subdev12</text>
<polyline fill="none" stroke="black" points="0,-581.5 117,-581.5 "/>
<text text-anchor="middle" x="58.5" y="-566.3" font-family="Times,serif" font-size="14.00">2</text>
</g>
<!-- n00000079&#45;&gt;n00000001 -->
<g id="edge23" class="edge">
<title>n00000079:port2&#45;&gt;n00000001:port0</title>
<path fill="none" stroke="black" stroke-dasharray="5,2" d="M58.5,-558C58.5,-546 58.5,-540.75 58.5,-532.12"/>
<polygon fill="black" stroke="black" points="62,-532 58.5,-522 55,-532 62,-532"/>
</g>
<!-- n0000007d -->
<g id="node22" class="node">
<title>n0000007d</title>
<path fill="green" stroke="black" d="M692,-679.5C692,-679.5 785,-679.5 785,-679.5 791,-679.5 797,-685.5 797,-691.5 797,-691.5 797,-751.5 797,-751.5 797,-757.5 791,-763.5 785,-763.5 785,-763.5 692,-763.5 692,-763.5 686,-763.5 680,-757.5 680,-751.5 680,-751.5 680,-691.5 680,-691.5 680,-685.5 686,-679.5 692,-679.5"/>
<text text-anchor="middle" x="709" y="-748.3" font-family="Times,serif" font-size="14.00">0</text>
<polyline fill="none" stroke="black" points="738,-740.5 738,-763.5 "/>
<text text-anchor="middle" x="767.5" y="-748.3" font-family="Times,serif" font-size="14.00">1</text>
<polyline fill="none" stroke="black" points="680,-740.5 797,-740.5 "/>
<text text-anchor="middle" x="738.5" y="-725.3" font-family="Times,serif" font-size="14.00">ipu2_csi1_mux</text>
<text text-anchor="middle" x="738.5" y="-710.3" font-family="Times,serif" font-size="14.00">/dev/v4l&#45;subdev13</text>
<polyline fill="none" stroke="black" points="680,-702.5 797,-702.5 "/>
<text text-anchor="middle" x="738.5" y="-687.3" font-family="Times,serif" font-size="14.00">2</text>
</g>
<!-- n0000007d&#45;&gt;n0000006b -->
<g id="edge24" class="edge">
<title>n0000007d:port2&#45;&gt;n0000006b:port0</title>
<path fill="none" stroke="black" stroke-dasharray="5,2" d="M738.5,-679C738.5,-667 738.5,-661.75 738.5,-653.12"/>
<polygon fill="black" stroke="black" points="742,-653 738.5,-643 735,-653 742,-653"/>
</g>
<!-- n00000081 -->
<g id="node23" class="node">
<title>n00000081</title>
<path fill="green" stroke="black" d="M41,-679.5C41,-679.5 134,-679.5 134,-679.5 140,-679.5 146,-685.5 146,-691.5 146,-691.5 146,-751.5 146,-751.5 146,-757.5 140,-763.5 134,-763.5 134,-763.5 41,-763.5 41,-763.5 35,-763.5 29,-757.5 29,-751.5 29,-751.5 29,-691.5 29,-691.5 29,-685.5 35,-679.5 41,-679.5"/>
<text text-anchor="middle" x="87.5" y="-748.3" font-family="Times,serif" font-size="14.00"> </text>
<polyline fill="none" stroke="black" points="29,-740.5 146,-740.5 "/>
<text text-anchor="middle" x="87.5" y="-725.3" font-family="Times,serif" font-size="14.00">adv7180 3&#45;0021</text>
<text text-anchor="middle" x="87.5" y="-710.3" font-family="Times,serif" font-size="14.00">/dev/v4l&#45;subdev14</text>
<polyline fill="none" stroke="black" points="29,-702.5 146,-702.5 "/>
<text text-anchor="middle" x="87.5" y="-687.3" font-family="Times,serif" font-size="14.00">0</text>
</g>
<!-- n00000081&#45;&gt;n00000079 -->
<g id="edge25" class="edge">
<title>n00000081:port0&#45;&gt;n00000079:port1</title>
<path fill="none" stroke="black" stroke-dasharray="5,2" d="M87.5,-679C87.5,-667 87.5,-661.75 87.5,-653.12"/>
<polygon fill="black" stroke="black" points="91,-653 87.5,-643 84,-653 91,-653"/>
</g>
</g>
</svg>
