<?xml version="1.0" encoding="UTF-8" standalone="no"?>
<!DOCTYPE svg PUBLIC "-//W3C//DTD SVG 1.1//EN"
 "http://www.w3.org/Graphics/SVG/1.1/DTD/svg11.dtd">
<!-- Generated by graphviz version 2.43.0 (0)
 -->
<!-- Title: layer_data_flow Pages: 1 -->
<svg width="365pt" height="98pt"
 viewBox="0.00 0.00 365.00 98.00" xmlns="http://www.w3.org/2000/svg" xmlns:xlink="http://www.w3.org/1999/xlink">
<g id="graph0" class="graph" transform="scale(1 1) rotate(0) translate(4 94)">
<title>layer_data_flow</title>
<polygon fill="white" stroke="transparent" points="-4,4 -4,-94 361,-94 361,4 -4,4"/>
<!-- Layer&#45;0/1 -->
<g id="node1" class="node">
<title>Layer&#45;0/1</title>
<polygon fill="none" stroke="black" points="70,-90 0,-90 0,-54 70,-54 70,-90"/>
<text text-anchor="middle" x="35" y="-68.3" font-family="Times,serif" font-size="14.00">Layer&#45;0/1</text>
</g>
<!-- Scaler&#45;0 -->
<g id="node2" class="node">
<title>Scaler&#45;0</title>
<polygon fill="none" stroke="black" points="168,-90 106,-90 106,-54 168,-54 168,-90"/>
<text text-anchor="middle" x="137" y="-68.3" font-family="Times,serif" font-size="14.00">Scaler&#45;0</text>
</g>
<!-- Layer&#45;0/1&#45;&gt;Scaler&#45;0 -->
<g id="edge1" class="edge">
<title>Layer&#45;0/1&#45;&gt;Scaler&#45;0</title>
<path fill="none" stroke="black" d="M70.13,-72C78.34,-72 87.18,-72 95.64,-72"/>
<polygon fill="black" stroke="black" points="95.7,-75.5 105.7,-72 95.7,-68.5 95.7,-75.5"/>
</g>
<!-- Merger -->
<g id="node3" class="node">
<title>Merger</title>
<polygon fill="none" stroke="black" points="261,-63 204,-63 204,-27 261,-27 261,-63"/>
<text text-anchor="middle" x="232.5" y="-41.3" font-family="Times,serif" font-size="14.00">Merger</text>
</g>
<!-- Scaler&#45;0&#45;&gt;Merger -->
<g id="edge2" class="edge">
<title>Scaler&#45;0&#45;&gt;Merger</title>
<path fill="none" stroke="black" d="M168.1,-63.31C176.39,-60.92 185.48,-58.29 194.12,-55.79"/>
<polygon fill="black" stroke="black" points="195.36,-59.08 203.99,-52.94 193.41,-52.36 195.36,-59.08"/>
</g>
<!-- Compiz -->
<g id="node6" class="node">
<title>Compiz</title>
<polygon fill="none" stroke="black" points="357,-63 297,-63 297,-27 357,-27 357,-63"/>
<text text-anchor="middle" x="327" y="-41.3" font-family="Times,serif" font-size="14.00">Compiz</text>
</g>
<!-- Merger&#45;&gt;Compiz -->
<g id="edge5" class="edge">
<title>Merger&#45;&gt;Compiz</title>
<path fill="none" stroke="black" d="M261,-45C269.03,-45 277.96,-45 286.57,-45"/>
<polygon fill="black" stroke="black" points="286.83,-48.5 296.83,-45 286.83,-41.5 286.83,-48.5"/>
</g>
<!-- Layer&#45;2/3 -->
<g id="node4" class="node">
<title>Layer&#45;2/3</title>
<polygon fill="none" stroke="black" points="70,-36 0,-36 0,0 70,0 70,-36"/>
<text text-anchor="middle" x="35" y="-14.3" font-family="Times,serif" font-size="14.00">Layer&#45;2/3</text>
</g>
<!-- Scaler&#45;1 -->
<g id="node5" class="node">
<title>Scaler&#45;1</title>
<polygon fill="none" stroke="black" points="168,-36 106,-36 106,0 168,0 168,-36"/>
<text text-anchor="middle" x="137" y="-14.3" font-family="Times,serif" font-size="14.00">Scaler&#45;1</text>
</g>
<!-- Layer&#45;2/3&#45;&gt;Scaler&#45;1 -->
<g id="edge3" class="edge">
<title>Layer&#45;2/3&#45;&gt;Scaler&#45;1</title>
<path fill="none" stroke="black" d="M70.13,-18C78.34,-18 87.18,-18 95.64,-18"/>
<polygon fill="black" stroke="black" points="95.7,-21.5 105.7,-18 95.7,-14.5 95.7,-21.5"/>
</g>
<!-- Scaler&#45;1&#45;&gt;Merger -->
<g id="edge4" class="edge">
<title>Scaler&#45;1&#45;&gt;Merger</title>
<path fill="none" stroke="black" d="M168.1,-26.69C176.39,-29.08 185.48,-31.71 194.12,-34.21"/>
<polygon fill="black" stroke="black" points="193.41,-37.64 203.99,-37.06 195.36,-30.92 193.41,-37.64"/>
</g>
</g>
</svg>
