<?xml version="1.0" encoding="UTF-8" standalone="no"?>
<!DOCTYPE svg PUBLIC "-//W3C//DTD SVG 1.1//EN"
 "http://www.w3.org/Graphics/SVG/1.1/DTD/svg11.dtd">
<!-- Generated by graphviz version 2.38.0 (20140413.2041)
 -->
<!-- Title: KMS Pages: 1 -->
<svg width="375pt" height="409pt"
 viewBox="0.00 0.00 375.00 409.00" xmlns="http://www.w3.org/2000/svg" xmlns:xlink="http://www.w3.org/1999/xlink">
<g id="graph0" class="graph" transform="scale(1 1) rotate(0) translate(4 405)">
<title>KMS</title>
<polygon fill="white" stroke="none" points="-4,4 -4,-405 371,-405 371,4 -4,4"/>
<g id="clust1" class="cluster"><title>cluster_static</title>
<polygon fill="none" stroke="black" stroke-dasharray="5,2" points="19,-91 19,-310 257,-310 257,-91 19,-91"/>
<text text-anchor="middle" x="138" y="-294.8" font-family="Times,serif" font-size="14.00">Static Objects</text>
</g>
<g id="clust2" class="cluster"><title>cluster_user_created</title>
<polygon fill="none" stroke="black" stroke-dasharray="5,2" points="8,-318 8,-393 359,-393 359,-318 8,-318"/>
<text text-anchor="middle" x="183.5" y="-377.8" font-family="Times,serif" font-size="14.00">Userspace&#45;Created</text>
</g>
<g id="clust3" class="cluster"><title>cluster_connector</title>
<polygon fill="none" stroke="black" stroke-dasharray="5,2" points="8,-8 8,-83 268,-83 268,-8 8,-8"/>
<text text-anchor="middle" x="138" y="-67.8" font-family="Times,serif" font-size="14.00">Hotpluggable</text>
</g>
<!-- drm_plane A -->
<g id="node1" class="node"><title>drm_plane A</title>
<polygon fill="lightgrey" stroke="black" points="248.5,-279 159.5,-279 159.5,-243 248.5,-243 248.5,-279"/>
<text text-anchor="middle" x="204" y="-257.3" font-family="Times,serif" font-size="14.00">drm_plane A</text>
</g>
<!-- drm_crtc -->
<g id="node2" class="node"><title>drm_crtc</title>
<polygon fill="lightgrey" stroke="black" points="180,-207 114,-207 114,-171 180,-171 180,-207"/>
<text text-anchor="middle" x="147" y="-185.3" font-family="Times,serif" font-size="14.00">drm_crtc</text>
</g>
<!-- drm_plane A&#45;&gt;drm_crtc -->
<g id="edge1" class="edge"><title>drm_plane A&#45;&gt;drm_crtc</title>
<path fill="none" stroke="black" d="M189.91,-242.697C183.077,-234.305 174.743,-224.07 167.244,-214.861"/>
<polygon fill="black" stroke="black" points="169.956,-212.649 160.928,-207.104 164.528,-217.069 169.956,-212.649"/>
</g>
<!-- drm_encoder A -->
<g id="node4" class="node"><title>drm_encoder A</title>
<polygon fill="lightgrey" stroke="black" points="129,-135 27,-135 27,-99 129,-99 129,-135"/>
<text text-anchor="middle" x="78" y="-113.3" font-family="Times,serif" font-size="14.00">drm_encoder A</text>
</g>
<!-- drm_crtc&#45;&gt;drm_encoder A -->
<g id="edge3" class="edge"><title>drm_crtc&#45;&gt;drm_encoder A</title>
<path fill="none" stroke="black" d="M129.944,-170.697C121.505,-162.135 111.175,-151.656 101.957,-142.304"/>
<polygon fill="black" stroke="black" points="104.373,-139.769 94.86,-135.104 99.3874,-144.683 104.373,-139.769"/>
</g>
<!-- drm_encoder B -->
<g id="node5" class="node"><title>drm_encoder B</title>
<polygon fill="lightgrey" stroke="black" points="248.5,-135 147.5,-135 147.5,-99 248.5,-99 248.5,-135"/>
<text text-anchor="middle" x="198" y="-113.3" font-family="Times,serif" font-size="14.00">drm_encoder B</text>
</g>
<!-- drm_crtc&#45;&gt;drm_encoder B -->
<g id="edge4" class="edge"><title>drm_crtc&#45;&gt;drm_encoder B</title>
<path fill="none" stroke="black" d="M159.607,-170.697C165.597,-162.474 172.876,-152.483 179.479,-143.421"/>
<polygon fill="black" stroke="black" points="182.478,-145.248 185.538,-135.104 176.821,-141.126 182.478,-145.248"/>
</g>
<!-- drm_plane B -->
<g id="node3" class="node"><title>drm_plane B</title>
<polygon fill="lightgrey" stroke="black" points="140,-279 52,-279 52,-243 140,-243 140,-279"/>
<text text-anchor="middle" x="96" y="-257.3" font-family="Times,serif" font-size="14.00">drm_plane B</text>
</g>
<!-- drm_plane B&#45;&gt;drm_crtc -->
<g id="edge2" class="edge"><title>drm_plane B&#45;&gt;drm_crtc</title>
<path fill="none" stroke="black" d="M108.607,-242.697C114.597,-234.474 121.876,-224.483 128.479,-215.421"/>
<polygon fill="black" stroke="black" points="131.478,-217.248 134.538,-207.104 125.821,-213.126 131.478,-217.248"/>
</g>
<!-- drm_connector A -->
<g id="node8" class="node"><title>drm_connector A</title>
<polygon fill="none" stroke="black" points="129.5,-52 16.5,-52 16.5,-16 129.5,-16 129.5,-52"/>
<text text-anchor="middle" x="73" y="-30.3" font-family="Times,serif" font-size="14.00">drm_connector A</text>
</g>
<!-- drm_encoder A&#45;&gt;drm_connector A -->
<g id="edge7" class="edge"><title>drm_encoder A&#45;&gt;drm_connector A</title>
<path fill="none" stroke="black" d="M76.9396,-98.822C76.2834,-88.1903 75.4263,-74.306 74.6792,-62.2035"/>
<polygon fill="black" stroke="black" points="78.1684,-61.9186 74.0588,-52.1533 71.1817,-62.3499 78.1684,-61.9186"/>
</g>
<!-- drm_connector B -->
<g id="node9" class="node"><title>drm_connector B</title>
<polygon fill="none" stroke="black" points="260,-52 148,-52 148,-16 260,-16 260,-52"/>
<text text-anchor="middle" x="204" y="-30.3" font-family="Times,serif" font-size="14.00">drm_connector B</text>
</g>
<!-- drm_encoder B&#45;&gt;drm_connector B -->
<g id="edge8" class="edge"><title>drm_encoder B&#45;&gt;drm_connector B</title>
<path fill="none" stroke="black" d="M199.272,-98.822C200.06,-88.1903 201.088,-74.306 201.985,-62.2035"/>
<polygon fill="black" stroke="black" points="205.481,-62.3845 202.729,-52.1533 198.5,-61.8673 205.481,-62.3845"/>
</g>
<!-- drm_framebuffer 1 -->
<g id="node6" class="node"><title>drm_framebuffer 1</title>
<ellipse fill="none" stroke="black" cx="272" cy="-344" rx="79.0865" ry="18"/>
<text text-anchor="middle" x="272" y="-340.3" font-family="Times,serif" font-size="14.00">drm_framebuffer 1</text>
</g>
<!-- drm_framebuffer 1&#45;&gt;drm_plane A -->
<g id="edge5" class="edge"><title>drm_framebuffer 1&#45;&gt;drm_plane A</title>
<path fill="none" stroke="black" d="M257.91,-326.217C248.401,-314.889 235.683,-299.74 224.988,-287"/>
<polygon fill="black" stroke="black" points="227.416,-284.449 218.306,-279.04 222.055,-288.95 227.416,-284.449"/>
</g>
<!-- drm_framebuffer 2 -->
<g id="node7" class="node"><title>drm_framebuffer 2</title>
<ellipse fill="none" stroke="black" cx="95" cy="-344" rx="79.0865" ry="18"/>
<text text-anchor="middle" x="95" y="-340.3" font-family="Times,serif" font-size="14.00">drm_framebuffer 2</text>
</g>
<!-- drm_framebuffer 2&#45;&gt;drm_plane B -->
<g id="edge6" class="edge"><title>drm_framebuffer 2&#45;&gt;drm_plane B</title>
<path fill="none" stroke="black" d="M95.2121,-325.822C95.3433,-315.19 95.5147,-301.306 95.6642,-289.204"/>
<polygon fill="black" stroke="black" points="99.1644,-289.196 95.7882,-279.153 92.165,-289.109 99.1644,-289.196"/>
</g>
</g>
</svg>
