<?xml version="1.0" encoding="UTF-8" standalone="no"?>
<!DOCTYPE svg PUBLIC "-//W3C//DTD SVG 1.1//EN"
 "http://www.w3.org/Graphics/SVG/1.1/DTD/svg11.dtd">
<!-- Generated by graphviz version 2.43.0 (0)
 -->
<!-- Title: conn_states Pages: 1 -->
<svg width="597pt" height="465pt"
 viewBox="0.00 0.00 596.60 465.00" xmlns="http://www.w3.org/2000/svg" xmlns:xlink="http://www.w3.org/1999/xlink">
<g id="graph0" class="graph" transform="scale(1 1) rotate(0) translate(4 461)">
<title>conn_states</title>
<polygon fill="white" stroke="transparent" points="-4,4 -4,-461 592.6,-461 592.6,4 -4,4"/>
<!-- StandAllone -->
<g id="node1" class="node">
<title>StandAllone</title>
<ellipse fill="none" stroke="black" cx="54.6" cy="-439" rx="54.69" ry="18"/>
<text text-anchor="middle" x="54.6" y="-435.3" font-family="Times,serif" font-size="14.00">StandAllone</text>
</g>
<!-- WFConnection -->
<g id="node2" class="node">
<title>WFConnection</title>
<ellipse fill="none" stroke="black" cx="266.6" cy="-352" rx="64.99" ry="18"/>
<text text-anchor="middle" x="266.6" y="-348.3" font-family="Times,serif" font-size="14.00">WFConnection</text>
</g>
<!-- StandAllone&#45;&gt;WFConnection -->
<g id="edge1" class="edge">
<title>StandAllone&#45;&gt;WFConnection</title>
<path fill="none" stroke="black" d="M88.19,-424.53C124.21,-410.09 181.61,-387.07 221.54,-371.06"/>
<polygon fill="black" stroke="black" points="223.06,-374.23 231.04,-367.26 220.45,-367.73 223.06,-374.23"/>
<text text-anchor="middle" x="213.1" y="-391.8" font-family="Times,serif" font-size="14.00">ioctl_set_net()</text>
</g>
<!-- Unconnected -->
<g id="node3" class="node">
<title>Unconnected</title>
<ellipse fill="none" stroke="black" cx="246.6" cy="-265" rx="57.39" ry="18"/>
<text text-anchor="middle" x="246.6" y="-261.3" font-family="Times,serif" font-size="14.00">Unconnected</text>
</g>
<!-- WFConnection&#45;&gt;Unconnected -->
<g id="edge2" class="edge">
<title>WFConnection&#45;&gt;Unconnected</title>
<path fill="none" stroke="black" d="M255.4,-334.24C252.26,-328.67 249.26,-322.28 247.6,-316 245.69,-308.81 244.95,-300.84 244.81,-293.41"/>
<polygon fill="black" stroke="black" points="248.31,-293.45 244.94,-283.4 241.31,-293.36 248.31,-293.45"/>
<text text-anchor="middle" x="291.6" y="-304.8" font-family="Times,serif" font-size="14.00">unable to bind()</text>
</g>
<!-- WFReportParams -->
<g id="node4" class="node">
<title>WFReportParams</title>
<ellipse fill="none" stroke="black" cx="90.6" cy="-265" rx="74.99" ry="18"/>
<text text-anchor="middle" x="90.6" y="-261.3" font-family="Times,serif" font-size="14.00">WFReportParams</text>
</g>
<!-- WFConnection&#45;&gt;WFReportParams -->
<g id="edge3" class="edge">
<title>WFConnection&#45;&gt;WFReportParams</title>
<path fill="none" stroke="black" d="M216.94,-340.22C170.49,-330.11 108.12,-316.47 107.6,-316 100.99,-310.09 96.95,-301.51 94.48,-293.12"/>
<polygon fill="black" stroke="black" points="97.84,-292.13 92.17,-283.18 91.02,-293.71 97.84,-292.13"/>
<text text-anchor="middle" x="174.1" y="-304.8" font-family="Times,serif" font-size="14.00">in connect() after accept</text>
</g>
<!-- WFReportParams&#45;&gt;StandAllone -->
<g id="edge4" class="edge">
<title>WFReportParams&#45;&gt;StandAllone</title>
<path fill="none" stroke="black" d="M76.11,-282.84C65.92,-295.84 53.15,-314.81 47.6,-334 40.23,-359.43 43.57,-389.75 47.78,-411.08"/>
<polygon fill="black" stroke="black" points="44.4,-412.02 49.95,-421.05 51.24,-410.53 44.4,-412.02"/>
<text text-anchor="middle" x="120.1" y="-348.3" font-family="Times,serif" font-size="14.00">checks in receive_param()</text>
</g>
<!-- Connected -->
<g id="node5" class="node">
<title>Connected</title>
<ellipse fill="none" stroke="black" cx="291.6" cy="-18" rx="48.19" ry="18"/>
<text text-anchor="middle" x="291.6" y="-14.3" font-family="Times,serif" font-size="14.00">Connected</text>
</g>
<!-- WFReportParams&#45;&gt;Connected -->
<g id="edge5" class="edge">
<title>WFReportParams&#45;&gt;Connected</title>
<path fill="none" stroke="black" d="M146.75,-253.11C162.11,-247.9 177.77,-240.24 189.6,-229 225.13,-195.22 210.32,-171.17 231.6,-127 245.46,-98.21 263.5,-66.36 276.17,-44.76"/>
<polygon fill="black" stroke="black" points="279.34,-46.27 281.41,-35.88 273.31,-42.72 279.34,-46.27"/>
<text text-anchor="middle" x="283.6" y="-130.8" font-family="Times,serif" font-size="14.00">in receive_param()</text>
</g>
<!-- WFBitMapS -->
<g id="node6" class="node">
<title>WFBitMapS</title>
<ellipse fill="none" stroke="black" cx="87.6" cy="-178" rx="56.59" ry="18"/>
<text text-anchor="middle" x="87.6" y="-174.3" font-family="Times,serif" font-size="14.00">WFBitMapS</text>
</g>
<!-- WFReportParams&#45;&gt;WFBitMapS -->
<g id="edge6" class="edge">
<title>WFReportParams&#45;&gt;WFBitMapS</title>
<path fill="none" stroke="black" d="M89.99,-246.8C89.58,-235.16 89.03,-219.55 88.56,-206.24"/>
<polygon fill="black" stroke="black" points="92.05,-206.05 88.2,-196.18 85.06,-206.29 92.05,-206.05"/>
<text text-anchor="middle" x="138.6" y="-217.8" font-family="Times,serif" font-size="14.00">sync_handshake()</text>
</g>
<!-- WFBitMapT -->
<g id="node7" class="node">
<title>WFBitMapT</title>
<ellipse fill="none" stroke="black" cx="527.6" cy="-178" rx="57.39" ry="18"/>
<text text-anchor="middle" x="527.6" y="-174.3" font-family="Times,serif" font-size="14.00">WFBitMapT</text>
</g>
<!-- WFReportParams&#45;&gt;WFBitMapT -->
<g id="edge7" class="edge">
<title>WFReportParams&#45;&gt;WFBitMapT</title>
<path fill="none" stroke="black" d="M147.72,-253.17C158.63,-251.12 169.97,-248.99 180.6,-247 303.22,-224.09 334.56,-221.87 456.6,-196 462.31,-194.79 468.28,-193.46 474.21,-192.1"/>
<polygon fill="black" stroke="black" points="475.18,-195.47 484.12,-189.79 473.59,-188.65 475.18,-195.47"/>
<text text-anchor="middle" x="414.6" y="-217.8" font-family="Times,serif" font-size="14.00">sync_handshake()</text>
</g>
<!-- Connected&#45;&gt;WFConnection -->
<g id="edge16" class="edge">
<title>Connected&#45;&gt;WFConnection</title>
<path fill="none" stroke="black" d="M314.19,-33.93C330.47,-46.67 349.6,-66.6 349.6,-90 349.6,-266 349.6,-266 349.6,-266 349.6,-289.08 350.23,-298.16 335.6,-316 330.08,-322.72 322.95,-328.27 315.37,-332.83"/>
<polygon fill="black" stroke="black" points="313.46,-329.88 306.33,-337.72 316.79,-336.04 313.46,-329.88"/>
<text text-anchor="middle" x="401.1" y="-174.3" font-family="Times,serif" font-size="14.00">* on network error</text>
</g>
<!-- SyncSource -->
<g id="node8" class="node">
<title>SyncSource</title>
<ellipse fill="none" stroke="black" cx="104.6" cy="-91" rx="52.79" ry="18"/>
<text text-anchor="middle" x="104.6" y="-87.3" font-family="Times,serif" font-size="14.00">SyncSource</text>
</g>
<!-- WFBitMapS&#45;&gt;SyncSource -->
<g id="edge8" class="edge">
<title>WFBitMapS&#45;&gt;SyncSource</title>
<path fill="none" stroke="black" d="M85.7,-159.66C85.11,-149.94 85.14,-137.66 87.6,-127 88.26,-124.1 89.2,-121.16 90.3,-118.28"/>
<polygon fill="black" stroke="black" points="93.62,-119.43 94.5,-108.87 87.23,-116.58 93.62,-119.43"/>
<text text-anchor="middle" x="134.6" y="-130.8" font-family="Times,serif" font-size="14.00">receive_bitmap()</text>
</g>
<!-- SyncTarget -->
<g id="node9" class="node">
<title>SyncTarget</title>
<ellipse fill="none" stroke="black" cx="453.6" cy="-91" rx="51.19" ry="18"/>
<text text-anchor="middle" x="453.6" y="-87.3" font-family="Times,serif" font-size="14.00">SyncTarget</text>
</g>
<!-- WFBitMapT&#45;&gt;SyncTarget -->
<g id="edge9" class="edge">
<title>WFBitMapT&#45;&gt;SyncTarget</title>
<path fill="none" stroke="black" d="M512.98,-160.21C502.06,-147.67 486.98,-130.35 474.75,-116.3"/>
<polygon fill="black" stroke="black" points="477.14,-113.71 467.93,-108.47 471.86,-118.31 477.14,-113.71"/>
<text text-anchor="middle" x="541.6" y="-130.8" font-family="Times,serif" font-size="14.00">receive_bitmap()</text>
</g>
<!-- SyncSource&#45;&gt;Connected -->
<g id="edge10" class="edge">
<title>SyncSource&#45;&gt;Connected</title>
<path fill="none" stroke="black" d="M135.47,-76.31C151.51,-69.35 171.49,-60.93 189.6,-54 208.18,-46.88 228.92,-39.64 246.82,-33.61"/>
<polygon fill="black" stroke="black" points="248.07,-36.88 256.44,-30.39 245.85,-30.24 248.07,-36.88"/>
</g>
<!-- PausedSyncS -->
<g id="node10" class="node">
<title>PausedSyncS</title>
<ellipse fill="none" stroke="black" cx="104.6" cy="-18" rx="57.69" ry="18"/>
<text text-anchor="middle" x="104.6" y="-14.3" font-family="Times,serif" font-size="14.00">PausedSyncS</text>
</g>
<!-- SyncSource&#45;&gt;PausedSyncS -->
<g id="edge12" class="edge">
<title>SyncSource&#45;&gt;PausedSyncS</title>
<path fill="none" stroke="black" d="M98.72,-72.81C97.88,-64.79 97.64,-55.05 98.02,-46.07"/>
<polygon fill="black" stroke="black" points="101.51,-46.25 98.73,-36.03 94.53,-45.75 101.51,-46.25"/>
</g>
<!-- SyncTarget&#45;&gt;Connected -->
<g id="edge11" class="edge">
<title>SyncTarget&#45;&gt;Connected</title>
<path fill="none" stroke="black" d="M422.74,-76.48C396.6,-65.02 358.96,-48.52 330.7,-36.14"/>
<polygon fill="black" stroke="black" points="332.08,-32.92 321.51,-32.11 329.27,-39.33 332.08,-32.92"/>
</g>
<!-- PausedSyncT -->
<g id="node11" class="node">
<title>PausedSyncT</title>
<ellipse fill="none" stroke="black" cx="453.6" cy="-18" rx="58.49" ry="18"/>
<text text-anchor="middle" x="453.6" y="-14.3" font-family="Times,serif" font-size="14.00">PausedSyncT</text>
</g>
<!-- SyncTarget&#45;&gt;PausedSyncT -->
<g id="edge13" class="edge">
<title>SyncTarget&#45;&gt;PausedSyncT</title>
<path fill="none" stroke="black" d="M447.72,-72.81C446.88,-64.79 446.64,-55.05 447.02,-46.07"/>
<polygon fill="black" stroke="black" points="450.51,-46.25 447.73,-36.03 443.53,-45.75 450.51,-46.25"/>
</g>
<!-- PausedSyncS&#45;&gt;SyncSource -->
<g id="edge14" class="edge">
<title>PausedSyncS&#45;&gt;SyncSource</title>
<path fill="none" stroke="black" d="M110.46,-36.03C111.3,-44.03 111.55,-53.77 111.18,-62.75"/>
<polygon fill="black" stroke="black" points="107.68,-62.59 110.47,-72.81 114.67,-63.08 107.68,-62.59"/>
</g>
<!-- PausedSyncT&#45;&gt;SyncTarget -->
<g id="edge15" class="edge">
<title>PausedSyncT&#45;&gt;SyncTarget</title>
<path fill="none" stroke="black" d="M459.46,-36.03C460.3,-44.03 460.55,-53.77 460.18,-62.75"/>
<polygon fill="black" stroke="black" points="456.68,-62.59 459.47,-72.81 463.67,-63.08 456.68,-62.59"/>
</g>
</g>
</svg>
