<?xml version="1.0" encoding="UTF-8" standalone="no"?>
<!DOCTYPE svg PUBLIC "-//W3C//DTD SVG 1.1//EN"
 "http://www.w3.org/Graphics/SVG/1.1/DTD/svg11.dtd">
<!-- Generated by graphviz version 2.43.0 (0)
 -->
<!-- Title: conn_states Pages: 1 -->
<svg width="749pt" height="465pt"
 viewBox="0.00 0.00 748.59 465.00" xmlns="http://www.w3.org/2000/svg" xmlns:xlink="http://www.w3.org/1999/xlink">
<g id="graph0" class="graph" transform="scale(1 1) rotate(0) translate(4 461)">
<title>conn_states</title>
<polygon fill="white" stroke="transparent" points="-4,4 -4,-461 744.59,-461 744.59,4 -4,4"/>
<!-- StandAllone -->
<g id="node1" class="node">
<title>StandAllone</title>
<ellipse fill="none" stroke="black" cx="67.59" cy="-439" rx="67.69" ry="18"/>
<text text-anchor="middle" x="67.59" y="-435.3" font-family="Times,serif" font-size="14.00">StandAllone</text>
</g>
<!-- WFConnection -->
<g id="node2" class="node">
<title>WFConnection</title>
<ellipse fill="none" stroke="black" cx="339.59" cy="-352" rx="79.89" ry="18"/>
<text text-anchor="middle" x="339.59" y="-348.3" font-family="Times,serif" font-size="14.00">WFConnection</text>
</g>
<!-- StandAllone&#45;&gt;WFConnection -->
<g id="edge1" class="edge">
<title>StandAllone&#45;&gt;WFConnection</title>
<path fill="none" stroke="black" d="M109.8,-424.81C156.9,-410.09 233.27,-386.23 284.91,-370.09"/>
<polygon fill="black" stroke="black" points="286.07,-373.39 294.57,-367.07 283.99,-366.71 286.07,-373.39"/>
<text text-anchor="middle" x="272.09" y="-391.8" font-family="Times,serif" font-size="14.00">ioctl_set_net()</text>
</g>
<!-- Unconnected -->
<g id="node3" class="node">
<title>Unconnected</title>
<ellipse fill="none" stroke="black" cx="312.59" cy="-265" rx="72.59" ry="18"/>
<text text-anchor="middle" x="312.59" y="-261.3" font-family="Times,serif" font-size="14.00">Unconnected</text>
</g>
<!-- WFConnection&#45;&gt;Unconnected -->
<g id="edge2" class="edge">
<title>WFConnection&#45;&gt;Unconnected</title>
<path fill="none" stroke="black" d="M323.76,-334.07C319.67,-328.69 315.8,-322.45 313.59,-316 311.15,-308.85 310.25,-300.79 310.13,-293.26"/>
<polygon fill="black" stroke="black" points="313.63,-293.2 310.4,-283.11 306.64,-293.02 313.63,-293.2"/>
<text text-anchor="middle" x="370.59" y="-304.8" font-family="Times,serif" font-size="14.00">unable to bind()</text>
</g>
<!-- WFReportParams -->
<g id="node4" class="node">
<title>WFReportParams</title>
<ellipse fill="none" stroke="black" cx="120.59" cy="-265" rx="92.88" ry="18"/>
<text text-anchor="middle" x="120.59" y="-261.3" font-family="Times,serif" font-size="14.00">WFReportParams</text>
</g>
<!-- WFConnection&#45;&gt;WFReportParams -->
<g id="edge3" class="edge">
<title>WFConnection&#45;&gt;WFReportParams</title>
<path fill="none" stroke="black" d="M279.96,-339.96C268.56,-337.92 256.72,-335.85 245.59,-334 219.43,-329.64 146.23,-334.87 127.59,-316 121.7,-310.04 119.24,-301.55 118.46,-293.26"/>
<polygon fill="black" stroke="black" points="121.95,-292.99 118.24,-283.07 114.96,-293.14 121.95,-292.99"/>
<text text-anchor="middle" x="216.59" y="-304.8" font-family="Times,serif" font-size="14.00">in connect() after accept</text>
</g>
<!-- WFReportParams&#45;&gt;StandAllone -->
<g id="edge4" class="edge">
<title>WFReportParams&#45;&gt;StandAllone</title>
<path fill="none" stroke="black" d="M99.3,-282.8C85.36,-295.24 68.33,-313.53 60.59,-334 51.19,-358.87 54.89,-389.46 59.75,-411.01"/>
<polygon fill="black" stroke="black" points="56.37,-411.93 62.17,-420.79 63.16,-410.24 56.37,-411.93"/>
<text text-anchor="middle" x="155.59" y="-348.3" font-family="Times,serif" font-size="14.00">checks in receive_param()</text>
</g>
<!-- Connected -->
<g id="node5" class="node">
<title>Connected</title>
<ellipse fill="none" stroke="black" cx="384.59" cy="-18" rx="61.19" ry="18"/>
<text text-anchor="middle" x="384.59" y="-14.3" font-family="Times,serif" font-size="14.00">Connected</text>
</g>
<!-- WFReportParams&#45;&gt;Connected -->
<g id="edge5" class="edge">
<title>WFReportParams&#45;&gt;Connected</title>
<path fill="none" stroke="black" d="M198.84,-255.11C217.47,-249.9 236.12,-241.74 250.59,-229 287.4,-196.61 267.05,-168.84 292.59,-127 311.91,-95.36 340.32,-63.59 360.45,-42.78"/>
<polygon fill="black" stroke="black" points="362.95,-45.22 367.45,-35.63 357.95,-40.32 362.95,-45.22"/>
<text text-anchor="middle" x="360.09" y="-130.8" font-family="Times,serif" font-size="14.00">in receive_param()</text>
</g>
<!-- WFBitMapS -->
<g id="node6" class="node">
<title>WFBitMapS</title>
<ellipse fill="none" stroke="black" cx="120.59" cy="-178" rx="67.69" ry="18"/>
<text text-anchor="middle" x="120.59" y="-174.3" font-family="Times,serif" font-size="14.00">WFBitMapS</text>
</g>
<!-- WFReportParams&#45;&gt;WFBitMapS -->
<g id="edge6" class="edge">
<title>WFReportParams&#45;&gt;WFBitMapS</title>
<path fill="none" stroke="black" d="M120.59,-246.8C120.59,-235.16 120.59,-219.55 120.59,-206.24"/>
<polygon fill="black" stroke="black" points="124.09,-206.18 120.59,-196.18 117.09,-206.18 124.09,-206.18"/>
<text text-anchor="middle" x="185.09" y="-217.8" font-family="Times,serif" font-size="14.00">sync_handshake()</text>
</g>
<!-- WFBitMapT -->
<g id="node7" class="node">
<title>WFBitMapT</title>
<ellipse fill="none" stroke="black" cx="662.59" cy="-178" rx="67.69" ry="18"/>
<text text-anchor="middle" x="662.59" y="-174.3" font-family="Times,serif" font-size="14.00">WFBitMapT</text>
</g>
<!-- WFReportParams&#45;&gt;WFBitMapT -->
<g id="edge7" class="edge">
<title>WFReportParams&#45;&gt;WFBitMapT</title>
<path fill="none" stroke="black" d="M190.41,-253.12C203.75,-251.06 217.6,-248.95 230.59,-247 386.05,-223.66 425.78,-223.3 580.59,-196 587.58,-194.77 594.89,-193.39 602.13,-191.96"/>
<polygon fill="black" stroke="black" points="602.83,-195.39 611.94,-189.99 601.45,-188.53 602.83,-195.39"/>
<text text-anchor="middle" x="530.09" y="-217.8" font-family="Times,serif" font-size="14.00">sync_handshake()</text>
</g>
<!-- Connected&#45;&gt;WFConnection -->
<g id="edge16" class="edge">
<title>Connected&#45;&gt;WFConnection</title>
<path fill="none" stroke="black" d="M407.78,-34.81C423.56,-47.62 441.59,-67.24 441.59,-90 441.59,-266 441.59,-266 441.59,-266 441.59,-289.08 443.03,-298.84 427.59,-316 420.68,-323.69 411.85,-329.71 402.46,-334.42"/>
<polygon fill="black" stroke="black" points="401.01,-331.24 393.34,-338.55 403.89,-337.62 401.01,-331.24"/>
<text text-anchor="middle" x="509.09" y="-174.3" font-family="Times,serif" font-size="14.00">* on network error</text>
</g>
<!-- SyncSource -->
<g id="node8" class="node">
<title>SyncSource</title>
<ellipse fill="none" stroke="black" cx="145.59" cy="-91" rx="66.09" ry="18"/>
<text text-anchor="middle" x="145.59" y="-87.3" font-family="Times,serif" font-size="14.00">SyncSource</text>
</g>
<!-- WFBitMapS&#45;&gt;SyncSource -->
<g id="edge8" class="edge">
<title>WFBitMapS&#45;&gt;SyncSource</title>
<path fill="none" stroke="black" d="M118.55,-159.94C117.95,-150.08 118.2,-137.58 121.59,-127 122.66,-123.67 124.16,-120.38 125.89,-117.21"/>
<polygon fill="black" stroke="black" points="128.85,-119.07 131.22,-108.74 122.93,-115.34 128.85,-119.07"/>
<text text-anchor="middle" x="182.09" y="-130.8" font-family="Times,serif" font-size="14.00">receive_bitmap()</text>
</g>
<!-- SyncTarget -->
<g id="node9" class="node">
<title>SyncTarget</title>
<ellipse fill="none" stroke="black" cx="565.59" cy="-91" rx="64.19" ry="18"/>
<text text-anchor="middle" x="565.59" y="-87.3" font-family="Times,serif" font-size="14.00">SyncTarget</text>
</g>
<!-- WFBitMapT&#45;&gt;SyncTarget -->
<g id="edge9" class="edge">
<title>WFBitMapT&#45;&gt;SyncTarget</title>
<path fill="none" stroke="black" d="M643.89,-160.61C629.13,-147.68 608.36,-129.47 591.92,-115.07"/>
<polygon fill="black" stroke="black" points="594.07,-112.3 584.24,-108.34 589.45,-117.56 594.07,-112.3"/>
<text text-anchor="middle" x="680.09" y="-130.8" font-family="Times,serif" font-size="14.00">receive_bitmap()</text>
</g>
<!-- SyncSource&#45;&gt;Connected -->
<g id="edge10" class="edge">
<title>SyncSource&#45;&gt;Connected</title>
<path fill="none" stroke="black" d="M183.77,-76.14C203.59,-69.14 228.27,-60.73 250.59,-54 276.19,-46.28 304.83,-38.67 329.04,-32.52"/>
<polygon fill="black" stroke="black" points="329.93,-35.9 338.77,-30.07 328.22,-29.12 329.93,-35.9"/>
</g>
<!-- PausedSyncS -->
<g id="node10" class="node">
<title>PausedSyncS</title>
<ellipse fill="none" stroke="black" cx="145.59" cy="-18" rx="73.39" ry="18"/>
<text text-anchor="middle" x="145.59" y="-14.3" font-family="Times,serif" font-size="14.00">PausedSyncS</text>
</g>
<!-- SyncSource&#45;&gt;PausedSyncS -->
<g id="edge12" class="edge">
<title>SyncSource&#45;&gt;PausedSyncS</title>
<path fill="none" stroke="black" d="M139.72,-72.81C138.88,-64.79 138.64,-55.05 139.02,-46.07"/>
<polygon fill="black" stroke="black" points="142.51,-46.25 139.73,-36.03 135.53,-45.75 142.51,-46.25"/>
</g>
<!-- SyncTarget&#45;&gt;Connected -->
<g id="edge11" class="edge">
<title>SyncTarget&#45;&gt;Connected</title>
<path fill="none" stroke="black" d="M529.83,-75.97C501.02,-64.67 460.33,-48.71 429.35,-36.56"/>
<polygon fill="black" stroke="black" points="430.25,-33.15 419.66,-32.76 427.69,-39.67 430.25,-33.15"/>
</g>
<!-- PausedSyncT -->
<g id="node11" class="node">
<title>PausedSyncT</title>
<ellipse fill="none" stroke="black" cx="565.59" cy="-18" rx="73.39" ry="18"/>
<text text-anchor="middle" x="565.59" y="-14.3" font-family="Times,serif" font-size="14.00">PausedSyncT</text>
</g>
<!-- SyncTarget&#45;&gt;PausedSyncT -->
<g id="edge13" class="edge">
<title>SyncTarget&#45;&gt;PausedSyncT</title>
<path fill="none" stroke="black" d="M559.72,-72.81C558.88,-64.79 558.64,-55.05 559.02,-46.07"/>
<polygon fill="black" stroke="black" points="562.51,-46.25 559.73,-36.03 555.53,-45.75 562.51,-46.25"/>
</g>
<!-- PausedSyncS&#45;&gt;SyncSource -->
<g id="edge14" class="edge">
<title>PausedSyncS&#45;&gt;SyncSource</title>
<path fill="none" stroke="black" d="M151.46,-36.03C152.3,-44.03 152.54,-53.77 152.18,-62.75"/>
<polygon fill="black" stroke="black" points="148.68,-62.59 151.47,-72.81 155.66,-63.08 148.68,-62.59"/>
</g>
<!-- PausedSyncT&#45;&gt;SyncTarget -->
<g id="edge15" class="edge">
<title>PausedSyncT&#45;&gt;SyncTarget</title>
<path fill="none" stroke="black" d="M571.46,-36.03C572.3,-44.03 572.54,-53.77 572.18,-62.75"/>
<polygon fill="black" stroke="black" points="568.68,-62.59 571.47,-72.81 575.66,-63.08 568.68,-62.59"/>
</g>
</g>
</svg>
