<?xml version="1.0" encoding="UTF-8" standalone="no"?>
<!DOCTYPE svg PUBLIC "-//W3C//DTD SVG 1.1//EN"
 "http://www.w3.org/Graphics/SVG/1.1/DTD/svg11.dtd">
<!-- Generated by graphviz version 2.43.0 (0)
 -->
<!-- Title: disk_states Pages: 1 -->
<svg width="948pt" height="479pt"
 viewBox="0.00 0.00 947.60 479.00" xmlns="http://www.w3.org/2000/svg" xmlns:xlink="http://www.w3.org/1999/xlink">
<g id="graph0" class="graph" transform="scale(1 1) rotate(0) translate(4 475)">
<title>disk_states</title>
<polygon fill="white" stroke="transparent" points="-4,4 -4,-475 943.6,-475 943.6,4 -4,4"/>
<!-- Diskless -->
<g id="node1" class="node">
<title>Diskless</title>
<ellipse fill="none" stroke="black" cx="310.6" cy="-453" rx="50.09" ry="18"/>
<text text-anchor="middle" x="310.6" y="-449.3" font-family="Times,serif" font-size="14.00">Diskless</text>
</g>
<!-- Inconsistent -->
<g id="node2" class="node">
<title>Inconsistent</title>
<ellipse fill="none" stroke="black" cx="197.6" cy="-192" rx="68.79" ry="18"/>
<text text-anchor="middle" x="197.6" y="-188.3" font-family="Times,serif" font-size="14.00">Inconsistent</text>
</g>
<!-- Diskless&#45;&gt;Inconsistent -->
<g id="edge1" class="edge">
<title>Diskless&#45;&gt;Inconsistent</title>
<path fill="none" stroke="black" d="M284.22,-437.59C251.63,-418.1 197.78,-379.95 175.6,-330 159.59,-293.96 173.05,-247.99 184.84,-219.53"/>
<polygon fill="black" stroke="black" points="188.1,-220.8 188.88,-210.24 181.68,-218.01 188.1,-220.8"/>
<text text-anchor="middle" x="230.1" y="-318.8" font-family="Times,serif" font-size="14.00">ioctl_set_disk()</text>
</g>
<!-- Consistent -->
<g id="node3" class="node">
<title>Consistent</title>
<ellipse fill="none" stroke="black" cx="442.6" cy="-366" rx="61.19" ry="18"/>
<text text-anchor="middle" x="442.6" y="-362.3" font-family="Times,serif" font-size="14.00">Consistent</text>
</g>
<!-- Diskless&#45;&gt;Consistent -->
<g id="edge2" class="edge">
<title>Diskless&#45;&gt;Consistent</title>
<path fill="none" stroke="black" d="M333.89,-437C354.89,-423.48 386,-403.44 409.57,-388.27"/>
<polygon fill="black" stroke="black" points="411.68,-391.07 418.19,-382.71 407.89,-385.19 411.68,-391.07"/>
<text text-anchor="middle" x="438.1" y="-405.8" font-family="Times,serif" font-size="14.00">ioctl_set_disk()</text>
</g>
<!-- Outdated -->
<g id="node4" class="node">
<title>Outdated</title>
<ellipse fill="none" stroke="black" cx="54.6" cy="-279" rx="54.69" ry="18"/>
<text text-anchor="middle" x="54.6" y="-275.3" font-family="Times,serif" font-size="14.00">Outdated</text>
</g>
<!-- Diskless&#45;&gt;Outdated -->
<g id="edge3" class="edge">
<title>Diskless&#45;&gt;Outdated</title>
<path fill="none" stroke="black" d="M263.89,-446.42C197.32,-437.38 80.43,-417.13 55.6,-384 39.16,-362.07 41.86,-329.6 46.78,-306.78"/>
<polygon fill="black" stroke="black" points="50.19,-307.6 49.14,-297.05 43.38,-305.95 50.19,-307.6"/>
<text text-anchor="middle" x="110.1" y="-362.3" font-family="Times,serif" font-size="14.00">ioctl_set_disk()</text>
</g>
<!-- UpToDate -->
<g id="node5" class="node">
<title>UpToDate</title>
<ellipse fill="none" stroke="black" cx="395.6" cy="-105" rx="57.69" ry="18"/>
<text text-anchor="middle" x="395.6" y="-101.3" font-family="Times,serif" font-size="14.00">UpToDate</text>
</g>
<!-- Inconsistent&#45;&gt;UpToDate -->
<g id="edge9" class="edge">
<title>Inconsistent&#45;&gt;UpToDate</title>
<path fill="none" stroke="black" d="M197.53,-173.75C198.46,-162.8 201.56,-149.2 210.6,-141 229.42,-123.91 298.65,-127.92 323.6,-123 329.49,-121.84 335.63,-120.53 341.73,-119.17"/>
<polygon fill="black" stroke="black" points="342.95,-122.49 351.92,-116.86 341.39,-115.66 342.95,-122.49"/>
<text text-anchor="middle" x="274.6" y="-144.8" font-family="Times,serif" font-size="14.00">resync completed</text>
</g>
<!-- Failed -->
<g id="node6" class="node">
<title>Failed</title>
<ellipse fill="none" stroke="black" cx="395.6" cy="-18" rx="38.99" ry="18"/>
<text text-anchor="middle" x="395.6" y="-14.3" font-family="Times,serif" font-size="14.00">Failed</text>
</g>
<!-- Inconsistent&#45;&gt;Failed -->
<g id="edge13" class="edge">
<title>Inconsistent&#45;&gt;Failed</title>
<path fill="none" stroke="black" d="M190.12,-174.07C181.58,-151.85 171.03,-112.68 189.6,-87 225.13,-37.85 297.48,-23.63 346.26,-19.84"/>
<polygon fill="black" stroke="black" points="346.54,-23.33 356.29,-19.18 346.08,-16.34 346.54,-23.33"/>
<text text-anchor="middle" x="259.1" y="-101.3" font-family="Times,serif" font-size="14.00">io completion error</text>
</g>
<!-- Consistent&#45;&gt;Inconsistent -->
<g id="edge6" class="edge">
<title>Consistent&#45;&gt;Inconsistent</title>
<path fill="none" stroke="black" d="M441.65,-347.82C440.22,-337.18 436.76,-323.9 428.6,-315 413.19,-298.21 401.23,-306.66 380.6,-297 326.74,-271.79 267.42,-236.62 231.33,-214.32"/>
<polygon fill="black" stroke="black" points="233.02,-211.25 222.68,-208.95 229.33,-217.2 233.02,-211.25"/>
<text text-anchor="middle" x="424.6" y="-275.3" font-family="Times,serif" font-size="14.00">start resync</text>
</g>
<!-- Consistent&#45;&gt;Outdated -->
<g id="edge4" class="edge">
<title>Consistent&#45;&gt;Outdated</title>
<path fill="none" stroke="black" d="M392.49,-355.53C367.54,-349.85 337.29,-341.46 311.6,-330 300.45,-325.03 300,-319.34 288.6,-315 233.68,-294.13 167.1,-285.66 119.02,-282.24"/>
<polygon fill="black" stroke="black" points="118.96,-278.73 108.75,-281.57 118.5,-285.71 118.96,-278.73"/>
<text text-anchor="middle" x="370.1" y="-318.8" font-family="Times,serif" font-size="14.00">receive_param()</text>
</g>
<!-- Consistent&#45;&gt;UpToDate -->
<g id="edge5" class="edge">
<title>Consistent&#45;&gt;UpToDate</title>
<path fill="none" stroke="black" d="M451.14,-347.9C457.37,-334.44 465.27,-315.02 468.6,-297 474.89,-262.91 487.06,-170.34 468.6,-141 463.48,-132.88 455.9,-126.6 447.54,-121.76"/>
<polygon fill="black" stroke="black" points="449.11,-118.63 438.61,-117.22 445.93,-124.87 449.11,-118.63"/>
<text text-anchor="middle" x="535.1" y="-231.8" font-family="Times,serif" font-size="14.00">receive_param()</text>
</g>
<!-- Consistent&#45;&gt;Failed -->
<g id="edge10" class="edge">
<title>Consistent&#45;&gt;Failed</title>
<path fill="none" stroke="black" d="M500.35,-360.08C550.31,-352.29 614.6,-332.13 614.6,-280 614.6,-280 614.6,-280 614.6,-104 614.6,-67.22 505.9,-40.08 441.66,-27.25"/>
<polygon fill="black" stroke="black" points="442.24,-23.79 431.76,-25.31 440.9,-30.66 442.24,-23.79"/>
<text text-anchor="middle" x="684.1" y="-188.3" font-family="Times,serif" font-size="14.00">io completion error</text>
</g>
<!-- Outdated&#45;&gt;Inconsistent -->
<g id="edge7" class="edge">
<title>Outdated&#45;&gt;Inconsistent</title>
<path fill="none" stroke="black" d="M58.17,-260.94C61.29,-250.07 66.89,-236.49 76.6,-228 90.48,-215.85 108.36,-207.9 126.08,-202.72"/>
<polygon fill="black" stroke="black" points="127.13,-206.06 135.89,-200.11 125.33,-199.29 127.13,-206.06"/>
<text text-anchor="middle" x="120.6" y="-231.8" font-family="Times,serif" font-size="14.00">start resync</text>
</g>
<!-- Outdated&#45;&gt;Failed -->
<g id="edge11" class="edge">
<title>Outdated&#45;&gt;Failed</title>
<path fill="none" stroke="black" d="M46.31,-260.98C34.26,-233.59 15.71,-178.93 38.6,-141 81.42,-70.01 125.24,-81.08 203.6,-54 251.07,-37.59 307.95,-28.45 347.42,-23.66"/>
<polygon fill="black" stroke="black" points="348.04,-27.11 357.56,-22.48 347.23,-20.16 348.04,-27.11"/>
<text text-anchor="middle" x="108.1" y="-144.8" font-family="Times,serif" font-size="14.00">io completion error</text>
</g>
<!-- UpToDate&#45;&gt;Inconsistent -->
<g id="edge8" class="edge">
<title>UpToDate&#45;&gt;Inconsistent</title>
<path fill="none" stroke="black" d="M381.98,-122.78C372.15,-133.8 357.94,-147.68 342.6,-156 319.98,-168.25 293.09,-176.27 268.64,-181.49"/>
<polygon fill="black" stroke="black" points="267.81,-178.08 258.7,-183.49 269.19,-184.95 267.81,-178.08"/>
<text text-anchor="middle" x="415.1" y="-144.8" font-family="Times,serif" font-size="14.00">ioctl_replicate</text>
</g>
<!-- UpToDate&#45;&gt;Failed -->
<g id="edge12" class="edge">
<title>UpToDate&#45;&gt;Failed</title>
<path fill="none" stroke="black" d="M395.6,-86.8C395.6,-75.16 395.6,-59.55 395.6,-46.24"/>
<polygon fill="black" stroke="black" points="399.1,-46.18 395.6,-36.18 392.1,-46.18 399.1,-46.18"/>
<text text-anchor="middle" x="465.1" y="-57.8" font-family="Times,serif" font-size="14.00">io completion error</text>
</g>
<!-- Failed&#45;&gt;Diskless -->
<g id="edge14" class="edge">
<title>Failed&#45;&gt;Diskless</title>
<path fill="none" stroke="black" d="M434.73,-19.39C532.86,-21.41 781.6,-33.49 781.6,-104 781.6,-367 781.6,-367 781.6,-367 781.6,-408.42 495.86,-436.88 369.5,-447.45"/>
<polygon fill="black" stroke="black" points="368.9,-443.98 359.23,-448.29 369.48,-450.96 368.9,-443.98"/>
<text text-anchor="middle" x="860.6" y="-231.8" font-family="Times,serif" font-size="14.00">sending notify to peer</text>
</g>
</g>
</svg>
