<?xml version="1.0" encoding="UTF-8" standalone="no"?>
<!DOCTYPE svg PUBLIC "-//W3C//DTD SVG 1.1//EN"
 "http://www.w3.org/Graphics/SVG/1.1/DTD/svg11.dtd">
<!-- Generated by graphviz version 2.43.0 (0)
 -->
<!-- Title: writeback_data_flow Pages: 1 -->
<svg width="311pt" height="44pt"
 viewBox="0.00 0.00 311.00 44.00" xmlns="http://www.w3.org/2000/svg" xmlns:xlink="http://www.w3.org/1999/xlink">
<g id="graph0" class="graph" transform="scale(1 1) rotate(0) translate(4 40)">
<title>writeback_data_flow</title>
<polygon fill="white" stroke="transparent" points="-4,4 -4,-40 307,-40 307,4 -4,4"/>
<!-- Scaler&#45;n -->
<g id="node1" class="node">
<title>Scaler&#45;n</title>
<polygon fill="none" stroke="black" stroke-dasharray="5,2" points="183,-36 107,-36 107,0 183,0 183,-36"/>
<text text-anchor="middle" x="145" y="-14.3" font-family="Times,serif" font-size="14.00">Scaler&#45;n</text>
</g>
<!-- Wb_layer -->
<g id="node3" class="node">
<title>Wb_layer</title>
<polygon fill="none" stroke="black" points="303,-36 219,-36 219,0 303,0 303,-36"/>
<text text-anchor="middle" x="261" y="-14.3" font-family="Times,serif" font-size="14.00">Wb_layer</text>
</g>
<!-- Scaler&#45;n&#45;&gt;Wb_layer -->
<g id="edge2" class="edge">
<title>Scaler&#45;n&#45;&gt;Wb_layer</title>
<path fill="none" stroke="black" d="M183.01,-18C191.24,-18 200.1,-18 208.78,-18"/>
<polygon fill="black" stroke="black" points="208.83,-21.5 218.83,-18 208.83,-14.5 208.83,-21.5"/>
</g>
<!-- Compiz -->
<g id="node2" class="node">
<title>Compiz</title>
<polygon fill="none" stroke="black" points="71,-36 0,-36 0,0 71,0 71,-36"/>
<text text-anchor="middle" x="35.5" y="-14.3" font-family="Times,serif" font-size="14.00">Compiz</text>
</g>
<!-- Compiz&#45;&gt;Scaler&#45;n -->
<g id="edge1" class="edge">
<title>Compiz&#45;&gt;Scaler&#45;n</title>
<path fill="none" stroke="black" d="M71.11,-18C79.31,-18 88.2,-18 96.86,-18"/>
<polygon fill="black" stroke="black" points="96.86,-21.5 106.86,-18 96.86,-14.5 96.86,-21.5"/>
</g>
</g>
</svg>
