<?xml version="1.0" encoding="UTF-8" standalone="no"?>
<!DOCTYPE svg PUBLIC "-//W3C//DTD SVG 1.1//EN"
 "http://www.w3.org/Graphics/SVG/1.1/DTD/svg11.dtd">
<!-- Generated by graphviz version 2.43.0 (0)
 -->
<!-- Title: layer_data_flow Pages: 1 -->
<svg width="298pt" height="44pt"
 viewBox="0.00 0.00 298.00 44.00" xmlns="http://www.w3.org/2000/svg" xmlns:xlink="http://www.w3.org/1999/xlink">
<g id="graph0" class="graph" transform="scale(1 1) rotate(0) translate(4 40)">
<title>layer_data_flow</title>
<polygon fill="white" stroke="transparent" points="-4,4 -4,-40 294,-40 294,4 -4,4"/>
<!-- Scaler&#45;n -->
<g id="node1" class="node">
<title>Scaler&#45;n</title>
<polygon fill="none" stroke="black" stroke-dasharray="5,2" points="183,-36 107,-36 107,0 183,0 183,-36"/>
<text text-anchor="middle" x="145" y="-14.3" font-family="Times,serif" font-size="14.00">Scaler&#45;n</text>
</g>
<!-- Compiz -->
<g id="node3" class="node">
<title>Compiz</title>
<polygon fill="none" stroke="black" points="290,-36 219,-36 219,0 290,0 290,-36"/>
<text text-anchor="middle" x="254.5" y="-14.3" font-family="Times,serif" font-size="14.00">Compiz</text>
</g>
<!-- Scaler&#45;n&#45;&gt;Compiz -->
<g id="edge2" class="edge">
<title>Scaler&#45;n&#45;&gt;Compiz</title>
<path fill="none" stroke="black" d="M183.3,-18C191.49,-18 200.24,-18 208.7,-18"/>
<polygon fill="black" stroke="black" points="208.8,-21.5 218.8,-18 208.8,-14.5 208.8,-21.5"/>
</g>
<!-- Layer&#45;n -->
<g id="node2" class="node">
<title>Layer&#45;n</title>
<polygon fill="none" stroke="black" points="71,-36 0,-36 0,0 71,0 71,-36"/>
<text text-anchor="middle" x="35.5" y="-14.3" font-family="Times,serif" font-size="14.00">Layer&#45;n</text>
</g>
<!-- Layer&#45;n&#45;&gt;Scaler&#45;n -->
<g id="edge1" class="edge">
<title>Layer&#45;n&#45;&gt;Scaler&#45;n</title>
<path fill="none" stroke="black" d="M71.11,-18C79.31,-18 88.2,-18 96.86,-18"/>
<polygon fill="black" stroke="black" points="96.86,-21.5 106.86,-18 96.86,-14.5 96.86,-21.5"/>
</g>
</g>
</svg>
