<?xml version="1.0" encoding="UTF-8" standalone="no"?>
<!DOCTYPE svg PUBLIC "-//W3C//DTD SVG 1.1//EN"
 "http://www.w3.org/Graphics/SVG/1.1/DTD/svg11.dtd">
<!-- Generated by graphviz version 2.43.0 (0)
 -->
<!-- Title: single_ppl Pages: 1 -->
<svg width="755pt" height="238pt"
 viewBox="0.00 0.00 754.79 238.00" xmlns="http://www.w3.org/2000/svg" xmlns:xlink="http://www.w3.org/1999/xlink">
<g id="graph0" class="graph" transform="scale(1 1) rotate(0) translate(4 234)">
<title>single_ppl</title>
<polygon fill="white" stroke="transparent" points="-4,4 -4,-234 750.79,-234 750.79,4 -4,4"/>
<g id="clust2" class="cluster">
<title>cluster_pipeline</title>
<polygon fill="none" stroke="black" stroke-dasharray="5,2" points="8,-8 8,-222 620,-222 620,-8 8,-8"/>
</g>
<!-- Memory -->
<g id="node1" class="node">
<title>Memory</title>
<ellipse fill="none" stroke="black" cx="697.4" cy="-142" rx="49.29" ry="18"/>
<text text-anchor="middle" x="697.4" y="-138.3" font-family="Times,serif" font-size="14.00">Memory</text>
</g>
<!-- Monitor -->
<g id="node2" class="node">
<title>Monitor</title>
<ellipse fill="none" stroke="black" cx="697.4" cy="-88" rx="48.19" ry="18"/>
<text text-anchor="middle" x="697.4" y="-84.3" font-family="Times,serif" font-size="14.00">Monitor</text>
</g>
<!-- Scaler&#45;0 -->
<g id="node3" class="node">
<title>Scaler&#45;0</title>
<polygon fill="none" stroke="black" stroke-dasharray="5,2" points="199,-180 123,-180 123,-144 199,-144 199,-180"/>
<text text-anchor="middle" x="161" y="-158.3" font-family="Times,serif" font-size="14.00">Scaler&#45;0</text>
</g>
<!-- Compiz -->
<g id="node10" class="node">
<title>Compiz</title>
<polygon fill="lightgrey" stroke="black" points="306,-133 235,-133 235,-97 306,-97 306,-133"/>
<text text-anchor="middle" x="270.5" y="-111.3" font-family="Times,serif" font-size="14.00">Compiz</text>
</g>
<!-- Scaler&#45;0&#45;&gt;Compiz -->
<g id="edge9" class="edge">
<title>Scaler&#45;0&#45;&gt;Compiz</title>
<path fill="none" stroke="black" d="M199.3,-145.69C207.76,-141.99 216.82,-138.03 225.53,-134.22"/>
<polygon fill="black" stroke="black" points="227.04,-137.39 234.8,-130.17 224.23,-130.97 227.04,-137.39"/>
</g>
<!-- Scaler&#45;1 -->
<g id="node4" class="node">
<title>Scaler&#45;1</title>
<polygon fill="none" stroke="black" stroke-dasharray="5,2" points="199,-86 123,-86 123,-50 199,-50 199,-86"/>
<text text-anchor="middle" x="161" y="-64.3" font-family="Times,serif" font-size="14.00">Scaler&#45;1</text>
</g>
<!-- Scaler&#45;1&#45;&gt;Compiz -->
<g id="edge10" class="edge">
<title>Scaler&#45;1&#45;&gt;Compiz</title>
<path fill="none" stroke="black" d="M199.3,-84.31C207.76,-88.01 216.82,-91.97 225.53,-95.78"/>
<polygon fill="black" stroke="black" points="224.23,-99.03 234.8,-99.83 227.04,-92.61 224.23,-99.03"/>
</g>
<!-- Scaler&#45;0/1 -->
<g id="node5" class="node">
<title>Scaler&#45;0/1</title>
<polygon fill="none" stroke="black" stroke-dasharray="5,2" points="431,-160 342,-160 342,-124 431,-124 431,-160"/>
<text text-anchor="middle" x="386.5" y="-138.3" font-family="Times,serif" font-size="14.00">Scaler&#45;0/1</text>
</g>
<!-- Wb_layer -->
<g id="node11" class="node">
<title>Wb_layer</title>
<polygon fill="lightgrey" stroke="black" points="581.5,-160 497.5,-160 497.5,-124 581.5,-124 581.5,-160"/>
<text text-anchor="middle" x="539.5" y="-138.3" font-family="Times,serif" font-size="14.00">Wb_layer</text>
</g>
<!-- Scaler&#45;0/1&#45;&gt;Wb_layer -->
<g id="edge12" class="edge">
<title>Scaler&#45;0/1&#45;&gt;Wb_layer</title>
<path fill="none" stroke="black" d="M431.18,-142C448.66,-142 468.93,-142 487.11,-142"/>
<polygon fill="black" stroke="black" points="487.26,-145.5 497.26,-142 487.26,-138.5 487.26,-145.5"/>
</g>
<!-- Layer&#45;0 -->
<g id="node6" class="node">
<title>Layer&#45;0</title>
<polygon fill="lightgrey" stroke="black" points="87,-214 16,-214 16,-178 87,-178 87,-214"/>
<text text-anchor="middle" x="51.5" y="-192.3" font-family="Times,serif" font-size="14.00">Layer&#45;0</text>
</g>
<!-- Layer&#45;0&#45;&gt;Scaler&#45;0 -->
<g id="edge1" class="edge">
<title>Layer&#45;0&#45;&gt;Scaler&#45;0</title>
<path fill="none" stroke="black" d="M87.11,-185.06C95.4,-182.43 104.39,-179.59 113.14,-176.82"/>
<polygon fill="black" stroke="black" points="114.38,-180.1 122.86,-173.75 112.27,-173.42 114.38,-180.1"/>
</g>
<!-- Layer&#45;0&#45;&gt;Compiz -->
<g id="edge5" class="edge">
<title>Layer&#45;0&#45;&gt;Compiz</title>
<path fill="none" stroke="black" d="M87.05,-201.35C117.86,-204.53 163.45,-205.25 199,-189 221.13,-178.89 239.77,-158.38 252.32,-141.52"/>
<polygon fill="black" stroke="black" points="255.36,-143.28 258.31,-133.1 249.66,-139.22 255.36,-143.28"/>
</g>
<!-- Layer&#45;1 -->
<g id="node7" class="node">
<title>Layer&#45;1</title>
<polygon fill="lightgrey" stroke="black" points="87,-160 16,-160 16,-124 87,-124 87,-160"/>
<text text-anchor="middle" x="51.5" y="-138.3" font-family="Times,serif" font-size="14.00">Layer&#45;1</text>
</g>
<!-- Layer&#45;1&#45;&gt;Scaler&#45;0 -->
<g id="edge2" class="edge">
<title>Layer&#45;1&#45;&gt;Scaler&#45;0</title>
<path fill="none" stroke="black" d="M87.11,-148.44C95.31,-149.96 104.2,-151.62 112.86,-153.23"/>
<polygon fill="black" stroke="black" points="112.39,-156.7 122.86,-155.09 113.67,-149.82 112.39,-156.7"/>
</g>
<!-- Layer&#45;1&#45;&gt;Compiz -->
<g id="edge6" class="edge">
<title>Layer&#45;1&#45;&gt;Compiz</title>
<path fill="none" stroke="black" d="M87.36,-137.66C124.7,-133.02 184.05,-125.63 224.79,-120.56"/>
<polygon fill="black" stroke="black" points="225.23,-124.04 234.72,-119.33 224.37,-117.09 225.23,-124.04"/>
</g>
<!-- Layer&#45;2 -->
<g id="node8" class="node">
<title>Layer&#45;2</title>
<polygon fill="lightgrey" stroke="black" points="87,-106 16,-106 16,-70 87,-70 87,-106"/>
<text text-anchor="middle" x="51.5" y="-84.3" font-family="Times,serif" font-size="14.00">Layer&#45;2</text>
</g>
<!-- Layer&#45;2&#45;&gt;Scaler&#45;1 -->
<g id="edge3" class="edge">
<title>Layer&#45;2&#45;&gt;Scaler&#45;1</title>
<path fill="none" stroke="black" d="M87.11,-81.56C95.31,-80.04 104.2,-78.38 112.86,-76.77"/>
<polygon fill="black" stroke="black" points="113.67,-80.18 122.86,-74.91 112.39,-73.3 113.67,-80.18"/>
</g>
<!-- Layer&#45;2&#45;&gt;Compiz -->
<g id="edge7" class="edge">
<title>Layer&#45;2&#45;&gt;Compiz</title>
<path fill="none" stroke="black" d="M87.36,-92.34C124.7,-96.98 184.05,-104.37 224.79,-109.44"/>
<polygon fill="black" stroke="black" points="224.37,-112.91 234.72,-110.67 225.23,-105.96 224.37,-112.91"/>
</g>
<!-- Layer&#45;3 -->
<g id="node9" class="node">
<title>Layer&#45;3</title>
<polygon fill="lightgrey" stroke="black" points="87,-52 16,-52 16,-16 87,-16 87,-52"/>
<text text-anchor="middle" x="51.5" y="-30.3" font-family="Times,serif" font-size="14.00">Layer&#45;3</text>
</g>
<!-- Layer&#45;3&#45;&gt;Scaler&#45;1 -->
<g id="edge4" class="edge">
<title>Layer&#45;3&#45;&gt;Scaler&#45;1</title>
<path fill="none" stroke="black" d="M87.11,-44.94C95.4,-47.57 104.39,-50.41 113.14,-53.18"/>
<polygon fill="black" stroke="black" points="112.27,-56.58 122.86,-56.25 114.38,-49.9 112.27,-56.58"/>
</g>
<!-- Layer&#45;3&#45;&gt;Compiz -->
<g id="edge8" class="edge">
<title>Layer&#45;3&#45;&gt;Compiz</title>
<path fill="none" stroke="black" d="M87.05,-28.65C117.86,-25.47 163.45,-24.75 199,-41 221.13,-51.11 239.77,-71.62 252.32,-88.48"/>
<polygon fill="black" stroke="black" points="249.66,-90.78 258.31,-96.9 255.36,-86.72 249.66,-90.78"/>
</g>
<!-- Compiz&#45;&gt;Scaler&#45;0/1 -->
<g id="edge11" class="edge">
<title>Compiz&#45;&gt;Scaler&#45;0/1</title>
<path fill="none" stroke="black" d="M306.01,-123.17C314.2,-125.11 323.13,-127.23 331.95,-129.32"/>
<polygon fill="black" stroke="black" points="331.27,-132.75 341.81,-131.65 332.89,-125.94 331.27,-132.75"/>
</g>
<!-- Improc -->
<g id="node12" class="node">
<title>Improc</title>
<polygon fill="lightgrey" stroke="black" points="420.5,-106 352.5,-106 352.5,-70 420.5,-70 420.5,-106"/>
<text text-anchor="middle" x="386.5" y="-84.3" font-family="Times,serif" font-size="14.00">Improc</text>
</g>
<!-- Compiz&#45;&gt;Improc -->
<g id="edge13" class="edge">
<title>Compiz&#45;&gt;Improc</title>
<path fill="none" stroke="black" d="M306.01,-106.83C317.48,-104.11 330.4,-101.05 342.43,-98.2"/>
<polygon fill="black" stroke="black" points="343.35,-101.58 352.28,-95.87 341.74,-94.77 343.35,-101.58"/>
</g>
<!-- Wb_layer&#45;&gt;Memory -->
<g id="edge15" class="edge">
<title>Wb_layer&#45;&gt;Memory</title>
<path fill="none" stroke="black" d="M581.87,-142C598.99,-142 619.16,-142 637.77,-142"/>
<polygon fill="black" stroke="black" points="637.91,-145.5 647.91,-142 637.91,-138.5 637.91,-145.5"/>
</g>
<!-- Timing Controller -->
<g id="node13" class="node">
<title>Timing Controller</title>
<polygon fill="lightgrey" stroke="black" points="612,-106 467,-106 467,-70 612,-70 612,-106"/>
<text text-anchor="middle" x="539.5" y="-84.3" font-family="Times,serif" font-size="14.00">Timing Controller</text>
</g>
<!-- Improc&#45;&gt;Timing Controller -->
<g id="edge14" class="edge">
<title>Improc&#45;&gt;Timing Controller</title>
<path fill="none" stroke="black" d="M420.64,-88C431.39,-88 443.84,-88 456.54,-88"/>
<polygon fill="black" stroke="black" points="456.75,-91.5 466.75,-88 456.75,-84.5 456.75,-91.5"/>
</g>
<!-- Timing Controller&#45;&gt;Monitor -->
<g id="edge16" class="edge">
<title>Timing Controller&#45;&gt;Monitor</title>
<path fill="none" stroke="black" d="M612.06,-88C621.03,-88 630.12,-88 638.85,-88"/>
<polygon fill="black" stroke="black" points="638.89,-91.5 648.89,-88 638.89,-84.5 638.89,-91.5"/>
</g>
</g>
</svg>
