<?xml version="1.0" encoding="UTF-8" standalone="no"?>
<!DOCTYPE svg PUBLIC "-//W3C//DTD SVG 1.1//EN"
 "http://www.w3.org/Graphics/SVG/1.1/DTD/svg11.dtd">
<!-- Generated by graphviz version 2.43.0 (0)
 -->
<!-- Title: IPU3 ImgU Pages: 1 -->
<svg width="788pt" height="314pt"
 viewBox="0.00 0.00 788.00 314.00" xmlns="http://www.w3.org/2000/svg" xmlns:xlink="http://www.w3.org/1999/xlink">
<g id="graph0" class="graph" transform="scale(1 1) rotate(0) translate(4 310)">
<title>IPU3 ImgU</title>
<polygon fill="white" stroke="transparent" points="-4,4 -4,-310 784,-310 784,4 -4,4"/>
<!-- a -->
<g id="node1" class="node">
<title>a</title>
<polygon fill="none" stroke="black" points="198.5,-306 104.5,-306 104.5,-270 198.5,-270 198.5,-306"/>
<text text-anchor="middle" x="151.5" y="-284.3" font-family="Times,serif" font-size="14.00">Raw pixels</text>
</g>
<!-- b -->
<g id="node2" class="node">
<title>b</title>
<polygon fill="none" stroke="black" points="229,-252 74,-252 74,-216 229,-216 229,-252"/>
<text text-anchor="middle" x="151.5" y="-230.3" font-family="Times,serif" font-size="14.00">Bayer Downscaling</text>
</g>
<!-- a&#45;&gt;b -->
<g id="edge1" class="edge">
<title>a&#45;&gt;b</title>
<path fill="none" stroke="black" d="M152,-269.72C152,-269.72 152,-262.26 152,-262.26"/>
<polygon fill="black" stroke="black" points="155.5,-262.26 152,-252.26 148.5,-262.26 155.5,-262.26"/>
</g>
<!-- g -->
<g id="node7" class="node">
<title>g</title>
<polygon fill="none" stroke="black" points="525,-306 343,-306 343,-270 525,-270 525,-306"/>
<text text-anchor="middle" x="434" y="-284.3" font-family="Times,serif" font-size="14.00">Bayer Noise Reduction</text>
</g>
<!-- a&#45;&gt;g -->
<!-- c -->
<g id="node3" class="node">
<title>c</title>
<polygon fill="none" stroke="black" points="249.5,-198 53.5,-198 53.5,-162 249.5,-162 249.5,-198"/>
<text text-anchor="middle" x="151.5" y="-176.3" font-family="Times,serif" font-size="14.00">Optical Black Correction</text>
</g>
<!-- b&#45;&gt;c -->
<g id="edge2" class="edge">
<title>b&#45;&gt;c</title>
<path fill="none" stroke="black" d="M152,-215.72C152,-215.72 152,-208.26 152,-208.26"/>
<polygon fill="black" stroke="black" points="155.5,-208.26 152,-198.26 148.5,-208.26 155.5,-208.26"/>
</g>
<!-- d -->
<g id="node4" class="node">
<title>d</title>
<polygon fill="none" stroke="black" points="207,-144 96,-144 96,-108 207,-108 207,-144"/>
<text text-anchor="middle" x="151.5" y="-122.3" font-family="Times,serif" font-size="14.00">Linearization</text>
</g>
<!-- c&#45;&gt;d -->
<g id="edge3" class="edge">
<title>c&#45;&gt;d</title>
<path fill="none" stroke="black" d="M152,-161.72C152,-161.72 152,-154.26 152,-154.26"/>
<polygon fill="black" stroke="black" points="155.5,-154.26 152,-144.26 148.5,-154.26 155.5,-154.26"/>
</g>
<!-- e -->
<g id="node5" class="node">
<title>e</title>
<polygon fill="none" stroke="black" points="249.5,-90 53.5,-90 53.5,-54 249.5,-54 249.5,-90"/>
<text text-anchor="middle" x="151.5" y="-68.3" font-family="Times,serif" font-size="14.00">Lens Shading Correction</text>
</g>
<!-- d&#45;&gt;e -->
<g id="edge4" class="edge">
<title>d&#45;&gt;e</title>
<path fill="none" stroke="black" d="M152,-107.72C152,-107.72 152,-100.26 152,-100.26"/>
<polygon fill="black" stroke="black" points="155.5,-100.26 152,-90.26 148.5,-100.26 155.5,-100.26"/>
</g>
<!-- f -->
<g id="node6" class="node">
<title>f</title>
<polygon fill="none" stroke="black" points="303,-36 0,-36 0,0 303,0 303,-36"/>
<text text-anchor="middle" x="151.5" y="-14.3" font-family="Times,serif" font-size="14.00">White Balance / Exposure / Focus Apply</text>
</g>
<!-- e&#45;&gt;f -->
<g id="edge5" class="edge">
<title>e&#45;&gt;f</title>
<path fill="none" stroke="black" d="M152,-53.72C152,-53.72 152,-46.26 152,-46.26"/>
<polygon fill="black" stroke="black" points="155.5,-46.26 152,-36.26 148.5,-46.26 155.5,-46.26"/>
</g>
<!-- f&#45;&gt;g -->
<g id="edge18" class="edge">
<title>f&#45;&gt;g</title>
<path fill="none" stroke="black" d="M277,-36.15C277,-95.79 277,-282 277,-282 277,-282 332.67,-282 332.67,-282"/>
<polygon fill="black" stroke="black" points="332.67,-285.5 342.67,-282 332.67,-278.5 332.67,-285.5"/>
</g>
<!-- h -->
<g id="node8" class="node">
<title>h</title>
<polygon fill="none" stroke="black" points="461,-252 407,-252 407,-216 461,-216 461,-252"/>
<text text-anchor="middle" x="434" y="-230.3" font-family="Times,serif" font-size="14.00">ANR</text>
</g>
<!-- g&#45;&gt;h -->
<g id="edge6" class="edge">
<title>g&#45;&gt;h</title>
<path fill="none" stroke="black" d="M434,-269.72C434,-269.72 434,-262.26 434,-262.26"/>
<polygon fill="black" stroke="black" points="437.5,-262.26 434,-252.26 430.5,-262.26 437.5,-262.26"/>
</g>
<!-- m -->
<g id="node13" class="node">
<title>m</title>
<polygon fill="none" stroke="black" points="760.5,-306 584.5,-306 584.5,-270 760.5,-270 760.5,-306"/>
<text text-anchor="middle" x="672.5" y="-284.3" font-family="Times,serif" font-size="14.00">Chroma Down Scaling</text>
</g>
<!-- g&#45;&gt;m -->
<!-- i -->
<g id="node9" class="node">
<title>i</title>
<polygon fill="none" stroke="black" points="488.5,-198 379.5,-198 379.5,-162 488.5,-162 488.5,-198"/>
<text text-anchor="middle" x="434" y="-176.3" font-family="Times,serif" font-size="14.00">Demosaicing</text>
</g>
<!-- h&#45;&gt;i -->
<g id="edge7" class="edge">
<title>h&#45;&gt;i</title>
<path fill="none" stroke="black" d="M434,-215.72C434,-215.72 434,-208.26 434,-208.26"/>
<polygon fill="black" stroke="black" points="437.5,-208.26 434,-198.26 430.5,-208.26 437.5,-208.26"/>
</g>
<!-- j -->
<g id="node10" class="node">
<title>j</title>
<polygon fill="none" stroke="black" points="529,-144 339,-144 339,-108 529,-108 529,-144"/>
<text text-anchor="middle" x="434" y="-122.3" font-family="Times,serif" font-size="14.00">Color Correction Matrix</text>
</g>
<!-- i&#45;&gt;j -->
<g id="edge8" class="edge">
<title>i&#45;&gt;j</title>
<path fill="none" stroke="black" d="M434,-161.72C434,-161.72 434,-154.26 434,-154.26"/>
<polygon fill="black" stroke="black" points="437.5,-154.26 434,-144.26 430.5,-154.26 437.5,-154.26"/>
</g>
<!-- k -->
<g id="node11" class="node">
<title>k</title>
<polygon fill="none" stroke="black" points="509,-90 359,-90 359,-54 509,-54 509,-90"/>
<text text-anchor="middle" x="434" y="-68.3" font-family="Times,serif" font-size="14.00">Gamma correction</text>
</g>
<!-- j&#45;&gt;k -->
<g id="edge9" class="edge">
<title>j&#45;&gt;k</title>
<path fill="none" stroke="black" d="M434,-107.72C434,-107.72 434,-100.26 434,-100.26"/>
<polygon fill="black" stroke="black" points="437.5,-100.26 434,-90.26 430.5,-100.26 437.5,-100.26"/>
</g>
<!-- l -->
<g id="node12" class="node">
<title>l</title>
<polygon fill="none" stroke="black" points="528.5,-36 339.5,-36 339.5,0 528.5,0 528.5,-36"/>
<text text-anchor="middle" x="434" y="-14.3" font-family="Times,serif" font-size="14.00">Color Space Conversion</text>
</g>
<!-- k&#45;&gt;l -->
<g id="edge10" class="edge">
<title>k&#45;&gt;l</title>
<path fill="none" stroke="black" d="M434,-53.72C434,-53.72 434,-46.26 434,-46.26"/>
<polygon fill="black" stroke="black" points="437.5,-46.26 434,-36.26 430.5,-46.26 437.5,-46.26"/>
</g>
<!-- l&#45;&gt;m -->
<g id="edge19" class="edge">
<title>l&#45;&gt;m</title>
<path fill="none" stroke="black" d="M528.59,-18C539.6,-18 547,-18 547,-18 547,-18 547,-282 547,-282 547,-282 574.31,-282 574.31,-282"/>
<polygon fill="black" stroke="black" points="574.31,-285.5 584.31,-282 574.31,-278.5 574.31,-285.5"/>
</g>
<!-- n -->
<g id="node14" class="node">
<title>n</title>
<polygon fill="none" stroke="black" points="780,-252 565,-252 565,-216 780,-216 780,-252"/>
<text text-anchor="middle" x="672.5" y="-230.3" font-family="Times,serif" font-size="14.00">Chromatic Noise Reduction</text>
</g>
<!-- m&#45;&gt;n -->
<g id="edge11" class="edge">
<title>m&#45;&gt;n</title>
<path fill="none" stroke="black" d="M673,-269.72C673,-269.72 673,-262.26 673,-262.26"/>
<polygon fill="black" stroke="black" points="676.5,-262.26 673,-252.26 669.5,-262.26 676.5,-262.26"/>
</g>
<!-- o -->
<g id="node15" class="node">
<title>o</title>
<polygon fill="none" stroke="black" points="761.5,-198 583.5,-198 583.5,-162 761.5,-162 761.5,-198"/>
<text text-anchor="middle" x="672.5" y="-176.3" font-family="Times,serif" font-size="14.00">Total Color Correction</text>
</g>
<!-- n&#45;&gt;o -->
<g id="edge12" class="edge">
<title>n&#45;&gt;o</title>
<path fill="none" stroke="black" d="M673,-215.72C673,-215.72 673,-208.26 673,-208.26"/>
<polygon fill="black" stroke="black" points="676.5,-208.26 673,-198.26 669.5,-208.26 676.5,-208.26"/>
</g>
<!-- p -->
<g id="node16" class="node">
<title>p</title>
<polygon fill="none" stroke="black" points="702,-144 643,-144 643,-108 702,-108 702,-144"/>
<text text-anchor="middle" x="672.5" y="-122.3" font-family="Times,serif" font-size="14.00">XNR3</text>
</g>
<!-- o&#45;&gt;p -->
<g id="edge13" class="edge">
<title>o&#45;&gt;p</title>
<path fill="none" stroke="black" d="M673,-161.72C673,-161.72 673,-154.26 673,-154.26"/>
<polygon fill="black" stroke="black" points="676.5,-154.26 673,-144.26 669.5,-154.26 676.5,-154.26"/>
</g>
<!-- q -->
<g id="node17" class="node">
<title>q</title>
<polygon fill="none" stroke="black" points="699.5,-90 645.5,-90 645.5,-54 699.5,-54 699.5,-90"/>
<text text-anchor="middle" x="672.5" y="-68.3" font-family="Times,serif" font-size="14.00">TNR</text>
</g>
<!-- p&#45;&gt;q -->
<g id="edge14" class="edge">
<title>p&#45;&gt;q</title>
<path fill="none" stroke="black" d="M673,-107.72C673,-107.72 673,-100.26 673,-100.26"/>
<polygon fill="black" stroke="black" points="676.5,-100.26 673,-90.26 669.5,-100.26 676.5,-100.26"/>
</g>
<!-- r -->
<g id="node18" class="node">
<title>r</title>
<polygon fill="none" stroke="black" points="699.5,-36 645.5,-36 645.5,0 699.5,0 699.5,-36"/>
<text text-anchor="middle" x="672.5" y="-14.3" font-family="Times,serif" font-size="14.00">DDR</text>
</g>
<!-- q&#45;&gt;r -->
<g id="edge15" class="edge">
<title>q&#45;&gt;r</title>
<path fill="none" stroke="black" d="M673,-53.72C673,-53.72 673,-46.26 673,-46.26"/>
<polygon fill="black" stroke="black" points="676.5,-46.26 673,-36.26 669.5,-46.26 676.5,-46.26"/>
</g>
</g>
</svg>
