<?xml version="1.0" encoding="UTF-8" standalone="no"?>
<!DOCTYPE svg PUBLIC "-//W3C//DTD SVG 1.1//EN"
 "http://www.w3.org/Graphics/SVG/1.1/DTD/svg11.dtd">
<!-- Generated by graphviz version 2.43.0 (0)
 -->
<!-- Title: KMS Pages: 1 -->
<svg width="454pt" height="409pt"
 viewBox="0.00 0.00 454.00 409.00" xmlns="http://www.w3.org/2000/svg" xmlns:xlink="http://www.w3.org/1999/xlink">
<g id="graph0" class="graph" transform="scale(1 1) rotate(0) translate(4 405)">
<title>KMS</title>
<polygon fill="white" stroke="transparent" points="-4,4 -4,-405 450,-405 450,4 -4,4"/>
<g id="clust1" class="cluster">
<title>cluster_static</title>
<polygon fill="none" stroke="black" stroke-dasharray="5,2" points="83,-91 83,-310 369,-310 369,-91 83,-91"/>
<text text-anchor="middle" x="226" y="-294.8" font-family="Times,serif" font-size="14.00">Static Objects</text>
</g>
<g id="clust2" class="cluster">
<title>cluster_user_created</title>
<polygon fill="none" stroke="black" stroke-dasharray="5,2" points="8,-318 8,-393 438,-393 438,-318 8,-318"/>
<text text-anchor="middle" x="223" y="-377.8" font-family="Times,serif" font-size="14.00">Userspace&#45;Created</text>
</g>
<g id="clust3" class="cluster">
<title>cluster_connector</title>
<polygon fill="none" stroke="black" stroke-dasharray="5,2" points="69,-8 69,-83 383,-83 383,-8 69,-8"/>
<text text-anchor="middle" x="226" y="-67.8" font-family="Times,serif" font-size="14.00">Hotpluggable</text>
</g>
<!-- drm_plane A -->
<g id="node1" class="node">
<title>drm_plane A</title>
<polygon fill="lightgrey" stroke="black" points="345.5,-279 238.5,-279 238.5,-243 345.5,-243 345.5,-279"/>
<text text-anchor="middle" x="292" y="-257.3" font-family="Times,serif" font-size="14.00">drm_plane A</text>
</g>
<!-- drm_crtc -->
<g id="node2" class="node">
<title>drm_crtc</title>
<polygon fill="lightgrey" stroke="black" points="202.5,-207 119.5,-207 119.5,-171 202.5,-171 202.5,-207"/>
<text text-anchor="middle" x="161" y="-185.3" font-family="Times,serif" font-size="14.00">drm_crtc</text>
</g>
<!-- drm_plane A&#45;&gt;drm_crtc -->
<g id="edge1" class="edge">
<title>drm_plane A&#45;&gt;drm_crtc</title>
<path fill="none" stroke="black" d="M259.95,-242.88C242.51,-233.55 220.73,-221.92 202.06,-211.94"/>
<polygon fill="black" stroke="black" points="203.64,-208.82 193.17,-207.19 200.34,-214.99 203.64,-208.82"/>
</g>
<!-- drm_encoder A -->
<g id="node4" class="node">
<title>drm_encoder A</title>
<polygon fill="lightgrey" stroke="black" points="217,-135 91,-135 91,-99 217,-99 217,-135"/>
<text text-anchor="middle" x="154" y="-113.3" font-family="Times,serif" font-size="14.00">drm_encoder A</text>
</g>
<!-- drm_crtc&#45;&gt;drm_encoder A -->
<g id="edge3" class="edge">
<title>drm_crtc&#45;&gt;drm_encoder A</title>
<path fill="none" stroke="black" d="M159.27,-170.7C158.5,-162.98 157.57,-153.71 156.71,-145.11"/>
<polygon fill="black" stroke="black" points="160.19,-144.71 155.71,-135.1 153.22,-145.4 160.19,-144.71"/>
</g>
<!-- drm_encoder B -->
<g id="node5" class="node">
<title>drm_encoder B</title>
<polygon fill="lightgrey" stroke="black" points="361,-135 235,-135 235,-99 361,-99 361,-135"/>
<text text-anchor="middle" x="298" y="-113.3" font-family="Times,serif" font-size="14.00">drm_encoder B</text>
</g>
<!-- drm_crtc&#45;&gt;drm_encoder B -->
<g id="edge4" class="edge">
<title>drm_crtc&#45;&gt;drm_encoder B</title>
<path fill="none" stroke="black" d="M194.51,-170.88C212.84,-161.51 235.74,-149.81 255.33,-139.8"/>
<polygon fill="black" stroke="black" points="257.04,-142.86 264.36,-135.19 253.86,-136.62 257.04,-142.86"/>
</g>
<!-- drm_plane B -->
<g id="node3" class="node">
<title>drm_plane B</title>
<polygon fill="lightgrey" stroke="black" points="206.5,-279 99.5,-279 99.5,-243 206.5,-243 206.5,-279"/>
<text text-anchor="middle" x="153" y="-257.3" font-family="Times,serif" font-size="14.00">drm_plane B</text>
</g>
<!-- drm_plane B&#45;&gt;drm_crtc -->
<g id="edge2" class="edge">
<title>drm_plane B&#45;&gt;drm_crtc</title>
<path fill="none" stroke="black" d="M154.98,-242.7C155.86,-234.98 156.92,-225.71 157.9,-217.11"/>
<polygon fill="black" stroke="black" points="161.39,-217.44 159.05,-207.1 154.43,-216.64 161.39,-217.44"/>
</g>
<!-- drm_connector A -->
<g id="node8" class="node">
<title>drm_connector A</title>
<polygon fill="none" stroke="black" points="217,-52 77,-52 77,-16 217,-16 217,-52"/>
<text text-anchor="middle" x="147" y="-30.3" font-family="Times,serif" font-size="14.00">drm_connector A</text>
</g>
<!-- drm_encoder A&#45;&gt;drm_connector A -->
<g id="edge7" class="edge">
<title>drm_encoder A&#45;&gt;drm_connector A</title>
<path fill="none" stroke="black" d="M152.52,-98.82C151.6,-88.19 150.4,-74.31 149.35,-62.2"/>
<polygon fill="black" stroke="black" points="152.83,-61.81 148.48,-52.15 145.86,-62.42 152.83,-61.81"/>
</g>
<!-- drm_connector B -->
<g id="node9" class="node">
<title>drm_connector B</title>
<polygon fill="none" stroke="black" points="375,-52 235,-52 235,-16 375,-16 375,-52"/>
<text text-anchor="middle" x="305" y="-30.3" font-family="Times,serif" font-size="14.00">drm_connector B</text>
</g>
<!-- drm_encoder B&#45;&gt;drm_connector B -->
<g id="edge8" class="edge">
<title>drm_encoder B&#45;&gt;drm_connector B</title>
<path fill="none" stroke="black" d="M299.48,-98.82C300.4,-88.19 301.6,-74.31 302.65,-62.2"/>
<polygon fill="black" stroke="black" points="306.14,-62.42 303.52,-52.15 299.17,-61.81 306.14,-62.42"/>
</g>
<!-- drm_framebuffer 1 -->
<g id="node6" class="node">
<title>drm_framebuffer 1</title>
<ellipse fill="none" stroke="black" cx="331" cy="-344" rx="98.58" ry="18"/>
<text text-anchor="middle" x="331" y="-340.3" font-family="Times,serif" font-size="14.00">drm_framebuffer 1</text>
</g>
<!-- drm_framebuffer 1&#45;&gt;drm_plane A -->
<g id="edge5" class="edge">
<title>drm_framebuffer 1&#45;&gt;drm_plane A</title>
<path fill="none" stroke="black" d="M322.73,-325.82C317.51,-314.98 310.65,-300.74 304.75,-288.47"/>
<polygon fill="black" stroke="black" points="307.75,-286.64 300.26,-279.15 301.44,-289.68 307.75,-286.64"/>
</g>
<!-- drm_framebuffer 2 -->
<g id="node7" class="node">
<title>drm_framebuffer 2</title>
<ellipse fill="none" stroke="black" cx="115" cy="-344" rx="98.58" ry="18"/>
<text text-anchor="middle" x="115" y="-340.3" font-family="Times,serif" font-size="14.00">drm_framebuffer 2</text>
</g>
<!-- drm_framebuffer 2&#45;&gt;drm_plane B -->
<g id="edge6" class="edge">
<title>drm_framebuffer 2&#45;&gt;drm_plane B</title>
<path fill="none" stroke="black" d="M123.06,-325.82C128.15,-314.98 134.82,-300.74 140.58,-288.47"/>
<polygon fill="black" stroke="black" points="143.87,-289.69 144.95,-279.15 137.54,-286.72 143.87,-289.69"/>
</g>
</g>
</svg>
