<?xml version="1.0" encoding="UTF-8" standalone="no"?>
<!DOCTYPE svg PUBLIC "-//W3C//DTD SVG 1.1//EN"
 "http://www.w3.org/Graphics/SVG/1.1/DTD/svg11.dtd">
<!-- Generated by graphviz version 2.43.0 (0)
 -->
<!-- Title: single_ppl Pages: 1 -->
<svg width="364pt" height="44pt"
 viewBox="0.00 0.00 364.00 44.00" xmlns="http://www.w3.org/2000/svg" xmlns:xlink="http://www.w3.org/1999/xlink">
<g id="graph0" class="graph" transform="scale(1 1) rotate(0) translate(4 40)">
<title>single_ppl</title>
<polygon fill="white" stroke="transparent" points="-4,4 -4,-40 360,-40 360,4 -4,4"/>
<!-- Compiz -->
<g id="node1" class="node">
<title>Compiz</title>
<polygon fill="none" stroke="black" points="71,-36 0,-36 0,0 71,0 71,-36"/>
<text text-anchor="middle" x="35.5" y="-14.3" font-family="Times,serif" font-size="14.00">Compiz</text>
</g>
<!-- Improc -->
<g id="node2" class="node">
<title>Improc</title>
<polygon fill="none" stroke="black" points="175,-36 107,-36 107,0 175,0 175,-36"/>
<text text-anchor="middle" x="141" y="-14.3" font-family="Times,serif" font-size="14.00">Improc</text>
</g>
<!-- Compiz&#45;&gt;Improc -->
<g id="edge1" class="edge">
<title>Compiz&#45;&gt;Improc</title>
<path fill="none" stroke="black" d="M71.25,-18C79.44,-18 88.26,-18 96.76,-18"/>
<polygon fill="black" stroke="black" points="96.92,-21.5 106.92,-18 96.92,-14.5 96.92,-21.5"/>
</g>
<!-- Timing Controller -->
<g id="node3" class="node">
<title>Timing Controller</title>
<polygon fill="none" stroke="black" points="356,-36 211,-36 211,0 356,0 356,-36"/>
<text text-anchor="middle" x="283.5" y="-14.3" font-family="Times,serif" font-size="14.00">Timing Controller</text>
</g>
<!-- Improc&#45;&gt;Timing Controller -->
<g id="edge2" class="edge">
<title>Improc&#45;&gt;Timing Controller</title>
<path fill="none" stroke="black" d="M175.3,-18C183.14,-18 191.84,-18 200.79,-18"/>
<polygon fill="black" stroke="black" points="200.98,-21.5 210.98,-18 200.98,-14.5 200.98,-21.5"/>
</g>
</g>
</svg>
