<?xml version="1.0" encoding="UTF-8" standalone="no"?>
<!DOCTYPE svg PUBLIC "-//W3C//DTD SVG 1.1//EN"
 "http://www.w3.org/Graphics/SVG/1.1/DTD/svg11.dtd">
<!-- Generated by graphviz version 2.43.0 (0)
 -->
<!-- Title: Output Pipeline Pages: 1 -->
<svg width="608pt" height="362pt"
 viewBox="0.00 0.00 608.00 362.00" xmlns="http://www.w3.org/2000/svg" xmlns:xlink="http://www.w3.org/1999/xlink">
<g id="graph0" class="graph" transform="scale(1 1) rotate(0) translate(4 358)">
<title>Output Pipeline</title>
<polygon fill="white" stroke="transparent" points="-4,4 -4,-358 604,-358 604,4 -4,4"/>
<g id="clust2" class="cluster">
<title>cluster_internal</title>
<polygon fill="none" stroke="black" stroke-dasharray="5,2" points="139,-91 139,-310 571,-310 571,-91 139,-91"/>
<text text-anchor="middle" x="355" y="-294.8" font-family="Times,serif" font-size="14.00">Internal Pipeline</text>
</g>
<g id="clust5" class="cluster">
<title>cluster_output</title>
<polygon fill="none" stroke="black" stroke-dasharray="5,2" points="8,-8 8,-83 592,-83 592,-8 8,-8"/>
<text text-anchor="middle" x="300" y="-67.8" font-family="Times,serif" font-size="14.00">Outputs</text>
</g>
<!-- drm_crtc -->
<g id="node1" class="node">
<title>drm_crtc</title>
<polygon fill="lightgrey" stroke="black" points="397.5,-354 314.5,-354 314.5,-318 397.5,-318 397.5,-354"/>
<text text-anchor="middle" x="356" y="-332.3" font-family="Times,serif" font-size="14.00">drm_crtc</text>
</g>
<!-- drm_encoder A -->
<g id="node2" class="node">
<title>drm_encoder A</title>
<polygon fill="lightgrey" stroke="black" points="563,-279 437,-279 437,-243 563,-243 563,-279"/>
<text text-anchor="middle" x="500" y="-257.3" font-family="Times,serif" font-size="14.00">drm_encoder A</text>
</g>
<!-- drm_crtc&#45;&gt;drm_encoder A -->
<g id="edge4" class="edge">
<title>drm_crtc&#45;&gt;drm_encoder A</title>
<path fill="none" stroke="black" d="M397.86,-322.48C407.93,-318.92 418.52,-314.71 428,-310 442.21,-302.94 456.95,-293.53 469.37,-284.92"/>
<polygon fill="black" stroke="black" points="471.42,-287.76 477.55,-279.12 467.37,-282.05 471.42,-287.76"/>
</g>
<!-- drm_encoder B -->
<g id="node3" class="node">
<title>drm_encoder B</title>
<polygon fill="lightgrey" stroke="black" points="419,-279 293,-279 293,-243 419,-243 419,-279"/>
<text text-anchor="middle" x="356" y="-257.3" font-family="Times,serif" font-size="14.00">drm_encoder B</text>
</g>
<!-- drm_crtc&#45;&gt;drm_encoder B -->
<g id="edge5" class="edge">
<title>drm_crtc&#45;&gt;drm_encoder B</title>
<path fill="none" stroke="black" d="M356,-317.7C356,-309.25 356,-298.87 356,-289.37"/>
<polygon fill="black" stroke="black" points="359.5,-289.18 356,-279.18 352.5,-289.18 359.5,-289.18"/>
</g>
<!-- drm_encoder C -->
<g id="node4" class="node">
<title>drm_encoder C</title>
<polygon fill="lightgrey" stroke="black" points="274.5,-279 147.5,-279 147.5,-243 274.5,-243 274.5,-279"/>
<text text-anchor="middle" x="211" y="-257.3" font-family="Times,serif" font-size="14.00">drm_encoder C</text>
</g>
<!-- drm_crtc&#45;&gt;drm_encoder C -->
<g id="edge6" class="edge">
<title>drm_crtc&#45;&gt;drm_encoder C</title>
<path fill="none" stroke="black" d="M314.16,-322.43C304.09,-318.88 293.5,-314.68 284,-310 269.63,-302.92 254.69,-293.51 242.1,-284.9"/>
<polygon fill="black" stroke="black" points="243.99,-281.95 233.79,-279.1 239.99,-287.69 243.99,-281.95"/>
</g>
<!-- drm_connector A -->
<g id="node8" class="node">
<title>drm_connector A</title>
<polygon fill="none" stroke="black" points="584,-52 444,-52 444,-16 584,-16 584,-52"/>
<text text-anchor="middle" x="514" y="-30.3" font-family="Times,serif" font-size="14.00">drm_connector A</text>
</g>
<!-- drm_encoder A&#45;&gt;drm_connector A -->
<g id="edge7" class="edge">
<title>drm_encoder A&#45;&gt;drm_connector A</title>
<path fill="none" stroke="black" d="M501.08,-242.72C503.5,-203.77 509.4,-108.88 512.32,-62.05"/>
<polygon fill="black" stroke="black" points="515.81,-62.23 512.94,-52.03 508.83,-61.8 515.81,-62.23"/>
</g>
<!-- drm_bridge B -->
<g id="node5" class="node">
<title>drm_bridge B</title>
<polygon fill="lightgrey" stroke="black" points="413.5,-207 298.5,-207 298.5,-171 413.5,-171 413.5,-207"/>
<text text-anchor="middle" x="356" y="-185.3" font-family="Times,serif" font-size="14.00">drm_bridge B</text>
</g>
<!-- drm_encoder B&#45;&gt;drm_bridge B -->
<g id="edge1" class="edge">
<title>drm_encoder B&#45;&gt;drm_bridge B</title>
<path fill="none" stroke="black" d="M356,-242.7C356,-234.98 356,-225.71 356,-217.11"/>
<polygon fill="black" stroke="black" points="359.5,-217.1 356,-207.1 352.5,-217.1 359.5,-217.1"/>
</g>
<!-- drm_bridge C1 -->
<g id="node6" class="node">
<title>drm_bridge C1</title>
<polygon fill="lightgrey" stroke="black" points="272.5,-207 147.5,-207 147.5,-171 272.5,-171 272.5,-207"/>
<text text-anchor="middle" x="210" y="-185.3" font-family="Times,serif" font-size="14.00">drm_bridge C1</text>
</g>
<!-- drm_encoder C&#45;&gt;drm_bridge C1 -->
<g id="edge2" class="edge">
<title>drm_encoder C&#45;&gt;drm_bridge C1</title>
<path fill="none" stroke="black" d="M210.75,-242.7C210.64,-234.98 210.51,-225.71 210.39,-217.11"/>
<polygon fill="black" stroke="black" points="213.89,-217.05 210.24,-207.1 206.89,-217.15 213.89,-217.05"/>
</g>
<!-- drm_connector B -->
<g id="node9" class="node">
<title>drm_connector B</title>
<polygon fill="none" stroke="black" points="426,-52 286,-52 286,-16 426,-16 426,-52"/>
<text text-anchor="middle" x="356" y="-30.3" font-family="Times,serif" font-size="14.00">drm_connector B</text>
</g>
<!-- drm_bridge B&#45;&gt;drm_connector B -->
<g id="edge8" class="edge">
<title>drm_bridge B&#45;&gt;drm_connector B</title>
<path fill="none" stroke="black" d="M356,-170.75C356,-144.46 356,-94.13 356,-62.69"/>
<polygon fill="black" stroke="black" points="359.5,-62.43 356,-52.43 352.5,-62.43 359.5,-62.43"/>
</g>
<!-- drm_bridge C2 -->
<g id="node7" class="node">
<title>drm_bridge C2</title>
<polygon fill="lightgrey" stroke="black" points="272.5,-135 147.5,-135 147.5,-99 272.5,-99 272.5,-135"/>
<text text-anchor="middle" x="210" y="-113.3" font-family="Times,serif" font-size="14.00">drm_bridge C2</text>
</g>
<!-- drm_bridge C1&#45;&gt;drm_bridge C2 -->
<g id="edge3" class="edge">
<title>drm_bridge C1&#45;&gt;drm_bridge C2</title>
<path fill="none" stroke="black" d="M210,-170.7C210,-162.98 210,-153.71 210,-145.11"/>
<polygon fill="black" stroke="black" points="213.5,-145.1 210,-135.1 206.5,-145.1 213.5,-145.1"/>
</g>
<!-- drm_connector C -->
<g id="node10" class="node">
<title>drm_connector C</title>
<polygon fill="none" stroke="black" points="267.5,-52 126.5,-52 126.5,-16 267.5,-16 267.5,-52"/>
<text text-anchor="middle" x="197" y="-30.3" font-family="Times,serif" font-size="14.00">drm_connector C</text>
</g>
<!-- drm_bridge C2&#45;&gt;drm_connector C -->
<g id="edge9" class="edge">
<title>drm_bridge C2&#45;&gt;drm_connector C</title>
<path fill="none" stroke="black" d="M207.24,-98.82C205.54,-88.19 203.31,-74.31 201.37,-62.2"/>
<polygon fill="black" stroke="black" points="204.79,-61.47 199.75,-52.15 197.88,-62.58 204.79,-61.47"/>
</g>
<!-- drm_panel -->
<g id="node11" class="node">
<title>drm_panel</title>
<polygon fill="none" stroke="black" points="108,-52 16,-52 16,-16 108,-16 108,-52"/>
<text text-anchor="middle" x="62" y="-30.3" font-family="Times,serif" font-size="14.00">drm_panel</text>
</g>
</g>
</svg>
