<?xml version="1.0" encoding="UTF-8" standalone="no"?>
<!DOCTYPE svg PUBLIC "-//W3C//DTD SVG 1.1//EN"
 "http://www.w3.org/Graphics/SVG/1.1/DTD/svg11.dtd">
<!-- Generated by graphviz version 2.43.0 (0)
 -->
<!-- Title: layer_data_flow Pages: 1 -->
<svg width="418pt" height="98pt"
 viewBox="0.00 0.00 418.00 98.00" xmlns="http://www.w3.org/2000/svg" xmlns:xlink="http://www.w3.org/1999/xlink">
<g id="graph0" class="graph" transform="scale(1 1) rotate(0) translate(4 94)">
<title>layer_data_flow</title>
<polygon fill="white" stroke="transparent" points="-4,4 -4,-94 414,-94 414,4 -4,4"/>
<!-- Layer&#45;0/1 -->
<g id="node1" class="node">
<title>Layer&#45;0/1</title>
<polygon fill="none" stroke="black" points="85,-90 0,-90 0,-54 85,-54 85,-90"/>
<text text-anchor="middle" x="42.5" y="-68.3" font-family="Times,serif" font-size="14.00">Layer&#45;0/1</text>
</g>
<!-- Scaler&#45;0 -->
<g id="node2" class="node">
<title>Scaler&#45;0</title>
<polygon fill="none" stroke="black" points="197,-90 121,-90 121,-54 197,-54 197,-90"/>
<text text-anchor="middle" x="159" y="-68.3" font-family="Times,serif" font-size="14.00">Scaler&#45;0</text>
</g>
<!-- Layer&#45;0/1&#45;&gt;Scaler&#45;0 -->
<g id="edge1" class="edge">
<title>Layer&#45;0/1&#45;&gt;Scaler&#45;0</title>
<path fill="none" stroke="black" d="M85.16,-72C93.43,-72 102.18,-72 110.63,-72"/>
<polygon fill="black" stroke="black" points="110.73,-75.5 120.73,-72 110.73,-68.5 110.73,-75.5"/>
</g>
<!-- Merger -->
<g id="node3" class="node">
<title>Merger</title>
<polygon fill="none" stroke="black" points="303,-63 233,-63 233,-27 303,-27 303,-63"/>
<text text-anchor="middle" x="268" y="-41.3" font-family="Times,serif" font-size="14.00">Merger</text>
</g>
<!-- Scaler&#45;0&#45;&gt;Merger -->
<g id="edge2" class="edge">
<title>Scaler&#45;0&#45;&gt;Merger</title>
<path fill="none" stroke="black" d="M197.12,-62.63C205.45,-60.53 214.37,-58.28 222.95,-56.12"/>
<polygon fill="black" stroke="black" points="223.97,-59.47 232.81,-53.63 222.26,-52.68 223.97,-59.47"/>
</g>
<!-- Compiz -->
<g id="node6" class="node">
<title>Compiz</title>
<polygon fill="none" stroke="black" points="410,-63 339,-63 339,-27 410,-27 410,-63"/>
<text text-anchor="middle" x="374.5" y="-41.3" font-family="Times,serif" font-size="14.00">Compiz</text>
</g>
<!-- Merger&#45;&gt;Compiz -->
<g id="edge5" class="edge">
<title>Merger&#45;&gt;Compiz</title>
<path fill="none" stroke="black" d="M303.22,-45C311.34,-45 320.13,-45 328.65,-45"/>
<polygon fill="black" stroke="black" points="328.85,-48.5 338.85,-45 328.85,-41.5 328.85,-48.5"/>
</g>
<!-- Layer&#45;2/3 -->
<g id="node4" class="node">
<title>Layer&#45;2/3</title>
<polygon fill="none" stroke="black" points="85,-36 0,-36 0,0 85,0 85,-36"/>
<text text-anchor="middle" x="42.5" y="-14.3" font-family="Times,serif" font-size="14.00">Layer&#45;2/3</text>
</g>
<!-- Scaler&#45;1 -->
<g id="node5" class="node">
<title>Scaler&#45;1</title>
<polygon fill="none" stroke="black" points="197,-36 121,-36 121,0 197,0 197,-36"/>
<text text-anchor="middle" x="159" y="-14.3" font-family="Times,serif" font-size="14.00">Scaler&#45;1</text>
</g>
<!-- Layer&#45;2/3&#45;&gt;Scaler&#45;1 -->
<g id="edge3" class="edge">
<title>Layer&#45;2/3&#45;&gt;Scaler&#45;1</title>
<path fill="none" stroke="black" d="M85.16,-18C93.43,-18 102.18,-18 110.63,-18"/>
<polygon fill="black" stroke="black" points="110.73,-21.5 120.73,-18 110.73,-14.5 110.73,-21.5"/>
</g>
<!-- Scaler&#45;1&#45;&gt;Merger -->
<g id="edge4" class="edge">
<title>Scaler&#45;1&#45;&gt;Merger</title>
<path fill="none" stroke="black" d="M197.12,-27.37C205.45,-29.47 214.37,-31.72 222.95,-33.88"/>
<polygon fill="black" stroke="black" points="222.26,-37.32 232.81,-36.37 223.97,-30.53 222.26,-37.32"/>
</g>
</g>
</svg>
