<?xml version="1.0" encoding="UTF-8" standalone="no"?>
<!DOCTYPE svg PUBLIC "-//W3C//DTD SVG 1.1//EN"
 "http://www.w3.org/Graphics/SVG/1.1/DTD/svg11.dtd">
<!-- Generated by graphviz version 2.43.0 (0)
 -->
<!-- Title: decoder_state_machine Pages: 1 -->
<svg width="1445pt" height="1083pt"
 viewBox="0.00 0.00 1444.54 1082.72" xmlns="http://www.w3.org/2000/svg" xmlns:xlink="http://www.w3.org/1999/xlink">
<g id="graph0" class="graph" transform="scale(1 1) rotate(0) translate(4 1078.72)">
<title>decoder_state_machine</title>
<polygon fill="white" stroke="transparent" points="-4,4 -4,-1078.72 1440.54,-1078.72 1440.54,4 -4,4"/>
<!-- Decoding -->
<g id="node1" class="node">
<title>Decoding</title>
<ellipse fill="none" stroke="black" cx="653.54" cy="-1016.12" rx="54.68" ry="54.68"/>
<ellipse fill="none" stroke="black" cx="653.54" cy="-1016.12" rx="58.69" ry="58.69"/>
<text text-anchor="middle" x="653.54" y="-1012.42" font-family="Times,serif" font-size="14.00">Decoding</text>
</g>
<!-- Decoding&#45;&gt;Decoding -->
<g id="edge9" class="edge">
<title>Decoding&#45;&gt;Decoding</title>
<path fill="none" stroke="black" d="M709.65,-1033.9C721.54,-1032.1 730.13,-1026.17 730.13,-1016.12 730.13,-1009.21 726.07,-1004.25 719.67,-1001.24"/>
<polygon fill="black" stroke="black" points="720.23,-997.76 709.65,-998.34 718.28,-1004.48 720.23,-997.76"/>
</g>
<!-- ResChange -->
<g id="node4" class="node">
<title>ResChange</title>
<ellipse fill="none" stroke="black" cx="248.54" cy="-798.53" rx="65.11" ry="65.11"/>
<text text-anchor="middle" x="248.54" y="-809.83" font-family="Times,serif" font-size="14.00">Dynamic</text>
<text text-anchor="middle" x="248.54" y="-794.83" font-family="Times,serif" font-size="14.00">Resolution</text>
<text text-anchor="middle" x="248.54" y="-779.83" font-family="Times,serif" font-size="14.00">Change</text>
</g>
<!-- Decoding&#45;&gt;ResChange -->
<g id="edge4" class="edge">
<title>Decoding&#45;&gt;ResChange</title>
<path fill="none" stroke="black" d="M594.75,-1012.38C495.75,-1006.45 302.25,-988.72 258.54,-939.53 242.6,-921.6 237.45,-896.76 237.13,-872.97"/>
<polygon fill="black" stroke="black" points="240.63,-872.91 237.28,-862.87 233.63,-872.81 240.63,-872.91"/>
<text text-anchor="middle" x="295.04" y="-928.33" font-family="Times,serif" font-size="14.00">Stream</text>
<text text-anchor="middle" x="295.04" y="-913.33" font-family="Times,serif" font-size="14.00">resolution</text>
<text text-anchor="middle" x="295.04" y="-898.33" font-family="Times,serif" font-size="14.00">change</text>
</g>
<!-- Stopped -->
<g id="node5" class="node">
<title>Stopped</title>
<ellipse fill="none" stroke="black" cx="611.54" cy="-388.08" rx="49.29" ry="49.29"/>
<text text-anchor="middle" x="611.54" y="-384.38" font-family="Times,serif" font-size="14.00">Stopped</text>
</g>
<!-- Decoding&#45;&gt;Stopped -->
<g id="edge8" class="edge">
<title>Decoding&#45;&gt;Stopped</title>
<path fill="none" stroke="black" d="M607.27,-979.91C542.87,-927.64 429.12,-822.69 384.54,-702.54 377.58,-683.79 371.03,-672.29 384.54,-657.54 415.11,-624.13 555.4,-671.45 587.54,-639.54 637.54,-589.89 634.06,-503.36 624.64,-446.15"/>
<polygon fill="black" stroke="black" points="628.06,-445.42 622.89,-436.17 621.17,-446.63 628.06,-445.42"/>
<text text-anchor="middle" x="508.04" y="-676.34" font-family="Times,serif" font-size="14.00">VIDIOC_STREAMOFF(CAPTURE)</text>
</g>
<!-- Drain -->
<g id="node6" class="node">
<title>Drain</title>
<ellipse fill="none" stroke="black" cx="923.54" cy="-586.51" rx="36.29" ry="36.29"/>
<text text-anchor="middle" x="923.54" y="-582.81" font-family="Times,serif" font-size="14.00">Drain</text>
</g>
<!-- Decoding&#45;&gt;Drain -->
<g id="edge5" class="edge">
<title>Decoding&#45;&gt;Drain</title>
<path fill="none" stroke="black" d="M674.33,-961.22C702.42,-895.3 758.57,-784.61 840.54,-720.54 860.47,-704.96 877.33,-721.08 894.54,-702.54 911.8,-683.93 919.17,-656.57 922.16,-633.21"/>
<polygon fill="black" stroke="black" points="925.65,-633.45 923.22,-623.14 918.69,-632.71 925.65,-633.45"/>
<text text-anchor="middle" x="926.54" y="-794.83" font-family="Times,serif" font-size="14.00">V4L2_DEC_CMD_STOP</text>
</g>
<!-- Seek -->
<g id="node7" class="node">
<title>Seek</title>
<ellipse fill="none" stroke="black" cx="443.54" cy="-223.88" rx="33.6" ry="33.6"/>
<text text-anchor="middle" x="443.54" y="-220.18" font-family="Times,serif" font-size="14.00">Seek</text>
</g>
<!-- Decoding&#45;&gt;Seek -->
<g id="edge7" class="edge">
<title>Decoding&#45;&gt;Seek</title>
<path fill="none" stroke="black" d="M596.69,-1001.36C535.29,-983.39 439.45,-945.74 388.54,-876.53 343.01,-814.63 318.23,-605.29 345.54,-533.47 349.34,-523.47 356.4,-524.86 361.54,-515.47 406.06,-434.14 428.2,-326.47 437.64,-267.69"/>
<polygon fill="black" stroke="black" points="441.12,-268.07 439.2,-257.65 434.21,-266.99 441.12,-268.07"/>
<text text-anchor="middle" x="464.54" y="-582.81" font-family="Times,serif" font-size="14.00">VIDIOC_STREAMOFF(OUTPUT)</text>
</g>
<!-- EoS -->
<g id="node8" class="node">
<title>EoS</title>
<ellipse fill="none" stroke="black" cx="1099.54" cy="-798.53" rx="77.99" ry="77.99"/>
<text text-anchor="middle" x="1099.54" y="-794.83" font-family="Times,serif" font-size="14.00">End of Stream</text>
</g>
<!-- Decoding&#45;&gt;EoS -->
<g id="edge6" class="edge">
<title>Decoding&#45;&gt;EoS</title>
<path fill="none" stroke="black" d="M709.75,-999.31C781.81,-977.69 909.17,-934.82 1007.54,-876.53 1016.66,-871.12 1025.79,-864.82 1034.57,-858.19"/>
<polygon fill="black" stroke="black" points="1036.76,-860.92 1042.52,-852.03 1032.47,-855.39 1036.76,-860.92"/>
<text text-anchor="middle" x="1020.04" y="-920.83" font-family="Times,serif" font-size="14.00">EoS mark</text>
<text text-anchor="middle" x="1020.04" y="-905.83" font-family="Times,serif" font-size="14.00">in the stream</text>
</g>
<!-- Initialization -->
<g id="node2" class="node">
<title>Initialization</title>
<ellipse fill="none" stroke="black" cx="330.54" cy="-69.54" rx="69.59" ry="69.59"/>
<text text-anchor="middle" x="330.54" y="-65.84" font-family="Times,serif" font-size="14.00">Initialization</text>
</g>
<!-- CaptureSetup -->
<g id="node3" class="node">
<title>CaptureSetup</title>
<ellipse fill="none" stroke="black" cx="252.54" cy="-586.51" rx="53.07" ry="53.07"/>
<text text-anchor="middle" x="252.54" y="-590.31" font-family="Times,serif" font-size="14.00">Capture</text>
<text text-anchor="middle" x="252.54" y="-575.31" font-family="Times,serif" font-size="14.00">setup</text>
</g>
<!-- Initialization&#45;&gt;CaptureSetup -->
<g id="edge2" class="edge">
<title>Initialization&#45;&gt;CaptureSetup</title>
<path fill="none" stroke="black" d="M311.34,-136.51C300.42,-176.46 287.39,-228.62 279.54,-275.68 265.34,-360.81 258.34,-460.43 255.09,-523.25"/>
<polygon fill="black" stroke="black" points="251.59,-523.23 254.58,-533.39 258.58,-523.58 251.59,-523.23"/>
<text text-anchor="middle" x="320.54" y="-309.48" font-family="Times,serif" font-size="14.00">CAPTURE</text>
<text text-anchor="middle" x="320.54" y="-294.48" font-family="Times,serif" font-size="14.00">format</text>
<text text-anchor="middle" x="320.54" y="-279.48" font-family="Times,serif" font-size="14.00">established</text>
</g>
<!-- CaptureSetup&#45;&gt;Stopped -->
<g id="edge3" class="edge">
<title>CaptureSetup&#45;&gt;Stopped</title>
<path fill="none" stroke="black" d="M294.16,-553.22C303.61,-546.39 313.76,-539.45 323.54,-533.47 401.91,-485.57 498.24,-439.71 557.24,-412.98"/>
<polygon fill="black" stroke="black" points="558.71,-416.16 566.38,-408.86 555.83,-409.78 558.71,-416.16"/>
<text text-anchor="middle" x="501.04" y="-496.77" font-family="Times,serif" font-size="14.00">CAPTURE</text>
<text text-anchor="middle" x="501.04" y="-481.77" font-family="Times,serif" font-size="14.00">buffers</text>
<text text-anchor="middle" x="501.04" y="-466.77" font-family="Times,serif" font-size="14.00">ready</text>
</g>
<!-- ResChange&#45;&gt;CaptureSetup -->
<g id="edge10" class="edge">
<title>ResChange&#45;&gt;CaptureSetup</title>
<path fill="none" stroke="black" d="M248.52,-733.41C248.63,-709.58 248.92,-682.32 249.54,-657.54 249.6,-654.98 249.68,-652.38 249.76,-649.74"/>
<polygon fill="black" stroke="black" points="253.26,-649.62 250.1,-639.51 246.27,-649.39 253.26,-649.62"/>
<text text-anchor="middle" x="290.54" y="-691.34" font-family="Times,serif" font-size="14.00">CAPTURE</text>
<text text-anchor="middle" x="290.54" y="-676.34" font-family="Times,serif" font-size="14.00">format</text>
<text text-anchor="middle" x="290.54" y="-661.34" font-family="Times,serif" font-size="14.00">established</text>
</g>
<!-- ResChange&#45;&gt;Seek -->
<g id="edge11" class="edge">
<title>ResChange&#45;&gt;Seek</title>
<path fill="none" stroke="black" d="M193.9,-762.89C106.83,-703.06 -47.56,-575.24 14.54,-455.47 91.82,-306.42 307.3,-249.87 400.1,-231.99"/>
<polygon fill="black" stroke="black" points="400.82,-235.42 410.01,-230.14 399.54,-228.54 400.82,-235.42"/>
<text text-anchor="middle" x="133.54" y="-481.77" font-family="Times,serif" font-size="14.00">VIDIOC_STREAMOFF(OUTPUT)</text>
</g>
<!-- Stopped&#45;&gt;Decoding -->
<g id="edge17" class="edge">
<title>Stopped&#45;&gt;Decoding</title>
<path fill="none" stroke="black" d="M626.34,-435.56C628.01,-442.19 629.49,-448.96 630.54,-455.47 645.5,-548.24 650.98,-819.91 652.77,-947.48"/>
<polygon fill="black" stroke="black" points="649.27,-947.57 652.9,-957.52 656.27,-947.48 649.27,-947.57"/>
<text text-anchor="middle" x="766.54" y="-691.34" font-family="Times,serif" font-size="14.00">V4L2_DEC_CMD_START</text>
<text text-anchor="middle" x="766.54" y="-676.34" font-family="Times,serif" font-size="14.00">or</text>
<text text-anchor="middle" x="766.54" y="-661.34" font-family="Times,serif" font-size="14.00">VIDIOC_STREAMON(CAPTURE)</text>
</g>
<!-- Stopped&#45;&gt;Seek -->
<g id="edge18" class="edge">
<title>Stopped&#45;&gt;Seek</title>
<path fill="none" stroke="black" d="M576.32,-353.08C546.29,-324.08 503.53,-282.8 474.72,-254.99"/>
<polygon fill="black" stroke="black" points="476.97,-252.3 467.35,-247.87 472.11,-257.34 476.97,-252.3"/>
<text text-anchor="middle" x="661.54" y="-294.48" font-family="Times,serif" font-size="14.00">VIDIOC_STREAMOFF(OUTPUT)</text>
</g>
<!-- Drain&#45;&gt;Stopped -->
<g id="edge13" class="edge">
<title>Drain&#45;&gt;Stopped</title>
<path fill="none" stroke="black" d="M887.1,-584.87C834.53,-582.03 737.26,-569.26 678.54,-515.47 657.48,-496.18 668.62,-480.86 655.54,-455.47 652.47,-449.53 649,-443.46 645.37,-437.52"/>
<polygon fill="black" stroke="black" points="648.27,-435.56 639.99,-428.95 642.35,-439.28 648.27,-435.56"/>
<text text-anchor="middle" x="802.04" y="-504.27" font-family="Times,serif" font-size="14.00">All CAPTURE</text>
<text text-anchor="middle" x="802.04" y="-489.27" font-family="Times,serif" font-size="14.00">buffers dequeued</text>
<text text-anchor="middle" x="802.04" y="-474.27" font-family="Times,serif" font-size="14.00">or</text>
<text text-anchor="middle" x="802.04" y="-459.27" font-family="Times,serif" font-size="14.00">VIDIOC_STREAMOFF(CAPTURE)</text>
</g>
<!-- Drain&#45;&gt;Seek -->
<g id="edge14" class="edge">
<title>Drain&#45;&gt;Seek</title>
<path fill="none" stroke="black" d="M930.41,-550.54C934.18,-523.76 936.19,-486.31 925.54,-455.47 892.39,-359.49 873.87,-323.98 784.54,-275.68 743.34,-253.41 620.74,-265.39 574.54,-257.68 544.43,-252.65 511.05,-244.26 485.53,-237.22"/>
<polygon fill="black" stroke="black" points="486.38,-233.82 475.8,-234.5 484.49,-240.56 486.38,-233.82"/>
<text text-anchor="middle" x="1037.54" y="-384.38" font-family="Times,serif" font-size="14.00">VIDIOC_STREAMOFF(OUTPUT)</text>
</g>
<!-- Seek&#45;&gt;Decoding -->
<g id="edge15" class="edge">
<title>Seek&#45;&gt;Decoding</title>
<path fill="none" stroke="black" d="M475.78,-234.64C502.1,-242.19 540.39,-252.25 574.54,-257.68 715.9,-280.17 1205.54,-243.94 1205.54,-387.08 1205.54,-799.53 1205.54,-799.53 1205.54,-799.53 1205.54,-834.78 1207.98,-848.55 1186.54,-876.53 1151.32,-922.47 1127.08,-920.13 1072.54,-939.53 953.41,-981.89 806.42,-1001.39 721.98,-1009.67"/>
<polygon fill="black" stroke="black" points="721.62,-1006.19 712,-1010.62 722.29,-1013.15 721.62,-1006.19"/>
<text text-anchor="middle" x="1321.04" y="-582.81" font-family="Times,serif" font-size="14.00">VIDIOC_STREAMON(OUTPUT)</text>
</g>
<!-- Seek&#45;&gt;Initialization -->
<g id="edge16" class="edge">
<title>Seek&#45;&gt;Initialization</title>
<path fill="none" stroke="black" d="M410.3,-217.65C384,-211.58 348.9,-198.74 331.54,-172.09 326.87,-164.92 323.93,-156.82 322.24,-148.41"/>
<polygon fill="black" stroke="black" points="325.69,-147.81 320.8,-138.41 318.76,-148.81 325.69,-147.81"/>
<text text-anchor="middle" x="447.54" y="-160.89" font-family="Times,serif" font-size="14.00">VIDIOC_REQBUFS(OUTPUT, 0)</text>
</g>
<!-- EoS&#45;&gt;Drain -->
<g id="edge12" class="edge">
<title>EoS&#45;&gt;Drain</title>
<path fill="none" stroke="black" d="M1049.81,-738.19C1018.74,-701.11 979.76,-654.59 953.39,-623.13"/>
<polygon fill="black" stroke="black" points="955.74,-620.49 946.64,-615.07 950.38,-624.98 955.74,-620.49"/>
<text text-anchor="middle" x="1045.04" y="-683.84" font-family="Times,serif" font-size="14.00">Implicit</text>
<text text-anchor="middle" x="1045.04" y="-668.84" font-family="Times,serif" font-size="14.00">drain</text>
</g>
<!-- qi -->
<g id="node9" class="node">
<title>qi</title>
<ellipse fill="black" stroke="black" cx="585.54" cy="-223.88" rx="1.8" ry="1.8"/>
</g>
<!-- qi&#45;&gt;Initialization -->
<g id="edge1" class="edge">
<title>qi&#45;&gt;Initialization</title>
<path fill="none" stroke="black" d="M585.51,-221.79C585.25,-214.89 582.97,-177.17 563.54,-157.09 522.75,-114.93 459.58,-93.14 409.3,-81.98"/>
<polygon fill="black" stroke="black" points="409.93,-78.54 399.43,-79.88 408.48,-85.38 409.93,-78.54"/>
<text text-anchor="middle" x="595.54" y="-160.89" font-family="Times,serif" font-size="14.00">open()</text>
</g>
</g>
</svg>
