<?xml version="1.0" encoding="UTF-8" standalone="no"?>
<!DOCTYPE svg PUBLIC "-//W3C//DTD SVG 1.1//EN"
 "http://www.w3.org/Graphics/SVG/1.1/DTD/svg11.dtd">
<!-- Generated by graphviz version 2.43.0 (0)
 -->
<!-- Title: %3 Pages: 1 -->
<svg width="344pt" height="116pt"
 viewBox="0.00 0.00 344.00 116.00" xmlns="http://www.w3.org/2000/svg" xmlns:xlink="http://www.w3.org/1999/xlink">
<g id="graph0" class="graph" transform="scale(1 1) rotate(0) translate(4 112)">
<title>%3</title>
<polygon fill="white" stroke="transparent" points="-4,4 -4,-112 340,-112 340,4 -4,4"/>
<!-- drm_property A -->
<g id="node1" class="node">
<title>drm_property A</title>
<polygon fill="none" stroke="black" points="308,-108 177,-108 177,-72 308,-72 308,-108"/>
<text text-anchor="middle" x="242.5" y="-86.3" font-family="Times,serif" font-size="14.00">drm_property A</text>
</g>
<!-- drm_mode_object A -->
<g id="node2" class="node">
<title>drm_mode_object A</title>
<polygon fill="none" stroke="black" points="159,-36 0,-36 0,0 159,0 159,-36"/>
<text text-anchor="middle" x="79.5" y="-14.3" font-family="Times,serif" font-size="14.00">drm_mode_object A</text>
</g>
<!-- drm_property A&#45;&gt;drm_mode_object A -->
<g id="edge1" class="edge">
<title>drm_property A&#45;&gt;drm_mode_object A</title>
<path fill="none" stroke="black" d="M202.63,-71.88C180.34,-62.31 152.38,-50.3 128.74,-40.15"/>
<polygon fill="black" stroke="black" points="129.81,-36.8 119.24,-36.07 127.05,-43.23 129.81,-36.8"/>
</g>
<!-- drm_mode_object B -->
<g id="node3" class="node">
<title>drm_mode_object B</title>
<polygon fill="none" stroke="black" points="336,-36 177,-36 177,0 336,0 336,-36"/>
<text text-anchor="middle" x="256.5" y="-14.3" font-family="Times,serif" font-size="14.00">drm_mode_object B</text>
</g>
<!-- drm_property A&#45;&gt;drm_mode_object B -->
<g id="edge2" class="edge">
<title>drm_property A&#45;&gt;drm_mode_object B</title>
<path fill="none" stroke="black" d="M245.96,-71.7C247.5,-63.98 249.36,-54.71 251.08,-46.11"/>
<polygon fill="black" stroke="black" points="254.55,-46.6 253.08,-36.1 247.69,-45.22 254.55,-46.6"/>
</g>
<!-- drm_property B -->
<g id="node4" class="node">
<title>drm_property B</title>
<polygon fill="none" stroke="black" points="145,-108 14,-108 14,-72 145,-72 145,-108"/>
<text text-anchor="middle" x="79.5" y="-86.3" font-family="Times,serif" font-size="14.00">drm_property B</text>
</g>
<!-- drm_property B&#45;&gt;drm_mode_object A -->
<g id="edge3" class="edge">
<title>drm_property B&#45;&gt;drm_mode_object A</title>
<path fill="none" stroke="black" d="M79.5,-71.7C79.5,-63.98 79.5,-54.71 79.5,-46.11"/>
<polygon fill="black" stroke="black" points="83,-46.1 79.5,-36.1 76,-46.1 83,-46.1"/>
</g>
</g>
</svg>
