<?xml version="1.0" encoding="UTF-8" standalone="no"?>
<!DOCTYPE svg PUBLIC "-//W3C//DTD SVG 1.1//EN"
 "http://www.w3.org/Graphics/SVG/1.1/DTD/svg11.dtd">
<!-- Generated by graphviz version 2.43.0 (0)
 -->
<!-- Title: %3 Pages: 1 -->
<svg width="1605pt" height="412pt"
 viewBox="0.00 0.00 1605.00 412.00" xmlns="http://www.w3.org/2000/svg" xmlns:xlink="http://www.w3.org/1999/xlink">
<g id="graph0" class="graph" transform="scale(1 1) rotate(0) translate(4 408)">
<title>%3</title>
<polygon fill="white" stroke="transparent" points="-4,4 -4,-408 1601,-408 1601,4 -4,4"/>
<g id="clust1" class="cluster">
<title>cluster_state</title>
<polygon fill="none" stroke="black" stroke-dasharray="5,2" points="8,-248 8,-396 1250,-396 1250,-248 8,-248"/>
<text text-anchor="middle" x="629" y="-380.8" font-family="Times,serif" font-size="14.00">Free&#45;standing state</text>
</g>
<g id="clust2" class="cluster">
<title>cluster_current</title>
<polygon fill="none" stroke="black" stroke-dasharray="5,2" points="746,-8 746,-229 1589,-229 1589,-8 746,-8"/>
<text text-anchor="middle" x="1167.5" y="-213.8" font-family="Times,serif" font-size="14.00">Current state</text>
</g>
<!-- drm_atomic_state -->
<g id="node1" class="node">
<title>drm_atomic_state</title>
<polygon fill="none" stroke="black" points="784,-365 638,-365 638,-329 784,-329 784,-365"/>
<text text-anchor="middle" x="711" y="-343.3" font-family="Times,serif" font-size="14.00">drm_atomic_state</text>
</g>
<!-- duplicated drm_plane_state A -->
<g id="node2" class="node">
<title>duplicated drm_plane_state A</title>
<polygon fill="none" stroke="black" points="246.5,-292 15.5,-292 15.5,-256 246.5,-256 246.5,-292"/>
<text text-anchor="middle" x="131" y="-270.3" font-family="Times,serif" font-size="14.00">duplicated drm_plane_state A</text>
</g>
<!-- drm_atomic_state&#45;&gt;duplicated drm_plane_state A -->
<g id="edge1" class="edge">
<title>drm_atomic_state&#45;&gt;duplicated drm_plane_state A</title>
<path fill="none" stroke="black" d="M637.9,-337.76C549.9,-327.75 397.38,-310.1 256.92,-292.23"/>
<polygon fill="black" stroke="black" points="257.19,-288.74 246.83,-290.95 256.31,-295.68 257.19,-288.74"/>
</g>
<!-- duplicated drm_plane_state B -->
<g id="node3" class="node">
<title>duplicated drm_plane_state B</title>
<polygon fill="none" stroke="black" points="495.5,-292 264.5,-292 264.5,-256 495.5,-256 495.5,-292"/>
<text text-anchor="middle" x="380" y="-270.3" font-family="Times,serif" font-size="14.00">duplicated drm_plane_state B</text>
</g>
<!-- drm_atomic_state&#45;&gt;duplicated drm_plane_state B -->
<g id="edge2" class="edge">
<title>drm_atomic_state&#45;&gt;duplicated drm_plane_state B</title>
<path fill="none" stroke="black" d="M637.95,-330.33C588.32,-319.68 522.35,-305.53 469.55,-294.21"/>
<polygon fill="black" stroke="black" points="470.03,-290.73 459.52,-292.06 468.56,-297.58 470.03,-290.73"/>
</g>
<!-- duplicated drm_crtc_state -->
<g id="node4" class="node">
<title>duplicated drm_crtc_state</title>
<polygon fill="none" stroke="black" points="720,-292 514,-292 514,-256 720,-256 720,-292"/>
<text text-anchor="middle" x="617" y="-270.3" font-family="Times,serif" font-size="14.00">duplicated drm_crtc_state</text>
</g>
<!-- drm_atomic_state&#45;&gt;duplicated drm_crtc_state -->
<g id="edge3" class="edge">
<title>drm_atomic_state&#45;&gt;duplicated drm_crtc_state</title>
<path fill="none" stroke="black" d="M688.25,-328.81C676.12,-319.66 661.03,-308.26 647.87,-298.32"/>
<polygon fill="black" stroke="black" points="649.63,-295.26 639.55,-292.03 645.42,-300.85 649.63,-295.26"/>
</g>
<!-- duplicated drm_connector_state -->
<g id="node5" class="node">
<title>duplicated drm_connector_state</title>
<polygon fill="none" stroke="black" points="987.5,-292 738.5,-292 738.5,-256 987.5,-256 987.5,-292"/>
<text text-anchor="middle" x="863" y="-270.3" font-family="Times,serif" font-size="14.00">duplicated drm_connector_state</text>
</g>
<!-- drm_atomic_state&#45;&gt;duplicated drm_connector_state -->
<g id="edge4" class="edge">
<title>drm_atomic_state&#45;&gt;duplicated drm_connector_state</title>
<path fill="none" stroke="black" d="M747.41,-328.99C768.31,-319.23 794.76,-306.88 817.08,-296.45"/>
<polygon fill="black" stroke="black" points="818.78,-299.52 826.36,-292.11 815.82,-293.17 818.78,-299.52"/>
</g>
<!-- duplicated driver private state -->
<g id="node6" class="node">
<title>duplicated driver private state</title>
<polygon fill="none" stroke="black" points="1242,-292 1006,-292 1006,-256 1242,-256 1242,-292"/>
<text text-anchor="middle" x="1124" y="-270.3" font-family="Times,serif" font-size="14.00">duplicated driver private state</text>
</g>
<!-- drm_atomic_state&#45;&gt;duplicated driver private state -->
<g id="edge5" class="edge">
<title>drm_atomic_state&#45;&gt;duplicated driver private state</title>
<path fill="none" stroke="black" d="M784.36,-333.39C848.34,-322.39 942.05,-306.28 1014.83,-293.77"/>
<polygon fill="black" stroke="black" points="1015.7,-297.17 1024.96,-292.03 1014.51,-290.27 1015.7,-297.17"/>
</g>
<!-- drm_device -->
<g id="node7" class="node">
<title>drm_device</title>
<polygon fill="none" stroke="black" points="1206,-198 1106,-198 1106,-162 1206,-162 1206,-198"/>
<text text-anchor="middle" x="1156" y="-176.3" font-family="Times,serif" font-size="14.00">drm_device</text>
</g>
<!-- drm_atomic_state&#45;&gt;drm_device -->
<g id="edge16" class="edge">
<title>drm_atomic_state&#45;&gt;drm_device</title>
<path fill="none" stroke="black" d="M784.2,-344.03C924.52,-339.49 1220.26,-325.97 1251,-292 1264.12,-277.5 1260,-265.36 1251,-248 1241.02,-228.75 1222.69,-213.86 1204.77,-203.06"/>
<polygon fill="black" stroke="black" points="1206.47,-200 1196.05,-198.08 1203,-206.08 1206.47,-200"/>
<text text-anchor="middle" x="1314.5" y="-270.3" font-family="Times,serif" font-size="14.00">atomic_commit</text>
</g>
<!-- duplicated drm_plane_state A&#45;&gt;drm_device -->
<!-- drm_plane A -->
<g id="node8" class="node">
<title>drm_plane A</title>
<polygon fill="none" stroke="black" points="932.5,-125 825.5,-125 825.5,-89 932.5,-89 932.5,-125"/>
<text text-anchor="middle" x="879" y="-103.3" font-family="Times,serif" font-size="14.00">drm_plane A</text>
</g>
<!-- drm_device&#45;&gt;drm_plane A -->
<g id="edge6" class="edge">
<title>drm_device&#45;&gt;drm_plane A</title>
<path fill="none" stroke="black" d="M1105.84,-166.14C1060.04,-154.4 992.12,-136.99 942.54,-124.29"/>
<polygon fill="black" stroke="black" points="943.13,-120.82 932.57,-121.73 941.39,-127.6 943.13,-120.82"/>
</g>
<!-- drm_plane B -->
<g id="node9" class="node">
<title>drm_plane B</title>
<polygon fill="none" stroke="black" points="1085.5,-125 978.5,-125 978.5,-89 1085.5,-89 1085.5,-125"/>
<text text-anchor="middle" x="1032" y="-103.3" font-family="Times,serif" font-size="14.00">drm_plane B</text>
</g>
<!-- drm_device&#45;&gt;drm_plane B -->
<g id="edge7" class="edge">
<title>drm_device&#45;&gt;drm_plane B</title>
<path fill="none" stroke="black" d="M1126.3,-161.99C1109.7,-152.49 1088.82,-140.54 1070.93,-130.29"/>
<polygon fill="black" stroke="black" points="1072.31,-127.05 1061.89,-125.11 1068.83,-133.12 1072.31,-127.05"/>
</g>
<!-- drm_crtc -->
<g id="node10" class="node">
<title>drm_crtc</title>
<polygon fill="none" stroke="black" points="1197.5,-125 1114.5,-125 1114.5,-89 1197.5,-89 1197.5,-125"/>
<text text-anchor="middle" x="1156" y="-103.3" font-family="Times,serif" font-size="14.00">drm_crtc</text>
</g>
<!-- drm_device&#45;&gt;drm_crtc -->
<g id="edge8" class="edge">
<title>drm_device&#45;&gt;drm_crtc</title>
<path fill="none" stroke="black" d="M1156,-161.81C1156,-153.79 1156,-144.05 1156,-135.07"/>
<polygon fill="black" stroke="black" points="1159.5,-135.03 1156,-125.03 1152.5,-135.03 1159.5,-135.03"/>
</g>
<!-- drm_connector -->
<g id="node11" class="node">
<title>drm_connector</title>
<polygon fill="none" stroke="black" points="1362.5,-125 1237.5,-125 1237.5,-89 1362.5,-89 1362.5,-125"/>
<text text-anchor="middle" x="1300" y="-103.3" font-family="Times,serif" font-size="14.00">drm_connector</text>
</g>
<!-- drm_device&#45;&gt;drm_connector -->
<g id="edge9" class="edge">
<title>drm_device&#45;&gt;drm_connector</title>
<path fill="none" stroke="black" d="M1190.49,-161.99C1210.21,-152.27 1235.13,-139.99 1256.21,-129.59"/>
<polygon fill="black" stroke="black" points="1257.87,-132.68 1265.29,-125.11 1254.77,-126.4 1257.87,-132.68"/>
</g>
<!-- driver private object -->
<g id="node12" class="node">
<title>driver private object</title>
<polygon fill="none" stroke="black" points="1563,-125 1399,-125 1399,-89 1563,-89 1563,-125"/>
<text text-anchor="middle" x="1481" y="-103.3" font-family="Times,serif" font-size="14.00">driver private object</text>
</g>
<!-- drm_device&#45;&gt;driver private object -->
<g id="edge10" class="edge">
<title>drm_device&#45;&gt;driver private object</title>
<path fill="none" stroke="black" d="M1206.07,-168.06C1255.83,-157.19 1333.17,-140.3 1393.16,-127.19"/>
<polygon fill="black" stroke="black" points="1393.99,-130.59 1403.01,-125.04 1392.49,-123.75 1393.99,-130.59"/>
</g>
<!-- drm_plane_state A -->
<g id="node13" class="node">
<title>drm_plane_state A</title>
<polygon fill="none" stroke="black" points="905.5,-52 754.5,-52 754.5,-16 905.5,-16 905.5,-52"/>
<text text-anchor="middle" x="830" y="-30.3" font-family="Times,serif" font-size="14.00">drm_plane_state A</text>
</g>
<!-- drm_plane A&#45;&gt;drm_plane_state A -->
<g id="edge11" class="edge">
<title>drm_plane A&#45;&gt;drm_plane_state A</title>
<path fill="none" stroke="black" d="M867.14,-88.81C861.24,-80.27 854,-69.77 847.48,-60.32"/>
<polygon fill="black" stroke="black" points="850.31,-58.27 841.75,-52.03 844.55,-62.25 850.31,-58.27"/>
</g>
<!-- drm_plane_state B -->
<g id="node14" class="node">
<title>drm_plane_state B</title>
<polygon fill="none" stroke="black" points="1074.5,-52 923.5,-52 923.5,-16 1074.5,-16 1074.5,-52"/>
<text text-anchor="middle" x="999" y="-30.3" font-family="Times,serif" font-size="14.00">drm_plane_state B</text>
</g>
<!-- drm_plane B&#45;&gt;drm_plane_state B -->
<g id="edge12" class="edge">
<title>drm_plane B&#45;&gt;drm_plane_state B</title>
<path fill="none" stroke="black" d="M1024.01,-88.81C1020.16,-80.53 1015.46,-70.41 1011.17,-61.19"/>
<polygon fill="black" stroke="black" points="1014.3,-59.62 1006.91,-52.03 1007.96,-62.57 1014.3,-59.62"/>
</g>
<!-- drm_crtc_state -->
<g id="node15" class="node">
<title>drm_crtc_state</title>
<polygon fill="none" stroke="black" points="1219,-52 1093,-52 1093,-16 1219,-16 1219,-52"/>
<text text-anchor="middle" x="1156" y="-30.3" font-family="Times,serif" font-size="14.00">drm_crtc_state</text>
</g>
<!-- drm_crtc&#45;&gt;drm_crtc_state -->
<g id="edge13" class="edge">
<title>drm_crtc&#45;&gt;drm_crtc_state</title>
<path fill="none" stroke="black" d="M1156,-88.81C1156,-80.79 1156,-71.05 1156,-62.07"/>
<polygon fill="black" stroke="black" points="1159.5,-62.03 1156,-52.03 1152.5,-62.03 1159.5,-62.03"/>
</g>
<!-- drm_connector_state -->
<g id="node16" class="node">
<title>drm_connector_state</title>
<polygon fill="none" stroke="black" points="1406.5,-52 1237.5,-52 1237.5,-16 1406.5,-16 1406.5,-52"/>
<text text-anchor="middle" x="1322" y="-30.3" font-family="Times,serif" font-size="14.00">drm_connector_state</text>
</g>
<!-- drm_connector&#45;&gt;drm_connector_state -->
<g id="edge14" class="edge">
<title>drm_connector&#45;&gt;drm_connector_state</title>
<path fill="none" stroke="black" d="M1305.33,-88.81C1307.84,-80.7 1310.9,-70.84 1313.7,-61.78"/>
<polygon fill="black" stroke="black" points="1317.11,-62.62 1316.72,-52.03 1310.42,-60.54 1317.11,-62.62"/>
</g>
<!-- driver private state -->
<g id="node17" class="node">
<title>driver private state</title>
<polygon fill="none" stroke="black" points="1581,-52 1425,-52 1425,-16 1581,-16 1581,-52"/>
<text text-anchor="middle" x="1503" y="-30.3" font-family="Times,serif" font-size="14.00">driver private state</text>
</g>
<!-- driver private object&#45;&gt;driver private state -->
<g id="edge15" class="edge">
<title>driver private object&#45;&gt;driver private state</title>
<path fill="none" stroke="black" d="M1486.33,-88.81C1488.84,-80.7 1491.9,-70.84 1494.7,-61.78"/>
<polygon fill="black" stroke="black" points="1498.11,-62.62 1497.72,-52.03 1491.42,-60.54 1498.11,-62.62"/>
</g>
</g>
</svg>
