<?xml version="1.0" encoding="UTF-8" standalone="no"?>
<!DOCTYPE svg PUBLIC "-//W3C//DTD SVG 1.1//EN"
 "http://www.w3.org/Graphics/SVG/1.1/DTD/svg11.dtd">
<!-- Generated by graphviz version 2.43.0 (0)
 -->
<!-- Title: NFC Pages: 1 -->
<svg width="518pt" height="404pt"
 viewBox="0.00 0.00 517.68 404.00" xmlns="http://www.w3.org/2000/svg" xmlns:xlink="http://www.w3.org/1999/xlink">
<g id="graph0" class="graph" transform="scale(1 1) rotate(0) translate(4 400)">
<title>NFC</title>
<polygon fill="white" stroke="transparent" points="-4,4 -4,-400 513.68,-400 513.68,4 -4,4"/>
<!-- cl_nfc -->
<g id="node1" class="node">
<title>cl_nfc</title>
<ellipse fill="none" stroke="black" cx="263.94" cy="-90" rx="68.79" ry="18"/>
<text text-anchor="middle" x="263.94" y="-86.3" font-family="Times,serif" font-size="14.00">mei/bus(nfc)</text>
</g>
<!-- me_cl_nfc -->
<g id="node2" class="node">
<title>me_cl_nfc</title>
<ellipse fill="none" stroke="black" cx="263.94" cy="-18" rx="63.89" ry="18"/>
<text text-anchor="middle" x="263.94" y="-14.3" font-family="Times,serif" font-size="14.00">me fw (nfc)</text>
</g>
<!-- cl_nfc&#45;&gt;me_cl_nfc -->
<g id="edge1" class="edge">
<title>cl_nfc&#45;&gt;me_cl_nfc</title>
<path fill="none" stroke="black" d="M263.94,-71.7C263.94,-63.98 263.94,-54.71 263.94,-46.11"/>
<polygon fill="black" stroke="black" points="267.44,-46.1 263.94,-36.1 260.44,-46.1 267.44,-46.1"/>
</g>
<!-- drivers/nfc/mei_phy -->
<g id="node3" class="node">
<title>drivers/nfc/mei_phy</title>
<ellipse fill="none" stroke="black" cx="263.94" cy="-162" rx="103.18" ry="18"/>
<text text-anchor="middle" x="263.94" y="-158.3" font-family="Times,serif" font-size="14.00">drivers/nfc/mei_phy</text>
</g>
<!-- drivers/nfc/mei_phy&#45;&gt;cl_nfc -->
<g id="edge2" class="edge">
<title>drivers/nfc/mei_phy&#45;&gt;cl_nfc</title>
<path fill="none" stroke="black" d="M263.94,-143.7C263.94,-135.98 263.94,-126.71 263.94,-118.11"/>
<polygon fill="black" stroke="black" points="267.44,-118.1 263.94,-108.1 260.44,-118.1 267.44,-118.1"/>
</g>
<!-- drivers/nfc/microread/mei -->
<g id="node4" class="node">
<title>drivers/nfc/microread/mei</title>
<ellipse fill="none" stroke="black" cx="131.94" cy="-234" rx="131.88" ry="18"/>
<text text-anchor="middle" x="131.94" y="-230.3" font-family="Times,serif" font-size="14.00">drivers/nfc/microread/mei</text>
</g>
<!-- drivers/nfc/microread/mei&#45;&gt;cl_nfc -->
<g id="edge3" class="edge">
<title>drivers/nfc/microread/mei&#45;&gt;cl_nfc</title>
<path fill="none" stroke="black" d="M131.52,-215.7C131.94,-196.23 135.41,-164.65 151.94,-144 165.8,-126.67 186.68,-114.7 206.67,-106.59"/>
<polygon fill="black" stroke="black" points="207.96,-109.84 216.07,-103.02 205.48,-103.3 207.96,-109.84"/>
</g>
<!-- drivers/nfc/microread/mei&#45;&gt;drivers/nfc/mei_phy -->
<g id="edge4" class="edge">
<title>drivers/nfc/microread/mei&#45;&gt;drivers/nfc/mei_phy</title>
<path fill="none" stroke="black" d="M163.22,-216.41C181.52,-206.71 204.79,-194.37 224.35,-183.99"/>
<polygon fill="black" stroke="black" points="226.14,-187.01 233.34,-179.23 222.86,-180.82 226.14,-187.01"/>
</g>
<!-- drivers/nfc/pn544/mei -->
<g id="node5" class="node">
<title>drivers/nfc/pn544/mei</title>
<ellipse fill="none" stroke="black" cx="395.94" cy="-234" rx="113.98" ry="18"/>
<text text-anchor="middle" x="395.94" y="-230.3" font-family="Times,serif" font-size="14.00">drivers/nfc/pn544/mei</text>
</g>
<!-- drivers/nfc/pn544/mei&#45;&gt;cl_nfc -->
<g id="edge5" class="edge">
<title>drivers/nfc/pn544/mei&#45;&gt;cl_nfc</title>
<path fill="none" stroke="black" d="M396.36,-215.7C395.94,-196.23 392.46,-164.65 375.94,-144 362.07,-126.67 341.19,-114.7 321.21,-106.59"/>
<polygon fill="black" stroke="black" points="322.4,-103.3 311.81,-103.02 319.91,-109.84 322.4,-103.3"/>
</g>
<!-- drivers/nfc/pn544/mei&#45;&gt;drivers/nfc/mei_phy -->
<g id="edge6" class="edge">
<title>drivers/nfc/pn544/mei&#45;&gt;drivers/nfc/mei_phy</title>
<path fill="none" stroke="black" d="M364.99,-216.59C346.7,-206.89 323.36,-194.51 303.71,-184.09"/>
<polygon fill="black" stroke="black" points="305.17,-180.9 294.69,-179.31 301.89,-187.09 305.17,-180.9"/>
</g>
<!-- net/nfc -->
<g id="node6" class="node">
<title>net/nfc</title>
<ellipse fill="none" stroke="black" cx="263.94" cy="-306" rx="43.59" ry="18"/>
<text text-anchor="middle" x="263.94" y="-302.3" font-family="Times,serif" font-size="14.00">net/nfc</text>
</g>
<!-- net/nfc&#45;&gt;drivers/nfc/microread/mei -->
<g id="edge7" class="edge">
<title>net/nfc&#45;&gt;drivers/nfc/microread/mei</title>
<path fill="none" stroke="black" d="M238.17,-291.34C219.4,-281.38 193.6,-267.7 172.12,-256.31"/>
<polygon fill="black" stroke="black" points="173.69,-253.18 163.22,-251.59 170.41,-259.37 173.69,-253.18"/>
</g>
<!-- net/nfc&#45;&gt;drivers/nfc/pn544/mei -->
<g id="edge8" class="edge">
<title>net/nfc&#45;&gt;drivers/nfc/pn544/mei</title>
<path fill="none" stroke="black" d="M289.7,-291.34C308.61,-281.31 334.64,-267.51 356.2,-256.07"/>
<polygon fill="black" stroke="black" points="357.94,-259.11 365.14,-251.33 354.66,-252.93 357.94,-259.11"/>
</g>
<!-- neard -->
<g id="node7" class="node">
<title>neard</title>
<ellipse fill="none" stroke="black" cx="263.94" cy="-378" rx="37.89" ry="18"/>
<text text-anchor="middle" x="263.94" y="-374.3" font-family="Times,serif" font-size="14.00">neard</text>
</g>
<!-- neard&#45;&gt;net/nfc -->
<g id="edge9" class="edge">
<title>neard&#45;&gt;net/nfc</title>
<path fill="none" stroke="black" d="M263.94,-359.7C263.94,-351.98 263.94,-342.71 263.94,-334.11"/>
<polygon fill="black" stroke="black" points="267.44,-334.1 263.94,-324.1 260.44,-334.1 267.44,-334.1"/>
</g>
</g>
</svg>
