<?xml version="1.0" encoding="UTF-8" standalone="no"?>
<!DOCTYPE svg PUBLIC "-//W3C//DTD SVG 1.1//EN"
 "http://www.w3.org/Graphics/SVG/1.1/DTD/svg11.dtd">
<!-- Generated by graphviz version 2.43.0 (0)
 -->
<!-- Title: slave_ppl Pages: 1 -->
<svg width="992pt" height="506pt"
 viewBox="0.00 0.00 991.79 506.00" xmlns="http://www.w3.org/2000/svg" xmlns:xlink="http://www.w3.org/1999/xlink">
<g id="graph0" class="graph" transform="scale(1 1) rotate(0) translate(4 502)">
<title>slave_ppl</title>
<polygon fill="white" stroke="transparent" points="-4,4 -4,-502 987.79,-502 987.79,4 -4,4"/>
<g id="clust2" class="cluster">
<title>cluster_pipeline_slave</title>
<polygon fill="none" stroke="black" stroke-dasharray="5,2" points="8,-8 8,-245 444,-245 444,-8 8,-8"/>
<text text-anchor="middle" x="226" y="-229.8" font-family="Times,serif" font-size="14.00">Slave Pipeline_B</text>
</g>
<g id="clust4" class="cluster">
<title>cluster_pipeline_master</title>
<polygon fill="none" stroke="black" stroke-dasharray="5,2" points="183,-253 183,-490 857,-490 857,-253 183,-253"/>
<text text-anchor="middle" x="520" y="-474.8" font-family="Times,serif" font-size="14.00">Master Pipeline_A</text>
</g>
<!-- Memory -->
<g id="node1" class="node">
<title>Memory</title>
<ellipse fill="none" stroke="black" cx="934.4" cy="-374" rx="49.29" ry="18"/>
<text text-anchor="middle" x="934.4" y="-370.3" font-family="Times,serif" font-size="14.00">Memory</text>
</g>
<!-- Monitor -->
<g id="node2" class="node">
<title>Monitor</title>
<ellipse fill="none" stroke="black" cx="934.4" cy="-320" rx="48.19" ry="18"/>
<text text-anchor="middle" x="934.4" y="-316.3" font-family="Times,serif" font-size="14.00">Monitor</text>
</g>
<!-- Slave.Scaler&#45;0 -->
<g id="node3" class="node">
<title>Slave.Scaler&#45;0</title>
<polygon fill="none" stroke="black" stroke-dasharray="5,2" points="286,-183 167,-183 167,-147 286,-147 286,-183"/>
<text text-anchor="middle" x="226.5" y="-161.3" font-family="Times,serif" font-size="14.00">Slave.Scaler&#45;0</text>
</g>
<!-- Slave.Compiz -->
<g id="node9" class="node">
<title>Slave.Compiz</title>
<polygon fill="lightgrey" stroke="black" points="436,-146 322,-146 322,-110 436,-110 436,-146"/>
<text text-anchor="middle" x="379" y="-124.3" font-family="Times,serif" font-size="14.00">Slave.Compiz</text>
</g>
<!-- Slave.Scaler&#45;0&#45;&gt;Slave.Compiz -->
<g id="edge9" class="edge">
<title>Slave.Scaler&#45;0&#45;&gt;Slave.Compiz</title>
<path fill="none" stroke="black" d="M286.12,-150.59C294.54,-148.52 303.26,-146.38 311.82,-144.27"/>
<polygon fill="black" stroke="black" points="312.89,-147.61 321.76,-141.83 311.22,-140.81 312.89,-147.61"/>
</g>
<!-- Slave.Scaler&#45;1 -->
<g id="node4" class="node">
<title>Slave.Scaler&#45;1</title>
<polygon fill="none" stroke="black" stroke-dasharray="5,2" points="286,-89 167,-89 167,-53 286,-53 286,-89"/>
<text text-anchor="middle" x="226.5" y="-67.3" font-family="Times,serif" font-size="14.00">Slave.Scaler&#45;1</text>
</g>
<!-- Slave.Scaler&#45;1&#45;&gt;Slave.Compiz -->
<g id="edge10" class="edge">
<title>Slave.Scaler&#45;1&#45;&gt;Slave.Compiz</title>
<path fill="none" stroke="black" d="M275.12,-89.04C289.6,-94.52 305.67,-100.61 320.72,-106.3"/>
<polygon fill="black" stroke="black" points="319.84,-109.72 330.43,-109.98 322.32,-103.17 319.84,-109.72"/>
</g>
<!-- Slave.Layer&#45;0 -->
<g id="node5" class="node">
<title>Slave.Layer&#45;0</title>
<polygon fill="lightgrey" stroke="black" points="131,-214 16,-214 16,-178 131,-178 131,-214"/>
<text text-anchor="middle" x="73.5" y="-192.3" font-family="Times,serif" font-size="14.00">Slave.Layer&#45;0</text>
</g>
<!-- Slave.Layer&#45;0&#45;&gt;Slave.Scaler&#45;0 -->
<g id="edge1" class="edge">
<title>Slave.Layer&#45;0&#45;&gt;Slave.Scaler&#45;0</title>
<path fill="none" stroke="black" d="M131.16,-184.37C139.52,-182.65 148.21,-180.87 156.78,-179.11"/>
<polygon fill="black" stroke="black" points="157.67,-182.5 166.76,-177.06 156.26,-175.64 157.67,-182.5"/>
</g>
<!-- Slave.Layer&#45;0&#45;&gt;Slave.Compiz -->
<g id="edge5" class="edge">
<title>Slave.Layer&#45;0&#45;&gt;Slave.Compiz</title>
<path fill="none" stroke="black" d="M131.18,-203.69C174.64,-207.52 235.52,-208.36 286,-192 310.34,-184.11 333.94,-167.45 351.15,-153.1"/>
<polygon fill="black" stroke="black" points="353.76,-155.47 359.06,-146.29 349.2,-150.16 353.76,-155.47"/>
</g>
<!-- Slave.Layer&#45;1 -->
<g id="node6" class="node">
<title>Slave.Layer&#45;1</title>
<polygon fill="lightgrey" stroke="black" points="131,-160 16,-160 16,-124 131,-124 131,-160"/>
<text text-anchor="middle" x="73.5" y="-138.3" font-family="Times,serif" font-size="14.00">Slave.Layer&#45;1</text>
</g>
<!-- Slave.Layer&#45;1&#45;&gt;Slave.Scaler&#45;0 -->
<g id="edge2" class="edge">
<title>Slave.Layer&#45;1&#45;&gt;Slave.Scaler&#45;0</title>
<path fill="none" stroke="black" d="M131.16,-150.63C139.52,-151.9 148.21,-153.23 156.78,-154.53"/>
<polygon fill="black" stroke="black" points="156.35,-158.01 166.76,-156.05 157.4,-151.09 156.35,-158.01"/>
</g>
<!-- Slave.Layer&#45;1&#45;&gt;Slave.Compiz -->
<g id="edge6" class="edge">
<title>Slave.Layer&#45;1&#45;&gt;Slave.Compiz</title>
<path fill="none" stroke="black" d="M131.23,-139.38C182.41,-137.02 257.71,-133.55 311.65,-131.06"/>
<polygon fill="black" stroke="black" points="311.98,-134.55 321.81,-130.59 311.65,-127.56 311.98,-134.55"/>
</g>
<!-- Slave.Layer&#45;2 -->
<g id="node7" class="node">
<title>Slave.Layer&#45;2</title>
<polygon fill="lightgrey" stroke="black" points="131,-106 16,-106 16,-70 131,-70 131,-106"/>
<text text-anchor="middle" x="73.5" y="-84.3" font-family="Times,serif" font-size="14.00">Slave.Layer&#45;2</text>
</g>
<!-- Slave.Layer&#45;2&#45;&gt;Slave.Scaler&#45;1 -->
<g id="edge3" class="edge">
<title>Slave.Layer&#45;2&#45;&gt;Slave.Scaler&#45;1</title>
<path fill="none" stroke="black" d="M131.16,-81.62C139.52,-80.68 148.21,-79.7 156.78,-78.74"/>
<polygon fill="black" stroke="black" points="157.22,-82.21 166.76,-77.61 156.43,-75.25 157.22,-82.21"/>
</g>
<!-- Slave.Layer&#45;2&#45;&gt;Slave.Compiz -->
<g id="edge7" class="edge">
<title>Slave.Layer&#45;2&#45;&gt;Slave.Compiz</title>
<path fill="none" stroke="black" d="M131.23,-95.48C182.41,-102.22 257.71,-112.15 311.65,-119.26"/>
<polygon fill="black" stroke="black" points="311.43,-122.76 321.81,-120.59 312.35,-115.82 311.43,-122.76"/>
</g>
<!-- Slave.Layer&#45;3 -->
<g id="node8" class="node">
<title>Slave.Layer&#45;3</title>
<polygon fill="lightgrey" stroke="black" points="131,-52 16,-52 16,-16 131,-16 131,-52"/>
<text text-anchor="middle" x="73.5" y="-30.3" font-family="Times,serif" font-size="14.00">Slave.Layer&#45;3</text>
</g>
<!-- Slave.Layer&#45;3&#45;&gt;Slave.Scaler&#45;1 -->
<g id="edge4" class="edge">
<title>Slave.Layer&#45;3&#45;&gt;Slave.Scaler&#45;1</title>
<path fill="none" stroke="black" d="M131.16,-47.88C139.52,-49.93 148.21,-52.06 156.78,-54.16"/>
<polygon fill="black" stroke="black" points="156.22,-57.63 166.76,-56.61 157.88,-50.83 156.22,-57.63"/>
</g>
<!-- Slave.Layer&#45;3&#45;&gt;Slave.Compiz -->
<g id="edge8" class="edge">
<title>Slave.Layer&#45;3&#45;&gt;Slave.Compiz</title>
<path fill="none" stroke="black" d="M131.09,-26.52C175.04,-23.06 236.6,-23.49 286,-44 315.49,-56.25 341.57,-82.31 358.36,-102.18"/>
<polygon fill="black" stroke="black" points="355.71,-104.47 364.76,-109.99 361.13,-100.03 355.71,-104.47"/>
</g>
<!-- Compiz -->
<g id="node17" class="node">
<title>Compiz</title>
<polygon fill="lightgrey" stroke="black" points="543,-365 472,-365 472,-329 543,-329 543,-365"/>
<text text-anchor="middle" x="507.5" y="-343.3" font-family="Times,serif" font-size="14.00">Compiz</text>
</g>
<!-- Slave.Compiz&#45;&gt;Compiz -->
<g id="edge15" class="edge">
<title>Slave.Compiz&#45;&gt;Compiz</title>
<path fill="none" stroke="black" d="M390.57,-146.3C412.85,-184.88 464.76,-274.74 490.89,-319.97"/>
<polygon fill="black" stroke="black" points="488.02,-322 496.05,-328.91 494.08,-318.5 488.02,-322"/>
</g>
<!-- Scaler&#45;0 -->
<g id="node10" class="node">
<title>Scaler&#45;0</title>
<polygon fill="none" stroke="black" stroke-dasharray="5,2" points="417,-422 341,-422 341,-386 417,-386 417,-422"/>
<text text-anchor="middle" x="379" y="-400.3" font-family="Times,serif" font-size="14.00">Scaler&#45;0</text>
</g>
<!-- Scaler&#45;0&#45;&gt;Compiz -->
<g id="edge20" class="edge">
<title>Scaler&#45;0&#45;&gt;Compiz</title>
<path fill="none" stroke="black" d="M417.27,-387.21C431.38,-380.85 447.58,-373.55 462.26,-366.93"/>
<polygon fill="black" stroke="black" points="463.98,-370 471.66,-362.7 461.11,-363.62 463.98,-370"/>
</g>
<!-- Scaler&#45;1 -->
<g id="node11" class="node">
<title>Scaler&#45;1</title>
<polygon fill="none" stroke="black" stroke-dasharray="5,2" points="417,-328 341,-328 341,-292 417,-292 417,-328"/>
<text text-anchor="middle" x="379" y="-306.3" font-family="Times,serif" font-size="14.00">Scaler&#45;1</text>
</g>
<!-- Scaler&#45;1&#45;&gt;Compiz -->
<g id="edge21" class="edge">
<title>Scaler&#45;1&#45;&gt;Compiz</title>
<path fill="none" stroke="black" d="M417.27,-320.9C431.24,-324.99 447.27,-329.68 461.84,-333.94"/>
<polygon fill="black" stroke="black" points="461.08,-337.36 471.66,-336.81 463.05,-330.64 461.08,-337.36"/>
</g>
<!-- Scaler&#45;0/1 -->
<g id="node12" class="node">
<title>Scaler&#45;0/1</title>
<polygon fill="none" stroke="black" stroke-dasharray="5,2" points="668,-392 579,-392 579,-356 668,-356 668,-392"/>
<text text-anchor="middle" x="623.5" y="-370.3" font-family="Times,serif" font-size="14.00">Scaler&#45;0/1</text>
</g>
<!-- Wb_layer -->
<g id="node18" class="node">
<title>Wb_layer</title>
<polygon fill="lightgrey" stroke="black" points="818.5,-392 734.5,-392 734.5,-356 818.5,-356 818.5,-392"/>
<text text-anchor="middle" x="776.5" y="-370.3" font-family="Times,serif" font-size="14.00">Wb_layer</text>
</g>
<!-- Scaler&#45;0/1&#45;&gt;Wb_layer -->
<g id="edge23" class="edge">
<title>Scaler&#45;0/1&#45;&gt;Wb_layer</title>
<path fill="none" stroke="black" d="M668.18,-374C685.66,-374 705.93,-374 724.11,-374"/>
<polygon fill="black" stroke="black" points="724.26,-377.5 734.26,-374 724.26,-370.5 724.26,-377.5"/>
</g>
<!-- Layer&#45;0 -->
<g id="node13" class="node">
<title>Layer&#45;0</title>
<polygon fill="lightgrey" stroke="black" points="262,-459 191,-459 191,-423 262,-423 262,-459"/>
<text text-anchor="middle" x="226.5" y="-437.3" font-family="Times,serif" font-size="14.00">Layer&#45;0</text>
</g>
<!-- Layer&#45;0&#45;&gt;Scaler&#45;0 -->
<g id="edge11" class="edge">
<title>Layer&#45;0&#45;&gt;Scaler&#45;0</title>
<path fill="none" stroke="black" d="M262.03,-432.51C282.42,-427.5 308.53,-421.08 330.8,-415.6"/>
<polygon fill="black" stroke="black" points="331.86,-418.95 340.74,-413.16 330.19,-412.15 331.86,-418.95"/>
</g>
<!-- Layer&#45;0&#45;&gt;Compiz -->
<g id="edge16" class="edge">
<title>Layer&#45;0&#45;&gt;Compiz</title>
<path fill="none" stroke="black" d="M262.11,-448.04C306.95,-455.31 386.19,-461.73 444,-431 467.03,-418.75 483.88,-393.84 494.25,-374.31"/>
<polygon fill="black" stroke="black" points="497.44,-375.74 498.81,-365.23 491.19,-372.59 497.44,-375.74"/>
</g>
<!-- Layer&#45;1 -->
<g id="node14" class="node">
<title>Layer&#45;1</title>
<polygon fill="lightgrey" stroke="black" points="262,-405 191,-405 191,-369 262,-369 262,-405"/>
<text text-anchor="middle" x="226.5" y="-383.3" font-family="Times,serif" font-size="14.00">Layer&#45;1</text>
</g>
<!-- Layer&#45;1&#45;&gt;Scaler&#45;0 -->
<g id="edge12" class="edge">
<title>Layer&#45;1&#45;&gt;Scaler&#45;0</title>
<path fill="none" stroke="black" d="M262.03,-390.9C282.33,-393.19 308.29,-396.13 330.5,-398.63"/>
<polygon fill="black" stroke="black" points="330.41,-402.15 340.74,-399.79 331.19,-395.19 330.41,-402.15"/>
</g>
<!-- Layer&#45;1&#45;&gt;Compiz -->
<g id="edge17" class="edge">
<title>Layer&#45;1&#45;&gt;Compiz</title>
<path fill="none" stroke="black" d="M262.27,-382.01C312.74,-374.78 406.31,-361.36 461.82,-353.41"/>
<polygon fill="black" stroke="black" points="462.33,-356.87 471.73,-351.98 461.33,-349.94 462.33,-356.87"/>
</g>
<!-- Layer&#45;2 -->
<g id="node15" class="node">
<title>Layer&#45;2</title>
<polygon fill="lightgrey" stroke="black" points="262,-351 191,-351 191,-315 262,-315 262,-351"/>
<text text-anchor="middle" x="226.5" y="-329.3" font-family="Times,serif" font-size="14.00">Layer&#45;2</text>
</g>
<!-- Layer&#45;2&#45;&gt;Scaler&#45;1 -->
<g id="edge13" class="edge">
<title>Layer&#45;2&#45;&gt;Scaler&#45;1</title>
<path fill="none" stroke="black" d="M262.03,-327.72C282.42,-324.61 308.53,-320.62 330.8,-317.21"/>
<polygon fill="black" stroke="black" points="331.38,-320.67 340.74,-315.69 330.32,-313.75 331.38,-320.67"/>
</g>
<!-- Layer&#45;2&#45;&gt;Compiz -->
<g id="edge18" class="edge">
<title>Layer&#45;2&#45;&gt;Compiz</title>
<path fill="none" stroke="black" d="M262.27,-334.74C312.64,-337.27 405.92,-341.95 461.48,-344.74"/>
<polygon fill="black" stroke="black" points="461.57,-348.25 471.73,-345.26 461.92,-341.26 461.57,-348.25"/>
</g>
<!-- Layer&#45;3 -->
<g id="node16" class="node">
<title>Layer&#45;3</title>
<polygon fill="lightgrey" stroke="black" points="262,-297 191,-297 191,-261 262,-261 262,-297"/>
<text text-anchor="middle" x="226.5" y="-275.3" font-family="Times,serif" font-size="14.00">Layer&#45;3</text>
</g>
<!-- Layer&#45;3&#45;&gt;Scaler&#45;1 -->
<g id="edge14" class="edge">
<title>Layer&#45;3&#45;&gt;Scaler&#45;1</title>
<path fill="none" stroke="black" d="M262.03,-286.11C282.42,-290.31 308.53,-295.69 330.8,-300.28"/>
<polygon fill="black" stroke="black" points="330.24,-303.73 340.74,-302.32 331.65,-296.88 330.24,-303.73"/>
</g>
<!-- Layer&#45;3&#45;&gt;Compiz -->
<g id="edge19" class="edge">
<title>Layer&#45;3&#45;&gt;Compiz</title>
<path fill="none" stroke="black" d="M262.19,-271.85C306.42,-264.45 384.3,-257.2 444,-283 462.06,-290.81 477.56,-306.56 488.6,-320.49"/>
<polygon fill="black" stroke="black" points="486.07,-322.95 494.88,-328.83 491.66,-318.74 486.07,-322.95"/>
</g>
<!-- Compiz&#45;&gt;Scaler&#45;0/1 -->
<g id="edge22" class="edge">
<title>Compiz&#45;&gt;Scaler&#45;0/1</title>
<path fill="none" stroke="black" d="M543.01,-355.17C551.2,-357.11 560.13,-359.23 568.95,-361.32"/>
<polygon fill="black" stroke="black" points="568.27,-364.75 578.81,-363.65 569.89,-357.94 568.27,-364.75"/>
</g>
<!-- Improc -->
<g id="node19" class="node">
<title>Improc</title>
<polygon fill="lightgrey" stroke="black" points="657.5,-338 589.5,-338 589.5,-302 657.5,-302 657.5,-338"/>
<text text-anchor="middle" x="623.5" y="-316.3" font-family="Times,serif" font-size="14.00">Improc</text>
</g>
<!-- Compiz&#45;&gt;Improc -->
<g id="edge24" class="edge">
<title>Compiz&#45;&gt;Improc</title>
<path fill="none" stroke="black" d="M543.01,-338.83C554.48,-336.11 567.4,-333.05 579.43,-330.2"/>
<polygon fill="black" stroke="black" points="580.35,-333.58 589.28,-327.87 578.74,-326.77 580.35,-333.58"/>
</g>
<!-- Wb_layer&#45;&gt;Memory -->
<g id="edge26" class="edge">
<title>Wb_layer&#45;&gt;Memory</title>
<path fill="none" stroke="black" d="M818.87,-374C835.99,-374 856.16,-374 874.77,-374"/>
<polygon fill="black" stroke="black" points="874.91,-377.5 884.91,-374 874.91,-370.5 874.91,-377.5"/>
</g>
<!-- Timing Controller -->
<g id="node20" class="node">
<title>Timing Controller</title>
<polygon fill="lightgrey" stroke="black" points="849,-338 704,-338 704,-302 849,-302 849,-338"/>
<text text-anchor="middle" x="776.5" y="-316.3" font-family="Times,serif" font-size="14.00">Timing Controller</text>
</g>
<!-- Improc&#45;&gt;Timing Controller -->
<g id="edge25" class="edge">
<title>Improc&#45;&gt;Timing Controller</title>
<path fill="none" stroke="black" d="M657.64,-320C668.39,-320 680.84,-320 693.54,-320"/>
<polygon fill="black" stroke="black" points="693.75,-323.5 703.75,-320 693.75,-316.5 693.75,-323.5"/>
</g>
<!-- Timing Controller&#45;&gt;Monitor -->
<g id="edge27" class="edge">
<title>Timing Controller&#45;&gt;Monitor</title>
<path fill="none" stroke="black" d="M849.06,-320C858.03,-320 867.12,-320 875.85,-320"/>
<polygon fill="black" stroke="black" points="875.89,-323.5 885.89,-320 875.89,-316.5 875.89,-323.5"/>
</g>
</g>
</svg>
