<?xml version="1.0" encoding="UTF-8" standalone="no"?>
<!DOCTYPE svg PUBLIC "-//W3C//DTD SVG 1.1//EN"
 "http://www.w3.org/Graphics/SVG/1.1/DTD/svg11.dtd">
<!-- Generated by graphviz version 2.43.0 (0)
 -->
<!-- Title: writeback_data_flow Pages: 1 -->
<svg width="524pt" height="98pt"
 viewBox="0.00 0.00 524.00 98.00" xmlns="http://www.w3.org/2000/svg" xmlns:xlink="http://www.w3.org/1999/xlink">
<g id="graph0" class="graph" transform="scale(1 1) rotate(0) translate(4 94)">
<title>writeback_data_flow</title>
<polygon fill="white" stroke="transparent" points="-4,4 -4,-94 520,-94 520,4 -4,4"/>
<!-- Compiz -->
<g id="node1" class="node">
<title>Compiz</title>
<polygon fill="none" stroke="black" points="71,-63 0,-63 0,-27 71,-27 71,-63"/>
<text text-anchor="middle" x="35.5" y="-41.3" font-family="Times,serif" font-size="14.00">Compiz</text>
</g>
<!-- Splitter -->
<g id="node2" class="node">
<title>Splitter</title>
<polygon fill="none" stroke="black" points="178,-63 107,-63 107,-27 178,-27 178,-63"/>
<text text-anchor="middle" x="142.5" y="-41.3" font-family="Times,serif" font-size="14.00">Splitter</text>
</g>
<!-- Compiz&#45;&gt;Splitter -->
<g id="edge1" class="edge">
<title>Compiz&#45;&gt;Splitter</title>
<path fill="none" stroke="black" d="M71.17,-45C79.33,-45 88.13,-45 96.66,-45"/>
<polygon fill="black" stroke="black" points="96.86,-48.5 106.86,-45 96.86,-41.5 96.86,-48.5"/>
</g>
<!-- Scaler&#45;0 -->
<g id="node3" class="node">
<title>Scaler&#45;0</title>
<polygon fill="none" stroke="black" points="290,-90 214,-90 214,-54 290,-54 290,-90"/>
<text text-anchor="middle" x="252" y="-68.3" font-family="Times,serif" font-size="14.00">Scaler&#45;0</text>
</g>
<!-- Splitter&#45;&gt;Scaler&#45;0 -->
<g id="edge2" class="edge">
<title>Splitter&#45;&gt;Scaler&#45;0</title>
<path fill="none" stroke="black" d="M178.11,-53.69C186.4,-55.77 195.39,-58.03 204.14,-60.23"/>
<polygon fill="black" stroke="black" points="203.31,-63.63 213.86,-62.67 205.01,-56.84 203.31,-63.63"/>
</g>
<!-- Scaler&#45;1 -->
<g id="node5" class="node">
<title>Scaler&#45;1</title>
<polygon fill="none" stroke="black" points="290,-36 214,-36 214,0 290,0 290,-36"/>
<text text-anchor="middle" x="252" y="-14.3" font-family="Times,serif" font-size="14.00">Scaler&#45;1</text>
</g>
<!-- Splitter&#45;&gt;Scaler&#45;1 -->
<g id="edge4" class="edge">
<title>Splitter&#45;&gt;Scaler&#45;1</title>
<path fill="none" stroke="black" d="M178.11,-36.31C186.4,-34.23 195.39,-31.97 204.14,-29.77"/>
<polygon fill="black" stroke="black" points="205.01,-33.16 213.86,-27.33 203.31,-26.37 205.01,-33.16"/>
</g>
<!-- Merger -->
<g id="node4" class="node">
<title>Merger</title>
<polygon fill="none" stroke="black" points="396,-63 326,-63 326,-27 396,-27 396,-63"/>
<text text-anchor="middle" x="361" y="-41.3" font-family="Times,serif" font-size="14.00">Merger</text>
</g>
<!-- Scaler&#45;0&#45;&gt;Merger -->
<g id="edge3" class="edge">
<title>Scaler&#45;0&#45;&gt;Merger</title>
<path fill="none" stroke="black" d="M290.12,-62.63C298.45,-60.53 307.37,-58.28 315.95,-56.12"/>
<polygon fill="black" stroke="black" points="316.97,-59.47 325.81,-53.63 315.26,-52.68 316.97,-59.47"/>
</g>
<!-- Wb_layer -->
<g id="node6" class="node">
<title>Wb_layer</title>
<polygon fill="none" stroke="black" points="516,-63 432,-63 432,-27 516,-27 516,-63"/>
<text text-anchor="middle" x="474" y="-41.3" font-family="Times,serif" font-size="14.00">Wb_layer</text>
</g>
<!-- Merger&#45;&gt;Wb_layer -->
<g id="edge6" class="edge">
<title>Merger&#45;&gt;Wb_layer</title>
<path fill="none" stroke="black" d="M396.21,-45C404.27,-45 413.03,-45 421.66,-45"/>
<polygon fill="black" stroke="black" points="421.68,-48.5 431.68,-45 421.68,-41.5 421.68,-48.5"/>
</g>
<!-- Scaler&#45;1&#45;&gt;Merger -->
<g id="edge5" class="edge">
<title>Scaler&#45;1&#45;&gt;Merger</title>
<path fill="none" stroke="black" d="M290.12,-27.37C298.45,-29.47 307.37,-31.72 315.95,-33.88"/>
<polygon fill="black" stroke="black" points="315.26,-37.32 325.81,-36.37 316.97,-30.53 315.26,-37.32"/>
</g>
</g>
</svg>
