<?xml version="1.0" encoding="UTF-8" standalone="no"?>
<!DOCTYPE svg PUBLIC "-//W3C//DTD SVG 1.1//EN"
 "http://www.w3.org/Graphics/SVG/1.1/DTD/svg11.dtd">
<!-- Generated by graphviz version 2.43.0 (0)
 -->
<!-- Title: node_states Pages: 1 -->
<svg width="243pt" height="131pt"
 viewBox="0.00 0.00 243.09 131.00" xmlns="http://www.w3.org/2000/svg" xmlns:xlink="http://www.w3.org/1999/xlink">
<g id="graph0" class="graph" transform="scale(1 1) rotate(0) translate(4 127)">
<title>node_states</title>
<polygon fill="white" stroke="transparent" points="-4,4 -4,-127 239.09,-127 239.09,4 -4,4"/>
<!-- Secondary -->
<g id="node1" class="node">
<title>Secondary</title>
<ellipse fill="none" stroke="black" cx="71.09" cy="-105" rx="59.59" ry="18"/>
<text text-anchor="middle" x="71.09" y="-101.3" font-family="Times,serif" font-size="14.00">Secondary</text>
</g>
<!-- Primary -->
<g id="node2" class="node">
<title>Primary</title>
<ellipse fill="none" stroke="black" cx="71.09" cy="-18" rx="48.19" ry="18"/>
<text text-anchor="middle" x="71.09" y="-14.3" font-family="Times,serif" font-size="14.00">Primary</text>
</g>
<!-- Secondary&#45;&gt;Primary -->
<g id="edge1" class="edge">
<title>Secondary&#45;&gt;Primary</title>
<path fill="none" stroke="black" d="M30.24,-91.8C19.56,-86.56 9.31,-79.2 3.09,-69 -5.95,-54.19 7.91,-42.39 25.42,-33.98"/>
<polygon fill="black" stroke="black" points="27.04,-37.09 34.81,-29.89 24.25,-30.67 27.04,-37.09"/>
<text text-anchor="middle" x="60.59" y="-57.8" font-family="Times,serif" font-size="14.00">ioctl_set_state()</text>
</g>
<!-- Primary&#45;&gt;Secondary -->
<g id="edge2" class="edge">
<title>Primary&#45;&gt;Secondary</title>
<path fill="none" stroke="black" d="M98.45,-32.94C112.43,-42.09 125.14,-54.95 118.09,-69 115.57,-74 111.97,-78.47 107.87,-82.4"/>
<polygon fill="black" stroke="black" points="105.5,-79.81 100.05,-88.9 109.98,-85.2 105.5,-79.81"/>
<text text-anchor="middle" x="177.59" y="-57.8" font-family="Times,serif" font-size="14.00">ioctl_set_state()</text>
</g>
</g>
</svg>
<?xml version="1.0" encoding="UTF-8" standalone="no"?>
<!DOCTYPE svg PUBLIC "-//W3C//DTD SVG 1.1//EN"
 "http://www.w3.org/Graphics/SVG/1.1/DTD/svg11.dtd">
<!-- Generated by graphviz version 2.43.0 (0)
 -->
<!-- Title: peer_states Pages: 1 -->
<svg width="498pt" height="218pt"
 viewBox="0.00 0.00 498.49 218.00" xmlns="http://www.w3.org/2000/svg" xmlns:xlink="http://www.w3.org/1999/xlink">
<g id="page0,1_graph0" class="graph" transform="scale(1 1) rotate(0) translate(4 214)">
<title>peer_states</title>
<polygon fill="white" stroke="transparent" points="-4,4 -4,-214 494.49,-214 494.49,4 -4,4"/>
<!-- Secondary -->
<g id="node1" class="node">
<title>Secondary</title>
<ellipse fill="none" stroke="black" cx="223.49" cy="-192" rx="59.59" ry="18"/>
<text text-anchor="middle" x="223.49" y="-188.3" font-family="Times,serif" font-size="14.00">Secondary</text>
</g>
<!-- Primary -->
<g id="node2" class="node">
<title>Primary</title>
<ellipse fill="none" stroke="black" cx="112.49" cy="-105" rx="48.19" ry="18"/>
<text text-anchor="middle" x="112.49" y="-101.3" font-family="Times,serif" font-size="14.00">Primary</text>
</g>
<!-- Secondary&#45;&gt;Primary -->
<g id="edge1" class="edge">
<title>Secondary&#45;&gt;Primary</title>
<path fill="none" stroke="black" d="M163.97,-189.82C106.57,-187.27 25.5,-179.49 5.49,-156 -13.6,-133.6 22.34,-120.61 57.6,-113.51"/>
<polygon fill="black" stroke="black" points="58.3,-116.94 67.49,-111.66 57.02,-110.06 58.3,-116.94"/>
<text text-anchor="middle" x="68.49" y="-144.8" font-family="Times,serif" font-size="14.00">recv state packet</text>
</g>
<!-- Unknown -->
<g id="node3" class="node">
<title>Unknown</title>
<ellipse fill="none" stroke="black" cx="249.49" cy="-18" rx="55.49" ry="18"/>
<text text-anchor="middle" x="249.49" y="-14.3" font-family="Times,serif" font-size="14.00">Unknown</text>
</g>
<!-- Secondary&#45;&gt;Unknown -->
<g id="edge4" class="edge">
<title>Secondary&#45;&gt;Unknown</title>
<path fill="none" stroke="black" d="M258.17,-177.26C267.01,-172 275.44,-165.02 280.49,-156 302.62,-116.44 296.56,-96.39 280.49,-54 279.04,-50.18 276.96,-46.51 274.56,-43.08"/>
<polygon fill="black" stroke="black" points="277.11,-40.66 268.09,-35.09 271.66,-45.07 277.11,-40.66"/>
<text text-anchor="middle" x="349.49" y="-101.3" font-family="Times,serif" font-size="14.00">connection lost</text>
</g>
<!-- Primary&#45;&gt;Secondary -->
<g id="edge2" class="edge">
<title>Primary&#45;&gt;Secondary</title>
<path fill="none" stroke="black" d="M123.9,-122.81C131.64,-133.3 142.59,-146.56 154.49,-156 162.38,-162.26 171.57,-167.86 180.62,-172.64"/>
<polygon fill="black" stroke="black" points="179.06,-175.78 189.57,-177.15 182.21,-169.53 179.06,-175.78"/>
<text text-anchor="middle" x="217.49" y="-144.8" font-family="Times,serif" font-size="14.00">recv state packet</text>
</g>
<!-- Primary&#45;&gt;Unknown -->
<g id="edge3" class="edge">
<title>Primary&#45;&gt;Unknown</title>
<path fill="none" stroke="black" d="M88.32,-89.26C74.95,-79.26 62.82,-65.77 72.49,-54 86.81,-36.56 141.09,-27.67 185.81,-23.22"/>
<polygon fill="black" stroke="black" points="186.14,-26.7 195.77,-22.29 185.49,-19.74 186.14,-26.7"/>
<text text-anchor="middle" x="127.49" y="-57.8" font-family="Times,serif" font-size="14.00">connection lost</text>
</g>
<!-- Unknown&#45;&gt;Secondary -->
<g id="edge6" class="edge">
<title>Unknown&#45;&gt;Secondary</title>
<path fill="none" stroke="black" d="M294.13,-28.67C352.09,-43.38 442.09,-74.85 408.49,-123 382.07,-160.85 332.14,-177.69 290.8,-185.16"/>
<polygon fill="black" stroke="black" points="290.06,-181.73 280.77,-186.82 291.2,-188.64 290.06,-181.73"/>
<text text-anchor="middle" x="452.99" y="-101.3" font-family="Times,serif" font-size="14.00">connected</text>
</g>
<!-- Unknown&#45;&gt;Primary -->
<g id="edge5" class="edge">
<title>Unknown&#45;&gt;Primary</title>
<path fill="none" stroke="black" d="M229.91,-35.06C216.89,-45.38 199.17,-58.72 182.49,-69 172.66,-75.06 161.64,-80.95 151.31,-86.12"/>
<polygon fill="black" stroke="black" points="149.5,-83.11 142.06,-90.65 152.58,-89.39 149.5,-83.11"/>
<text text-anchor="middle" x="240.99" y="-57.8" font-family="Times,serif" font-size="14.00">connected</text>
</g>
</g>
</svg>
