<?xml version="1.0" encoding="UTF-8" standalone="no"?>
<!DOCTYPE svg PUBLIC "-//W3C//DTD SVG 1.1//EN"
 "http://www.w3.org/Graphics/SVG/1.1/DTD/svg11.dtd">
<!-- Generated by graphviz version 2.43.0 (0)
 -->
<!-- Title: board Pages: 1 -->
<svg width="391pt" height="358pt"
 viewBox="0.00 0.00 391.00 358.00" xmlns="http://www.w3.org/2000/svg" xmlns:xlink="http://www.w3.org/1999/xlink">
<g id="graph0" class="graph" transform="scale(1 1) rotate(0) translate(4 354)">
<title>board</title>
<polygon fill="white" stroke="transparent" points="-4,4 -4,-354 387,-354 387,4 -4,4"/>
<!-- scaler -->
<g id="node1" class="node">
<title>scaler</title>
<path fill="lightblue" stroke="black" d="M188,-103.5C188,-103.5 278,-103.5 278,-103.5 284,-103.5 290,-109.5 290,-115.5 290,-115.5 290,-129.5 290,-129.5 290,-135.5 284,-141.5 278,-141.5 278,-141.5 188,-141.5 188,-141.5 182,-141.5 176,-135.5 176,-129.5 176,-129.5 176,-115.5 176,-115.5 176,-109.5 182,-103.5 188,-103.5"/>
<text text-anchor="middle" x="189" y="-118.8" font-family="Times,serif" font-size="14.00">0</text>
<polyline fill="none" stroke="black" points="202,-103.5 202,-141.5 "/>
<text text-anchor="middle" x="233" y="-126.3" font-family="Times,serif" font-size="14.00">Host</text>
<text text-anchor="middle" x="233" y="-111.3" font-family="Times,serif" font-size="14.00">Scaler</text>
<polyline fill="none" stroke="black" points="264,-103.5 264,-141.5 "/>
<text text-anchor="middle" x="277" y="-118.8" font-family="Times,serif" font-size="14.00">1</text>
</g>
<!-- io -->
<g id="node4" class="node">
<title>io</title>
<path fill="aquamarine" stroke="black" d="M276.5,-0.5C276.5,-0.5 351.5,-0.5 351.5,-0.5 357.5,-0.5 363.5,-6.5 363.5,-12.5 363.5,-12.5 363.5,-24.5 363.5,-24.5 363.5,-30.5 357.5,-36.5 351.5,-36.5 351.5,-36.5 276.5,-36.5 276.5,-36.5 270.5,-36.5 264.5,-30.5 264.5,-24.5 264.5,-24.5 264.5,-12.5 264.5,-12.5 264.5,-6.5 270.5,-0.5 276.5,-0.5"/>
<text text-anchor="middle" x="277.5" y="-14.8" font-family="Times,serif" font-size="14.00">0</text>
<polyline fill="none" stroke="black" points="290.5,-0.5 290.5,-36.5 "/>
<text text-anchor="middle" x="327" y="-14.8" font-family="Times,serif" font-size="14.00">V4L I/O</text>
</g>
<!-- scaler&#45;&gt;io -->
<g id="edge3" class="edge">
<title>scaler:scaler_1&#45;&gt;io:io_0</title>
<path fill="none" stroke="blue" d="M277,-103C277,-77.33 277,-68.51 277,-47.05"/>
<polygon fill="blue" stroke="blue" points="280.5,-47 277,-37 273.5,-47 280.5,-47"/>
<text text-anchor="middle" x="330" y="-73.8" font-family="Times,serif" font-size="14.00">HQ: 1280x720</text>
<text text-anchor="middle" x="330" y="-58.8" font-family="Times,serif" font-size="14.00">HS: 1280x720</text>
</g>
<!-- frontend -->
<g id="node2" class="node">
<title>frontend</title>
<path fill="lightblue" stroke="black" d="M78.5,-208.5C78.5,-208.5 189.5,-208.5 189.5,-208.5 195.5,-208.5 201.5,-214.5 201.5,-220.5 201.5,-220.5 201.5,-234.5 201.5,-234.5 201.5,-240.5 195.5,-246.5 189.5,-246.5 189.5,-246.5 78.5,-246.5 78.5,-246.5 72.5,-246.5 66.5,-240.5 66.5,-234.5 66.5,-234.5 66.5,-220.5 66.5,-220.5 66.5,-214.5 72.5,-208.5 78.5,-208.5"/>
<text text-anchor="middle" x="79.5" y="-223.8" font-family="Times,serif" font-size="14.00">0</text>
<polyline fill="none" stroke="black" points="92.5,-208.5 92.5,-246.5 "/>
<text text-anchor="middle" x="134" y="-231.3" font-family="Times,serif" font-size="14.00">Host</text>
<text text-anchor="middle" x="134" y="-216.3" font-family="Times,serif" font-size="14.00">Frontend</text>
<polyline fill="none" stroke="black" points="175.5,-208.5 175.5,-246.5 "/>
<text text-anchor="middle" x="188.5" y="-223.8" font-family="Times,serif" font-size="14.00">1</text>
</g>
<!-- frontend&#45;&gt;scaler -->
<g id="edge2" class="edge">
<title>frontend:frontend_1&#45;&gt;scaler:scaler_0</title>
<path fill="none" stroke="blue" d="M189,-208C189,-182.33 189,-173.51 189,-152.05"/>
<polygon fill="blue" stroke="blue" points="192.5,-152 189,-142 185.5,-152 192.5,-152"/>
<text text-anchor="middle" x="246.5" y="-178.8" font-family="Times,serif" font-size="14.00">HQ: 2592x1968</text>
<text text-anchor="middle" x="246.5" y="-163.8" font-family="Times,serif" font-size="14.00">HS: 1296x984</text>
</g>
<!-- sensor -->
<g id="node3" class="node">
<title>sensor</title>
<path fill="aquamarine" stroke="black" d="M12,-313.5C12,-313.5 80,-313.5 80,-313.5 86,-313.5 92,-319.5 92,-325.5 92,-325.5 92,-337.5 92,-337.5 92,-343.5 86,-349.5 80,-349.5 80,-349.5 12,-349.5 12,-349.5 6,-349.5 0,-343.5 0,-337.5 0,-337.5 0,-325.5 0,-325.5 0,-319.5 6,-313.5 12,-313.5"/>
<text text-anchor="middle" x="33" y="-327.8" font-family="Times,serif" font-size="14.00">Sensor</text>
<polyline fill="none" stroke="black" points="66,-313.5 66,-349.5 "/>
<text text-anchor="middle" x="79" y="-327.8" font-family="Times,serif" font-size="14.00">0</text>
</g>
<!-- sensor&#45;&gt;frontend -->
<g id="edge1" class="edge">
<title>sensor:sensor_0&#45;&gt;frontend:frontend_0</title>
<path fill="none" stroke="blue" d="M79,-313C79,-287.33 79,-278.51 79,-257.05"/>
<polygon fill="blue" stroke="blue" points="82.5,-257 79,-247 75.5,-257 82.5,-257"/>
<text text-anchor="middle" x="136.5" y="-283.8" font-family="Times,serif" font-size="14.00">HQ: 2592x1968</text>
<text text-anchor="middle" x="136.5" y="-268.8" font-family="Times,serif" font-size="14.00">HS: 1296x984</text>
</g>
</g>
</svg>
