<?xml version="1.0" encoding="UTF-8" standalone="no"?>
<!DOCTYPE svg PUBLIC "-//W3C//DTD SVG 1.1//EN"
 "http://www.w3.org/Graphics/SVG/1.1/DTD/svg11.dtd">
<!-- Generated by graphviz version 2.43.0 (0)
 -->
<!-- Title: board Pages: 1 -->
<svg width="638pt" height="651pt"
 viewBox="0.00 0.00 638.00 651.00" xmlns="http://www.w3.org/2000/svg" xmlns:xlink="http://www.w3.org/1999/xlink">
<g id="graph0" class="graph" transform="scale(1 1) rotate(0) translate(4 647)">
<title>board</title>
<polygon fill="white" stroke="transparent" points="-4,4 -4,-647 634,-647 634,4 -4,4"/>
<!-- n00000001 -->
<g id="node1" class="node">
<title>n00000001</title>
<path fill="green" stroke="black" d="M180.5,-437.5C180.5,-437.5 293.5,-437.5 293.5,-437.5 299.5,-437.5 305.5,-443.5 305.5,-449.5 305.5,-449.5 305.5,-509.5 305.5,-509.5 305.5,-515.5 299.5,-521.5 293.5,-521.5 293.5,-521.5 180.5,-521.5 180.5,-521.5 174.5,-521.5 168.5,-515.5 168.5,-509.5 168.5,-509.5 168.5,-449.5 168.5,-449.5 168.5,-443.5 174.5,-437.5 180.5,-437.5"/>
<text text-anchor="middle" x="237" y="-506.3" font-family="Times,serif" font-size="14.00">0</text>
<polyline fill="none" stroke="black" points="168.5,-498.5 305.5,-498.5 "/>
<text text-anchor="middle" x="237" y="-483.3" font-family="Times,serif" font-size="14.00">msm_csiphy0</text>
<text text-anchor="middle" x="237" y="-468.3" font-family="Times,serif" font-size="14.00">/dev/v4l&#45;subdev0</text>
<polyline fill="none" stroke="black" points="168.5,-460.5 305.5,-460.5 "/>
<text text-anchor="middle" x="237" y="-445.3" font-family="Times,serif" font-size="14.00">1</text>
</g>
<!-- n00000007 -->
<g id="node2" class="node">
<title>n00000007</title>
<path fill="green" stroke="black" d="M180.5,-316.5C180.5,-316.5 293.5,-316.5 293.5,-316.5 299.5,-316.5 305.5,-322.5 305.5,-328.5 305.5,-328.5 305.5,-388.5 305.5,-388.5 305.5,-394.5 299.5,-400.5 293.5,-400.5 293.5,-400.5 180.5,-400.5 180.5,-400.5 174.5,-400.5 168.5,-394.5 168.5,-388.5 168.5,-388.5 168.5,-328.5 168.5,-328.5 168.5,-322.5 174.5,-316.5 180.5,-316.5"/>
<text text-anchor="middle" x="237" y="-385.3" font-family="Times,serif" font-size="14.00">0</text>
<polyline fill="none" stroke="black" points="168.5,-377.5 305.5,-377.5 "/>
<text text-anchor="middle" x="237" y="-362.3" font-family="Times,serif" font-size="14.00">msm_csid0</text>
<text text-anchor="middle" x="237" y="-347.3" font-family="Times,serif" font-size="14.00">/dev/v4l&#45;subdev2</text>
<polyline fill="none" stroke="black" points="168.5,-339.5 305.5,-339.5 "/>
<text text-anchor="middle" x="237" y="-324.3" font-family="Times,serif" font-size="14.00">1</text>
</g>
<!-- n00000001&#45;&gt;n00000007 -->
<g id="edge1" class="edge">
<title>n00000001:port1&#45;&gt;n00000007:port0</title>
<path fill="none" stroke="black" stroke-dasharray="5,2" d="M237,-437C237,-425 237,-419.75 237,-411.12"/>
<polygon fill="black" stroke="black" points="240.5,-411 237,-401 233.5,-411 240.5,-411"/>
</g>
<!-- n0000000a -->
<g id="node3" class="node">
<title>n0000000a</title>
<path fill="green" stroke="black" d="M335.5,-316.5C335.5,-316.5 448.5,-316.5 448.5,-316.5 454.5,-316.5 460.5,-322.5 460.5,-328.5 460.5,-328.5 460.5,-388.5 460.5,-388.5 460.5,-394.5 454.5,-400.5 448.5,-400.5 448.5,-400.5 335.5,-400.5 335.5,-400.5 329.5,-400.5 323.5,-394.5 323.5,-388.5 323.5,-388.5 323.5,-328.5 323.5,-328.5 323.5,-322.5 329.5,-316.5 335.5,-316.5"/>
<text text-anchor="middle" x="392" y="-385.3" font-family="Times,serif" font-size="14.00">0</text>
<polyline fill="none" stroke="black" points="323.5,-377.5 460.5,-377.5 "/>
<text text-anchor="middle" x="392" y="-362.3" font-family="Times,serif" font-size="14.00">msm_csid1</text>
<text text-anchor="middle" x="392" y="-347.3" font-family="Times,serif" font-size="14.00">/dev/v4l&#45;subdev3</text>
<polyline fill="none" stroke="black" points="323.5,-339.5 460.5,-339.5 "/>
<text text-anchor="middle" x="392" y="-324.3" font-family="Times,serif" font-size="14.00">1</text>
</g>
<!-- n00000001&#45;&gt;n0000000a -->
<g id="edge2" class="edge">
<title>n00000001:port1&#45;&gt;n0000000a:port0</title>
<path fill="none" stroke="black" stroke-dasharray="5,2" d="M307,-448.5C317.36,-448.5 312.72,-413.92 316.05,-397.7"/>
<polygon fill="black" stroke="black" points="318.96,-399.65 322,-389.5 313.29,-395.54 318.96,-399.65"/>
</g>
<!-- n0000000d -->
<g id="node5" class="node">
<title>n0000000d</title>
<path fill="green" stroke="black" d="M180.5,-195.5C180.5,-195.5 293.5,-195.5 293.5,-195.5 299.5,-195.5 305.5,-201.5 305.5,-207.5 305.5,-207.5 305.5,-267.5 305.5,-267.5 305.5,-273.5 299.5,-279.5 293.5,-279.5 293.5,-279.5 180.5,-279.5 180.5,-279.5 174.5,-279.5 168.5,-273.5 168.5,-267.5 168.5,-267.5 168.5,-207.5 168.5,-207.5 168.5,-201.5 174.5,-195.5 180.5,-195.5"/>
<text text-anchor="middle" x="237" y="-264.3" font-family="Times,serif" font-size="14.00">0</text>
<polyline fill="none" stroke="black" points="168.5,-256.5 305.5,-256.5 "/>
<text text-anchor="middle" x="237" y="-241.3" font-family="Times,serif" font-size="14.00">msm_ispif0</text>
<text text-anchor="middle" x="237" y="-226.3" font-family="Times,serif" font-size="14.00">/dev/v4l&#45;subdev4</text>
<polyline fill="none" stroke="black" points="168.5,-218.5 305.5,-218.5 "/>
<text text-anchor="middle" x="237" y="-203.3" font-family="Times,serif" font-size="14.00">1</text>
</g>
<!-- n00000007&#45;&gt;n0000000d -->
<g id="edge5" class="edge">
<title>n00000007:port1&#45;&gt;n0000000d:port0</title>
<path fill="none" stroke="black" stroke-dasharray="5,2" d="M237,-316C237,-304 237,-298.75 237,-290.12"/>
<polygon fill="black" stroke="black" points="240.5,-290 237,-280 233.5,-290 240.5,-290"/>
</g>
<!-- n00000010 -->
<g id="node6" class="node">
<title>n00000010</title>
<path fill="green" stroke="black" d="M335.5,-195.5C335.5,-195.5 448.5,-195.5 448.5,-195.5 454.5,-195.5 460.5,-201.5 460.5,-207.5 460.5,-207.5 460.5,-267.5 460.5,-267.5 460.5,-273.5 454.5,-279.5 448.5,-279.5 448.5,-279.5 335.5,-279.5 335.5,-279.5 329.5,-279.5 323.5,-273.5 323.5,-267.5 323.5,-267.5 323.5,-207.5 323.5,-207.5 323.5,-201.5 329.5,-195.5 335.5,-195.5"/>
<text text-anchor="middle" x="392" y="-264.3" font-family="Times,serif" font-size="14.00">0</text>
<polyline fill="none" stroke="black" points="323.5,-256.5 460.5,-256.5 "/>
<text text-anchor="middle" x="392" y="-241.3" font-family="Times,serif" font-size="14.00">msm_ispif1</text>
<text text-anchor="middle" x="392" y="-226.3" font-family="Times,serif" font-size="14.00">/dev/v4l&#45;subdev5</text>
<polyline fill="none" stroke="black" points="323.5,-218.5 460.5,-218.5 "/>
<text text-anchor="middle" x="392" y="-203.3" font-family="Times,serif" font-size="14.00">1</text>
</g>
<!-- n00000007&#45;&gt;n00000010 -->
<g id="edge6" class="edge">
<title>n00000007:port1&#45;&gt;n00000010:port0</title>
<path fill="none" stroke="black" stroke-dasharray="5,2" d="M307,-327.5C317.36,-327.5 312.72,-292.92 316.05,-276.7"/>
<polygon fill="black" stroke="black" points="318.96,-278.65 322,-268.5 313.29,-274.54 318.96,-278.65"/>
</g>
<!-- n0000000a&#45;&gt;n0000000d -->
<g id="edge7" class="edge">
<title>n0000000a:port1&#45;&gt;n0000000d:port0</title>
<path fill="none" stroke="black" stroke-dasharray="5,2" d="M322,-327.5C311.64,-327.5 316.28,-292.92 312.95,-276.7"/>
<polygon fill="black" stroke="black" points="315.71,-274.54 307,-268.5 310.04,-278.65 315.71,-274.54"/>
</g>
<!-- n0000000a&#45;&gt;n00000010 -->
<g id="edge8" class="edge">
<title>n0000000a:port1&#45;&gt;n00000010:port0</title>
<path fill="none" stroke="black" stroke-dasharray="5,2" d="M392,-316C392,-304 392,-298.75 392,-290.12"/>
<polygon fill="black" stroke="black" points="395.5,-290 392,-280 388.5,-290 395.5,-290"/>
</g>
<!-- n00000004 -->
<g id="node4" class="node">
<title>n00000004</title>
<path fill="green" stroke="black" d="M335.5,-437.5C335.5,-437.5 448.5,-437.5 448.5,-437.5 454.5,-437.5 460.5,-443.5 460.5,-449.5 460.5,-449.5 460.5,-509.5 460.5,-509.5 460.5,-515.5 454.5,-521.5 448.5,-521.5 448.5,-521.5 335.5,-521.5 335.5,-521.5 329.5,-521.5 323.5,-515.5 323.5,-509.5 323.5,-509.5 323.5,-449.5 323.5,-449.5 323.5,-443.5 329.5,-437.5 335.5,-437.5"/>
<text text-anchor="middle" x="392" y="-506.3" font-family="Times,serif" font-size="14.00">0</text>
<polyline fill="none" stroke="black" points="323.5,-498.5 460.5,-498.5 "/>
<text text-anchor="middle" x="392" y="-483.3" font-family="Times,serif" font-size="14.00">msm_csiphy1</text>
<text text-anchor="middle" x="392" y="-468.3" font-family="Times,serif" font-size="14.00">/dev/v4l&#45;subdev1</text>
<polyline fill="none" stroke="black" points="323.5,-460.5 460.5,-460.5 "/>
<text text-anchor="middle" x="392" y="-445.3" font-family="Times,serif" font-size="14.00">1</text>
</g>
<!-- n00000004&#45;&gt;n00000007 -->
<g id="edge3" class="edge">
<title>n00000004:port1&#45;&gt;n00000007:port0</title>
<path fill="none" stroke="black" stroke-dasharray="5,2" d="M322,-448.5C311.64,-448.5 316.28,-413.92 312.95,-397.7"/>
<polygon fill="black" stroke="black" points="315.71,-395.54 307,-389.5 310.04,-399.65 315.71,-395.54"/>
</g>
<!-- n00000004&#45;&gt;n0000000a -->
<g id="edge4" class="edge">
<title>n00000004:port1&#45;&gt;n0000000a:port0</title>
<path fill="none" stroke="black" stroke-dasharray="5,2" d="M392,-437C392,-425 392,-419.75 392,-411.12"/>
<polygon fill="black" stroke="black" points="395.5,-411 392,-401 388.5,-411 395.5,-411"/>
</g>
<!-- n00000013 -->
<g id="node7" class="node">
<title>n00000013</title>
<path fill="green" stroke="black" d="M25.5,-74.5C25.5,-74.5 138.5,-74.5 138.5,-74.5 144.5,-74.5 150.5,-80.5 150.5,-86.5 150.5,-86.5 150.5,-146.5 150.5,-146.5 150.5,-152.5 144.5,-158.5 138.5,-158.5 138.5,-158.5 25.5,-158.5 25.5,-158.5 19.5,-158.5 13.5,-152.5 13.5,-146.5 13.5,-146.5 13.5,-86.5 13.5,-86.5 13.5,-80.5 19.5,-74.5 25.5,-74.5"/>
<text text-anchor="middle" x="82" y="-143.3" font-family="Times,serif" font-size="14.00">0</text>
<polyline fill="none" stroke="black" points="13.5,-135.5 150.5,-135.5 "/>
<text text-anchor="middle" x="82" y="-120.3" font-family="Times,serif" font-size="14.00">msm_vfe0_rdi0</text>
<text text-anchor="middle" x="82" y="-105.3" font-family="Times,serif" font-size="14.00">/dev/v4l&#45;subdev6</text>
<polyline fill="none" stroke="black" points="13.5,-97.5 150.5,-97.5 "/>
<text text-anchor="middle" x="82" y="-82.3" font-family="Times,serif" font-size="14.00">1</text>
</g>
<!-- n0000000d&#45;&gt;n00000013 -->
<g id="edge9" class="edge">
<title>n0000000d:port1&#45;&gt;n00000013:port0</title>
<path fill="none" stroke="black" stroke-dasharray="5,2" d="M167,-206.5C156.64,-206.5 161.28,-171.92 157.95,-155.7"/>
<polygon fill="black" stroke="black" points="160.71,-153.54 152,-147.5 155.04,-157.65 160.71,-153.54"/>
</g>
<!-- n0000001c -->
<g id="node8" class="node">
<title>n0000001c</title>
<path fill="green" stroke="black" d="M180.5,-74.5C180.5,-74.5 293.5,-74.5 293.5,-74.5 299.5,-74.5 305.5,-80.5 305.5,-86.5 305.5,-86.5 305.5,-146.5 305.5,-146.5 305.5,-152.5 299.5,-158.5 293.5,-158.5 293.5,-158.5 180.5,-158.5 180.5,-158.5 174.5,-158.5 168.5,-152.5 168.5,-146.5 168.5,-146.5 168.5,-86.5 168.5,-86.5 168.5,-80.5 174.5,-74.5 180.5,-74.5"/>
<text text-anchor="middle" x="237" y="-143.3" font-family="Times,serif" font-size="14.00">0</text>
<polyline fill="none" stroke="black" points="168.5,-135.5 305.5,-135.5 "/>
<text text-anchor="middle" x="237" y="-120.3" font-family="Times,serif" font-size="14.00">msm_vfe0_rdi1</text>
<text text-anchor="middle" x="237" y="-105.3" font-family="Times,serif" font-size="14.00">/dev/v4l&#45;subdev7</text>
<polyline fill="none" stroke="black" points="168.5,-97.5 305.5,-97.5 "/>
<text text-anchor="middle" x="237" y="-82.3" font-family="Times,serif" font-size="14.00">1</text>
</g>
<!-- n0000000d&#45;&gt;n0000001c -->
<g id="edge10" class="edge">
<title>n0000000d:port1&#45;&gt;n0000001c:port0</title>
<path fill="none" stroke="black" stroke-dasharray="5,2" d="M237,-195C237,-183 237,-177.75 237,-169.12"/>
<polygon fill="black" stroke="black" points="240.5,-169 237,-159 233.5,-169 240.5,-169"/>
</g>
<!-- n00000025 -->
<g id="node9" class="node">
<title>n00000025</title>
<path fill="green" stroke="black" d="M335.5,-74.5C335.5,-74.5 448.5,-74.5 448.5,-74.5 454.5,-74.5 460.5,-80.5 460.5,-86.5 460.5,-86.5 460.5,-146.5 460.5,-146.5 460.5,-152.5 454.5,-158.5 448.5,-158.5 448.5,-158.5 335.5,-158.5 335.5,-158.5 329.5,-158.5 323.5,-152.5 323.5,-146.5 323.5,-146.5 323.5,-86.5 323.5,-86.5 323.5,-80.5 329.5,-74.5 335.5,-74.5"/>
<text text-anchor="middle" x="392" y="-143.3" font-family="Times,serif" font-size="14.00">0</text>
<polyline fill="none" stroke="black" points="323.5,-135.5 460.5,-135.5 "/>
<text text-anchor="middle" x="392" y="-120.3" font-family="Times,serif" font-size="14.00">msm_vfe0_rdi2</text>
<text text-anchor="middle" x="392" y="-105.3" font-family="Times,serif" font-size="14.00">/dev/v4l&#45;subdev8</text>
<polyline fill="none" stroke="black" points="323.5,-97.5 460.5,-97.5 "/>
<text text-anchor="middle" x="392" y="-82.3" font-family="Times,serif" font-size="14.00">1</text>
</g>
<!-- n0000000d&#45;&gt;n00000025 -->
<g id="edge11" class="edge">
<title>n0000000d:port1&#45;&gt;n00000025:port0</title>
<path fill="none" stroke="black" stroke-dasharray="5,2" d="M307,-206.5C317.36,-206.5 312.72,-171.92 316.05,-155.7"/>
<polygon fill="black" stroke="black" points="318.96,-157.65 322,-147.5 313.29,-153.54 318.96,-157.65"/>
</g>
<!-- n0000002e -->
<g id="node10" class="node">
<title>n0000002e</title>
<path fill="green" stroke="black" d="M490.5,-74.5C490.5,-74.5 603.5,-74.5 603.5,-74.5 609.5,-74.5 615.5,-80.5 615.5,-86.5 615.5,-86.5 615.5,-146.5 615.5,-146.5 615.5,-152.5 609.5,-158.5 603.5,-158.5 603.5,-158.5 490.5,-158.5 490.5,-158.5 484.5,-158.5 478.5,-152.5 478.5,-146.5 478.5,-146.5 478.5,-86.5 478.5,-86.5 478.5,-80.5 484.5,-74.5 490.5,-74.5"/>
<text text-anchor="middle" x="547" y="-143.3" font-family="Times,serif" font-size="14.00">0</text>
<polyline fill="none" stroke="black" points="478.5,-135.5 615.5,-135.5 "/>
<text text-anchor="middle" x="547" y="-120.3" font-family="Times,serif" font-size="14.00">msm_vfe0_pix</text>
<text text-anchor="middle" x="547" y="-105.3" font-family="Times,serif" font-size="14.00">/dev/v4l&#45;subdev9</text>
<polyline fill="none" stroke="black" points="478.5,-97.5 615.5,-97.5 "/>
<text text-anchor="middle" x="547" y="-82.3" font-family="Times,serif" font-size="14.00">1</text>
</g>
<!-- n0000000d&#45;&gt;n0000002e -->
<g id="edge12" class="edge">
<title>n0000000d:port1&#45;&gt;n0000002e:port0</title>
<path fill="none" stroke="black" stroke-dasharray="5,2" d="M307,-206.5C313.23,-206.5 309.85,-198.49 315,-195 373.54,-155.32 412.69,-200.44 470,-159 470.91,-158.34 471.51,-157.53 471.93,-156.64"/>
<polygon fill="black" stroke="black" points="475.21,-157.94 477,-147.5 469.09,-154.55 475.21,-157.94"/>
</g>
<!-- n00000010&#45;&gt;n00000013 -->
<g id="edge13" class="edge">
<title>n00000010:port1&#45;&gt;n00000013:port0</title>
<path fill="none" stroke="black" stroke-dasharray="5,2" d="M322,-206.5C316.02,-206.5 319.85,-198.5 315,-195 257.31,-153.34 216.69,-200.66 159,-159 158.09,-158.34 157.49,-157.53 157.07,-156.64"/>
<polygon fill="black" stroke="black" points="159.91,-154.55 152,-147.5 153.79,-157.94 159.91,-154.55"/>
</g>
<!-- n00000010&#45;&gt;n0000001c -->
<g id="edge14" class="edge">
<title>n00000010:port1&#45;&gt;n0000001c:port0</title>
<path fill="none" stroke="black" stroke-dasharray="5,2" d="M322,-206.5C311.64,-206.5 316.28,-171.92 312.95,-155.7"/>
<polygon fill="black" stroke="black" points="315.71,-153.54 307,-147.5 310.04,-157.65 315.71,-153.54"/>
</g>
<!-- n00000010&#45;&gt;n00000025 -->
<g id="edge15" class="edge">
<title>n00000010:port1&#45;&gt;n00000025:port0</title>
<path fill="none" stroke="black" stroke-dasharray="5,2" d="M392,-195C392,-183 392,-177.75 392,-169.12"/>
<polygon fill="black" stroke="black" points="395.5,-169 392,-159 388.5,-169 395.5,-169"/>
</g>
<!-- n00000010&#45;&gt;n0000002e -->
<g id="edge16" class="edge">
<title>n00000010:port1&#45;&gt;n0000002e:port0</title>
<path fill="none" stroke="black" stroke-dasharray="5,2" d="M462,-206.5C472.36,-206.5 467.72,-171.92 471.05,-155.7"/>
<polygon fill="black" stroke="black" points="473.96,-157.65 477,-147.5 468.29,-153.54 473.96,-157.65"/>
</g>
<!-- n00000016 -->
<g id="node11" class="node">
<title>n00000016</title>
<polygon fill="yellow" stroke="black" points="144,-38 0,-38 0,0 144,0 144,-38"/>
<text text-anchor="middle" x="72" y="-22.8" font-family="Times,serif" font-size="14.00">msm_vfe0_video0</text>
<text text-anchor="middle" x="72" y="-7.8" font-family="Times,serif" font-size="14.00">/dev/video0</text>
</g>
<!-- n00000013&#45;&gt;n00000016 -->
<g id="edge17" class="edge">
<title>n00000013:port1&#45;&gt;n00000016</title>
<path fill="none" stroke="black" stroke-width="2" d="M82,-74C82,-65.55 80.8,-56.49 79.24,-48.24"/>
<polygon fill="black" stroke="black" stroke-width="2" points="82.63,-47.38 77.12,-38.34 75.79,-48.85 82.63,-47.38"/>
</g>
<!-- n0000001f -->
<g id="node12" class="node">
<title>n0000001f</title>
<polygon fill="yellow" stroke="black" points="306,-38 162,-38 162,0 306,0 306,-38"/>
<text text-anchor="middle" x="234" y="-22.8" font-family="Times,serif" font-size="14.00">msm_vfe0_video1</text>
<text text-anchor="middle" x="234" y="-7.8" font-family="Times,serif" font-size="14.00">/dev/video1</text>
</g>
<!-- n0000001c&#45;&gt;n0000001f -->
<g id="edge18" class="edge">
<title>n0000001c:port1&#45;&gt;n0000001f</title>
<path fill="none" stroke="black" stroke-width="2" d="M237,-74C237,-65.77 236.65,-56.85 236.19,-48.68"/>
<polygon fill="black" stroke="black" stroke-width="2" points="239.67,-48.24 235.54,-38.48 232.68,-48.68 239.67,-48.24"/>
</g>
<!-- n00000028 -->
<g id="node13" class="node">
<title>n00000028</title>
<polygon fill="yellow" stroke="black" points="468,-38 324,-38 324,0 468,0 468,-38"/>
<text text-anchor="middle" x="396" y="-22.8" font-family="Times,serif" font-size="14.00">msm_vfe0_video2</text>
<text text-anchor="middle" x="396" y="-7.8" font-family="Times,serif" font-size="14.00">/dev/video2</text>
</g>
<!-- n00000025&#45;&gt;n00000028 -->
<g id="edge19" class="edge">
<title>n00000025:port1&#45;&gt;n00000028</title>
<path fill="none" stroke="black" stroke-width="2" d="M392,-74C392,-65.76 392.47,-56.84 393.08,-48.67"/>
<polygon fill="black" stroke="black" stroke-width="2" points="396.59,-48.73 393.95,-38.47 389.62,-48.14 396.59,-48.73"/>
</g>
<!-- n00000031 -->
<g id="node14" class="node">
<title>n00000031</title>
<polygon fill="yellow" stroke="black" points="630,-38 486,-38 486,0 630,0 630,-38"/>
<text text-anchor="middle" x="558" y="-22.8" font-family="Times,serif" font-size="14.00">msm_vfe0_video3</text>
<text text-anchor="middle" x="558" y="-7.8" font-family="Times,serif" font-size="14.00">/dev/video3</text>
</g>
<!-- n0000002e&#45;&gt;n00000031 -->
<g id="edge20" class="edge">
<title>n0000002e:port1&#45;&gt;n00000031</title>
<path fill="none" stroke="black" stroke-width="2" d="M547,-74C547,-65.52 548.32,-56.45 550.04,-48.2"/>
<polygon fill="black" stroke="black" stroke-width="2" points="553.48,-48.84 552.37,-38.31 546.67,-47.24 553.48,-48.84"/>
</g>
<!-- n00000057 -->
<g id="node15" class="node">
<title>n00000057</title>
<path fill="green" stroke="black" d="M172,-558.5C172,-558.5 294,-558.5 294,-558.5 300,-558.5 306,-564.5 306,-570.5 306,-570.5 306,-630.5 306,-630.5 306,-636.5 300,-642.5 294,-642.5 294,-642.5 172,-642.5 172,-642.5 166,-642.5 160,-636.5 160,-630.5 160,-630.5 160,-570.5 160,-570.5 160,-564.5 166,-558.5 172,-558.5"/>
<text text-anchor="middle" x="233" y="-627.3" font-family="Times,serif" font-size="14.00"> </text>
<polyline fill="none" stroke="black" points="160,-619.5 306,-619.5 "/>
<text text-anchor="middle" x="233" y="-604.3" font-family="Times,serif" font-size="14.00">ov5645 1&#45;0076</text>
<text text-anchor="middle" x="233" y="-589.3" font-family="Times,serif" font-size="14.00">/dev/v4l&#45;subdev10</text>
<polyline fill="none" stroke="black" points="160,-581.5 306,-581.5 "/>
<text text-anchor="middle" x="233" y="-566.3" font-family="Times,serif" font-size="14.00">0</text>
</g>
<!-- n00000057&#45;&gt;n00000001 -->
<g id="edge21" class="edge">
<title>n00000057:port0&#45;&gt;n00000001:port0</title>
<path fill="none" stroke="black" stroke-width="2" d="M233,-558C233,-545.93 235.25,-540.77 236.38,-532.15"/>
<polygon fill="black" stroke="black" stroke-width="2" points="239.88,-532.2 237,-522 232.89,-531.77 239.88,-532.2"/>
</g>
<!-- n00000059 -->
<g id="node16" class="node">
<title>n00000059</title>
<path fill="green" stroke="black" d="M336,-558.5C336,-558.5 458,-558.5 458,-558.5 464,-558.5 470,-564.5 470,-570.5 470,-570.5 470,-630.5 470,-630.5 470,-636.5 464,-642.5 458,-642.5 458,-642.5 336,-642.5 336,-642.5 330,-642.5 324,-636.5 324,-630.5 324,-630.5 324,-570.5 324,-570.5 324,-564.5 330,-558.5 336,-558.5"/>
<text text-anchor="middle" x="397" y="-627.3" font-family="Times,serif" font-size="14.00"> </text>
<polyline fill="none" stroke="black" points="324,-619.5 470,-619.5 "/>
<text text-anchor="middle" x="397" y="-604.3" font-family="Times,serif" font-size="14.00">ov5645 1&#45;0074</text>
<text text-anchor="middle" x="397" y="-589.3" font-family="Times,serif" font-size="14.00">/dev/v4l&#45;subdev11</text>
<polyline fill="none" stroke="black" points="324,-581.5 470,-581.5 "/>
<text text-anchor="middle" x="397" y="-566.3" font-family="Times,serif" font-size="14.00">0</text>
</g>
<!-- n00000059&#45;&gt;n00000004 -->
<g id="edge22" class="edge">
<title>n00000059:port0&#45;&gt;n00000004:port0</title>
<path fill="none" stroke="black" stroke-width="2" d="M397,-558C397,-545.88 394.19,-540.78 392.78,-532.17"/>
<polygon fill="black" stroke="black" stroke-width="2" points="396.26,-531.7 392,-522 389.28,-532.24 396.26,-531.7"/>
</g>
</g>
</svg>
