<?xml version="1.0" encoding="UTF-8" standalone="no"?>
<!DOCTYPE svg PUBLIC "-//W3C//DTD SVG 1.1//EN"
 "http://www.w3.org/Graphics/SVG/1.1/DTD/svg11.dtd">
<!-- Generated by graphviz version 2.43.0 (0)
 -->
<!-- Title: T Pages: 1 -->
<svg width="567pt" height="459pt"
 viewBox="0.00 0.00 567.28 459.00" xmlns="http://www.w3.org/2000/svg" xmlns:xlink="http://www.w3.org/1999/xlink">
<g id="graph0" class="graph" transform="scale(1 1) rotate(0) translate(4 455)">
<title>T</title>
<polygon fill="white" stroke="transparent" points="-4,4 -4,-455 563.28,-455 563.28,4 -4,4"/>
<g id="clust1" class="cluster">
<title>cluster_driver</title>
<polygon fill="grey" stroke="black" points="274,-319 274,-443 504,-443 504,-319 274,-319"/>
</g>
<g id="clust3" class="cluster">
<title>cluster_topology</title>
<polygon fill="none" stroke="black" points="8,-8 8,-371 266,-371 266,-8 8,-8"/>
<text text-anchor="middle" x="137" y="-15.8" font-family="Times,serif" font-size="14.00">Topology Manager</text>
</g>
<!-- driver -->
<g id="node1" class="node">
<title>driver</title>
<polygon fill="lightblue" stroke="black" points="439.5,-435 338.5,-435 338.5,-399 439.5,-399 439.5,-435"/>
<text text-anchor="middle" x="389" y="-413.3" font-family="Times,serif" font-size="14.00">DRM driver</text>
</g>
<!-- payload1 -->
<g id="node2" class="node">
<title>payload1</title>
<polygon fill="lightblue" stroke="black" points="380,-363 282,-363 282,-327 380,-327 380,-363"/>
<text text-anchor="middle" x="331" y="-341.3" font-family="Times,serif" font-size="14.00">Payload #1</text>
</g>
<!-- driver&#45;&gt;payload1 -->
<g id="edge1" class="edge">
<title>driver&#45;&gt;payload1</title>
<path fill="none" stroke="black" d="M374.66,-398.7C365.67,-387.85 354.13,-373.92 345.17,-363.1"/>
</g>
<!-- payload2 -->
<g id="node3" class="node">
<title>payload2</title>
<polygon fill="lightblue" stroke="black" points="496,-363 398,-363 398,-327 496,-327 496,-363"/>
<text text-anchor="middle" x="447" y="-341.3" font-family="Times,serif" font-size="14.00">Payload #2</text>
</g>
<!-- driver&#45;&gt;payload2 -->
<g id="edge2" class="edge">
<title>driver&#45;&gt;payload2</title>
<path fill="none" stroke="black" d="M403.34,-398.7C412.33,-387.85 423.87,-373.92 432.83,-363.1"/>
</g>
<!-- port1 -->
<g id="node4" class="node">
<title>port1</title>
<ellipse fill="none" stroke="black" cx="202" cy="-273" rx="46.59" ry="18"/>
<text text-anchor="middle" x="202" y="-269.3" font-family="Times,serif" font-size="14.00">Port #1</text>
</g>
<!-- driver&#45;&gt;port1 -->
<g id="edge3" class="edge">
<title>driver&#45;&gt;port1</title>
<path fill="none" stroke="black" stroke-dasharray="5,2" d="M338.47,-414.38C272.42,-411.07 162.18,-401.07 137,-371 122.16,-353.28 126.27,-339.47 137,-319 142.82,-307.89 152.77,-298.97 163.16,-292.1"/>
<polygon fill="black" stroke="black" points="165.17,-294.98 171.91,-286.81 161.54,-288.99 165.17,-294.98"/>
</g>
<!-- port2 -->
<g id="node5" class="node">
<title>port2</title>
<ellipse fill="none" stroke="black" cx="80" cy="-273" rx="46.59" ry="18"/>
<text text-anchor="middle" x="80" y="-269.3" font-family="Times,serif" font-size="14.00">Port #2</text>
</g>
<!-- driver&#45;&gt;port2 -->
<g id="edge4" class="edge">
<title>driver&#45;&gt;port2</title>
<path fill="none" stroke="black" stroke-dasharray="5,2" d="M338.28,-413.08C270.68,-408.24 155.78,-396.47 123,-371 101.02,-353.93 90.01,-323.22 84.67,-300.92"/>
<polygon fill="black" stroke="black" points="88.07,-300.08 82.55,-291.05 81.23,-301.56 88.07,-300.08"/>
</g>
<!-- port3 -->
<g id="node6" class="node">
<title>port3</title>
<ellipse fill="none" stroke="black" cx="193" cy="-129" rx="46.59" ry="18"/>
<text text-anchor="middle" x="193" y="-125.3" font-family="Times,serif" font-size="14.00">Port #3</text>
</g>
<!-- driver&#45;&gt;port3 -->
<g id="edge5" class="edge">
<title>driver&#45;&gt;port3:e</title>
<path fill="none" stroke="black" stroke-dasharray="5,2" d="M439.52,-415.33C473.3,-411.91 515.53,-401.26 538,-371 568.74,-329.61 563.06,-300.05 538,-255 470,-132.75 388.48,-129.11 251.4,-129"/>
<polygon fill="black" stroke="black" points="251,-125.5 241,-129 251,-132.5 251,-125.5"/>
</g>
<!-- port4 -->
<g id="node7" class="node">
<title>port4</title>
<ellipse fill="none" stroke="black" cx="72" cy="-129" rx="46.59" ry="18"/>
<text text-anchor="middle" x="72" y="-125.3" font-family="Times,serif" font-size="14.00">Port #4</text>
</g>
<!-- driver&#45;&gt;port4 -->
<g id="edge6" class="edge">
<title>driver&#45;&gt;port4</title>
<path fill="none" stroke="black" stroke-dasharray="5,2" d="M439.73,-409.58C463.73,-403.71 490.29,-392.48 505,-371 518.06,-351.93 516.6,-338.99 505,-319 443.85,-213.63 379.58,-229.57 267,-183 260.06,-180.13 175.06,-157.36 119.6,-142.61"/>
<polygon fill="black" stroke="black" points="120.18,-139.15 109.61,-139.96 118.38,-145.91 120.18,-139.15"/>
</g>
<!-- payload1&#45;&gt;port1 -->
<g id="edge7" class="edge">
<title>payload1:s&#45;&gt;port1:e</title>
<path fill="none" stroke="black" stroke-dasharray="5,2" d="M331,-326C331,-286.51 299,-274.86 260.47,-273.21"/>
<polygon fill="black" stroke="black" points="260.07,-269.71 250,-273 259.93,-276.7 260.07,-269.71"/>
</g>
<!-- payload2&#45;&gt;port3 -->
<g id="edge8" class="edge">
<title>payload2:s&#45;&gt;port3:e</title>
<path fill="none" stroke="black" stroke-dasharray="5,2" d="M447,-326C447,-202.78 371.96,-132.89 251.29,-129.16"/>
<polygon fill="black" stroke="black" points="251.05,-125.65 241,-129 250.95,-132.65 251.05,-125.65"/>
</g>
<!-- mstb2 -->
<g id="node9" class="node">
<title>mstb2</title>
<ellipse fill="palegreen" stroke="black" cx="202" cy="-201" rx="55.79" ry="18"/>
<text text-anchor="middle" x="202" y="-197.3" font-family="Times,serif" font-size="14.00">MSTB #2</text>
</g>
<!-- port1&#45;&gt;mstb2 -->
<g id="edge11" class="edge">
<title>port1&#45;&gt;mstb2</title>
<path fill="none" stroke="black" d="M196.12,-255.05C195.3,-247.35 195.06,-238.03 195.39,-229.36"/>
<polygon fill="black" stroke="black" points="198.89,-229.49 196.09,-219.28 191.91,-229.01 198.89,-229.49"/>
</g>
<!-- port1&#45;&gt;mstb2 -->
<g id="edge18" class="edge">
<title>port1&#45;&gt;mstb2</title>
<path fill="none" stroke="black" stroke-dasharray="5,2" d="M208.59,-245.01C208.94,-236.36 208.71,-227.03 207.91,-219.28"/>
<polygon fill="black" stroke="black" points="205.09,-244.83 207.88,-255.05 212.08,-245.33 205.09,-244.83"/>
</g>
<!-- mstb3 -->
<g id="node10" class="node">
<title>mstb3</title>
<ellipse fill="palegreen" stroke="black" cx="72" cy="-201" rx="55.79" ry="18"/>
<text text-anchor="middle" x="72" y="-197.3" font-family="Times,serif" font-size="14.00">MSTB #3</text>
</g>
<!-- port2&#45;&gt;mstb3 -->
<g id="edge12" class="edge">
<title>port2&#45;&gt;mstb3</title>
<path fill="none" stroke="black" d="M72.19,-255.05C70.49,-247.35 69.18,-238.03 68.52,-229.36"/>
<polygon fill="black" stroke="black" points="72.01,-229.11 68.06,-219.28 65.02,-229.42 72.01,-229.11"/>
</g>
<!-- port2&#45;&gt;mstb3 -->
<g id="edge19" class="edge">
<title>port2&#45;&gt;mstb3</title>
<path fill="none" stroke="black" stroke-dasharray="5,2" d="M83.51,-245.01C82.87,-236.36 81.58,-227.03 79.89,-219.28"/>
<polygon fill="black" stroke="black" points="80.01,-245.22 83.94,-255.05 87,-244.91 80.01,-245.22"/>
</g>
<!-- mstb4 -->
<g id="node11" class="node">
<title>mstb4</title>
<ellipse fill="palegreen" stroke="black" cx="193" cy="-57" rx="55.79" ry="18"/>
<text text-anchor="middle" x="193" y="-53.3" font-family="Times,serif" font-size="14.00">MSTB #4</text>
</g>
<!-- port3&#45;&gt;mstb4 -->
<g id="edge15" class="edge">
<title>port3&#45;&gt;mstb4</title>
<path fill="none" stroke="black" d="M187.12,-111.05C186.3,-103.35 186.06,-94.03 186.39,-85.36"/>
<polygon fill="black" stroke="black" points="189.89,-85.49 187.09,-75.28 182.91,-85.01 189.89,-85.49"/>
</g>
<!-- port3&#45;&gt;mstb4 -->
<g id="edge22" class="edge">
<title>port3&#45;&gt;mstb4</title>
<path fill="none" stroke="black" stroke-dasharray="5,2" d="M199.59,-101.01C199.94,-92.36 199.71,-83.03 198.91,-75.28"/>
<polygon fill="black" stroke="black" points="196.09,-100.83 198.88,-111.05 203.08,-101.33 196.09,-100.83"/>
</g>
<!-- mstb1 -->
<g id="node8" class="node">
<title>mstb1</title>
<ellipse fill="palegreen" stroke="black" cx="202" cy="-345" rx="55.79" ry="18"/>
<text text-anchor="middle" x="202" y="-341.3" font-family="Times,serif" font-size="14.00">MSTB #1</text>
</g>
<!-- mstb1&#45;&gt;port1 -->
<g id="edge9" class="edge">
<title>mstb1&#45;&gt;port1</title>
<path fill="none" stroke="black" d="M196.12,-327.05C195.3,-319.35 195.06,-310.03 195.39,-301.36"/>
<polygon fill="black" stroke="black" points="198.89,-301.49 196.09,-291.28 191.91,-301.01 198.89,-301.49"/>
</g>
<!-- mstb1&#45;&gt;port1 -->
<g id="edge16" class="edge">
<title>mstb1&#45;&gt;port1</title>
<path fill="none" stroke="black" stroke-dasharray="5,2" d="M208.59,-317.01C208.94,-308.36 208.71,-299.03 207.91,-291.28"/>
<polygon fill="black" stroke="black" points="205.09,-316.83 207.88,-327.05 212.08,-317.33 205.09,-316.83"/>
</g>
<!-- mstb1&#45;&gt;port2 -->
<g id="edge10" class="edge">
<title>mstb1&#45;&gt;port2</title>
<path fill="none" stroke="black" d="M171.76,-329.83C152.84,-319.74 128.69,-306.01 109.85,-294.69"/>
<polygon fill="black" stroke="black" points="111.43,-291.56 101.07,-289.36 107.8,-297.54 111.43,-291.56"/>
</g>
<!-- mstb1&#45;&gt;port2 -->
<g id="edge17" class="edge">
<title>mstb1&#45;&gt;port2</title>
<path fill="none" stroke="black" stroke-dasharray="5,2" d="M171.64,-323C152.33,-311.41 127.6,-297.38 108.62,-287.3"/>
<polygon fill="black" stroke="black" points="170,-326.09 180.36,-328.29 173.63,-320.11 170,-326.09"/>
</g>
<!-- mstb3&#45;&gt;port3 -->
<g id="edge13" class="edge">
<title>mstb3&#45;&gt;port3</title>
<path fill="none" stroke="black" d="M93.41,-184.29C110.65,-173.59 135.1,-159.4 155.52,-148.21"/>
<polygon fill="black" stroke="black" points="157.45,-151.14 164.57,-143.3 154.11,-144.99 157.45,-151.14"/>
</g>
<!-- mstb3&#45;&gt;port3 -->
<g id="edge20" class="edge">
<title>mstb3&#45;&gt;port3</title>
<path fill="none" stroke="black" stroke-dasharray="5,2" d="M111.38,-180.75C131.68,-169.58 155.52,-155.7 172.27,-145.29"/>
<polygon fill="black" stroke="black" points="109.46,-177.81 102.35,-185.67 112.81,-183.96 109.46,-177.81"/>
</g>
<!-- mstb3&#45;&gt;port4 -->
<g id="edge14" class="edge">
<title>mstb3&#45;&gt;port4</title>
<path fill="none" stroke="black" d="M66.12,-183.05C65.3,-175.35 65.06,-166.03 65.39,-157.36"/>
<polygon fill="black" stroke="black" points="68.89,-157.49 66.09,-147.28 61.91,-157.01 68.89,-157.49"/>
</g>
<!-- mstb3&#45;&gt;port4 -->
<g id="edge21" class="edge">
<title>mstb3&#45;&gt;port4</title>
<path fill="none" stroke="black" stroke-dasharray="5,2" d="M78.59,-173.01C78.94,-164.36 78.71,-155.03 77.91,-147.28"/>
<polygon fill="black" stroke="black" points="75.09,-172.83 77.88,-183.05 82.08,-173.33 75.09,-172.83"/>
</g>
</g>
</svg>
