<?xml version="1.0" encoding="UTF-8" standalone="no"?>
<!DOCTYPE svg PUBLIC "-//W3C//DTD SVG 1.1//EN"
 "http://www.w3.org/Graphics/SVG/1.1/DTD/svg11.dtd">
<!-- Generated by graphviz version 2.43.0 (0)
 -->
<!-- Title: board Pages: 1 -->
<svg width="733pt" height="409pt"
 viewBox="0.00 0.00 733.00 409.00" xmlns="http://www.w3.org/2000/svg" xmlns:xlink="http://www.w3.org/1999/xlink">
<g id="graph0" class="graph" transform="scale(1 1) rotate(0) translate(4 405)">
<title>board</title>
<polygon fill="white" stroke="transparent" points="-4,4 -4,-405 729,-405 729,4 -4,4"/>
<!-- n00000001 -->
<g id="node1" class="node">
<title>n00000001</title>
<path fill="green" stroke="black" d="M122,-316.5C122,-316.5 235,-316.5 235,-316.5 241,-316.5 247,-322.5 247,-328.5 247,-328.5 247,-388.5 247,-388.5 247,-394.5 241,-400.5 235,-400.5 235,-400.5 122,-400.5 122,-400.5 116,-400.5 110,-394.5 110,-388.5 110,-388.5 110,-328.5 110,-328.5 110,-322.5 116,-316.5 122,-316.5"/>
<text text-anchor="middle" x="178.5" y="-385.3" font-family="Times,serif" font-size="14.00"> </text>
<polyline fill="none" stroke="black" points="110,-377.5 247,-377.5 "/>
<text text-anchor="middle" x="178.5" y="-362.3" font-family="Times,serif" font-size="14.00">Sensor A</text>
<text text-anchor="middle" x="178.5" y="-347.3" font-family="Times,serif" font-size="14.00">/dev/v4l&#45;subdev0</text>
<polyline fill="none" stroke="black" points="110,-339.5 247,-339.5 "/>
<text text-anchor="middle" x="178.5" y="-324.3" font-family="Times,serif" font-size="14.00">0</text>
</g>
<!-- n00000005 -->
<g id="node2" class="node">
<title>n00000005</title>
<path fill="green" stroke="black" d="M12,-195.5C12,-195.5 125,-195.5 125,-195.5 131,-195.5 137,-201.5 137,-207.5 137,-207.5 137,-267.5 137,-267.5 137,-273.5 131,-279.5 125,-279.5 125,-279.5 12,-279.5 12,-279.5 6,-279.5 0,-273.5 0,-267.5 0,-267.5 0,-207.5 0,-207.5 0,-201.5 6,-195.5 12,-195.5"/>
<text text-anchor="middle" x="68.5" y="-264.3" font-family="Times,serif" font-size="14.00">0</text>
<polyline fill="none" stroke="black" points="0,-256.5 137,-256.5 "/>
<text text-anchor="middle" x="68.5" y="-241.3" font-family="Times,serif" font-size="14.00">Debayer A</text>
<text text-anchor="middle" x="68.5" y="-226.3" font-family="Times,serif" font-size="14.00">/dev/v4l&#45;subdev2</text>
<polyline fill="none" stroke="black" points="0,-218.5 137,-218.5 "/>
<text text-anchor="middle" x="68.5" y="-203.3" font-family="Times,serif" font-size="14.00">1</text>
</g>
<!-- n00000001&#45;&gt;n00000005 -->
<g id="edge1" class="edge">
<title>n00000001:port0&#45;&gt;n00000005:port0</title>
<path fill="none" stroke="black" stroke-width="2" d="M108.5,-327.5C86.55,-327.5 130.43,-294.66 141.91,-277.98"/>
<polygon fill="black" stroke="black" stroke-width="2" points="145.18,-276.73 138.5,-268.5 138.59,-279.09 145.18,-276.73"/>
</g>
<!-- n0000000b -->
<g id="node3" class="node">
<title>n0000000b</title>
<polygon fill="yellow" stroke="black" points="279.5,-256.5 155.5,-256.5 155.5,-218.5 279.5,-218.5 279.5,-256.5"/>
<text text-anchor="middle" x="217.5" y="-241.3" font-family="Times,serif" font-size="14.00">Raw Capture 0</text>
<text text-anchor="middle" x="217.5" y="-226.3" font-family="Times,serif" font-size="14.00">/dev/video0</text>
</g>
<!-- n00000001&#45;&gt;n0000000b -->
<g id="edge2" class="edge">
<title>n00000001:port0&#45;&gt;n0000000b</title>
<path fill="none" stroke="black" stroke-width="2" d="M178.5,-316C178.5,-297.66 187.32,-279.24 196.57,-264.96"/>
<polygon fill="black" stroke="black" stroke-width="2" points="199.51,-266.86 202.31,-256.64 193.75,-262.89 199.51,-266.86"/>
</g>
<!-- n00000017 -->
<g id="node7" class="node">
<title>n00000017</title>
<path fill="green" stroke="black" d="M310,-74.5C310,-74.5 423,-74.5 423,-74.5 429,-74.5 435,-80.5 435,-86.5 435,-86.5 435,-146.5 435,-146.5 435,-152.5 429,-158.5 423,-158.5 423,-158.5 310,-158.5 310,-158.5 304,-158.5 298,-152.5 298,-146.5 298,-146.5 298,-86.5 298,-86.5 298,-80.5 304,-74.5 310,-74.5"/>
<text text-anchor="middle" x="366.5" y="-143.3" font-family="Times,serif" font-size="14.00">0</text>
<polyline fill="none" stroke="black" points="298,-135.5 435,-135.5 "/>
<text text-anchor="middle" x="366.5" y="-120.3" font-family="Times,serif" font-size="14.00">Scaler</text>
<text text-anchor="middle" x="366.5" y="-105.3" font-family="Times,serif" font-size="14.00">/dev/v4l&#45;subdev4</text>
<polyline fill="none" stroke="black" points="298,-97.5 435,-97.5 "/>
<text text-anchor="middle" x="366.5" y="-82.3" font-family="Times,serif" font-size="14.00">1</text>
</g>
<!-- n00000005&#45;&gt;n00000017 -->
<g id="edge5" class="edge">
<title>n00000005:port1&#45;&gt;n00000017:port0</title>
<path fill="none" stroke="black" d="M138.5,-206.5C144.73,-206.5 141.49,-198.69 146.5,-195 199.95,-155.63 224.07,-148.2 286.19,-147.55"/>
<polygon fill="black" stroke="black" points="286.52,-151.05 296.5,-147.5 286.48,-144.05 286.52,-151.05"/>
</g>
<!-- n00000003 -->
<g id="node4" class="node">
<title>n00000003</title>
<path fill="green" stroke="black" d="M348,-316.5C348,-316.5 461,-316.5 461,-316.5 467,-316.5 473,-322.5 473,-328.5 473,-328.5 473,-388.5 473,-388.5 473,-394.5 467,-400.5 461,-400.5 461,-400.5 348,-400.5 348,-400.5 342,-400.5 336,-394.5 336,-388.5 336,-388.5 336,-328.5 336,-328.5 336,-322.5 342,-316.5 348,-316.5"/>
<text text-anchor="middle" x="404.5" y="-385.3" font-family="Times,serif" font-size="14.00"> </text>
<polyline fill="none" stroke="black" points="336,-377.5 473,-377.5 "/>
<text text-anchor="middle" x="404.5" y="-362.3" font-family="Times,serif" font-size="14.00">Sensor B</text>
<text text-anchor="middle" x="404.5" y="-347.3" font-family="Times,serif" font-size="14.00">/dev/v4l&#45;subdev1</text>
<polyline fill="none" stroke="black" points="336,-339.5 473,-339.5 "/>
<text text-anchor="middle" x="404.5" y="-324.3" font-family="Times,serif" font-size="14.00">0</text>
</g>
<!-- n00000008 -->
<g id="node5" class="node">
<title>n00000008</title>
<path fill="green" stroke="black" d="M310,-195.5C310,-195.5 423,-195.5 423,-195.5 429,-195.5 435,-201.5 435,-207.5 435,-207.5 435,-267.5 435,-267.5 435,-273.5 429,-279.5 423,-279.5 423,-279.5 310,-279.5 310,-279.5 304,-279.5 298,-273.5 298,-267.5 298,-267.5 298,-207.5 298,-207.5 298,-201.5 304,-195.5 310,-195.5"/>
<text text-anchor="middle" x="366.5" y="-264.3" font-family="Times,serif" font-size="14.00">0</text>
<polyline fill="none" stroke="black" points="298,-256.5 435,-256.5 "/>
<text text-anchor="middle" x="366.5" y="-241.3" font-family="Times,serif" font-size="14.00">Debayer B</text>
<text text-anchor="middle" x="366.5" y="-226.3" font-family="Times,serif" font-size="14.00">/dev/v4l&#45;subdev3</text>
<polyline fill="none" stroke="black" points="298,-218.5 435,-218.5 "/>
<text text-anchor="middle" x="366.5" y="-203.3" font-family="Times,serif" font-size="14.00">1</text>
</g>
<!-- n00000003&#45;&gt;n00000008 -->
<g id="edge3" class="edge">
<title>n00000003:port0&#45;&gt;n00000008:port0</title>
<path fill="none" stroke="black" stroke-width="2" d="M404.5,-316C404.5,-296.92 378.93,-300.57 369.74,-289.66"/>
<polygon fill="black" stroke="black" stroke-width="2" points="373,-288.37 366.5,-280 366.36,-290.59 373,-288.37"/>
</g>
<!-- n0000000f -->
<g id="node6" class="node">
<title>n0000000f</title>
<polygon fill="yellow" stroke="black" points="577.5,-256.5 453.5,-256.5 453.5,-218.5 577.5,-218.5 577.5,-256.5"/>
<text text-anchor="middle" x="515.5" y="-241.3" font-family="Times,serif" font-size="14.00">Raw Capture 1</text>
<text text-anchor="middle" x="515.5" y="-226.3" font-family="Times,serif" font-size="14.00">/dev/video1</text>
</g>
<!-- n00000003&#45;&gt;n0000000f -->
<g id="edge4" class="edge">
<title>n00000003:port0&#45;&gt;n0000000f</title>
<path fill="none" stroke="black" stroke-width="2" d="M474.5,-327.5C501.71,-327.5 510.93,-292.75 514.01,-266.68"/>
<polygon fill="black" stroke="black" stroke-width="2" points="517.51,-266.79 514.96,-256.51 510.54,-266.14 517.51,-266.79"/>
</g>
<!-- n00000008&#45;&gt;n00000017 -->
<g id="edge6" class="edge">
<title>n00000008:port1&#45;&gt;n00000017:port0</title>
<path fill="none" stroke="black" stroke-dasharray="5,2" d="M366.5,-195C366.5,-183 366.5,-177.75 366.5,-169.12"/>
<polygon fill="black" stroke="black" points="370,-169 366.5,-159 363,-169 370,-169"/>
</g>
<!-- n0000001a -->
<g id="node9" class="node">
<title>n0000001a</title>
<polygon fill="yellow" stroke="black" points="441,-38 292,-38 292,0 441,0 441,-38"/>
<text text-anchor="middle" x="366.5" y="-22.8" font-family="Times,serif" font-size="14.00">RGB/YUV Capture</text>
<text text-anchor="middle" x="366.5" y="-7.8" font-family="Times,serif" font-size="14.00">/dev/video3</text>
</g>
<!-- n00000017&#45;&gt;n0000001a -->
<g id="edge8" class="edge">
<title>n00000017:port1&#45;&gt;n0000001a</title>
<path fill="none" stroke="black" stroke-width="2" d="M366.5,-74C366.5,-65.79 366.5,-56.87 366.5,-48.69"/>
<polygon fill="black" stroke="black" stroke-width="2" points="370,-48.49 366.5,-38.49 363,-48.49 370,-48.49"/>
</g>
<!-- n00000013 -->
<g id="node8" class="node">
<title>n00000013</title>
<polygon fill="yellow" stroke="black" points="725,-256.5 596,-256.5 596,-218.5 725,-218.5 725,-256.5"/>
<text text-anchor="middle" x="660.5" y="-241.3" font-family="Times,serif" font-size="14.00">RGB/YUV Input</text>
<text text-anchor="middle" x="660.5" y="-226.3" font-family="Times,serif" font-size="14.00">/dev/video2</text>
</g>
<!-- n00000013&#45;&gt;n00000017 -->
<g id="edge7" class="edge">
<title>n00000013&#45;&gt;n00000017:port0</title>
<path fill="none" stroke="black" stroke-dasharray="5,2" d="M634.26,-218.49C595.57,-193.65 519.86,-151.5 446.79,-147.77"/>
<polygon fill="black" stroke="black" points="446.59,-144.26 436.5,-147.5 446.41,-151.26 446.59,-144.26"/>
</g>
</g>
</svg>
