<?xml version="1.0" encoding="UTF-8" standalone="no"?>
<!DOCTYPE svg PUBLIC "-//W3C//DTD SVG 1.1//EN"
 "http://www.w3.org/Graphics/SVG/1.1/DTD/svg11.dtd">
<!-- Generated by graphviz version 2.43.0 (0)
 -->
<!-- Title: disk_states Pages: 1 -->
<svg width="769pt" height="479pt"
 viewBox="0.00 0.00 769.20 479.00" xmlns="http://www.w3.org/2000/svg" xmlns:xlink="http://www.w3.org/1999/xlink">
<g id="graph0" class="graph" transform="scale(1 1) rotate(0) translate(4 475)">
<title>disk_states</title>
<polygon fill="white" stroke="transparent" points="-4,4 -4,-475 765.2,-475 765.2,4 -4,4"/>
<!-- Diskless -->
<g id="node1" class="node">
<title>Diskless</title>
<ellipse fill="none" stroke="black" cx="253.2" cy="-453" rx="40.09" ry="18"/>
<text text-anchor="middle" x="253.2" y="-449.3" font-family="Times,serif" font-size="14.00">Diskless</text>
</g>
<!-- Inconsistent -->
<g id="node2" class="node">
<title>Inconsistent</title>
<ellipse fill="none" stroke="black" cx="164.2" cy="-192" rx="55.79" ry="18"/>
<text text-anchor="middle" x="164.2" y="-188.3" font-family="Times,serif" font-size="14.00">Inconsistent</text>
</g>
<!-- Diskless&#45;&gt;Inconsistent -->
<g id="edge1" class="edge">
<title>Diskless&#45;&gt;Inconsistent</title>
<path fill="none" stroke="black" d="M232.6,-437.52C205.61,-417.14 159.56,-377.16 141.2,-330 126.87,-293.21 140.27,-247.45 151.8,-219.24"/>
<polygon fill="black" stroke="black" points="155.02,-220.6 155.75,-210.03 148.59,-217.84 155.02,-220.6"/>
<text text-anchor="middle" x="185.2" y="-318.8" font-family="Times,serif" font-size="14.00">ioctl_set_disk()</text>
</g>
<!-- Consistent -->
<g id="node3" class="node">
<title>Consistent</title>
<ellipse fill="none" stroke="black" cx="363.2" cy="-366" rx="50.09" ry="18"/>
<text text-anchor="middle" x="363.2" y="-362.3" font-family="Times,serif" font-size="14.00">Consistent</text>
</g>
<!-- Diskless&#45;&gt;Consistent -->
<g id="edge2" class="edge">
<title>Diskless&#45;&gt;Consistent</title>
<path fill="none" stroke="black" d="M272.61,-437C289.88,-423.65 315.35,-403.97 334.89,-388.87"/>
<polygon fill="black" stroke="black" points="337.09,-391.6 342.86,-382.71 332.81,-386.06 337.09,-391.6"/>
<text text-anchor="middle" x="358.2" y="-405.8" font-family="Times,serif" font-size="14.00">ioctl_set_disk()</text>
</g>
<!-- Outdated -->
<g id="node4" class="node">
<title>Outdated</title>
<ellipse fill="none" stroke="black" cx="44.2" cy="-279" rx="44.39" ry="18"/>
<text text-anchor="middle" x="44.2" y="-275.3" font-family="Times,serif" font-size="14.00">Outdated</text>
</g>
<!-- Diskless&#45;&gt;Outdated -->
<g id="edge3" class="edge">
<title>Diskless&#45;&gt;Outdated</title>
<path fill="none" stroke="black" d="M212.57,-452.43C162.67,-450.47 80.01,-438.57 42.2,-384 26.66,-361.58 30.15,-329.4 35.63,-306.79"/>
<polygon fill="black" stroke="black" points="39.09,-307.41 38.32,-296.85 32.33,-305.59 39.09,-307.41"/>
<text text-anchor="middle" x="86.2" y="-362.3" font-family="Times,serif" font-size="14.00">ioctl_set_disk()</text>
</g>
<!-- UpToDate -->
<g id="node5" class="node">
<title>UpToDate</title>
<ellipse fill="none" stroke="black" cx="323.2" cy="-105" rx="48.99" ry="18"/>
<text text-anchor="middle" x="323.2" y="-101.3" font-family="Times,serif" font-size="14.00">UpToDate</text>
</g>
<!-- Inconsistent&#45;&gt;UpToDate -->
<g id="edge9" class="edge">
<title>Inconsistent&#45;&gt;UpToDate</title>
<path fill="none" stroke="black" d="M164.29,-173.91C165.28,-163.03 168.4,-149.45 177.2,-141 204.43,-114.86 223.52,-131.92 260.2,-123 265.16,-121.79 270.33,-120.48 275.48,-119.15"/>
<polygon fill="black" stroke="black" points="276.52,-122.49 285.3,-116.56 274.73,-115.72 276.52,-122.49"/>
<text text-anchor="middle" x="225.7" y="-144.8" font-family="Times,serif" font-size="14.00">resync completed</text>
</g>
<!-- Failed -->
<g id="node6" class="node">
<title>Failed</title>
<ellipse fill="none" stroke="black" cx="323.2" cy="-18" rx="33.29" ry="18"/>
<text text-anchor="middle" x="323.2" y="-14.3" font-family="Times,serif" font-size="14.00">Failed</text>
</g>
<!-- Inconsistent&#45;&gt;Failed -->
<g id="edge13" class="edge">
<title>Inconsistent&#45;&gt;Failed</title>
<path fill="none" stroke="black" d="M156.85,-173.87C148.63,-151.8 138.61,-113.15 156.2,-87 183.84,-45.9 241.11,-29.63 280.82,-23.19"/>
<polygon fill="black" stroke="black" points="281.38,-26.65 290.76,-21.73 280.36,-19.72 281.38,-26.65"/>
<text text-anchor="middle" x="210.7" y="-101.3" font-family="Times,serif" font-size="14.00">io completion error</text>
</g>
<!-- Consistent&#45;&gt;Inconsistent -->
<g id="edge6" class="edge">
<title>Consistent&#45;&gt;Inconsistent</title>
<path fill="none" stroke="black" d="M361.74,-347.72C360.1,-337.31 356.61,-324.31 349.2,-315 338.79,-301.93 330.44,-305.73 316.2,-297 272.65,-270.32 224.27,-236.44 194.04,-214.74"/>
<polygon fill="black" stroke="black" points="195.8,-211.69 185.64,-208.69 191.71,-217.37 195.8,-211.69"/>
<text text-anchor="middle" x="348.7" y="-275.3" font-family="Times,serif" font-size="14.00">start resync</text>
</g>
<!-- Consistent&#45;&gt;Outdated -->
<g id="edge4" class="edge">
<title>Consistent&#45;&gt;Outdated</title>
<path fill="none" stroke="black" d="M323.86,-354.82C303.21,-348.81 277.79,-340.35 256.2,-330 245.19,-324.72 244.53,-319.53 233.2,-315 189.4,-297.48 136.34,-288.64 97.6,-284.23"/>
<polygon fill="black" stroke="black" points="97.89,-280.74 87.57,-283.15 97.14,-287.7 97.89,-280.74"/>
<text text-anchor="middle" x="302.7" y="-318.8" font-family="Times,serif" font-size="14.00">receive_param()</text>
</g>
<!-- Consistent&#45;&gt;UpToDate -->
<g id="edge5" class="edge">
<title>Consistent&#45;&gt;UpToDate</title>
<path fill="none" stroke="black" d="M369.04,-347.92C373.36,-334.31 378.9,-314.68 381.2,-297 386.5,-256.27 393.93,-167.07 379.2,-141 375.47,-134.41 369.95,-128.9 363.8,-124.33"/>
<polygon fill="black" stroke="black" points="365.42,-121.22 355.13,-118.7 361.6,-127.08 365.42,-121.22"/>
<text text-anchor="middle" x="432.7" y="-231.8" font-family="Times,serif" font-size="14.00">receive_param()</text>
</g>
<!-- Consistent&#45;&gt;Failed -->
<g id="edge10" class="edge">
<title>Consistent&#45;&gt;Failed</title>
<path fill="none" stroke="black" d="M407.49,-357.3C448.51,-347.32 503.2,-325.5 503.2,-280 503.2,-280 503.2,-280 503.2,-104 503.2,-43.74 419.68,-26.13 366.43,-21.03"/>
<polygon fill="black" stroke="black" points="366.47,-17.53 356.21,-20.17 365.88,-24.5 366.47,-17.53"/>
<text text-anchor="middle" x="557.7" y="-188.3" font-family="Times,serif" font-size="14.00">io completion error</text>
</g>
<!-- Outdated&#45;&gt;Inconsistent -->
<g id="edge7" class="edge">
<title>Outdated&#45;&gt;Inconsistent</title>
<path fill="none" stroke="black" d="M47.71,-260.66C50.7,-249.95 56.02,-236.66 65.2,-228 76.67,-217.17 91.7,-209.66 106.57,-204.47"/>
<polygon fill="black" stroke="black" points="107.81,-207.75 116.28,-201.38 105.69,-201.08 107.81,-207.75"/>
<text text-anchor="middle" x="97.7" y="-231.8" font-family="Times,serif" font-size="14.00">start resync</text>
</g>
<!-- Outdated&#45;&gt;Failed -->
<g id="edge11" class="edge">
<title>Outdated&#45;&gt;Failed</title>
<path fill="none" stroke="black" d="M37.66,-261.18C28.26,-234.06 14.22,-179.79 35.2,-141 82.98,-52.64 212.11,-28.27 280.06,-21.56"/>
<polygon fill="black" stroke="black" points="280.37,-25.04 290.02,-20.66 279.74,-18.07 280.37,-25.04"/>
<text text-anchor="middle" x="89.7" y="-144.8" font-family="Times,serif" font-size="14.00">io completion error</text>
</g>
<!-- UpToDate&#45;&gt;Inconsistent -->
<g id="edge8" class="edge">
<title>UpToDate&#45;&gt;Inconsistent</title>
<path fill="none" stroke="black" d="M311.99,-122.55C303.8,-133.48 291.78,-147.33 278.2,-156 261.18,-166.86 240.59,-174.52 221.61,-179.85"/>
<polygon fill="black" stroke="black" points="220.64,-176.49 211.86,-182.43 222.43,-183.26 220.64,-176.49"/>
<text text-anchor="middle" x="335.2" y="-144.8" font-family="Times,serif" font-size="14.00">ioctl_replicate</text>
</g>
<!-- UpToDate&#45;&gt;Failed -->
<g id="edge12" class="edge">
<title>UpToDate&#45;&gt;Failed</title>
<path fill="none" stroke="black" d="M323.2,-86.8C323.2,-75.16 323.2,-59.55 323.2,-46.24"/>
<polygon fill="black" stroke="black" points="326.7,-46.18 323.2,-36.18 319.7,-46.18 326.7,-46.18"/>
<text text-anchor="middle" x="377.7" y="-57.8" font-family="Times,serif" font-size="14.00">io completion error</text>
</g>
<!-- Failed&#45;&gt;Diskless -->
<g id="edge14" class="edge">
<title>Failed&#45;&gt;Diskless</title>
<path fill="none" stroke="black" d="M356.22,-20.84C437.42,-26.27 640.2,-45.67 640.2,-104 640.2,-367 640.2,-367 640.2,-367 640.2,-435.15 408.34,-448.73 303.55,-451.38"/>
<polygon fill="black" stroke="black" points="303.43,-447.88 293.52,-451.61 303.59,-454.88 303.43,-447.88"/>
<text text-anchor="middle" x="700.7" y="-231.8" font-family="Times,serif" font-size="14.00">sending notify to peer</text>
</g>
</g>
</svg>
