<?xml version="1.0" encoding="UTF-8" standalone="no"?>
<!DOCTYPE svg PUBLIC "-//W3C//DTD SVG 1.1//EN"
 "http://www.w3.org/Graphics/SVG/1.1/DTD/svg11.dtd">
<!-- Generated by graphviz version 2.43.0 (0)
 -->
<!-- Title: single_ppl Pages: 1 -->
<svg width="660pt" height="238pt"
 viewBox="0.00 0.00 660.19 238.00" xmlns="http://www.w3.org/2000/svg" xmlns:xlink="http://www.w3.org/1999/xlink">
<g id="graph0" class="graph" transform="scale(1 1) rotate(0) translate(4 234)">
<title>single_ppl</title>
<polygon fill="white" stroke="transparent" points="-4,4 -4,-234 656.19,-234 656.19,4 -4,4"/>
<g id="clust2" class="cluster">
<title>cluster_pipeline</title>
<polygon fill="none" stroke="black" stroke-dasharray="5,2" points="8,-8 8,-222 541,-222 541,-8 8,-8"/>
</g>
<!-- Memory -->
<g id="node1" class="node">
<title>Memory</title>
<ellipse fill="none" stroke="black" cx="610.6" cy="-142" rx="41.69" ry="18"/>
<text text-anchor="middle" x="610.6" y="-138.3" font-family="Times,serif" font-size="14.00">Memory</text>
</g>
<!-- Monitor -->
<g id="node2" class="node">
<title>Monitor</title>
<ellipse fill="none" stroke="black" cx="610.6" cy="-88" rx="40.89" ry="18"/>
<text text-anchor="middle" x="610.6" y="-84.3" font-family="Times,serif" font-size="14.00">Monitor</text>
</g>
<!-- Scaler&#45;0 -->
<g id="node3" class="node">
<title>Scaler&#45;0</title>
<polygon fill="none" stroke="black" stroke-dasharray="5,2" points="173,-180 111,-180 111,-144 173,-144 173,-180"/>
<text text-anchor="middle" x="142" y="-158.3" font-family="Times,serif" font-size="14.00">Scaler&#45;0</text>
</g>
<!-- Compiz -->
<g id="node10" class="node">
<title>Compiz</title>
<polygon fill="lightgrey" stroke="black" points="269,-133 209,-133 209,-97 269,-97 269,-133"/>
<text text-anchor="middle" x="239" y="-111.3" font-family="Times,serif" font-size="14.00">Compiz</text>
</g>
<!-- Scaler&#45;0&#45;&gt;Compiz -->
<g id="edge9" class="edge">
<title>Scaler&#45;0&#45;&gt;Compiz</title>
<path fill="none" stroke="black" d="M173.06,-147.13C181.53,-142.94 190.86,-138.32 199.75,-133.93"/>
<polygon fill="black" stroke="black" points="201.38,-137.02 208.79,-129.45 198.27,-130.75 201.38,-137.02"/>
</g>
<!-- Scaler&#45;1 -->
<g id="node4" class="node">
<title>Scaler&#45;1</title>
<polygon fill="none" stroke="black" stroke-dasharray="5,2" points="173,-86 111,-86 111,-50 173,-50 173,-86"/>
<text text-anchor="middle" x="142" y="-64.3" font-family="Times,serif" font-size="14.00">Scaler&#45;1</text>
</g>
<!-- Scaler&#45;1&#45;&gt;Compiz -->
<g id="edge10" class="edge">
<title>Scaler&#45;1&#45;&gt;Compiz</title>
<path fill="none" stroke="black" d="M173.06,-82.87C181.53,-87.06 190.86,-91.68 199.75,-96.07"/>
<polygon fill="black" stroke="black" points="198.27,-99.25 208.79,-100.55 201.38,-92.98 198.27,-99.25"/>
</g>
<!-- Scaler&#45;0/1 -->
<g id="node5" class="node">
<title>Scaler&#45;0/1</title>
<polygon fill="none" stroke="black" stroke-dasharray="5,2" points="378,-160 305,-160 305,-124 378,-124 378,-160"/>
<text text-anchor="middle" x="341.5" y="-138.3" font-family="Times,serif" font-size="14.00">Scaler&#45;0/1</text>
</g>
<!-- Wb_layer -->
<g id="node11" class="node">
<title>Wb_layer</title>
<polygon fill="lightgrey" stroke="black" points="509,-160 438,-160 438,-124 509,-124 509,-160"/>
<text text-anchor="middle" x="473.5" y="-138.3" font-family="Times,serif" font-size="14.00">Wb_layer</text>
</g>
<!-- Scaler&#45;0/1&#45;&gt;Wb_layer -->
<g id="edge12" class="edge">
<title>Scaler&#45;0/1&#45;&gt;Wb_layer</title>
<path fill="none" stroke="black" d="M378.02,-142C393.32,-142 411.37,-142 427.58,-142"/>
<polygon fill="black" stroke="black" points="427.92,-145.5 437.92,-142 427.92,-138.5 427.92,-145.5"/>
</g>
<!-- Layer&#45;0 -->
<g id="node6" class="node">
<title>Layer&#45;0</title>
<polygon fill="lightgrey" stroke="black" points="75,-214 16,-214 16,-178 75,-178 75,-214"/>
<text text-anchor="middle" x="45.5" y="-192.3" font-family="Times,serif" font-size="14.00">Layer&#45;0</text>
</g>
<!-- Layer&#45;0&#45;&gt;Scaler&#45;0 -->
<g id="edge1" class="edge">
<title>Layer&#45;0&#45;&gt;Scaler&#45;0</title>
<path fill="none" stroke="black" d="M75.11,-185.71C83.32,-182.75 92.42,-179.48 101.18,-176.33"/>
<polygon fill="black" stroke="black" points="102.62,-179.53 110.85,-172.85 100.25,-172.94 102.62,-179.53"/>
</g>
<!-- Layer&#45;0&#45;&gt;Compiz -->
<g id="edge5" class="edge">
<title>Layer&#45;0&#45;&gt;Compiz</title>
<path fill="none" stroke="black" d="M75.2,-200.5C101.92,-203.32 142.14,-204.01 173,-189 193.89,-178.84 210.91,-158.63 222.29,-141.89"/>
<polygon fill="black" stroke="black" points="225.52,-143.33 228.02,-133.03 219.65,-139.53 225.52,-143.33"/>
</g>
<!-- Layer&#45;1 -->
<g id="node7" class="node">
<title>Layer&#45;1</title>
<polygon fill="lightgrey" stroke="black" points="75,-160 16,-160 16,-124 75,-124 75,-160"/>
<text text-anchor="middle" x="45.5" y="-138.3" font-family="Times,serif" font-size="14.00">Layer&#45;1</text>
</g>
<!-- Layer&#45;1&#45;&gt;Scaler&#45;0 -->
<g id="edge2" class="edge">
<title>Layer&#45;1&#45;&gt;Scaler&#45;0</title>
<path fill="none" stroke="black" d="M75.11,-148.05C83.23,-149.77 92.23,-151.68 100.9,-153.51"/>
<polygon fill="black" stroke="black" points="100.34,-156.97 110.85,-155.62 101.79,-150.12 100.34,-156.97"/>
</g>
<!-- Layer&#45;1&#45;&gt;Compiz -->
<g id="edge6" class="edge">
<title>Layer&#45;1&#45;&gt;Compiz</title>
<path fill="none" stroke="black" d="M75.17,-137.96C107.93,-133.34 161.75,-125.75 198.48,-120.57"/>
<polygon fill="black" stroke="black" points="199.41,-123.98 208.82,-119.11 198.43,-117.04 199.41,-123.98"/>
</g>
<!-- Layer&#45;2 -->
<g id="node8" class="node">
<title>Layer&#45;2</title>
<polygon fill="lightgrey" stroke="black" points="75,-106 16,-106 16,-70 75,-70 75,-106"/>
<text text-anchor="middle" x="45.5" y="-84.3" font-family="Times,serif" font-size="14.00">Layer&#45;2</text>
</g>
<!-- Layer&#45;2&#45;&gt;Scaler&#45;1 -->
<g id="edge3" class="edge">
<title>Layer&#45;2&#45;&gt;Scaler&#45;1</title>
<path fill="none" stroke="black" d="M75.11,-81.95C83.23,-80.23 92.23,-78.32 100.9,-76.49"/>
<polygon fill="black" stroke="black" points="101.79,-79.88 110.85,-74.38 100.34,-73.03 101.79,-79.88"/>
</g>
<!-- Layer&#45;2&#45;&gt;Compiz -->
<g id="edge7" class="edge">
<title>Layer&#45;2&#45;&gt;Compiz</title>
<path fill="none" stroke="black" d="M75.17,-92.04C107.93,-96.66 161.75,-104.25 198.48,-109.43"/>
<polygon fill="black" stroke="black" points="198.43,-112.96 208.82,-110.89 199.41,-106.02 198.43,-112.96"/>
</g>
<!-- Layer&#45;3 -->
<g id="node9" class="node">
<title>Layer&#45;3</title>
<polygon fill="lightgrey" stroke="black" points="75,-52 16,-52 16,-16 75,-16 75,-52"/>
<text text-anchor="middle" x="45.5" y="-30.3" font-family="Times,serif" font-size="14.00">Layer&#45;3</text>
</g>
<!-- Layer&#45;3&#45;&gt;Scaler&#45;1 -->
<g id="edge4" class="edge">
<title>Layer&#45;3&#45;&gt;Scaler&#45;1</title>
<path fill="none" stroke="black" d="M75.11,-44.29C83.32,-47.25 92.42,-50.52 101.18,-53.67"/>
<polygon fill="black" stroke="black" points="100.25,-57.06 110.85,-57.15 102.62,-50.47 100.25,-57.06"/>
</g>
<!-- Layer&#45;3&#45;&gt;Compiz -->
<g id="edge8" class="edge">
<title>Layer&#45;3&#45;&gt;Compiz</title>
<path fill="none" stroke="black" d="M75.2,-29.5C101.92,-26.68 142.14,-25.99 173,-41 193.89,-51.16 210.91,-71.37 222.29,-88.11"/>
<polygon fill="black" stroke="black" points="219.65,-90.47 228.02,-96.97 225.52,-86.67 219.65,-90.47"/>
</g>
<!-- Compiz&#45;&gt;Scaler&#45;0/1 -->
<g id="edge11" class="edge">
<title>Compiz&#45;&gt;Scaler&#45;0/1</title>
<path fill="none" stroke="black" d="M269.07,-122.81C277.16,-124.98 286.14,-127.4 294.93,-129.76"/>
<polygon fill="black" stroke="black" points="294.15,-133.17 304.71,-132.39 295.96,-126.41 294.15,-133.17"/>
</g>
<!-- Improc -->
<g id="node12" class="node">
<title>Improc</title>
<polygon fill="lightgrey" stroke="black" points="370,-106 313,-106 313,-70 370,-70 370,-106"/>
<text text-anchor="middle" x="341.5" y="-84.3" font-family="Times,serif" font-size="14.00">Improc</text>
</g>
<!-- Compiz&#45;&gt;Improc -->
<g id="edge13" class="edge">
<title>Compiz&#45;&gt;Improc</title>
<path fill="none" stroke="black" d="M269.07,-107.19C279.63,-104.35 291.72,-101.1 302.92,-98.1"/>
<polygon fill="black" stroke="black" points="304.13,-101.4 312.88,-95.42 302.31,-94.64 304.13,-101.4"/>
</g>
<!-- Wb_layer&#45;&gt;Memory -->
<g id="edge15" class="edge">
<title>Wb_layer&#45;&gt;Memory</title>
<path fill="none" stroke="black" d="M509.29,-142C524.31,-142 542.18,-142 558.65,-142"/>
<polygon fill="black" stroke="black" points="558.68,-145.5 568.68,-142 558.68,-138.5 558.68,-145.5"/>
</g>
<!-- Timing Controller -->
<g id="node13" class="node">
<title>Timing Controller</title>
<polygon fill="lightgrey" stroke="black" points="533,-106 414,-106 414,-70 533,-70 533,-106"/>
<text text-anchor="middle" x="473.5" y="-84.3" font-family="Times,serif" font-size="14.00">Timing Controller</text>
</g>
<!-- Improc&#45;&gt;Timing Controller -->
<g id="edge14" class="edge">
<title>Improc&#45;&gt;Timing Controller</title>
<path fill="none" stroke="black" d="M370.07,-88C380.08,-88 391.9,-88 403.88,-88"/>
<polygon fill="black" stroke="black" points="403.94,-91.5 413.94,-88 403.94,-84.5 403.94,-91.5"/>
</g>
<!-- Timing Controller&#45;&gt;Monitor -->
<g id="edge16" class="edge">
<title>Timing Controller&#45;&gt;Monitor</title>
<path fill="none" stroke="black" d="M533.36,-88C542.06,-88 550.95,-88 559.44,-88"/>
<polygon fill="black" stroke="black" points="559.57,-91.5 569.57,-88 559.57,-84.5 559.57,-91.5"/>
</g>
</g>
</svg>
