<?xml version="1.0" encoding="UTF-8" standalone="no"?>
<!DOCTYPE svg PUBLIC "-//W3C//DTD SVG 1.1//EN"
 "http://www.w3.org/Graphics/SVG/1.1/DTD/svg11.dtd">
<!-- Generated by graphviz version 2.43.0 (0)
 -->
<!-- Title: layer_data_flow Pages: 1 -->
<svg width="263pt" height="44pt"
 viewBox="0.00 0.00 263.00 44.00" xmlns="http://www.w3.org/2000/svg" xmlns:xlink="http://www.w3.org/1999/xlink">
<g id="graph0" class="graph" transform="scale(1 1) rotate(0) translate(4 40)">
<title>layer_data_flow</title>
<polygon fill="white" stroke="transparent" points="-4,4 -4,-40 259,-40 259,4 -4,4"/>
<!-- Scaler&#45;n -->
<g id="node1" class="node">
<title>Scaler&#45;n</title>
<polygon fill="none" stroke="black" stroke-dasharray="5,2" points="159,-36 96,-36 96,0 159,0 159,-36"/>
<text text-anchor="middle" x="127.5" y="-14.3" font-family="Times,serif" font-size="14.00">Scaler&#45;n</text>
</g>
<!-- Compiz -->
<g id="node3" class="node">
<title>Compiz</title>
<polygon fill="none" stroke="black" points="255,-36 195,-36 195,0 255,0 255,-36"/>
<text text-anchor="middle" x="225" y="-14.3" font-family="Times,serif" font-size="14.00">Compiz</text>
</g>
<!-- Scaler&#45;n&#45;&gt;Compiz -->
<g id="edge2" class="edge">
<title>Scaler&#45;n&#45;&gt;Compiz</title>
<path fill="none" stroke="black" d="M159.24,-18C167.38,-18 176.28,-18 184.81,-18"/>
<polygon fill="black" stroke="black" points="184.94,-21.5 194.94,-18 184.94,-14.5 184.94,-21.5"/>
</g>
<!-- Layer&#45;n -->
<g id="node2" class="node">
<title>Layer&#45;n</title>
<polygon fill="none" stroke="black" points="60,-36 0,-36 0,0 60,0 60,-36"/>
<text text-anchor="middle" x="30" y="-14.3" font-family="Times,serif" font-size="14.00">Layer&#45;n</text>
</g>
<!-- Layer&#45;n&#45;&gt;Scaler&#45;n -->
<g id="edge1" class="edge">
<title>Layer&#45;n&#45;&gt;Scaler&#45;n</title>
<path fill="none" stroke="black" d="M60.17,-18C68.21,-18 77.07,-18 85.63,-18"/>
<polygon fill="black" stroke="black" points="85.85,-21.5 95.85,-18 85.85,-14.5 85.85,-21.5"/>
</g>
</g>
</svg>
