<?xml version="1.0" encoding="UTF-8" standalone="no"?>
<!DOCTYPE svg PUBLIC "-//W3C//DTD SVG 1.1//EN"
 "http://www.w3.org/Graphics/SVG/1.1/DTD/svg11.dtd">
<!-- Generated by graphviz version 2.43.0 (0)
 -->
<!-- Title: slave_ppl Pages: 1 -->
<svg width="855pt" height="506pt"
 viewBox="0.00 0.00 855.19 506.00" xmlns="http://www.w3.org/2000/svg" xmlns:xlink="http://www.w3.org/1999/xlink">
<g id="graph0" class="graph" transform="scale(1 1) rotate(0) translate(4 502)">
<title>slave_ppl</title>
<polygon fill="white" stroke="transparent" points="-4,4 -4,-502 851.19,-502 851.19,4 -4,4"/>
<g id="clust2" class="cluster">
<title>cluster_pipeline_slave</title>
<polygon fill="none" stroke="black" stroke-dasharray="5,2" points="8,-8 8,-245 376,-245 376,-8 8,-8"/>
<text text-anchor="middle" x="192" y="-229.8" font-family="Times,serif" font-size="14.00">Slave Pipeline_B</text>
</g>
<g id="clust4" class="cluster">
<title>cluster_pipeline_master</title>
<polygon fill="none" stroke="black" stroke-dasharray="5,2" points="154,-253 154,-490 736,-490 736,-253 154,-253"/>
<text text-anchor="middle" x="445" y="-474.8" font-family="Times,serif" font-size="14.00">Master Pipeline_A</text>
</g>
<!-- Memory -->
<g id="node1" class="node">
<title>Memory</title>
<ellipse fill="none" stroke="black" cx="805.6" cy="-374" rx="41.69" ry="18"/>
<text text-anchor="middle" x="805.6" y="-370.3" font-family="Times,serif" font-size="14.00">Memory</text>
</g>
<!-- Monitor -->
<g id="node2" class="node">
<title>Monitor</title>
<ellipse fill="none" stroke="black" cx="805.6" cy="-320" rx="40.89" ry="18"/>
<text text-anchor="middle" x="805.6" y="-316.3" font-family="Times,serif" font-size="14.00">Monitor</text>
</g>
<!-- Slave.Scaler&#45;0 -->
<g id="node3" class="node">
<title>Slave.Scaler&#45;0</title>
<polygon fill="none" stroke="black" stroke-dasharray="5,2" points="239,-183 144,-183 144,-147 239,-147 239,-183"/>
<text text-anchor="middle" x="191.5" y="-161.3" font-family="Times,serif" font-size="14.00">Slave.Scaler&#45;0</text>
</g>
<!-- Slave.Compiz -->
<g id="node9" class="node">
<title>Slave.Compiz</title>
<polygon fill="lightgrey" stroke="black" points="368,-146 275,-146 275,-110 368,-110 368,-146"/>
<text text-anchor="middle" x="321.5" y="-124.3" font-family="Times,serif" font-size="14.00">Slave.Compiz</text>
</g>
<!-- Slave.Scaler&#45;0&#45;&gt;Slave.Compiz -->
<g id="edge9" class="edge">
<title>Slave.Scaler&#45;0&#45;&gt;Slave.Compiz</title>
<path fill="none" stroke="black" d="M239.07,-151.54C247.49,-149.11 256.34,-146.55 264.97,-144.05"/>
<polygon fill="black" stroke="black" points="265.97,-147.41 274.6,-141.27 264.03,-140.68 265.97,-147.41"/>
</g>
<!-- Slave.Scaler&#45;1 -->
<g id="node4" class="node">
<title>Slave.Scaler&#45;1</title>
<polygon fill="none" stroke="black" stroke-dasharray="5,2" points="239,-89 144,-89 144,-53 239,-53 239,-89"/>
<text text-anchor="middle" x="191.5" y="-67.3" font-family="Times,serif" font-size="14.00">Slave.Scaler&#45;1</text>
</g>
<!-- Slave.Scaler&#45;1&#45;&gt;Slave.Compiz -->
<g id="edge10" class="edge">
<title>Slave.Scaler&#45;1&#45;&gt;Slave.Compiz</title>
<path fill="none" stroke="black" d="M233,-89.04C244.91,-94.34 258.07,-100.2 270.5,-105.73"/>
<polygon fill="black" stroke="black" points="269.27,-109.02 279.82,-109.89 272.11,-102.62 269.27,-109.02"/>
</g>
<!-- Slave.Layer&#45;0 -->
<g id="node5" class="node">
<title>Slave.Layer&#45;0</title>
<polygon fill="lightgrey" stroke="black" points="108,-214 16,-214 16,-178 108,-178 108,-214"/>
<text text-anchor="middle" x="62" y="-192.3" font-family="Times,serif" font-size="14.00">Slave.Layer&#45;0</text>
</g>
<!-- Slave.Layer&#45;0&#45;&gt;Slave.Scaler&#45;0 -->
<g id="edge1" class="edge">
<title>Slave.Layer&#45;0&#45;&gt;Slave.Scaler&#45;0</title>
<path fill="none" stroke="black" d="M108.31,-184.98C116.54,-182.98 125.22,-180.87 133.73,-178.8"/>
<polygon fill="black" stroke="black" points="134.72,-182.16 143.61,-176.4 133.07,-175.36 134.72,-182.16"/>
</g>
<!-- Slave.Layer&#45;0&#45;&gt;Slave.Compiz -->
<g id="edge5" class="edge">
<title>Slave.Layer&#45;0&#45;&gt;Slave.Compiz</title>
<path fill="none" stroke="black" d="M108.18,-202.65C144.6,-206.22 196.56,-207.21 239,-192 261.06,-184.09 281.78,-167.65 296.8,-153.42"/>
<polygon fill="black" stroke="black" points="299.44,-155.74 304.12,-146.23 294.53,-150.74 299.44,-155.74"/>
</g>
<!-- Slave.Layer&#45;1 -->
<g id="node6" class="node">
<title>Slave.Layer&#45;1</title>
<polygon fill="lightgrey" stroke="black" points="108,-160 16,-160 16,-124 108,-124 108,-160"/>
<text text-anchor="middle" x="62" y="-138.3" font-family="Times,serif" font-size="14.00">Slave.Layer&#45;1</text>
</g>
<!-- Slave.Layer&#45;1&#45;&gt;Slave.Scaler&#45;0 -->
<g id="edge2" class="edge">
<title>Slave.Layer&#45;1&#45;&gt;Slave.Scaler&#45;0</title>
<path fill="none" stroke="black" d="M108.31,-150.17C116.54,-151.66 125.22,-153.22 133.73,-154.76"/>
<polygon fill="black" stroke="black" points="133.15,-158.21 143.61,-156.54 134.39,-151.32 133.15,-158.21"/>
</g>
<!-- Slave.Layer&#45;1&#45;&gt;Slave.Compiz -->
<g id="edge6" class="edge">
<title>Slave.Layer&#45;1&#45;&gt;Slave.Compiz</title>
<path fill="none" stroke="black" d="M108.15,-139.55C151.82,-137.17 218.1,-133.57 264.98,-131.02"/>
<polygon fill="black" stroke="black" points="265.18,-134.51 274.97,-130.48 264.8,-127.52 265.18,-134.51"/>
</g>
<!-- Slave.Layer&#45;2 -->
<g id="node7" class="node">
<title>Slave.Layer&#45;2</title>
<polygon fill="lightgrey" stroke="black" points="108,-106 16,-106 16,-70 108,-70 108,-106"/>
<text text-anchor="middle" x="62" y="-84.3" font-family="Times,serif" font-size="14.00">Slave.Layer&#45;2</text>
</g>
<!-- Slave.Layer&#45;2&#45;&gt;Slave.Scaler&#45;1 -->
<g id="edge3" class="edge">
<title>Slave.Layer&#45;2&#45;&gt;Slave.Scaler&#45;1</title>
<path fill="none" stroke="black" d="M108.31,-81.96C116.45,-80.87 125.03,-79.73 133.46,-78.61"/>
<polygon fill="black" stroke="black" points="134.16,-82.04 143.61,-77.25 133.24,-75.1 134.16,-82.04"/>
</g>
<!-- Slave.Layer&#45;2&#45;&gt;Slave.Compiz -->
<g id="edge7" class="edge">
<title>Slave.Layer&#45;2&#45;&gt;Slave.Compiz</title>
<path fill="none" stroke="black" d="M108.15,-95.01C151.82,-101.8 218.1,-112.09 264.98,-119.38"/>
<polygon fill="black" stroke="black" points="264.55,-122.85 274.97,-120.93 265.63,-115.93 264.55,-122.85"/>
</g>
<!-- Slave.Layer&#45;3 -->
<g id="node8" class="node">
<title>Slave.Layer&#45;3</title>
<polygon fill="lightgrey" stroke="black" points="108,-52 16,-52 16,-16 108,-16 108,-52"/>
<text text-anchor="middle" x="62" y="-30.3" font-family="Times,serif" font-size="14.00">Slave.Layer&#45;3</text>
</g>
<!-- Slave.Layer&#45;3&#45;&gt;Slave.Scaler&#45;1 -->
<g id="edge4" class="edge">
<title>Slave.Layer&#45;3&#45;&gt;Slave.Scaler&#45;1</title>
<path fill="none" stroke="black" d="M108.31,-47.15C116.54,-49.54 125.22,-52.06 133.73,-54.53"/>
<polygon fill="black" stroke="black" points="133.03,-57.97 143.61,-57.39 134.98,-51.24 133.03,-57.97"/>
</g>
<!-- Slave.Layer&#45;3&#45;&gt;Slave.Compiz -->
<g id="edge8" class="edge">
<title>Slave.Layer&#45;3&#45;&gt;Slave.Compiz</title>
<path fill="none" stroke="black" d="M108.17,-27.82C145.06,-24.77 197.66,-25.11 239,-44 265.89,-56.29 288.53,-81.73 303.08,-101.42"/>
<polygon fill="black" stroke="black" points="300.34,-103.6 308.99,-109.72 306.04,-99.54 300.34,-103.6"/>
</g>
<!-- Compiz -->
<g id="node17" class="node">
<title>Compiz</title>
<polygon fill="lightgrey" stroke="black" points="464,-365 404,-365 404,-329 464,-329 464,-365"/>
<text text-anchor="middle" x="434" y="-343.3" font-family="Times,serif" font-size="14.00">Compiz</text>
</g>
<!-- Slave.Compiz&#45;&gt;Compiz -->
<g id="edge15" class="edge">
<title>Slave.Compiz&#45;&gt;Compiz</title>
<path fill="none" stroke="black" d="M331.73,-146.3C351.2,-184.88 396.54,-274.74 419.36,-319.97"/>
<polygon fill="black" stroke="black" points="416.24,-321.56 423.87,-328.91 422.49,-318.41 416.24,-321.56"/>
</g>
<!-- Scaler&#45;0 -->
<g id="node10" class="node">
<title>Scaler&#45;0</title>
<polygon fill="none" stroke="black" stroke-dasharray="5,2" points="352.5,-422 290.5,-422 290.5,-386 352.5,-386 352.5,-422"/>
<text text-anchor="middle" x="321.5" y="-400.3" font-family="Times,serif" font-size="14.00">Scaler&#45;0</text>
</g>
<!-- Scaler&#45;0&#45;&gt;Compiz -->
<g id="edge20" class="edge">
<title>Scaler&#45;0&#45;&gt;Compiz</title>
<path fill="none" stroke="black" d="M352.69,-388.42C365.67,-381.73 380.99,-373.83 394.76,-366.73"/>
<polygon fill="black" stroke="black" points="396.7,-369.66 403.99,-361.97 393.49,-363.44 396.7,-369.66"/>
</g>
<!-- Scaler&#45;1 -->
<g id="node11" class="node">
<title>Scaler&#45;1</title>
<polygon fill="none" stroke="black" stroke-dasharray="5,2" points="352.5,-328 290.5,-328 290.5,-292 352.5,-292 352.5,-328"/>
<text text-anchor="middle" x="321.5" y="-306.3" font-family="Times,serif" font-size="14.00">Scaler&#45;1</text>
</g>
<!-- Scaler&#45;1&#45;&gt;Compiz -->
<g id="edge21" class="edge">
<title>Scaler&#45;1&#45;&gt;Compiz</title>
<path fill="none" stroke="black" d="M352.69,-320.11C365.55,-324.41 380.7,-329.49 394.36,-334.06"/>
<polygon fill="black" stroke="black" points="393.39,-337.43 403.99,-337.28 395.61,-330.79 393.39,-337.43"/>
</g>
<!-- Scaler&#45;0/1 -->
<g id="node12" class="node">
<title>Scaler&#45;0/1</title>
<polygon fill="none" stroke="black" stroke-dasharray="5,2" points="573,-392 500,-392 500,-356 573,-356 573,-392"/>
<text text-anchor="middle" x="536.5" y="-370.3" font-family="Times,serif" font-size="14.00">Scaler&#45;0/1</text>
</g>
<!-- Wb_layer -->
<g id="node18" class="node">
<title>Wb_layer</title>
<polygon fill="lightgrey" stroke="black" points="704,-392 633,-392 633,-356 704,-356 704,-392"/>
<text text-anchor="middle" x="668.5" y="-370.3" font-family="Times,serif" font-size="14.00">Wb_layer</text>
</g>
<!-- Scaler&#45;0/1&#45;&gt;Wb_layer -->
<g id="edge23" class="edge">
<title>Scaler&#45;0/1&#45;&gt;Wb_layer</title>
<path fill="none" stroke="black" d="M573.02,-374C588.32,-374 606.37,-374 622.58,-374"/>
<polygon fill="black" stroke="black" points="622.92,-377.5 632.92,-374 622.92,-370.5 622.92,-377.5"/>
</g>
<!-- Layer&#45;0 -->
<g id="node13" class="node">
<title>Layer&#45;0</title>
<polygon fill="lightgrey" stroke="black" points="221,-459 162,-459 162,-423 221,-423 221,-459"/>
<text text-anchor="middle" x="191.5" y="-437.3" font-family="Times,serif" font-size="14.00">Layer&#45;0</text>
</g>
<!-- Layer&#45;0&#45;&gt;Scaler&#45;0 -->
<g id="edge11" class="edge">
<title>Layer&#45;0&#45;&gt;Scaler&#45;0</title>
<path fill="none" stroke="black" d="M221.23,-432.7C238.67,-427.65 261.21,-421.14 280.4,-415.59"/>
<polygon fill="black" stroke="black" points="281.45,-418.93 290.09,-412.79 279.51,-412.21 281.45,-418.93"/>
</g>
<!-- Layer&#45;0&#45;&gt;Compiz -->
<g id="edge16" class="edge">
<title>Layer&#45;0&#45;&gt;Compiz</title>
<path fill="none" stroke="black" d="M221.06,-446.83C259.1,-453.03 327.26,-458.56 376,-431 397.92,-418.61 413.12,-393.89 422.28,-374.46"/>
<polygon fill="black" stroke="black" points="425.56,-375.71 426.41,-365.15 419.16,-372.87 425.56,-375.71"/>
</g>
<!-- Layer&#45;1 -->
<g id="node14" class="node">
<title>Layer&#45;1</title>
<polygon fill="lightgrey" stroke="black" points="221,-405 162,-405 162,-369 221,-369 221,-405"/>
<text text-anchor="middle" x="191.5" y="-383.3" font-family="Times,serif" font-size="14.00">Layer&#45;1</text>
</g>
<!-- Layer&#45;1&#45;&gt;Scaler&#45;0 -->
<g id="edge12" class="edge">
<title>Layer&#45;1&#45;&gt;Scaler&#45;0</title>
<path fill="none" stroke="black" d="M221.23,-390.82C238.59,-393.12 261.01,-396.1 280.14,-398.64"/>
<polygon fill="black" stroke="black" points="279.71,-402.11 290.09,-399.96 280.63,-395.17 279.71,-402.11"/>
</g>
<!-- Layer&#45;1&#45;&gt;Compiz -->
<g id="edge17" class="edge">
<title>Layer&#45;1&#45;&gt;Compiz</title>
<path fill="none" stroke="black" d="M221.03,-382.25C263.92,-375.12 345.14,-361.61 393.64,-353.55"/>
<polygon fill="black" stroke="black" points="394.46,-356.96 403.75,-351.86 393.32,-350.05 394.46,-356.96"/>
</g>
<!-- Layer&#45;2 -->
<g id="node15" class="node">
<title>Layer&#45;2</title>
<polygon fill="lightgrey" stroke="black" points="221,-351 162,-351 162,-315 221,-315 221,-351"/>
<text text-anchor="middle" x="191.5" y="-329.3" font-family="Times,serif" font-size="14.00">Layer&#45;2</text>
</g>
<!-- Layer&#45;2&#45;&gt;Scaler&#45;1 -->
<g id="edge13" class="edge">
<title>Layer&#45;2&#45;&gt;Scaler&#45;1</title>
<path fill="none" stroke="black" d="M221.23,-327.84C238.59,-324.72 261.01,-320.69 280.14,-317.25"/>
<polygon fill="black" stroke="black" points="280.86,-320.68 290.09,-315.47 279.62,-313.79 280.86,-320.68"/>
</g>
<!-- Layer&#45;2&#45;&gt;Compiz -->
<g id="edge18" class="edge">
<title>Layer&#45;2&#45;&gt;Compiz</title>
<path fill="none" stroke="black" d="M221.03,-334.66C263.92,-337.16 345.14,-341.89 393.64,-344.71"/>
<polygon fill="black" stroke="black" points="393.57,-348.21 403.75,-345.3 393.97,-341.22 393.57,-348.21"/>
</g>
<!-- Layer&#45;3 -->
<g id="node16" class="node">
<title>Layer&#45;3</title>
<polygon fill="lightgrey" stroke="black" points="221,-297 162,-297 162,-261 221,-261 221,-297"/>
<text text-anchor="middle" x="191.5" y="-275.3" font-family="Times,serif" font-size="14.00">Layer&#45;3</text>
</g>
<!-- Layer&#45;3&#45;&gt;Scaler&#45;1 -->
<g id="edge14" class="edge">
<title>Layer&#45;3&#45;&gt;Scaler&#45;1</title>
<path fill="none" stroke="black" d="M221.23,-285.96C238.59,-290.16 261.01,-295.59 280.14,-300.22"/>
<polygon fill="black" stroke="black" points="279.54,-303.68 290.09,-302.63 281.19,-296.88 279.54,-303.68"/>
</g>
<!-- Layer&#45;3&#45;&gt;Compiz -->
<g id="edge19" class="edge">
<title>Layer&#45;3&#45;&gt;Compiz</title>
<path fill="none" stroke="black" d="M221.1,-272.87C258.59,-266.3 325.52,-259.69 376,-283 393.12,-290.9 407.25,-306.66 417.17,-320.56"/>
<polygon fill="black" stroke="black" points="414.29,-322.55 422.78,-328.89 420.09,-318.64 414.29,-322.55"/>
</g>
<!-- Compiz&#45;&gt;Scaler&#45;0/1 -->
<g id="edge22" class="edge">
<title>Compiz&#45;&gt;Scaler&#45;0/1</title>
<path fill="none" stroke="black" d="M464.07,-354.81C472.16,-356.98 481.14,-359.4 489.93,-361.76"/>
<polygon fill="black" stroke="black" points="489.15,-365.17 499.71,-364.39 490.96,-358.41 489.15,-365.17"/>
</g>
<!-- Improc -->
<g id="node19" class="node">
<title>Improc</title>
<polygon fill="lightgrey" stroke="black" points="565,-338 508,-338 508,-302 565,-302 565,-338"/>
<text text-anchor="middle" x="536.5" y="-316.3" font-family="Times,serif" font-size="14.00">Improc</text>
</g>
<!-- Compiz&#45;&gt;Improc -->
<g id="edge24" class="edge">
<title>Compiz&#45;&gt;Improc</title>
<path fill="none" stroke="black" d="M464.07,-339.19C474.63,-336.35 486.72,-333.1 497.92,-330.1"/>
<polygon fill="black" stroke="black" points="499.13,-333.4 507.88,-327.42 497.31,-326.64 499.13,-333.4"/>
</g>
<!-- Wb_layer&#45;&gt;Memory -->
<g id="edge26" class="edge">
<title>Wb_layer&#45;&gt;Memory</title>
<path fill="none" stroke="black" d="M704.29,-374C719.31,-374 737.18,-374 753.65,-374"/>
<polygon fill="black" stroke="black" points="753.68,-377.5 763.68,-374 753.68,-370.5 753.68,-377.5"/>
</g>
<!-- Timing Controller -->
<g id="node20" class="node">
<title>Timing Controller</title>
<polygon fill="lightgrey" stroke="black" points="728,-338 609,-338 609,-302 728,-302 728,-338"/>
<text text-anchor="middle" x="668.5" y="-316.3" font-family="Times,serif" font-size="14.00">Timing Controller</text>
</g>
<!-- Improc&#45;&gt;Timing Controller -->
<g id="edge25" class="edge">
<title>Improc&#45;&gt;Timing Controller</title>
<path fill="none" stroke="black" d="M565.07,-320C575.08,-320 586.9,-320 598.88,-320"/>
<polygon fill="black" stroke="black" points="598.94,-323.5 608.94,-320 598.94,-316.5 598.94,-323.5"/>
</g>
<!-- Timing Controller&#45;&gt;Monitor -->
<g id="edge27" class="edge">
<title>Timing Controller&#45;&gt;Monitor</title>
<path fill="none" stroke="black" d="M728.36,-320C737.06,-320 745.95,-320 754.44,-320"/>
<polygon fill="black" stroke="black" points="754.57,-323.5 764.57,-320 754.57,-316.5 754.57,-323.5"/>
</g>
</g>
</svg>
