<?xml version="1.0" encoding="UTF-8" standalone="no"?>
<!DOCTYPE svg PUBLIC "-//W3C//DTD SVG 1.1//EN"
 "http://www.w3.org/Graphics/SVG/1.1/DTD/svg11.dtd">
<!-- Generated by graphviz version 2.43.0 (0)
 -->
<!-- Title: %3 Pages: 1 -->
<svg width="1297pt" height="412pt"
 viewBox="0.00 0.00 1297.00 412.00" xmlns="http://www.w3.org/2000/svg" xmlns:xlink="http://www.w3.org/1999/xlink">
<g id="graph0" class="graph" transform="scale(1 1) rotate(0) translate(4 408)">
<title>%3</title>
<polygon fill="white" stroke="transparent" points="-4,4 -4,-408 1293,-408 1293,4 -4,4"/>
<g id="clust1" class="cluster">
<title>cluster_state</title>
<polygon fill="none" stroke="black" stroke-dasharray="5,2" points="8,-248 8,-396 1002,-396 1002,-248 8,-248"/>
<text text-anchor="middle" x="505" y="-380.8" font-family="Times,serif" font-size="14.00">Free&#45;standing state</text>
</g>
<g id="clust2" class="cluster">
<title>cluster_current</title>
<polygon fill="none" stroke="black" stroke-dasharray="5,2" points="587,-8 587,-229 1281,-229 1281,-8 587,-8"/>
<text text-anchor="middle" x="934" y="-213.8" font-family="Times,serif" font-size="14.00">Current state</text>
</g>
<!-- drm_atomic_state -->
<g id="node1" class="node">
<title>drm_atomic_state</title>
<polygon fill="none" stroke="black" points="633,-365 515,-365 515,-329 633,-329 633,-365"/>
<text text-anchor="middle" x="574" y="-343.3" font-family="Times,serif" font-size="14.00">drm_atomic_state</text>
</g>
<!-- duplicated drm_plane_state A -->
<g id="node2" class="node">
<title>duplicated drm_plane_state A</title>
<polygon fill="none" stroke="black" points="200,-292 16,-292 16,-256 200,-256 200,-292"/>
<text text-anchor="middle" x="108" y="-270.3" font-family="Times,serif" font-size="14.00">duplicated drm_plane_state A</text>
</g>
<!-- drm_atomic_state&#45;&gt;duplicated drm_plane_state A -->
<g id="edge1" class="edge">
<title>drm_atomic_state&#45;&gt;duplicated drm_plane_state A</title>
<path fill="none" stroke="black" d="M514.84,-337.62C444.64,-327.59 323.81,-310.06 210.11,-292.16"/>
<polygon fill="black" stroke="black" points="210.61,-288.7 200.19,-290.59 209.52,-295.61 210.61,-288.7"/>
</g>
<!-- duplicated drm_plane_state B -->
<g id="node3" class="node">
<title>duplicated drm_plane_state B</title>
<polygon fill="none" stroke="black" points="400,-292 218,-292 218,-256 400,-256 400,-292"/>
<text text-anchor="middle" x="309" y="-270.3" font-family="Times,serif" font-size="14.00">duplicated drm_plane_state B</text>
</g>
<!-- drm_atomic_state&#45;&gt;duplicated drm_plane_state B -->
<g id="edge2" class="edge">
<title>drm_atomic_state&#45;&gt;duplicated drm_plane_state B</title>
<path fill="none" stroke="black" d="M514.86,-330.15C475.74,-319.67 424.17,-305.86 382.43,-294.67"/>
<polygon fill="black" stroke="black" points="383.15,-291.24 372.59,-292.04 381.34,-298.01 383.15,-291.24"/>
</g>
<!-- duplicated drm_crtc_state -->
<g id="node4" class="node">
<title>duplicated drm_crtc_state</title>
<polygon fill="none" stroke="black" points="579.5,-292 418.5,-292 418.5,-256 579.5,-256 579.5,-292"/>
<text text-anchor="middle" x="499" y="-270.3" font-family="Times,serif" font-size="14.00">duplicated drm_crtc_state</text>
</g>
<!-- drm_atomic_state&#45;&gt;duplicated drm_crtc_state -->
<g id="edge3" class="edge">
<title>drm_atomic_state&#45;&gt;duplicated drm_crtc_state</title>
<path fill="none" stroke="black" d="M555.84,-328.81C546.45,-319.92 534.82,-308.91 524.53,-299.17"/>
<polygon fill="black" stroke="black" points="526.66,-296.36 516.99,-292.03 521.84,-301.45 526.66,-296.36"/>
</g>
<!-- duplicated drm_connector_state -->
<g id="node5" class="node">
<title>duplicated drm_connector_state</title>
<polygon fill="none" stroke="black" points="794,-292 598,-292 598,-256 794,-256 794,-292"/>
<text text-anchor="middle" x="696" y="-270.3" font-family="Times,serif" font-size="14.00">duplicated drm_connector_state</text>
</g>
<!-- drm_atomic_state&#45;&gt;duplicated drm_connector_state -->
<g id="edge4" class="edge">
<title>drm_atomic_state&#45;&gt;duplicated drm_connector_state</title>
<path fill="none" stroke="black" d="M603.22,-328.99C619.55,-319.49 640.09,-307.54 657.69,-297.29"/>
<polygon fill="black" stroke="black" points="659.71,-300.17 666.59,-292.11 656.19,-294.12 659.71,-300.17"/>
</g>
<!-- duplicated driver private state -->
<g id="node6" class="node">
<title>duplicated driver private state</title>
<polygon fill="none" stroke="black" points="994,-292 812,-292 812,-256 994,-256 994,-292"/>
<text text-anchor="middle" x="903" y="-270.3" font-family="Times,serif" font-size="14.00">duplicated driver private state</text>
</g>
<!-- drm_atomic_state&#45;&gt;duplicated driver private state -->
<g id="edge5" class="edge">
<title>drm_atomic_state&#45;&gt;duplicated driver private state</title>
<path fill="none" stroke="black" d="M633.2,-333.22C683.65,-322.34 756.91,-306.53 814.36,-294.13"/>
<polygon fill="black" stroke="black" points="815.12,-297.54 824.16,-292.01 813.65,-290.7 815.12,-297.54"/>
</g>
<!-- drm_device -->
<g id="node7" class="node">
<title>drm_device</title>
<polygon fill="none" stroke="black" points="969,-198 887,-198 887,-162 969,-162 969,-198"/>
<text text-anchor="middle" x="928" y="-176.3" font-family="Times,serif" font-size="14.00">drm_device</text>
</g>
<!-- drm_atomic_state&#45;&gt;drm_device -->
<g id="edge16" class="edge">
<title>drm_atomic_state&#45;&gt;drm_device</title>
<path fill="none" stroke="black" d="M633.06,-342.84C744.97,-336.24 978.92,-319.3 1003,-292 1027.61,-264.1 992.18,-227.73 962.14,-204.36"/>
<polygon fill="black" stroke="black" points="963.96,-201.35 953.86,-198.14 959.75,-206.95 963.96,-201.35"/>
<text text-anchor="middle" x="1055.5" y="-270.3" font-family="Times,serif" font-size="14.00">atomic_commit</text>
</g>
<!-- duplicated drm_plane_state A&#45;&gt;drm_device -->
<!-- drm_plane A -->
<g id="node8" class="node">
<title>drm_plane A</title>
<polygon fill="none" stroke="black" points="738.5,-125 647.5,-125 647.5,-89 738.5,-89 738.5,-125"/>
<text text-anchor="middle" x="693" y="-103.3" font-family="Times,serif" font-size="14.00">drm_plane A</text>
</g>
<!-- drm_device&#45;&gt;drm_plane A -->
<g id="edge6" class="edge">
<title>drm_device&#45;&gt;drm_plane A</title>
<path fill="none" stroke="black" d="M886.8,-166.55C848.33,-154.93 790.64,-137.5 748.2,-124.68"/>
<polygon fill="black" stroke="black" points="749.16,-121.31 738.58,-121.77 747.14,-128.01 749.16,-121.31"/>
</g>
<!-- drm_plane B -->
<g id="node9" class="node">
<title>drm_plane B</title>
<polygon fill="none" stroke="black" points="866.5,-125 777.5,-125 777.5,-89 866.5,-89 866.5,-125"/>
<text text-anchor="middle" x="822" y="-103.3" font-family="Times,serif" font-size="14.00">drm_plane B</text>
</g>
<!-- drm_device&#45;&gt;drm_plane B -->
<g id="edge7" class="edge">
<title>drm_device&#45;&gt;drm_plane B</title>
<path fill="none" stroke="black" d="M902.61,-161.99C888.68,-152.67 871.23,-140.97 856.13,-130.86"/>
<polygon fill="black" stroke="black" points="857.81,-127.77 847.55,-125.11 853.91,-133.59 857.81,-127.77"/>
</g>
<!-- drm_crtc -->
<g id="node10" class="node">
<title>drm_crtc</title>
<polygon fill="none" stroke="black" points="962,-125 894,-125 894,-89 962,-89 962,-125"/>
<text text-anchor="middle" x="928" y="-103.3" font-family="Times,serif" font-size="14.00">drm_crtc</text>
</g>
<!-- drm_device&#45;&gt;drm_crtc -->
<g id="edge8" class="edge">
<title>drm_device&#45;&gt;drm_crtc</title>
<path fill="none" stroke="black" d="M928,-161.81C928,-153.79 928,-144.05 928,-135.07"/>
<polygon fill="black" stroke="black" points="931.5,-135.03 928,-125.03 924.5,-135.03 931.5,-135.03"/>
</g>
<!-- drm_connector -->
<g id="node11" class="node">
<title>drm_connector</title>
<polygon fill="none" stroke="black" points="1099.5,-125 996.5,-125 996.5,-89 1099.5,-89 1099.5,-125"/>
<text text-anchor="middle" x="1048" y="-103.3" font-family="Times,serif" font-size="14.00">drm_connector</text>
</g>
<!-- drm_device&#45;&gt;drm_connector -->
<g id="edge9" class="edge">
<title>drm_device&#45;&gt;drm_connector</title>
<path fill="none" stroke="black" d="M956.74,-161.99C972.8,-152.49 993.01,-140.54 1010.32,-130.29"/>
<polygon fill="black" stroke="black" points="1012.25,-133.22 1019.08,-125.11 1008.69,-127.19 1012.25,-133.22"/>
</g>
<!-- driver private object -->
<g id="node12" class="node">
<title>driver private object</title>
<polygon fill="none" stroke="black" points="1259.5,-125 1130.5,-125 1130.5,-89 1259.5,-89 1259.5,-125"/>
<text text-anchor="middle" x="1195" y="-103.3" font-family="Times,serif" font-size="14.00">driver private object</text>
</g>
<!-- drm_device&#45;&gt;driver private object -->
<g id="edge10" class="edge">
<title>drm_device&#45;&gt;driver private object</title>
<path fill="none" stroke="black" d="M969.13,-168.06C1009.51,-157.33 1071.98,-140.71 1121,-127.68"/>
<polygon fill="black" stroke="black" points="1122.16,-130.99 1130.93,-125.04 1120.37,-124.23 1122.16,-130.99"/>
</g>
<!-- drm_plane_state A -->
<g id="node13" class="node">
<title>drm_plane_state A</title>
<polygon fill="none" stroke="black" points="719,-52 595,-52 595,-16 719,-16 719,-52"/>
<text text-anchor="middle" x="657" y="-30.3" font-family="Times,serif" font-size="14.00">drm_plane_state A</text>
</g>
<!-- drm_plane A&#45;&gt;drm_plane_state A -->
<g id="edge11" class="edge">
<title>drm_plane A&#45;&gt;drm_plane_state A</title>
<path fill="none" stroke="black" d="M684.29,-88.81C680.08,-80.53 674.95,-70.41 670.28,-61.19"/>
<polygon fill="black" stroke="black" points="673.28,-59.37 665.63,-52.03 667.04,-62.53 673.28,-59.37"/>
</g>
<!-- drm_plane_state B -->
<g id="node14" class="node">
<title>drm_plane_state B</title>
<polygon fill="none" stroke="black" points="859,-52 737,-52 737,-16 859,-16 859,-52"/>
<text text-anchor="middle" x="798" y="-30.3" font-family="Times,serif" font-size="14.00">drm_plane_state B</text>
</g>
<!-- drm_plane B&#45;&gt;drm_plane_state B -->
<g id="edge12" class="edge">
<title>drm_plane B&#45;&gt;drm_plane_state B</title>
<path fill="none" stroke="black" d="M816.19,-88.81C813.45,-80.7 810.11,-70.84 807.05,-61.78"/>
<polygon fill="black" stroke="black" points="810.27,-60.38 803.76,-52.03 803.64,-62.62 810.27,-60.38"/>
</g>
<!-- drm_crtc_state -->
<g id="node15" class="node">
<title>drm_crtc_state</title>
<polygon fill="none" stroke="black" points="978.5,-52 877.5,-52 877.5,-16 978.5,-16 978.5,-52"/>
<text text-anchor="middle" x="928" y="-30.3" font-family="Times,serif" font-size="14.00">drm_crtc_state</text>
</g>
<!-- drm_crtc&#45;&gt;drm_crtc_state -->
<g id="edge13" class="edge">
<title>drm_crtc&#45;&gt;drm_crtc_state</title>
<path fill="none" stroke="black" d="M928,-88.81C928,-80.79 928,-71.05 928,-62.07"/>
<polygon fill="black" stroke="black" points="931.5,-62.03 928,-52.03 924.5,-62.03 931.5,-62.03"/>
</g>
<!-- drm_connector_state -->
<g id="node16" class="node">
<title>drm_connector_state</title>
<polygon fill="none" stroke="black" points="1133,-52 997,-52 997,-16 1133,-16 1133,-52"/>
<text text-anchor="middle" x="1065" y="-30.3" font-family="Times,serif" font-size="14.00">drm_connector_state</text>
</g>
<!-- drm_connector&#45;&gt;drm_connector_state -->
<g id="edge14" class="edge">
<title>drm_connector&#45;&gt;drm_connector_state</title>
<path fill="none" stroke="black" d="M1052.12,-88.81C1054.06,-80.7 1056.42,-70.84 1058.59,-61.78"/>
<polygon fill="black" stroke="black" points="1062,-62.57 1060.92,-52.03 1055.19,-60.94 1062,-62.57"/>
</g>
<!-- driver private state -->
<g id="node17" class="node">
<title>driver private state</title>
<polygon fill="none" stroke="black" points="1273,-52 1151,-52 1151,-16 1273,-16 1273,-52"/>
<text text-anchor="middle" x="1212" y="-30.3" font-family="Times,serif" font-size="14.00">driver private state</text>
</g>
<!-- driver private object&#45;&gt;driver private state -->
<g id="edge15" class="edge">
<title>driver private object&#45;&gt;driver private state</title>
<path fill="none" stroke="black" d="M1199.12,-88.81C1201.06,-80.7 1203.42,-70.84 1205.59,-61.78"/>
<polygon fill="black" stroke="black" points="1209,-62.57 1207.92,-52.03 1202.19,-60.94 1209,-62.57"/>
</g>
</g>
</svg>
