<?xml version="1.0" encoding="UTF-8" standalone="no"?>
<!DOCTYPE svg PUBLIC "-//W3C//DTD SVG 1.1//EN"
 "http://www.w3.org/Graphics/SVG/1.1/DTD/svg11.dtd">
<!-- Generated by graphviz version 2.43.0 (0)
 -->
<!-- Title: %3 Pages: 1 -->
<svg width="288pt" height="116pt"
 viewBox="0.00 0.00 288.00 116.00" xmlns="http://www.w3.org/2000/svg" xmlns:xlink="http://www.w3.org/1999/xlink">
<g id="graph0" class="graph" transform="scale(1 1) rotate(0) translate(4 112)">
<title>%3</title>
<polygon fill="white" stroke="transparent" points="-4,4 -4,-112 284,-112 284,4 -4,4"/>
<!-- drm_property A -->
<g id="node1" class="node">
<title>drm_property A</title>
<polygon fill="none" stroke="black" points="257,-108 149,-108 149,-72 257,-72 257,-108"/>
<text text-anchor="middle" x="203" y="-86.3" font-family="Times,serif" font-size="14.00">drm_property A</text>
</g>
<!-- drm_mode_object A -->
<g id="node2" class="node">
<title>drm_mode_object A</title>
<polygon fill="none" stroke="black" points="132,-36 0,-36 0,0 132,0 132,-36"/>
<text text-anchor="middle" x="66" y="-14.3" font-family="Times,serif" font-size="14.00">drm_mode_object A</text>
</g>
<!-- drm_property A&#45;&gt;drm_mode_object A -->
<g id="edge1" class="edge">
<title>drm_property A&#45;&gt;drm_mode_object A</title>
<path fill="none" stroke="black" d="M169.49,-71.88C151.16,-62.51 128.26,-50.81 108.67,-40.8"/>
<polygon fill="black" stroke="black" points="110.14,-37.62 99.64,-36.19 106.96,-43.86 110.14,-37.62"/>
</g>
<!-- drm_mode_object B -->
<g id="node3" class="node">
<title>drm_mode_object B</title>
<polygon fill="none" stroke="black" points="280,-36 150,-36 150,0 280,0 280,-36"/>
<text text-anchor="middle" x="215" y="-14.3" font-family="Times,serif" font-size="14.00">drm_mode_object B</text>
</g>
<!-- drm_property A&#45;&gt;drm_mode_object B -->
<g id="edge2" class="edge">
<title>drm_property A&#45;&gt;drm_mode_object B</title>
<path fill="none" stroke="black" d="M205.97,-71.7C207.29,-63.98 208.88,-54.71 210.35,-46.11"/>
<polygon fill="black" stroke="black" points="213.83,-46.55 212.07,-36.1 206.93,-45.37 213.83,-46.55"/>
</g>
<!-- drm_property B -->
<g id="node4" class="node">
<title>drm_property B</title>
<polygon fill="none" stroke="black" points="119,-108 13,-108 13,-72 119,-72 119,-108"/>
<text text-anchor="middle" x="66" y="-86.3" font-family="Times,serif" font-size="14.00">drm_property B</text>
</g>
<!-- drm_property B&#45;&gt;drm_mode_object A -->
<g id="edge3" class="edge">
<title>drm_property B&#45;&gt;drm_mode_object A</title>
<path fill="none" stroke="black" d="M66,-71.7C66,-63.98 66,-54.71 66,-46.11"/>
<polygon fill="black" stroke="black" points="69.5,-46.1 66,-36.1 62.5,-46.1 69.5,-46.1"/>
</g>
</g>
</svg>
