<?xml version="1.0" encoding="UTF-8" standalone="no"?>
<!DOCTYPE svg PUBLIC "-//W3C//DTD SVG 1.1//EN"
 "http://www.w3.org/Graphics/SVG/1.1/DTD/svg11.dtd">
<!-- Generated by graphviz version 2.43.0 (0)
 -->
<!-- Title: writeback_data_flow Pages: 1 -->
<svg width="461pt" height="98pt"
 viewBox="0.00 0.00 461.00 98.00" xmlns="http://www.w3.org/2000/svg" xmlns:xlink="http://www.w3.org/1999/xlink">
<g id="graph0" class="graph" transform="scale(1 1) rotate(0) translate(4 94)">
<title>writeback_data_flow</title>
<polygon fill="white" stroke="transparent" points="-4,4 -4,-94 457,-94 457,4 -4,4"/>
<!-- Compiz -->
<g id="node1" class="node">
<title>Compiz</title>
<polygon fill="none" stroke="black" points="60,-63 0,-63 0,-27 60,-27 60,-63"/>
<text text-anchor="middle" x="30" y="-41.3" font-family="Times,serif" font-size="14.00">Compiz</text>
</g>
<!-- Splitter -->
<g id="node2" class="node">
<title>Splitter</title>
<polygon fill="none" stroke="black" points="155,-63 96,-63 96,-27 155,-27 155,-63"/>
<text text-anchor="middle" x="125.5" y="-41.3" font-family="Times,serif" font-size="14.00">Splitter</text>
</g>
<!-- Compiz&#45;&gt;Splitter -->
<g id="edge1" class="edge">
<title>Compiz&#45;&gt;Splitter</title>
<path fill="none" stroke="black" d="M60.07,-45C68.15,-45 77.06,-45 85.6,-45"/>
<polygon fill="black" stroke="black" points="85.77,-48.5 95.77,-45 85.77,-41.5 85.77,-48.5"/>
</g>
<!-- Scaler&#45;0 -->
<g id="node3" class="node">
<title>Scaler&#45;0</title>
<polygon fill="none" stroke="black" points="253,-90 191,-90 191,-54 253,-54 253,-90"/>
<text text-anchor="middle" x="222" y="-68.3" font-family="Times,serif" font-size="14.00">Scaler&#45;0</text>
</g>
<!-- Splitter&#45;&gt;Scaler&#45;0 -->
<g id="edge2" class="edge">
<title>Splitter&#45;&gt;Scaler&#45;0</title>
<path fill="none" stroke="black" d="M155.11,-53.17C163.32,-55.52 172.42,-58.12 181.18,-60.62"/>
<polygon fill="black" stroke="black" points="180.27,-64 190.85,-63.39 182.19,-57.27 180.27,-64"/>
</g>
<!-- Scaler&#45;1 -->
<g id="node5" class="node">
<title>Scaler&#45;1</title>
<polygon fill="none" stroke="black" points="253,-36 191,-36 191,0 253,0 253,-36"/>
<text text-anchor="middle" x="222" y="-14.3" font-family="Times,serif" font-size="14.00">Scaler&#45;1</text>
</g>
<!-- Splitter&#45;&gt;Scaler&#45;1 -->
<g id="edge4" class="edge">
<title>Splitter&#45;&gt;Scaler&#45;1</title>
<path fill="none" stroke="black" d="M155.11,-36.83C163.32,-34.48 172.42,-31.88 181.18,-29.38"/>
<polygon fill="black" stroke="black" points="182.19,-32.73 190.85,-26.61 180.27,-26 182.19,-32.73"/>
</g>
<!-- Merger -->
<g id="node4" class="node">
<title>Merger</title>
<polygon fill="none" stroke="black" points="346,-63 289,-63 289,-27 346,-27 346,-63"/>
<text text-anchor="middle" x="317.5" y="-41.3" font-family="Times,serif" font-size="14.00">Merger</text>
</g>
<!-- Scaler&#45;0&#45;&gt;Merger -->
<g id="edge3" class="edge">
<title>Scaler&#45;0&#45;&gt;Merger</title>
<path fill="none" stroke="black" d="M253.1,-63.31C261.39,-60.92 270.48,-58.29 279.12,-55.79"/>
<polygon fill="black" stroke="black" points="280.36,-59.08 288.99,-52.94 278.41,-52.36 280.36,-59.08"/>
</g>
<!-- Wb_layer -->
<g id="node6" class="node">
<title>Wb_layer</title>
<polygon fill="none" stroke="black" points="453,-63 382,-63 382,-27 453,-27 453,-63"/>
<text text-anchor="middle" x="417.5" y="-41.3" font-family="Times,serif" font-size="14.00">Wb_layer</text>
</g>
<!-- Merger&#45;&gt;Wb_layer -->
<g id="edge6" class="edge">
<title>Merger&#45;&gt;Wb_layer</title>
<path fill="none" stroke="black" d="M346.06,-45C354.03,-45 362.95,-45 371.69,-45"/>
<polygon fill="black" stroke="black" points="371.8,-48.5 381.8,-45 371.8,-41.5 371.8,-48.5"/>
</g>
<!-- Scaler&#45;1&#45;&gt;Merger -->
<g id="edge5" class="edge">
<title>Scaler&#45;1&#45;&gt;Merger</title>
<path fill="none" stroke="black" d="M253.1,-26.69C261.39,-29.08 270.48,-31.71 279.12,-34.21"/>
<polygon fill="black" stroke="black" points="278.41,-37.64 288.99,-37.06 280.36,-30.92 278.41,-37.64"/>
</g>
</g>
</svg>
