<?xml version="1.0" encoding="UTF-8" standalone="no"?>
<!DOCTYPE svg PUBLIC "-//W3C//DTD SVG 1.1//EN"
 "http://www.w3.org/Graphics/SVG/1.1/DTD/svg11.dtd">
<!-- Generated by graphviz version 2.43.0 (0)
 -->
<!-- Title: NFC Pages: 1 -->
<svg width="420pt" height="404pt"
 viewBox="0.00 0.00 419.93 404.00" xmlns="http://www.w3.org/2000/svg" xmlns:xlink="http://www.w3.org/1999/xlink">
<g id="graph0" class="graph" transform="scale(1 1) rotate(0) translate(4 400)">
<title>NFC</title>
<polygon fill="white" stroke="transparent" points="-4,4 -4,-400 415.93,-400 415.93,4 -4,4"/>
<!-- cl_nfc -->
<g id="node1" class="node">
<title>cl_nfc</title>
<ellipse fill="none" stroke="black" cx="213.94" cy="-90" rx="57.69" ry="18"/>
<text text-anchor="middle" x="213.94" y="-86.3" font-family="Times,serif" font-size="14.00">mei/bus(nfc)</text>
</g>
<!-- me_cl_nfc -->
<g id="node2" class="node">
<title>me_cl_nfc</title>
<ellipse fill="none" stroke="black" cx="213.94" cy="-18" rx="53.09" ry="18"/>
<text text-anchor="middle" x="213.94" y="-14.3" font-family="Times,serif" font-size="14.00">me fw (nfc)</text>
</g>
<!-- cl_nfc&#45;&gt;me_cl_nfc -->
<g id="edge1" class="edge">
<title>cl_nfc&#45;&gt;me_cl_nfc</title>
<path fill="none" stroke="black" d="M213.94,-71.7C213.94,-63.98 213.94,-54.71 213.94,-46.11"/>
<polygon fill="black" stroke="black" points="217.44,-46.1 213.94,-36.1 210.44,-46.1 217.44,-46.1"/>
</g>
<!-- drivers/nfc/mei_phy -->
<g id="node3" class="node">
<title>drivers/nfc/mei_phy</title>
<ellipse fill="none" stroke="black" cx="213.94" cy="-162" rx="83.69" ry="18"/>
<text text-anchor="middle" x="213.94" y="-158.3" font-family="Times,serif" font-size="14.00">drivers/nfc/mei_phy</text>
</g>
<!-- drivers/nfc/mei_phy&#45;&gt;cl_nfc -->
<g id="edge2" class="edge">
<title>drivers/nfc/mei_phy&#45;&gt;cl_nfc</title>
<path fill="none" stroke="black" d="M213.94,-143.7C213.94,-135.98 213.94,-126.71 213.94,-118.11"/>
<polygon fill="black" stroke="black" points="217.44,-118.1 213.94,-108.1 210.44,-118.1 217.44,-118.1"/>
</g>
<!-- drivers/nfc/microread/mei -->
<g id="node4" class="node">
<title>drivers/nfc/microread/mei</title>
<ellipse fill="none" stroke="black" cx="105.94" cy="-234" rx="105.88" ry="18"/>
<text text-anchor="middle" x="105.94" y="-230.3" font-family="Times,serif" font-size="14.00">drivers/nfc/microread/mei</text>
</g>
<!-- drivers/nfc/microread/mei&#45;&gt;cl_nfc -->
<g id="edge3" class="edge">
<title>drivers/nfc/microread/mei&#45;&gt;cl_nfc</title>
<path fill="none" stroke="black" d="M104.68,-215.99C104.14,-196.79 105.95,-165.45 120.94,-144 132.08,-128.06 149.64,-116.3 166.53,-107.96"/>
<polygon fill="black" stroke="black" points="168.18,-111.05 175.79,-103.68 165.24,-104.7 168.18,-111.05"/>
</g>
<!-- drivers/nfc/microread/mei&#45;&gt;drivers/nfc/mei_phy -->
<g id="edge4" class="edge">
<title>drivers/nfc/microread/mei&#45;&gt;drivers/nfc/mei_phy</title>
<path fill="none" stroke="black" d="M131.54,-216.41C146.17,-206.93 164.69,-194.92 180.46,-184.7"/>
<polygon fill="black" stroke="black" points="182.41,-187.6 188.9,-179.23 178.61,-181.73 182.41,-187.6"/>
</g>
<!-- drivers/nfc/pn544/mei -->
<g id="node5" class="node">
<title>drivers/nfc/pn544/mei</title>
<ellipse fill="none" stroke="black" cx="320.94" cy="-234" rx="90.98" ry="18"/>
<text text-anchor="middle" x="320.94" y="-230.3" font-family="Times,serif" font-size="14.00">drivers/nfc/pn544/mei</text>
</g>
<!-- drivers/nfc/pn544/mei&#45;&gt;cl_nfc -->
<g id="edge5" class="edge">
<title>drivers/nfc/pn544/mei&#45;&gt;cl_nfc</title>
<path fill="none" stroke="black" d="M322.42,-216C323.22,-196.82 321.78,-165.49 306.94,-144 295.89,-128 278.34,-116.23 261.45,-107.9"/>
<polygon fill="black" stroke="black" points="262.72,-104.63 252.17,-103.62 259.79,-110.99 262.72,-104.63"/>
</g>
<!-- drivers/nfc/pn544/mei&#45;&gt;drivers/nfc/mei_phy -->
<g id="edge6" class="edge">
<title>drivers/nfc/pn544/mei&#45;&gt;drivers/nfc/mei_phy</title>
<path fill="none" stroke="black" d="M295.85,-216.59C281.37,-207.11 262.96,-195.07 247.27,-184.8"/>
<polygon fill="black" stroke="black" points="249.15,-181.85 238.87,-179.31 245.32,-187.71 249.15,-181.85"/>
</g>
<!-- net/nfc -->
<g id="node6" class="node">
<title>net/nfc</title>
<ellipse fill="none" stroke="black" cx="212.94" cy="-306" rx="36.29" ry="18"/>
<text text-anchor="middle" x="212.94" y="-302.3" font-family="Times,serif" font-size="14.00">net/nfc</text>
</g>
<!-- net/nfc&#45;&gt;drivers/nfc/microread/mei -->
<g id="edge7" class="edge">
<title>net/nfc&#45;&gt;drivers/nfc/microread/mei</title>
<path fill="none" stroke="black" d="M191.8,-291.17C176.97,-281.47 156.82,-268.28 139.77,-257.13"/>
<polygon fill="black" stroke="black" points="141.46,-254.06 131.18,-251.51 137.63,-259.91 141.46,-254.06"/>
</g>
<!-- net/nfc&#45;&gt;drivers/nfc/pn544/mei -->
<g id="edge8" class="edge">
<title>net/nfc&#45;&gt;drivers/nfc/pn544/mei</title>
<path fill="none" stroke="black" d="M234.28,-291.17C249.25,-281.47 269.59,-268.28 286.8,-257.13"/>
<polygon fill="black" stroke="black" points="288.98,-259.89 295.47,-251.51 285.17,-254.01 288.98,-259.89"/>
</g>
<!-- neard -->
<g id="node7" class="node">
<title>neard</title>
<ellipse fill="none" stroke="black" cx="212.94" cy="-378" rx="31.4" ry="18"/>
<text text-anchor="middle" x="212.94" y="-374.3" font-family="Times,serif" font-size="14.00">neard</text>
</g>
<!-- neard&#45;&gt;net/nfc -->
<g id="edge9" class="edge">
<title>neard&#45;&gt;net/nfc</title>
<path fill="none" stroke="black" d="M212.94,-359.7C212.94,-351.98 212.94,-342.71 212.94,-334.11"/>
<polygon fill="black" stroke="black" points="216.44,-334.1 212.94,-324.1 209.44,-334.1 216.44,-334.1"/>
</g>
</g>
</svg>
