<?xml version="1.0" encoding="UTF-8" standalone="no"?>
<!DOCTYPE svg PUBLIC "-//W3C//DTD SVG 1.1//EN"
 "http://www.w3.org/Graphics/SVG/1.1/DTD/svg11.dtd">
<!-- Generated by graphviz version 2.43.0 (0)
 -->
<!-- Title: node_states Pages: 1 -->
<svg width="194pt" height="131pt"
 viewBox="0.00 0.00 193.54 131.00" xmlns="http://www.w3.org/2000/svg" xmlns:xlink="http://www.w3.org/1999/xlink">
<g id="graph0" class="graph" transform="scale(1 1) rotate(0) translate(4 127)">
<title>node_states</title>
<polygon fill="white" stroke="transparent" points="-4,4 -4,-127 189.54,-127 189.54,4 -4,4"/>
<!-- Secondary -->
<g id="node1" class="node">
<title>Secondary</title>
<ellipse fill="none" stroke="black" cx="58.54" cy="-105" rx="48.19" ry="18"/>
<text text-anchor="middle" x="58.54" y="-101.3" font-family="Times,serif" font-size="14.00">Secondary</text>
</g>
<!-- Primary -->
<g id="node2" class="node">
<title>Primary</title>
<ellipse fill="none" stroke="black" cx="58.54" cy="-18" rx="40.09" ry="18"/>
<text text-anchor="middle" x="58.54" y="-14.3" font-family="Times,serif" font-size="14.00">Primary</text>
</g>
<!-- Secondary&#45;&gt;Primary -->
<g id="edge1" class="edge">
<title>Secondary&#45;&gt;Primary</title>
<path fill="none" stroke="black" d="M26.51,-91.36C17.08,-85.96 7.88,-78.63 2.54,-69 -4.84,-55.69 6.17,-44.12 20.32,-35.47"/>
<polygon fill="black" stroke="black" points="22.32,-38.36 29.4,-30.47 18.95,-32.23 22.32,-38.36"/>
<text text-anchor="middle" x="48.04" y="-57.8" font-family="Times,serif" font-size="14.00">ioctl_set_state()</text>
</g>
<!-- Primary&#45;&gt;Secondary -->
<g id="edge2" class="edge">
<title>Primary&#45;&gt;Secondary</title>
<path fill="none" stroke="black" d="M78.99,-33.73C89.42,-43.19 98.89,-56.08 93.54,-69 91.75,-73.31 89.15,-77.37 86.15,-81.09"/>
<polygon fill="black" stroke="black" points="83.37,-78.95 79.14,-88.66 88.5,-83.71 83.37,-78.95"/>
<text text-anchor="middle" x="140.04" y="-57.8" font-family="Times,serif" font-size="14.00">ioctl_set_state()</text>
</g>
</g>
</svg>
<?xml version="1.0" encoding="UTF-8" standalone="no"?>
<!DOCTYPE svg PUBLIC "-//W3C//DTD SVG 1.1//EN"
 "http://www.w3.org/Graphics/SVG/1.1/DTD/svg11.dtd">
<!-- Generated by graphviz version 2.43.0 (0)
 -->
<!-- Title: peer_states Pages: 1 -->
<svg width="389pt" height="218pt"
 viewBox="0.00 0.00 388.61 218.00" xmlns="http://www.w3.org/2000/svg" xmlns:xlink="http://www.w3.org/1999/xlink">
<g id="page0,1_graph0" class="graph" transform="scale(1 1) rotate(0) translate(4 214)">
<title>peer_states</title>
<polygon fill="white" stroke="transparent" points="-4,4 -4,-214 384.61,-214 384.61,4 -4,4"/>
<!-- Secondary -->
<g id="node1" class="node">
<title>Secondary</title>
<ellipse fill="none" stroke="black" cx="173.61" cy="-192" rx="48.19" ry="18"/>
<text text-anchor="middle" x="173.61" y="-188.3" font-family="Times,serif" font-size="14.00">Secondary</text>
</g>
<!-- Primary -->
<g id="node2" class="node">
<title>Primary</title>
<ellipse fill="none" stroke="black" cx="82.61" cy="-105" rx="40.09" ry="18"/>
<text text-anchor="middle" x="82.61" y="-101.3" font-family="Times,serif" font-size="14.00">Primary</text>
</g>
<!-- Secondary&#45;&gt;Primary -->
<g id="edge1" class="edge">
<title>Secondary&#45;&gt;Primary</title>
<path fill="none" stroke="black" d="M126.52,-187.77C81.98,-183.61 19.75,-174.59 4.61,-156 -9.19,-139.04 13.66,-125.99 38.13,-117.49"/>
<polygon fill="black" stroke="black" points="39.44,-120.74 47.88,-114.34 37.29,-114.08 39.44,-120.74"/>
<text text-anchor="middle" x="51.11" y="-144.8" font-family="Times,serif" font-size="14.00">recv state packet</text>
</g>
<!-- Unknown -->
<g id="node3" class="node">
<title>Unknown</title>
<ellipse fill="none" stroke="black" cx="190.61" cy="-18" rx="46.29" ry="18"/>
<text text-anchor="middle" x="190.61" y="-14.3" font-family="Times,serif" font-size="14.00">Unknown</text>
</g>
<!-- Secondary&#45;&gt;Unknown -->
<g id="edge4" class="edge">
<title>Secondary&#45;&gt;Unknown</title>
<path fill="none" stroke="black" d="M197.09,-176.18C203.68,-170.72 210.03,-163.9 213.61,-156 220.54,-140.73 248.99,-183.16 211.61,-54 210.69,-50.8 209.39,-47.6 207.9,-44.5"/>
<polygon fill="black" stroke="black" points="210.88,-42.67 202.97,-35.62 204.76,-46.06 210.88,-42.67"/>
<text text-anchor="middle" x="270.61" y="-101.3" font-family="Times,serif" font-size="14.00">connection lost</text>
</g>
<!-- Primary&#45;&gt;Secondary -->
<g id="edge2" class="edge">
<title>Primary&#45;&gt;Secondary</title>
<path fill="none" stroke="black" d="M93.01,-122.44C100.03,-132.79 109.94,-146.02 120.61,-156 126.26,-161.28 132.79,-166.3 139.29,-170.8"/>
<polygon fill="black" stroke="black" points="137.79,-174 148.06,-176.58 141.65,-168.16 137.79,-174"/>
<text text-anchor="middle" x="167.11" y="-144.8" font-family="Times,serif" font-size="14.00">recv state packet</text>
</g>
<!-- Primary&#45;&gt;Unknown -->
<g id="edge3" class="edge">
<title>Primary&#45;&gt;Unknown</title>
<path fill="none" stroke="black" d="M61.17,-89.54C48.83,-79.43 37.42,-65.69 46.61,-54 57.87,-39.67 100.78,-30.48 136.85,-25.13"/>
<polygon fill="black" stroke="black" points="137.4,-28.59 146.81,-23.72 136.42,-21.66 137.4,-28.59"/>
<text text-anchor="middle" x="89.61" y="-57.8" font-family="Times,serif" font-size="14.00">connection lost</text>
</g>
<!-- Unknown&#45;&gt;Secondary -->
<g id="edge6" class="edge">
<title>Unknown&#45;&gt;Secondary</title>
<path fill="none" stroke="black" d="M225.58,-29.87C271.95,-46.23 344.92,-79.91 317.61,-123 297.63,-154.53 258.66,-171.72 226.3,-180.92"/>
<polygon fill="black" stroke="black" points="225.26,-177.58 216.5,-183.53 227.06,-184.34 225.26,-177.58"/>
<text text-anchor="middle" x="351.61" y="-101.3" font-family="Times,serif" font-size="14.00">connected</text>
</g>
<!-- Unknown&#45;&gt;Primary -->
<g id="edge5" class="edge">
<title>Unknown&#45;&gt;Primary</title>
<path fill="none" stroke="black" d="M173.23,-34.79C161.91,-44.88 146.67,-58.06 132.61,-69 126.26,-73.94 119.28,-79.03 112.6,-83.74"/>
<polygon fill="black" stroke="black" points="110.57,-80.89 104.37,-89.48 114.57,-86.63 110.57,-80.89"/>
<text text-anchor="middle" x="178.61" y="-57.8" font-family="Times,serif" font-size="14.00">connected</text>
</g>
</g>
</svg>
