<?xml version="1.0" encoding="UTF-8" standalone="no"?>
<!DOCTYPE svg PUBLIC "-//W3C//DTD SVG 1.1//EN"
 "http://www.w3.org/Graphics/SVG/1.1/DTD/svg11.dtd">
<!-- Generated by graphviz version 2.43.0 (0)
 -->
<!-- Title: board Pages: 1 -->
<svg width="606pt" height="409pt"
 viewBox="0.00 0.00 606.00 409.00" xmlns="http://www.w3.org/2000/svg" xmlns:xlink="http://www.w3.org/1999/xlink">
<g id="graph0" class="graph" transform="scale(1 1) rotate(0) translate(4 405)">
<title>board</title>
<polygon fill="white" stroke="transparent" points="-4,4 -4,-405 602,-405 602,4 -4,4"/>
<!-- n00000001 -->
<g id="node1" class="node">
<title>n00000001</title>
<path fill="green" stroke="black" d="M102,-316.5C102,-316.5 188,-316.5 188,-316.5 194,-316.5 200,-322.5 200,-328.5 200,-328.5 200,-388.5 200,-388.5 200,-394.5 194,-400.5 188,-400.5 188,-400.5 102,-400.5 102,-400.5 96,-400.5 90,-394.5 90,-388.5 90,-388.5 90,-328.5 90,-328.5 90,-322.5 96,-316.5 102,-316.5"/>
<text text-anchor="middle" x="145" y="-385.3" font-family="Times,serif" font-size="14.00"> </text>
<polyline fill="none" stroke="black" points="90,-377.5 200,-377.5 "/>
<text text-anchor="middle" x="145" y="-362.3" font-family="Times,serif" font-size="14.00">Sensor A</text>
<text text-anchor="middle" x="145" y="-347.3" font-family="Times,serif" font-size="14.00">/dev/v4l&#45;subdev0</text>
<polyline fill="none" stroke="black" points="90,-339.5 200,-339.5 "/>
<text text-anchor="middle" x="145" y="-324.3" font-family="Times,serif" font-size="14.00">0</text>
</g>
<!-- n00000005 -->
<g id="node2" class="node">
<title>n00000005</title>
<path fill="green" stroke="black" d="M12,-195.5C12,-195.5 98,-195.5 98,-195.5 104,-195.5 110,-201.5 110,-207.5 110,-207.5 110,-267.5 110,-267.5 110,-273.5 104,-279.5 98,-279.5 98,-279.5 12,-279.5 12,-279.5 6,-279.5 0,-273.5 0,-267.5 0,-267.5 0,-207.5 0,-207.5 0,-201.5 6,-195.5 12,-195.5"/>
<text text-anchor="middle" x="55" y="-264.3" font-family="Times,serif" font-size="14.00">0</text>
<polyline fill="none" stroke="black" points="0,-256.5 110,-256.5 "/>
<text text-anchor="middle" x="55" y="-241.3" font-family="Times,serif" font-size="14.00">Debayer A</text>
<text text-anchor="middle" x="55" y="-226.3" font-family="Times,serif" font-size="14.00">/dev/v4l&#45;subdev2</text>
<polyline fill="none" stroke="black" points="0,-218.5 110,-218.5 "/>
<text text-anchor="middle" x="55" y="-203.3" font-family="Times,serif" font-size="14.00">1</text>
</g>
<!-- n00000001&#45;&gt;n00000005 -->
<g id="edge1" class="edge">
<title>n00000001:port0&#45;&gt;n00000005:port0</title>
<path fill="none" stroke="black" stroke-width="2" d="M89,-327.5C67.9,-327.5 107.03,-293.97 115.57,-277.46"/>
<polygon fill="black" stroke="black" stroke-width="2" points="118.66,-275.82 111,-268.5 112.42,-279 118.66,-275.82"/>
</g>
<!-- n0000000b -->
<g id="node3" class="node">
<title>n0000000b</title>
<polygon fill="yellow" stroke="black" points="226,-256.5 128,-256.5 128,-218.5 226,-218.5 226,-256.5"/>
<text text-anchor="middle" x="177" y="-241.3" font-family="Times,serif" font-size="14.00">Raw Capture 0</text>
<text text-anchor="middle" x="177" y="-226.3" font-family="Times,serif" font-size="14.00">/dev/video0</text>
</g>
<!-- n00000001&#45;&gt;n0000000b -->
<g id="edge2" class="edge">
<title>n00000001:port0&#45;&gt;n0000000b</title>
<path fill="none" stroke="black" stroke-width="2" d="M145,-316C145,-298.33 152.2,-279.99 159.76,-265.59"/>
<polygon fill="black" stroke="black" stroke-width="2" points="162.89,-267.17 164.72,-256.74 156.78,-263.75 162.89,-267.17"/>
</g>
<!-- n00000017 -->
<g id="node7" class="node">
<title>n00000017</title>
<path fill="green" stroke="black" d="M256,-74.5C256,-74.5 342,-74.5 342,-74.5 348,-74.5 354,-80.5 354,-86.5 354,-86.5 354,-146.5 354,-146.5 354,-152.5 348,-158.5 342,-158.5 342,-158.5 256,-158.5 256,-158.5 250,-158.5 244,-152.5 244,-146.5 244,-146.5 244,-86.5 244,-86.5 244,-80.5 250,-74.5 256,-74.5"/>
<text text-anchor="middle" x="299" y="-143.3" font-family="Times,serif" font-size="14.00">0</text>
<polyline fill="none" stroke="black" points="244,-135.5 354,-135.5 "/>
<text text-anchor="middle" x="299" y="-120.3" font-family="Times,serif" font-size="14.00">Scaler</text>
<text text-anchor="middle" x="299" y="-105.3" font-family="Times,serif" font-size="14.00">/dev/v4l&#45;subdev4</text>
<polyline fill="none" stroke="black" points="244,-97.5 354,-97.5 "/>
<text text-anchor="middle" x="299" y="-82.3" font-family="Times,serif" font-size="14.00">1</text>
</g>
<!-- n00000005&#45;&gt;n00000017 -->
<g id="edge5" class="edge">
<title>n00000005:port1&#45;&gt;n00000017:port0</title>
<path fill="none" stroke="black" d="M111,-206.5C117.23,-206.5 114.1,-198.84 119,-195 162.65,-160.81 181.64,-148.94 232.71,-147.63"/>
<polygon fill="black" stroke="black" points="233.04,-151.12 243,-147.5 232.96,-144.12 233.04,-151.12"/>
</g>
<!-- n00000003 -->
<g id="node4" class="node">
<title>n00000003</title>
<path fill="green" stroke="black" d="M288,-316.5C288,-316.5 374,-316.5 374,-316.5 380,-316.5 386,-322.5 386,-328.5 386,-328.5 386,-388.5 386,-388.5 386,-394.5 380,-400.5 374,-400.5 374,-400.5 288,-400.5 288,-400.5 282,-400.5 276,-394.5 276,-388.5 276,-388.5 276,-328.5 276,-328.5 276,-322.5 282,-316.5 288,-316.5"/>
<text text-anchor="middle" x="331" y="-385.3" font-family="Times,serif" font-size="14.00"> </text>
<polyline fill="none" stroke="black" points="276,-377.5 386,-377.5 "/>
<text text-anchor="middle" x="331" y="-362.3" font-family="Times,serif" font-size="14.00">Sensor B</text>
<text text-anchor="middle" x="331" y="-347.3" font-family="Times,serif" font-size="14.00">/dev/v4l&#45;subdev1</text>
<polyline fill="none" stroke="black" points="276,-339.5 386,-339.5 "/>
<text text-anchor="middle" x="331" y="-324.3" font-family="Times,serif" font-size="14.00">0</text>
</g>
<!-- n00000008 -->
<g id="node5" class="node">
<title>n00000008</title>
<path fill="green" stroke="black" d="M256,-195.5C256,-195.5 342,-195.5 342,-195.5 348,-195.5 354,-201.5 354,-207.5 354,-207.5 354,-267.5 354,-267.5 354,-273.5 348,-279.5 342,-279.5 342,-279.5 256,-279.5 256,-279.5 250,-279.5 244,-273.5 244,-267.5 244,-267.5 244,-207.5 244,-207.5 244,-201.5 250,-195.5 256,-195.5"/>
<text text-anchor="middle" x="299" y="-264.3" font-family="Times,serif" font-size="14.00">0</text>
<polyline fill="none" stroke="black" points="244,-256.5 354,-256.5 "/>
<text text-anchor="middle" x="299" y="-241.3" font-family="Times,serif" font-size="14.00">Debayer B</text>
<text text-anchor="middle" x="299" y="-226.3" font-family="Times,serif" font-size="14.00">/dev/v4l&#45;subdev3</text>
<polyline fill="none" stroke="black" points="244,-218.5 354,-218.5 "/>
<text text-anchor="middle" x="299" y="-203.3" font-family="Times,serif" font-size="14.00">1</text>
</g>
<!-- n00000003&#45;&gt;n00000008 -->
<g id="edge3" class="edge">
<title>n00000003:port0&#45;&gt;n00000008:port0</title>
<path fill="none" stroke="black" stroke-width="2" d="M331,-316C331,-298.77 310.28,-299.82 302.19,-289.73"/>
<polygon fill="black" stroke="black" stroke-width="2" points="305.44,-288.42 299,-280 298.78,-290.59 305.44,-288.42"/>
</g>
<!-- n0000000f -->
<g id="node6" class="node">
<title>n0000000f</title>
<polygon fill="yellow" stroke="black" points="470,-256.5 372,-256.5 372,-218.5 470,-218.5 470,-256.5"/>
<text text-anchor="middle" x="421" y="-241.3" font-family="Times,serif" font-size="14.00">Raw Capture 1</text>
<text text-anchor="middle" x="421" y="-226.3" font-family="Times,serif" font-size="14.00">/dev/video1</text>
</g>
<!-- n00000003&#45;&gt;n0000000f -->
<g id="edge4" class="edge">
<title>n00000003:port0&#45;&gt;n0000000f</title>
<path fill="none" stroke="black" stroke-width="2" d="M387,-327.5C413.46,-327.5 420.13,-292.75 421.41,-266.68"/>
<polygon fill="black" stroke="black" stroke-width="2" points="424.91,-266.6 421.67,-256.51 417.91,-266.42 424.91,-266.6"/>
</g>
<!-- n00000008&#45;&gt;n00000017 -->
<g id="edge6" class="edge">
<title>n00000008:port1&#45;&gt;n00000017:port0</title>
<path fill="none" stroke="black" stroke-dasharray="5,2" d="M299,-195C299,-183 299,-177.75 299,-169.12"/>
<polygon fill="black" stroke="black" points="302.5,-169 299,-159 295.5,-169 302.5,-169"/>
</g>
<!-- n0000001a -->
<g id="node9" class="node">
<title>n0000001a</title>
<polygon fill="yellow" stroke="black" points="361.5,-38 236.5,-38 236.5,0 361.5,0 361.5,-38"/>
<text text-anchor="middle" x="299" y="-22.8" font-family="Times,serif" font-size="14.00">RGB/YUV Capture</text>
<text text-anchor="middle" x="299" y="-7.8" font-family="Times,serif" font-size="14.00">/dev/video3</text>
</g>
<!-- n00000017&#45;&gt;n0000001a -->
<g id="edge8" class="edge">
<title>n00000017:port1&#45;&gt;n0000001a</title>
<path fill="none" stroke="black" stroke-width="2" d="M299,-74C299,-65.79 299,-56.87 299,-48.69"/>
<polygon fill="black" stroke="black" stroke-width="2" points="302.5,-48.49 299,-38.49 295.5,-48.49 302.5,-48.49"/>
</g>
<!-- n00000013 -->
<g id="node8" class="node">
<title>n00000013</title>
<polygon fill="yellow" stroke="black" points="598,-256.5 488,-256.5 488,-218.5 598,-218.5 598,-256.5"/>
<text text-anchor="middle" x="543" y="-241.3" font-family="Times,serif" font-size="14.00">RGB/YUV Input</text>
<text text-anchor="middle" x="543" y="-226.3" font-family="Times,serif" font-size="14.00">/dev/video2</text>
</g>
<!-- n00000013&#45;&gt;n00000017 -->
<g id="edge7" class="edge">
<title>n00000013&#45;&gt;n00000017:port0</title>
<path fill="none" stroke="black" stroke-dasharray="5,2" d="M521.43,-218.49C489.71,-193.8 427.47,-152.02 365.02,-147.84"/>
<polygon fill="black" stroke="black" points="365.11,-144.34 355,-147.5 364.88,-151.34 365.11,-144.34"/>
</g>
</g>
</svg>
