<?xml version="1.0" encoding="UTF-8" standalone="no"?>
<!DOCTYPE svg PUBLIC "-//W3C//DTD SVG 1.1//EN"
 "http://www.w3.org/Graphics/SVG/1.1/DTD/svg11.dtd">
<!-- Generated by graphviz version 2.43.0 (0)
 -->
<!-- Title: board Pages: 1 -->
<svg width="912pt" height="893pt"
 viewBox="0.00 0.00 911.87 893.00" xmlns="http://www.w3.org/2000/svg" xmlns:xlink="http://www.w3.org/1999/xlink">
<g id="graph0" class="graph" transform="scale(1 1) rotate(0) translate(4 889)">
<title>board</title>
<polygon fill="white" stroke="transparent" points="-4,4 -4,-889 907.87,-889 907.87,4 -4,4"/>
<!-- n00000001 -->
<g id="node1" class="node">
<title>n00000001</title>
<path fill="green" stroke="black" d="M95.37,-437.5C95.37,-437.5 181.37,-437.5 181.37,-437.5 187.37,-437.5 193.37,-443.5 193.37,-449.5 193.37,-449.5 193.37,-509.5 193.37,-509.5 193.37,-515.5 187.37,-521.5 181.37,-521.5 181.37,-521.5 95.37,-521.5 95.37,-521.5 89.37,-521.5 83.37,-515.5 83.37,-509.5 83.37,-509.5 83.37,-449.5 83.37,-449.5 83.37,-443.5 89.37,-437.5 95.37,-437.5"/>
<text text-anchor="middle" x="138.37" y="-506.3" font-family="Times,serif" font-size="14.00">0</text>
<polyline fill="none" stroke="black" points="83.37,-498.5 193.37,-498.5 "/>
<text text-anchor="middle" x="138.37" y="-483.3" font-family="Times,serif" font-size="14.00">ipu1_csi0</text>
<text text-anchor="middle" x="138.37" y="-468.3" font-family="Times,serif" font-size="14.00">/dev/v4l&#45;subdev0</text>
<polyline fill="none" stroke="black" points="83.37,-460.5 193.37,-460.5 "/>
<text text-anchor="middle" x="110.87" y="-445.3" font-family="Times,serif" font-size="14.00">1</text>
<polyline fill="none" stroke="black" points="138.37,-437.5 138.37,-460.5 "/>
<text text-anchor="middle" x="165.87" y="-445.3" font-family="Times,serif" font-size="14.00">2</text>
</g>
<!-- n00000005 -->
<g id="node2" class="node">
<title>n00000005</title>
<polygon fill="yellow" stroke="black" points="137.87,-377.5 24.87,-377.5 24.87,-339.5 137.87,-339.5 137.87,-377.5"/>
<text text-anchor="middle" x="81.37" y="-362.3" font-family="Times,serif" font-size="14.00">ipu1_csi0 capture</text>
<text text-anchor="middle" x="81.37" y="-347.3" font-family="Times,serif" font-size="14.00">/dev/video0</text>
</g>
<!-- n00000001&#45;&gt;n00000005 -->
<g id="edge1" class="edge">
<title>n00000001:port2&#45;&gt;n00000005</title>
<path fill="none" stroke="black" stroke-dasharray="5,2" d="M166.37,-437C166.37,-422.86 140.36,-400.65 117.11,-383.62"/>
<polygon fill="black" stroke="black" points="118.9,-380.59 108.73,-377.61 114.82,-386.28 118.9,-380.59"/>
</g>
<!-- n0000000f -->
<g id="node3" class="node">
<title>n0000000f</title>
<path fill="green" stroke="black" d="M168.37,-195.5C168.37,-195.5 254.37,-195.5 254.37,-195.5 260.37,-195.5 266.37,-201.5 266.37,-207.5 266.37,-207.5 266.37,-267.5 266.37,-267.5 266.37,-273.5 260.37,-279.5 254.37,-279.5 254.37,-279.5 168.37,-279.5 168.37,-279.5 162.37,-279.5 156.37,-273.5 156.37,-267.5 156.37,-267.5 156.37,-207.5 156.37,-207.5 156.37,-201.5 162.37,-195.5 168.37,-195.5"/>
<text text-anchor="middle" x="211.37" y="-264.3" font-family="Times,serif" font-size="14.00">0</text>
<polyline fill="none" stroke="black" points="156.37,-256.5 266.37,-256.5 "/>
<text text-anchor="middle" x="211.37" y="-241.3" font-family="Times,serif" font-size="14.00">ipu1_ic_prp</text>
<text text-anchor="middle" x="211.37" y="-226.3" font-family="Times,serif" font-size="14.00">/dev/v4l&#45;subdev2</text>
<polyline fill="none" stroke="black" points="156.37,-218.5 266.37,-218.5 "/>
<text text-anchor="middle" x="183.87" y="-203.3" font-family="Times,serif" font-size="14.00">1</text>
<polyline fill="none" stroke="black" points="211.37,-195.5 211.37,-218.5 "/>
<text text-anchor="middle" x="238.87" y="-203.3" font-family="Times,serif" font-size="14.00">2</text>
</g>
<!-- n00000001&#45;&gt;n0000000f -->
<g id="edge2" class="edge">
<title>n00000001:port1&#45;&gt;n0000000f:port0</title>
<path fill="none" stroke="black" stroke-dasharray="5,2" d="M82.37,-448.5C16.38,-448.5 -23.07,-369.64 15.37,-316 32.79,-291.7 107.26,-272.28 145.27,-268.99"/>
<polygon fill="black" stroke="black" points="145.55,-272.48 155.37,-268.5 145.21,-265.49 145.55,-272.48"/>
</g>
<!-- n0000000b -->
<g id="node4" class="node">
<title>n0000000b</title>
<path fill="green" stroke="black" d="M168.37,-316.5C168.37,-316.5 254.37,-316.5 254.37,-316.5 260.37,-316.5 266.37,-322.5 266.37,-328.5 266.37,-328.5 266.37,-388.5 266.37,-388.5 266.37,-394.5 260.37,-400.5 254.37,-400.5 254.37,-400.5 168.37,-400.5 168.37,-400.5 162.37,-400.5 156.37,-394.5 156.37,-388.5 156.37,-388.5 156.37,-328.5 156.37,-328.5 156.37,-322.5 162.37,-316.5 168.37,-316.5"/>
<text text-anchor="middle" x="183.87" y="-385.3" font-family="Times,serif" font-size="14.00">0</text>
<polyline fill="none" stroke="black" points="211.37,-377.5 211.37,-400.5 "/>
<text text-anchor="middle" x="238.87" y="-385.3" font-family="Times,serif" font-size="14.00">1</text>
<polyline fill="none" stroke="black" points="156.37,-377.5 266.37,-377.5 "/>
<text text-anchor="middle" x="211.37" y="-362.3" font-family="Times,serif" font-size="14.00">ipu1_vdic</text>
<text text-anchor="middle" x="211.37" y="-347.3" font-family="Times,serif" font-size="14.00">/dev/v4l&#45;subdev1</text>
<polyline fill="none" stroke="black" points="156.37,-339.5 266.37,-339.5 "/>
<text text-anchor="middle" x="211.37" y="-324.3" font-family="Times,serif" font-size="14.00">2</text>
</g>
<!-- n00000001&#45;&gt;n0000000b -->
<g id="edge3" class="edge">
<title>n00000001:port1&#45;&gt;n0000000b:port0</title>
<path fill="none" stroke="black" stroke-dasharray="5,2" d="M110.37,-437C110.37,-404.92 167.76,-429.87 180.77,-410.71"/>
<polygon fill="black" stroke="black" points="184.16,-411.56 183.37,-401 177.4,-409.76 184.16,-411.56"/>
</g>
<!-- n00000013 -->
<g id="node5" class="node">
<title>n00000013</title>
<path fill="green" stroke="black" d="M96.37,-74.5C96.37,-74.5 182.37,-74.5 182.37,-74.5 188.37,-74.5 194.37,-80.5 194.37,-86.5 194.37,-86.5 194.37,-146.5 194.37,-146.5 194.37,-152.5 188.37,-158.5 182.37,-158.5 182.37,-158.5 96.37,-158.5 96.37,-158.5 90.37,-158.5 84.37,-152.5 84.37,-146.5 84.37,-146.5 84.37,-86.5 84.37,-86.5 84.37,-80.5 90.37,-74.5 96.37,-74.5"/>
<text text-anchor="middle" x="139.37" y="-143.3" font-family="Times,serif" font-size="14.00">0</text>
<polyline fill="none" stroke="black" points="84.37,-135.5 194.37,-135.5 "/>
<text text-anchor="middle" x="139.37" y="-120.3" font-family="Times,serif" font-size="14.00">ipu1_ic_prpenc</text>
<text text-anchor="middle" x="139.37" y="-105.3" font-family="Times,serif" font-size="14.00">/dev/v4l&#45;subdev3</text>
<polyline fill="none" stroke="black" points="84.37,-97.5 194.37,-97.5 "/>
<text text-anchor="middle" x="139.37" y="-82.3" font-family="Times,serif" font-size="14.00">1</text>
</g>
<!-- n0000000f&#45;&gt;n00000013 -->
<g id="edge5" class="edge">
<title>n0000000f:port1&#45;&gt;n00000013:port0</title>
<path fill="none" stroke="black" stroke-dasharray="5,2" d="M183.37,-195C183.37,-180.54 198.26,-164.34 201.89,-155.08"/>
<polygon fill="black" stroke="black" points="204.54,-152.8 195.37,-147.5 199.23,-157.36 204.54,-152.8"/>
</g>
<!-- n0000001c -->
<g id="node6" class="node">
<title>n0000001c</title>
<path fill="green" stroke="black" d="M232.37,-74.5C232.37,-74.5 318.37,-74.5 318.37,-74.5 324.37,-74.5 330.37,-80.5 330.37,-86.5 330.37,-86.5 330.37,-146.5 330.37,-146.5 330.37,-152.5 324.37,-158.5 318.37,-158.5 318.37,-158.5 232.37,-158.5 232.37,-158.5 226.37,-158.5 220.37,-152.5 220.37,-146.5 220.37,-146.5 220.37,-86.5 220.37,-86.5 220.37,-80.5 226.37,-74.5 232.37,-74.5"/>
<text text-anchor="middle" x="275.37" y="-143.3" font-family="Times,serif" font-size="14.00">0</text>
<polyline fill="none" stroke="black" points="220.37,-135.5 330.37,-135.5 "/>
<text text-anchor="middle" x="275.37" y="-120.3" font-family="Times,serif" font-size="14.00">ipu1_ic_prpvf</text>
<text text-anchor="middle" x="275.37" y="-105.3" font-family="Times,serif" font-size="14.00">/dev/v4l&#45;subdev4</text>
<polyline fill="none" stroke="black" points="220.37,-97.5 330.37,-97.5 "/>
<text text-anchor="middle" x="275.37" y="-82.3" font-family="Times,serif" font-size="14.00">1</text>
</g>
<!-- n0000000f&#45;&gt;n0000001c -->
<g id="edge6" class="edge">
<title>n0000000f:port2&#45;&gt;n0000001c:port0</title>
<path fill="none" stroke="black" stroke-dasharray="5,2" d="M239.37,-195C239.37,-181.04 223.43,-166.46 216.17,-157.19"/>
<polygon fill="black" stroke="black" points="219.56,-158.09 219.37,-147.5 212.91,-155.9 219.56,-158.09"/>
</g>
<!-- n0000000b&#45;&gt;n0000000f -->
<g id="edge4" class="edge">
<title>n0000000b:port2&#45;&gt;n0000000f:port0</title>
<path fill="none" stroke="black" stroke-dasharray="5,2" d="M211.37,-316C211.37,-304 211.37,-298.75 211.37,-290.12"/>
<polygon fill="black" stroke="black" points="214.87,-290 211.37,-280 207.87,-290 214.87,-290"/>
</g>
<!-- n00000016 -->
<g id="node7" class="node">
<title>n00000016</title>
<polygon fill="yellow" stroke="black" points="196.37,-38 52.37,-38 52.37,0 196.37,0 196.37,-38"/>
<text text-anchor="middle" x="124.37" y="-22.8" font-family="Times,serif" font-size="14.00">ipu1_ic_prpenc capture</text>
<text text-anchor="middle" x="124.37" y="-7.8" font-family="Times,serif" font-size="14.00">/dev/video1</text>
</g>
<!-- n00000013&#45;&gt;n00000016 -->
<g id="edge7" class="edge">
<title>n00000013:port1&#45;&gt;n00000016</title>
<path fill="none" stroke="black" stroke-dasharray="5,2" d="M139.37,-74C139.37,-65.28 137.53,-56.06 135.14,-47.74"/>
<polygon fill="black" stroke="black" points="138.45,-46.59 132.04,-38.15 131.79,-48.74 138.45,-46.59"/>
</g>
<!-- n0000001f -->
<g id="node8" class="node">
<title>n0000001f</title>
<polygon fill="yellow" stroke="black" points="351.87,-38 214.87,-38 214.87,0 351.87,0 351.87,-38"/>
<text text-anchor="middle" x="283.37" y="-22.8" font-family="Times,serif" font-size="14.00">ipu1_ic_prpvf capture</text>
<text text-anchor="middle" x="283.37" y="-7.8" font-family="Times,serif" font-size="14.00">/dev/video2</text>
</g>
<!-- n0000001c&#45;&gt;n0000001f -->
<g id="edge8" class="edge">
<title>n0000001c:port1&#45;&gt;n0000001f</title>
<path fill="none" stroke="black" stroke-dasharray="5,2" d="M275.37,-74C275.37,-65.6 276.32,-56.55 277.58,-48.3"/>
<polygon fill="black" stroke="black" points="281.04,-48.84 279.27,-38.39 274.14,-47.66 281.04,-48.84"/>
</g>
<!-- n0000002f -->
<g id="node9" class="node">
<title>n0000002f</title>
<path fill="green" stroke="black" d="M293.37,-437.5C293.37,-437.5 379.37,-437.5 379.37,-437.5 385.37,-437.5 391.37,-443.5 391.37,-449.5 391.37,-449.5 391.37,-509.5 391.37,-509.5 391.37,-515.5 385.37,-521.5 379.37,-521.5 379.37,-521.5 293.37,-521.5 293.37,-521.5 287.37,-521.5 281.37,-515.5 281.37,-509.5 281.37,-509.5 281.37,-449.5 281.37,-449.5 281.37,-443.5 287.37,-437.5 293.37,-437.5"/>
<text text-anchor="middle" x="336.37" y="-506.3" font-family="Times,serif" font-size="14.00">0</text>
<polyline fill="none" stroke="black" points="281.37,-498.5 391.37,-498.5 "/>
<text text-anchor="middle" x="336.37" y="-483.3" font-family="Times,serif" font-size="14.00">ipu1_csi1</text>
<text text-anchor="middle" x="336.37" y="-468.3" font-family="Times,serif" font-size="14.00">/dev/v4l&#45;subdev5</text>
<polyline fill="none" stroke="black" points="281.37,-460.5 391.37,-460.5 "/>
<text text-anchor="middle" x="308.87" y="-445.3" font-family="Times,serif" font-size="14.00">1</text>
<polyline fill="none" stroke="black" points="336.37,-437.5 336.37,-460.5 "/>
<text text-anchor="middle" x="363.87" y="-445.3" font-family="Times,serif" font-size="14.00">2</text>
</g>
<!-- n0000002f&#45;&gt;n0000000f -->
<g id="edge10" class="edge">
<title>n0000002f:port1&#45;&gt;n0000000f:port0</title>
<path fill="none" stroke="black" stroke-dasharray="5,2" d="M308.37,-437C308.37,-402.08 306.34,-292.06 277.28,-271.74"/>
<polygon fill="black" stroke="black" points="277.96,-268.28 267.37,-268.5 275.78,-274.94 277.96,-268.28"/>
</g>
<!-- n0000002f&#45;&gt;n0000000b -->
<g id="edge11" class="edge">
<title>n0000002f:port1&#45;&gt;n0000000b:port0</title>
<path fill="none" stroke="black" stroke-dasharray="5,2" d="M280.37,-448.5C259.55,-448.5 201.89,-430.83 186.94,-410.48"/>
<polygon fill="black" stroke="black" points="190.17,-409.12 183.37,-401 183.62,-411.59 190.17,-409.12"/>
</g>
<!-- n00000033 -->
<g id="node10" class="node">
<title>n00000033</title>
<polygon fill="yellow" stroke="black" points="435.87,-377.5 322.87,-377.5 322.87,-339.5 435.87,-339.5 435.87,-377.5"/>
<text text-anchor="middle" x="379.37" y="-362.3" font-family="Times,serif" font-size="14.00">ipu1_csi1 capture</text>
<text text-anchor="middle" x="379.37" y="-347.3" font-family="Times,serif" font-size="14.00">/dev/video3</text>
</g>
<!-- n0000002f&#45;&gt;n00000033 -->
<g id="edge9" class="edge">
<title>n0000002f:port2&#45;&gt;n00000033</title>
<path fill="none" stroke="black" stroke-dasharray="5,2" d="M364.37,-437C364.37,-420.46 367.7,-402.29 371.23,-387.7"/>
<polygon fill="black" stroke="black" points="374.67,-388.34 373.78,-377.78 367.9,-386.59 374.67,-388.34"/>
</g>
<!-- n0000003d -->
<g id="node11" class="node">
<title>n0000003d</title>
<path fill="green" stroke="black" d="M463.37,-437.5C463.37,-437.5 549.37,-437.5 549.37,-437.5 555.37,-437.5 561.37,-443.5 561.37,-449.5 561.37,-449.5 561.37,-509.5 561.37,-509.5 561.37,-515.5 555.37,-521.5 549.37,-521.5 549.37,-521.5 463.37,-521.5 463.37,-521.5 457.37,-521.5 451.37,-515.5 451.37,-509.5 451.37,-509.5 451.37,-449.5 451.37,-449.5 451.37,-443.5 457.37,-437.5 463.37,-437.5"/>
<text text-anchor="middle" x="506.37" y="-506.3" font-family="Times,serif" font-size="14.00">0</text>
<polyline fill="none" stroke="black" points="451.37,-498.5 561.37,-498.5 "/>
<text text-anchor="middle" x="506.37" y="-483.3" font-family="Times,serif" font-size="14.00">ipu2_csi0</text>
<text text-anchor="middle" x="506.37" y="-468.3" font-family="Times,serif" font-size="14.00">/dev/v4l&#45;subdev6</text>
<polyline fill="none" stroke="black" points="451.37,-460.5 561.37,-460.5 "/>
<text text-anchor="middle" x="478.87" y="-445.3" font-family="Times,serif" font-size="14.00">1</text>
<polyline fill="none" stroke="black" points="506.37,-437.5 506.37,-460.5 "/>
<text text-anchor="middle" x="533.87" y="-445.3" font-family="Times,serif" font-size="14.00">2</text>
</g>
<!-- n00000041 -->
<g id="node12" class="node">
<title>n00000041</title>
<polygon fill="yellow" stroke="black" points="605.87,-377.5 492.87,-377.5 492.87,-339.5 605.87,-339.5 605.87,-377.5"/>
<text text-anchor="middle" x="549.37" y="-362.3" font-family="Times,serif" font-size="14.00">ipu2_csi0 capture</text>
<text text-anchor="middle" x="549.37" y="-347.3" font-family="Times,serif" font-size="14.00">/dev/video4</text>
</g>
<!-- n0000003d&#45;&gt;n00000041 -->
<g id="edge12" class="edge">
<title>n0000003d:port2&#45;&gt;n00000041</title>
<path fill="none" stroke="black" stroke-dasharray="5,2" d="M534.37,-437C534.37,-420.46 537.7,-402.29 541.23,-387.7"/>
<polygon fill="black" stroke="black" points="544.67,-388.34 543.78,-377.78 537.9,-386.59 544.67,-388.34"/>
</g>
<!-- n0000004b -->
<g id="node13" class="node">
<title>n0000004b</title>
<path fill="green" stroke="black" d="M636.37,-195.5C636.37,-195.5 722.37,-195.5 722.37,-195.5 728.37,-195.5 734.37,-201.5 734.37,-207.5 734.37,-207.5 734.37,-267.5 734.37,-267.5 734.37,-273.5 728.37,-279.5 722.37,-279.5 722.37,-279.5 636.37,-279.5 636.37,-279.5 630.37,-279.5 624.37,-273.5 624.37,-267.5 624.37,-267.5 624.37,-207.5 624.37,-207.5 624.37,-201.5 630.37,-195.5 636.37,-195.5"/>
<text text-anchor="middle" x="679.37" y="-264.3" font-family="Times,serif" font-size="14.00">0</text>
<polyline fill="none" stroke="black" points="624.37,-256.5 734.37,-256.5 "/>
<text text-anchor="middle" x="679.37" y="-241.3" font-family="Times,serif" font-size="14.00">ipu2_ic_prp</text>
<text text-anchor="middle" x="679.37" y="-226.3" font-family="Times,serif" font-size="14.00">/dev/v4l&#45;subdev8</text>
<polyline fill="none" stroke="black" points="624.37,-218.5 734.37,-218.5 "/>
<text text-anchor="middle" x="651.87" y="-203.3" font-family="Times,serif" font-size="14.00">1</text>
<polyline fill="none" stroke="black" points="679.37,-195.5 679.37,-218.5 "/>
<text text-anchor="middle" x="706.87" y="-203.3" font-family="Times,serif" font-size="14.00">2</text>
</g>
<!-- n0000003d&#45;&gt;n0000004b -->
<g id="edge13" class="edge">
<title>n0000003d:port1&#45;&gt;n0000004b:port0</title>
<path fill="none" stroke="black" stroke-dasharray="5,2" d="M478.37,-437C478.37,-383.16 451.97,-359.01 484.37,-316 502.24,-292.27 575.68,-272.39 613.35,-269.01"/>
<polygon fill="black" stroke="black" points="613.56,-272.5 623.37,-268.5 613.2,-265.51 613.56,-272.5"/>
</g>
<!-- n00000047 -->
<g id="node14" class="node">
<title>n00000047</title>
<path fill="green" stroke="black" d="M636.37,-316.5C636.37,-316.5 722.37,-316.5 722.37,-316.5 728.37,-316.5 734.37,-322.5 734.37,-328.5 734.37,-328.5 734.37,-388.5 734.37,-388.5 734.37,-394.5 728.37,-400.5 722.37,-400.5 722.37,-400.5 636.37,-400.5 636.37,-400.5 630.37,-400.5 624.37,-394.5 624.37,-388.5 624.37,-388.5 624.37,-328.5 624.37,-328.5 624.37,-322.5 630.37,-316.5 636.37,-316.5"/>
<text text-anchor="middle" x="651.87" y="-385.3" font-family="Times,serif" font-size="14.00">0</text>
<polyline fill="none" stroke="black" points="679.37,-377.5 679.37,-400.5 "/>
<text text-anchor="middle" x="706.87" y="-385.3" font-family="Times,serif" font-size="14.00">1</text>
<polyline fill="none" stroke="black" points="624.37,-377.5 734.37,-377.5 "/>
<text text-anchor="middle" x="679.37" y="-362.3" font-family="Times,serif" font-size="14.00">ipu2_vdic</text>
<text text-anchor="middle" x="679.37" y="-347.3" font-family="Times,serif" font-size="14.00">/dev/v4l&#45;subdev7</text>
<polyline fill="none" stroke="black" points="624.37,-339.5 734.37,-339.5 "/>
<text text-anchor="middle" x="679.37" y="-324.3" font-family="Times,serif" font-size="14.00">2</text>
</g>
<!-- n0000003d&#45;&gt;n00000047 -->
<g id="edge14" class="edge">
<title>n0000003d:port1&#45;&gt;n00000047:port0</title>
<path fill="none" stroke="black" stroke-dasharray="5,2" d="M478.37,-437C478.37,-374.04 563.76,-437.06 615.37,-401 616.48,-400.22 617.2,-399.23 617.69,-398.16"/>
<polygon fill="black" stroke="black" points="620.82,-399.78 623.37,-389.5 614.96,-395.95 620.82,-399.78"/>
</g>
<!-- n0000004f -->
<g id="node15" class="node">
<title>n0000004f</title>
<path fill="green" stroke="black" d="M564.37,-74.5C564.37,-74.5 650.37,-74.5 650.37,-74.5 656.37,-74.5 662.37,-80.5 662.37,-86.5 662.37,-86.5 662.37,-146.5 662.37,-146.5 662.37,-152.5 656.37,-158.5 650.37,-158.5 650.37,-158.5 564.37,-158.5 564.37,-158.5 558.37,-158.5 552.37,-152.5 552.37,-146.5 552.37,-146.5 552.37,-86.5 552.37,-86.5 552.37,-80.5 558.37,-74.5 564.37,-74.5"/>
<text text-anchor="middle" x="607.37" y="-143.3" font-family="Times,serif" font-size="14.00">0</text>
<polyline fill="none" stroke="black" points="552.37,-135.5 662.37,-135.5 "/>
<text text-anchor="middle" x="607.37" y="-120.3" font-family="Times,serif" font-size="14.00">ipu2_ic_prpenc</text>
<text text-anchor="middle" x="607.37" y="-105.3" font-family="Times,serif" font-size="14.00">/dev/v4l&#45;subdev9</text>
<polyline fill="none" stroke="black" points="552.37,-97.5 662.37,-97.5 "/>
<text text-anchor="middle" x="607.37" y="-82.3" font-family="Times,serif" font-size="14.00">1</text>
</g>
<!-- n0000004b&#45;&gt;n0000004f -->
<g id="edge16" class="edge">
<title>n0000004b:port1&#45;&gt;n0000004f:port0</title>
<path fill="none" stroke="black" stroke-dasharray="5,2" d="M651.37,-195C651.37,-180.54 666.26,-164.34 669.89,-155.08"/>
<polygon fill="black" stroke="black" points="672.54,-152.8 663.37,-147.5 667.23,-157.36 672.54,-152.8"/>
</g>
<!-- n00000058 -->
<g id="node16" class="node">
<title>n00000058</title>
<path fill="green" stroke="black" d="M705.87,-74.5C705.87,-74.5 798.87,-74.5 798.87,-74.5 804.87,-74.5 810.87,-80.5 810.87,-86.5 810.87,-86.5 810.87,-146.5 810.87,-146.5 810.87,-152.5 804.87,-158.5 798.87,-158.5 798.87,-158.5 705.87,-158.5 705.87,-158.5 699.87,-158.5 693.87,-152.5 693.87,-146.5 693.87,-146.5 693.87,-86.5 693.87,-86.5 693.87,-80.5 699.87,-74.5 705.87,-74.5"/>
<text text-anchor="middle" x="752.37" y="-143.3" font-family="Times,serif" font-size="14.00">0</text>
<polyline fill="none" stroke="black" points="693.87,-135.5 810.87,-135.5 "/>
<text text-anchor="middle" x="752.37" y="-120.3" font-family="Times,serif" font-size="14.00">ipu2_ic_prpvf</text>
<text text-anchor="middle" x="752.37" y="-105.3" font-family="Times,serif" font-size="14.00">/dev/v4l&#45;subdev10</text>
<polyline fill="none" stroke="black" points="693.87,-97.5 810.87,-97.5 "/>
<text text-anchor="middle" x="752.37" y="-82.3" font-family="Times,serif" font-size="14.00">1</text>
</g>
<!-- n0000004b&#45;&gt;n00000058 -->
<g id="edge17" class="edge">
<title>n0000004b:port2&#45;&gt;n00000058:port0</title>
<path fill="none" stroke="black" stroke-dasharray="5,2" d="M707.37,-195C707.37,-180.82 692.12,-165.31 686.99,-156"/>
<polygon fill="black" stroke="black" points="689.98,-157.82 692.37,-147.5 684.06,-154.08 689.98,-157.82"/>
</g>
<!-- n00000047&#45;&gt;n0000004b -->
<g id="edge15" class="edge">
<title>n00000047:port2&#45;&gt;n0000004b:port0</title>
<path fill="none" stroke="black" stroke-dasharray="5,2" d="M679.37,-316C679.37,-304 679.37,-298.75 679.37,-290.12"/>
<polygon fill="black" stroke="black" points="682.87,-290 679.37,-280 675.87,-290 682.87,-290"/>
</g>
<!-- n00000052 -->
<g id="node17" class="node">
<title>n00000052</title>
<polygon fill="yellow" stroke="black" points="672.37,-38 528.37,-38 528.37,0 672.37,0 672.37,-38"/>
<text text-anchor="middle" x="600.37" y="-22.8" font-family="Times,serif" font-size="14.00">ipu2_ic_prpenc capture</text>
<text text-anchor="middle" x="600.37" y="-7.8" font-family="Times,serif" font-size="14.00">/dev/video5</text>
</g>
<!-- n0000004f&#45;&gt;n00000052 -->
<g id="edge18" class="edge">
<title>n0000004f:port1&#45;&gt;n00000052</title>
<path fill="none" stroke="black" stroke-dasharray="5,2" d="M607.37,-74C607.37,-65.62 606.53,-56.58 605.43,-48.33"/>
<polygon fill="black" stroke="black" points="608.89,-47.79 603.95,-38.42 601.97,-48.83 608.89,-47.79"/>
</g>
<!-- n0000005b -->
<g id="node18" class="node">
<title>n0000005b</title>
<polygon fill="yellow" stroke="black" points="827.87,-38 690.87,-38 690.87,0 827.87,0 827.87,-38"/>
<text text-anchor="middle" x="759.37" y="-22.8" font-family="Times,serif" font-size="14.00">ipu2_ic_prpvf capture</text>
<text text-anchor="middle" x="759.37" y="-7.8" font-family="Times,serif" font-size="14.00">/dev/video6</text>
</g>
<!-- n00000058&#45;&gt;n0000005b -->
<g id="edge19" class="edge">
<title>n00000058:port1&#45;&gt;n0000005b</title>
<path fill="none" stroke="black" stroke-dasharray="5,2" d="M752.37,-74C752.37,-65.62 753.2,-56.58 754.3,-48.33"/>
<polygon fill="black" stroke="black" points="757.77,-48.83 755.78,-38.42 750.84,-47.79 757.77,-48.83"/>
</g>
<!-- n0000006b -->
<g id="node19" class="node">
<title>n0000006b</title>
<path fill="green" stroke="black" d="M689.87,-437.5C689.87,-437.5 782.87,-437.5 782.87,-437.5 788.87,-437.5 794.87,-443.5 794.87,-449.5 794.87,-449.5 794.87,-509.5 794.87,-509.5 794.87,-515.5 788.87,-521.5 782.87,-521.5 782.87,-521.5 689.87,-521.5 689.87,-521.5 683.87,-521.5 677.87,-515.5 677.87,-509.5 677.87,-509.5 677.87,-449.5 677.87,-449.5 677.87,-443.5 683.87,-437.5 689.87,-437.5"/>
<text text-anchor="middle" x="736.37" y="-506.3" font-family="Times,serif" font-size="14.00">0</text>
<polyline fill="none" stroke="black" points="677.87,-498.5 794.87,-498.5 "/>
<text text-anchor="middle" x="736.37" y="-483.3" font-family="Times,serif" font-size="14.00">ipu2_csi1</text>
<text text-anchor="middle" x="736.37" y="-468.3" font-family="Times,serif" font-size="14.00">/dev/v4l&#45;subdev11</text>
<polyline fill="none" stroke="black" points="677.87,-460.5 794.87,-460.5 "/>
<text text-anchor="middle" x="706.87" y="-445.3" font-family="Times,serif" font-size="14.00">1</text>
<polyline fill="none" stroke="black" points="735.87,-437.5 735.87,-460.5 "/>
<text text-anchor="middle" x="765.37" y="-445.3" font-family="Times,serif" font-size="14.00">2</text>
</g>
<!-- n0000006b&#45;&gt;n0000004b -->
<g id="edge21" class="edge">
<title>n0000006b:port1&#45;&gt;n0000004b:port0</title>
<path fill="none" stroke="black" stroke-dasharray="5,2" d="M706.37,-437C706.37,-414.06 734.44,-422.14 743.37,-401 764.88,-350.05 790.88,-278.18 745.43,-269.39"/>
<polygon fill="black" stroke="black" points="745.64,-265.9 735.37,-268.5 745.02,-272.87 745.64,-265.9"/>
</g>
<!-- n0000006b&#45;&gt;n00000047 -->
<g id="edge22" class="edge">
<title>n0000006b:port1&#45;&gt;n00000047:port0</title>
<path fill="none" stroke="black" stroke-dasharray="5,2" d="M706.37,-437C706.37,-412.12 666.48,-424.69 654.64,-410.93"/>
<polygon fill="black" stroke="black" points="657.82,-409.4 651.37,-401 651.17,-411.59 657.82,-409.4"/>
</g>
<!-- n0000006f -->
<g id="node20" class="node">
<title>n0000006f</title>
<polygon fill="yellow" stroke="black" points="903.87,-377.5 790.87,-377.5 790.87,-339.5 903.87,-339.5 903.87,-377.5"/>
<text text-anchor="middle" x="847.37" y="-362.3" font-family="Times,serif" font-size="14.00">ipu2_csi1 capture</text>
<text text-anchor="middle" x="847.37" y="-347.3" font-family="Times,serif" font-size="14.00">/dev/video7</text>
</g>
<!-- n0000006b&#45;&gt;n0000006f -->
<g id="edge20" class="edge">
<title>n0000006b:port2&#45;&gt;n0000006f</title>
<path fill="none" stroke="black" stroke-dasharray="5,2" d="M796.37,-448.5C824.85,-448.5 837.65,-413.75 843.25,-387.68"/>
<polygon fill="black" stroke="black" points="846.75,-387.99 845.17,-377.51 839.87,-386.69 846.75,-387.99"/>
</g>
<!-- n00000079 -->
<g id="node21" class="node">
<title>n00000079</title>
<path fill="green" stroke="black" d="M367.87,-679.5C367.87,-679.5 460.87,-679.5 460.87,-679.5 466.87,-679.5 472.87,-685.5 472.87,-691.5 472.87,-691.5 472.87,-751.5 472.87,-751.5 472.87,-757.5 466.87,-763.5 460.87,-763.5 460.87,-763.5 367.87,-763.5 367.87,-763.5 361.87,-763.5 355.87,-757.5 355.87,-751.5 355.87,-751.5 355.87,-691.5 355.87,-691.5 355.87,-685.5 361.87,-679.5 367.87,-679.5"/>
<text text-anchor="middle" x="414.37" y="-748.3" font-family="Times,serif" font-size="14.00">0</text>
<polyline fill="none" stroke="black" points="355.87,-740.5 472.87,-740.5 "/>
<text text-anchor="middle" x="414.37" y="-725.3" font-family="Times,serif" font-size="14.00">imx6&#45;mipi&#45;csi2</text>
<text text-anchor="middle" x="414.37" y="-710.3" font-family="Times,serif" font-size="14.00">/dev/v4l&#45;subdev12</text>
<polyline fill="none" stroke="black" points="355.87,-702.5 472.87,-702.5 "/>
<text text-anchor="middle" x="370.37" y="-687.3" font-family="Times,serif" font-size="14.00">1</text>
<polyline fill="none" stroke="black" points="384.87,-679.5 384.87,-702.5 "/>
<text text-anchor="middle" x="399.37" y="-687.3" font-family="Times,serif" font-size="14.00">2</text>
<polyline fill="none" stroke="black" points="413.87,-679.5 413.87,-702.5 "/>
<text text-anchor="middle" x="428.37" y="-687.3" font-family="Times,serif" font-size="14.00">3</text>
<polyline fill="none" stroke="black" points="442.87,-679.5 442.87,-702.5 "/>
<text text-anchor="middle" x="457.87" y="-687.3" font-family="Times,serif" font-size="14.00">4</text>
</g>
<!-- n00000079&#45;&gt;n0000002f -->
<g id="edge23" class="edge">
<title>n00000079:port2&#45;&gt;n0000002f:port0</title>
<path fill="none" stroke="black" stroke-dasharray="5,2" d="M399.37,-679C399.37,-607.34 342.13,-597.96 336.77,-532.14"/>
<polygon fill="black" stroke="black" points="340.26,-531.85 336.37,-522 333.27,-532.13 340.26,-531.85"/>
</g>
<!-- n00000079&#45;&gt;n0000003d -->
<g id="edge24" class="edge">
<title>n00000079:port3&#45;&gt;n0000003d:port0</title>
<path fill="none" stroke="black" stroke-dasharray="5,2" d="M428.37,-679C428.37,-604.59 499.52,-600.17 505.91,-532.05"/>
<polygon fill="black" stroke="black" points="509.41,-532.15 506.37,-522 502.41,-531.83 509.41,-532.15"/>
</g>
<!-- n0000007f -->
<g id="node22" class="node">
<title>n0000007f</title>
<path fill="green" stroke="black" d="M208.87,-558.5C208.87,-558.5 301.87,-558.5 301.87,-558.5 307.87,-558.5 313.87,-564.5 313.87,-570.5 313.87,-570.5 313.87,-630.5 313.87,-630.5 313.87,-636.5 307.87,-642.5 301.87,-642.5 301.87,-642.5 208.87,-642.5 208.87,-642.5 202.87,-642.5 196.87,-636.5 196.87,-630.5 196.87,-630.5 196.87,-570.5 196.87,-570.5 196.87,-564.5 202.87,-558.5 208.87,-558.5"/>
<text text-anchor="middle" x="225.87" y="-627.3" font-family="Times,serif" font-size="14.00">0</text>
<polyline fill="none" stroke="black" points="254.87,-619.5 254.87,-642.5 "/>
<text text-anchor="middle" x="284.37" y="-627.3" font-family="Times,serif" font-size="14.00">1</text>
<polyline fill="none" stroke="black" points="196.87,-619.5 313.87,-619.5 "/>
<text text-anchor="middle" x="255.37" y="-604.3" font-family="Times,serif" font-size="14.00">ipu1_csi0_mux</text>
<text text-anchor="middle" x="255.37" y="-589.3" font-family="Times,serif" font-size="14.00">/dev/v4l&#45;subdev13</text>
<polyline fill="none" stroke="black" points="196.87,-581.5 313.87,-581.5 "/>
<text text-anchor="middle" x="255.37" y="-566.3" font-family="Times,serif" font-size="14.00">2</text>
</g>
<!-- n00000079&#45;&gt;n0000007f -->
<g id="edge25" class="edge">
<title>n00000079:port1&#45;&gt;n0000007f:port0</title>
<path fill="none" stroke="black" stroke-dasharray="5,2" d="M354.37,-690.5C327.16,-690.5 246.09,-677.05 228.68,-652.53"/>
<polygon fill="black" stroke="black" points="231.96,-651.29 225.37,-643 225.35,-653.59 231.96,-651.29"/>
</g>
<!-- n00000083 -->
<g id="node23" class="node">
<title>n00000083</title>
<path fill="green" stroke="black" d="M590.87,-558.5C590.87,-558.5 683.87,-558.5 683.87,-558.5 689.87,-558.5 695.87,-564.5 695.87,-570.5 695.87,-570.5 695.87,-630.5 695.87,-630.5 695.87,-636.5 689.87,-642.5 683.87,-642.5 683.87,-642.5 590.87,-642.5 590.87,-642.5 584.87,-642.5 578.87,-636.5 578.87,-630.5 578.87,-630.5 578.87,-570.5 578.87,-570.5 578.87,-564.5 584.87,-558.5 590.87,-558.5"/>
<text text-anchor="middle" x="607.87" y="-627.3" font-family="Times,serif" font-size="14.00">0</text>
<polyline fill="none" stroke="black" points="636.87,-619.5 636.87,-642.5 "/>
<text text-anchor="middle" x="666.37" y="-627.3" font-family="Times,serif" font-size="14.00">1</text>
<polyline fill="none" stroke="black" points="578.87,-619.5 695.87,-619.5 "/>
<text text-anchor="middle" x="637.37" y="-604.3" font-family="Times,serif" font-size="14.00">ipu2_csi1_mux</text>
<text text-anchor="middle" x="637.37" y="-589.3" font-family="Times,serif" font-size="14.00">/dev/v4l&#45;subdev14</text>
<polyline fill="none" stroke="black" points="578.87,-581.5 695.87,-581.5 "/>
<text text-anchor="middle" x="637.37" y="-566.3" font-family="Times,serif" font-size="14.00">2</text>
</g>
<!-- n00000079&#45;&gt;n00000083 -->
<g id="edge26" class="edge">
<title>n00000079:port4&#45;&gt;n00000083:port0</title>
<path fill="none" stroke="black" stroke-dasharray="5,2" d="M474.37,-690.5C523.52,-690.5 524.7,-639.29 567.29,-632.29"/>
<polygon fill="black" stroke="black" points="567.67,-635.77 577.37,-631.5 567.12,-628.79 567.67,-635.77"/>
</g>
<!-- n0000007f&#45;&gt;n00000001 -->
<g id="edge27" class="edge">
<title>n0000007f:port2&#45;&gt;n00000001:port0</title>
<path fill="none" stroke="black" stroke-dasharray="5,2" d="M195.37,-569.5C174.67,-569.5 202.34,-532.77 202.05,-517.27"/>
<polygon fill="black" stroke="black" points="204.18,-514.48 194.37,-510.5 199.56,-519.74 204.18,-514.48"/>
</g>
<!-- n00000083&#45;&gt;n0000006b -->
<g id="edge28" class="edge">
<title>n00000083:port2&#45;&gt;n0000006b:port0</title>
<path fill="none" stroke="black" stroke-dasharray="5,2" d="M697.37,-569.5C718.35,-569.5 679.94,-535.97 671.69,-519.46"/>
<polygon fill="black" stroke="black" points="674.84,-520.98 676.37,-510.5 668.64,-517.75 674.84,-520.98"/>
</g>
<!-- n00000087 -->
<g id="node24" class="node">
<title>n00000087</title>
<path fill="green" stroke="black" d="M367.87,-800.5C367.87,-800.5 460.87,-800.5 460.87,-800.5 466.87,-800.5 472.87,-806.5 472.87,-812.5 472.87,-812.5 472.87,-872.5 472.87,-872.5 472.87,-878.5 466.87,-884.5 460.87,-884.5 460.87,-884.5 367.87,-884.5 367.87,-884.5 361.87,-884.5 355.87,-878.5 355.87,-872.5 355.87,-872.5 355.87,-812.5 355.87,-812.5 355.87,-806.5 361.87,-800.5 367.87,-800.5"/>
<text text-anchor="middle" x="414.37" y="-869.3" font-family="Times,serif" font-size="14.00"> </text>
<polyline fill="none" stroke="black" points="355.87,-861.5 472.87,-861.5 "/>
<text text-anchor="middle" x="414.37" y="-846.3" font-family="Times,serif" font-size="14.00">ov5640 1&#45;003c</text>
<text text-anchor="middle" x="414.37" y="-831.3" font-family="Times,serif" font-size="14.00">/dev/v4l&#45;subdev15</text>
<polyline fill="none" stroke="black" points="355.87,-823.5 472.87,-823.5 "/>
<text text-anchor="middle" x="414.37" y="-808.3" font-family="Times,serif" font-size="14.00">0</text>
</g>
<!-- n00000087&#45;&gt;n00000079 -->
<g id="edge29" class="edge">
<title>n00000087:port0&#45;&gt;n00000079:port0</title>
<path fill="none" stroke="black" stroke-dasharray="5,2" d="M414.37,-800C414.37,-788 414.37,-782.75 414.37,-774.12"/>
<polygon fill="black" stroke="black" points="417.87,-774 414.37,-764 410.87,-774 417.87,-774"/>
</g>
</g>
</svg>
