<?xml version="1.0" encoding="UTF-8" standalone="no"?>
<!DOCTYPE svg PUBLIC "-//W3C//DTD SVG 1.1//EN"
 "http://www.w3.org/Graphics/SVG/1.1/DTD/svg11.dtd">
<!-- Generated by graphviz version 2.38.0 (20140413.2041)
 -->
<!-- Title: Output Pipeline Pages: 1 -->
<svg width="506pt" height="362pt"
 viewBox="0.00 0.00 506.00 362.00" xmlns="http://www.w3.org/2000/svg" xmlns:xlink="http://www.w3.org/1999/xlink">
<g id="graph0" class="graph" transform="scale(1 1) rotate(0) translate(4 358)">
<title>Output Pipeline</title>
<polygon fill="white" stroke="none" points="-4,4 -4,-358 502,-358 502,4 -4,4"/>
<g id="clust2" class="cluster"><title>cluster_internal</title>
<polygon fill="none" stroke="black" stroke-dasharray="5,2" points="116,-91 116,-310 473,-310 473,-91 116,-91"/>
<text text-anchor="middle" x="294.5" y="-294.8" font-family="Times,serif" font-size="14.00">Internal Pipeline</text>
</g>
<g id="clust5" class="cluster"><title>cluster_output</title>
<polygon fill="none" stroke="black" stroke-dasharray="5,2" points="8,-8 8,-83 490,-83 490,-8 8,-8"/>
<text text-anchor="middle" x="249" y="-67.8" font-family="Times,serif" font-size="14.00">Outputs</text>
</g>
<!-- drm_crtc -->
<g id="node1" class="node"><title>drm_crtc</title>
<polygon fill="lightgrey" stroke="black" points="327,-354 261,-354 261,-318 327,-318 327,-354"/>
<text text-anchor="middle" x="294" y="-332.3" font-family="Times,serif" font-size="14.00">drm_crtc</text>
</g>
<!-- drm_encoder A -->
<g id="node2" class="node"><title>drm_encoder A</title>
<polygon fill="lightgrey" stroke="black" points="465,-279 363,-279 363,-243 465,-243 465,-279"/>
<text text-anchor="middle" x="414" y="-257.3" font-family="Times,serif" font-size="14.00">drm_encoder A</text>
</g>
<!-- drm_crtc&#45;&gt;drm_encoder A -->
<g id="edge4" class="edge"><title>drm_crtc&#45;&gt;drm_encoder A</title>
<path fill="none" stroke="black" d="M327.189,-323.112C336.139,-319.39 345.65,-314.946 354,-310 365.773,-303.026 377.745,-293.934 387.866,-285.542"/>
<polygon fill="black" stroke="black" points="390.193,-288.157 395.547,-279.015 385.66,-282.823 390.193,-288.157"/>
</g>
<!-- drm_encoder B -->
<g id="node3" class="node"><title>drm_encoder B</title>
<polygon fill="lightgrey" stroke="black" points="344.5,-279 243.5,-279 243.5,-243 344.5,-243 344.5,-279"/>
<text text-anchor="middle" x="294" y="-257.3" font-family="Times,serif" font-size="14.00">drm_encoder B</text>
</g>
<!-- drm_crtc&#45;&gt;drm_encoder B -->
<g id="edge5" class="edge"><title>drm_crtc&#45;&gt;drm_encoder B</title>
<path fill="none" stroke="black" d="M294,-317.7C294,-309.245 294,-298.869 294,-289.373"/>
<polygon fill="black" stroke="black" points="297.5,-289.176 294,-279.176 290.5,-289.176 297.5,-289.176"/>
</g>
<!-- drm_encoder C -->
<g id="node4" class="node"><title>drm_encoder C</title>
<polygon fill="lightgrey" stroke="black" points="225.5,-279 124.5,-279 124.5,-243 225.5,-243 225.5,-279"/>
<text text-anchor="middle" x="175" y="-257.3" font-family="Times,serif" font-size="14.00">drm_encoder C</text>
</g>
<!-- drm_crtc&#45;&gt;drm_encoder C -->
<g id="edge6" class="edge"><title>drm_crtc&#45;&gt;drm_encoder C</title>
<path fill="none" stroke="black" d="M260.784,-323.157C251.834,-319.436 242.33,-314.98 234,-310 222.489,-303.118 210.826,-294.142 200.942,-285.816"/>
<polygon fill="black" stroke="black" points="202.955,-282.929 193.101,-279.036 198.376,-288.224 202.955,-282.929"/>
</g>
<!-- drm_connector A -->
<g id="node8" class="node"><title>drm_connector A</title>
<polygon fill="none" stroke="black" points="481.5,-52 368.5,-52 368.5,-16 481.5,-16 481.5,-52"/>
<text text-anchor="middle" x="425" y="-30.3" font-family="Times,serif" font-size="14.00">drm_connector A</text>
</g>
<!-- drm_encoder A&#45;&gt;drm_connector A -->
<g id="edge7" class="edge"><title>drm_encoder A&#45;&gt;drm_connector A</title>
<path fill="none" stroke="black" d="M414.845,-242.718C416.749,-203.768 421.388,-108.881 423.677,-62.0519"/>
<polygon fill="black" stroke="black" points="427.175,-62.1917 424.167,-52.0327 420.183,-61.8498 427.175,-62.1917"/>
</g>
<!-- drm_bridge B -->
<g id="node5" class="node"><title>drm_bridge B</title>
<polygon fill="lightgrey" stroke="black" points="340.5,-207 247.5,-207 247.5,-171 340.5,-171 340.5,-207"/>
<text text-anchor="middle" x="294" y="-185.3" font-family="Times,serif" font-size="14.00">drm_bridge B</text>
</g>
<!-- drm_encoder B&#45;&gt;drm_bridge B -->
<g id="edge1" class="edge"><title>drm_encoder B&#45;&gt;drm_bridge B</title>
<path fill="none" stroke="black" d="M294,-242.697C294,-234.983 294,-225.712 294,-217.112"/>
<polygon fill="black" stroke="black" points="297.5,-217.104 294,-207.104 290.5,-217.104 297.5,-217.104"/>
</g>
<!-- drm_bridge C1 -->
<g id="node6" class="node"><title>drm_bridge C1</title>
<polygon fill="lightgrey" stroke="black" points="224,-207 124,-207 124,-171 224,-171 224,-207"/>
<text text-anchor="middle" x="174" y="-185.3" font-family="Times,serif" font-size="14.00">drm_bridge C1</text>
</g>
<!-- drm_encoder C&#45;&gt;drm_bridge C1 -->
<g id="edge2" class="edge"><title>drm_encoder C&#45;&gt;drm_bridge C1</title>
<path fill="none" stroke="black" d="M174.753,-242.697C174.643,-234.983 174.51,-225.712 174.387,-217.112"/>
<polygon fill="black" stroke="black" points="177.887,-217.053 174.244,-207.104 170.888,-217.153 177.887,-217.053"/>
</g>
<!-- drm_connector B -->
<g id="node9" class="node"><title>drm_connector B</title>
<polygon fill="none" stroke="black" points="350,-52 238,-52 238,-16 350,-16 350,-52"/>
<text text-anchor="middle" x="294" y="-30.3" font-family="Times,serif" font-size="14.00">drm_connector B</text>
</g>
<!-- drm_bridge B&#45;&gt;drm_connector B -->
<g id="edge8" class="edge"><title>drm_bridge B&#45;&gt;drm_connector B</title>
<path fill="none" stroke="black" d="M294,-170.746C294,-144.461 294,-94.1295 294,-62.6883"/>
<polygon fill="black" stroke="black" points="297.5,-62.4253 294,-52.4253 290.5,-62.4254 297.5,-62.4253"/>
</g>
<!-- drm_bridge C2 -->
<g id="node7" class="node"><title>drm_bridge C2</title>
<polygon fill="lightgrey" stroke="black" points="224,-135 124,-135 124,-99 224,-99 224,-135"/>
<text text-anchor="middle" x="174" y="-113.3" font-family="Times,serif" font-size="14.00">drm_bridge C2</text>
</g>
<!-- drm_bridge C1&#45;&gt;drm_bridge C2 -->
<g id="edge3" class="edge"><title>drm_bridge C1&#45;&gt;drm_bridge C2</title>
<path fill="none" stroke="black" d="M174,-170.697C174,-162.983 174,-153.712 174,-145.112"/>
<polygon fill="black" stroke="black" points="177.5,-145.104 174,-135.104 170.5,-145.104 177.5,-145.104"/>
</g>
<!-- drm_connector C -->
<g id="node10" class="node"><title>drm_connector C</title>
<polygon fill="none" stroke="black" points="220,-52 108,-52 108,-16 220,-16 220,-52"/>
<text text-anchor="middle" x="164" y="-30.3" font-family="Times,serif" font-size="14.00">drm_connector C</text>
</g>
<!-- drm_bridge C2&#45;&gt;drm_connector C -->
<g id="edge9" class="edge"><title>drm_bridge C2&#45;&gt;drm_connector C</title>
<path fill="none" stroke="black" d="M171.879,-98.822C170.567,-88.1903 168.853,-74.306 167.358,-62.2035"/>
<polygon fill="black" stroke="black" points="170.817,-61.649 166.118,-52.1533 163.869,-62.5068 170.817,-61.649"/>
</g>
<!-- drm_panel -->
<g id="node11" class="node"><title>drm_panel</title>
<polygon fill="none" stroke="black" points="90.5,-52 15.5,-52 15.5,-16 90.5,-16 90.5,-52"/>
<text text-anchor="middle" x="53" y="-30.3" font-family="Times,serif" font-size="14.00">drm_panel</text>
</g>
</g>
</svg>
