<?xml version="1.0" encoding="UTF-8" standalone="no"?>
<!DOCTYPE svg PUBLIC "-//W3C//DTD SVG 1.1//EN"
 "http://www.w3.org/Graphics/SVG/1.1/DTD/svg11.dtd">
<!-- Generated by graphviz version 2.38.0 (20140413.2041)
 -->
<!-- Title: %3 Pages: 1 -->
<svg width="286pt" height="116pt"
 viewBox="0.00 0.00 285.50 116.00" xmlns="http://www.w3.org/2000/svg" xmlns:xlink="http://www.w3.org/1999/xlink">
<g id="graph0" class="graph" transform="scale(1 1) rotate(0) translate(4 112)">
<title>%3</title>
<polygon fill="white" stroke="none" points="-4,4 -4,-112 281.5,-112 281.5,4 -4,4"/>
<!-- drm_property A -->
<g id="node1" class="node"><title>drm_property A</title>
<polygon fill="none" stroke="black" points="252.5,-108 147.5,-108 147.5,-72 252.5,-72 252.5,-108"/>
<text text-anchor="middle" x="200" y="-86.3" font-family="Times,serif" font-size="14.00">drm_property A</text>
</g>
<!-- drm_mode_object A -->
<g id="node2" class="node"><title>drm_mode_object A</title>
<polygon fill="none" stroke="black" points="130,-36 0,-36 0,-0 130,-0 130,-36"/>
<text text-anchor="middle" x="65" y="-14.3" font-family="Times,serif" font-size="14.00">drm_mode_object A</text>
</g>
<!-- drm_property A&#45;&gt;drm_mode_object A -->
<g id="edge1" class="edge"><title>drm_property A&#45;&gt;drm_mode_object A</title>
<path fill="none" stroke="black" d="M166.975,-71.8761C148.915,-62.5117 126.355,-50.8136 107.049,-40.803"/>
<polygon fill="black" stroke="black" points="108.64,-37.6858 98.1517,-36.1898 105.418,-43.9001 108.64,-37.6858"/>
</g>
<!-- drm_mode_object B -->
<g id="node3" class="node"><title>drm_mode_object B</title>
<polygon fill="none" stroke="black" points="277.5,-36 148.5,-36 148.5,-0 277.5,-0 277.5,-36"/>
<text text-anchor="middle" x="213" y="-14.3" font-family="Times,serif" font-size="14.00">drm_mode_object B</text>
</g>
<!-- drm_property A&#45;&gt;drm_mode_object B -->
<g id="edge2" class="edge"><title>drm_property A&#45;&gt;drm_mode_object B</title>
<path fill="none" stroke="black" d="M203.213,-71.6966C204.646,-63.9827 206.368,-54.7125 207.965,-46.1124"/>
<polygon fill="black" stroke="black" points="211.439,-46.5753 209.823,-36.1043 204.556,-45.2971 211.439,-46.5753"/>
</g>
<!-- drm_property B -->
<g id="node4" class="node"><title>drm_property B</title>
<polygon fill="none" stroke="black" points="117,-108 13,-108 13,-72 117,-72 117,-108"/>
<text text-anchor="middle" x="65" y="-86.3" font-family="Times,serif" font-size="14.00">drm_property B</text>
</g>
<!-- drm_property B&#45;&gt;drm_mode_object A -->
<g id="edge3" class="edge"><title>drm_property B&#45;&gt;drm_mode_object A</title>
<path fill="none" stroke="black" d="M65,-71.6966C65,-63.9827 65,-54.7125 65,-46.1124"/>
<polygon fill="black" stroke="black" points="68.5001,-46.1043 65,-36.1043 61.5001,-46.1044 68.5001,-46.1043"/>
</g>
</g>
</svg>
