<?xml version="1.0" encoding="UTF-8" standalone="no"?>
<!DOCTYPE svg PUBLIC "-//W3C//DTD SVG 1.1//EN"
 "http://www.w3.org/Graphics/SVG/1.1/DTD/svg11.dtd">
<!-- Generated by graphviz version 2.38.0 (20140413.2041)
 -->
<!-- Title: %3 Pages: 1 -->
<svg width="1181pt" height="412pt"
 viewBox="0.00 0.00 1181.00 412.00" xmlns="http://www.w3.org/2000/svg" xmlns:xlink="http://www.w3.org/1999/xlink">
<g id="graph0" class="graph" transform="scale(1 1) rotate(0) translate(4 408)">
<title>%3</title>
<polygon fill="white" stroke="none" points="-4,4 -4,-408 1177,-408 1177,4 -4,4"/>
<g id="clust1" class="cluster"><title>cluster_state</title>
<polygon fill="none" stroke="black" stroke-dasharray="5,2" points="8,-248 8,-396 985,-396 985,-248 8,-248"/>
<text text-anchor="middle" x="496.5" y="-380.8" font-family="Times,serif" font-size="14.00">Free&#45;standing state</text>
</g>
<g id="clust2" class="cluster"><title>cluster_current</title>
<polygon fill="none" stroke="black" stroke-dasharray="5,2" points="488,-8 488,-229 1165,-229 1165,-8 488,-8"/>
<text text-anchor="middle" x="826.5" y="-213.8" font-family="Times,serif" font-size="14.00">Current state</text>
</g>
<!-- drm_atomic_state -->
<g id="node1" class="node"><title>drm_atomic_state</title>
<polygon fill="none" stroke="black" points="598.5,-365 483.5,-365 483.5,-329 598.5,-329 598.5,-365"/>
<text text-anchor="middle" x="541" y="-343.3" font-family="Times,serif" font-size="14.00">drm_atomic_state</text>
</g>
<!-- duplicated drm_plane_state A -->
<g id="node2" class="node"><title>duplicated drm_plane_state A</title>
<polygon fill="none" stroke="black" points="196,-292 16,-292 16,-256 196,-256 196,-292"/>
<text text-anchor="middle" x="106" y="-270.3" font-family="Times,serif" font-size="14.00">duplicated drm_plane_state A</text>
</g>
<!-- drm_atomic_state&#45;&gt;duplicated drm_plane_state A -->
<g id="edge1" class="edge"><title>drm_atomic_state&#45;&gt;duplicated drm_plane_state A</title>
<path fill="none" stroke="black" d="M483.298,-336.919C418.433,-326.667 309.685,-309.351 206.107,-292.175"/>
<polygon fill="black" stroke="black" points="206.54,-288.699 196.101,-290.514 205.393,-295.605 206.54,-288.699"/>
</g>
<!-- duplicated drm_plane_state B -->
<g id="node3" class="node"><title>duplicated drm_plane_state B</title>
<polygon fill="none" stroke="black" points="393.5,-292 214.5,-292 214.5,-256 393.5,-256 393.5,-292"/>
<text text-anchor="middle" x="304" y="-270.3" font-family="Times,serif" font-size="14.00">duplicated drm_plane_state B</text>
</g>
<!-- drm_atomic_state&#45;&gt;duplicated drm_plane_state B -->
<g id="edge2" class="edge"><title>drm_atomic_state&#45;&gt;duplicated drm_plane_state B</title>
<path fill="none" stroke="black" d="M484.233,-328.994C450.185,-318.794 406.705,-305.768 370.982,-295.066"/>
<polygon fill="black" stroke="black" points="371.709,-291.631 361.126,-292.114 369.701,-298.336 371.709,-291.631"/>
</g>
<!-- duplicated drm_crtc_state -->
<g id="node4" class="node"><title>duplicated drm_crtc_state</title>
<polygon fill="none" stroke="black" points="570,-292 412,-292 412,-256 570,-256 570,-292"/>
<text text-anchor="middle" x="491" y="-270.3" font-family="Times,serif" font-size="14.00">duplicated drm_crtc_state</text>
</g>
<!-- drm_atomic_state&#45;&gt;duplicated drm_crtc_state -->
<g id="edge3" class="edge"><title>drm_atomic_state&#45;&gt;duplicated drm_crtc_state</title>
<path fill="none" stroke="black" d="M528.896,-328.813C522.878,-320.266 515.486,-309.769 508.833,-300.323"/>
<polygon fill="black" stroke="black" points="511.612,-298.19 502.992,-292.029 505.888,-302.22 511.612,-298.19"/>
</g>
<!-- duplicated drm_connector_state -->
<g id="node5" class="node"><title>duplicated drm_connector_state</title>
<polygon fill="none" stroke="black" points="779.5,-292 588.5,-292 588.5,-256 779.5,-256 779.5,-292"/>
<text text-anchor="middle" x="684" y="-270.3" font-family="Times,serif" font-size="14.00">duplicated drm_connector_state</text>
</g>
<!-- drm_atomic_state&#45;&gt;duplicated drm_connector_state -->
<g id="edge4" class="edge"><title>drm_atomic_state&#45;&gt;duplicated drm_connector_state</title>
<path fill="none" stroke="black" d="M575.252,-328.994C594.83,-319.273 619.576,-306.987 640.515,-296.59"/>
<polygon fill="black" stroke="black" points="642.132,-299.696 649.532,-292.114 639.019,-293.426 642.132,-299.696"/>
</g>
<!-- duplicated driver private state -->
<g id="node6" class="node"><title>duplicated driver private state</title>
<polygon fill="none" stroke="black" points="976.5,-292 797.5,-292 797.5,-256 976.5,-256 976.5,-292"/>
<text text-anchor="middle" x="887" y="-270.3" font-family="Times,serif" font-size="14.00">duplicated driver private state</text>
</g>
<!-- drm_atomic_state&#45;&gt;duplicated driver private state -->
<g id="edge5" class="edge"><title>drm_atomic_state&#45;&gt;duplicated driver private state</title>
<path fill="none" stroke="black" d="M598.523,-334.196C651.785,-323.267 731.921,-306.822 794.226,-294.037"/>
<polygon fill="black" stroke="black" points="794.974,-297.457 804.066,-292.018 793.566,-290.6 794.974,-297.457"/>
</g>
<!-- drm_device -->
<g id="node7" class="node"><title>drm_device</title>
<polygon fill="none" stroke="black" points="861.5,-198 780.5,-198 780.5,-162 861.5,-162 861.5,-198"/>
<text text-anchor="middle" x="821" y="-176.3" font-family="Times,serif" font-size="14.00">drm_device</text>
</g>
<!-- drm_atomic_state&#45;&gt;drm_device -->
<g id="edge16" class="edge"><title>drm_atomic_state&#45;&gt;drm_device</title>
<path fill="none" stroke="black" d="M598.708,-343.195C713.295,-337.033 960.712,-320.542 986,-292 1026.2,-246.621 933.613,-211.269 871.493,-193.539"/>
<polygon fill="black" stroke="black" points="872.381,-190.154 861.809,-190.847 870.506,-196.898 872.381,-190.154"/>
<text text-anchor="middle" x="1039" y="-270.3" font-family="Times,serif" font-size="14.00">atomic_commit</text>
</g>
<!-- duplicated drm_plane_state A&#45;&gt;drm_device -->
<!-- drm_plane A -->
<g id="node8" class="node"><title>drm_plane A</title>
<polygon fill="none" stroke="black" points="636.5,-125 547.5,-125 547.5,-89 636.5,-89 636.5,-125"/>
<text text-anchor="middle" x="592" y="-103.3" font-family="Times,serif" font-size="14.00">drm_plane A</text>
</g>
<!-- drm_device&#45;&gt;drm_plane A -->
<g id="edge6" class="edge"><title>drm_device&#45;&gt;drm_plane A</title>
<path fill="none" stroke="black" d="M780.323,-166.388C742.961,-154.805 687.318,-137.553 646.196,-124.803"/>
<polygon fill="black" stroke="black" points="647.19,-121.447 636.602,-121.829 645.117,-128.133 647.19,-121.447"/>
</g>
<!-- drm_plane B -->
<g id="node9" class="node"><title>drm_plane B</title>
<polygon fill="none" stroke="black" points="762,-125 674,-125 674,-89 762,-89 762,-125"/>
<text text-anchor="middle" x="718" y="-103.3" font-family="Times,serif" font-size="14.00">drm_plane B</text>
</g>
<!-- drm_device&#45;&gt;drm_plane B -->
<g id="edge7" class="edge"><title>drm_device&#45;&gt;drm_plane B</title>
<path fill="none" stroke="black" d="M796.329,-161.994C782.797,-152.666 765.836,-140.974 751.16,-130.858"/>
<polygon fill="black" stroke="black" points="753.047,-127.907 742.827,-125.114 749.074,-133.671 753.047,-127.907"/>
</g>
<!-- drm_crtc -->
<g id="node10" class="node"><title>drm_crtc</title>
<polygon fill="none" stroke="black" points="854,-125 788,-125 788,-89 854,-89 854,-125"/>
<text text-anchor="middle" x="821" y="-103.3" font-family="Times,serif" font-size="14.00">drm_crtc</text>
</g>
<!-- drm_device&#45;&gt;drm_crtc -->
<g id="edge8" class="edge"><title>drm_device&#45;&gt;drm_crtc</title>
<path fill="none" stroke="black" d="M821,-161.813C821,-153.789 821,-144.047 821,-135.069"/>
<polygon fill="black" stroke="black" points="824.5,-135.029 821,-125.029 817.5,-135.029 824.5,-135.029"/>
</g>
<!-- drm_connector -->
<g id="node11" class="node"><title>drm_connector</title>
<polygon fill="none" stroke="black" points="987.5,-125 888.5,-125 888.5,-89 987.5,-89 987.5,-125"/>
<text text-anchor="middle" x="938" y="-103.3" font-family="Times,serif" font-size="14.00">drm_connector</text>
</g>
<!-- drm_device&#45;&gt;drm_connector -->
<g id="edge9" class="edge"><title>drm_device&#45;&gt;drm_connector</title>
<path fill="none" stroke="black" d="M849.024,-161.994C864.54,-152.579 884.023,-140.755 900.799,-130.575"/>
<polygon fill="black" stroke="black" points="903.065,-133.294 909.799,-125.114 899.434,-127.309 903.065,-133.294"/>
</g>
<!-- driver private object -->
<g id="node12" class="node"><title>driver private object</title>
<polygon fill="none" stroke="black" points="1144.5,-125 1017.5,-125 1017.5,-89 1144.5,-89 1144.5,-125"/>
<text text-anchor="middle" x="1081" y="-103.3" font-family="Times,serif" font-size="14.00">driver private object</text>
</g>
<!-- drm_device&#45;&gt;driver private object -->
<g id="edge10" class="edge"><title>drm_device&#45;&gt;driver private object</title>
<path fill="none" stroke="black" d="M861.625,-167.906C900.826,-157.201 961.043,-140.757 1008.48,-127.804"/>
<polygon fill="black" stroke="black" points="1009.67,-131.107 1018.39,-125.097 1007.82,-124.355 1009.67,-131.107"/>
</g>
<!-- drm_plane_state A -->
<g id="node13" class="node"><title>drm_plane_state A</title>
<polygon fill="none" stroke="black" points="616,-52 496,-52 496,-16 616,-16 616,-52"/>
<text text-anchor="middle" x="556" y="-30.3" font-family="Times,serif" font-size="14.00">drm_plane_state A</text>
</g>
<!-- drm_plane A&#45;&gt;drm_plane_state A -->
<g id="edge11" class="edge"><title>drm_plane A&#45;&gt;drm_plane_state A</title>
<path fill="none" stroke="black" d="M583.285,-88.8129C579.085,-80.5279 573.955,-70.4103 569.281,-61.1933"/>
<polygon fill="black" stroke="black" points="572.278,-59.365 564.634,-52.0288 566.035,-62.5307 572.278,-59.365"/>
</g>
<!-- drm_plane_state B -->
<g id="node14" class="node"><title>drm_plane_state B</title>
<polygon fill="none" stroke="black" points="753.5,-52 634.5,-52 634.5,-16 753.5,-16 753.5,-52"/>
<text text-anchor="middle" x="694" y="-30.3" font-family="Times,serif" font-size="14.00">drm_plane_state B</text>
</g>
<!-- drm_plane B&#45;&gt;drm_plane_state B -->
<g id="edge12" class="edge"><title>drm_plane B&#45;&gt;drm_plane_state B</title>
<path fill="none" stroke="black" d="M712.19,-88.8129C709.449,-80.7023 706.113,-70.8355 703.051,-61.7766"/>
<polygon fill="black" stroke="black" points="706.274,-60.3814 699.756,-52.0288 699.643,-62.6231 706.274,-60.3814"/>
</g>
<!-- drm_crtc_state -->
<g id="node15" class="node"><title>drm_crtc_state</title>
<polygon fill="none" stroke="black" points="870,-52 772,-52 772,-16 870,-16 870,-52"/>
<text text-anchor="middle" x="821" y="-30.3" font-family="Times,serif" font-size="14.00">drm_crtc_state</text>
</g>
<!-- drm_crtc&#45;&gt;drm_crtc_state -->
<g id="edge13" class="edge"><title>drm_crtc&#45;&gt;drm_crtc_state</title>
<path fill="none" stroke="black" d="M821,-88.8129C821,-80.7895 821,-71.0475 821,-62.0691"/>
<polygon fill="black" stroke="black" points="824.5,-62.0288 821,-52.0288 817.5,-62.0289 824.5,-62.0288"/>
</g>
<!-- drm_connector_state -->
<g id="node16" class="node"><title>drm_connector_state</title>
<polygon fill="none" stroke="black" points="1019.5,-52 888.5,-52 888.5,-16 1019.5,-16 1019.5,-52"/>
<text text-anchor="middle" x="954" y="-30.3" font-family="Times,serif" font-size="14.00">drm_connector_state</text>
</g>
<!-- drm_connector&#45;&gt;drm_connector_state -->
<g id="edge14" class="edge"><title>drm_connector&#45;&gt;drm_connector_state</title>
<path fill="none" stroke="black" d="M941.873,-88.8129C943.681,-80.7895 945.877,-71.0475 947.9,-62.0691"/>
<polygon fill="black" stroke="black" points="951.378,-62.5537 950.163,-52.0288 944.55,-61.0147 951.378,-62.5537"/>
</g>
<!-- driver private state -->
<g id="node17" class="node"><title>driver private state</title>
<polygon fill="none" stroke="black" points="1156.5,-52 1037.5,-52 1037.5,-16 1156.5,-16 1156.5,-52"/>
<text text-anchor="middle" x="1097" y="-30.3" font-family="Times,serif" font-size="14.00">driver private state</text>
</g>
<!-- driver private object&#45;&gt;driver private state -->
<g id="edge15" class="edge"><title>driver private object&#45;&gt;driver private state</title>
<path fill="none" stroke="black" d="M1084.87,-88.8129C1086.68,-80.7895 1088.88,-71.0475 1090.9,-62.0691"/>
<polygon fill="black" stroke="black" points="1094.38,-62.5537 1093.16,-52.0288 1087.55,-61.0147 1094.38,-62.5537"/>
</g>
</g>
</svg>
