<?xml version="1.0" encoding="UTF-8" standalone="no"?>
<!DOCTYPE svg PUBLIC "-//W3C//DTD SVG 1.1//EN"
 "http://www.w3.org/Graphics/SVG/1.1/DTD/svg11.dtd">
<!-- Generated by graphviz version 2.40.1 (20161225.0304)
 -->
<!-- Title: single_ppl Pages: 1 -->
<svg width="316pt" height="44pt"
 viewBox="0.00 0.00 316.00 44.00" xmlns="http://www.w3.org/2000/svg" xmlns:xlink="http://www.w3.org/1999/xlink">
<g id="graph0" class="graph" transform="scale(1 1) rotate(0) translate(4 40)">
<title>single_ppl</title>
<polygon fill="#ffffff" stroke="transparent" points="-4,4 -4,-40 312,-40 312,4 -4,4"/>
<!-- Compiz -->
<g id="node1" class="node">
<title>Compiz</title>
<polygon fill="none" stroke="#000000" points="60,-36 0,-36 0,0 60,0 60,-36"/>
<text text-anchor="middle" x="30" y="-14.3" font-family="Times,serif" font-size="14.00" fill="#000000">Compiz</text>
</g>
<!-- Improc -->
<g id="node2" class="node">
<title>Improc</title>
<polygon fill="none" stroke="#000000" points="153,-36 96,-36 96,0 153,0 153,-36"/>
<text text-anchor="middle" x="124.5" y="-14.3" font-family="Times,serif" font-size="14.00" fill="#000000">Improc</text>
</g>
<!-- Compiz&#45;&gt;Improc -->
<g id="edge1" class="edge">
<title>Compiz&#45;&gt;Improc</title>
<path fill="none" stroke="#000000" d="M60.1602,-18C68.3014,-18 77.2249,-18 85.7646,-18"/>
<polygon fill="#000000" stroke="#000000" points="85.9125,-21.5001 95.9125,-18 85.9125,-14.5001 85.9125,-21.5001"/>
</g>
<!-- Timing Controller -->
<g id="node3" class="node">
<title>Timing Controller</title>
<polygon fill="none" stroke="#000000" points="308,-36 189,-36 189,0 308,0 308,-36"/>
<text text-anchor="middle" x="248.5" y="-14.3" font-family="Times,serif" font-size="14.00" fill="#000000">Timing Controller</text>
</g>
<!-- Improc&#45;&gt;Timing Controller -->
<g id="edge2" class="edge">
<title>Improc&#45;&gt;Timing Controller</title>
<path fill="none" stroke="#000000" d="M153.2598,-18C160.9531,-18 169.6158,-18 178.5014,-18"/>
<polygon fill="#000000" stroke="#000000" points="178.5886,-21.5001 188.5885,-18 178.5885,-14.5001 178.5886,-21.5001"/>
</g>
</g>
</svg>
