<?xml version="1.0" encoding="UTF-8" standalone="no"?>
<!DOCTYPE svg PUBLIC "-//W3C//DTD SVG 1.1//EN"
 "http://www.w3.org/Graphics/SVG/1.1/DTD/svg11.dtd">
<!-- Generated by graphviz version 2.40.1 (20161225.0304)
 -->
<!-- Title: writeback_data_flow Pages: 1 -->
<svg width="274pt" height="44pt"
 viewBox="0.00 0.00 274.00 44.00" xmlns="http://www.w3.org/2000/svg" xmlns:xlink="http://www.w3.org/1999/xlink">
<g id="graph0" class="graph" transform="scale(1 1) rotate(0) translate(4 40)">
<title>writeback_data_flow</title>
<polygon fill="#ffffff" stroke="transparent" points="-4,4 -4,-40 270,-40 270,4 -4,4"/>
<!-- Scaler&#45;n -->
<g id="node1" class="node">
<title>Scaler&#45;n</title>
<polygon fill="none" stroke="#000000" stroke-dasharray="5,2" points="159,-36 96,-36 96,0 159,0 159,-36"/>
<text text-anchor="middle" x="127.5" y="-14.3" font-family="Times,serif" font-size="14.00" fill="#000000">Scaler&#45;n</text>
</g>
<!-- Wb_layer -->
<g id="node3" class="node">
<title>Wb_layer</title>
<polygon fill="none" stroke="#000000" points="266,-36 195,-36 195,0 266,0 266,-36"/>
<text text-anchor="middle" x="230.5" y="-14.3" font-family="Times,serif" font-size="14.00" fill="#000000">Wb_layer</text>
</g>
<!-- Scaler&#45;n&#45;&gt;Wb_layer -->
<g id="edge2" class="edge">
<title>Scaler&#45;n&#45;&gt;Wb_layer</title>
<path fill="none" stroke="#000000" d="M159.2438,-18C167.2282,-18 175.9593,-18 184.4873,-18"/>
<polygon fill="#000000" stroke="#000000" points="184.7252,-21.5001 194.7252,-18 184.7251,-14.5001 184.7252,-21.5001"/>
</g>
<!-- Compiz -->
<g id="node2" class="node">
<title>Compiz</title>
<polygon fill="none" stroke="#000000" points="60,-36 0,-36 0,0 60,0 60,-36"/>
<text text-anchor="middle" x="30" y="-14.3" font-family="Times,serif" font-size="14.00" fill="#000000">Compiz</text>
</g>
<!-- Compiz&#45;&gt;Scaler&#45;n -->
<g id="edge1" class="edge">
<title>Compiz&#45;&gt;Scaler&#45;n</title>
<path fill="none" stroke="#000000" d="M60.0488,-18C68.0841,-18 76.9184,-18 85.4714,-18"/>
<polygon fill="#000000" stroke="#000000" points="85.6919,-21.5001 95.6919,-18 85.6918,-14.5001 85.6919,-21.5001"/>
</g>
</g>
</svg>
