<?xml version="1.0" encoding="UTF-8" standalone="no"?>
<!DOCTYPE svg PUBLIC "-//W3C//DTD SVG 1.1//EN"
 "http://www.w3.org/Graphics/SVG/1.1/DTD/svg11.dtd">
<!-- Generated by graphviz version 2.40.1 (20161225.0304)
 -->
<!-- Title: %3 Pages: 1 -->
<svg width="288pt" height="116pt"
 viewBox="0.00 0.00 288.00 116.00" xmlns="http://www.w3.org/2000/svg" xmlns:xlink="http://www.w3.org/1999/xlink">
<g id="graph0" class="graph" transform="scale(1 1) rotate(0) translate(4 112)">
<title>%3</title>
<polygon fill="#ffffff" stroke="transparent" points="-4,4 -4,-112 284,-112 284,4 -4,4"/>
<!-- drm_property A -->
<g id="node1" class="node">
<title>drm_property A</title>
<polygon fill="none" stroke="#000000" points="257,-108 149,-108 149,-72 257,-72 257,-108"/>
<text text-anchor="middle" x="203" y="-86.3" font-family="Times,serif" font-size="14.00" fill="#000000">drm_property A</text>
</g>
<!-- drm_mode_object A -->
<g id="node2" class="node">
<title>drm_mode_object A</title>
<polygon fill="none" stroke="#000000" points="132,-36 0,-36 0,0 132,0 132,-36"/>
<text text-anchor="middle" x="66" y="-14.3" font-family="Times,serif" font-size="14.00" fill="#000000">drm_mode_object A</text>
</g>
<!-- drm_property A&#45;&gt;drm_mode_object A -->
<g id="edge1" class="edge">
<title>drm_property A&#45;&gt;drm_mode_object A</title>
<path fill="none" stroke="#000000" d="M168.4291,-71.8314C150.5815,-62.4516 128.6226,-50.9112 109.62,-40.9244"/>
<polygon fill="#000000" stroke="#000000" points="111.0401,-37.7168 100.5598,-36.1628 107.7836,-43.9132 111.0401,-37.7168"/>
</g>
<!-- drm_mode_object B -->
<g id="node3" class="node">
<title>drm_mode_object B</title>
<polygon fill="none" stroke="#000000" points="280,-36 150,-36 150,0 280,0 280,-36"/>
<text text-anchor="middle" x="215" y="-14.3" font-family="Times,serif" font-size="14.00" fill="#000000">drm_mode_object B</text>
</g>
<!-- drm_property A&#45;&gt;drm_mode_object B -->
<g id="edge2" class="edge">
<title>drm_property A&#45;&gt;drm_mode_object B</title>
<path fill="none" stroke="#000000" d="M206.0281,-71.8314C207.3115,-64.131 208.8376,-54.9743 210.2639,-46.4166"/>
<polygon fill="#000000" stroke="#000000" points="213.7394,-46.8526 211.9311,-36.4133 206.8347,-45.7018 213.7394,-46.8526"/>
</g>
<!-- drm_property B -->
<g id="node4" class="node">
<title>drm_property B</title>
<polygon fill="none" stroke="#000000" points="119,-108 13,-108 13,-72 119,-72 119,-108"/>
<text text-anchor="middle" x="66" y="-86.3" font-family="Times,serif" font-size="14.00" fill="#000000">drm_property B</text>
</g>
<!-- drm_property B&#45;&gt;drm_mode_object A -->
<g id="edge3" class="edge">
<title>drm_property B&#45;&gt;drm_mode_object A</title>
<path fill="none" stroke="#000000" d="M66,-71.8314C66,-64.131 66,-54.9743 66,-46.4166"/>
<polygon fill="#000000" stroke="#000000" points="69.5001,-46.4132 66,-36.4133 62.5001,-46.4133 69.5001,-46.4132"/>
</g>
</g>
</svg>
