<?xml version="1.0" encoding="UTF-8" standalone="no"?>
<!DOCTYPE svg PUBLIC "-//W3C//DTD SVG 1.1//EN"
 "http://www.w3.org/Graphics/SVG/1.1/DTD/svg11.dtd">
<!-- Generated by graphviz version 2.40.1 (20161225.0304)
 -->
<!-- Title: slave_ppl Pages: 1 -->
<svg width="855pt" height="506pt"
 viewBox="0.00 0.00 855.19 506.00" xmlns="http://www.w3.org/2000/svg" xmlns:xlink="http://www.w3.org/1999/xlink">
<g id="graph0" class="graph" transform="scale(1 1) rotate(0) translate(4 502)">
<title>slave_ppl</title>
<polygon fill="#ffffff" stroke="transparent" points="-4,4 -4,-502 851.1926,-502 851.1926,4 -4,4"/>
<g id="clust2" class="cluster">
<title>cluster_pipeline_slave</title>
<polygon fill="none" stroke="#000000" stroke-dasharray="5,2" points="8,-8 8,-245 376,-245 376,-8 8,-8"/>
<text text-anchor="middle" x="192" y="-229.8" font-family="Times,serif" font-size="14.00" fill="#000000">Slave Pipeline_B</text>
</g>
<g id="clust4" class="cluster">
<title>cluster_pipeline_master</title>
<polygon fill="none" stroke="#000000" stroke-dasharray="5,2" points="154,-253 154,-490 736,-490 736,-253 154,-253"/>
<text text-anchor="middle" x="445" y="-474.8" font-family="Times,serif" font-size="14.00" fill="#000000">Master Pipeline_A</text>
</g>
<!-- Memory -->
<g id="node1" class="node">
<title>Memory</title>
<ellipse fill="none" stroke="#000000" cx="805.5963" cy="-374" rx="41.6928" ry="18"/>
<text text-anchor="middle" x="805.5963" y="-370.3" font-family="Times,serif" font-size="14.00" fill="#000000">Memory</text>
</g>
<!-- Monitor -->
<g id="node2" class="node">
<title>Monitor</title>
<ellipse fill="none" stroke="#000000" cx="805.5963" cy="-320" rx="40.8928" ry="18"/>
<text text-anchor="middle" x="805.5963" y="-316.3" font-family="Times,serif" font-size="14.00" fill="#000000">Monitor</text>
</g>
<!-- Slave.Scaler&#45;0 -->
<g id="node3" class="node">
<title>Slave.Scaler&#45;0</title>
<polygon fill="none" stroke="#000000" stroke-dasharray="5,2" points="239,-183 144,-183 144,-147 239,-147 239,-183"/>
<text text-anchor="middle" x="191.5" y="-161.3" font-family="Times,serif" font-size="14.00" fill="#000000">Slave.Scaler&#45;0</text>
</g>
<!-- Slave.Compiz -->
<g id="node9" class="node">
<title>Slave.Compiz</title>
<polygon fill="#d3d3d3" stroke="#000000" points="368,-146 275,-146 275,-110 368,-110 368,-146"/>
<text text-anchor="middle" x="321.5" y="-124.3" font-family="Times,serif" font-size="14.00" fill="#000000">Slave.Compiz</text>
</g>
<!-- Slave.Scaler&#45;0&#45;&gt;Slave.Compiz -->
<g id="edge9" class="edge">
<title>Slave.Scaler&#45;0&#45;&gt;Slave.Compiz</title>
<path fill="none" stroke="#000000" d="M239.169,-151.4327C247.593,-149.0351 256.436,-146.5182 265.0735,-144.0599"/>
<polygon fill="#000000" stroke="#000000" points="266.0449,-147.4225 274.7048,-141.3186 264.1286,-140.6898 266.0449,-147.4225"/>
</g>
<!-- Slave.Scaler&#45;1 -->
<g id="node4" class="node">
<title>Slave.Scaler&#45;1</title>
<polygon fill="none" stroke="#000000" stroke-dasharray="5,2" points="239,-89 144,-89 144,-53 239,-53 239,-89"/>
<text text-anchor="middle" x="191.5" y="-67.3" font-family="Times,serif" font-size="14.00" fill="#000000">Slave.Scaler&#45;1</text>
</g>
<!-- Slave.Scaler&#45;1&#45;&gt;Slave.Compiz -->
<g id="edge10" class="edge">
<title>Slave.Scaler&#45;1&#45;&gt;Slave.Compiz</title>
<path fill="none" stroke="#000000" d="M232.6328,-89.0352C244.7253,-94.3372 258.0976,-100.2005 270.7179,-105.734"/>
<polygon fill="#000000" stroke="#000000" points="269.6247,-109.0763 280.1886,-109.8865 272.4357,-102.6655 269.6247,-109.0763"/>
</g>
<!-- Slave.Layer&#45;0 -->
<g id="node5" class="node">
<title>Slave.Layer&#45;0</title>
<polygon fill="#d3d3d3" stroke="#000000" points="108,-214 16,-214 16,-178 108,-178 108,-214"/>
<text text-anchor="middle" x="62" y="-192.3" font-family="Times,serif" font-size="14.00" fill="#000000">Slave.Layer&#45;0</text>
</g>
<!-- Slave.Layer&#45;0&#45;&gt;Slave.Scaler&#45;0 -->
<g id="edge1" class="edge">
<title>Slave.Layer&#45;0&#45;&gt;Slave.Scaler&#45;0</title>
<path fill="none" stroke="#000000" d="M108.0215,-184.9833C116.4728,-182.9602 125.3898,-180.8256 134.1254,-178.7345"/>
<polygon fill="#000000" stroke="#000000" points="134.9662,-182.1322 143.8766,-176.4002 133.3365,-175.3245 134.9662,-182.1322"/>
</g>
<!-- Slave.Layer&#45;0&#45;&gt;Slave.Compiz -->
<g id="edge5" class="edge">
<title>Slave.Layer&#45;0&#45;&gt;Slave.Compiz</title>
<path fill="none" stroke="#000000" d="M108.1563,-202.7006C144.7336,-206.1996 196.5659,-207.0673 239,-192 261.2566,-184.0972 282.2279,-167.6612 297.4572,-153.4247"/>
<polygon fill="#000000" stroke="#000000" points="300.1285,-155.7099 304.8741,-146.2373 295.2571,-150.6829 300.1285,-155.7099"/>
</g>
<!-- Slave.Layer&#45;1 -->
<g id="node6" class="node">
<title>Slave.Layer&#45;1</title>
<polygon fill="#d3d3d3" stroke="#000000" points="108,-160 16,-160 16,-124 108,-124 108,-160"/>
<text text-anchor="middle" x="62" y="-138.3" font-family="Times,serif" font-size="14.00" fill="#000000">Slave.Layer&#45;1</text>
</g>
<!-- Slave.Layer&#45;1&#45;&gt;Slave.Scaler&#45;0 -->
<g id="edge2" class="edge">
<title>Slave.Layer&#45;1&#45;&gt;Slave.Scaler&#45;0</title>
<path fill="none" stroke="#000000" d="M108.0215,-150.1737C116.3819,-151.6586 125.1981,-153.2244 133.8436,-154.7599"/>
<polygon fill="#000000" stroke="#000000" points="133.4186,-158.2391 143.8766,-156.5418 134.6428,-151.3469 133.4186,-158.2391"/>
</g>
<!-- Slave.Layer&#45;1&#45;&gt;Slave.Compiz -->
<g id="edge6" class="edge">
<title>Slave.Layer&#45;1&#45;&gt;Slave.Compiz</title>
<path fill="none" stroke="#000000" d="M108.0944,-139.5132C151.9217,-137.1487 217.9484,-133.5866 264.9405,-131.0514"/>
<polygon fill="#000000" stroke="#000000" points="265.164,-134.5445 274.9609,-130.5108 264.7869,-127.5547 265.164,-134.5445"/>
</g>
<!-- Slave.Layer&#45;2 -->
<g id="node7" class="node">
<title>Slave.Layer&#45;2</title>
<polygon fill="#d3d3d3" stroke="#000000" points="108,-106 16,-106 16,-70 108,-70 108,-106"/>
<text text-anchor="middle" x="62" y="-84.3" font-family="Times,serif" font-size="14.00" fill="#000000">Slave.Layer&#45;2</text>
</g>
<!-- Slave.Layer&#45;2&#45;&gt;Slave.Scaler&#45;1 -->
<g id="edge3" class="edge">
<title>Slave.Layer&#45;2&#45;&gt;Slave.Scaler&#45;1</title>
<path fill="none" stroke="#000000" d="M108.0215,-81.9586C116.3819,-80.8611 125.1981,-79.7037 133.8436,-78.5688"/>
<polygon fill="#000000" stroke="#000000" points="134.4172,-82.0236 143.8766,-77.2517 133.5061,-75.0832 134.4172,-82.0236"/>
</g>
<!-- Slave.Layer&#45;2&#45;&gt;Slave.Compiz -->
<g id="edge7" class="edge">
<title>Slave.Layer&#45;2&#45;&gt;Slave.Compiz</title>
<path fill="none" stroke="#000000" d="M108.0944,-95.1051C151.9217,-101.8608 217.9484,-112.0383 264.9405,-119.2818"/>
<polygon fill="#000000" stroke="#000000" points="264.5444,-122.762 274.9609,-120.8263 265.6109,-115.8437 264.5444,-122.762"/>
</g>
<!-- Slave.Layer&#45;3 -->
<g id="node8" class="node">
<title>Slave.Layer&#45;3</title>
<polygon fill="#d3d3d3" stroke="#000000" points="108,-52 16,-52 16,-16 108,-16 108,-52"/>
<text text-anchor="middle" x="62" y="-30.3" font-family="Times,serif" font-size="14.00" fill="#000000">Slave.Layer&#45;3</text>
</g>
<!-- Slave.Layer&#45;3&#45;&gt;Slave.Scaler&#45;1 -->
<g id="edge4" class="edge">
<title>Slave.Layer&#45;3&#45;&gt;Slave.Scaler&#45;1</title>
<path fill="none" stroke="#000000" d="M108.0215,-47.149C116.4728,-49.5637 125.3898,-52.1114 134.1254,-54.6073"/>
<polygon fill="#000000" stroke="#000000" points="133.2998,-58.0114 143.8766,-57.3933 135.2229,-51.2807 133.2998,-58.0114"/>
</g>
<!-- Slave.Layer&#45;3&#45;&gt;Slave.Compiz -->
<g id="edge8" class="edge">
<title>Slave.Layer&#45;3&#45;&gt;Slave.Compiz</title>
<path fill="none" stroke="#000000" d="M108.149,-27.7697C145.189,-24.7986 197.6487,-25.2641 239,-44 266.085,-56.272 289.028,-81.7213 303.7902,-101.4091"/>
<polygon fill="#000000" stroke="#000000" points="301.097,-103.6577 309.7934,-109.7096 306.7691,-99.5555 301.097,-103.6577"/>
</g>
<!-- Compiz -->
<g id="node17" class="node">
<title>Compiz</title>
<polygon fill="#d3d3d3" stroke="#000000" points="464,-365 404,-365 404,-329 464,-329 464,-365"/>
<text text-anchor="middle" x="434" y="-343.3" font-family="Times,serif" font-size="14.00" fill="#000000">Compiz</text>
</g>
<!-- Slave.Compiz&#45;&gt;Compiz -->
<g id="edge15" class="edge">
<title>Slave.Compiz&#45;&gt;Compiz</title>
<path fill="none" stroke="#000000" d="M330.8982,-146.2951C350.7177,-184.8771 396.8792,-274.7381 420.1151,-319.9707"/>
<polygon fill="#000000" stroke="#000000" points="417.025,-321.6152 424.7077,-328.911 423.2515,-318.4166 417.025,-321.6152"/>
</g>
<!-- Scaler&#45;0 -->
<g id="node10" class="node">
<title>Scaler&#45;0</title>
<polygon fill="none" stroke="#000000" stroke-dasharray="5,2" points="352.5,-422 290.5,-422 290.5,-386 352.5,-386 352.5,-422"/>
<text text-anchor="middle" x="321.5" y="-400.3" font-family="Times,serif" font-size="14.00" fill="#000000">Scaler&#45;0</text>
</g>
<!-- Scaler&#45;0&#45;&gt;Compiz -->
<g id="edge20" class="edge">
<title>Scaler&#45;0&#45;&gt;Compiz</title>
<path fill="none" stroke="#000000" d="M352.5389,-388.2736C365.5383,-381.6872 380.8028,-373.9533 394.5827,-366.9714"/>
<polygon fill="#000000" stroke="#000000" points="396.5009,-369.9232 403.8394,-362.2814 393.3371,-363.679 396.5009,-369.9232"/>
</g>
<!-- Scaler&#45;1 -->
<g id="node11" class="node">
<title>Scaler&#45;1</title>
<polygon fill="none" stroke="#000000" stroke-dasharray="5,2" points="352.5,-328 290.5,-328 290.5,-292 352.5,-292 352.5,-328"/>
<text text-anchor="middle" x="321.5" y="-306.3" font-family="Times,serif" font-size="14.00" fill="#000000">Scaler&#45;1</text>
</g>
<!-- Scaler&#45;1&#45;&gt;Compiz -->
<g id="edge21" class="edge">
<title>Scaler&#45;1&#45;&gt;Compiz</title>
<path fill="none" stroke="#000000" d="M352.5389,-320.2084C365.4134,-324.4426 380.5094,-329.4075 394.1848,-333.9052"/>
<polygon fill="#000000" stroke="#000000" points="393.2464,-337.281 403.8394,-337.0805 395.4334,-330.6314 393.2464,-337.281"/>
</g>
<!-- Scaler&#45;0/1 -->
<g id="node12" class="node">
<title>Scaler&#45;0/1</title>
<polygon fill="none" stroke="#000000" stroke-dasharray="5,2" points="573,-392 500,-392 500,-356 573,-356 573,-392"/>
<text text-anchor="middle" x="536.5" y="-370.3" font-family="Times,serif" font-size="14.00" fill="#000000">Scaler&#45;0/1</text>
</g>
<!-- Wb_layer -->
<g id="node18" class="node">
<title>Wb_layer</title>
<polygon fill="#d3d3d3" stroke="#000000" points="704,-392 633,-392 633,-356 704,-356 704,-392"/>
<text text-anchor="middle" x="668.5" y="-370.3" font-family="Times,serif" font-size="14.00" fill="#000000">Wb_layer</text>
</g>
<!-- Scaler&#45;0/1&#45;&gt;Wb_layer -->
<g id="edge23" class="edge">
<title>Scaler&#45;0/1&#45;&gt;Wb_layer</title>
<path fill="none" stroke="#000000" d="M573.2694,-374C588.5382,-374 606.4227,-374 622.5443,-374"/>
<polygon fill="#000000" stroke="#000000" points="622.8387,-377.5001 632.8387,-374 622.8387,-370.5001 622.8387,-377.5001"/>
</g>
<!-- Layer&#45;0 -->
<g id="node13" class="node">
<title>Layer&#45;0</title>
<polygon fill="#d3d3d3" stroke="#000000" points="221,-459 162,-459 162,-423 221,-423 221,-459"/>
<text text-anchor="middle" x="191.5" y="-437.3" font-family="Times,serif" font-size="14.00" fill="#000000">Layer&#45;0</text>
</g>
<!-- Layer&#45;0&#45;&gt;Scaler&#45;0 -->
<g id="edge11" class="edge">
<title>Layer&#45;0&#45;&gt;Scaler&#45;0</title>
<path fill="none" stroke="#000000" d="M221.3246,-432.5115C238.943,-427.497 261.4953,-421.0783 280.7392,-415.6012"/>
<polygon fill="#000000" stroke="#000000" points="281.7974,-418.9391 290.4573,-412.8352 279.8811,-412.2064 281.7974,-418.9391"/>
</g>
<!-- Layer&#45;0&#45;&gt;Compiz -->
<g id="edge16" class="edge">
<title>Layer&#45;0&#45;&gt;Compiz</title>
<path fill="none" stroke="#000000" d="M221.171,-446.9711C259.5642,-453.0856 327.2954,-458.2637 376,-431 398.0923,-418.6332 413.59,-393.9091 422.9731,-374.4712"/>
<polygon fill="#000000" stroke="#000000" points="426.2551,-375.7089 427.2077,-365.157 419.8828,-372.8118 426.2551,-375.7089"/>
</g>
<!-- Layer&#45;1 -->
<g id="node14" class="node">
<title>Layer&#45;1</title>
<polygon fill="#d3d3d3" stroke="#000000" points="221,-405 162,-405 162,-369 221,-369 221,-405"/>
<text text-anchor="middle" x="191.5" y="-383.3" font-family="Times,serif" font-size="14.00" fill="#000000">Layer&#45;1</text>
</g>
<!-- Layer&#45;1&#45;&gt;Scaler&#45;0 -->
<g id="edge12" class="edge">
<title>Layer&#45;1&#45;&gt;Scaler&#45;0</title>
<path fill="none" stroke="#000000" d="M221.3246,-390.9001C238.8622,-393.1935 261.2885,-396.1262 280.4742,-398.6351"/>
<polygon fill="#000000" stroke="#000000" points="280.0878,-402.1143 290.4573,-399.9406 280.9956,-395.1734 280.0878,-402.1143"/>
</g>
<!-- Layer&#45;1&#45;&gt;Compiz -->
<g id="edge17" class="edge">
<title>Layer&#45;1&#45;&gt;Compiz</title>
<path fill="none" stroke="#000000" d="M221.2353,-382.0952C264.4781,-374.9624 344.8491,-361.7053 393.4759,-353.6844"/>
<polygon fill="#000000" stroke="#000000" points="394.3429,-357.0888 403.6399,-352.0078 393.2036,-350.1821 394.3429,-357.0888"/>
</g>
<!-- Layer&#45;2 -->
<g id="node15" class="node">
<title>Layer&#45;2</title>
<polygon fill="#d3d3d3" stroke="#000000" points="221,-351 162,-351 162,-315 221,-315 221,-351"/>
<text text-anchor="middle" x="191.5" y="-329.3" font-family="Times,serif" font-size="14.00" fill="#000000">Layer&#45;2</text>
</g>
<!-- Layer&#45;2&#45;&gt;Scaler&#45;1 -->
<g id="edge13" class="edge">
<title>Layer&#45;2&#45;&gt;Scaler&#45;1</title>
<path fill="none" stroke="#000000" d="M221.3246,-327.7233C238.8622,-324.6205 261.2885,-320.6528 280.4742,-317.2584"/>
<polygon fill="#000000" stroke="#000000" points="281.22,-320.6809 290.4573,-315.4922 280.0004,-313.788 281.22,-320.6809"/>
</g>
<!-- Layer&#45;2&#45;&gt;Compiz -->
<g id="edge18" class="edge">
<title>Layer&#45;2&#45;&gt;Compiz</title>
<path fill="none" stroke="#000000" d="M221.2353,-334.7167C264.4781,-337.2132 344.8491,-341.8531 393.4759,-344.6605"/>
<polygon fill="#000000" stroke="#000000" points="393.4548,-348.165 403.6399,-345.2473 393.8583,-341.1766 393.4548,-348.165"/>
</g>
<!-- Layer&#45;3 -->
<g id="node16" class="node">
<title>Layer&#45;3</title>
<polygon fill="#d3d3d3" stroke="#000000" points="221,-297 162,-297 162,-261 221,-261 221,-297"/>
<text text-anchor="middle" x="191.5" y="-275.3" font-family="Times,serif" font-size="14.00" fill="#000000">Layer&#45;3</text>
</g>
<!-- Layer&#45;3&#45;&gt;Scaler&#45;1 -->
<g id="edge14" class="edge">
<title>Layer&#45;3&#45;&gt;Scaler&#45;1</title>
<path fill="none" stroke="#000000" d="M221.3246,-286.112C238.8622,-290.2941 261.2885,-295.6419 280.4742,-300.2169"/>
<polygon fill="#000000" stroke="#000000" points="279.9181,-303.6824 290.4573,-302.5975 281.5419,-296.8733 279.9181,-303.6824"/>
</g>
<!-- Layer&#45;3&#45;&gt;Compiz -->
<g id="edge19" class="edge">
<title>Layer&#45;3&#45;&gt;Compiz</title>
<path fill="none" stroke="#000000" d="M221.2051,-272.7323C259.0451,-266.2524 325.575,-259.9894 376,-283 393.2845,-290.8875 407.6673,-306.6448 417.7867,-320.5498"/>
<polygon fill="#000000" stroke="#000000" points="414.9699,-322.6305 423.5243,-328.8813 420.7351,-318.6602 414.9699,-322.6305"/>
</g>
<!-- Compiz&#45;&gt;Scaler&#45;0/1 -->
<g id="edge22" class="edge">
<title>Compiz&#45;&gt;Scaler&#45;0/1</title>
<path fill="none" stroke="#000000" d="M464.199,-354.9549C472.351,-357.1022 481.3631,-359.4761 490.1789,-361.7983"/>
<polygon fill="#000000" stroke="#000000" points="489.4308,-365.2206 499.9925,-364.3834 491.2139,-358.4515 489.4308,-365.2206"/>
</g>
<!-- Improc -->
<g id="node19" class="node">
<title>Improc</title>
<polygon fill="#d3d3d3" stroke="#000000" points="565,-338 508,-338 508,-302 565,-302 565,-338"/>
<text text-anchor="middle" x="536.5" y="-316.3" font-family="Times,serif" font-size="14.00" fill="#000000">Improc</text>
</g>
<!-- Compiz&#45;&gt;Improc -->
<g id="edge24" class="edge">
<title>Compiz&#45;&gt;Improc</title>
<path fill="none" stroke="#000000" d="M464.199,-339.0451C474.7786,-336.2583 486.8069,-333.0899 497.9746,-330.1482"/>
<polygon fill="#000000" stroke="#000000" points="499.1439,-333.4596 507.9225,-327.5277 497.3608,-326.6905 499.1439,-333.4596"/>
</g>
<!-- Wb_layer&#45;&gt;Memory -->
<g id="edge26" class="edge">
<title>Wb_layer&#45;&gt;Memory</title>
<path fill="none" stroke="#000000" d="M704.1626,-374C719.2739,-374 737.1797,-374 753.7095,-374"/>
<polygon fill="#000000" stroke="#000000" points="753.7865,-377.5001 763.7865,-374 753.7864,-370.5001 753.7865,-377.5001"/>
</g>
<!-- Timing Controller -->
<g id="node20" class="node">
<title>Timing Controller</title>
<polygon fill="#d3d3d3" stroke="#000000" points="728,-338 609,-338 609,-302 728,-302 728,-338"/>
<text text-anchor="middle" x="668.5" y="-316.3" font-family="Times,serif" font-size="14.00" fill="#000000">Timing Controller</text>
</g>
<!-- Improc&#45;&gt;Timing Controller -->
<g id="edge25" class="edge">
<title>Improc&#45;&gt;Timing Controller</title>
<path fill="none" stroke="#000000" d="M565.142,-320C575.0532,-320 586.6402,-320 598.4014,-320"/>
<polygon fill="#000000" stroke="#000000" points="598.7442,-323.5001 608.7441,-320 598.7441,-316.5001 598.7442,-323.5001"/>
</g>
<!-- Timing Controller&#45;&gt;Monitor -->
<g id="edge27" class="edge">
<title>Timing Controller&#45;&gt;Monitor</title>
<path fill="none" stroke="#000000" d="M728.2336,-320C736.9545,-320 745.869,-320 754.3997,-320"/>
<polygon fill="#000000" stroke="#000000" points="754.5761,-323.5001 764.5761,-320 754.576,-316.5001 754.5761,-323.5001"/>
</g>
</g>
</svg>
