<?xml version="1.0" encoding="UTF-8" standalone="no"?>
<!DOCTYPE svg PUBLIC "-//W3C//DTD SVG 1.1//EN"
 "http://www.w3.org/Graphics/SVG/1.1/DTD/svg11.dtd">
<!-- Generated by graphviz version 2.40.1 (20161225.0304)
 -->
<!-- Title: Output Pipeline Pages: 1 -->
<svg width="519pt" height="362pt"
 viewBox="0.00 0.00 519.00 362.00" xmlns="http://www.w3.org/2000/svg" xmlns:xlink="http://www.w3.org/1999/xlink">
<g id="graph0" class="graph" transform="scale(1 1) rotate(0) translate(4 358)">
<title>Output Pipeline</title>
<polygon fill="#ffffff" stroke="transparent" points="-4,4 -4,-358 515,-358 515,4 -4,4"/>
<g id="clust2" class="cluster">
<title>cluster_internal</title>
<polygon fill="none" stroke="#000000" stroke-dasharray="5,2" points="121,-91 121,-310 485,-310 485,-91 121,-91"/>
<text text-anchor="middle" x="303" y="-294.8" font-family="Times,serif" font-size="14.00" fill="#000000">Internal Pipeline</text>
</g>
<g id="clust5" class="cluster">
<title>cluster_output</title>
<polygon fill="none" stroke="#000000" stroke-dasharray="5,2" points="8,-8 8,-83 503,-83 503,-8 8,-8"/>
<text text-anchor="middle" x="255.5" y="-67.8" font-family="Times,serif" font-size="14.00" fill="#000000">Outputs</text>
</g>
<!-- drm_crtc -->
<g id="node1" class="node">
<title>drm_crtc</title>
<polygon fill="#d3d3d3" stroke="#000000" points="336,-354 268,-354 268,-318 336,-318 336,-354"/>
<text text-anchor="middle" x="302" y="-332.3" font-family="Times,serif" font-size="14.00" fill="#000000">drm_crtc</text>
</g>
<!-- drm_encoder A -->
<g id="node2" class="node">
<title>drm_encoder A</title>
<polygon fill="#d3d3d3" stroke="#000000" points="476.5,-279 371.5,-279 371.5,-243 476.5,-243 476.5,-279"/>
<text text-anchor="middle" x="424" y="-257.3" font-family="Times,serif" font-size="14.00" fill="#000000">drm_encoder A</text>
</g>
<!-- drm_crtc&#45;&gt;drm_encoder A -->
<g id="edge4" class="edge">
<title>drm_crtc&#45;&gt;drm_encoder A</title>
<path fill="none" stroke="#000000" d="M336.0554,-323.4279C345.0614,-319.5855 354.6062,-315.0295 363,-310 374.6768,-303.0034 386.5591,-293.976 396.6966,-285.5799"/>
<polygon fill="#000000" stroke="#000000" points="399.0534,-288.1703 404.4154,-279.0325 394.5253,-282.8321 399.0534,-288.1703"/>
</g>
<!-- drm_encoder B -->
<g id="node3" class="node">
<title>drm_encoder B</title>
<polygon fill="#d3d3d3" stroke="#000000" points="353.5,-279 250.5,-279 250.5,-243 353.5,-243 353.5,-279"/>
<text text-anchor="middle" x="302" y="-257.3" font-family="Times,serif" font-size="14.00" fill="#000000">drm_encoder B</text>
</g>
<!-- drm_crtc&#45;&gt;drm_encoder B -->
<g id="edge5" class="edge">
<title>drm_crtc&#45;&gt;drm_encoder B</title>
<path fill="none" stroke="#000000" d="M302,-317.8446C302,-309.3401 302,-299.0076 302,-289.4964"/>
<polygon fill="#000000" stroke="#000000" points="305.5001,-289.2481 302,-279.2482 298.5001,-289.2482 305.5001,-289.2481"/>
</g>
<!-- drm_encoder C -->
<g id="node4" class="node">
<title>drm_encoder C</title>
<polygon fill="#d3d3d3" stroke="#000000" points="232.5,-279 129.5,-279 129.5,-243 232.5,-243 232.5,-279"/>
<text text-anchor="middle" x="181" y="-257.3" font-family="Times,serif" font-size="14.00" fill="#000000">drm_encoder C</text>
</g>
<!-- drm_crtc&#45;&gt;drm_encoder C -->
<g id="edge6" class="edge">
<title>drm_crtc&#45;&gt;drm_encoder C</title>
<path fill="none" stroke="#000000" d="M267.8852,-323.0954C259.2118,-319.3116 250.0682,-314.8673 242,-310 230.436,-303.0237 218.6536,-294.0756 208.5666,-285.7394"/>
<polygon fill="#000000" stroke="#000000" points="210.7722,-283.0208 200.8771,-279.2344 206.2513,-288.3651 210.7722,-283.0208"/>
</g>
<!-- drm_connector A -->
<g id="node8" class="node">
<title>drm_connector A</title>
<polygon fill="none" stroke="#000000" points="494.5,-52 377.5,-52 377.5,-16 494.5,-16 494.5,-52"/>
<text text-anchor="middle" x="436" y="-30.3" font-family="Times,serif" font-size="14.00" fill="#000000">drm_connector A</text>
</g>
<!-- drm_encoder A&#45;&gt;drm_connector A -->
<g id="edge7" class="edge">
<title>drm_encoder A&#45;&gt;drm_connector A</title>
<path fill="none" stroke="#000000" d="M424.9617,-242.8074C427.0463,-203.3751 431.9941,-109.7785 434.4961,-62.4496"/>
<polygon fill="#000000" stroke="#000000" points="438.0008,-62.4501 435.0337,-52.2793 431.0106,-62.0805 438.0008,-62.4501"/>
</g>
<!-- drm_bridge B -->
<g id="node5" class="node">
<title>drm_bridge B</title>
<polygon fill="#d3d3d3" stroke="#000000" points="348.5,-207 255.5,-207 255.5,-171 348.5,-171 348.5,-207"/>
<text text-anchor="middle" x="302" y="-185.3" font-family="Times,serif" font-size="14.00" fill="#000000">drm_bridge B</text>
</g>
<!-- drm_encoder B&#45;&gt;drm_bridge B -->
<g id="edge1" class="edge">
<title>drm_encoder B&#45;&gt;drm_bridge B</title>
<path fill="none" stroke="#000000" d="M302,-242.8314C302,-235.131 302,-225.9743 302,-217.4166"/>
<polygon fill="#000000" stroke="#000000" points="305.5001,-217.4132 302,-207.4133 298.5001,-217.4133 305.5001,-217.4132"/>
</g>
<!-- drm_bridge C1 -->
<g id="node6" class="node">
<title>drm_bridge C1</title>
<polygon fill="#d3d3d3" stroke="#000000" points="230,-207 130,-207 130,-171 230,-171 230,-207"/>
<text text-anchor="middle" x="180" y="-185.3" font-family="Times,serif" font-size="14.00" fill="#000000">drm_bridge C1</text>
</g>
<!-- drm_encoder C&#45;&gt;drm_bridge C1 -->
<g id="edge2" class="edge">
<title>drm_encoder C&#45;&gt;drm_bridge C1</title>
<path fill="none" stroke="#000000" d="M180.7477,-242.8314C180.6407,-235.131 180.5135,-225.9743 180.3947,-217.4166"/>
<polygon fill="#000000" stroke="#000000" points="183.8944,-217.3637 180.2557,-207.4133 176.8951,-217.4609 183.8944,-217.3637"/>
</g>
<!-- drm_connector B -->
<g id="node9" class="node">
<title>drm_connector B</title>
<polygon fill="none" stroke="#000000" points="359.5,-52 244.5,-52 244.5,-16 359.5,-16 359.5,-52"/>
<text text-anchor="middle" x="302" y="-30.3" font-family="Times,serif" font-size="14.00" fill="#000000">drm_connector B</text>
</g>
<!-- drm_bridge B&#45;&gt;drm_connector B -->
<g id="edge8" class="edge">
<title>drm_bridge B&#45;&gt;drm_connector B</title>
<path fill="none" stroke="#000000" d="M302,-170.9162C302,-144.3422 302,-94.4757 302,-62.819"/>
<polygon fill="#000000" stroke="#000000" points="305.5001,-62.4491 302,-52.4491 298.5001,-62.4491 305.5001,-62.4491"/>
</g>
<!-- drm_bridge C2 -->
<g id="node7" class="node">
<title>drm_bridge C2</title>
<polygon fill="#d3d3d3" stroke="#000000" points="229,-135 129,-135 129,-99 229,-99 229,-135"/>
<text text-anchor="middle" x="179" y="-113.3" font-family="Times,serif" font-size="14.00" fill="#000000">drm_bridge C2</text>
</g>
<!-- drm_bridge C1&#45;&gt;drm_bridge C2 -->
<g id="edge3" class="edge">
<title>drm_bridge C1&#45;&gt;drm_bridge C2</title>
<path fill="none" stroke="#000000" d="M179.7477,-170.8314C179.6407,-163.131 179.5135,-153.9743 179.3947,-145.4166"/>
<polygon fill="#000000" stroke="#000000" points="182.8944,-145.3637 179.2557,-135.4133 175.8951,-145.4609 182.8944,-145.3637"/>
</g>
<!-- drm_connector C -->
<g id="node10" class="node">
<title>drm_connector C</title>
<polygon fill="none" stroke="#000000" points="226.5,-52 111.5,-52 111.5,-16 226.5,-16 226.5,-52"/>
<text text-anchor="middle" x="169" y="-30.3" font-family="Times,serif" font-size="14.00" fill="#000000">drm_connector C</text>
</g>
<!-- drm_bridge C2&#45;&gt;drm_connector C -->
<g id="edge9" class="edge">
<title>drm_bridge C2&#45;&gt;drm_connector C</title>
<path fill="none" stroke="#000000" d="M176.8301,-98.9902C175.5417,-88.2963 173.8794,-74.4994 172.4181,-62.3706"/>
<polygon fill="#000000" stroke="#000000" points="175.8713,-61.7708 171.2001,-52.2612 168.9215,-62.6081 175.8713,-61.7708"/>
</g>
<!-- drm_panel -->
<g id="node11" class="node">
<title>drm_panel</title>
<polygon fill="none" stroke="#000000" points="93.5,-52 16.5,-52 16.5,-16 93.5,-16 93.5,-52"/>
<text text-anchor="middle" x="55" y="-30.3" font-family="Times,serif" font-size="14.00" fill="#000000">drm_panel</text>
</g>
</g>
</svg>
