<?xml version="1.0" encoding="UTF-8" standalone="no"?>
<!DOCTYPE svg PUBLIC "-//W3C//DTD SVG 1.1//EN"
 "http://www.w3.org/Graphics/SVG/1.1/DTD/svg11.dtd">
<!-- Generated by graphviz version 2.40.1 (20161225.0304)
 -->
<!-- Title: layer_data_flow Pages: 1 -->
<svg width="365pt" height="98pt"
 viewBox="0.00 0.00 365.00 98.00" xmlns="http://www.w3.org/2000/svg" xmlns:xlink="http://www.w3.org/1999/xlink">
<g id="graph0" class="graph" transform="scale(1 1) rotate(0) translate(4 94)">
<title>layer_data_flow</title>
<polygon fill="#ffffff" stroke="transparent" points="-4,4 -4,-94 361,-94 361,4 -4,4"/>
<!-- Layer&#45;0/1 -->
<g id="node1" class="node">
<title>Layer&#45;0/1</title>
<polygon fill="none" stroke="#000000" points="70,-90 0,-90 0,-54 70,-54 70,-90"/>
<text text-anchor="middle" x="35" y="-68.3" font-family="Times,serif" font-size="14.00" fill="#000000">Layer&#45;0/1</text>
</g>
<!-- Scaler&#45;0 -->
<g id="node2" class="node">
<title>Scaler&#45;0</title>
<polygon fill="none" stroke="#000000" points="168,-90 106,-90 106,-54 168,-54 168,-90"/>
<text text-anchor="middle" x="137" y="-68.3" font-family="Times,serif" font-size="14.00" fill="#000000">Scaler&#45;0</text>
</g>
<!-- Layer&#45;0/1&#45;&gt;Scaler&#45;0 -->
<g id="edge1" class="edge">
<title>Layer&#45;0/1&#45;&gt;Scaler&#45;0</title>
<path fill="none" stroke="#000000" d="M70.1026,-72C78.3784,-72 87.2747,-72 95.7923,-72"/>
<polygon fill="#000000" stroke="#000000" points="95.927,-75.5001 105.927,-72 95.927,-68.5001 95.927,-75.5001"/>
</g>
<!-- Merger -->
<g id="node3" class="node">
<title>Merger</title>
<polygon fill="none" stroke="#000000" points="261,-63 204,-63 204,-27 261,-27 261,-63"/>
<text text-anchor="middle" x="232.5" y="-41.3" font-family="Times,serif" font-size="14.00" fill="#000000">Merger</text>
</g>
<!-- Scaler&#45;0&#45;&gt;Merger -->
<g id="edge2" class="edge">
<title>Scaler&#45;0&#45;&gt;Merger</title>
<path fill="none" stroke="#000000" d="M168.0061,-63.2339C176.305,-60.8876 185.3765,-58.3229 194.0257,-55.8775"/>
<polygon fill="#000000" stroke="#000000" points="195.243,-59.1707 203.9136,-53.082 193.3385,-52.4347 195.243,-59.1707"/>
</g>
<!-- Compiz -->
<g id="node6" class="node">
<title>Compiz</title>
<polygon fill="none" stroke="#000000" points="357,-63 297,-63 297,-27 357,-27 357,-63"/>
<text text-anchor="middle" x="327" y="-41.3" font-family="Times,serif" font-size="14.00" fill="#000000">Compiz</text>
</g>
<!-- Merger&#45;&gt;Compiz -->
<g id="edge5" class="edge">
<title>Merger&#45;&gt;Compiz</title>
<path fill="none" stroke="#000000" d="M261.1096,-45C269.1427,-45 278.0319,-45 286.6126,-45"/>
<polygon fill="#000000" stroke="#000000" points="286.848,-48.5001 296.8479,-45 286.8479,-41.5001 286.848,-48.5001"/>
</g>
<!-- Layer&#45;2/3 -->
<g id="node4" class="node">
<title>Layer&#45;2/3</title>
<polygon fill="none" stroke="#000000" points="70,-36 0,-36 0,0 70,0 70,-36"/>
<text text-anchor="middle" x="35" y="-14.3" font-family="Times,serif" font-size="14.00" fill="#000000">Layer&#45;2/3</text>
</g>
<!-- Scaler&#45;1 -->
<g id="node5" class="node">
<title>Scaler&#45;1</title>
<polygon fill="none" stroke="#000000" points="168,-36 106,-36 106,0 168,0 168,-36"/>
<text text-anchor="middle" x="137" y="-14.3" font-family="Times,serif" font-size="14.00" fill="#000000">Scaler&#45;1</text>
</g>
<!-- Layer&#45;2/3&#45;&gt;Scaler&#45;1 -->
<g id="edge3" class="edge">
<title>Layer&#45;2/3&#45;&gt;Scaler&#45;1</title>
<path fill="none" stroke="#000000" d="M70.1026,-18C78.3784,-18 87.2747,-18 95.7923,-18"/>
<polygon fill="#000000" stroke="#000000" points="95.927,-21.5001 105.927,-18 95.927,-14.5001 95.927,-21.5001"/>
</g>
<!-- Scaler&#45;1&#45;&gt;Merger -->
<g id="edge4" class="edge">
<title>Scaler&#45;1&#45;&gt;Merger</title>
<path fill="none" stroke="#000000" d="M168.0061,-26.7661C176.305,-29.1124 185.3765,-31.6771 194.0257,-34.1225"/>
<polygon fill="#000000" stroke="#000000" points="193.3385,-37.5653 203.9136,-36.918 195.243,-30.8293 193.3385,-37.5653"/>
</g>
</g>
</svg>
