<?xml version="1.0" encoding="UTF-8" standalone="no"?>
<!DOCTYPE svg PUBLIC "-//W3C//DTD SVG 1.1//EN"
 "http://www.w3.org/Graphics/SVG/1.1/DTD/svg11.dtd">
<!-- Generated by graphviz version 2.40.1 (20161225.0304)
 -->
<!-- Title: %3 Pages: 1 -->
<svg width="1114pt" height="540pt"
 viewBox="0.00 0.00 1114.00 540.00" xmlns="http://www.w3.org/2000/svg" xmlns:xlink="http://www.w3.org/1999/xlink">
<g id="graph0" class="graph" transform="scale(1 1) rotate(0) translate(4 536)">
<title>%3</title>
<polygon fill="#ffffff" stroke="transparent" points="-4,4 -4,-536 1110,-536 1110,4 -4,4"/>
<g id="clust1" class="cluster">
<title>cluster_state</title>
<polygon fill="none" stroke="#000000" stroke-dasharray="5,2" points="8,-324 8,-524 1002,-524 1002,-324 8,-324"/>
<text text-anchor="middle" x="505" y="-508.8" font-family="Times,serif" font-size="14.00" fill="#000000">Free&#45;standing state</text>
</g>
<g id="clust2" class="cluster">
<title>cluster_current</title>
<polygon fill="none" stroke="#000000" stroke-dasharray="5,2" points="98,-8 98,-305 792,-305 792,-8 98,-8"/>
<text text-anchor="middle" x="445" y="-289.8" font-family="Times,serif" font-size="14.00" fill="#000000">Current state</text>
</g>
<!-- drm_atomic_state -->
<g id="node1" class="node">
<title>drm_atomic_state</title>
<polygon fill="none" stroke="#000000" points="635,-493 517,-493 517,-457 635,-457 635,-493"/>
<text text-anchor="middle" x="576" y="-471.3" font-family="Times,serif" font-size="14.00" fill="#000000">drm_atomic_state</text>
</g>
<!-- duplicated drm_plane_state A -->
<g id="node2" class="node">
<title>duplicated drm_plane_state A</title>
<polygon fill="none" stroke="#000000" points="200,-368 16,-368 16,-332 200,-332 200,-368"/>
<text text-anchor="middle" x="108" y="-346.3" font-family="Times,serif" font-size="14.00" fill="#000000">duplicated drm_plane_state A</text>
</g>
<!-- drm_atomic_state&#45;&gt;duplicated drm_plane_state A -->
<g id="edge1" class="edge">
<title>drm_atomic_state&#45;&gt;duplicated drm_plane_state A</title>
<path fill="none" stroke="#000000" d="M516.7275,-459.1687C432.5995,-436.6986 278.4669,-395.5307 185.4062,-370.6747"/>
<polygon fill="#000000" stroke="#000000" points="186.0477,-367.2234 175.4832,-368.0244 184.2413,-373.9864 186.0477,-367.2234"/>
</g>
<!-- duplicated drm_plane_state B -->
<g id="node3" class="node">
<title>duplicated drm_plane_state B</title>
<polygon fill="none" stroke="#000000" points="400,-368 218,-368 218,-332 400,-332 400,-368"/>
<text text-anchor="middle" x="309" y="-346.3" font-family="Times,serif" font-size="14.00" fill="#000000">duplicated drm_plane_state B</text>
</g>
<!-- drm_atomic_state&#45;&gt;duplicated drm_plane_state B -->
<g id="edge2" class="edge">
<title>drm_atomic_state&#45;&gt;duplicated drm_plane_state B</title>
<path fill="none" stroke="#000000" d="M537.4611,-456.9574C489.7415,-434.6168 408.4593,-396.5633 356.8114,-372.3836"/>
<polygon fill="#000000" stroke="#000000" points="358.0679,-369.1073 347.5273,-368.0371 355.0999,-375.447 358.0679,-369.1073"/>
</g>
<!-- duplicated drm_crtc_state -->
<g id="node4" class="node">
<title>duplicated drm_crtc_state</title>
<polygon fill="none" stroke="#000000" points="579.5,-368 418.5,-368 418.5,-332 579.5,-332 579.5,-368"/>
<text text-anchor="middle" x="499" y="-346.3" font-family="Times,serif" font-size="14.00" fill="#000000">duplicated drm_crtc_state</text>
</g>
<!-- drm_atomic_state&#45;&gt;duplicated drm_crtc_state -->
<g id="edge3" class="edge">
<title>drm_atomic_state&#45;&gt;duplicated drm_crtc_state</title>
<path fill="none" stroke="#000000" d="M564.8035,-456.8239C551.8586,-435.8095 530.4291,-401.0213 515.5573,-376.8787"/>
<polygon fill="#000000" stroke="#000000" points="518.4348,-374.8766 510.21,-368.198 512.4748,-378.548 518.4348,-374.8766"/>
</g>
<!-- duplicated drm_connector_state -->
<g id="node5" class="node">
<title>duplicated drm_connector_state</title>
<polygon fill="none" stroke="#000000" points="794,-368 598,-368 598,-332 794,-332 794,-368"/>
<text text-anchor="middle" x="696" y="-346.3" font-family="Times,serif" font-size="14.00" fill="#000000">duplicated drm_connector_state</text>
</g>
<!-- drm_atomic_state&#45;&gt;duplicated drm_connector_state -->
<g id="edge4" class="edge">
<title>drm_atomic_state&#45;&gt;duplicated drm_connector_state</title>
<path fill="none" stroke="#000000" d="M593.449,-456.8239C613.9784,-435.4392 648.2006,-399.7911 671.412,-375.6125"/>
<polygon fill="#000000" stroke="#000000" points="674.1294,-377.8358 678.5299,-368.198 669.0797,-372.988 674.1294,-377.8358"/>
</g>
<!-- duplicated driver private state -->
<g id="node6" class="node">
<title>duplicated driver private state</title>
<polygon fill="none" stroke="#000000" points="994,-368 812,-368 812,-332 994,-332 994,-368"/>
<text text-anchor="middle" x="903" y="-346.3" font-family="Times,serif" font-size="14.00" fill="#000000">duplicated driver private state</text>
</g>
<!-- drm_atomic_state&#45;&gt;duplicated driver private state -->
<g id="edge5" class="edge">
<title>drm_atomic_state&#45;&gt;duplicated driver private state</title>
<path fill="none" stroke="#000000" d="M623.1994,-456.9574C682.2487,-434.385 783.2601,-395.7721 846.4011,-371.6357"/>
<polygon fill="#000000" stroke="#000000" points="847.7239,-374.8771 855.8149,-368.0371 845.2244,-368.3385 847.7239,-374.8771"/>
</g>
<!-- drm_device -->
<g id="node7" class="node">
<title>drm_device</title>
<polygon fill="none" stroke="#000000" points="480,-274 398,-274 398,-238 480,-238 480,-274"/>
<text text-anchor="middle" x="439" y="-252.3" font-family="Times,serif" font-size="14.00" fill="#000000">drm_device</text>
</g>
<!-- drm_atomic_state&#45;&gt;drm_device -->
<g id="edge16" class="edge">
<title>drm_atomic_state&#45;&gt;drm_device</title>
<path fill="none" stroke="#000000" d="M635.127,-473.6872C775.4934,-468.6149 1109.3546,-443.9477 1003,-324 969.2354,-285.92 623.2608,-265.04 490.49,-258.3796"/>
<polygon fill="#000000" stroke="#000000" points="490.3435,-254.8681 480.1828,-257.8697 489.9976,-261.8596 490.3435,-254.8681"/>
<text text-anchor="middle" x="1061.5" y="-389.8" font-family="Times,serif" font-size="14.00" fill="#000000">atomic_commit</text>
</g>
<!-- duplicated drm_plane_state A&#45;&gt;drm_device -->
<!-- drm_plane A -->
<g id="node8" class="node">
<title>drm_plane A</title>
<polygon fill="none" stroke="#000000" points="230.5,-163 139.5,-163 139.5,-127 230.5,-127 230.5,-163"/>
<text text-anchor="middle" x="185" y="-141.3" font-family="Times,serif" font-size="14.00" fill="#000000">drm_plane A</text>
</g>
<!-- drm_device&#45;&gt;drm_plane A -->
<g id="edge6" class="edge">
<title>drm_device&#45;&gt;drm_plane A</title>
<path fill="none" stroke="#000000" d="M397.9082,-238.0426C353.6805,-218.7147 283.285,-187.9513 235.6612,-167.1393"/>
<polygon fill="#000000" stroke="#000000" points="237.0193,-163.9133 226.4545,-163.116 234.2162,-170.3275 237.0193,-163.9133"/>
</g>
<!-- drm_plane B -->
<g id="node9" class="node">
<title>drm_plane B</title>
<polygon fill="none" stroke="#000000" points="370.5,-163 281.5,-163 281.5,-127 370.5,-127 370.5,-163"/>
<text text-anchor="middle" x="326" y="-141.3" font-family="Times,serif" font-size="14.00" fill="#000000">drm_plane B</text>
</g>
<!-- drm_device&#45;&gt;drm_plane B -->
<g id="edge7" class="edge">
<title>drm_device&#45;&gt;drm_plane B</title>
<path fill="none" stroke="#000000" d="M420.5931,-237.9189C401.8784,-219.5354 372.7263,-190.8993 351.7308,-170.2753"/>
<polygon fill="#000000" stroke="#000000" points="353.9857,-167.5842 344.399,-163.0734 349.0803,-172.5779 353.9857,-167.5842"/>
</g>
<!-- drm_crtc -->
<g id="node10" class="node">
<title>drm_crtc</title>
<polygon fill="none" stroke="#000000" points="473,-163 405,-163 405,-127 473,-127 473,-163"/>
<text text-anchor="middle" x="439" y="-141.3" font-family="Times,serif" font-size="14.00" fill="#000000">drm_crtc</text>
</g>
<!-- drm_device&#45;&gt;drm_crtc -->
<g id="edge8" class="edge">
<title>drm_device&#45;&gt;drm_crtc</title>
<path fill="none" stroke="#000000" d="M439,-237.6706C439,-220.2373 439,-193.7482 439,-173.5489"/>
<polygon fill="#000000" stroke="#000000" points="442.5001,-173.3566 439,-163.3566 435.5001,-173.3567 442.5001,-173.3566"/>
</g>
<!-- drm_connector -->
<g id="node11" class="node">
<title>drm_connector</title>
<polygon fill="none" stroke="#000000" points="610.5,-163 507.5,-163 507.5,-127 610.5,-127 610.5,-163"/>
<text text-anchor="middle" x="559" y="-141.3" font-family="Times,serif" font-size="14.00" fill="#000000">drm_connector</text>
</g>
<!-- drm_device&#45;&gt;drm_connector -->
<g id="edge9" class="edge">
<title>drm_device&#45;&gt;drm_connector</title>
<path fill="none" stroke="#000000" d="M458.5471,-237.9189C478.5084,-219.4547 509.6509,-190.6479 531.9682,-170.0044"/>
<polygon fill="#000000" stroke="#000000" points="534.4969,-172.4332 539.4612,-163.0734 529.7435,-167.2945 534.4969,-172.4332"/>
</g>
<!-- driver private object -->
<g id="node12" class="node">
<title>driver private object</title>
<polygon fill="none" stroke="#000000" points="770.5,-163 641.5,-163 641.5,-127 770.5,-127 770.5,-163"/>
<text text-anchor="middle" x="706" y="-141.3" font-family="Times,serif" font-size="14.00" fill="#000000">driver private object</text>
</g>
<!-- drm_device&#45;&gt;driver private object -->
<g id="edge10" class="edge">
<title>drm_device&#45;&gt;driver private object</title>
<path fill="none" stroke="#000000" d="M480.1336,-238.8995C526.5828,-219.5892 602.2929,-188.1142 653.1036,-166.9906"/>
<polygon fill="#000000" stroke="#000000" points="654.7127,-170.1122 662.603,-163.0415 652.0255,-163.6485 654.7127,-170.1122"/>
</g>
<!-- drm_plane_state A -->
<g id="node13" class="node">
<title>drm_plane_state A</title>
<polygon fill="none" stroke="#000000" points="230,-52 106,-52 106,-16 230,-16 230,-52"/>
<text text-anchor="middle" x="168" y="-30.3" font-family="Times,serif" font-size="14.00" fill="#000000">drm_plane_state A</text>
</g>
<!-- drm_plane A&#45;&gt;drm_plane_state A -->
<g id="edge11" class="edge">
<title>drm_plane A&#45;&gt;drm_plane_state A</title>
<path fill="none" stroke="#000000" d="M182.1928,-126.6706C179.5105,-109.1569 175.4285,-82.5039 172.3296,-62.2701"/>
<polygon fill="#000000" stroke="#000000" points="175.785,-61.7115 170.8114,-52.3566 168.8657,-62.7713 175.785,-61.7115"/>
</g>
<!-- drm_plane_state B -->
<g id="node14" class="node">
<title>drm_plane_state B</title>
<polygon fill="none" stroke="#000000" points="370,-52 248,-52 248,-16 370,-16 370,-52"/>
<text text-anchor="middle" x="309" y="-30.3" font-family="Times,serif" font-size="14.00" fill="#000000">drm_plane_state B</text>
</g>
<!-- drm_plane B&#45;&gt;drm_plane_state B -->
<g id="edge12" class="edge">
<title>drm_plane B&#45;&gt;drm_plane_state B</title>
<path fill="none" stroke="#000000" d="M323.1928,-126.6706C320.5105,-109.1569 316.4285,-82.5039 313.3296,-62.2701"/>
<polygon fill="#000000" stroke="#000000" points="316.785,-61.7115 311.8114,-52.3566 309.8657,-62.7713 316.785,-61.7115"/>
</g>
<!-- drm_crtc_state -->
<g id="node15" class="node">
<title>drm_crtc_state</title>
<polygon fill="none" stroke="#000000" points="489.5,-52 388.5,-52 388.5,-16 489.5,-16 489.5,-52"/>
<text text-anchor="middle" x="439" y="-30.3" font-family="Times,serif" font-size="14.00" fill="#000000">drm_crtc_state</text>
</g>
<!-- drm_crtc&#45;&gt;drm_crtc_state -->
<g id="edge13" class="edge">
<title>drm_crtc&#45;&gt;drm_crtc_state</title>
<path fill="none" stroke="#000000" d="M439,-126.6706C439,-109.2373 439,-82.7482 439,-62.5489"/>
<polygon fill="#000000" stroke="#000000" points="442.5001,-62.3566 439,-52.3566 435.5001,-62.3567 442.5001,-62.3566"/>
</g>
<!-- drm_connector_state -->
<g id="node16" class="node">
<title>drm_connector_state</title>
<polygon fill="none" stroke="#000000" points="644,-52 508,-52 508,-16 644,-16 644,-52"/>
<text text-anchor="middle" x="576" y="-30.3" font-family="Times,serif" font-size="14.00" fill="#000000">drm_connector_state</text>
</g>
<!-- drm_connector&#45;&gt;drm_connector_state -->
<g id="edge14" class="edge">
<title>drm_connector&#45;&gt;drm_connector_state</title>
<path fill="none" stroke="#000000" d="M561.8072,-126.6706C564.4895,-109.1569 568.5715,-82.5039 571.6704,-62.2701"/>
<polygon fill="#000000" stroke="#000000" points="575.1343,-62.7713 573.1886,-52.3566 568.215,-61.7115 575.1343,-62.7713"/>
</g>
<!-- driver private state -->
<g id="node17" class="node">
<title>driver private state</title>
<polygon fill="none" stroke="#000000" points="784,-52 662,-52 662,-16 784,-16 784,-52"/>
<text text-anchor="middle" x="723" y="-30.3" font-family="Times,serif" font-size="14.00" fill="#000000">driver private state</text>
</g>
<!-- driver private object&#45;&gt;driver private state -->
<g id="edge15" class="edge">
<title>driver private object&#45;&gt;driver private state</title>
<path fill="none" stroke="#000000" d="M708.8072,-126.6706C711.4895,-109.1569 715.5715,-82.5039 718.6704,-62.2701"/>
<polygon fill="#000000" stroke="#000000" points="722.1343,-62.7713 720.1886,-52.3566 715.215,-61.7115 722.1343,-62.7713"/>
</g>
</g>
</svg>
