<?xml version="1.0" encoding="UTF-8" standalone="no"?>
<!DOCTYPE svg PUBLIC "-//W3C//DTD SVG 1.1//EN"
 "http://www.w3.org/Graphics/SVG/1.1/DTD/svg11.dtd">
<!-- Generated by graphviz version 2.40.1 (20161225.0304)
 -->
<!-- Title: writeback_data_flow Pages: 1 -->
<svg width="461pt" height="98pt"
 viewBox="0.00 0.00 461.00 98.00" xmlns="http://www.w3.org/2000/svg" xmlns:xlink="http://www.w3.org/1999/xlink">
<g id="graph0" class="graph" transform="scale(1 1) rotate(0) translate(4 94)">
<title>writeback_data_flow</title>
<polygon fill="#ffffff" stroke="transparent" points="-4,4 -4,-94 457,-94 457,4 -4,4"/>
<!-- Compiz -->
<g id="node1" class="node">
<title>Compiz</title>
<polygon fill="none" stroke="#000000" points="60,-63 0,-63 0,-27 60,-27 60,-63"/>
<text text-anchor="middle" x="30" y="-41.3" font-family="Times,serif" font-size="14.00" fill="#000000">Compiz</text>
</g>
<!-- Splitter -->
<g id="node2" class="node">
<title>Splitter</title>
<polygon fill="none" stroke="#000000" points="155,-63 96,-63 96,-27 155,-27 155,-63"/>
<text text-anchor="middle" x="125.5" y="-41.3" font-family="Times,serif" font-size="14.00" fill="#000000">Splitter</text>
</g>
<!-- Compiz&#45;&gt;Splitter -->
<g id="edge1" class="edge">
<title>Compiz&#45;&gt;Splitter</title>
<path fill="none" stroke="#000000" d="M60.2168,-45C68.2975,-45 77.1562,-45 85.6693,-45"/>
<polygon fill="#000000" stroke="#000000" points="85.8067,-48.5001 95.8067,-45 85.8067,-41.5001 85.8067,-48.5001"/>
</g>
<!-- Scaler&#45;0 -->
<g id="node3" class="node">
<title>Scaler&#45;0</title>
<polygon fill="none" stroke="#000000" points="253,-90 191,-90 191,-54 253,-54 253,-90"/>
<text text-anchor="middle" x="222" y="-68.3" font-family="Times,serif" font-size="14.00" fill="#000000">Scaler&#45;0</text>
</g>
<!-- Splitter&#45;&gt;Scaler&#45;0 -->
<g id="edge2" class="edge">
<title>Splitter&#45;&gt;Scaler&#45;0</title>
<path fill="none" stroke="#000000" d="M155.2406,-53.3212C163.4488,-55.6178 172.4993,-58.1501 181.2166,-60.5891"/>
<polygon fill="#000000" stroke="#000000" points="180.2813,-63.9618 190.8545,-63.2857 182.1674,-57.2206 180.2813,-63.9618"/>
</g>
<!-- Scaler&#45;1 -->
<g id="node5" class="node">
<title>Scaler&#45;1</title>
<polygon fill="none" stroke="#000000" points="253,-36 191,-36 191,0 253,0 253,-36"/>
<text text-anchor="middle" x="222" y="-14.3" font-family="Times,serif" font-size="14.00" fill="#000000">Scaler&#45;1</text>
</g>
<!-- Splitter&#45;&gt;Scaler&#45;1 -->
<g id="edge4" class="edge">
<title>Splitter&#45;&gt;Scaler&#45;1</title>
<path fill="none" stroke="#000000" d="M155.2406,-36.6788C163.4488,-34.3822 172.4993,-31.8499 181.2166,-29.4109"/>
<polygon fill="#000000" stroke="#000000" points="182.1674,-32.7794 190.8545,-26.7143 180.2813,-26.0382 182.1674,-32.7794"/>
</g>
<!-- Merger -->
<g id="node4" class="node">
<title>Merger</title>
<polygon fill="none" stroke="#000000" points="346,-63 289,-63 289,-27 346,-27 346,-63"/>
<text text-anchor="middle" x="317.5" y="-41.3" font-family="Times,serif" font-size="14.00" fill="#000000">Merger</text>
</g>
<!-- Scaler&#45;0&#45;&gt;Merger -->
<g id="edge3" class="edge">
<title>Scaler&#45;0&#45;&gt;Merger</title>
<path fill="none" stroke="#000000" d="M253.0061,-63.2339C261.305,-60.8876 270.3765,-58.3229 279.0257,-55.8775"/>
<polygon fill="#000000" stroke="#000000" points="280.243,-59.1707 288.9136,-53.082 278.3385,-52.4347 280.243,-59.1707"/>
</g>
<!-- Wb_layer -->
<g id="node6" class="node">
<title>Wb_layer</title>
<polygon fill="none" stroke="#000000" points="453,-63 382,-63 382,-27 453,-27 453,-63"/>
<text text-anchor="middle" x="417.5" y="-41.3" font-family="Times,serif" font-size="14.00" fill="#000000">Wb_layer</text>
</g>
<!-- Merger&#45;&gt;Wb_layer -->
<g id="edge6" class="edge">
<title>Merger&#45;&gt;Wb_layer</title>
<path fill="none" stroke="#000000" d="M346.156,-45C354.1206,-45 362.9747,-45 371.6602,-45"/>
<polygon fill="#000000" stroke="#000000" points="371.7155,-48.5001 381.7154,-45 371.7154,-41.5001 371.7155,-48.5001"/>
</g>
<!-- Scaler&#45;1&#45;&gt;Merger -->
<g id="edge5" class="edge">
<title>Scaler&#45;1&#45;&gt;Merger</title>
<path fill="none" stroke="#000000" d="M253.0061,-26.7661C261.305,-29.1124 270.3765,-31.6771 279.0257,-34.1225"/>
<polygon fill="#000000" stroke="#000000" points="278.3385,-37.5653 288.9136,-36.918 280.243,-30.8293 278.3385,-37.5653"/>
</g>
</g>
</svg>
