<?xml version="1.0" encoding="UTF-8" standalone="no"?>
<!DOCTYPE svg PUBLIC "-//W3C//DTD SVG 1.1//EN"
 "http://www.w3.org/Graphics/SVG/1.1/DTD/svg11.dtd">
<!-- Generated by graphviz version 2.40.1 (20161225.0304)
 -->
<!-- Title: NFC Pages: 1 -->
<svg width="420pt" height="404pt"
 viewBox="0.00 0.00 419.93 404.00" xmlns="http://www.w3.org/2000/svg" xmlns:xlink="http://www.w3.org/1999/xlink">
<g id="graph0" class="graph" transform="scale(1 1) rotate(0) translate(4 400)">
<title>NFC</title>
<polygon fill="#ffffff" stroke="transparent" points="-4,4 -4,-400 415.9325,-400 415.9325,4 -4,4"/>
<!-- cl_nfc -->
<g id="node1" class="node">
<title>cl_nfc</title>
<ellipse fill="none" stroke="#000000" cx="213.9406" cy="-90" rx="57.6901" ry="18"/>
<text text-anchor="middle" x="213.9406" y="-86.3" font-family="Times,serif" font-size="14.00" fill="#000000">mei/bus(nfc)</text>
</g>
<!-- me_cl_nfc -->
<g id="node2" class="node">
<title>me_cl_nfc</title>
<ellipse fill="none" stroke="#000000" cx="213.9406" cy="-18" rx="53.0913" ry="18"/>
<text text-anchor="middle" x="213.9406" y="-14.3" font-family="Times,serif" font-size="14.00" fill="#000000">me fw (nfc)</text>
</g>
<!-- cl_nfc&#45;&gt;me_cl_nfc -->
<g id="edge1" class="edge">
<title>cl_nfc&#45;&gt;me_cl_nfc</title>
<path fill="none" stroke="#000000" d="M213.9406,-71.8314C213.9406,-64.131 213.9406,-54.9743 213.9406,-46.4166"/>
<polygon fill="#000000" stroke="#000000" points="217.4407,-46.4132 213.9406,-36.4133 210.4407,-46.4133 217.4407,-46.4132"/>
</g>
<!-- drivers/nfc/mei_phy -->
<g id="node3" class="node">
<title>drivers/nfc/mei_phy</title>
<ellipse fill="none" stroke="#000000" cx="213.9406" cy="-162" rx="83.6854" ry="18"/>
<text text-anchor="middle" x="213.9406" y="-158.3" font-family="Times,serif" font-size="14.00" fill="#000000">drivers/nfc/mei_phy</text>
</g>
<!-- drivers/nfc/mei_phy&#45;&gt;cl_nfc -->
<g id="edge2" class="edge">
<title>drivers/nfc/mei_phy&#45;&gt;cl_nfc</title>
<path fill="none" stroke="#000000" d="M213.9406,-143.8314C213.9406,-136.131 213.9406,-126.9743 213.9406,-118.4166"/>
<polygon fill="#000000" stroke="#000000" points="217.4407,-118.4132 213.9406,-108.4133 210.4407,-118.4133 217.4407,-118.4132"/>
</g>
<!-- drivers/nfc/microread/mei -->
<g id="node4" class="node">
<title>drivers/nfc/microread/mei</title>
<ellipse fill="none" stroke="#000000" cx="105.9406" cy="-234" rx="105.8812" ry="18"/>
<text text-anchor="middle" x="105.9406" y="-230.3" font-family="Times,serif" font-size="14.00" fill="#000000">drivers/nfc/microread/mei</text>
</g>
<!-- drivers/nfc/microread/mei&#45;&gt;cl_nfc -->
<g id="edge3" class="edge">
<title>drivers/nfc/microread/mei&#45;&gt;cl_nfc</title>
<path fill="none" stroke="#000000" d="M104.6357,-215.763C104.1656,-196.2945 106.1663,-165.3682 120.9406,-144 131.8705,-128.1919 149.0472,-116.3657 165.6799,-107.8751"/>
<polygon fill="#000000" stroke="#000000" points="167.3139,-110.9733 174.8211,-103.4972 164.2903,-104.66 167.3139,-110.9733"/>
</g>
<!-- drivers/nfc/microread/mei&#45;&gt;drivers/nfc/mei_phy -->
<g id="edge4" class="edge">
<title>drivers/nfc/microread/mei&#45;&gt;drivers/nfc/mei_phy</title>
<path fill="none" stroke="#000000" d="M132.3604,-216.3868C146.5594,-206.9208 164.2362,-195.1363 179.5015,-184.9594"/>
<polygon fill="#000000" stroke="#000000" points="181.7872,-187.6421 188.1663,-179.1829 177.9043,-181.8178 181.7872,-187.6421"/>
</g>
<!-- drivers/nfc/pn544/mei -->
<g id="node5" class="node">
<title>drivers/nfc/pn544/mei</title>
<ellipse fill="none" stroke="#000000" cx="320.9406" cy="-234" rx="90.9839" ry="18"/>
<text text-anchor="middle" x="320.9406" y="-230.3" font-family="Times,serif" font-size="14.00" fill="#000000">drivers/nfc/pn544/mei</text>
</g>
<!-- drivers/nfc/pn544/mei&#45;&gt;cl_nfc -->
<g id="edge5" class="edge">
<title>drivers/nfc/pn544/mei&#45;&gt;cl_nfc</title>
<path fill="none" stroke="#000000" d="M322.4854,-215.7793C323.2035,-196.3249 321.5734,-165.4105 306.9406,-144 296.0965,-128.133 278.9365,-116.2952 262.2933,-107.8119"/>
<polygon fill="#000000" stroke="#000000" points="263.6755,-104.5934 253.1436,-103.4398 260.6574,-110.9093 263.6755,-104.5934"/>
</g>
<!-- drivers/nfc/pn544/mei&#45;&gt;drivers/nfc/mei_phy -->
<g id="edge6" class="edge">
<title>drivers/nfc/pn544/mei&#45;&gt;drivers/nfc/mei_phy</title>
<path fill="none" stroke="#000000" d="M295.0389,-216.5708C280.9759,-207.1078 263.4094,-195.2874 248.2246,-185.0696"/>
<polygon fill="#000000" stroke="#000000" points="249.8543,-181.9477 239.6038,-179.2687 245.9464,-187.7553 249.8543,-181.9477"/>
</g>
<!-- net/nfc -->
<g id="node6" class="node">
<title>net/nfc</title>
<ellipse fill="none" stroke="#000000" cx="212.9406" cy="-306" rx="36.2938" ry="18"/>
<text text-anchor="middle" x="212.9406" y="-302.3" font-family="Times,serif" font-size="14.00" fill="#000000">net/nfc</text>
</g>
<!-- net/nfc&#45;&gt;drivers/nfc/microread/mei -->
<g id="edge7" class="edge">
<title>net/nfc&#45;&gt;drivers/nfc/microread/mei</title>
<path fill="none" stroke="#000000" d="M191.2876,-291.4297C176.7272,-281.6321 157.2187,-268.5049 140.5285,-257.2741"/>
<polygon fill="#000000" stroke="#000000" points="142.3492,-254.2806 132.0986,-251.6017 138.4412,-260.0883 142.3492,-254.2806"/>
</g>
<!-- net/nfc&#45;&gt;drivers/nfc/pn544/mei -->
<g id="edge8" class="edge">
<title>net/nfc&#45;&gt;drivers/nfc/pn544/mei</title>
<path fill="none" stroke="#000000" d="M234.796,-291.4297C249.5975,-281.5621 269.4649,-268.3172 286.39,-257.0337"/>
<polygon fill="#000000" stroke="#000000" points="288.5511,-259.7995 294.9302,-251.3403 284.6682,-253.9751 288.5511,-259.7995"/>
</g>
<!-- neard -->
<g id="node7" class="node">
<title>neard</title>
<ellipse fill="none" stroke="#000000" cx="212.9406" cy="-378" rx="31.3957" ry="18"/>
<text text-anchor="middle" x="212.9406" y="-374.3" font-family="Times,serif" font-size="14.00" fill="#000000">neard</text>
</g>
<!-- neard&#45;&gt;net/nfc -->
<g id="edge9" class="edge">
<title>neard&#45;&gt;net/nfc</title>
<path fill="none" stroke="#000000" d="M212.9406,-359.8314C212.9406,-352.131 212.9406,-342.9743 212.9406,-334.4166"/>
<polygon fill="#000000" stroke="#000000" points="216.4407,-334.4132 212.9406,-324.4133 209.4407,-334.4133 216.4407,-334.4132"/>
</g>
</g>
</svg>
