<?xml version="1.0" encoding="UTF-8" standalone="no"?>
<!DOCTYPE svg PUBLIC "-//W3C//DTD SVG 1.1//EN"
 "http://www.w3.org/Graphics/SVG/1.1/DTD/svg11.dtd">
<!-- Generated by graphviz version 2.40.1 (20161225.0304)
 -->
<!-- Title: KMS Pages: 1 -->
<svg width="378pt" height="409pt"
 viewBox="0.00 0.00 378.00 409.00" xmlns="http://www.w3.org/2000/svg" xmlns:xlink="http://www.w3.org/1999/xlink">
<g id="graph0" class="graph" transform="scale(1 1) rotate(0) translate(4 405)">
<title>KMS</title>
<polygon fill="#ffffff" stroke="transparent" points="-4,4 -4,-405 374,-405 374,4 -4,4"/>
<g id="clust1" class="cluster">
<title>cluster_static</title>
<polygon fill="none" stroke="#000000" stroke-dasharray="5,2" points="67,-91 67,-310 310,-310 310,-91 67,-91"/>
<text text-anchor="middle" x="188.5" y="-294.8" font-family="Times,serif" font-size="14.00" fill="#000000">Static Objects</text>
</g>
<g id="clust2" class="cluster">
<title>cluster_user_created</title>
<polygon fill="none" stroke="#000000" stroke-dasharray="5,2" points="8,-318 8,-393 362,-393 362,-318 8,-318"/>
<text text-anchor="middle" x="185" y="-377.8" font-family="Times,serif" font-size="14.00" fill="#000000">Userspace&#45;Created</text>
</g>
<g id="clust3" class="cluster">
<title>cluster_connector</title>
<polygon fill="none" stroke="#000000" stroke-dasharray="5,2" points="55,-8 55,-83 322,-83 322,-8 55,-8"/>
<text text-anchor="middle" x="188.5" y="-67.8" font-family="Times,serif" font-size="14.00" fill="#000000">Hotpluggable</text>
</g>
<!-- drm_plane A -->
<g id="node1" class="node">
<title>drm_plane A</title>
<polygon fill="#d3d3d3" stroke="#000000" points="289.5,-279 198.5,-279 198.5,-243 289.5,-243 289.5,-279"/>
<text text-anchor="middle" x="244" y="-257.3" font-family="Times,serif" font-size="14.00" fill="#000000">drm_plane A</text>
</g>
<!-- drm_crtc -->
<g id="node2" class="node">
<title>drm_crtc</title>
<polygon fill="#d3d3d3" stroke="#000000" points="167,-207 99,-207 99,-171 167,-171 167,-207"/>
<text text-anchor="middle" x="133" y="-185.3" font-family="Times,serif" font-size="14.00" fill="#000000">drm_crtc</text>
</g>
<!-- drm_plane A&#45;&gt;drm_crtc -->
<g id="edge1" class="edge">
<title>drm_plane A&#45;&gt;drm_crtc</title>
<path fill="none" stroke="#000000" d="M215.99,-242.8314C201.9239,-233.7074 184.706,-222.539 169.6067,-212.7449"/>
<polygon fill="#000000" stroke="#000000" points="171.2953,-209.6684 161.001,-207.1628 167.486,-215.5412 171.2953,-209.6684"/>
</g>
<!-- drm_encoder A -->
<g id="node4" class="node">
<title>drm_encoder A</title>
<polygon fill="#d3d3d3" stroke="#000000" points="180.5,-135 75.5,-135 75.5,-99 180.5,-99 180.5,-135"/>
<text text-anchor="middle" x="128" y="-113.3" font-family="Times,serif" font-size="14.00" fill="#000000">drm_encoder A</text>
</g>
<!-- drm_crtc&#45;&gt;drm_encoder A -->
<g id="edge3" class="edge">
<title>drm_crtc&#45;&gt;drm_encoder A</title>
<path fill="none" stroke="#000000" d="M131.7383,-170.8314C131.2035,-163.131 130.5677,-153.9743 129.9734,-145.4166"/>
<polygon fill="#000000" stroke="#000000" points="133.4632,-145.1467 129.2787,-135.4133 126.48,-145.6317 133.4632,-145.1467"/>
</g>
<!-- drm_encoder B -->
<g id="node5" class="node">
<title>drm_encoder B</title>
<polygon fill="#d3d3d3" stroke="#000000" points="301.5,-135 198.5,-135 198.5,-99 301.5,-99 301.5,-135"/>
<text text-anchor="middle" x="250" y="-113.3" font-family="Times,serif" font-size="14.00" fill="#000000">drm_encoder B</text>
</g>
<!-- drm_crtc&#45;&gt;drm_encoder B -->
<g id="edge4" class="edge">
<title>drm_crtc&#45;&gt;drm_encoder B</title>
<path fill="none" stroke="#000000" d="M162.524,-170.8314C177.4891,-161.6221 195.8386,-150.3301 211.8603,-140.4706"/>
<polygon fill="#000000" stroke="#000000" points="213.8032,-143.3847 220.4854,-135.1628 210.1345,-137.423 213.8032,-143.3847"/>
</g>
<!-- drm_plane B -->
<g id="node3" class="node">
<title>drm_plane B</title>
<polygon fill="#d3d3d3" stroke="#000000" points="170.5,-279 81.5,-279 81.5,-243 170.5,-243 170.5,-279"/>
<text text-anchor="middle" x="126" y="-257.3" font-family="Times,serif" font-size="14.00" fill="#000000">drm_plane B</text>
</g>
<!-- drm_plane B&#45;&gt;drm_crtc -->
<g id="edge2" class="edge">
<title>drm_plane B&#45;&gt;drm_crtc</title>
<path fill="none" stroke="#000000" d="M127.7664,-242.8314C128.515,-235.131 129.4053,-225.9743 130.2373,-217.4166"/>
<polygon fill="#000000" stroke="#000000" points="133.7256,-217.7051 131.2098,-207.4133 126.7585,-217.0276 133.7256,-217.7051"/>
</g>
<!-- drm_connector A -->
<g id="node8" class="node">
<title>drm_connector A</title>
<polygon fill="none" stroke="#000000" points="180.5,-52 63.5,-52 63.5,-16 180.5,-16 180.5,-52"/>
<text text-anchor="middle" x="122" y="-30.3" font-family="Times,serif" font-size="14.00" fill="#000000">drm_connector A</text>
</g>
<!-- drm_encoder A&#45;&gt;drm_connector A -->
<g id="edge7" class="edge">
<title>drm_encoder A&#45;&gt;drm_connector A</title>
<path fill="none" stroke="#000000" d="M126.6981,-98.9902C125.925,-88.2963 124.9277,-74.4994 124.0509,-62.3706"/>
<polygon fill="#000000" stroke="#000000" points="127.5321,-61.9828 123.3201,-52.2612 120.5503,-62.4876 127.5321,-61.9828"/>
</g>
<!-- drm_connector B -->
<g id="node9" class="node">
<title>drm_connector B</title>
<polygon fill="none" stroke="#000000" points="313.5,-52 198.5,-52 198.5,-16 313.5,-16 313.5,-52"/>
<text text-anchor="middle" x="256" y="-30.3" font-family="Times,serif" font-size="14.00" fill="#000000">drm_connector B</text>
</g>
<!-- drm_encoder B&#45;&gt;drm_connector B -->
<g id="edge8" class="edge">
<title>drm_encoder B&#45;&gt;drm_connector B</title>
<path fill="none" stroke="#000000" d="M251.3019,-98.9902C252.075,-88.2963 253.0723,-74.4994 253.9491,-62.3706"/>
<polygon fill="#000000" stroke="#000000" points="257.4497,-62.4876 254.6799,-52.2612 250.4679,-61.9828 257.4497,-62.4876"/>
</g>
<!-- drm_framebuffer 1 -->
<g id="node6" class="node">
<title>drm_framebuffer 1</title>
<ellipse fill="none" stroke="#000000" cx="274" cy="-344" rx="79.8859" ry="18"/>
<text text-anchor="middle" x="274" y="-340.3" font-family="Times,serif" font-size="14.00" fill="#000000">drm_framebuffer 1</text>
</g>
<!-- drm_framebuffer 1&#45;&gt;drm_plane A -->
<g id="edge5" class="edge">
<title>drm_framebuffer 1&#45;&gt;drm_plane A</title>
<path fill="none" stroke="#000000" d="M267.4904,-325.9902C263.5861,-315.1883 258.5375,-301.2204 254.1218,-289.0036"/>
<polygon fill="#000000" stroke="#000000" points="257.2913,-287.476 250.6004,-279.2612 250.7082,-289.8555 257.2913,-287.476"/>
</g>
<!-- drm_framebuffer 2 -->
<g id="node7" class="node">
<title>drm_framebuffer 2</title>
<ellipse fill="none" stroke="#000000" cx="96" cy="-344" rx="79.8859" ry="18"/>
<text text-anchor="middle" x="96" y="-340.3" font-family="Times,serif" font-size="14.00" fill="#000000">drm_framebuffer 2</text>
</g>
<!-- drm_framebuffer 2&#45;&gt;drm_plane B -->
<g id="edge6" class="edge">
<title>drm_framebuffer 2&#45;&gt;drm_plane B</title>
<path fill="none" stroke="#000000" d="M102.5096,-325.9902C106.4139,-315.1883 111.4625,-301.2204 115.8782,-289.0036"/>
<polygon fill="#000000" stroke="#000000" points="119.2918,-289.8555 119.3996,-279.2612 112.7087,-287.476 119.2918,-289.8555"/>
</g>
</g>
</svg>
