<?xml version="1.0" encoding="UTF-8" standalone="no"?>
<!DOCTYPE svg PUBLIC "-//W3C//DTD SVG 1.1//EN"
 "http://www.w3.org/Graphics/SVG/1.1/DTD/svg11.dtd">
<!-- Generated by graphviz version 2.40.1 (20161225.0304)
 -->
<!-- Title: IPU3 ImgU Pages: 1 -->
<svg width="645pt" height="314pt"
 viewBox="0.00 0.00 645.00 314.00" xmlns="http://www.w3.org/2000/svg" xmlns:xlink="http://www.w3.org/1999/xlink">
<g id="graph0" class="graph" transform="scale(1 1) rotate(0) translate(4 310)">
<title>IPU3 ImgU</title>
<polygon fill="#ffffff" stroke="transparent" points="-4,4 -4,-310 641,-310 641,4 -4,4"/>
<!-- a -->
<g id="node1" class="node">
<title>a</title>
<polygon fill="none" stroke="#000000" points="158.5,-306 82.5,-306 82.5,-270 158.5,-270 158.5,-306"/>
<text text-anchor="middle" x="120.5" y="-284.3" font-family="Times,serif" font-size="14.00" fill="#000000">Raw pixels</text>
</g>
<!-- b -->
<g id="node2" class="node">
<title>b</title>
<polygon fill="none" stroke="#000000" points="182,-252 59,-252 59,-216 182,-216 182,-252"/>
<text text-anchor="middle" x="120.5" y="-230.3" font-family="Times,serif" font-size="14.00" fill="#000000">Bayer Downscaling</text>
</g>
<!-- a&#45;&gt;b -->
<g id="edge1" class="edge">
<title>a&#45;&gt;b</title>
<path fill="none" stroke="#000000" d="M121,-269.7181C121,-269.7181 121,-262.2631 121,-262.2631"/>
<polygon fill="#000000" stroke="#000000" points="124.5001,-262.2631 121,-252.2631 117.5001,-262.2631 124.5001,-262.2631"/>
</g>
<!-- g -->
<g id="node7" class="node">
<title>g</title>
<polygon fill="none" stroke="#000000" points="425,-306 282,-306 282,-270 425,-270 425,-306"/>
<text text-anchor="middle" x="353.5" y="-284.3" font-family="Times,serif" font-size="14.00" fill="#000000">Bayer Noise Reduction</text>
</g>
<!-- a&#45;&gt;g -->
<!-- c -->
<g id="node3" class="node">
<title>c</title>
<polygon fill="none" stroke="#000000" points="198.5,-198 42.5,-198 42.5,-162 198.5,-162 198.5,-198"/>
<text text-anchor="middle" x="120.5" y="-176.3" font-family="Times,serif" font-size="14.00" fill="#000000">Optical Black Correction</text>
</g>
<!-- b&#45;&gt;c -->
<g id="edge2" class="edge">
<title>b&#45;&gt;c</title>
<path fill="none" stroke="#000000" d="M121,-215.7181C121,-215.7181 121,-208.2631 121,-208.2631"/>
<polygon fill="#000000" stroke="#000000" points="124.5001,-208.2631 121,-198.2631 117.5001,-208.2631 124.5001,-208.2631"/>
</g>
<!-- d -->
<g id="node4" class="node">
<title>d</title>
<polygon fill="none" stroke="#000000" points="166.5,-144 74.5,-144 74.5,-108 166.5,-108 166.5,-144"/>
<text text-anchor="middle" x="120.5" y="-122.3" font-family="Times,serif" font-size="14.00" fill="#000000">Linearization</text>
</g>
<!-- c&#45;&gt;d -->
<g id="edge3" class="edge">
<title>c&#45;&gt;d</title>
<path fill="none" stroke="#000000" d="M121,-161.7181C121,-161.7181 121,-154.2631 121,-154.2631"/>
<polygon fill="#000000" stroke="#000000" points="124.5001,-154.2631 121,-144.2631 117.5001,-154.2631 124.5001,-154.2631"/>
</g>
<!-- e -->
<g id="node5" class="node">
<title>e</title>
<polygon fill="none" stroke="#000000" points="198,-90 43,-90 43,-54 198,-54 198,-90"/>
<text text-anchor="middle" x="120.5" y="-68.3" font-family="Times,serif" font-size="14.00" fill="#000000">Lens Shading Correction</text>
</g>
<!-- d&#45;&gt;e -->
<g id="edge4" class="edge">
<title>d&#45;&gt;e</title>
<path fill="none" stroke="#000000" d="M121,-107.7181C121,-107.7181 121,-100.2631 121,-100.2631"/>
<polygon fill="#000000" stroke="#000000" points="124.5001,-100.2631 121,-90.2631 117.5001,-100.2631 124.5001,-100.2631"/>
</g>
<!-- f -->
<g id="node6" class="node">
<title>f</title>
<polygon fill="none" stroke="#000000" points="241,-36 0,-36 0,0 241,0 241,-36"/>
<text text-anchor="middle" x="120.5" y="-14.3" font-family="Times,serif" font-size="14.00" fill="#000000">White Balance / Exposure / Focus Apply</text>
</g>
<!-- e&#45;&gt;f -->
<g id="edge5" class="edge">
<title>e&#45;&gt;f</title>
<path fill="none" stroke="#000000" d="M121,-53.7181C121,-53.7181 121,-46.2631 121,-46.2631"/>
<polygon fill="#000000" stroke="#000000" points="124.5001,-46.2631 121,-36.2631 117.5001,-46.2631 124.5001,-46.2631"/>
</g>
<!-- f&#45;&gt;g -->
<g id="edge18" class="edge">
<title>f&#45;&gt;g</title>
<path fill="none" stroke="#000000" d="M220,-36.1458C220,-95.7909 220,-282 220,-282 220,-282 271.6699,-282 271.6699,-282"/>
<polygon fill="#000000" stroke="#000000" points="271.6699,-285.5001 281.6699,-282 271.6699,-278.5001 271.6699,-285.5001"/>
</g>
<!-- h -->
<g id="node8" class="node">
<title>h</title>
<polygon fill="none" stroke="#000000" points="380.5,-252 326.5,-252 326.5,-216 380.5,-216 380.5,-252"/>
<text text-anchor="middle" x="353.5" y="-230.3" font-family="Times,serif" font-size="14.00" fill="#000000">ANR</text>
</g>
<!-- g&#45;&gt;h -->
<g id="edge6" class="edge">
<title>g&#45;&gt;h</title>
<path fill="none" stroke="#000000" d="M354,-269.7181C354,-269.7181 354,-262.2631 354,-262.2631"/>
<polygon fill="#000000" stroke="#000000" points="357.5001,-262.2631 354,-252.2631 350.5001,-262.2631 357.5001,-262.2631"/>
</g>
<!-- m -->
<g id="node13" class="node">
<title>m</title>
<polygon fill="none" stroke="#000000" points="622.5,-306 480.5,-306 480.5,-270 622.5,-270 622.5,-306"/>
<text text-anchor="middle" x="551.5" y="-284.3" font-family="Times,serif" font-size="14.00" fill="#000000">Chroma Down Scaling</text>
</g>
<!-- g&#45;&gt;m -->
<!-- i -->
<g id="node9" class="node">
<title>i</title>
<polygon fill="none" stroke="#000000" points="398,-198 309,-198 309,-162 398,-162 398,-198"/>
<text text-anchor="middle" x="353.5" y="-176.3" font-family="Times,serif" font-size="14.00" fill="#000000">Demosaicing</text>
</g>
<!-- h&#45;&gt;i -->
<g id="edge7" class="edge">
<title>h&#45;&gt;i</title>
<path fill="none" stroke="#000000" d="M354,-215.7181C354,-215.7181 354,-208.2631 354,-208.2631"/>
<polygon fill="#000000" stroke="#000000" points="357.5001,-208.2631 354,-198.2631 350.5001,-208.2631 357.5001,-208.2631"/>
</g>
<!-- j -->
<g id="node10" class="node">
<title>j</title>
<polygon fill="none" stroke="#000000" points="430,-144 277,-144 277,-108 430,-108 430,-144"/>
<text text-anchor="middle" x="353.5" y="-122.3" font-family="Times,serif" font-size="14.00" fill="#000000">Color Correction Matrix</text>
</g>
<!-- i&#45;&gt;j -->
<g id="edge8" class="edge">
<title>i&#45;&gt;j</title>
<path fill="none" stroke="#000000" d="M354,-161.7181C354,-161.7181 354,-154.2631 354,-154.2631"/>
<polygon fill="#000000" stroke="#000000" points="357.5001,-154.2631 354,-144.2631 350.5001,-154.2631 357.5001,-154.2631"/>
</g>
<!-- k -->
<g id="node11" class="node">
<title>k</title>
<polygon fill="none" stroke="#000000" points="414.5,-90 292.5,-90 292.5,-54 414.5,-54 414.5,-90"/>
<text text-anchor="middle" x="353.5" y="-68.3" font-family="Times,serif" font-size="14.00" fill="#000000">Gamma correction</text>
</g>
<!-- j&#45;&gt;k -->
<g id="edge9" class="edge">
<title>j&#45;&gt;k</title>
<path fill="none" stroke="#000000" d="M354,-107.7181C354,-107.7181 354,-100.2631 354,-100.2631"/>
<polygon fill="#000000" stroke="#000000" points="357.5001,-100.2631 354,-90.2631 350.5001,-100.2631 357.5001,-100.2631"/>
</g>
<!-- l -->
<g id="node12" class="node">
<title>l</title>
<polygon fill="none" stroke="#000000" points="429,-36 278,-36 278,0 429,0 429,-36"/>
<text text-anchor="middle" x="353.5" y="-14.3" font-family="Times,serif" font-size="14.00" fill="#000000">Color Space Conversion</text>
</g>
<!-- k&#45;&gt;l -->
<g id="edge10" class="edge">
<title>k&#45;&gt;l</title>
<path fill="none" stroke="#000000" d="M354,-53.7181C354,-53.7181 354,-46.2631 354,-46.2631"/>
<polygon fill="#000000" stroke="#000000" points="357.5001,-46.2631 354,-36.2631 350.5001,-46.2631 357.5001,-46.2631"/>
</g>
<!-- l&#45;&gt;m -->
<g id="edge19" class="edge">
<title>l&#45;&gt;m</title>
<path fill="none" stroke="#000000" d="M429.3298,-18C440.3158,-18 448,-18 448,-18 448,-18 448,-282 448,-282 448,-282 470.4641,-282 470.4641,-282"/>
<polygon fill="#000000" stroke="#000000" points="470.4641,-285.5001 480.4641,-282 470.464,-278.5001 470.4641,-285.5001"/>
</g>
<!-- n -->
<g id="node14" class="node">
<title>n</title>
<polygon fill="none" stroke="#000000" points="637,-252 466,-252 466,-216 637,-216 637,-252"/>
<text text-anchor="middle" x="551.5" y="-230.3" font-family="Times,serif" font-size="14.00" fill="#000000">Chromatic Noise Reduction</text>
</g>
<!-- m&#45;&gt;n -->
<g id="edge11" class="edge">
<title>m&#45;&gt;n</title>
<path fill="none" stroke="#000000" d="M552,-269.7181C552,-269.7181 552,-262.2631 552,-262.2631"/>
<polygon fill="#000000" stroke="#000000" points="555.5001,-262.2631 552,-252.2631 548.5001,-262.2631 555.5001,-262.2631"/>
</g>
<!-- o -->
<g id="node15" class="node">
<title>o</title>
<polygon fill="none" stroke="#000000" points="624,-198 479,-198 479,-162 624,-162 624,-198"/>
<text text-anchor="middle" x="551.5" y="-176.3" font-family="Times,serif" font-size="14.00" fill="#000000">Total Color Correction</text>
</g>
<!-- n&#45;&gt;o -->
<g id="edge12" class="edge">
<title>n&#45;&gt;o</title>
<path fill="none" stroke="#000000" d="M552,-215.7181C552,-215.7181 552,-208.2631 552,-208.2631"/>
<polygon fill="#000000" stroke="#000000" points="555.5001,-208.2631 552,-198.2631 548.5001,-208.2631 555.5001,-208.2631"/>
</g>
<!-- p -->
<g id="node16" class="node">
<title>p</title>
<polygon fill="none" stroke="#000000" points="578.5,-144 524.5,-144 524.5,-108 578.5,-108 578.5,-144"/>
<text text-anchor="middle" x="551.5" y="-122.3" font-family="Times,serif" font-size="14.00" fill="#000000">XNR3</text>
</g>
<!-- o&#45;&gt;p -->
<g id="edge13" class="edge">
<title>o&#45;&gt;p</title>
<path fill="none" stroke="#000000" d="M552,-161.7181C552,-161.7181 552,-154.2631 552,-154.2631"/>
<polygon fill="#000000" stroke="#000000" points="555.5001,-154.2631 552,-144.2631 548.5001,-154.2631 555.5001,-154.2631"/>
</g>
<!-- q -->
<g id="node17" class="node">
<title>q</title>
<polygon fill="none" stroke="#000000" points="578.5,-90 524.5,-90 524.5,-54 578.5,-54 578.5,-90"/>
<text text-anchor="middle" x="551.5" y="-68.3" font-family="Times,serif" font-size="14.00" fill="#000000">TNR</text>
</g>
<!-- p&#45;&gt;q -->
<g id="edge14" class="edge">
<title>p&#45;&gt;q</title>
<path fill="none" stroke="#000000" d="M552,-107.7181C552,-107.7181 552,-100.2631 552,-100.2631"/>
<polygon fill="#000000" stroke="#000000" points="555.5001,-100.2631 552,-90.2631 548.5001,-100.2631 555.5001,-100.2631"/>
</g>
<!-- r -->
<g id="node18" class="node">
<title>r</title>
<polygon fill="none" stroke="#000000" points="578.5,-36 524.5,-36 524.5,0 578.5,0 578.5,-36"/>
<text text-anchor="middle" x="551.5" y="-14.3" font-family="Times,serif" font-size="14.00" fill="#000000">DDR</text>
</g>
<!-- q&#45;&gt;r -->
<g id="edge15" class="edge">
<title>q&#45;&gt;r</title>
<path fill="none" stroke="#000000" d="M552,-53.7181C552,-53.7181 552,-46.2631 552,-46.2631"/>
<polygon fill="#000000" stroke="#000000" points="555.5001,-46.2631 552,-36.2631 548.5001,-46.2631 555.5001,-46.2631"/>
</g>
</g>
</svg>
