<?xml version="1.0" encoding="UTF-8" standalone="no"?>
<!DOCTYPE svg PUBLIC "-//W3C//DTD SVG 1.1//EN"
 "http://www.w3.org/Graphics/SVG/1.1/DTD/svg11.dtd">
<!-- Generated by graphviz version 2.40.1 (20161225.0304)
 -->
<!-- Title: board Pages: 1 -->
<svg width="322pt" height="358pt"
 viewBox="0.00 0.00 322.00 358.00" xmlns="http://www.w3.org/2000/svg" xmlns:xlink="http://www.w3.org/1999/xlink">
<g id="graph0" class="graph" transform="scale(1 1) rotate(0) translate(4 354)">
<title>board</title>
<polygon fill="#ffffff" stroke="transparent" points="-4,4 -4,-354 318,-354 318,4 -4,4"/>
<!-- scaler -->
<g id="node1" class="node">
<title>scaler</title>
<path fill="#add8e6" stroke="#000000" d="M159.5,-103.5C159.5,-103.5 232.5,-103.5 232.5,-103.5 238.5,-103.5 244.5,-109.5 244.5,-115.5 244.5,-115.5 244.5,-129.5 244.5,-129.5 244.5,-135.5 238.5,-141.5 232.5,-141.5 232.5,-141.5 159.5,-141.5 159.5,-141.5 153.5,-141.5 147.5,-135.5 147.5,-129.5 147.5,-129.5 147.5,-115.5 147.5,-115.5 147.5,-109.5 153.5,-103.5 159.5,-103.5"/>
<text text-anchor="middle" x="159" y="-118.8" font-family="Times,serif" font-size="14.00" fill="#000000">0</text>
<polyline fill="none" stroke="#000000" points="170.5,-103.5 170.5,-141.5 "/>
<text text-anchor="middle" x="196" y="-126.3" font-family="Times,serif" font-size="14.00" fill="#000000">Host</text>
<text text-anchor="middle" x="196" y="-111.3" font-family="Times,serif" font-size="14.00" fill="#000000">Scaler</text>
<polyline fill="none" stroke="#000000" points="221.5,-103.5 221.5,-141.5 "/>
<text text-anchor="middle" x="233" y="-118.8" font-family="Times,serif" font-size="14.00" fill="#000000">1</text>
</g>
<!-- io -->
<g id="node4" class="node">
<title>io</title>
<path fill="#7fffd4" stroke="#000000" d="M234,-.5C234,-.5 296,-.5 296,-.5 302,-.5 308,-6.5 308,-12.5 308,-12.5 308,-24.5 308,-24.5 308,-30.5 302,-36.5 296,-36.5 296,-36.5 234,-36.5 234,-36.5 228,-36.5 222,-30.5 222,-24.5 222,-24.5 222,-12.5 222,-12.5 222,-6.5 228,-.5 234,-.5"/>
<text text-anchor="middle" x="233.5" y="-14.8" font-family="Times,serif" font-size="14.00" fill="#000000">0</text>
<polyline fill="none" stroke="#000000" points="245,-.5 245,-36.5 "/>
<text text-anchor="middle" x="276.5" y="-14.8" font-family="Times,serif" font-size="14.00" fill="#000000">V4L I/O</text>
</g>
<!-- scaler&#45;&gt;io -->
<g id="edge3" class="edge">
<title>scaler:scaler_1&#45;&gt;io:io_0</title>
<path fill="none" stroke="#0000ff" d="M233,-103.5C233,-77.4444 233,-68.4878 233,-46.707"/>
<polygon fill="#0000ff" stroke="#0000ff" points="236.5001,-46.5 233,-36.5 229.5001,-46.5 236.5001,-46.5"/>
<text text-anchor="middle" x="273.5" y="-73.8" font-family="Times,serif" font-size="14.00" fill="#000000">HQ: 1280x720</text>
<text text-anchor="middle" x="273.5" y="-58.8" font-family="Times,serif" font-size="14.00" fill="#000000">HS: 1280x720</text>
</g>
<!-- frontend -->
<g id="node2" class="node">
<title>frontend</title>
<path fill="#add8e6" stroke="#000000" d="M67.5,-208.5C67.5,-208.5 158.5,-208.5 158.5,-208.5 164.5,-208.5 170.5,-214.5 170.5,-220.5 170.5,-220.5 170.5,-234.5 170.5,-234.5 170.5,-240.5 164.5,-246.5 158.5,-246.5 158.5,-246.5 67.5,-246.5 67.5,-246.5 61.5,-246.5 55.5,-240.5 55.5,-234.5 55.5,-234.5 55.5,-220.5 55.5,-220.5 55.5,-214.5 61.5,-208.5 67.5,-208.5"/>
<text text-anchor="middle" x="67" y="-223.8" font-family="Times,serif" font-size="14.00" fill="#000000">0</text>
<polyline fill="none" stroke="#000000" points="78.5,-208.5 78.5,-246.5 "/>
<text text-anchor="middle" x="113" y="-231.3" font-family="Times,serif" font-size="14.00" fill="#000000">Host</text>
<text text-anchor="middle" x="113" y="-216.3" font-family="Times,serif" font-size="14.00" fill="#000000">Frontend</text>
<polyline fill="none" stroke="#000000" points="147.5,-208.5 147.5,-246.5 "/>
<text text-anchor="middle" x="159" y="-223.8" font-family="Times,serif" font-size="14.00" fill="#000000">1</text>
</g>
<!-- frontend&#45;&gt;scaler -->
<g id="edge2" class="edge">
<title>frontend:frontend_1&#45;&gt;scaler:scaler_0</title>
<path fill="none" stroke="#0000ff" d="M159,-208.5C159,-182.4444 159,-173.4878 159,-151.707"/>
<polygon fill="#0000ff" stroke="#0000ff" points="162.5001,-151.5 159,-141.5 155.5001,-151.5 162.5001,-151.5"/>
<text text-anchor="middle" x="203" y="-178.8" font-family="Times,serif" font-size="14.00" fill="#000000">HQ: 2592x1968</text>
<text text-anchor="middle" x="203" y="-163.8" font-family="Times,serif" font-size="14.00" fill="#000000">HS: 1296x984</text>
</g>
<!-- sensor -->
<g id="node3" class="node">
<title>sensor</title>
<path fill="#7fffd4" stroke="#000000" d="M12,-313.5C12,-313.5 66,-313.5 66,-313.5 72,-313.5 78,-319.5 78,-325.5 78,-325.5 78,-337.5 78,-337.5 78,-343.5 72,-349.5 66,-349.5 66,-349.5 12,-349.5 12,-349.5 6,-349.5 0,-343.5 0,-337.5 0,-337.5 0,-325.5 0,-325.5 0,-319.5 6,-313.5 12,-313.5"/>
<text text-anchor="middle" x="27.5" y="-327.8" font-family="Times,serif" font-size="14.00" fill="#000000">Sensor</text>
<polyline fill="none" stroke="#000000" points="55,-313.5 55,-349.5 "/>
<text text-anchor="middle" x="66.5" y="-327.8" font-family="Times,serif" font-size="14.00" fill="#000000">0</text>
</g>
<!-- sensor&#45;&gt;frontend -->
<g id="edge1" class="edge">
<title>sensor:sensor_0&#45;&gt;frontend:frontend_0</title>
<path fill="none" stroke="#0000ff" d="M67,-313.5C67,-287.4444 67,-278.4878 67,-256.707"/>
<polygon fill="#0000ff" stroke="#0000ff" points="70.5001,-256.5 67,-246.5 63.5001,-256.5 70.5001,-256.5"/>
<text text-anchor="middle" x="111" y="-283.8" font-family="Times,serif" font-size="14.00" fill="#000000">HQ: 2592x1968</text>
<text text-anchor="middle" x="111" y="-268.8" font-family="Times,serif" font-size="14.00" fill="#000000">HS: 1296x984</text>
</g>
</g>
</svg>
