<?xml version="1.0" encoding="UTF-8" standalone="no"?>
<!DOCTYPE svg PUBLIC "-//W3C//DTD SVG 1.1//EN"
 "http://www.w3.org/Graphics/SVG/1.1/DTD/svg11.dtd">
<!-- Generated by graphviz version 2.40.1 (20161225.0304)
 -->
<!-- Title: Output Pipeline Pages: 1 -->
<svg width="506pt" height="362pt"
 viewBox="0.00 0.00 506.00 362.00" xmlns="http://www.w3.org/2000/svg" xmlns:xlink="http://www.w3.org/1999/xlink">
<g id="graph0" class="graph" transform="scale(1 1) rotate(0) translate(4 358)">
<title>Output Pipeline</title>
<polygon fill="#ffffff" stroke="transparent" points="-4,4 -4,-358 502,-358 502,4 -4,4"/>
<g id="clust2" class="cluster">
<title>cluster_internal</title>
<polygon fill="none" stroke="#000000" stroke-dasharray="5,2" points="116,-91 116,-310 473,-310 473,-91 116,-91"/>
<text text-anchor="middle" x="294.5" y="-294.8" font-family="Times,serif" font-size="14.00" fill="#000000">Internal Pipeline</text>
</g>
<g id="clust5" class="cluster">
<title>cluster_output</title>
<polygon fill="none" stroke="#000000" stroke-dasharray="5,2" points="8,-8 8,-83 490,-83 490,-8 8,-8"/>
<text text-anchor="middle" x="249" y="-67.8" font-family="Times,serif" font-size="14.00" fill="#000000">Outputs</text>
</g>
<!-- drm_crtc -->
<g id="node1" class="node">
<title>drm_crtc</title>
<polygon fill="#d3d3d3" stroke="#000000" points="327,-354 261,-354 261,-318 327,-318 327,-354"/>
<text text-anchor="middle" x="294" y="-332.3" font-family="Times,serif" font-size="14.00" fill="#000000">drm_crtc</text>
</g>
<!-- drm_encoder A -->
<g id="node2" class="node">
<title>drm_encoder A</title>
<polygon fill="#d3d3d3" stroke="#000000" points="465,-279 363,-279 363,-243 465,-243 465,-279"/>
<text text-anchor="middle" x="414" y="-257.3" font-family="Times,serif" font-size="14.00" fill="#000000">drm_encoder A</text>
</g>
<!-- drm_crtc&#45;&gt;drm_encoder A -->
<g id="edge4" class="edge">
<title>drm_crtc&#45;&gt;drm_encoder A</title>
<path fill="none" stroke="#000000" d="M327.2032,-323.5478C336.153,-319.6771 345.6606,-315.077 354,-310 365.5118,-302.9916 377.205,-293.9617 387.1735,-285.5668"/>
<polygon fill="#000000" stroke="#000000" points="389.4759,-288.2031 394.762,-279.0212 384.9037,-282.9026 389.4759,-288.2031"/>
</g>
<!-- drm_encoder B -->
<g id="node3" class="node">
<title>drm_encoder B</title>
<polygon fill="#d3d3d3" stroke="#000000" points="344.5,-279 243.5,-279 243.5,-243 344.5,-243 344.5,-279"/>
<text text-anchor="middle" x="294" y="-257.3" font-family="Times,serif" font-size="14.00" fill="#000000">drm_encoder B</text>
</g>
<!-- drm_crtc&#45;&gt;drm_encoder B -->
<g id="edge5" class="edge">
<title>drm_crtc&#45;&gt;drm_encoder B</title>
<path fill="none" stroke="#000000" d="M294,-317.8446C294,-309.3401 294,-299.0076 294,-289.4964"/>
<polygon fill="#000000" stroke="#000000" points="297.5001,-289.2481 294,-279.2482 290.5001,-289.2482 297.5001,-289.2481"/>
</g>
<!-- drm_encoder C -->
<g id="node4" class="node">
<title>drm_encoder C</title>
<polygon fill="#d3d3d3" stroke="#000000" points="225.5,-279 124.5,-279 124.5,-243 225.5,-243 225.5,-279"/>
<text text-anchor="middle" x="175" y="-257.3" font-family="Times,serif" font-size="14.00" fill="#000000">drm_encoder C</text>
</g>
<!-- drm_crtc&#45;&gt;drm_encoder C -->
<g id="edge6" class="edge">
<title>drm_crtc&#45;&gt;drm_encoder C</title>
<path fill="none" stroke="#000000" d="M260.7441,-323.2159C252.124,-319.4028 243.0162,-314.9142 235,-310 223.7132,-303.0808 212.235,-294.2378 202.3815,-285.9735"/>
<polygon fill="#000000" stroke="#000000" points="204.3917,-283.0862 194.5265,-279.2226 199.8291,-288.395 204.3917,-283.0862"/>
</g>
<!-- drm_connector A -->
<g id="node8" class="node">
<title>drm_connector A</title>
<polygon fill="none" stroke="#000000" points="481.5,-52 368.5,-52 368.5,-16 481.5,-16 481.5,-52"/>
<text text-anchor="middle" x="425" y="-30.3" font-family="Times,serif" font-size="14.00" fill="#000000">drm_connector A</text>
</g>
<!-- drm_encoder A&#45;&gt;drm_connector A -->
<g id="edge7" class="edge">
<title>drm_encoder A&#45;&gt;drm_connector A</title>
<path fill="none" stroke="#000000" d="M414.8816,-242.8074C416.7924,-203.3751 421.3279,-109.7785 423.6214,-62.4496"/>
<polygon fill="#000000" stroke="#000000" points="427.126,-62.437 424.1142,-52.2793 420.1342,-62.0981 427.126,-62.437"/>
</g>
<!-- drm_bridge B -->
<g id="node5" class="node">
<title>drm_bridge B</title>
<polygon fill="#d3d3d3" stroke="#000000" points="340.5,-207 247.5,-207 247.5,-171 340.5,-171 340.5,-207"/>
<text text-anchor="middle" x="294" y="-185.3" font-family="Times,serif" font-size="14.00" fill="#000000">drm_bridge B</text>
</g>
<!-- drm_encoder B&#45;&gt;drm_bridge B -->
<g id="edge1" class="edge">
<title>drm_encoder B&#45;&gt;drm_bridge B</title>
<path fill="none" stroke="#000000" d="M294,-242.8314C294,-235.131 294,-225.9743 294,-217.4166"/>
<polygon fill="#000000" stroke="#000000" points="297.5001,-217.4132 294,-207.4133 290.5001,-217.4133 297.5001,-217.4132"/>
</g>
<!-- drm_bridge C1 -->
<g id="node6" class="node">
<title>drm_bridge C1</title>
<polygon fill="#d3d3d3" stroke="#000000" points="224,-207 124,-207 124,-171 224,-171 224,-207"/>
<text text-anchor="middle" x="174" y="-185.3" font-family="Times,serif" font-size="14.00" fill="#000000">drm_bridge C1</text>
</g>
<!-- drm_encoder C&#45;&gt;drm_bridge C1 -->
<g id="edge2" class="edge">
<title>drm_encoder C&#45;&gt;drm_bridge C1</title>
<path fill="none" stroke="#000000" d="M174.7477,-242.8314C174.6407,-235.131 174.5135,-225.9743 174.3947,-217.4166"/>
<polygon fill="#000000" stroke="#000000" points="177.8944,-217.3637 174.2557,-207.4133 170.8951,-217.4609 177.8944,-217.3637"/>
</g>
<!-- drm_connector B -->
<g id="node9" class="node">
<title>drm_connector B</title>
<polygon fill="none" stroke="#000000" points="350,-52 238,-52 238,-16 350,-16 350,-52"/>
<text text-anchor="middle" x="294" y="-30.3" font-family="Times,serif" font-size="14.00" fill="#000000">drm_connector B</text>
</g>
<!-- drm_bridge B&#45;&gt;drm_connector B -->
<g id="edge8" class="edge">
<title>drm_bridge B&#45;&gt;drm_connector B</title>
<path fill="none" stroke="#000000" d="M294,-170.9162C294,-144.3422 294,-94.4757 294,-62.819"/>
<polygon fill="#000000" stroke="#000000" points="297.5001,-62.4491 294,-52.4491 290.5001,-62.4491 297.5001,-62.4491"/>
</g>
<!-- drm_bridge C2 -->
<g id="node7" class="node">
<title>drm_bridge C2</title>
<polygon fill="#d3d3d3" stroke="#000000" points="224,-135 124,-135 124,-99 224,-99 224,-135"/>
<text text-anchor="middle" x="174" y="-113.3" font-family="Times,serif" font-size="14.00" fill="#000000">drm_bridge C2</text>
</g>
<!-- drm_bridge C1&#45;&gt;drm_bridge C2 -->
<g id="edge3" class="edge">
<title>drm_bridge C1&#45;&gt;drm_bridge C2</title>
<path fill="none" stroke="#000000" d="M174,-170.8314C174,-163.131 174,-153.9743 174,-145.4166"/>
<polygon fill="#000000" stroke="#000000" points="177.5001,-145.4132 174,-135.4133 170.5001,-145.4133 177.5001,-145.4132"/>
</g>
<!-- drm_connector C -->
<g id="node10" class="node">
<title>drm_connector C</title>
<polygon fill="none" stroke="#000000" points="220,-52 108,-52 108,-16 220,-16 220,-52"/>
<text text-anchor="middle" x="164" y="-30.3" font-family="Times,serif" font-size="14.00" fill="#000000">drm_connector C</text>
</g>
<!-- drm_bridge C2&#45;&gt;drm_connector C -->
<g id="edge9" class="edge">
<title>drm_bridge C2&#45;&gt;drm_connector C</title>
<path fill="none" stroke="#000000" d="M171.8301,-98.9902C170.5417,-88.2963 168.8794,-74.4994 167.4181,-62.3706"/>
<polygon fill="#000000" stroke="#000000" points="170.8713,-61.7708 166.2001,-52.2612 163.9215,-62.6081 170.8713,-61.7708"/>
</g>
<!-- drm_panel -->
<g id="node11" class="node">
<title>drm_panel</title>
<polygon fill="none" stroke="#000000" points="90.5,-52 15.5,-52 15.5,-16 90.5,-16 90.5,-52"/>
<text text-anchor="middle" x="53" y="-30.3" font-family="Times,serif" font-size="14.00" fill="#000000">drm_panel</text>
</g>
</g>
</svg>
