<?xml version="1.0" encoding="UTF-8" standalone="no"?>
<!DOCTYPE svg PUBLIC "-//W3C//DTD SVG 1.1//EN"
 "http://www.w3.org/Graphics/SVG/1.1/DTD/svg11.dtd">
<!-- Generated by graphviz version 2.40.1 (20161225.0304)
 -->
<!-- Title: slave_ppl Pages: 1 -->
<svg width="854pt" height="506pt"
 viewBox="0.00 0.00 854.49 506.00" xmlns="http://www.w3.org/2000/svg" xmlns:xlink="http://www.w3.org/1999/xlink">
<g id="graph0" class="graph" transform="scale(1 1) rotate(0) translate(4 502)">
<title>slave_ppl</title>
<polygon fill="#ffffff" stroke="transparent" points="-4,4 -4,-502 850.4925,-502 850.4925,4 -4,4"/>
<g id="clust2" class="cluster">
<title>cluster_pipeline_slave</title>
<polygon fill="none" stroke="#000000" stroke-dasharray="5,2" points="8,-8 8,-245 378,-245 378,-8 8,-8"/>
<text text-anchor="middle" x="193" y="-229.8" font-family="Times,serif" font-size="14.00" fill="#000000">Slave Pipeline_B</text>
</g>
<g id="clust4" class="cluster">
<title>cluster_pipeline_master</title>
<polygon fill="none" stroke="#000000" stroke-dasharray="5,2" points="155,-253 155,-490 734,-490 734,-253 155,-253"/>
<text text-anchor="middle" x="444.5" y="-474.8" font-family="Times,serif" font-size="14.00" fill="#000000">Master Pipeline_A</text>
</g>
<!-- Memory -->
<g id="node1" class="node">
<title>Memory</title>
<ellipse fill="none" stroke="#000000" cx="804.2463" cy="-374" rx="42.4939" ry="18"/>
<text text-anchor="middle" x="804.2463" y="-370.3" font-family="Times,serif" font-size="14.00" fill="#000000">Memory</text>
</g>
<!-- Monitor -->
<g id="node2" class="node">
<title>Monitor</title>
<ellipse fill="none" stroke="#000000" cx="804.2463" cy="-320" rx="40.0939" ry="18"/>
<text text-anchor="middle" x="804.2463" y="-316.3" font-family="Times,serif" font-size="14.00" fill="#000000">Monitor</text>
</g>
<!-- Slave.Scaler&#45;0 -->
<g id="node3" class="node">
<title>Slave.Scaler&#45;0</title>
<polygon fill="none" stroke="#000000" stroke-dasharray="5,2" points="240,-183 145,-183 145,-147 240,-147 240,-183"/>
<text text-anchor="middle" x="192.5" y="-161.3" font-family="Times,serif" font-size="14.00" fill="#000000">Slave.Scaler&#45;0</text>
</g>
<!-- Slave.Compiz -->
<g id="node9" class="node">
<title>Slave.Compiz</title>
<polygon fill="#d3d3d3" stroke="#000000" points="370,-146 276,-146 276,-110 370,-110 370,-146"/>
<text text-anchor="middle" x="323" y="-124.3" font-family="Times,serif" font-size="14.00" fill="#000000">Slave.Compiz</text>
</g>
<!-- Slave.Scaler&#45;0&#45;&gt;Slave.Compiz -->
<g id="edge9" class="edge">
<title>Slave.Scaler&#45;0&#45;&gt;Slave.Compiz</title>
<path fill="none" stroke="#000000" d="M240.3524,-151.4327C248.6133,-149.0905 257.2756,-146.6345 265.7548,-144.2304"/>
<polygon fill="#000000" stroke="#000000" points="266.9234,-147.5371 275.5895,-141.4421 265.014,-140.8026 266.9234,-147.5371"/>
</g>
<!-- Slave.Scaler&#45;1 -->
<g id="node4" class="node">
<title>Slave.Scaler&#45;1</title>
<polygon fill="none" stroke="#000000" stroke-dasharray="5,2" points="240,-89 145,-89 145,-53 240,-53 240,-89"/>
<text text-anchor="middle" x="192.5" y="-67.3" font-family="Times,serif" font-size="14.00" fill="#000000">Slave.Scaler&#45;1</text>
</g>
<!-- Slave.Scaler&#45;1&#45;&gt;Slave.Compiz -->
<g id="edge10" class="edge">
<title>Slave.Scaler&#45;1&#45;&gt;Slave.Compiz</title>
<path fill="none" stroke="#000000" d="M233.791,-89.0352C245.93,-94.3372 259.3537,-100.2005 272.0226,-105.734"/>
<polygon fill="#000000" stroke="#000000" points="270.9647,-109.0912 281.5297,-109.8865 273.7666,-102.6764 270.9647,-109.0912"/>
</g>
<!-- Slave.Layer&#45;0 -->
<g id="node5" class="node">
<title>Slave.Layer&#45;0</title>
<polygon fill="#d3d3d3" stroke="#000000" points="109,-214 16,-214 16,-178 109,-178 109,-214"/>
<text text-anchor="middle" x="62.5" y="-192.3" font-family="Times,serif" font-size="14.00" fill="#000000">Slave.Layer&#45;0</text>
</g>
<!-- Slave.Layer&#45;0&#45;&gt;Slave.Scaler&#45;0 -->
<g id="edge1" class="edge">
<title>Slave.Layer&#45;0&#45;&gt;Slave.Scaler&#45;0</title>
<path fill="none" stroke="#000000" d="M109.0658,-184.8958C117.5353,-182.8762 126.4599,-180.748 135.1965,-178.6647"/>
<polygon fill="#000000" stroke="#000000" points="136.0307,-182.064 144.9461,-176.3398 134.407,-175.2549 136.0307,-182.064"/>
</g>
<!-- Slave.Layer&#45;0&#45;&gt;Slave.Compiz -->
<g id="edge5" class="edge">
<title>Slave.Layer&#45;0&#45;&gt;Slave.Compiz</title>
<path fill="none" stroke="#000000" d="M109.1504,-202.7247C145.8028,-206.1873 197.5689,-206.9949 240,-192 262.3528,-184.1007 283.4518,-167.6646 298.7834,-153.4272"/>
<polygon fill="#000000" stroke="#000000" points="301.4736,-155.6957 306.2513,-146.2393 296.6193,-150.6524 301.4736,-155.6957"/>
</g>
<!-- Slave.Layer&#45;1 -->
<g id="node6" class="node">
<title>Slave.Layer&#45;1</title>
<polygon fill="#d3d3d3" stroke="#000000" points="109,-160 16,-160 16,-124 109,-124 109,-160"/>
<text text-anchor="middle" x="62.5" y="-138.3" font-family="Times,serif" font-size="14.00" fill="#000000">Slave.Layer&#45;1</text>
</g>
<!-- Slave.Layer&#45;1&#45;&gt;Slave.Scaler&#45;0 -->
<g id="edge2" class="edge">
<title>Slave.Layer&#45;1&#45;&gt;Slave.Scaler&#45;0</title>
<path fill="none" stroke="#000000" d="M109.0658,-150.2386C117.4442,-151.7209 126.2681,-153.282 134.9146,-154.8118"/>
<polygon fill="#000000" stroke="#000000" points="134.4893,-158.2908 144.9461,-156.5866 135.7088,-151.3979 134.4893,-158.2908"/>
</g>
<!-- Slave.Layer&#45;1&#45;&gt;Slave.Compiz -->
<g id="edge6" class="edge">
<title>Slave.Layer&#45;1&#45;&gt;Slave.Compiz</title>
<path fill="none" stroke="#000000" d="M109.0722,-139.4971C152.9742,-137.1377 218.8711,-133.5962 265.9173,-131.0678"/>
<polygon fill="#000000" stroke="#000000" points="266.155,-134.5602 275.9527,-130.5285 265.7793,-127.5702 266.155,-134.5602"/>
</g>
<!-- Slave.Layer&#45;2 -->
<g id="node7" class="node">
<title>Slave.Layer&#45;2</title>
<polygon fill="#d3d3d3" stroke="#000000" points="109,-106 16,-106 16,-70 109,-70 109,-106"/>
<text text-anchor="middle" x="62.5" y="-84.3" font-family="Times,serif" font-size="14.00" fill="#000000">Slave.Layer&#45;2</text>
</g>
<!-- Slave.Layer&#45;2&#45;&gt;Slave.Scaler&#45;1 -->
<g id="edge3" class="edge">
<title>Slave.Layer&#45;2&#45;&gt;Slave.Scaler&#45;1</title>
<path fill="none" stroke="#000000" d="M109.0658,-81.9106C117.4442,-80.815 126.2681,-79.6611 134.9146,-78.5304"/>
<polygon fill="#000000" stroke="#000000" points="135.4844,-81.9858 144.9461,-77.2186 134.5767,-75.0449 135.4844,-81.9858"/>
</g>
<!-- Slave.Layer&#45;2&#45;&gt;Slave.Compiz -->
<g id="edge7" class="edge">
<title>Slave.Layer&#45;2&#45;&gt;Slave.Compiz</title>
<path fill="none" stroke="#000000" d="M109.0722,-95.1512C152.9742,-101.8924 218.8711,-112.0109 265.9173,-119.2349"/>
<polygon fill="#000000" stroke="#000000" points="265.5373,-122.7175 275.9527,-120.7758 266.5998,-115.7986 265.5373,-122.7175"/>
</g>
<!-- Slave.Layer&#45;3 -->
<g id="node8" class="node">
<title>Slave.Layer&#45;3</title>
<polygon fill="#d3d3d3" stroke="#000000" points="109,-52 16,-52 16,-16 109,-16 109,-52"/>
<text text-anchor="middle" x="62.5" y="-30.3" font-family="Times,serif" font-size="14.00" fill="#000000">Slave.Layer&#45;3</text>
</g>
<!-- Slave.Layer&#45;3&#45;&gt;Slave.Scaler&#45;1 -->
<g id="edge4" class="edge">
<title>Slave.Layer&#45;3&#45;&gt;Slave.Scaler&#45;1</title>
<path fill="none" stroke="#000000" d="M109.0658,-47.2533C117.5353,-49.6639 126.4599,-52.204 135.1965,-54.6905"/>
<polygon fill="#000000" stroke="#000000" points="134.37,-58.0942 144.9461,-57.4654 136.2862,-51.3616 134.37,-58.0942"/>
</g>
<!-- Slave.Layer&#45;3&#45;&gt;Slave.Compiz -->
<g id="edge8" class="edge">
<title>Slave.Layer&#45;3&#45;&gt;Slave.Compiz</title>
<path fill="none" stroke="#000000" d="M109.1417,-27.7467C146.2555,-24.8132 198.6432,-25.3407 240,-44 267.1853,-56.2654 290.276,-81.7156 305.1472,-101.4054"/>
<polygon fill="#000000" stroke="#000000" points="302.4781,-103.6858 311.1958,-109.7068 308.1356,-99.5635 302.4781,-103.6858"/>
</g>
<!-- Compiz -->
<g id="node17" class="node">
<title>Compiz</title>
<polygon fill="#d3d3d3" stroke="#000000" points="466,-365 406,-365 406,-329 466,-329 466,-365"/>
<text text-anchor="middle" x="436" y="-343.3" font-family="Times,serif" font-size="14.00" fill="#000000">Compiz</text>
</g>
<!-- Slave.Compiz&#45;&gt;Compiz -->
<g id="edge15" class="edge">
<title>Slave.Compiz&#45;&gt;Compiz</title>
<path fill="none" stroke="#000000" d="M332.44,-146.2951C352.3475,-184.8771 398.7142,-274.7381 422.0534,-319.9707"/>
<polygon fill="#000000" stroke="#000000" points="418.9706,-321.6291 426.6664,-328.911 425.1913,-318.4193 418.9706,-321.6291"/>
</g>
<!-- Scaler&#45;0 -->
<g id="node10" class="node">
<title>Scaler&#45;0</title>
<polygon fill="none" stroke="#000000" stroke-dasharray="5,2" points="354,-422 292,-422 292,-386 354,-386 354,-422"/>
<text text-anchor="middle" x="323" y="-400.3" font-family="Times,serif" font-size="14.00" fill="#000000">Scaler&#45;0</text>
</g>
<!-- Scaler&#45;0&#45;&gt;Compiz -->
<g id="edge20" class="edge">
<title>Scaler&#45;0&#45;&gt;Compiz</title>
<path fill="none" stroke="#000000" d="M354.1769,-388.2736C367.2341,-381.6872 382.5663,-373.9533 396.4075,-366.9714"/>
<polygon fill="#000000" stroke="#000000" points="398.3532,-369.9101 405.7053,-362.2814 395.2006,-363.6602 398.3532,-369.9101"/>
</g>
<!-- Scaler&#45;1 -->
<g id="node11" class="node">
<title>Scaler&#45;1</title>
<polygon fill="none" stroke="#000000" stroke-dasharray="5,2" points="354,-328 292,-328 292,-292 354,-292 354,-328"/>
<text text-anchor="middle" x="323" y="-306.3" font-family="Times,serif" font-size="14.00" fill="#000000">Scaler&#45;1</text>
</g>
<!-- Scaler&#45;1&#45;&gt;Compiz -->
<g id="edge21" class="edge">
<title>Scaler&#45;1&#45;&gt;Compiz</title>
<path fill="none" stroke="#000000" d="M354.1769,-320.2084C367.1085,-324.4426 382.2717,-329.4075 396.0078,-333.9052"/>
<polygon fill="#000000" stroke="#000000" points="395.1126,-337.2949 405.7053,-337.0805 397.2909,-330.6424 395.1126,-337.2949"/>
</g>
<!-- Scaler&#45;0/1 -->
<g id="node12" class="node">
<title>Scaler&#45;0/1</title>
<polygon fill="none" stroke="#000000" stroke-dasharray="5,2" points="574,-392 502,-392 502,-356 574,-356 574,-392"/>
<text text-anchor="middle" x="538" y="-370.3" font-family="Times,serif" font-size="14.00" fill="#000000">Scaler&#45;0/1</text>
</g>
<!-- Wb_layer -->
<g id="node18" class="node">
<title>Wb_layer</title>
<polygon fill="#d3d3d3" stroke="#000000" points="703.5,-392 632.5,-392 632.5,-356 703.5,-356 703.5,-392"/>
<text text-anchor="middle" x="668" y="-370.3" font-family="Times,serif" font-size="14.00" fill="#000000">Wb_layer</text>
</g>
<!-- Scaler&#45;0/1&#45;&gt;Wb_layer -->
<g id="edge23" class="edge">
<title>Scaler&#45;0/1&#45;&gt;Wb_layer</title>
<path fill="none" stroke="#000000" d="M574.2122,-374C589.1265,-374 606.5747,-374 622.3498,-374"/>
<polygon fill="#000000" stroke="#000000" points="622.4313,-377.5001 632.4313,-374 622.4312,-370.5001 622.4313,-377.5001"/>
</g>
<!-- Layer&#45;0 -->
<g id="node13" class="node">
<title>Layer&#45;0</title>
<polygon fill="#d3d3d3" stroke="#000000" points="222,-459 163,-459 163,-423 222,-423 222,-459"/>
<text text-anchor="middle" x="192.5" y="-437.3" font-family="Times,serif" font-size="14.00" fill="#000000">Layer&#45;0</text>
</g>
<!-- Layer&#45;0&#45;&gt;Scaler&#45;0 -->
<g id="edge11" class="edge">
<title>Layer&#45;0&#45;&gt;Scaler&#45;0</title>
<path fill="none" stroke="#000000" d="M222.1125,-432.6041C239.7871,-427.5929 262.4941,-421.1549 281.8888,-415.656"/>
<polygon fill="#000000" stroke="#000000" points="283.0189,-418.9737 291.6849,-412.8786 281.1094,-412.2391 283.0189,-418.9737"/>
</g>
<!-- Layer&#45;0&#45;&gt;Compiz -->
<g id="edge16" class="edge">
<title>Layer&#45;0&#45;&gt;Compiz</title>
<path fill="none" stroke="#000000" d="M222.3309,-447.0142C260.9311,-453.1754 329.0282,-458.4039 378,-431 400.0941,-418.6364 415.5916,-393.9119 424.9742,-374.4731"/>
<polygon fill="#000000" stroke="#000000" points="428.2564,-375.7103 429.2085,-365.1583 421.8839,-372.8135 428.2564,-375.7103"/>
</g>
<!-- Layer&#45;1 -->
<g id="node14" class="node">
<title>Layer&#45;1</title>
<polygon fill="#d3d3d3" stroke="#000000" points="222,-405 163,-405 163,-369 222,-369 222,-405"/>
<text text-anchor="middle" x="192.5" y="-383.3" font-family="Times,serif" font-size="14.00" fill="#000000">Layer&#45;1</text>
</g>
<!-- Layer&#45;1&#45;&gt;Scaler&#45;0 -->
<g id="edge12" class="edge">
<title>Layer&#45;1&#45;&gt;Scaler&#45;0</title>
<path fill="none" stroke="#000000" d="M222.1125,-390.8576C239.706,-393.1494 262.2859,-396.0909 281.6217,-398.6097"/>
<polygon fill="#000000" stroke="#000000" points="281.3166,-402.0995 291.6849,-399.9206 282.2209,-395.1581 281.3166,-402.0995"/>
</g>
<!-- Layer&#45;1&#45;&gt;Compiz -->
<g id="edge17" class="edge">
<title>Layer&#45;1&#45;&gt;Compiz</title>
<path fill="none" stroke="#000000" d="M222.3579,-382.0952C265.9886,-374.9279 347.2615,-361.5772 396.0136,-353.5686"/>
<polygon fill="#000000" stroke="#000000" points="396.5975,-357.0197 405.8979,-351.9449 395.4628,-350.1123 396.5975,-357.0197"/>
</g>
<!-- Layer&#45;2 -->
<g id="node15" class="node">
<title>Layer&#45;2</title>
<polygon fill="#d3d3d3" stroke="#000000" points="222,-351 163,-351 163,-315 222,-315 222,-351"/>
<text text-anchor="middle" x="192.5" y="-329.3" font-family="Times,serif" font-size="14.00" fill="#000000">Layer&#45;2</text>
</g>
<!-- Layer&#45;2&#45;&gt;Scaler&#45;1 -->
<g id="edge13" class="edge">
<title>Layer&#45;2&#45;&gt;Scaler&#45;1</title>
<path fill="none" stroke="#000000" d="M222.1125,-327.7809C239.706,-324.6802 262.2859,-320.7006 281.6217,-317.2927"/>
<polygon fill="#000000" stroke="#000000" points="282.4442,-320.7018 291.6849,-315.5191 281.2292,-313.808 282.4442,-320.7018"/>
</g>
<!-- Layer&#45;2&#45;&gt;Compiz -->
<g id="edge18" class="edge">
<title>Layer&#45;2&#45;&gt;Compiz</title>
<path fill="none" stroke="#000000" d="M222.3579,-334.7167C265.8974,-337.22 346.9216,-341.8784 395.7072,-344.6834"/>
<polygon fill="#000000" stroke="#000000" points="395.7135,-348.1894 405.8979,-345.2693 396.1153,-341.201 395.7135,-348.1894"/>
</g>
<!-- Layer&#45;3 -->
<g id="node16" class="node">
<title>Layer&#45;3</title>
<polygon fill="#d3d3d3" stroke="#000000" points="222,-297 163,-297 163,-261 222,-261 222,-297"/>
<text text-anchor="middle" x="192.5" y="-275.3" font-family="Times,serif" font-size="14.00" fill="#000000">Layer&#45;3</text>
</g>
<!-- Layer&#45;3&#45;&gt;Scaler&#45;1 -->
<g id="edge14" class="edge">
<title>Layer&#45;3&#45;&gt;Scaler&#45;1</title>
<path fill="none" stroke="#000000" d="M222.1125,-286.0344C239.7871,-290.2329 262.4941,-295.6269 281.8888,-300.2341"/>
<polygon fill="#000000" stroke="#000000" points="281.1467,-303.6552 291.6849,-302.5612 282.7646,-296.8447 281.1467,-303.6552"/>
</g>
<!-- Layer&#45;3&#45;&gt;Compiz -->
<g id="edge19" class="edge">
<title>Layer&#45;3&#45;&gt;Compiz</title>
<path fill="none" stroke="#000000" d="M222.0365,-272.7505C260.0236,-266.2101 327.154,-259.8009 378,-283 395.285,-290.8865 409.6678,-306.6438 419.7871,-320.549"/>
<polygon fill="#000000" stroke="#000000" points="416.9703,-322.6298 425.5246,-328.8807 422.7355,-318.6596 416.9703,-322.6298"/>
</g>
<!-- Compiz&#45;&gt;Scaler&#45;0/1 -->
<g id="edge22" class="edge">
<title>Compiz&#45;&gt;Scaler&#45;0/1</title>
<path fill="none" stroke="#000000" d="M466.0517,-354.9549C474.164,-357.1022 483.1321,-359.4761 491.9049,-361.7983"/>
<polygon fill="#000000" stroke="#000000" points="491.1079,-365.2079 501.6706,-364.3834 492.8992,-358.4409 491.1079,-365.2079"/>
</g>
<!-- Improc -->
<g id="node19" class="node">
<title>Improc</title>
<polygon fill="#d3d3d3" stroke="#000000" points="566,-338 510,-338 510,-302 566,-302 566,-338"/>
<text text-anchor="middle" x="538" y="-316.3" font-family="Times,serif" font-size="14.00" fill="#000000">Improc</text>
</g>
<!-- Compiz&#45;&gt;Improc -->
<g id="edge24" class="edge">
<title>Compiz&#45;&gt;Improc</title>
<path fill="none" stroke="#000000" d="M466.0517,-339.0451C476.6697,-336.2345 488.754,-333.0357 499.9473,-330.0728"/>
<polygon fill="#000000" stroke="#000000" points="501.1373,-333.3784 509.9087,-327.4359 499.346,-326.6115 501.1373,-333.3784"/>
</g>
<!-- Wb_layer&#45;&gt;Memory -->
<g id="edge26" class="edge">
<title>Wb_layer&#45;&gt;Memory</title>
<path fill="none" stroke="#000000" d="M703.7971,-374C718.4138,-374 735.6152,-374 751.6132,-374"/>
<polygon fill="#000000" stroke="#000000" points="751.9131,-377.5001 761.913,-374 751.913,-370.5001 751.9131,-377.5001"/>
</g>
<!-- Timing Controller -->
<g id="node20" class="node">
<title>Timing Controller</title>
<polygon fill="#d3d3d3" stroke="#000000" points="726,-338 610,-338 610,-302 726,-302 726,-338"/>
<text text-anchor="middle" x="668" y="-316.3" font-family="Times,serif" font-size="14.00" fill="#000000">Timing Controller</text>
</g>
<!-- Improc&#45;&gt;Timing Controller -->
<g id="edge25" class="edge">
<title>Improc&#45;&gt;Timing Controller</title>
<path fill="none" stroke="#000000" d="M566.2081,-320C576.2426,-320 588.0215,-320 599.938,-320"/>
<polygon fill="#000000" stroke="#000000" points="599.9449,-323.5001 609.9448,-320 599.9448,-316.5001 599.9449,-323.5001"/>
</g>
<!-- Timing Controller&#45;&gt;Monitor -->
<g id="edge27" class="edge">
<title>Timing Controller&#45;&gt;Monitor</title>
<path fill="none" stroke="#000000" d="M726.1759,-320C735.2212,-320 744.5057,-320 753.3728,-320"/>
<polygon fill="#000000" stroke="#000000" points="753.551,-323.5001 763.551,-320 753.551,-316.5001 753.551,-323.5001"/>
</g>
</g>
</svg>
