<?xml version="1.0" encoding="UTF-8" standalone="no"?>
<!DOCTYPE svg PUBLIC "-//W3C//DTD SVG 1.1//EN"
 "http://www.w3.org/Graphics/SVG/1.1/DTD/svg11.dtd">
<!-- Generated by graphviz version 2.40.1 (20161225.0304)
 -->
<!-- Title: layer_data_flow Pages: 1 -->
<svg width="261pt" height="44pt"
 viewBox="0.00 0.00 261.00 44.00" xmlns="http://www.w3.org/2000/svg" xmlns:xlink="http://www.w3.org/1999/xlink">
<g id="graph0" class="graph" transform="scale(1 1) rotate(0) translate(4 40)">
<title>layer_data_flow</title>
<polygon fill="#ffffff" stroke="transparent" points="-4,4 -4,-40 257,-40 257,4 -4,4"/>
<!-- Scaler&#45;n -->
<g id="node1" class="node">
<title>Scaler&#45;n</title>
<polygon fill="none" stroke="#000000" stroke-dasharray="5,2" points="157,-36 95,-36 95,0 157,0 157,-36"/>
<text text-anchor="middle" x="126" y="-14.3" font-family="Times,serif" font-size="14.00" fill="#000000">Scaler&#45;n</text>
</g>
<!-- Compiz -->
<g id="node3" class="node">
<title>Compiz</title>
<polygon fill="none" stroke="#000000" points="253,-36 193,-36 193,0 253,0 253,-36"/>
<text text-anchor="middle" x="223" y="-14.3" font-family="Times,serif" font-size="14.00" fill="#000000">Compiz</text>
</g>
<!-- Scaler&#45;n&#45;&gt;Compiz -->
<g id="edge2" class="edge">
<title>Scaler&#45;n&#45;&gt;Compiz</title>
<path fill="none" stroke="#000000" d="M157.2253,-18C165.3364,-18 174.1889,-18 182.6951,-18"/>
<polygon fill="#000000" stroke="#000000" points="182.8258,-21.5001 192.8258,-18 182.8258,-14.5001 182.8258,-21.5001"/>
</g>
<!-- Layer&#45;n -->
<g id="node2" class="node">
<title>Layer&#45;n</title>
<polygon fill="none" stroke="#000000" points="59,-36 0,-36 0,0 59,0 59,-36"/>
<text text-anchor="middle" x="29.5" y="-14.3" font-family="Times,serif" font-size="14.00" fill="#000000">Layer&#45;n</text>
</g>
<!-- Layer&#45;n&#45;&gt;Scaler&#45;n -->
<g id="edge1" class="edge">
<title>Layer&#45;n&#45;&gt;Scaler&#45;n</title>
<path fill="none" stroke="#000000" d="M59.2406,-18C67.2723,-18 76.1104,-18 84.6538,-18"/>
<polygon fill="#000000" stroke="#000000" points="84.8545,-21.5001 94.8545,-18 84.8545,-14.5001 84.8545,-21.5001"/>
</g>
</g>
</svg>
