<?xml version="1.0" encoding="UTF-8" standalone="no"?>
<!DOCTYPE svg PUBLIC "-//W3C//DTD SVG 1.1//EN"
 "http://www.w3.org/Graphics/SVG/1.1/DTD/svg11.dtd">
<!-- Generated by graphviz version 2.40.1 (20161225.0304)
 -->
<!-- Title: IPU3 ImgU Pages: 1 -->
<svg width="640pt" height="314pt"
 viewBox="0.00 0.00 640.00 314.00" xmlns="http://www.w3.org/2000/svg" xmlns:xlink="http://www.w3.org/1999/xlink">
<g id="graph0" class="graph" transform="scale(1 1) rotate(0) translate(4 310)">
<title>IPU3 ImgU</title>
<polygon fill="#ffffff" stroke="transparent" points="-4,4 -4,-310 636,-310 636,4 -4,4"/>
<!-- a -->
<g id="node1" class="node">
<title>a</title>
<polygon fill="none" stroke="#000000" points="159,-306 82,-306 82,-270 159,-270 159,-306"/>
<text text-anchor="middle" x="120.5" y="-284.3" font-family="Times,serif" font-size="14.00" fill="#000000">Raw pixels</text>
</g>
<!-- b -->
<g id="node2" class="node">
<title>b</title>
<polygon fill="none" stroke="#000000" points="182.5,-252 58.5,-252 58.5,-216 182.5,-216 182.5,-252"/>
<text text-anchor="middle" x="120.5" y="-230.3" font-family="Times,serif" font-size="14.00" fill="#000000">Bayer Downscaling</text>
</g>
<!-- a&#45;&gt;b -->
<g id="edge1" class="edge">
<title>a&#45;&gt;b</title>
<path fill="none" stroke="#000000" d="M121,-269.7181C121,-269.7181 121,-262.2631 121,-262.2631"/>
<polygon fill="#000000" stroke="#000000" points="124.5001,-262.2631 121,-252.2631 117.5001,-262.2631 124.5001,-262.2631"/>
</g>
<!-- g -->
<g id="node7" class="node">
<title>g</title>
<polygon fill="none" stroke="#000000" points="423.5,-306 280.5,-306 280.5,-270 423.5,-270 423.5,-306"/>
<text text-anchor="middle" x="352" y="-284.3" font-family="Times,serif" font-size="14.00" fill="#000000">Bayer Noise Reduction</text>
</g>
<!-- a&#45;&gt;g -->
<!-- c -->
<g id="node3" class="node">
<title>c</title>
<polygon fill="none" stroke="#000000" points="197,-198 44,-198 44,-162 197,-162 197,-198"/>
<text text-anchor="middle" x="120.5" y="-176.3" font-family="Times,serif" font-size="14.00" fill="#000000">Optical Black Correction</text>
</g>
<!-- b&#45;&gt;c -->
<g id="edge2" class="edge">
<title>b&#45;&gt;c</title>
<path fill="none" stroke="#000000" d="M121,-215.7181C121,-215.7181 121,-208.2631 121,-208.2631"/>
<polygon fill="#000000" stroke="#000000" points="124.5001,-208.2631 121,-198.2631 117.5001,-208.2631 124.5001,-208.2631"/>
</g>
<!-- d -->
<g id="node4" class="node">
<title>d</title>
<polygon fill="none" stroke="#000000" points="165,-144 76,-144 76,-108 165,-108 165,-144"/>
<text text-anchor="middle" x="120.5" y="-122.3" font-family="Times,serif" font-size="14.00" fill="#000000">Linearization</text>
</g>
<!-- c&#45;&gt;d -->
<g id="edge3" class="edge">
<title>c&#45;&gt;d</title>
<path fill="none" stroke="#000000" d="M121,-161.7181C121,-161.7181 121,-154.2631 121,-154.2631"/>
<polygon fill="#000000" stroke="#000000" points="124.5001,-154.2631 121,-144.2631 117.5001,-154.2631 124.5001,-154.2631"/>
</g>
<!-- e -->
<g id="node5" class="node">
<title>e</title>
<polygon fill="none" stroke="#000000" points="196.5,-90 44.5,-90 44.5,-54 196.5,-54 196.5,-90"/>
<text text-anchor="middle" x="120.5" y="-68.3" font-family="Times,serif" font-size="14.00" fill="#000000">Lens Shading Correction</text>
</g>
<!-- d&#45;&gt;e -->
<g id="edge4" class="edge">
<title>d&#45;&gt;e</title>
<path fill="none" stroke="#000000" d="M121,-107.7181C121,-107.7181 121,-100.2631 121,-100.2631"/>
<polygon fill="#000000" stroke="#000000" points="124.5001,-100.2631 121,-90.2631 117.5001,-100.2631 124.5001,-100.2631"/>
</g>
<!-- f -->
<g id="node6" class="node">
<title>f</title>
<polygon fill="none" stroke="#000000" points="241,-36 0,-36 0,0 241,0 241,-36"/>
<text text-anchor="middle" x="120.5" y="-14.3" font-family="Times,serif" font-size="14.00" fill="#000000">White Balance / Exposure / Focus Apply</text>
</g>
<!-- e&#45;&gt;f -->
<g id="edge5" class="edge">
<title>e&#45;&gt;f</title>
<path fill="none" stroke="#000000" d="M121,-53.7181C121,-53.7181 121,-46.2631 121,-46.2631"/>
<polygon fill="#000000" stroke="#000000" points="124.5001,-46.2631 121,-36.2631 117.5001,-46.2631 124.5001,-46.2631"/>
</g>
<!-- f&#45;&gt;g -->
<g id="edge18" class="edge">
<title>f&#45;&gt;g</title>
<path fill="none" stroke="#000000" d="M220,-36.1458C220,-95.7909 220,-282 220,-282 220,-282 270.2059,-282 270.2059,-282"/>
<polygon fill="#000000" stroke="#000000" points="270.2059,-285.5001 280.2059,-282 270.2058,-278.5001 270.2059,-285.5001"/>
</g>
<!-- h -->
<g id="node8" class="node">
<title>h</title>
<polygon fill="none" stroke="#000000" points="379,-252 325,-252 325,-216 379,-216 379,-252"/>
<text text-anchor="middle" x="352" y="-230.3" font-family="Times,serif" font-size="14.00" fill="#000000">ANR</text>
</g>
<!-- g&#45;&gt;h -->
<g id="edge6" class="edge">
<title>g&#45;&gt;h</title>
<path fill="none" stroke="#000000" d="M353,-269.7181C353,-269.7181 353,-262.2631 353,-262.2631"/>
<polygon fill="#000000" stroke="#000000" points="356.5001,-262.2631 353,-252.2631 349.5001,-262.2631 356.5001,-262.2631"/>
</g>
<!-- m -->
<g id="node13" class="node">
<title>m</title>
<polygon fill="none" stroke="#000000" points="618.5,-306 476.5,-306 476.5,-270 618.5,-270 618.5,-306"/>
<text text-anchor="middle" x="547.5" y="-284.3" font-family="Times,serif" font-size="14.00" fill="#000000">Chroma Down Scaling</text>
</g>
<!-- g&#45;&gt;m -->
<!-- i -->
<g id="node9" class="node">
<title>i</title>
<polygon fill="none" stroke="#000000" points="396.5,-198 307.5,-198 307.5,-162 396.5,-162 396.5,-198"/>
<text text-anchor="middle" x="352" y="-176.3" font-family="Times,serif" font-size="14.00" fill="#000000">Demosaicing</text>
</g>
<!-- h&#45;&gt;i -->
<g id="edge7" class="edge">
<title>h&#45;&gt;i</title>
<path fill="none" stroke="#000000" d="M353,-215.7181C353,-215.7181 353,-208.2631 353,-208.2631"/>
<polygon fill="#000000" stroke="#000000" points="356.5001,-208.2631 353,-198.2631 349.5001,-208.2631 356.5001,-208.2631"/>
</g>
<!-- j -->
<g id="node10" class="node">
<title>j</title>
<polygon fill="none" stroke="#000000" points="427,-144 277,-144 277,-108 427,-108 427,-144"/>
<text text-anchor="middle" x="352" y="-122.3" font-family="Times,serif" font-size="14.00" fill="#000000">Color Correction Matrix</text>
</g>
<!-- i&#45;&gt;j -->
<g id="edge8" class="edge">
<title>i&#45;&gt;j</title>
<path fill="none" stroke="#000000" d="M353,-161.7181C353,-161.7181 353,-154.2631 353,-154.2631"/>
<polygon fill="#000000" stroke="#000000" points="356.5001,-154.2631 353,-144.2631 349.5001,-154.2631 356.5001,-154.2631"/>
</g>
<!-- k -->
<g id="node11" class="node">
<title>k</title>
<polygon fill="none" stroke="#000000" points="411.5,-90 292.5,-90 292.5,-54 411.5,-54 411.5,-90"/>
<text text-anchor="middle" x="352" y="-68.3" font-family="Times,serif" font-size="14.00" fill="#000000">Gamma correction</text>
</g>
<!-- j&#45;&gt;k -->
<g id="edge9" class="edge">
<title>j&#45;&gt;k</title>
<path fill="none" stroke="#000000" d="M353,-107.7181C353,-107.7181 353,-100.2631 353,-100.2631"/>
<polygon fill="#000000" stroke="#000000" points="356.5001,-100.2631 353,-90.2631 349.5001,-100.2631 356.5001,-100.2631"/>
</g>
<!-- l -->
<g id="node12" class="node">
<title>l</title>
<polygon fill="none" stroke="#000000" points="426.5,-36 277.5,-36 277.5,0 426.5,0 426.5,-36"/>
<text text-anchor="middle" x="352" y="-14.3" font-family="Times,serif" font-size="14.00" fill="#000000">Color Space Conversion</text>
</g>
<!-- k&#45;&gt;l -->
<g id="edge10" class="edge">
<title>k&#45;&gt;l</title>
<path fill="none" stroke="#000000" d="M353,-53.7181C353,-53.7181 353,-46.2631 353,-46.2631"/>
<polygon fill="#000000" stroke="#000000" points="356.5001,-46.2631 353,-36.2631 349.5001,-46.2631 356.5001,-46.2631"/>
</g>
<!-- l&#45;&gt;m -->
<g id="edge19" class="edge">
<title>l&#45;&gt;m</title>
<path fill="none" stroke="#000000" d="M426.5231,-18C437.9319,-18 446,-18 446,-18 446,-18 446,-282 446,-282 446,-282 466.4533,-282 466.4533,-282"/>
<polygon fill="#000000" stroke="#000000" points="466.4534,-285.5001 476.4533,-282 466.4533,-278.5001 466.4534,-285.5001"/>
</g>
<!-- n -->
<g id="node14" class="node">
<title>n</title>
<polygon fill="none" stroke="#000000" points="632,-252 463,-252 463,-216 632,-216 632,-252"/>
<text text-anchor="middle" x="547.5" y="-230.3" font-family="Times,serif" font-size="14.00" fill="#000000">Chromatic Noise Reduction</text>
</g>
<!-- m&#45;&gt;n -->
<g id="edge11" class="edge">
<title>m&#45;&gt;n</title>
<path fill="none" stroke="#000000" d="M548,-269.7181C548,-269.7181 548,-262.2631 548,-262.2631"/>
<polygon fill="#000000" stroke="#000000" points="551.5001,-262.2631 548,-252.2631 544.5001,-262.2631 551.5001,-262.2631"/>
</g>
<!-- o -->
<g id="node15" class="node">
<title>o</title>
<polygon fill="none" stroke="#000000" points="618,-198 477,-198 477,-162 618,-162 618,-198"/>
<text text-anchor="middle" x="547.5" y="-176.3" font-family="Times,serif" font-size="14.00" fill="#000000">Total Color Correction</text>
</g>
<!-- n&#45;&gt;o -->
<g id="edge12" class="edge">
<title>n&#45;&gt;o</title>
<path fill="none" stroke="#000000" d="M548,-215.7181C548,-215.7181 548,-208.2631 548,-208.2631"/>
<polygon fill="#000000" stroke="#000000" points="551.5001,-208.2631 548,-198.2631 544.5001,-208.2631 551.5001,-208.2631"/>
</g>
<!-- p -->
<g id="node16" class="node">
<title>p</title>
<polygon fill="none" stroke="#000000" points="574.5,-144 520.5,-144 520.5,-108 574.5,-108 574.5,-144"/>
<text text-anchor="middle" x="547.5" y="-122.3" font-family="Times,serif" font-size="14.00" fill="#000000">XNR3</text>
</g>
<!-- o&#45;&gt;p -->
<g id="edge13" class="edge">
<title>o&#45;&gt;p</title>
<path fill="none" stroke="#000000" d="M548,-161.7181C548,-161.7181 548,-154.2631 548,-154.2631"/>
<polygon fill="#000000" stroke="#000000" points="551.5001,-154.2631 548,-144.2631 544.5001,-154.2631 551.5001,-154.2631"/>
</g>
<!-- q -->
<g id="node17" class="node">
<title>q</title>
<polygon fill="none" stroke="#000000" points="574.5,-90 520.5,-90 520.5,-54 574.5,-54 574.5,-90"/>
<text text-anchor="middle" x="547.5" y="-68.3" font-family="Times,serif" font-size="14.00" fill="#000000">TNR</text>
</g>
<!-- p&#45;&gt;q -->
<g id="edge14" class="edge">
<title>p&#45;&gt;q</title>
<path fill="none" stroke="#000000" d="M548,-107.7181C548,-107.7181 548,-100.2631 548,-100.2631"/>
<polygon fill="#000000" stroke="#000000" points="551.5001,-100.2631 548,-90.2631 544.5001,-100.2631 551.5001,-100.2631"/>
</g>
<!-- r -->
<g id="node18" class="node">
<title>r</title>
<polygon fill="none" stroke="#000000" points="574.5,-36 520.5,-36 520.5,0 574.5,0 574.5,-36"/>
<text text-anchor="middle" x="547.5" y="-14.3" font-family="Times,serif" font-size="14.00" fill="#000000">DDR</text>
</g>
<!-- q&#45;&gt;r -->
<g id="edge15" class="edge">
<title>q&#45;&gt;r</title>
<path fill="none" stroke="#000000" d="M548,-53.7181C548,-53.7181 548,-46.2631 548,-46.2631"/>
<polygon fill="#000000" stroke="#000000" points="551.5001,-46.2631 548,-36.2631 544.5001,-46.2631 551.5001,-46.2631"/>
</g>
</g>
</svg>
