<?xml version="1.0" encoding="UTF-8" standalone="no"?>
<!DOCTYPE svg PUBLIC "-//W3C//DTD SVG 1.1//EN"
 "http://www.w3.org/Graphics/SVG/1.1/DTD/svg11.dtd">
<!-- Generated by graphviz version 2.40.1 (20161225.0304)
 -->
<!-- Title: %3 Pages: 1 -->
<svg width="286pt" height="116pt"
 viewBox="0.00 0.00 285.50 116.00" xmlns="http://www.w3.org/2000/svg" xmlns:xlink="http://www.w3.org/1999/xlink">
<g id="graph0" class="graph" transform="scale(1 1) rotate(0) translate(4 112)">
<title>%3</title>
<polygon fill="#ffffff" stroke="transparent" points="-4,4 -4,-112 281.5,-112 281.5,4 -4,4"/>
<!-- drm_property A -->
<g id="node1" class="node">
<title>drm_property A</title>
<polygon fill="none" stroke="#000000" points="252.5,-108 147.5,-108 147.5,-72 252.5,-72 252.5,-108"/>
<text text-anchor="middle" x="200" y="-86.3" font-family="Times,serif" font-size="14.00" fill="#000000">drm_property A</text>
</g>
<!-- drm_mode_object A -->
<g id="node2" class="node">
<title>drm_mode_object A</title>
<polygon fill="none" stroke="#000000" points="130,-36 0,-36 0,0 130,0 130,-36"/>
<text text-anchor="middle" x="65" y="-14.3" font-family="Times,serif" font-size="14.00" fill="#000000">drm_mode_object A</text>
</g>
<!-- drm_property A&#45;&gt;drm_mode_object A -->
<g id="edge1" class="edge">
<title>drm_property A&#45;&gt;drm_mode_object A</title>
<path fill="none" stroke="#000000" d="M165.9338,-71.8314C148.3467,-62.4516 126.7084,-50.9112 107.9832,-40.9244"/>
<polygon fill="#000000" stroke="#000000" points="109.5259,-37.7805 99.0553,-36.1628 106.2318,-43.957 109.5259,-37.7805"/>
</g>
<!-- drm_mode_object B -->
<g id="node3" class="node">
<title>drm_mode_object B</title>
<polygon fill="none" stroke="#000000" points="277.5,-36 148.5,-36 148.5,0 277.5,0 277.5,-36"/>
<text text-anchor="middle" x="213" y="-14.3" font-family="Times,serif" font-size="14.00" fill="#000000">drm_mode_object B</text>
</g>
<!-- drm_property A&#45;&gt;drm_mode_object B -->
<g id="edge2" class="edge">
<title>drm_property A&#45;&gt;drm_mode_object B</title>
<path fill="none" stroke="#000000" d="M203.2804,-71.8314C204.6708,-64.131 206.3241,-54.9743 207.8692,-46.4166"/>
<polygon fill="#000000" stroke="#000000" points="211.3428,-46.8761 209.6754,-36.4133 204.4542,-45.6322 211.3428,-46.8761"/>
</g>
<!-- drm_property B -->
<g id="node4" class="node">
<title>drm_property B</title>
<polygon fill="none" stroke="#000000" points="117,-108 13,-108 13,-72 117,-72 117,-108"/>
<text text-anchor="middle" x="65" y="-86.3" font-family="Times,serif" font-size="14.00" fill="#000000">drm_property B</text>
</g>
<!-- drm_property B&#45;&gt;drm_mode_object A -->
<g id="edge3" class="edge">
<title>drm_property B&#45;&gt;drm_mode_object A</title>
<path fill="none" stroke="#000000" d="M65,-71.8314C65,-64.131 65,-54.9743 65,-46.4166"/>
<polygon fill="#000000" stroke="#000000" points="68.5001,-46.4132 65,-36.4133 61.5001,-46.4133 68.5001,-46.4132"/>
</g>
</g>
</svg>
