<?xml version="1.0" encoding="UTF-8" standalone="no"?>
<!DOCTYPE svg PUBLIC "-//W3C//DTD SVG 1.1//EN"
 "http://www.w3.org/Graphics/SVG/1.1/DTD/svg11.dtd">
<!-- Generated by graphviz version 2.40.1 (20161225.0304)
 -->
<!-- Title: KMS Pages: 1 -->
<svg width="375pt" height="409pt"
 viewBox="0.00 0.00 375.00 409.00" xmlns="http://www.w3.org/2000/svg" xmlns:xlink="http://www.w3.org/1999/xlink">
<g id="graph0" class="graph" transform="scale(1 1) rotate(0) translate(4 405)">
<title>KMS</title>
<polygon fill="#ffffff" stroke="transparent" points="-4,4 -4,-405 371,-405 371,4 -4,4"/>
<g id="clust1" class="cluster">
<title>cluster_static</title>
<polygon fill="none" stroke="#000000" stroke-dasharray="5,2" points="67,-91 67,-310 305,-310 305,-91 67,-91"/>
<text text-anchor="middle" x="186" y="-294.8" font-family="Times,serif" font-size="14.00" fill="#000000">Static Objects</text>
</g>
<g id="clust2" class="cluster">
<title>cluster_user_created</title>
<polygon fill="none" stroke="#000000" stroke-dasharray="5,2" points="8,-318 8,-393 359,-393 359,-318 8,-318"/>
<text text-anchor="middle" x="183.5" y="-377.8" font-family="Times,serif" font-size="14.00" fill="#000000">Userspace&#45;Created</text>
</g>
<g id="clust3" class="cluster">
<title>cluster_connector</title>
<polygon fill="none" stroke="#000000" stroke-dasharray="5,2" points="56,-8 56,-83 316,-83 316,-8 56,-8"/>
<text text-anchor="middle" x="186" y="-67.8" font-family="Times,serif" font-size="14.00" fill="#000000">Hotpluggable</text>
</g>
<!-- drm_plane A -->
<g id="node1" class="node">
<title>drm_plane A</title>
<polygon fill="#d3d3d3" stroke="#000000" points="285.5,-279 196.5,-279 196.5,-243 285.5,-243 285.5,-279"/>
<text text-anchor="middle" x="241" y="-257.3" font-family="Times,serif" font-size="14.00" fill="#000000">drm_plane A</text>
</g>
<!-- drm_crtc -->
<g id="node2" class="node">
<title>drm_crtc</title>
<polygon fill="#d3d3d3" stroke="#000000" points="164,-207 98,-207 98,-171 164,-171 164,-207"/>
<text text-anchor="middle" x="131" y="-185.3" font-family="Times,serif" font-size="14.00" fill="#000000">drm_crtc</text>
</g>
<!-- drm_plane A&#45;&gt;drm_crtc -->
<g id="edge1" class="edge">
<title>drm_plane A&#45;&gt;drm_crtc</title>
<path fill="none" stroke="#000000" d="M213.2424,-242.8314C199.303,-233.7074 182.2402,-222.539 167.2769,-212.7449"/>
<polygon fill="#000000" stroke="#000000" points="169.0326,-209.711 158.7488,-207.1628 165.199,-215.5679 169.0326,-209.711"/>
</g>
<!-- drm_encoder A -->
<g id="node4" class="node">
<title>drm_encoder A</title>
<polygon fill="#d3d3d3" stroke="#000000" points="177,-135 75,-135 75,-99 177,-99 177,-135"/>
<text text-anchor="middle" x="126" y="-113.3" font-family="Times,serif" font-size="14.00" fill="#000000">drm_encoder A</text>
</g>
<!-- drm_crtc&#45;&gt;drm_encoder A -->
<g id="edge3" class="edge">
<title>drm_crtc&#45;&gt;drm_encoder A</title>
<path fill="none" stroke="#000000" d="M129.7383,-170.8314C129.2035,-163.131 128.5677,-153.9743 127.9734,-145.4166"/>
<polygon fill="#000000" stroke="#000000" points="131.4632,-145.1467 127.2787,-135.4133 124.48,-145.6317 131.4632,-145.1467"/>
</g>
<!-- drm_encoder B -->
<g id="node5" class="node">
<title>drm_encoder B</title>
<polygon fill="#d3d3d3" stroke="#000000" points="296.5,-135 195.5,-135 195.5,-99 296.5,-99 296.5,-135"/>
<text text-anchor="middle" x="246" y="-113.3" font-family="Times,serif" font-size="14.00" fill="#000000">drm_encoder B</text>
</g>
<!-- drm_crtc&#45;&gt;drm_encoder B -->
<g id="edge4" class="edge">
<title>drm_crtc&#45;&gt;drm_encoder B</title>
<path fill="none" stroke="#000000" d="M160.0194,-170.8314C174.7286,-161.6221 192.7644,-150.3301 208.5122,-140.4706"/>
<polygon fill="#000000" stroke="#000000" points="210.3714,-143.436 216.9899,-135.1628 206.6567,-137.5029 210.3714,-143.436"/>
</g>
<!-- drm_plane B -->
<g id="node3" class="node">
<title>drm_plane B</title>
<polygon fill="#d3d3d3" stroke="#000000" points="169,-279 81,-279 81,-243 169,-243 169,-279"/>
<text text-anchor="middle" x="125" y="-257.3" font-family="Times,serif" font-size="14.00" fill="#000000">drm_plane B</text>
</g>
<!-- drm_plane B&#45;&gt;drm_crtc -->
<g id="edge2" class="edge">
<title>drm_plane B&#45;&gt;drm_crtc</title>
<path fill="none" stroke="#000000" d="M126.5141,-242.8314C127.1558,-235.131 127.9188,-225.9743 128.6319,-217.4166"/>
<polygon fill="#000000" stroke="#000000" points="132.1229,-217.6694 129.4656,-207.4133 125.1471,-217.088 132.1229,-217.6694"/>
</g>
<!-- drm_connector A -->
<g id="node8" class="node">
<title>drm_connector A</title>
<polygon fill="none" stroke="#000000" points="177.5,-52 64.5,-52 64.5,-16 177.5,-16 177.5,-52"/>
<text text-anchor="middle" x="121" y="-30.3" font-family="Times,serif" font-size="14.00" fill="#000000">drm_connector A</text>
</g>
<!-- drm_encoder A&#45;&gt;drm_connector A -->
<g id="edge7" class="edge">
<title>drm_encoder A&#45;&gt;drm_connector A</title>
<path fill="none" stroke="#000000" d="M124.9151,-98.9902C124.2709,-88.2963 123.4397,-74.4994 122.7091,-62.3706"/>
<polygon fill="#000000" stroke="#000000" points="126.1952,-62.0326 122.1001,-52.2612 119.2078,-62.4536 126.1952,-62.0326"/>
</g>
<!-- drm_connector B -->
<g id="node9" class="node">
<title>drm_connector B</title>
<polygon fill="none" stroke="#000000" points="308,-52 196,-52 196,-16 308,-16 308,-52"/>
<text text-anchor="middle" x="252" y="-30.3" font-family="Times,serif" font-size="14.00" fill="#000000">drm_connector B</text>
</g>
<!-- drm_encoder B&#45;&gt;drm_connector B -->
<g id="edge8" class="edge">
<title>drm_encoder B&#45;&gt;drm_connector B</title>
<path fill="none" stroke="#000000" d="M247.3019,-98.9902C248.075,-88.2963 249.0723,-74.4994 249.9491,-62.3706"/>
<polygon fill="#000000" stroke="#000000" points="253.4497,-62.4876 250.6799,-52.2612 246.4679,-61.9828 253.4497,-62.4876"/>
</g>
<!-- drm_framebuffer 1 -->
<g id="node6" class="node">
<title>drm_framebuffer 1</title>
<ellipse fill="none" stroke="#000000" cx="272" cy="-344" rx="79.0865" ry="18"/>
<text text-anchor="middle" x="272" y="-340.3" font-family="Times,serif" font-size="14.00" fill="#000000">drm_framebuffer 1</text>
</g>
<!-- drm_framebuffer 1&#45;&gt;drm_plane A -->
<g id="edge5" class="edge">
<title>drm_framebuffer 1&#45;&gt;drm_plane A</title>
<path fill="none" stroke="#000000" d="M265.2735,-325.9902C261.1986,-315.0802 255.9176,-300.9407 251.3225,-288.6376"/>
<polygon fill="#000000" stroke="#000000" points="254.5982,-287.4045 247.8205,-279.2612 248.0406,-289.8538 254.5982,-287.4045"/>
</g>
<!-- drm_framebuffer 2 -->
<g id="node7" class="node">
<title>drm_framebuffer 2</title>
<ellipse fill="none" stroke="#000000" cx="95" cy="-344" rx="79.0865" ry="18"/>
<text text-anchor="middle" x="95" y="-340.3" font-family="Times,serif" font-size="14.00" fill="#000000">drm_framebuffer 2</text>
</g>
<!-- drm_framebuffer 2&#45;&gt;drm_plane B -->
<g id="edge6" class="edge">
<title>drm_framebuffer 2&#45;&gt;drm_plane B</title>
<path fill="none" stroke="#000000" d="M101.5096,-325.9902C105.4139,-315.1883 110.4625,-301.2204 114.8782,-289.0036"/>
<polygon fill="#000000" stroke="#000000" points="118.2918,-289.8555 118.3996,-279.2612 111.7087,-287.476 118.2918,-289.8555"/>
</g>
</g>
</svg>
