<?xml version="1.0" encoding="UTF-8" standalone="no"?>
<!DOCTYPE svg PUBLIC "-//W3C//DTD SVG 1.1//EN"
 "http://www.w3.org/Graphics/SVG/1.1/DTD/svg11.dtd">
<!-- Generated by graphviz version 2.40.1 (20161225.0304)
 -->
<!-- Title: %3 Pages: 1 -->
<svg width="1096pt" height="540pt"
 viewBox="0.00 0.00 1096.00 540.00" xmlns="http://www.w3.org/2000/svg" xmlns:xlink="http://www.w3.org/1999/xlink">
<g id="graph0" class="graph" transform="scale(1 1) rotate(0) translate(4 536)">
<title>%3</title>
<polygon fill="#ffffff" stroke="transparent" points="-4,4 -4,-536 1092,-536 1092,4 -4,4"/>
<g id="clust1" class="cluster">
<title>cluster_state</title>
<polygon fill="none" stroke="#000000" stroke-dasharray="5,2" points="8,-324 8,-524 985,-524 985,-324 8,-324"/>
<text text-anchor="middle" x="496.5" y="-508.8" font-family="Times,serif" font-size="14.00" fill="#000000">Free&#45;standing state</text>
</g>
<g id="clust2" class="cluster">
<title>cluster_current</title>
<polygon fill="none" stroke="#000000" stroke-dasharray="5,2" points="99,-8 99,-305 776,-305 776,-8 99,-8"/>
<text text-anchor="middle" x="437.5" y="-289.8" font-family="Times,serif" font-size="14.00" fill="#000000">Current state</text>
</g>
<!-- drm_atomic_state -->
<g id="node1" class="node">
<title>drm_atomic_state</title>
<polygon fill="none" stroke="#000000" points="623.5,-493 508.5,-493 508.5,-457 623.5,-457 623.5,-493"/>
<text text-anchor="middle" x="566" y="-471.3" font-family="Times,serif" font-size="14.00" fill="#000000">drm_atomic_state</text>
</g>
<!-- duplicated drm_plane_state A -->
<g id="node2" class="node">
<title>duplicated drm_plane_state A</title>
<polygon fill="none" stroke="#000000" points="196,-368 16,-368 16,-332 196,-332 196,-368"/>
<text text-anchor="middle" x="106" y="-346.3" font-family="Times,serif" font-size="14.00" fill="#000000">duplicated drm_plane_state A</text>
</g>
<!-- drm_atomic_state&#45;&gt;duplicated drm_plane_state A -->
<g id="edge1" class="edge">
<title>drm_atomic_state&#45;&gt;duplicated drm_plane_state A</title>
<path fill="none" stroke="#000000" d="M508.2065,-459.2952C425.6723,-436.8675 273.9143,-395.6289 182.2544,-370.7213"/>
<polygon fill="#000000" stroke="#000000" points="183.0484,-367.3102 172.4805,-368.0654 181.2128,-374.0653 183.0484,-367.3102"/>
</g>
<!-- duplicated drm_plane_state B -->
<g id="node3" class="node">
<title>duplicated drm_plane_state B</title>
<polygon fill="none" stroke="#000000" points="393.5,-368 214.5,-368 214.5,-332 393.5,-332 393.5,-368"/>
<text text-anchor="middle" x="304" y="-346.3" font-family="Times,serif" font-size="14.00" fill="#000000">duplicated drm_plane_state B</text>
</g>
<!-- drm_atomic_state&#45;&gt;duplicated drm_plane_state B -->
<g id="edge2" class="edge">
<title>drm_atomic_state&#45;&gt;duplicated drm_plane_state B</title>
<path fill="none" stroke="#000000" d="M528.1828,-456.9574C481.3568,-434.6168 401.5967,-396.5633 350.9161,-372.3836"/>
<polygon fill="#000000" stroke="#000000" points="352.3383,-369.1843 341.8058,-368.0371 349.3241,-375.5021 352.3383,-369.1843"/>
</g>
<!-- duplicated drm_crtc_state -->
<g id="node4" class="node">
<title>duplicated drm_crtc_state</title>
<polygon fill="none" stroke="#000000" points="570,-368 412,-368 412,-332 570,-332 570,-368"/>
<text text-anchor="middle" x="491" y="-346.3" font-family="Times,serif" font-size="14.00" fill="#000000">duplicated drm_crtc_state</text>
</g>
<!-- drm_atomic_state&#45;&gt;duplicated drm_crtc_state -->
<g id="edge3" class="edge">
<title>drm_atomic_state&#45;&gt;duplicated drm_crtc_state</title>
<path fill="none" stroke="#000000" d="M555.0944,-456.8239C542.4857,-435.8095 521.6128,-401.0213 507.1272,-376.8787"/>
<polygon fill="#000000" stroke="#000000" points="510.065,-374.9722 501.9188,-368.198 504.0626,-378.5737 510.065,-374.9722"/>
</g>
<!-- duplicated drm_connector_state -->
<g id="node5" class="node">
<title>duplicated drm_connector_state</title>
<polygon fill="none" stroke="#000000" points="779.5,-368 588.5,-368 588.5,-332 779.5,-332 779.5,-368"/>
<text text-anchor="middle" x="684" y="-346.3" font-family="Times,serif" font-size="14.00" fill="#000000">duplicated drm_connector_state</text>
</g>
<!-- drm_atomic_state&#45;&gt;duplicated drm_connector_state -->
<g id="edge4" class="edge">
<title>drm_atomic_state&#45;&gt;duplicated drm_connector_state</title>
<path fill="none" stroke="#000000" d="M583.1582,-456.8239C603.3454,-435.4392 636.9972,-399.7911 659.8218,-375.6125"/>
<polygon fill="#000000" stroke="#000000" points="662.5016,-377.8724 666.8211,-368.198 657.4114,-373.0672 662.5016,-377.8724"/>
</g>
<!-- duplicated driver private state -->
<g id="node6" class="node">
<title>duplicated driver private state</title>
<polygon fill="none" stroke="#000000" points="976.5,-368 797.5,-368 797.5,-332 976.5,-332 976.5,-368"/>
<text text-anchor="middle" x="887" y="-346.3" font-family="Times,serif" font-size="14.00" fill="#000000">duplicated driver private state</text>
</g>
<!-- drm_atomic_state&#45;&gt;duplicated driver private state -->
<g id="edge5" class="edge">
<title>drm_atomic_state&#45;&gt;duplicated driver private state</title>
<path fill="none" stroke="#000000" d="M612.3333,-456.9574C670.1802,-434.4314 769.0501,-395.9306 831.0574,-371.7845"/>
<polygon fill="#000000" stroke="#000000" points="832.6323,-374.9273 840.6807,-368.0371 830.0922,-368.4044 832.6323,-374.9273"/>
</g>
<!-- drm_device -->
<g id="node7" class="node">
<title>drm_device</title>
<polygon fill="none" stroke="#000000" points="472.5,-274 391.5,-274 391.5,-238 472.5,-238 472.5,-274"/>
<text text-anchor="middle" x="432" y="-252.3" font-family="Times,serif" font-size="14.00" fill="#000000">drm_device</text>
</g>
<!-- drm_atomic_state&#45;&gt;drm_device -->
<g id="edge16" class="edge">
<title>drm_atomic_state&#45;&gt;drm_device</title>
<path fill="none" stroke="#000000" d="M623.6591,-473.5043C761.4448,-468.0123 1090.8079,-442.4589 986,-324 952.9046,-286.594 613.8071,-265.3342 483.0429,-258.4747"/>
<polygon fill="#000000" stroke="#000000" points="483.0553,-254.9708 472.8877,-257.9491 482.6934,-261.9614 483.0553,-254.9708"/>
<text text-anchor="middle" x="1044" y="-389.8" font-family="Times,serif" font-size="14.00" fill="#000000">atomic_commit</text>
</g>
<!-- duplicated drm_plane_state A&#45;&gt;drm_device -->
<!-- drm_plane A -->
<g id="node8" class="node">
<title>drm_plane A</title>
<polygon fill="none" stroke="#000000" points="227.5,-163 138.5,-163 138.5,-127 227.5,-127 227.5,-163"/>
<text text-anchor="middle" x="183" y="-141.3" font-family="Times,serif" font-size="14.00" fill="#000000">drm_plane A</text>
</g>
<!-- drm_device&#45;&gt;drm_plane A -->
<g id="edge6" class="edge">
<title>drm_device&#45;&gt;drm_plane A</title>
<path fill="none" stroke="#000000" d="M391.4397,-237.9189C348.121,-218.6081 279.4247,-187.9845 232.8406,-167.2181"/>
<polygon fill="#000000" stroke="#000000" points="234.1016,-163.9483 223.543,-163.0734 231.2515,-170.3418 234.1016,-163.9483"/>
</g>
<!-- drm_plane B -->
<g id="node9" class="node">
<title>drm_plane B</title>
<polygon fill="none" stroke="#000000" points="365,-163 277,-163 277,-127 365,-127 365,-163"/>
<text text-anchor="middle" x="321" y="-141.3" font-family="Times,serif" font-size="14.00" fill="#000000">drm_plane B</text>
</g>
<!-- drm_device&#45;&gt;drm_plane B -->
<g id="edge7" class="edge">
<title>drm_device&#45;&gt;drm_plane B</title>
<path fill="none" stroke="#000000" d="M413.6706,-237.6706C395.3536,-219.3536 367.0394,-191.0394 346.5276,-170.5276"/>
<polygon fill="#000000" stroke="#000000" points="348.9026,-167.9528 339.3566,-163.3566 343.9528,-172.9026 348.9026,-167.9528"/>
</g>
<!-- drm_crtc -->
<g id="node10" class="node">
<title>drm_crtc</title>
<polygon fill="none" stroke="#000000" points="465,-163 399,-163 399,-127 465,-127 465,-163"/>
<text text-anchor="middle" x="432" y="-141.3" font-family="Times,serif" font-size="14.00" fill="#000000">drm_crtc</text>
</g>
<!-- drm_device&#45;&gt;drm_crtc -->
<g id="edge8" class="edge">
<title>drm_device&#45;&gt;drm_crtc</title>
<path fill="none" stroke="#000000" d="M432,-237.6706C432,-220.2373 432,-193.7482 432,-173.5489"/>
<polygon fill="#000000" stroke="#000000" points="435.5001,-173.3566 432,-163.3566 428.5001,-173.3567 435.5001,-173.3566"/>
</g>
<!-- drm_connector -->
<g id="node11" class="node">
<title>drm_connector</title>
<polygon fill="none" stroke="#000000" points="598.5,-163 499.5,-163 499.5,-127 598.5,-127 598.5,-163"/>
<text text-anchor="middle" x="549" y="-141.3" font-family="Times,serif" font-size="14.00" fill="#000000">drm_connector</text>
</g>
<!-- drm_device&#45;&gt;drm_connector -->
<g id="edge9" class="edge">
<title>drm_device&#45;&gt;drm_connector</title>
<path fill="none" stroke="#000000" d="M451.0585,-237.9189C470.5207,-219.4547 500.8846,-190.6479 522.644,-170.0044"/>
<polygon fill="#000000" stroke="#000000" points="525.1039,-172.4951 529.9497,-163.0734 520.2861,-167.4169 525.1039,-172.4951"/>
</g>
<!-- driver private object -->
<g id="node12" class="node">
<title>driver private object</title>
<polygon fill="none" stroke="#000000" points="755.5,-163 628.5,-163 628.5,-127 755.5,-127 755.5,-163"/>
<text text-anchor="middle" x="692" y="-141.3" font-family="Times,serif" font-size="14.00" fill="#000000">driver private object</text>
</g>
<!-- drm_device&#45;&gt;driver private object -->
<g id="edge10" class="edge">
<title>drm_device&#45;&gt;driver private object</title>
<path fill="none" stroke="#000000" d="M472.625,-238.6563C517.8419,-219.3521 591.0188,-188.1112 640.2884,-167.0769"/>
<polygon fill="#000000" stroke="#000000" points="641.68,-170.2884 649.5027,-163.1431 638.9315,-163.8506 641.68,-170.2884"/>
</g>
<!-- drm_plane_state A -->
<g id="node13" class="node">
<title>drm_plane_state A</title>
<polygon fill="none" stroke="#000000" points="227,-52 107,-52 107,-16 227,-16 227,-52"/>
<text text-anchor="middle" x="167" y="-30.3" font-family="Times,serif" font-size="14.00" fill="#000000">drm_plane_state A</text>
</g>
<!-- drm_plane A&#45;&gt;drm_plane_state A -->
<g id="edge11" class="edge">
<title>drm_plane A&#45;&gt;drm_plane_state A</title>
<path fill="none" stroke="#000000" d="M180.3579,-126.6706C177.8334,-109.1569 173.9915,-82.5039 171.075,-62.2701"/>
<polygon fill="#000000" stroke="#000000" points="174.537,-61.755 169.646,-52.3566 167.6086,-62.7537 174.537,-61.755"/>
</g>
<!-- drm_plane_state B -->
<g id="node14" class="node">
<title>drm_plane_state B</title>
<polygon fill="none" stroke="#000000" points="364.5,-52 245.5,-52 245.5,-16 364.5,-16 364.5,-52"/>
<text text-anchor="middle" x="305" y="-30.3" font-family="Times,serif" font-size="14.00" fill="#000000">drm_plane_state B</text>
</g>
<!-- drm_plane B&#45;&gt;drm_plane_state B -->
<g id="edge12" class="edge">
<title>drm_plane B&#45;&gt;drm_plane_state B</title>
<path fill="none" stroke="#000000" d="M318.3579,-126.6706C315.8334,-109.1569 311.9915,-82.5039 309.075,-62.2701"/>
<polygon fill="#000000" stroke="#000000" points="312.537,-61.755 307.646,-52.3566 305.6086,-62.7537 312.537,-61.755"/>
</g>
<!-- drm_crtc_state -->
<g id="node15" class="node">
<title>drm_crtc_state</title>
<polygon fill="none" stroke="#000000" points="481,-52 383,-52 383,-16 481,-16 481,-52"/>
<text text-anchor="middle" x="432" y="-30.3" font-family="Times,serif" font-size="14.00" fill="#000000">drm_crtc_state</text>
</g>
<!-- drm_crtc&#45;&gt;drm_crtc_state -->
<g id="edge13" class="edge">
<title>drm_crtc&#45;&gt;drm_crtc_state</title>
<path fill="none" stroke="#000000" d="M432,-126.6706C432,-109.2373 432,-82.7482 432,-62.5489"/>
<polygon fill="#000000" stroke="#000000" points="435.5001,-62.3566 432,-52.3566 428.5001,-62.3567 435.5001,-62.3566"/>
</g>
<!-- drm_connector_state -->
<g id="node16" class="node">
<title>drm_connector_state</title>
<polygon fill="none" stroke="#000000" points="630.5,-52 499.5,-52 499.5,-16 630.5,-16 630.5,-52"/>
<text text-anchor="middle" x="565" y="-30.3" font-family="Times,serif" font-size="14.00" fill="#000000">drm_connector_state</text>
</g>
<!-- drm_connector&#45;&gt;drm_connector_state -->
<g id="edge14" class="edge">
<title>drm_connector&#45;&gt;drm_connector_state</title>
<path fill="none" stroke="#000000" d="M551.6421,-126.6706C554.1666,-109.1569 558.0085,-82.5039 560.925,-62.2701"/>
<polygon fill="#000000" stroke="#000000" points="564.3914,-62.7537 562.354,-52.3566 557.463,-61.755 564.3914,-62.7537"/>
</g>
<!-- driver private state -->
<g id="node17" class="node">
<title>driver private state</title>
<polygon fill="none" stroke="#000000" points="767.5,-52 648.5,-52 648.5,-16 767.5,-16 767.5,-52"/>
<text text-anchor="middle" x="708" y="-30.3" font-family="Times,serif" font-size="14.00" fill="#000000">driver private state</text>
</g>
<!-- driver private object&#45;&gt;driver private state -->
<g id="edge15" class="edge">
<title>driver private object&#45;&gt;driver private state</title>
<path fill="none" stroke="#000000" d="M694.6421,-126.6706C697.1666,-109.1569 701.0085,-82.5039 703.925,-62.2701"/>
<polygon fill="#000000" stroke="#000000" points="707.3914,-62.7537 705.354,-52.3566 700.463,-61.755 707.3914,-62.7537"/>
</g>
</g>
</svg>
