<?xml version="1.0" encoding="UTF-8" standalone="no"?>
<!DOCTYPE svg PUBLIC "-//W3C//DTD SVG 1.1//EN"
 "http://www.w3.org/Graphics/SVG/1.1/DTD/svg11.dtd">
<!-- Generated by graphviz version 2.40.1 (20161225.0304)
 -->
<!-- Title: single_ppl Pages: 1 -->
<svg width="657pt" height="238pt"
 viewBox="0.00 0.00 657.49 238.00" xmlns="http://www.w3.org/2000/svg" xmlns:xlink="http://www.w3.org/1999/xlink">
<g id="graph0" class="graph" transform="scale(1 1) rotate(0) translate(4 234)">
<title>single_ppl</title>
<polygon fill="#ffffff" stroke="transparent" points="-4,4 -4,-234 653.4925,-234 653.4925,4 -4,4"/>
<g id="clust2" class="cluster">
<title>cluster_pipeline</title>
<polygon fill="none" stroke="#000000" stroke-dasharray="5,2" points="8,-8 8,-222 537,-222 537,-8 8,-8"/>
</g>
<!-- Memory -->
<g id="node1" class="node">
<title>Memory</title>
<ellipse fill="none" stroke="#000000" cx="607.2463" cy="-142" rx="42.4939" ry="18"/>
<text text-anchor="middle" x="607.2463" y="-138.3" font-family="Times,serif" font-size="14.00" fill="#000000">Memory</text>
</g>
<!-- Monitor -->
<g id="node2" class="node">
<title>Monitor</title>
<ellipse fill="none" stroke="#000000" cx="607.2463" cy="-88" rx="40.0939" ry="18"/>
<text text-anchor="middle" x="607.2463" y="-84.3" font-family="Times,serif" font-size="14.00" fill="#000000">Monitor</text>
</g>
<!-- Scaler&#45;0 -->
<g id="node3" class="node">
<title>Scaler&#45;0</title>
<polygon fill="none" stroke="#000000" stroke-dasharray="5,2" points="173,-180 111,-180 111,-144 173,-144 173,-180"/>
<text text-anchor="middle" x="142" y="-158.3" font-family="Times,serif" font-size="14.00" fill="#000000">Scaler&#45;0</text>
</g>
<!-- Compiz -->
<g id="node10" class="node">
<title>Compiz</title>
<polygon fill="#d3d3d3" stroke="#000000" points="269,-133 209,-133 209,-97 269,-97 269,-133"/>
<text text-anchor="middle" x="239" y="-111.3" font-family="Times,serif" font-size="14.00" fill="#000000">Compiz</text>
</g>
<!-- Scaler&#45;0&#45;&gt;Compiz -->
<g id="edge9" class="edge">
<title>Scaler&#45;0&#45;&gt;Compiz</title>
<path fill="none" stroke="#000000" d="M173.2253,-146.8702C181.6929,-142.7674 190.9686,-138.273 199.8146,-133.9867"/>
<polygon fill="#000000" stroke="#000000" points="201.3527,-137.1307 208.8258,-129.6205 198.3004,-130.8313 201.3527,-137.1307"/>
</g>
<!-- Scaler&#45;1 -->
<g id="node4" class="node">
<title>Scaler&#45;1</title>
<polygon fill="none" stroke="#000000" stroke-dasharray="5,2" points="173,-86 111,-86 111,-50 173,-50 173,-86"/>
<text text-anchor="middle" x="142" y="-64.3" font-family="Times,serif" font-size="14.00" fill="#000000">Scaler&#45;1</text>
</g>
<!-- Scaler&#45;1&#45;&gt;Compiz -->
<g id="edge10" class="edge">
<title>Scaler&#45;1&#45;&gt;Compiz</title>
<path fill="none" stroke="#000000" d="M173.2253,-83.1298C181.6929,-87.2326 190.9686,-91.727 199.8146,-96.0133"/>
<polygon fill="#000000" stroke="#000000" points="198.3004,-99.1687 208.8258,-100.3795 201.3527,-92.8693 198.3004,-99.1687"/>
</g>
<!-- Scaler&#45;0/1 -->
<g id="node5" class="node">
<title>Scaler&#45;0/1</title>
<polygon fill="none" stroke="#000000" stroke-dasharray="5,2" points="377,-160 305,-160 305,-124 377,-124 377,-160"/>
<text text-anchor="middle" x="341" y="-138.3" font-family="Times,serif" font-size="14.00" fill="#000000">Scaler&#45;0/1</text>
</g>
<!-- Wb_layer -->
<g id="node11" class="node">
<title>Wb_layer</title>
<polygon fill="#d3d3d3" stroke="#000000" points="506.5,-160 435.5,-160 435.5,-124 506.5,-124 506.5,-160"/>
<text text-anchor="middle" x="471" y="-138.3" font-family="Times,serif" font-size="14.00" fill="#000000">Wb_layer</text>
</g>
<!-- Scaler&#45;0/1&#45;&gt;Wb_layer -->
<g id="edge12" class="edge">
<title>Scaler&#45;0/1&#45;&gt;Wb_layer</title>
<path fill="none" stroke="#000000" d="M377.2122,-142C392.1265,-142 409.5747,-142 425.3498,-142"/>
<polygon fill="#000000" stroke="#000000" points="425.4313,-145.5001 435.4313,-142 425.4312,-138.5001 425.4313,-145.5001"/>
</g>
<!-- Layer&#45;0 -->
<g id="node6" class="node">
<title>Layer&#45;0</title>
<polygon fill="#d3d3d3" stroke="#000000" points="75,-214 16,-214 16,-178 75,-178 75,-214"/>
<text text-anchor="middle" x="45.5" y="-192.3" font-family="Times,serif" font-size="14.00" fill="#000000">Layer&#45;0</text>
</g>
<!-- Layer&#45;0&#45;&gt;Scaler&#45;0 -->
<g id="edge1" class="edge">
<title>Layer&#45;0&#45;&gt;Scaler&#45;0</title>
<path fill="none" stroke="#000000" d="M75.2406,-185.5214C83.4488,-182.6294 92.4993,-179.4407 101.2166,-176.3693"/>
<polygon fill="#000000" stroke="#000000" points="102.5859,-179.5978 110.8545,-172.9735 100.2597,-172.9956 102.5859,-179.5978"/>
</g>
<!-- Layer&#45;0&#45;&gt;Compiz -->
<g id="edge5" class="edge">
<title>Layer&#45;0&#45;&gt;Compiz</title>
<path fill="none" stroke="#000000" d="M75.1815,-200.5778C102.0888,-203.3305 142.1391,-203.8566 173,-189 194.2657,-178.7626 211.6835,-158.266 223.2755,-141.4353"/>
<polygon fill="#000000" stroke="#000000" points="226.2251,-143.32 228.7959,-133.0418 220.3766,-139.4734 226.2251,-143.32"/>
</g>
<!-- Layer&#45;1 -->
<g id="node7" class="node">
<title>Layer&#45;1</title>
<polygon fill="#d3d3d3" stroke="#000000" points="75,-160 16,-160 16,-124 75,-124 75,-160"/>
<text text-anchor="middle" x="45.5" y="-138.3" font-family="Times,serif" font-size="14.00" fill="#000000">Layer&#45;1</text>
</g>
<!-- Layer&#45;1&#45;&gt;Scaler&#45;0 -->
<g id="edge2" class="edge">
<title>Layer&#45;1&#45;&gt;Scaler&#45;0</title>
<path fill="none" stroke="#000000" d="M75.2406,-148.1639C83.3605,-149.8467 92.3048,-151.7005 100.9353,-153.4892"/>
<polygon fill="#000000" stroke="#000000" points="100.3523,-156.9427 110.8545,-155.545 101.7729,-150.0883 100.3523,-156.9427"/>
</g>
<!-- Layer&#45;1&#45;&gt;Compiz -->
<g id="edge6" class="edge">
<title>Layer&#45;1&#45;&gt;Compiz</title>
<path fill="none" stroke="#000000" d="M75.3103,-137.8404C108.3091,-133.2359 161.6857,-125.788 198.4658,-120.6559"/>
<polygon fill="#000000" stroke="#000000" points="199.4167,-124.0572 208.837,-119.2088 198.4492,-117.1244 199.4167,-124.0572"/>
</g>
<!-- Layer&#45;2 -->
<g id="node8" class="node">
<title>Layer&#45;2</title>
<polygon fill="#d3d3d3" stroke="#000000" points="75,-106 16,-106 16,-70 75,-70 75,-106"/>
<text text-anchor="middle" x="45.5" y="-84.3" font-family="Times,serif" font-size="14.00" fill="#000000">Layer&#45;2</text>
</g>
<!-- Layer&#45;2&#45;&gt;Scaler&#45;1 -->
<g id="edge3" class="edge">
<title>Layer&#45;2&#45;&gt;Scaler&#45;1</title>
<path fill="none" stroke="#000000" d="M75.2406,-81.8361C83.3605,-80.1533 92.3048,-78.2995 100.9353,-76.5108"/>
<polygon fill="#000000" stroke="#000000" points="101.7729,-79.9117 110.8545,-74.455 100.3523,-73.0573 101.7729,-79.9117"/>
</g>
<!-- Layer&#45;2&#45;&gt;Compiz -->
<g id="edge7" class="edge">
<title>Layer&#45;2&#45;&gt;Compiz</title>
<path fill="none" stroke="#000000" d="M75.3103,-92.1596C108.3091,-96.7641 161.6857,-104.212 198.4658,-109.3441"/>
<polygon fill="#000000" stroke="#000000" points="198.4492,-112.8756 208.837,-110.7912 199.4167,-105.9428 198.4492,-112.8756"/>
</g>
<!-- Layer&#45;3 -->
<g id="node9" class="node">
<title>Layer&#45;3</title>
<polygon fill="#d3d3d3" stroke="#000000" points="75,-52 16,-52 16,-16 75,-16 75,-52"/>
<text text-anchor="middle" x="45.5" y="-30.3" font-family="Times,serif" font-size="14.00" fill="#000000">Layer&#45;3</text>
</g>
<!-- Layer&#45;3&#45;&gt;Scaler&#45;1 -->
<g id="edge4" class="edge">
<title>Layer&#45;3&#45;&gt;Scaler&#45;1</title>
<path fill="none" stroke="#000000" d="M75.2406,-44.4786C83.4488,-47.3706 92.4993,-50.5593 101.2166,-53.6307"/>
<polygon fill="#000000" stroke="#000000" points="100.2597,-57.0044 110.8545,-57.0265 102.5859,-50.4022 100.2597,-57.0044"/>
</g>
<!-- Layer&#45;3&#45;&gt;Compiz -->
<g id="edge8" class="edge">
<title>Layer&#45;3&#45;&gt;Compiz</title>
<path fill="none" stroke="#000000" d="M75.1815,-29.4222C102.0888,-26.6695 142.1391,-26.1434 173,-41 194.2657,-51.2374 211.6835,-71.734 223.2755,-88.5647"/>
<polygon fill="#000000" stroke="#000000" points="220.3766,-90.5266 228.7959,-96.9582 226.2251,-86.68 220.3766,-90.5266"/>
</g>
<!-- Compiz&#45;&gt;Scaler&#45;0/1 -->
<g id="edge11" class="edge">
<title>Compiz&#45;&gt;Scaler&#45;0/1</title>
<path fill="none" stroke="#000000" d="M269.0517,-122.9549C277.164,-125.1022 286.1321,-127.4761 294.9049,-129.7983"/>
<polygon fill="#000000" stroke="#000000" points="294.1079,-133.2079 304.6706,-132.3834 295.8992,-126.4409 294.1079,-133.2079"/>
</g>
<!-- Improc -->
<g id="node12" class="node">
<title>Improc</title>
<polygon fill="#d3d3d3" stroke="#000000" points="369,-106 313,-106 313,-70 369,-70 369,-106"/>
<text text-anchor="middle" x="341" y="-84.3" font-family="Times,serif" font-size="14.00" fill="#000000">Improc</text>
</g>
<!-- Compiz&#45;&gt;Improc -->
<g id="edge13" class="edge">
<title>Compiz&#45;&gt;Improc</title>
<path fill="none" stroke="#000000" d="M269.0517,-107.0451C279.6697,-104.2345 291.754,-101.0357 302.9473,-98.0728"/>
<polygon fill="#000000" stroke="#000000" points="304.1373,-101.3784 312.9087,-95.4359 302.346,-94.6115 304.1373,-101.3784"/>
</g>
<!-- Wb_layer&#45;&gt;Memory -->
<g id="edge15" class="edge">
<title>Wb_layer&#45;&gt;Memory</title>
<path fill="none" stroke="#000000" d="M506.7971,-142C521.4138,-142 538.6152,-142 554.6132,-142"/>
<polygon fill="#000000" stroke="#000000" points="554.9131,-145.5001 564.913,-142 554.913,-138.5001 554.9131,-145.5001"/>
</g>
<!-- Timing Controller -->
<g id="node13" class="node">
<title>Timing Controller</title>
<polygon fill="#d3d3d3" stroke="#000000" points="529,-106 413,-106 413,-70 529,-70 529,-106"/>
<text text-anchor="middle" x="471" y="-84.3" font-family="Times,serif" font-size="14.00" fill="#000000">Timing Controller</text>
</g>
<!-- Improc&#45;&gt;Timing Controller -->
<g id="edge14" class="edge">
<title>Improc&#45;&gt;Timing Controller</title>
<path fill="none" stroke="#000000" d="M369.2081,-88C379.2426,-88 391.0215,-88 402.938,-88"/>
<polygon fill="#000000" stroke="#000000" points="402.9449,-91.5001 412.9448,-88 402.9448,-84.5001 402.9449,-91.5001"/>
</g>
<!-- Timing Controller&#45;&gt;Monitor -->
<g id="edge16" class="edge">
<title>Timing Controller&#45;&gt;Monitor</title>
<path fill="none" stroke="#000000" d="M529.1759,-88C538.2212,-88 547.5057,-88 556.3728,-88"/>
<polygon fill="#000000" stroke="#000000" points="556.551,-91.5001 566.551,-88 556.551,-84.5001 556.551,-91.5001"/>
</g>
</g>
</svg>
