<?xml version="1.0" encoding="UTF-8" standalone="no"?>
<!DOCTYPE svg PUBLIC "-//W3C//DTD SVG 1.1//EN"
 "http://www.w3.org/Graphics/SVG/1.1/DTD/svg11.dtd">
<!-- Generated by graphviz version 2.40.1 (20161225.0304)
 -->
<!-- Title: writeback_data_flow Pages: 1 -->
<svg width="458pt" height="98pt"
 viewBox="0.00 0.00 458.00 98.00" xmlns="http://www.w3.org/2000/svg" xmlns:xlink="http://www.w3.org/1999/xlink">
<g id="graph0" class="graph" transform="scale(1 1) rotate(0) translate(4 94)">
<title>writeback_data_flow</title>
<polygon fill="#ffffff" stroke="transparent" points="-4,4 -4,-94 454,-94 454,4 -4,4"/>
<!-- Compiz -->
<g id="node1" class="node">
<title>Compiz</title>
<polygon fill="none" stroke="#000000" points="60,-63 0,-63 0,-27 60,-27 60,-63"/>
<text text-anchor="middle" x="30" y="-41.3" font-family="Times,serif" font-size="14.00" fill="#000000">Compiz</text>
</g>
<!-- Splitter -->
<g id="node2" class="node">
<title>Splitter</title>
<polygon fill="none" stroke="#000000" points="152,-63 96,-63 96,-27 152,-27 152,-63"/>
<text text-anchor="middle" x="124" y="-41.3" font-family="Times,serif" font-size="14.00" fill="#000000">Splitter</text>
</g>
<!-- Compiz&#45;&gt;Splitter -->
<g id="edge1" class="edge">
<title>Compiz&#45;&gt;Splitter</title>
<path fill="none" stroke="#000000" d="M60.0006,-45C68.1751,-45 77.1426,-45 85.7099,-45"/>
<polygon fill="#000000" stroke="#000000" points="85.8815,-48.5001 95.8815,-45 85.8814,-41.5001 85.8815,-48.5001"/>
</g>
<!-- Scaler&#45;0 -->
<g id="node3" class="node">
<title>Scaler&#45;0</title>
<polygon fill="none" stroke="#000000" points="250,-90 188,-90 188,-54 250,-54 250,-90"/>
<text text-anchor="middle" x="219" y="-68.3" font-family="Times,serif" font-size="14.00" fill="#000000">Scaler&#45;0</text>
</g>
<!-- Splitter&#45;&gt;Scaler&#45;0 -->
<g id="edge2" class="edge">
<title>Splitter&#45;&gt;Scaler&#45;0</title>
<path fill="none" stroke="#000000" d="M152.2459,-53.0278C160.3526,-55.3318 169.36,-57.8918 178.0672,-60.3665"/>
<polygon fill="#000000" stroke="#000000" points="177.1304,-63.7388 187.7063,-63.106 179.0441,-57.0054 177.1304,-63.7388"/>
</g>
<!-- Scaler&#45;1 -->
<g id="node5" class="node">
<title>Scaler&#45;1</title>
<polygon fill="none" stroke="#000000" points="250,-36 188,-36 188,0 250,0 250,-36"/>
<text text-anchor="middle" x="219" y="-14.3" font-family="Times,serif" font-size="14.00" fill="#000000">Scaler&#45;1</text>
</g>
<!-- Splitter&#45;&gt;Scaler&#45;1 -->
<g id="edge4" class="edge">
<title>Splitter&#45;&gt;Scaler&#45;1</title>
<path fill="none" stroke="#000000" d="M152.2459,-36.9722C160.3526,-34.6682 169.36,-32.1082 178.0672,-29.6335"/>
<polygon fill="#000000" stroke="#000000" points="179.0441,-32.9946 187.7063,-26.894 177.1304,-26.2612 179.0441,-32.9946"/>
</g>
<!-- Merger -->
<g id="node4" class="node">
<title>Merger</title>
<polygon fill="none" stroke="#000000" points="343,-63 286,-63 286,-27 343,-27 343,-63"/>
<text text-anchor="middle" x="314.5" y="-41.3" font-family="Times,serif" font-size="14.00" fill="#000000">Merger</text>
</g>
<!-- Scaler&#45;0&#45;&gt;Merger -->
<g id="edge3" class="edge">
<title>Scaler&#45;0&#45;&gt;Merger</title>
<path fill="none" stroke="#000000" d="M250.0061,-63.2339C258.305,-60.8876 267.3765,-58.3229 276.0257,-55.8775"/>
<polygon fill="#000000" stroke="#000000" points="277.243,-59.1707 285.9136,-53.082 275.3385,-52.4347 277.243,-59.1707"/>
</g>
<!-- Wb_layer -->
<g id="node6" class="node">
<title>Wb_layer</title>
<polygon fill="none" stroke="#000000" points="450,-63 379,-63 379,-27 450,-27 450,-63"/>
<text text-anchor="middle" x="414.5" y="-41.3" font-family="Times,serif" font-size="14.00" fill="#000000">Wb_layer</text>
</g>
<!-- Merger&#45;&gt;Wb_layer -->
<g id="edge6" class="edge">
<title>Merger&#45;&gt;Wb_layer</title>
<path fill="none" stroke="#000000" d="M343.156,-45C351.1206,-45 359.9747,-45 368.6602,-45"/>
<polygon fill="#000000" stroke="#000000" points="368.7155,-48.5001 378.7154,-45 368.7154,-41.5001 368.7155,-48.5001"/>
</g>
<!-- Scaler&#45;1&#45;&gt;Merger -->
<g id="edge5" class="edge">
<title>Scaler&#45;1&#45;&gt;Merger</title>
<path fill="none" stroke="#000000" d="M250.0061,-26.7661C258.305,-29.1124 267.3765,-31.6771 276.0257,-34.1225"/>
<polygon fill="#000000" stroke="#000000" points="275.3385,-37.5653 285.9136,-36.918 277.243,-30.8293 275.3385,-37.5653"/>
</g>
</g>
</svg>
