<?xml version="1.0" encoding="UTF-8" standalone="no"?>
<!DOCTYPE svg PUBLIC "-//W3C//DTD SVG 1.1//EN"
 "http://www.w3.org/Graphics/SVG/1.1/DTD/svg11.dtd">
<!-- Generated by graphviz version 2.40.1 (20161225.0304)
 -->
<!-- Title: board Pages: 1 -->
<svg width="317pt" height="358pt"
 viewBox="0.00 0.00 317.00 358.00" xmlns="http://www.w3.org/2000/svg" xmlns:xlink="http://www.w3.org/1999/xlink">
<g id="graph0" class="graph" transform="scale(1 1) rotate(0) translate(4 354)">
<title>board</title>
<polygon fill="#ffffff" stroke="transparent" points="-4,4 -4,-354 313,-354 313,4 -4,4"/>
<!-- scaler -->
<g id="node1" class="node">
<title>scaler</title>
<path fill="#add8e6" stroke="#000000" d="M154,-103.5C154,-103.5 226,-103.5 226,-103.5 232,-103.5 238,-109.5 238,-115.5 238,-115.5 238,-129.5 238,-129.5 238,-135.5 232,-141.5 226,-141.5 226,-141.5 154,-141.5 154,-141.5 148,-141.5 142,-135.5 142,-129.5 142,-129.5 142,-115.5 142,-115.5 142,-109.5 148,-103.5 154,-103.5"/>
<text text-anchor="middle" x="153.5" y="-118.8" font-family="Times,serif" font-size="14.00" fill="#000000">0</text>
<polyline fill="none" stroke="#000000" points="165,-103.5 165,-141.5 "/>
<text text-anchor="middle" x="190" y="-126.3" font-family="Times,serif" font-size="14.00" fill="#000000">Host</text>
<text text-anchor="middle" x="190" y="-111.3" font-family="Times,serif" font-size="14.00" fill="#000000">Scaler</text>
<polyline fill="none" stroke="#000000" points="215,-103.5 215,-141.5 "/>
<text text-anchor="middle" x="226.5" y="-118.8" font-family="Times,serif" font-size="14.00" fill="#000000">1</text>
</g>
<!-- io -->
<g id="node4" class="node">
<title>io</title>
<path fill="#7fffd4" stroke="#000000" d="M228,-.5C228,-.5 290,-.5 290,-.5 296,-.5 302,-6.5 302,-12.5 302,-12.5 302,-24.5 302,-24.5 302,-30.5 296,-36.5 290,-36.5 290,-36.5 228,-36.5 228,-36.5 222,-36.5 216,-30.5 216,-24.5 216,-24.5 216,-12.5 216,-12.5 216,-6.5 222,-.5 228,-.5"/>
<text text-anchor="middle" x="227.5" y="-14.8" font-family="Times,serif" font-size="14.00" fill="#000000">0</text>
<polyline fill="none" stroke="#000000" points="239,-.5 239,-36.5 "/>
<text text-anchor="middle" x="270.5" y="-14.8" font-family="Times,serif" font-size="14.00" fill="#000000">V4L I/O</text>
</g>
<!-- scaler&#45;&gt;io -->
<g id="edge3" class="edge">
<title>scaler:scaler_1&#45;&gt;io:io_0</title>
<path fill="none" stroke="#0000ff" d="M227,-103.5C227,-77.4444 227,-68.4878 227,-46.707"/>
<polygon fill="#0000ff" stroke="#0000ff" points="230.5001,-46.5 227,-36.5 223.5001,-46.5 230.5001,-46.5"/>
<text text-anchor="middle" x="268" y="-73.8" font-family="Times,serif" font-size="14.00" fill="#000000">HQ: 1280x720</text>
<text text-anchor="middle" x="268" y="-58.8" font-family="Times,serif" font-size="14.00" fill="#000000">HS: 1280x720</text>
</g>
<!-- frontend -->
<g id="node2" class="node">
<title>frontend</title>
<path fill="#add8e6" stroke="#000000" d="M65.5,-208.5C65.5,-208.5 152.5,-208.5 152.5,-208.5 158.5,-208.5 164.5,-214.5 164.5,-220.5 164.5,-220.5 164.5,-234.5 164.5,-234.5 164.5,-240.5 158.5,-246.5 152.5,-246.5 152.5,-246.5 65.5,-246.5 65.5,-246.5 59.5,-246.5 53.5,-240.5 53.5,-234.5 53.5,-234.5 53.5,-220.5 53.5,-220.5 53.5,-214.5 59.5,-208.5 65.5,-208.5"/>
<text text-anchor="middle" x="65" y="-223.8" font-family="Times,serif" font-size="14.00" fill="#000000">0</text>
<polyline fill="none" stroke="#000000" points="76.5,-208.5 76.5,-246.5 "/>
<text text-anchor="middle" x="109" y="-231.3" font-family="Times,serif" font-size="14.00" fill="#000000">Host</text>
<text text-anchor="middle" x="109" y="-216.3" font-family="Times,serif" font-size="14.00" fill="#000000">Frontend</text>
<polyline fill="none" stroke="#000000" points="141.5,-208.5 141.5,-246.5 "/>
<text text-anchor="middle" x="153" y="-223.8" font-family="Times,serif" font-size="14.00" fill="#000000">1</text>
</g>
<!-- frontend&#45;&gt;scaler -->
<g id="edge2" class="edge">
<title>frontend:frontend_1&#45;&gt;scaler:scaler_0</title>
<path fill="none" stroke="#0000ff" d="M153,-208.5C153,-182.4444 153,-173.4878 153,-151.707"/>
<polygon fill="#0000ff" stroke="#0000ff" points="156.5001,-151.5 153,-141.5 149.5001,-151.5 156.5001,-151.5"/>
<text text-anchor="middle" x="197" y="-178.8" font-family="Times,serif" font-size="14.00" fill="#000000">HQ: 2592x1968</text>
<text text-anchor="middle" x="197" y="-163.8" font-family="Times,serif" font-size="14.00" fill="#000000">HS: 1296x984</text>
</g>
<!-- sensor -->
<g id="node3" class="node">
<title>sensor</title>
<path fill="#7fffd4" stroke="#000000" d="M12,-313.5C12,-313.5 64,-313.5 64,-313.5 70,-313.5 76,-319.5 76,-325.5 76,-325.5 76,-337.5 76,-337.5 76,-343.5 70,-349.5 64,-349.5 64,-349.5 12,-349.5 12,-349.5 6,-349.5 0,-343.5 0,-337.5 0,-337.5 0,-325.5 0,-325.5 0,-319.5 6,-313.5 12,-313.5"/>
<text text-anchor="middle" x="26.5" y="-327.8" font-family="Times,serif" font-size="14.00" fill="#000000">Sensor</text>
<polyline fill="none" stroke="#000000" points="53,-313.5 53,-349.5 "/>
<text text-anchor="middle" x="64.5" y="-327.8" font-family="Times,serif" font-size="14.00" fill="#000000">0</text>
</g>
<!-- sensor&#45;&gt;frontend -->
<g id="edge1" class="edge">
<title>sensor:sensor_0&#45;&gt;frontend:frontend_0</title>
<path fill="none" stroke="#0000ff" d="M65,-313.5C65,-287.4444 65,-278.4878 65,-256.707"/>
<polygon fill="#0000ff" stroke="#0000ff" points="68.5001,-256.5 65,-246.5 61.5001,-256.5 68.5001,-256.5"/>
<text text-anchor="middle" x="109" y="-283.8" font-family="Times,serif" font-size="14.00" fill="#000000">HQ: 2592x1968</text>
<text text-anchor="middle" x="109" y="-268.8" font-family="Times,serif" font-size="14.00" fill="#000000">HS: 1296x984</text>
</g>
</g>
</svg>
