<?xml version="1.0" encoding="UTF-8" standalone="no"?>
<!DOCTYPE svg PUBLIC "-//W3C//DTD SVG 1.1//EN"
 "http://www.w3.org/Graphics/SVG/1.1/DTD/svg11.dtd">
<!-- Generated by graphviz version 2.40.1 (20161225.0304)
 -->
<!-- Title: board Pages: 1 -->
<svg width="538pt" height="651pt"
 viewBox="0.00 0.00 538.00 651.00" xmlns="http://www.w3.org/2000/svg" xmlns:xlink="http://www.w3.org/1999/xlink">
<g id="graph0" class="graph" transform="scale(1 1) rotate(0) translate(4 647)">
<title>board</title>
<polygon fill="#ffffff" stroke="transparent" points="-4,4 -4,-647 534,-647 534,4 -4,4"/>
<!-- n00000001 -->
<g id="node1" class="node">
<title>n00000001</title>
<path fill="#00ff00" stroke="#000000" d="M157.5,-437.5C157.5,-437.5 243.5,-437.5 243.5,-437.5 249.5,-437.5 255.5,-443.5 255.5,-449.5 255.5,-449.5 255.5,-509.5 255.5,-509.5 255.5,-515.5 249.5,-521.5 243.5,-521.5 243.5,-521.5 157.5,-521.5 157.5,-521.5 151.5,-521.5 145.5,-515.5 145.5,-509.5 145.5,-509.5 145.5,-449.5 145.5,-449.5 145.5,-443.5 151.5,-437.5 157.5,-437.5"/>
<text text-anchor="middle" x="200.5" y="-506.3" font-family="Times,serif" font-size="14.00" fill="#000000">0</text>
<polyline fill="none" stroke="#000000" points="145.5,-498.5 255.5,-498.5 "/>
<text text-anchor="middle" x="200.5" y="-483.3" font-family="Times,serif" font-size="14.00" fill="#000000">msm_csiphy0</text>
<text text-anchor="middle" x="200.5" y="-468.3" font-family="Times,serif" font-size="14.00" fill="#000000">/dev/v4l&#45;subdev0</text>
<polyline fill="none" stroke="#000000" points="145.5,-460.5 255.5,-460.5 "/>
<text text-anchor="middle" x="200.5" y="-445.3" font-family="Times,serif" font-size="14.00" fill="#000000">1</text>
</g>
<!-- n00000007 -->
<g id="node2" class="node">
<title>n00000007</title>
<path fill="#00ff00" stroke="#000000" d="M157.5,-316.5C157.5,-316.5 243.5,-316.5 243.5,-316.5 249.5,-316.5 255.5,-322.5 255.5,-328.5 255.5,-328.5 255.5,-388.5 255.5,-388.5 255.5,-394.5 249.5,-400.5 243.5,-400.5 243.5,-400.5 157.5,-400.5 157.5,-400.5 151.5,-400.5 145.5,-394.5 145.5,-388.5 145.5,-388.5 145.5,-328.5 145.5,-328.5 145.5,-322.5 151.5,-316.5 157.5,-316.5"/>
<text text-anchor="middle" x="200.5" y="-385.3" font-family="Times,serif" font-size="14.00" fill="#000000">0</text>
<polyline fill="none" stroke="#000000" points="145.5,-377.5 255.5,-377.5 "/>
<text text-anchor="middle" x="200.5" y="-362.3" font-family="Times,serif" font-size="14.00" fill="#000000">msm_csid0</text>
<text text-anchor="middle" x="200.5" y="-347.3" font-family="Times,serif" font-size="14.00" fill="#000000">/dev/v4l&#45;subdev2</text>
<polyline fill="none" stroke="#000000" points="145.5,-339.5 255.5,-339.5 "/>
<text text-anchor="middle" x="200.5" y="-324.3" font-family="Times,serif" font-size="14.00" fill="#000000">1</text>
</g>
<!-- n00000001&#45;&gt;n00000007 -->
<g id="edge1" class="edge">
<title>n00000001:port1&#45;&gt;n00000007:port0</title>
<path fill="none" stroke="#000000" stroke-dasharray="5,2" d="M200.5,-437.5C200.5,-425.0382 200.5,-419.6592 200.5,-410.6281"/>
<polygon fill="#000000" stroke="#000000" points="204.0001,-410.5 200.5,-400.5 197.0001,-410.5 204.0001,-410.5"/>
</g>
<!-- n0000000a -->
<g id="node3" class="node">
<title>n0000000a</title>
<path fill="#00ff00" stroke="#000000" d="M285.5,-316.5C285.5,-316.5 371.5,-316.5 371.5,-316.5 377.5,-316.5 383.5,-322.5 383.5,-328.5 383.5,-328.5 383.5,-388.5 383.5,-388.5 383.5,-394.5 377.5,-400.5 371.5,-400.5 371.5,-400.5 285.5,-400.5 285.5,-400.5 279.5,-400.5 273.5,-394.5 273.5,-388.5 273.5,-388.5 273.5,-328.5 273.5,-328.5 273.5,-322.5 279.5,-316.5 285.5,-316.5"/>
<text text-anchor="middle" x="328.5" y="-385.3" font-family="Times,serif" font-size="14.00" fill="#000000">0</text>
<polyline fill="none" stroke="#000000" points="273.5,-377.5 383.5,-377.5 "/>
<text text-anchor="middle" x="328.5" y="-362.3" font-family="Times,serif" font-size="14.00" fill="#000000">msm_csid1</text>
<text text-anchor="middle" x="328.5" y="-347.3" font-family="Times,serif" font-size="14.00" fill="#000000">/dev/v4l&#45;subdev3</text>
<polyline fill="none" stroke="#000000" points="273.5,-339.5 383.5,-339.5 "/>
<text text-anchor="middle" x="328.5" y="-324.3" font-family="Times,serif" font-size="14.00" fill="#000000">1</text>
</g>
<!-- n00000001&#45;&gt;n0000000a -->
<g id="edge2" class="edge">
<title>n00000001:port1&#45;&gt;n0000000a:port0</title>
<path fill="none" stroke="#000000" stroke-dasharray="5,2" d="M255.5,-448.5C265.995,-448.5 262.9356,-413.9153 267.0769,-397.7037"/>
<polygon fill="#000000" stroke="#000000" points="270.0911,-399.5314 273.5,-389.5 264.5794,-395.2161 270.0911,-399.5314"/>
</g>
<!-- n0000000d -->
<g id="node5" class="node">
<title>n0000000d</title>
<path fill="#00ff00" stroke="#000000" d="M157.5,-195.5C157.5,-195.5 243.5,-195.5 243.5,-195.5 249.5,-195.5 255.5,-201.5 255.5,-207.5 255.5,-207.5 255.5,-267.5 255.5,-267.5 255.5,-273.5 249.5,-279.5 243.5,-279.5 243.5,-279.5 157.5,-279.5 157.5,-279.5 151.5,-279.5 145.5,-273.5 145.5,-267.5 145.5,-267.5 145.5,-207.5 145.5,-207.5 145.5,-201.5 151.5,-195.5 157.5,-195.5"/>
<text text-anchor="middle" x="200.5" y="-264.3" font-family="Times,serif" font-size="14.00" fill="#000000">0</text>
<polyline fill="none" stroke="#000000" points="145.5,-256.5 255.5,-256.5 "/>
<text text-anchor="middle" x="200.5" y="-241.3" font-family="Times,serif" font-size="14.00" fill="#000000">msm_ispif0</text>
<text text-anchor="middle" x="200.5" y="-226.3" font-family="Times,serif" font-size="14.00" fill="#000000">/dev/v4l&#45;subdev4</text>
<polyline fill="none" stroke="#000000" points="145.5,-218.5 255.5,-218.5 "/>
<text text-anchor="middle" x="200.5" y="-203.3" font-family="Times,serif" font-size="14.00" fill="#000000">1</text>
</g>
<!-- n00000007&#45;&gt;n0000000d -->
<g id="edge5" class="edge">
<title>n00000007:port1&#45;&gt;n0000000d:port0</title>
<path fill="none" stroke="#000000" stroke-dasharray="5,2" d="M200.5,-316.5C200.5,-304.0382 200.5,-298.6592 200.5,-289.6281"/>
<polygon fill="#000000" stroke="#000000" points="204.0001,-289.5 200.5,-279.5 197.0001,-289.5 204.0001,-289.5"/>
</g>
<!-- n00000010 -->
<g id="node6" class="node">
<title>n00000010</title>
<path fill="#00ff00" stroke="#000000" d="M285.5,-195.5C285.5,-195.5 371.5,-195.5 371.5,-195.5 377.5,-195.5 383.5,-201.5 383.5,-207.5 383.5,-207.5 383.5,-267.5 383.5,-267.5 383.5,-273.5 377.5,-279.5 371.5,-279.5 371.5,-279.5 285.5,-279.5 285.5,-279.5 279.5,-279.5 273.5,-273.5 273.5,-267.5 273.5,-267.5 273.5,-207.5 273.5,-207.5 273.5,-201.5 279.5,-195.5 285.5,-195.5"/>
<text text-anchor="middle" x="328.5" y="-264.3" font-family="Times,serif" font-size="14.00" fill="#000000">0</text>
<polyline fill="none" stroke="#000000" points="273.5,-256.5 383.5,-256.5 "/>
<text text-anchor="middle" x="328.5" y="-241.3" font-family="Times,serif" font-size="14.00" fill="#000000">msm_ispif1</text>
<text text-anchor="middle" x="328.5" y="-226.3" font-family="Times,serif" font-size="14.00" fill="#000000">/dev/v4l&#45;subdev5</text>
<polyline fill="none" stroke="#000000" points="273.5,-218.5 383.5,-218.5 "/>
<text text-anchor="middle" x="328.5" y="-203.3" font-family="Times,serif" font-size="14.00" fill="#000000">1</text>
</g>
<!-- n00000007&#45;&gt;n00000010 -->
<g id="edge6" class="edge">
<title>n00000007:port1&#45;&gt;n00000010:port0</title>
<path fill="none" stroke="#000000" stroke-dasharray="5,2" d="M255.5,-327.5C265.995,-327.5 262.9356,-292.9153 267.0769,-276.7037"/>
<polygon fill="#000000" stroke="#000000" points="270.0911,-278.5314 273.5,-268.5 264.5794,-274.2161 270.0911,-278.5314"/>
</g>
<!-- n0000000a&#45;&gt;n0000000d -->
<g id="edge7" class="edge">
<title>n0000000a:port1&#45;&gt;n0000000d:port0</title>
<path fill="none" stroke="#000000" stroke-dasharray="5,2" d="M273.5,-327.5C263.005,-327.5 266.0644,-292.9153 261.9231,-276.7037"/>
<polygon fill="#000000" stroke="#000000" points="264.4206,-274.2161 255.5,-268.5 258.9089,-278.5314 264.4206,-274.2161"/>
</g>
<!-- n0000000a&#45;&gt;n00000010 -->
<g id="edge8" class="edge">
<title>n0000000a:port1&#45;&gt;n00000010:port0</title>
<path fill="none" stroke="#000000" stroke-dasharray="5,2" d="M328.5,-316.5C328.5,-304.0382 328.5,-298.6592 328.5,-289.6281"/>
<polygon fill="#000000" stroke="#000000" points="332.0001,-289.5 328.5,-279.5 325.0001,-289.5 332.0001,-289.5"/>
</g>
<!-- n00000004 -->
<g id="node4" class="node">
<title>n00000004</title>
<path fill="#00ff00" stroke="#000000" d="M285.5,-437.5C285.5,-437.5 371.5,-437.5 371.5,-437.5 377.5,-437.5 383.5,-443.5 383.5,-449.5 383.5,-449.5 383.5,-509.5 383.5,-509.5 383.5,-515.5 377.5,-521.5 371.5,-521.5 371.5,-521.5 285.5,-521.5 285.5,-521.5 279.5,-521.5 273.5,-515.5 273.5,-509.5 273.5,-509.5 273.5,-449.5 273.5,-449.5 273.5,-443.5 279.5,-437.5 285.5,-437.5"/>
<text text-anchor="middle" x="328.5" y="-506.3" font-family="Times,serif" font-size="14.00" fill="#000000">0</text>
<polyline fill="none" stroke="#000000" points="273.5,-498.5 383.5,-498.5 "/>
<text text-anchor="middle" x="328.5" y="-483.3" font-family="Times,serif" font-size="14.00" fill="#000000">msm_csiphy1</text>
<text text-anchor="middle" x="328.5" y="-468.3" font-family="Times,serif" font-size="14.00" fill="#000000">/dev/v4l&#45;subdev1</text>
<polyline fill="none" stroke="#000000" points="273.5,-460.5 383.5,-460.5 "/>
<text text-anchor="middle" x="328.5" y="-445.3" font-family="Times,serif" font-size="14.00" fill="#000000">1</text>
</g>
<!-- n00000004&#45;&gt;n00000007 -->
<g id="edge3" class="edge">
<title>n00000004:port1&#45;&gt;n00000007:port0</title>
<path fill="none" stroke="#000000" stroke-dasharray="5,2" d="M273.5,-448.5C263.005,-448.5 266.0644,-413.9153 261.9231,-397.7037"/>
<polygon fill="#000000" stroke="#000000" points="264.4206,-395.2161 255.5,-389.5 258.9089,-399.5314 264.4206,-395.2161"/>
</g>
<!-- n00000004&#45;&gt;n0000000a -->
<g id="edge4" class="edge">
<title>n00000004:port1&#45;&gt;n0000000a:port0</title>
<path fill="none" stroke="#000000" stroke-dasharray="5,2" d="M328.5,-437.5C328.5,-425.0382 328.5,-419.6592 328.5,-410.6281"/>
<polygon fill="#000000" stroke="#000000" points="332.0001,-410.5 328.5,-400.5 325.0001,-410.5 332.0001,-410.5"/>
</g>
<!-- n00000013 -->
<g id="node7" class="node">
<title>n00000013</title>
<path fill="#00ff00" stroke="#000000" d="M29.5,-74.5C29.5,-74.5 115.5,-74.5 115.5,-74.5 121.5,-74.5 127.5,-80.5 127.5,-86.5 127.5,-86.5 127.5,-146.5 127.5,-146.5 127.5,-152.5 121.5,-158.5 115.5,-158.5 115.5,-158.5 29.5,-158.5 29.5,-158.5 23.5,-158.5 17.5,-152.5 17.5,-146.5 17.5,-146.5 17.5,-86.5 17.5,-86.5 17.5,-80.5 23.5,-74.5 29.5,-74.5"/>
<text text-anchor="middle" x="72.5" y="-143.3" font-family="Times,serif" font-size="14.00" fill="#000000">0</text>
<polyline fill="none" stroke="#000000" points="17.5,-135.5 127.5,-135.5 "/>
<text text-anchor="middle" x="72.5" y="-120.3" font-family="Times,serif" font-size="14.00" fill="#000000">msm_vfe0_rdi0</text>
<text text-anchor="middle" x="72.5" y="-105.3" font-family="Times,serif" font-size="14.00" fill="#000000">/dev/v4l&#45;subdev6</text>
<polyline fill="none" stroke="#000000" points="17.5,-97.5 127.5,-97.5 "/>
<text text-anchor="middle" x="72.5" y="-82.3" font-family="Times,serif" font-size="14.00" fill="#000000">1</text>
</g>
<!-- n0000000d&#45;&gt;n00000013 -->
<g id="edge9" class="edge">
<title>n0000000d:port1&#45;&gt;n00000013:port0</title>
<path fill="none" stroke="#000000" stroke-dasharray="5,2" d="M145.5,-206.5C135.005,-206.5 138.0644,-171.9153 133.9231,-155.7037"/>
<polygon fill="#000000" stroke="#000000" points="136.4206,-153.2161 127.5,-147.5 130.9089,-157.5314 136.4206,-153.2161"/>
</g>
<!-- n0000001c -->
<g id="node8" class="node">
<title>n0000001c</title>
<path fill="#00ff00" stroke="#000000" d="M157.5,-74.5C157.5,-74.5 243.5,-74.5 243.5,-74.5 249.5,-74.5 255.5,-80.5 255.5,-86.5 255.5,-86.5 255.5,-146.5 255.5,-146.5 255.5,-152.5 249.5,-158.5 243.5,-158.5 243.5,-158.5 157.5,-158.5 157.5,-158.5 151.5,-158.5 145.5,-152.5 145.5,-146.5 145.5,-146.5 145.5,-86.5 145.5,-86.5 145.5,-80.5 151.5,-74.5 157.5,-74.5"/>
<text text-anchor="middle" x="200.5" y="-143.3" font-family="Times,serif" font-size="14.00" fill="#000000">0</text>
<polyline fill="none" stroke="#000000" points="145.5,-135.5 255.5,-135.5 "/>
<text text-anchor="middle" x="200.5" y="-120.3" font-family="Times,serif" font-size="14.00" fill="#000000">msm_vfe0_rdi1</text>
<text text-anchor="middle" x="200.5" y="-105.3" font-family="Times,serif" font-size="14.00" fill="#000000">/dev/v4l&#45;subdev7</text>
<polyline fill="none" stroke="#000000" points="145.5,-97.5 255.5,-97.5 "/>
<text text-anchor="middle" x="200.5" y="-82.3" font-family="Times,serif" font-size="14.00" fill="#000000">1</text>
</g>
<!-- n0000000d&#45;&gt;n0000001c -->
<g id="edge10" class="edge">
<title>n0000000d:port1&#45;&gt;n0000001c:port0</title>
<path fill="none" stroke="#000000" stroke-dasharray="5,2" d="M200.5,-195.5C200.5,-183.0382 200.5,-177.6592 200.5,-168.6281"/>
<polygon fill="#000000" stroke="#000000" points="204.0001,-168.5 200.5,-158.5 197.0001,-168.5 204.0001,-168.5"/>
</g>
<!-- n00000025 -->
<g id="node9" class="node">
<title>n00000025</title>
<path fill="#00ff00" stroke="#000000" d="M285.5,-74.5C285.5,-74.5 371.5,-74.5 371.5,-74.5 377.5,-74.5 383.5,-80.5 383.5,-86.5 383.5,-86.5 383.5,-146.5 383.5,-146.5 383.5,-152.5 377.5,-158.5 371.5,-158.5 371.5,-158.5 285.5,-158.5 285.5,-158.5 279.5,-158.5 273.5,-152.5 273.5,-146.5 273.5,-146.5 273.5,-86.5 273.5,-86.5 273.5,-80.5 279.5,-74.5 285.5,-74.5"/>
<text text-anchor="middle" x="328.5" y="-143.3" font-family="Times,serif" font-size="14.00" fill="#000000">0</text>
<polyline fill="none" stroke="#000000" points="273.5,-135.5 383.5,-135.5 "/>
<text text-anchor="middle" x="328.5" y="-120.3" font-family="Times,serif" font-size="14.00" fill="#000000">msm_vfe0_rdi2</text>
<text text-anchor="middle" x="328.5" y="-105.3" font-family="Times,serif" font-size="14.00" fill="#000000">/dev/v4l&#45;subdev8</text>
<polyline fill="none" stroke="#000000" points="273.5,-97.5 383.5,-97.5 "/>
<text text-anchor="middle" x="328.5" y="-82.3" font-family="Times,serif" font-size="14.00" fill="#000000">1</text>
</g>
<!-- n0000000d&#45;&gt;n00000025 -->
<g id="edge11" class="edge">
<title>n0000000d:port1&#45;&gt;n00000025:port0</title>
<path fill="none" stroke="#000000" stroke-dasharray="5,2" d="M255.5,-206.5C265.995,-206.5 262.9356,-171.9153 267.0769,-155.7037"/>
<polygon fill="#000000" stroke="#000000" points="270.0911,-157.5314 273.5,-147.5 264.5794,-153.2161 270.0911,-157.5314"/>
</g>
<!-- n0000002e -->
<g id="node10" class="node">
<title>n0000002e</title>
<path fill="#00ff00" stroke="#000000" d="M413.5,-74.5C413.5,-74.5 499.5,-74.5 499.5,-74.5 505.5,-74.5 511.5,-80.5 511.5,-86.5 511.5,-86.5 511.5,-146.5 511.5,-146.5 511.5,-152.5 505.5,-158.5 499.5,-158.5 499.5,-158.5 413.5,-158.5 413.5,-158.5 407.5,-158.5 401.5,-152.5 401.5,-146.5 401.5,-146.5 401.5,-86.5 401.5,-86.5 401.5,-80.5 407.5,-74.5 413.5,-74.5"/>
<text text-anchor="middle" x="456.5" y="-143.3" font-family="Times,serif" font-size="14.00" fill="#000000">0</text>
<polyline fill="none" stroke="#000000" points="401.5,-135.5 511.5,-135.5 "/>
<text text-anchor="middle" x="456.5" y="-120.3" font-family="Times,serif" font-size="14.00" fill="#000000">msm_vfe0_pix</text>
<text text-anchor="middle" x="456.5" y="-105.3" font-family="Times,serif" font-size="14.00" fill="#000000">/dev/v4l&#45;subdev9</text>
<polyline fill="none" stroke="#000000" points="401.5,-97.5 511.5,-97.5 "/>
<text text-anchor="middle" x="456.5" y="-82.3" font-family="Times,serif" font-size="14.00" fill="#000000">1</text>
</g>
<!-- n0000000d&#45;&gt;n0000002e -->
<g id="edge12" class="edge">
<title>n0000000d:port1&#45;&gt;n0000002e:port0</title>
<path fill="none" stroke="#000000" stroke-dasharray="5,2" d="M255.5,-206.5C261.9903,-206.5 259.1086,-198.6134 264.5,-195 313.5902,-162.0987 343.4098,-191.9013 392.5,-159 393.8478,-158.0966 394.6786,-156.9262 395.268,-155.6787"/>
<polygon fill="#000000" stroke="#000000" points="398.2231,-157.5754 401.5,-147.5 392.6553,-153.3328 398.2231,-157.5754"/>
</g>
<!-- n00000010&#45;&gt;n00000013 -->
<g id="edge13" class="edge">
<title>n00000010:port1&#45;&gt;n00000013:port0</title>
<path fill="none" stroke="#000000" stroke-dasharray="5,2" d="M273.5,-206.5C267.0097,-206.5 269.8914,-198.6134 264.5,-195 215.4098,-162.0987 185.5902,-191.9013 136.5,-159 135.1522,-158.0966 134.3214,-156.9262 133.732,-155.6787"/>
<polygon fill="#000000" stroke="#000000" points="136.3447,-153.3328 127.5,-147.5 130.7769,-157.5754 136.3447,-153.3328"/>
</g>
<!-- n00000010&#45;&gt;n0000001c -->
<g id="edge14" class="edge">
<title>n00000010:port1&#45;&gt;n0000001c:port0</title>
<path fill="none" stroke="#000000" stroke-dasharray="5,2" d="M273.5,-206.5C263.005,-206.5 266.0644,-171.9153 261.9231,-155.7037"/>
<polygon fill="#000000" stroke="#000000" points="264.4206,-153.2161 255.5,-147.5 258.9089,-157.5314 264.4206,-153.2161"/>
</g>
<!-- n00000010&#45;&gt;n00000025 -->
<g id="edge15" class="edge">
<title>n00000010:port1&#45;&gt;n00000025:port0</title>
<path fill="none" stroke="#000000" stroke-dasharray="5,2" d="M328.5,-195.5C328.5,-183.0382 328.5,-177.6592 328.5,-168.6281"/>
<polygon fill="#000000" stroke="#000000" points="332.0001,-168.5 328.5,-158.5 325.0001,-168.5 332.0001,-168.5"/>
</g>
<!-- n00000010&#45;&gt;n0000002e -->
<g id="edge16" class="edge">
<title>n00000010:port1&#45;&gt;n0000002e:port0</title>
<path fill="none" stroke="#000000" stroke-dasharray="5,2" d="M383.5,-206.5C393.995,-206.5 390.9356,-171.9153 395.0769,-155.7037"/>
<polygon fill="#000000" stroke="#000000" points="398.0911,-157.5314 401.5,-147.5 392.5794,-153.2161 398.0911,-157.5314"/>
</g>
<!-- n00000016 -->
<g id="node11" class="node">
<title>n00000016</title>
<polygon fill="#ffff00" stroke="#000000" points="119,-38 0,-38 0,0 119,0 119,-38"/>
<text text-anchor="middle" x="59.5" y="-22.8" font-family="Times,serif" font-size="14.00" fill="#000000">msm_vfe0_video0</text>
<text text-anchor="middle" x="59.5" y="-7.8" font-family="Times,serif" font-size="14.00" fill="#000000">/dev/video0</text>
</g>
<!-- n00000013&#45;&gt;n00000016 -->
<g id="edge17" class="edge">
<title>n00000013:port1&#45;&gt;n00000016</title>
<path fill="none" stroke="#000000" stroke-width="2" d="M72.5,-74.5C72.5,-65.7055 70.9334,-56.3288 68.8879,-47.8339"/>
<polygon fill="#000000" stroke="#000000" stroke-width="2" points="72.2195,-46.746 66.2285,-38.0077 65.4626,-48.5748 72.2195,-46.746"/>
</g>
<!-- n0000001f -->
<g id="node12" class="node">
<title>n0000001f</title>
<polygon fill="#ffff00" stroke="#000000" points="256,-38 137,-38 137,0 256,0 256,-38"/>
<text text-anchor="middle" x="196.5" y="-22.8" font-family="Times,serif" font-size="14.00" fill="#000000">msm_vfe0_video1</text>
<text text-anchor="middle" x="196.5" y="-7.8" font-family="Times,serif" font-size="14.00" fill="#000000">/dev/video1</text>
</g>
<!-- n0000001c&#45;&gt;n0000001f -->
<g id="edge18" class="edge">
<title>n0000001c:port1&#45;&gt;n0000001f</title>
<path fill="none" stroke="#000000" stroke-width="2" d="M200.5,-74.5C200.5,-66.0094 200.0285,-56.807 199.4093,-48.3824"/>
<polygon fill="#000000" stroke="#000000" stroke-width="2" points="202.8828,-47.9167 198.5703,-38.2393 195.9066,-48.4938 202.8828,-47.9167"/>
</g>
<!-- n00000028 -->
<g id="node13" class="node">
<title>n00000028</title>
<polygon fill="#ffff00" stroke="#000000" points="393,-38 274,-38 274,0 393,0 393,-38"/>
<text text-anchor="middle" x="333.5" y="-22.8" font-family="Times,serif" font-size="14.00" fill="#000000">msm_vfe0_video2</text>
<text text-anchor="middle" x="333.5" y="-7.8" font-family="Times,serif" font-size="14.00" fill="#000000">/dev/video2</text>
</g>
<!-- n00000025&#45;&gt;n00000028 -->
<g id="edge19" class="edge">
<title>n00000025:port1&#45;&gt;n00000028</title>
<path fill="none" stroke="#000000" stroke-width="2" d="M328.5,-74.5C328.5,-65.9971 329.0894,-56.7908 329.8634,-48.3664"/>
<polygon fill="#000000" stroke="#000000" stroke-width="2" points="333.3648,-48.5325 330.9121,-38.2255 326.4019,-47.8124 333.3648,-48.5325"/>
</g>
<!-- n00000031 -->
<g id="node14" class="node">
<title>n00000031</title>
<polygon fill="#ffff00" stroke="#000000" points="530,-38 411,-38 411,0 530,0 530,-38"/>
<text text-anchor="middle" x="470.5" y="-22.8" font-family="Times,serif" font-size="14.00" fill="#000000">msm_vfe0_video3</text>
<text text-anchor="middle" x="470.5" y="-7.8" font-family="Times,serif" font-size="14.00" fill="#000000">/dev/video3</text>
</g>
<!-- n0000002e&#45;&gt;n00000031 -->
<g id="edge20" class="edge">
<title>n0000002e:port1&#45;&gt;n00000031</title>
<path fill="none" stroke="#000000" stroke-width="2" d="M456.5,-74.5C456.5,-65.7397 458.1602,-56.4314 460.3371,-47.9913"/>
<polygon fill="#000000" stroke="#000000" stroke-width="2" points="463.7464,-48.8013 463.172,-38.2221 457.0237,-46.8505 463.7464,-48.8013"/>
</g>
<!-- n00000057 -->
<g id="node15" class="node">
<title>n00000057</title>
<path fill="#00ff00" stroke="#000000" d="M151,-558.5C151,-558.5 244,-558.5 244,-558.5 250,-558.5 256,-564.5 256,-570.5 256,-570.5 256,-630.5 256,-630.5 256,-636.5 250,-642.5 244,-642.5 244,-642.5 151,-642.5 151,-642.5 145,-642.5 139,-636.5 139,-630.5 139,-630.5 139,-570.5 139,-570.5 139,-564.5 145,-558.5 151,-558.5"/>
<text text-anchor="middle" x="197.5" y="-627.3" font-family="Times,serif" font-size="14.00" fill="#000000"> </text>
<polyline fill="none" stroke="#000000" points="139,-619.5 256,-619.5 "/>
<text text-anchor="middle" x="197.5" y="-604.3" font-family="Times,serif" font-size="14.00" fill="#000000">ov5645 1&#45;0076</text>
<text text-anchor="middle" x="197.5" y="-589.3" font-family="Times,serif" font-size="14.00" fill="#000000">/dev/v4l&#45;subdev10</text>
<polyline fill="none" stroke="#000000" points="139,-581.5 256,-581.5 "/>
<text text-anchor="middle" x="197.5" y="-566.3" font-family="Times,serif" font-size="14.00" fill="#000000">0</text>
</g>
<!-- n00000057&#45;&gt;n00000001 -->
<g id="edge21" class="edge">
<title>n00000057:port0&#45;&gt;n00000001:port0</title>
<path fill="none" stroke="#000000" stroke-width="2" d="M197.5,-558.5C197.5,-545.9973 199.2228,-540.6704 200.0573,-531.6434"/>
<polygon fill="#000000" stroke="#000000" stroke-width="2" points="203.5606,-531.6431 200.5,-521.5 196.5672,-531.3379 203.5606,-531.6431"/>
</g>
<!-- n00000059 -->
<g id="node16" class="node">
<title>n00000059</title>
<path fill="#00ff00" stroke="#000000" d="M286,-558.5C286,-558.5 379,-558.5 379,-558.5 385,-558.5 391,-564.5 391,-570.5 391,-570.5 391,-630.5 391,-630.5 391,-636.5 385,-642.5 379,-642.5 379,-642.5 286,-642.5 286,-642.5 280,-642.5 274,-636.5 274,-630.5 274,-630.5 274,-570.5 274,-570.5 274,-564.5 280,-558.5 286,-558.5"/>
<text text-anchor="middle" x="332.5" y="-627.3" font-family="Times,serif" font-size="14.00" fill="#000000"> </text>
<polyline fill="none" stroke="#000000" points="274,-619.5 391,-619.5 "/>
<text text-anchor="middle" x="332.5" y="-604.3" font-family="Times,serif" font-size="14.00" fill="#000000">ov5645 1&#45;0074</text>
<text text-anchor="middle" x="332.5" y="-589.3" font-family="Times,serif" font-size="14.00" fill="#000000">/dev/v4l&#45;subdev11</text>
<polyline fill="none" stroke="#000000" points="274,-581.5 391,-581.5 "/>
<text text-anchor="middle" x="332.5" y="-566.3" font-family="Times,serif" font-size="14.00" fill="#000000">0</text>
</g>
<!-- n00000059&#45;&gt;n00000004 -->
<g id="edge22" class="edge">
<title>n00000059:port0&#45;&gt;n00000004:port0</title>
<path fill="none" stroke="#000000" stroke-width="2" d="M332.5,-558.5C332.5,-545.9656 330.2029,-540.679 329.0902,-531.6553"/>
<polygon fill="#000000" stroke="#000000" stroke-width="2" points="332.5744,-531.28 328.5,-521.5 325.5862,-531.6863 332.5744,-531.28"/>
</g>
</g>
</svg>
