<?xml version="1.0" encoding="UTF-8" standalone="no"?>
<!DOCTYPE svg PUBLIC "-//W3C//DTD SVG 1.1//EN"
 "http://www.w3.org/Graphics/SVG/1.1/DTD/svg11.dtd">
<!-- Generated by graphviz version 2.40.1 (20161225.0304)
 -->
<!-- Title: T Pages: 1 -->
<svg width="485pt" height="459pt"
 viewBox="0.00 0.00 485.38 459.00" xmlns="http://www.w3.org/2000/svg" xmlns:xlink="http://www.w3.org/1999/xlink">
<g id="graph0" class="graph" transform="scale(1 1) rotate(0) translate(4 455)">
<title>T</title>
<polygon fill="#ffffff" stroke="transparent" points="-4,4 -4,-455 481.3765,-455 481.3765,4 -4,4"/>
<g id="clust1" class="cluster">
<title>cluster_driver</title>
<polygon fill="#c0c0c0" stroke="#000000" points="234,-319 234,-443 423,-443 423,-319 234,-319"/>
</g>
<g id="clust2" class="cluster">
<title>cluster_topology</title>
<polygon fill="none" stroke="#000000" points="8,-8 8,-371 226,-371 226,-8 8,-8"/>
<text text-anchor="middle" x="117" y="-15.8" font-family="Times,serif" font-size="14.00" fill="#000000">Topology Manager</text>
</g>
<!-- driver -->
<g id="node1" class="node">
<title>driver</title>
<polygon fill="#add8e6" stroke="#000000" points="370,-435 286,-435 286,-399 370,-399 370,-435"/>
<text text-anchor="middle" x="328" y="-413.3" font-family="Times,serif" font-size="14.00" fill="#000000">DRM driver</text>
</g>
<!-- payload1 -->
<g id="node2" class="node">
<title>payload1</title>
<polygon fill="#add8e6" stroke="#000000" points="319.5,-363 242.5,-363 242.5,-327 319.5,-327 319.5,-363"/>
<text text-anchor="middle" x="281" y="-341.3" font-family="Times,serif" font-size="14.00" fill="#000000">Payload #1</text>
</g>
<!-- driver&#45;&gt;payload1 -->
<g id="edge1" class="edge">
<title>driver&#45;&gt;payload1</title>
<path fill="none" stroke="#000000" d="M316.1399,-398.8314C309.0695,-388 300.1183,-374.2876 293.0198,-363.4133"/>
</g>
<!-- payload2 -->
<g id="node3" class="node">
<title>payload2</title>
<polygon fill="#add8e6" stroke="#000000" stroke-width="3" points="414.5,-363 337.5,-363 337.5,-327 414.5,-327 414.5,-363"/>
<text text-anchor="middle" x="376" y="-341.3" font-family="Times,serif" font-size="14.00" fill="#000000">Payload #2</text>
</g>
<!-- driver&#45;&gt;payload2 -->
<g id="edge2" class="edge">
<title>driver&#45;&gt;payload2</title>
<path fill="none" stroke="#000000" stroke-width="3" d="M340.1124,-398.8314C347.3333,-388 356.4749,-374.2876 363.7245,-363.4133"/>
</g>
<!-- port1 -->
<g id="node4" class="node">
<title>port1</title>
<ellipse fill="none" stroke="#000000" cx="172" cy="-273" rx="36.2938" ry="18"/>
<text text-anchor="middle" x="172" y="-269.3" font-family="Times,serif" font-size="14.00" fill="#000000">Port #1</text>
</g>
<!-- driver&#45;&gt;port1 -->
<g id="edge3" class="edge">
<title>driver&#45;&gt;port1</title>
<path fill="none" stroke="#000000" stroke-dasharray="5,2" d="M285.5972,-413.9017C230.1889,-408.87 137.7553,-396.7676 117,-371 102.5026,-353.0015 107.216,-339.9379 117,-319 121.882,-308.5524 130.4332,-299.6424 139.3586,-292.5253"/>
<polygon fill="#000000" stroke="#000000" points="141.576,-295.2394 147.5661,-286.5005 137.4337,-289.5965 141.576,-295.2394"/>
</g>
<!-- port2 -->
<g id="node5" class="node">
<title>port2</title>
<ellipse fill="none" stroke="#000000" stroke-width="5" cx="62" cy="-273" rx="36.2938" ry="18"/>
<text text-anchor="middle" x="62" y="-269.3" font-family="Times,serif" font-size="14.00" fill="#000000">Port #2</text>
</g>
<!-- driver&#45;&gt;port2 -->
<g id="edge4" class="edge">
<title>driver&#45;&gt;port2</title>
<path fill="none" stroke="#000000" stroke-dasharray="5,2" d="M285.699,-413.0674C228.4814,-406.9718 130.4101,-393.5356 103,-371 81.8467,-353.6085 71.4388,-323.4226 66.4276,-301.1351"/>
<polygon fill="#000000" stroke="#000000" points="69.8367,-300.3348 64.4315,-291.2225 62.9745,-301.7166 69.8367,-300.3348"/>
</g>
<!-- port3 -->
<g id="node6" class="node">
<title>port3</title>
<ellipse fill="none" stroke="#000000" stroke-width="3" cx="162" cy="-129" rx="36.2938" ry="18"/>
<text text-anchor="middle" x="162" y="-125.3" font-family="Times,serif" font-size="14.00" fill="#000000">Port #3</text>
</g>
<!-- driver&#45;&gt;port3 -->
<g id="edge5" class="edge">
<title>driver&#45;&gt;port3:e</title>
<path fill="none" stroke="#000000" stroke-dasharray="5,2" d="M370.0815,-407.537C403.633,-399.0393 446.6553,-385.6715 457,-371 486.7088,-328.865 480.6124,-300.8305 457,-255 400.1527,-144.6621 330.5349,-129.7623 209.3441,-129.03"/>
<polygon fill="#000000" stroke="#000000" points="209.0101,-125.5291 199,-129 208.9898,-132.5291 209.0101,-125.5291"/>
</g>
<!-- port4 -->
<g id="node7" class="node">
<title>port4</title>
<ellipse fill="#c0c0c0" stroke="#000000" cx="62" cy="-129" rx="36.2938" ry="18"/>
<text text-anchor="middle" x="62" y="-125.3" font-family="Times,serif" font-size="14.00" fill="#000000">Port #4</text>
</g>
<!-- driver&#45;&gt;port4 -->
<g id="edge6" class="edge">
<title>driver&#45;&gt;port4</title>
<path fill="none" stroke="#c0c0c0" stroke-dasharray="5,2" d="M370.4885,-407.7359C390.3502,-401.047 412.1825,-389.7667 424,-371 436.315,-351.4433 434.7395,-339.4643 424,-319 374.56,-224.7918 322.3218,-230.2573 227,-183 226.9085,-182.9546 151.1142,-158.1547 102.2979,-142.1836"/>
<polygon fill="#c0c0c0" stroke="#c0c0c0" points="103.2189,-138.8024 92.6263,-139.0194 101.0422,-145.4554 103.2189,-138.8024"/>
</g>
<!-- payload1&#45;&gt;port1 -->
<g id="edge7" class="edge">
<title>payload1:s&#45;&gt;port1:e</title>
<path fill="none" stroke="#000000" stroke-dasharray="5,2" d="M281,-327C281,-290.4375 254.2637,-275.5983 219.12,-273.3178"/>
<polygon fill="#000000" stroke="#000000" points="219.105,-269.8157 209,-273 218.8852,-276.8122 219.105,-269.8157"/>
</g>
<!-- payload2&#45;&gt;port3 -->
<g id="edge8" class="edge">
<title>payload2:s&#45;&gt;port3:e</title>
<path fill="none" stroke="#000000" stroke-width="3" stroke-dasharray="5,2" d="M376,-327C376,-212.4223 320.4401,-133.7181 209.2221,-129.2048"/>
<polygon fill="#000000" stroke="#000000" stroke-width="3" points="209.0682,-125.7012 199,-129 208.9278,-132.6997 209.0682,-125.7012"/>
</g>
<!-- mstb2 -->
<g id="node9" class="node">
<title>mstb2</title>
<ellipse fill="#98fb98" stroke="#000000" cx="172" cy="-201" rx="46.2923" ry="18"/>
<text text-anchor="middle" x="172" y="-197.3" font-family="Times,serif" font-size="14.00" fill="#000000">MSTB #2</text>
</g>
<!-- port1&#45;&gt;mstb2 -->
<g id="edge11" class="edge">
<title>port1&#45;&gt;mstb2</title>
<path fill="none" stroke="#000000" d="M166.0843,-255.2022C165.3005,-247.3864 165.0689,-238.0171 165.3898,-229.2836"/>
<polygon fill="#000000" stroke="#000000" points="168.896,-229.2999 166.055,-219.0931 161.9109,-228.8439 168.896,-229.2999"/>
</g>
<!-- port1&#45;&gt;mstb2 -->
<g id="edge18" class="edge">
<title>port1&#45;&gt;mstb2</title>
<path fill="none" stroke="#000000" stroke-dasharray="5,2" d="M178.5979,-245.0453C178.9326,-236.3282 178.715,-226.9477 177.945,-219.0931"/>
<polygon fill="#000000" stroke="#000000" points="175.0938,-244.9901 177.9157,-255.2022 182.0781,-245.4593 175.0938,-244.9901"/>
</g>
<!-- mstb3 -->
<g id="node10" class="node">
<title>mstb3</title>
<ellipse fill="#98fb98" stroke="#000000" stroke-width="3" cx="62" cy="-201" rx="46.2923" ry="18"/>
<text text-anchor="middle" x="62" y="-197.3" font-family="Times,serif" font-size="14.00" fill="#000000">MSTB #3</text>
</g>
<!-- port2&#45;&gt;mstb3 -->
<g id="edge12" class="edge">
<title>port2&#45;&gt;mstb3</title>
<path fill="none" stroke="#c0c0c0" d="M56.0843,-255.2022C55.3005,-247.3864 55.0689,-238.0171 55.3898,-229.2836"/>
<polygon fill="#c0c0c0" stroke="#c0c0c0" points="58.896,-229.2999 56.055,-219.0931 51.9109,-228.8439 58.896,-229.2999"/>
</g>
<!-- port2&#45;&gt;mstb3 -->
<g id="edge19" class="edge">
<title>port2&#45;&gt;mstb3</title>
<path fill="none" stroke="#000000" stroke-width="3" stroke-dasharray="5,2" d="M68.5979,-245.0453C68.9326,-236.3282 68.715,-226.9477 67.945,-219.0931"/>
<polygon fill="#000000" stroke="#000000" stroke-width="3" points="65.0938,-244.9901 67.9157,-255.2022 72.0781,-245.4593 65.0938,-244.9901"/>
</g>
<!-- mstb4 -->
<g id="node11" class="node">
<title>mstb4</title>
<ellipse fill="#c0c0c0" stroke="#000000" cx="162" cy="-57" rx="46.2923" ry="18"/>
<text text-anchor="middle" x="162" y="-53.3" font-family="Times,serif" font-size="14.00" fill="#000000">MSTB #4</text>
</g>
<!-- port3&#45;&gt;mstb4 -->
<g id="edge15" class="edge">
<title>port3&#45;&gt;mstb4</title>
<path fill="none" stroke="#c0c0c0" d="M156.0843,-111.2022C155.3005,-103.3864 155.0689,-94.0171 155.3898,-85.2836"/>
<polygon fill="#c0c0c0" stroke="#c0c0c0" points="158.896,-85.2999 156.055,-75.0931 151.9109,-84.8439 158.896,-85.2999"/>
</g>
<!-- port3&#45;&gt;mstb4 -->
<g id="edge22" class="edge">
<title>port3&#45;&gt;mstb4</title>
<path fill="none" stroke="#c0c0c0" stroke-dasharray="5,2" d="M168.5979,-101.0453C168.9326,-92.3282 168.715,-82.9477 167.945,-75.0931"/>
<polygon fill="#c0c0c0" stroke="#c0c0c0" points="165.0938,-100.9901 167.9157,-111.2022 172.0781,-101.4593 165.0938,-100.9901"/>
</g>
<!-- mstb1 -->
<g id="node8" class="node">
<title>mstb1</title>
<ellipse fill="#98fb98" stroke="#000000" cx="172" cy="-345" rx="46.2923" ry="18"/>
<text text-anchor="middle" x="172" y="-341.3" font-family="Times,serif" font-size="14.00" fill="#000000">MSTB #1</text>
</g>
<!-- mstb1&#45;&gt;port1 -->
<g id="edge9" class="edge">
<title>mstb1&#45;&gt;port1</title>
<path fill="none" stroke="#000000" d="M166.0476,-326.8314C165.2856,-319.0125 165.0696,-309.6923 165.3995,-301.0221"/>
<polygon fill="#000000" stroke="#000000" points="168.9004,-301.1239 166.0727,-290.9134 161.9159,-300.6587 168.9004,-301.1239"/>
</g>
<!-- mstb1&#45;&gt;port1 -->
<g id="edge16" class="edge">
<title>mstb1&#45;&gt;port1</title>
<path fill="none" stroke="#000000" stroke-dasharray="5,2" d="M178.6111,-316.6941C178.9291,-308.01 178.7012,-298.6993 177.9273,-290.9134"/>
<polygon fill="#000000" stroke="#000000" points="175.1082,-316.6254 177.9524,-326.8314 182.0935,-317.0794 175.1082,-316.6254"/>
</g>
<!-- mstb1&#45;&gt;port2 -->
<g id="edge10" class="edge">
<title>mstb1&#45;&gt;port2</title>
<path fill="none" stroke="#000000" d="M144.1912,-330.4297C127.1542,-320.1422 105.5967,-306.1838 88.7612,-294.6044"/>
<polygon fill="#000000" stroke="#000000" points="90.641,-291.6482 80.4367,-288.7979 86.6363,-297.3896 90.641,-291.6482"/>
</g>
<!-- mstb1&#45;&gt;port2 -->
<g id="edge17" class="edge">
<title>mstb1&#45;&gt;port2</title>
<path fill="none" stroke="#000000" stroke-dasharray="5,2" d="M143.891,-322.4704C126.4265,-310.5052 104.2806,-296.2201 87.3355,-286.0837"/>
<polygon fill="#000000" stroke="#000000" points="142.335,-325.6511 152.5447,-328.4817 146.3286,-319.9021 142.335,-325.6511"/>
</g>
<!-- mstb3&#45;&gt;port3 -->
<g id="edge13" class="edge">
<title>mstb3&#45;&gt;port3</title>
<path fill="none" stroke="#c0c0c0" d="M79.3926,-184.3008C93.2463,-173.4758 112.793,-159.3453 129.4651,-148.0778"/>
<polygon fill="#c0c0c0" stroke="#c0c0c0" points="131.4909,-150.9339 137.8761,-142.4793 127.6122,-145.1067 131.4909,-150.9339"/>
</g>
<!-- mstb3&#45;&gt;port3 -->
<g id="edge20" class="edge">
<title>mstb3&#45;&gt;port3</title>
<path fill="none" stroke="#000000" stroke-width="3" stroke-dasharray="5,2" d="M96.6668,-180.4765C113.1382,-169.2693 131.9958,-155.5905 145.3075,-145.1512"/>
<polygon fill="#000000" stroke="#000000" stroke-width="3" points="94.6668,-177.6035 88.3128,-186.0816 98.5669,-183.4164 94.6668,-177.6035"/>
</g>
<!-- mstb3&#45;&gt;port4 -->
<g id="edge14" class="edge">
<title>mstb3&#45;&gt;port4</title>
<path fill="none" stroke="#c0c0c0" d="M56.0476,-182.8314C55.2856,-175.0125 55.0696,-165.6923 55.3995,-157.0221"/>
<polygon fill="#c0c0c0" stroke="#c0c0c0" points="58.9004,-157.1239 56.0727,-146.9134 51.9159,-156.6587 58.9004,-157.1239"/>
</g>
<!-- mstb3&#45;&gt;port4 -->
<g id="edge21" class="edge">
<title>mstb3&#45;&gt;port4</title>
<path fill="none" stroke="#c0c0c0" stroke-dasharray="5,2" d="M68.6111,-172.6941C68.9291,-164.01 68.7012,-154.6993 67.9273,-146.9134"/>
<polygon fill="#c0c0c0" stroke="#c0c0c0" points="65.1082,-172.6254 67.9524,-182.8314 72.0935,-173.0794 65.1082,-172.6254"/>
</g>
</g>
</svg>
