<?xml version="1.0" encoding="UTF-8" standalone="no"?>
<!DOCTYPE svg PUBLIC "-//W3C//DTD SVG 1.1//EN"
 "http://www.w3.org/Graphics/SVG/1.1/DTD/svg11.dtd">
<!-- Generated by graphviz version 2.43.0 (0)
 -->
<!-- Title: conn_states Pages: 1 -->
<svg width="611pt" height="465pt"
 viewBox="0.00 0.00 611.19 465.00" xmlns="http://www.w3.org/2000/svg" xmlns:xlink="http://www.w3.org/1999/xlink">
<g id="graph0" class="graph" transform="scale(1 1) rotate(0) translate(4 461)">
<title>conn_states</title>
<polygon fill="white" stroke="transparent" points="-4,4 -4,-461 607.19,-461 607.19,4 -4,4"/>
<!-- StandAllone -->
<g id="node1" class="node">
<title>StandAllone</title>
<ellipse fill="none" stroke="black" cx="57.19" cy="-439" rx="57.39" ry="18"/>
<text text-anchor="middle" x="57.19" y="-435.3" font-family="Times,serif" font-size="14.00">StandAllone</text>
</g>
<!-- WFConnection -->
<g id="node2" class="node">
<title>WFConnection</title>
<ellipse fill="none" stroke="black" cx="275.19" cy="-352" rx="67.69" ry="18"/>
<text text-anchor="middle" x="275.19" y="-348.3" font-family="Times,serif" font-size="14.00">WFConnection</text>
</g>
<!-- StandAllone&#45;&gt;WFConnection -->
<g id="edge1" class="edge">
<title>StandAllone&#45;&gt;WFConnection</title>
<path fill="none" stroke="black" d="M91.74,-424.53C128.86,-410.06 188.06,-386.98 229.12,-370.96"/>
<polygon fill="black" stroke="black" points="230.59,-374.15 238.63,-367.26 228.04,-367.63 230.59,-374.15"/>
<text text-anchor="middle" x="221.69" y="-391.8" font-family="Times,serif" font-size="14.00">ioctl_set_net()</text>
</g>
<!-- Unconnected -->
<g id="node3" class="node">
<title>Unconnected</title>
<ellipse fill="none" stroke="black" cx="254.19" cy="-265" rx="59.29" ry="18"/>
<text text-anchor="middle" x="254.19" y="-261.3" font-family="Times,serif" font-size="14.00">Unconnected</text>
</g>
<!-- WFConnection&#45;&gt;Unconnected -->
<g id="edge2" class="edge">
<title>WFConnection&#45;&gt;Unconnected</title>
<path fill="none" stroke="black" d="M263.2,-333.95C259.97,-328.47 256.91,-322.21 255.19,-316 253.21,-308.83 252.45,-300.87 252.3,-293.44"/>
<polygon fill="black" stroke="black" points="255.8,-293.48 252.45,-283.43 248.8,-293.37 255.8,-293.48"/>
<text text-anchor="middle" x="300.19" y="-304.8" font-family="Times,serif" font-size="14.00">unable to bind()</text>
</g>
<!-- WFReportParams -->
<g id="node4" class="node">
<title>WFReportParams</title>
<ellipse fill="none" stroke="black" cx="94.19" cy="-265" rx="76.89" ry="18"/>
<text text-anchor="middle" x="94.19" y="-261.3" font-family="Times,serif" font-size="14.00">WFReportParams</text>
</g>
<!-- WFConnection&#45;&gt;WFReportParams -->
<g id="edge3" class="edge">
<title>WFConnection&#45;&gt;WFReportParams</title>
<path fill="none" stroke="black" d="M223.32,-340.24C175.68,-330.31 112.28,-316.96 111.19,-316 104.57,-310.11 100.52,-301.54 98.05,-293.15"/>
<polygon fill="black" stroke="black" points="101.42,-292.15 95.76,-283.2 94.6,-293.73 101.42,-292.15"/>
<text text-anchor="middle" x="179.69" y="-304.8" font-family="Times,serif" font-size="14.00">in connect() after accept</text>
</g>
<!-- WFReportParams&#45;&gt;StandAllone -->
<g id="edge4" class="edge">
<title>WFReportParams&#45;&gt;StandAllone</title>
<path fill="none" stroke="black" d="M79.37,-282.78C68.95,-295.76 55.89,-314.72 50.19,-334 42.7,-359.39 46.05,-389.72 50.31,-411.06"/>
<polygon fill="black" stroke="black" points="46.93,-412.01 52.49,-421.03 53.77,-410.52 46.93,-412.01"/>
<text text-anchor="middle" x="124.19" y="-348.3" font-family="Times,serif" font-size="14.00">checks in receive_param()</text>
</g>
<!-- Connected -->
<g id="node5" class="node">
<title>Connected</title>
<ellipse fill="none" stroke="black" cx="308.19" cy="-18" rx="50.09" ry="18"/>
<text text-anchor="middle" x="308.19" y="-14.3" font-family="Times,serif" font-size="14.00">Connected</text>
</g>
<!-- WFReportParams&#45;&gt;Connected -->
<g id="edge5" class="edge">
<title>WFReportParams&#45;&gt;Connected</title>
<path fill="none" stroke="black" d="M151.93,-253.08C167.44,-247.88 183.21,-240.23 195.19,-229 231.1,-195.37 215.17,-170.48 238.19,-127 253.91,-97.32 275.3,-65.27 290.28,-43.86"/>
<polygon fill="black" stroke="black" points="293.17,-45.83 296.08,-35.65 287.45,-41.8 293.17,-45.83"/>
<text text-anchor="middle" x="291.69" y="-130.8" font-family="Times,serif" font-size="14.00">in receive_param()</text>
</g>
<!-- WFBitMapS -->
<g id="node6" class="node">
<title>WFBitMapS</title>
<ellipse fill="none" stroke="black" cx="90.19" cy="-178" rx="57.39" ry="18"/>
<text text-anchor="middle" x="90.19" y="-174.3" font-family="Times,serif" font-size="14.00">WFBitMapS</text>
</g>
<!-- WFReportParams&#45;&gt;WFBitMapS -->
<g id="edge6" class="edge">
<title>WFReportParams&#45;&gt;WFBitMapS</title>
<path fill="none" stroke="black" d="M93.39,-246.8C92.84,-235.16 92.1,-219.55 91.48,-206.24"/>
<polygon fill="black" stroke="black" points="94.97,-206 91,-196.18 87.98,-206.33 94.97,-206"/>
<text text-anchor="middle" x="144.19" y="-217.8" font-family="Times,serif" font-size="14.00">sync_handshake()</text>
</g>
<!-- WFBitMapT -->
<g id="node7" class="node">
<title>WFBitMapT</title>
<ellipse fill="none" stroke="black" cx="540.19" cy="-178" rx="57.69" ry="18"/>
<text text-anchor="middle" x="540.19" y="-174.3" font-family="Times,serif" font-size="14.00">WFBitMapT</text>
</g>
<!-- WFReportParams&#45;&gt;WFBitMapT -->
<g id="edge7" class="edge">
<title>WFReportParams&#45;&gt;WFBitMapT</title>
<path fill="none" stroke="black" d="M152.59,-253.17C163.75,-251.12 175.33,-248.99 186.19,-247 311.48,-224.09 343.51,-221.98 468.19,-196 473.99,-194.79 480.04,-193.47 486.06,-192.11"/>
<polygon fill="black" stroke="black" points="487.14,-195.45 496.11,-189.8 485.58,-188.63 487.14,-195.45"/>
<text text-anchor="middle" x="426.19" y="-217.8" font-family="Times,serif" font-size="14.00">sync_handshake()</text>
</g>
<!-- Connected&#45;&gt;WFConnection -->
<g id="edge16" class="edge">
<title>Connected&#45;&gt;WFConnection</title>
<path fill="none" stroke="black" d="M328.35,-34.79C342.61,-47.86 359.19,-67.84 359.19,-90 359.19,-266 359.19,-266 359.19,-266 359.19,-289.08 359.89,-298.2 345.19,-316 339.72,-322.63 332.68,-328.12 325.18,-332.63"/>
<polygon fill="black" stroke="black" points="323.36,-329.63 316.23,-337.48 326.69,-335.79 323.36,-329.63"/>
<text text-anchor="middle" x="411.69" y="-174.3" font-family="Times,serif" font-size="14.00">* on network error</text>
</g>
<!-- SyncSource -->
<g id="node8" class="node">
<title>SyncSource</title>
<ellipse fill="none" stroke="black" cx="109.19" cy="-91" rx="53.09" ry="18"/>
<text text-anchor="middle" x="109.19" y="-87.3" font-family="Times,serif" font-size="14.00">SyncSource</text>
</g>
<!-- WFBitMapS&#45;&gt;SyncSource -->
<g id="edge8" class="edge">
<title>WFBitMapS&#45;&gt;SyncSource</title>
<path fill="none" stroke="black" d="M88.11,-159.62C87.46,-149.88 87.5,-137.6 90.19,-127 90.97,-123.95 92.07,-120.88 93.36,-117.89"/>
<polygon fill="black" stroke="black" points="96.59,-119.25 97.92,-108.74 90.32,-116.12 96.59,-119.25"/>
<text text-anchor="middle" x="138.69" y="-130.8" font-family="Times,serif" font-size="14.00">receive_bitmap()</text>
</g>
<!-- SyncTarget -->
<g id="node9" class="node">
<title>SyncTarget</title>
<ellipse fill="none" stroke="black" cx="464.19" cy="-91" rx="51.99" ry="18"/>
<text text-anchor="middle" x="464.19" y="-87.3" font-family="Times,serif" font-size="14.00">SyncTarget</text>
</g>
<!-- WFBitMapT&#45;&gt;SyncTarget -->
<g id="edge9" class="edge">
<title>WFBitMapT&#45;&gt;SyncTarget</title>
<path fill="none" stroke="black" d="M525.18,-160.21C513.97,-147.67 498.48,-130.35 485.92,-116.3"/>
<polygon fill="black" stroke="black" points="488.19,-113.59 478.92,-108.47 482.98,-118.26 488.19,-113.59"/>
<text text-anchor="middle" x="554.69" y="-130.8" font-family="Times,serif" font-size="14.00">receive_bitmap()</text>
</g>
<!-- SyncSource&#45;&gt;Connected -->
<g id="edge10" class="edge">
<title>SyncSource&#45;&gt;Connected</title>
<path fill="none" stroke="black" d="M139.96,-76.28C156.23,-69.23 176.63,-60.74 195.19,-54 216.43,-46.29 240.28,-38.74 260.57,-32.64"/>
<polygon fill="black" stroke="black" points="261.64,-35.98 270.23,-29.77 259.64,-29.27 261.64,-35.98"/>
</g>
<!-- PausedSyncS -->
<g id="node10" class="node">
<title>PausedSyncS</title>
<ellipse fill="none" stroke="black" cx="109.19" cy="-18" rx="57.69" ry="18"/>
<text text-anchor="middle" x="109.19" y="-14.3" font-family="Times,serif" font-size="14.00">PausedSyncS</text>
</g>
<!-- SyncSource&#45;&gt;PausedSyncS -->
<g id="edge12" class="edge">
<title>SyncSource&#45;&gt;PausedSyncS</title>
<path fill="none" stroke="black" d="M103.32,-72.81C102.48,-64.79 102.24,-55.05 102.62,-46.07"/>
<polygon fill="black" stroke="black" points="106.11,-46.25 103.33,-36.03 99.13,-45.75 106.11,-46.25"/>
</g>
<!-- SyncTarget&#45;&gt;Connected -->
<g id="edge11" class="edge">
<title>SyncTarget&#45;&gt;Connected</title>
<path fill="none" stroke="black" d="M434.12,-76.31C409.33,-65.03 373.99,-48.95 347.06,-36.69"/>
<polygon fill="black" stroke="black" points="348.47,-33.48 337.92,-32.53 345.57,-39.85 348.47,-33.48"/>
</g>
<!-- PausedSyncT -->
<g id="node11" class="node">
<title>PausedSyncT</title>
<ellipse fill="none" stroke="black" cx="464.19" cy="-18" rx="59.29" ry="18"/>
<text text-anchor="middle" x="464.19" y="-14.3" font-family="Times,serif" font-size="14.00">PausedSyncT</text>
</g>
<!-- SyncTarget&#45;&gt;PausedSyncT -->
<g id="edge13" class="edge">
<title>SyncTarget&#45;&gt;PausedSyncT</title>
<path fill="none" stroke="black" d="M458.32,-72.81C457.48,-64.79 457.24,-55.05 457.62,-46.07"/>
<polygon fill="black" stroke="black" points="461.11,-46.25 458.33,-36.03 454.13,-45.75 461.11,-46.25"/>
</g>
<!-- PausedSyncS&#45;&gt;SyncSource -->
<g id="edge14" class="edge">
<title>PausedSyncS&#45;&gt;SyncSource</title>
<path fill="none" stroke="black" d="M115.06,-36.03C115.9,-44.03 116.15,-53.77 115.78,-62.75"/>
<polygon fill="black" stroke="black" points="112.28,-62.59 115.07,-72.81 119.27,-63.08 112.28,-62.59"/>
</g>
<!-- PausedSyncT&#45;&gt;SyncTarget -->
<g id="edge15" class="edge">
<title>PausedSyncT&#45;&gt;SyncTarget</title>
<path fill="none" stroke="black" d="M470.06,-36.03C470.9,-44.03 471.15,-53.77 470.78,-62.75"/>
<polygon fill="black" stroke="black" points="467.28,-62.59 470.07,-72.81 474.27,-63.08 467.28,-62.59"/>
</g>
</g>
</svg>
