<?xml version="1.0" encoding="UTF-8" standalone="no"?>
<!DOCTYPE svg PUBLIC "-//W3C//DTD SVG 1.1//EN"
 "http://www.w3.org/Graphics/SVG/1.1/DTD/svg11.dtd">
<!-- Generated by graphviz version 2.43.0 (0)
 -->
<!-- Title: KMS Pages: 1 -->
<svg width="378pt" height="409pt"
 viewBox="0.00 0.00 378.00 409.00" xmlns="http://www.w3.org/2000/svg" xmlns:xlink="http://www.w3.org/1999/xlink">
<g id="graph0" class="graph" transform="scale(1 1) rotate(0) translate(4 405)">
<title>KMS</title>
<polygon fill="white" stroke="transparent" points="-4,4 -4,-405 374,-405 374,4 -4,4"/>
<g id="clust1" class="cluster">
<title>cluster_static</title>
<polygon fill="none" stroke="black" stroke-dasharray="5,2" points="67,-91 67,-310 310,-310 310,-91 67,-91"/>
<text text-anchor="middle" x="188.5" y="-294.8" font-family="Times,serif" font-size="14.00">Static Objects</text>
</g>
<g id="clust2" class="cluster">
<title>cluster_user_created</title>
<polygon fill="none" stroke="black" stroke-dasharray="5,2" points="8,-318 8,-393 362,-393 362,-318 8,-318"/>
<text text-anchor="middle" x="185" y="-377.8" font-family="Times,serif" font-size="14.00">Userspace&#45;Created</text>
</g>
<g id="clust3" class="cluster">
<title>cluster_connector</title>
<polygon fill="none" stroke="black" stroke-dasharray="5,2" points="55,-8 55,-83 322,-83 322,-8 55,-8"/>
<text text-anchor="middle" x="188.5" y="-67.8" font-family="Times,serif" font-size="14.00">Hotpluggable</text>
</g>
<!-- drm_plane A -->
<g id="node1" class="node">
<title>drm_plane A</title>
<polygon fill="lightgrey" stroke="black" points="289.5,-279 198.5,-279 198.5,-243 289.5,-243 289.5,-279"/>
<text text-anchor="middle" x="244" y="-257.3" font-family="Times,serif" font-size="14.00">drm_plane A</text>
</g>
<!-- drm_crtc -->
<g id="node2" class="node">
<title>drm_crtc</title>
<polygon fill="lightgrey" stroke="black" points="167,-207 99,-207 99,-171 167,-171 167,-207"/>
<text text-anchor="middle" x="133" y="-185.3" font-family="Times,serif" font-size="14.00">drm_crtc</text>
</g>
<!-- drm_plane A&#45;&gt;drm_crtc -->
<g id="edge1" class="edge">
<title>drm_plane A&#45;&gt;drm_crtc</title>
<path fill="none" stroke="black" d="M216.85,-242.88C202.47,-233.81 184.62,-222.55 169.09,-212.76"/>
<polygon fill="black" stroke="black" points="170.58,-209.56 160.26,-207.19 166.85,-215.48 170.58,-209.56"/>
</g>
<!-- drm_encoder A -->
<g id="node4" class="node">
<title>drm_encoder A</title>
<polygon fill="lightgrey" stroke="black" points="180.5,-135 75.5,-135 75.5,-99 180.5,-99 180.5,-135"/>
<text text-anchor="middle" x="128" y="-113.3" font-family="Times,serif" font-size="14.00">drm_encoder A</text>
</g>
<!-- drm_crtc&#45;&gt;drm_encoder A -->
<g id="edge3" class="edge">
<title>drm_crtc&#45;&gt;drm_encoder A</title>
<path fill="none" stroke="black" d="M131.76,-170.7C131.21,-162.98 130.55,-153.71 129.94,-145.11"/>
<polygon fill="black" stroke="black" points="133.43,-144.83 129.22,-135.1 126.44,-145.33 133.43,-144.83"/>
</g>
<!-- drm_encoder B -->
<g id="node5" class="node">
<title>drm_encoder B</title>
<polygon fill="lightgrey" stroke="black" points="301.5,-135 198.5,-135 198.5,-99 301.5,-99 301.5,-135"/>
<text text-anchor="middle" x="250" y="-113.3" font-family="Times,serif" font-size="14.00">drm_encoder B</text>
</g>
<!-- drm_crtc&#45;&gt;drm_encoder B -->
<g id="edge4" class="edge">
<title>drm_crtc&#45;&gt;drm_encoder B</title>
<path fill="none" stroke="black" d="M161.62,-170.88C176.92,-161.72 195.94,-150.34 212.42,-140.48"/>
<polygon fill="black" stroke="black" points="214.48,-143.33 221.27,-135.19 210.89,-137.32 214.48,-143.33"/>
</g>
<!-- drm_plane B -->
<g id="node3" class="node">
<title>drm_plane B</title>
<polygon fill="lightgrey" stroke="black" points="170.5,-279 81.5,-279 81.5,-243 170.5,-243 170.5,-279"/>
<text text-anchor="middle" x="126" y="-257.3" font-family="Times,serif" font-size="14.00">drm_plane B</text>
</g>
<!-- drm_plane B&#45;&gt;drm_crtc -->
<g id="edge2" class="edge">
<title>drm_plane B&#45;&gt;drm_crtc</title>
<path fill="none" stroke="black" d="M127.73,-242.7C128.5,-234.98 129.43,-225.71 130.29,-217.11"/>
<polygon fill="black" stroke="black" points="133.78,-217.4 131.29,-207.1 126.81,-216.71 133.78,-217.4"/>
</g>
<!-- drm_connector A -->
<g id="node8" class="node">
<title>drm_connector A</title>
<polygon fill="none" stroke="black" points="180.5,-52 63.5,-52 63.5,-16 180.5,-16 180.5,-52"/>
<text text-anchor="middle" x="122" y="-30.3" font-family="Times,serif" font-size="14.00">drm_connector A</text>
</g>
<!-- drm_encoder A&#45;&gt;drm_connector A -->
<g id="edge7" class="edge">
<title>drm_encoder A&#45;&gt;drm_connector A</title>
<path fill="none" stroke="black" d="M126.73,-98.82C125.94,-88.19 124.91,-74.31 124.02,-62.2"/>
<polygon fill="black" stroke="black" points="127.5,-61.87 123.27,-52.15 120.52,-62.38 127.5,-61.87"/>
</g>
<!-- drm_connector B -->
<g id="node9" class="node">
<title>drm_connector B</title>
<polygon fill="none" stroke="black" points="313.5,-52 198.5,-52 198.5,-16 313.5,-16 313.5,-52"/>
<text text-anchor="middle" x="256" y="-30.3" font-family="Times,serif" font-size="14.00">drm_connector B</text>
</g>
<!-- drm_encoder B&#45;&gt;drm_connector B -->
<g id="edge8" class="edge">
<title>drm_encoder B&#45;&gt;drm_connector B</title>
<path fill="none" stroke="black" d="M251.27,-98.82C252.06,-88.19 253.09,-74.31 253.98,-62.2"/>
<polygon fill="black" stroke="black" points="257.48,-62.38 254.73,-52.15 250.5,-61.87 257.48,-62.38"/>
</g>
<!-- drm_framebuffer 1 -->
<g id="node6" class="node">
<title>drm_framebuffer 1</title>
<ellipse fill="none" stroke="black" cx="274" cy="-344" rx="79.89" ry="18"/>
<text text-anchor="middle" x="274" y="-340.3" font-family="Times,serif" font-size="14.00">drm_framebuffer 1</text>
</g>
<!-- drm_framebuffer 1&#45;&gt;drm_plane A -->
<g id="edge5" class="edge">
<title>drm_framebuffer 1&#45;&gt;drm_plane A</title>
<path fill="none" stroke="black" d="M267.64,-325.82C263.66,-315.08 258.45,-301.03 253.94,-288.84"/>
<polygon fill="black" stroke="black" points="257.11,-287.32 250.35,-279.15 250.54,-289.75 257.11,-287.32"/>
</g>
<!-- drm_framebuffer 2 -->
<g id="node7" class="node">
<title>drm_framebuffer 2</title>
<ellipse fill="none" stroke="black" cx="96" cy="-344" rx="79.89" ry="18"/>
<text text-anchor="middle" x="96" y="-340.3" font-family="Times,serif" font-size="14.00">drm_framebuffer 2</text>
</g>
<!-- drm_framebuffer 2&#45;&gt;drm_plane B -->
<g id="edge6" class="edge">
<title>drm_framebuffer 2&#45;&gt;drm_plane B</title>
<path fill="none" stroke="black" d="M102.36,-325.82C106.34,-315.08 111.55,-301.03 116.06,-288.84"/>
<polygon fill="black" stroke="black" points="119.46,-289.75 119.65,-279.15 112.89,-287.32 119.46,-289.75"/>
</g>
</g>
</svg>
