<?xml version="1.0" encoding="UTF-8" standalone="no"?>
<!DOCTYPE svg PUBLIC "-//W3C//DTD SVG 1.1//EN"
 "http://www.w3.org/Graphics/SVG/1.1/DTD/svg11.dtd">
<!-- Generated by graphviz version 2.43.0 (0)
 -->
<!-- Title: IPU3 ImgU Pages: 1 -->
<svg width="645pt" height="314pt"
 viewBox="0.00 0.00 645.00 314.00" xmlns="http://www.w3.org/2000/svg" xmlns:xlink="http://www.w3.org/1999/xlink">
<g id="graph0" class="graph" transform="scale(1 1) rotate(0) translate(4 310)">
<title>IPU3 ImgU</title>
<polygon fill="white" stroke="transparent" points="-4,4 -4,-310 641,-310 641,4 -4,4"/>
<!-- a -->
<g id="node1" class="node">
<title>a</title>
<polygon fill="none" stroke="black" points="158.5,-306 82.5,-306 82.5,-270 158.5,-270 158.5,-306"/>
<text text-anchor="middle" x="120.5" y="-284.3" font-family="Times,serif" font-size="14.00">Raw pixels</text>
</g>
<!-- b -->
<g id="node2" class="node">
<title>b</title>
<polygon fill="none" stroke="black" points="182,-252 59,-252 59,-216 182,-216 182,-252"/>
<text text-anchor="middle" x="120.5" y="-230.3" font-family="Times,serif" font-size="14.00">Bayer Downscaling</text>
</g>
<!-- a&#45;&gt;b -->
<g id="edge1" class="edge">
<title>a&#45;&gt;b</title>
<path fill="none" stroke="black" d="M121,-269.72C121,-269.72 121,-262.26 121,-262.26"/>
<polygon fill="black" stroke="black" points="124.5,-262.26 121,-252.26 117.5,-262.26 124.5,-262.26"/>
</g>
<!-- g -->
<g id="node7" class="node">
<title>g</title>
<polygon fill="none" stroke="black" points="425,-306 282,-306 282,-270 425,-270 425,-306"/>
<text text-anchor="middle" x="353.5" y="-284.3" font-family="Times,serif" font-size="14.00">Bayer Noise Reduction</text>
</g>
<!-- a&#45;&gt;g -->
<!-- c -->
<g id="node3" class="node">
<title>c</title>
<polygon fill="none" stroke="black" points="198.5,-198 42.5,-198 42.5,-162 198.5,-162 198.5,-198"/>
<text text-anchor="middle" x="120.5" y="-176.3" font-family="Times,serif" font-size="14.00">Optical Black Correction</text>
</g>
<!-- b&#45;&gt;c -->
<g id="edge2" class="edge">
<title>b&#45;&gt;c</title>
<path fill="none" stroke="black" d="M121,-215.72C121,-215.72 121,-208.26 121,-208.26"/>
<polygon fill="black" stroke="black" points="124.5,-208.26 121,-198.26 117.5,-208.26 124.5,-208.26"/>
</g>
<!-- d -->
<g id="node4" class="node">
<title>d</title>
<polygon fill="none" stroke="black" points="166.5,-144 74.5,-144 74.5,-108 166.5,-108 166.5,-144"/>
<text text-anchor="middle" x="120.5" y="-122.3" font-family="Times,serif" font-size="14.00">Linearization</text>
</g>
<!-- c&#45;&gt;d -->
<g id="edge3" class="edge">
<title>c&#45;&gt;d</title>
<path fill="none" stroke="black" d="M121,-161.72C121,-161.72 121,-154.26 121,-154.26"/>
<polygon fill="black" stroke="black" points="124.5,-154.26 121,-144.26 117.5,-154.26 124.5,-154.26"/>
</g>
<!-- e -->
<g id="node5" class="node">
<title>e</title>
<polygon fill="none" stroke="black" points="198,-90 43,-90 43,-54 198,-54 198,-90"/>
<text text-anchor="middle" x="120.5" y="-68.3" font-family="Times,serif" font-size="14.00">Lens Shading Correction</text>
</g>
<!-- d&#45;&gt;e -->
<g id="edge4" class="edge">
<title>d&#45;&gt;e</title>
<path fill="none" stroke="black" d="M121,-107.72C121,-107.72 121,-100.26 121,-100.26"/>
<polygon fill="black" stroke="black" points="124.5,-100.26 121,-90.26 117.5,-100.26 124.5,-100.26"/>
</g>
<!-- f -->
<g id="node6" class="node">
<title>f</title>
<polygon fill="none" stroke="black" points="241,-36 0,-36 0,0 241,0 241,-36"/>
<text text-anchor="middle" x="120.5" y="-14.3" font-family="Times,serif" font-size="14.00">White Balance / Exposure / Focus Apply</text>
</g>
<!-- e&#45;&gt;f -->
<g id="edge5" class="edge">
<title>e&#45;&gt;f</title>
<path fill="none" stroke="black" d="M121,-53.72C121,-53.72 121,-46.26 121,-46.26"/>
<polygon fill="black" stroke="black" points="124.5,-46.26 121,-36.26 117.5,-46.26 124.5,-46.26"/>
</g>
<!-- f&#45;&gt;g -->
<g id="edge18" class="edge">
<title>f&#45;&gt;g</title>
<path fill="none" stroke="black" d="M220,-36.15C220,-95.79 220,-282 220,-282 220,-282 271.67,-282 271.67,-282"/>
<polygon fill="black" stroke="black" points="271.67,-285.5 281.67,-282 271.67,-278.5 271.67,-285.5"/>
</g>
<!-- h -->
<g id="node8" class="node">
<title>h</title>
<polygon fill="none" stroke="black" points="380.5,-252 326.5,-252 326.5,-216 380.5,-216 380.5,-252"/>
<text text-anchor="middle" x="353.5" y="-230.3" font-family="Times,serif" font-size="14.00">ANR</text>
</g>
<!-- g&#45;&gt;h -->
<g id="edge6" class="edge">
<title>g&#45;&gt;h</title>
<path fill="none" stroke="black" d="M354,-269.72C354,-269.72 354,-262.26 354,-262.26"/>
<polygon fill="black" stroke="black" points="357.5,-262.26 354,-252.26 350.5,-262.26 357.5,-262.26"/>
</g>
<!-- m -->
<g id="node13" class="node">
<title>m</title>
<polygon fill="none" stroke="black" points="622.5,-306 480.5,-306 480.5,-270 622.5,-270 622.5,-306"/>
<text text-anchor="middle" x="551.5" y="-284.3" font-family="Times,serif" font-size="14.00">Chroma Down Scaling</text>
</g>
<!-- g&#45;&gt;m -->
<!-- i -->
<g id="node9" class="node">
<title>i</title>
<polygon fill="none" stroke="black" points="398,-198 309,-198 309,-162 398,-162 398,-198"/>
<text text-anchor="middle" x="353.5" y="-176.3" font-family="Times,serif" font-size="14.00">Demosaicing</text>
</g>
<!-- h&#45;&gt;i -->
<g id="edge7" class="edge">
<title>h&#45;&gt;i</title>
<path fill="none" stroke="black" d="M354,-215.72C354,-215.72 354,-208.26 354,-208.26"/>
<polygon fill="black" stroke="black" points="357.5,-208.26 354,-198.26 350.5,-208.26 357.5,-208.26"/>
</g>
<!-- j -->
<g id="node10" class="node">
<title>j</title>
<polygon fill="none" stroke="black" points="430,-144 277,-144 277,-108 430,-108 430,-144"/>
<text text-anchor="middle" x="353.5" y="-122.3" font-family="Times,serif" font-size="14.00">Color Correction Matrix</text>
</g>
<!-- i&#45;&gt;j -->
<g id="edge8" class="edge">
<title>i&#45;&gt;j</title>
<path fill="none" stroke="black" d="M354,-161.72C354,-161.72 354,-154.26 354,-154.26"/>
<polygon fill="black" stroke="black" points="357.5,-154.26 354,-144.26 350.5,-154.26 357.5,-154.26"/>
</g>
<!-- k -->
<g id="node11" class="node">
<title>k</title>
<polygon fill="none" stroke="black" points="414.5,-90 292.5,-90 292.5,-54 414.5,-54 414.5,-90"/>
<text text-anchor="middle" x="353.5" y="-68.3" font-family="Times,serif" font-size="14.00">Gamma correction</text>
</g>
<!-- j&#45;&gt;k -->
<g id="edge9" class="edge">
<title>j&#45;&gt;k</title>
<path fill="none" stroke="black" d="M354,-107.72C354,-107.72 354,-100.26 354,-100.26"/>
<polygon fill="black" stroke="black" points="357.5,-100.26 354,-90.26 350.5,-100.26 357.5,-100.26"/>
</g>
<!-- l -->
<g id="node12" class="node">
<title>l</title>
<polygon fill="none" stroke="black" points="429,-36 278,-36 278,0 429,0 429,-36"/>
<text text-anchor="middle" x="353.5" y="-14.3" font-family="Times,serif" font-size="14.00">Color Space Conversion</text>
</g>
<!-- k&#45;&gt;l -->
<g id="edge10" class="edge">
<title>k&#45;&gt;l</title>
<path fill="none" stroke="black" d="M354,-53.72C354,-53.72 354,-46.26 354,-46.26"/>
<polygon fill="black" stroke="black" points="357.5,-46.26 354,-36.26 350.5,-46.26 357.5,-46.26"/>
</g>
<!-- l&#45;&gt;m -->
<g id="edge19" class="edge">
<title>l&#45;&gt;m</title>
<path fill="none" stroke="black" d="M429.33,-18C440.32,-18 448,-18 448,-18 448,-18 448,-282 448,-282 448,-282 470.46,-282 470.46,-282"/>
<polygon fill="black" stroke="black" points="470.46,-285.5 480.46,-282 470.46,-278.5 470.46,-285.5"/>
</g>
<!-- n -->
<g id="node14" class="node">
<title>n</title>
<polygon fill="none" stroke="black" points="637,-252 466,-252 466,-216 637,-216 637,-252"/>
<text text-anchor="middle" x="551.5" y="-230.3" font-family="Times,serif" font-size="14.00">Chromatic Noise Reduction</text>
</g>
<!-- m&#45;&gt;n -->
<g id="edge11" class="edge">
<title>m&#45;&gt;n</title>
<path fill="none" stroke="black" d="M552,-269.72C552,-269.72 552,-262.26 552,-262.26"/>
<polygon fill="black" stroke="black" points="555.5,-262.26 552,-252.26 548.5,-262.26 555.5,-262.26"/>
</g>
<!-- o -->
<g id="node15" class="node">
<title>o</title>
<polygon fill="none" stroke="black" points="624,-198 479,-198 479,-162 624,-162 624,-198"/>
<text text-anchor="middle" x="551.5" y="-176.3" font-family="Times,serif" font-size="14.00">Total Color Correction</text>
</g>
<!-- n&#45;&gt;o -->
<g id="edge12" class="edge">
<title>n&#45;&gt;o</title>
<path fill="none" stroke="black" d="M552,-215.72C552,-215.72 552,-208.26 552,-208.26"/>
<polygon fill="black" stroke="black" points="555.5,-208.26 552,-198.26 548.5,-208.26 555.5,-208.26"/>
</g>
<!-- p -->
<g id="node16" class="node">
<title>p</title>
<polygon fill="none" stroke="black" points="578.5,-144 524.5,-144 524.5,-108 578.5,-108 578.5,-144"/>
<text text-anchor="middle" x="551.5" y="-122.3" font-family="Times,serif" font-size="14.00">XNR3</text>
</g>
<!-- o&#45;&gt;p -->
<g id="edge13" class="edge">
<title>o&#45;&gt;p</title>
<path fill="none" stroke="black" d="M552,-161.72C552,-161.72 552,-154.26 552,-154.26"/>
<polygon fill="black" stroke="black" points="555.5,-154.26 552,-144.26 548.5,-154.26 555.5,-154.26"/>
</g>
<!-- q -->
<g id="node17" class="node">
<title>q</title>
<polygon fill="none" stroke="black" points="578.5,-90 524.5,-90 524.5,-54 578.5,-54 578.5,-90"/>
<text text-anchor="middle" x="551.5" y="-68.3" font-family="Times,serif" font-size="14.00">TNR</text>
</g>
<!-- p&#45;&gt;q -->
<g id="edge14" class="edge">
<title>p&#45;&gt;q</title>
<path fill="none" stroke="black" d="M552,-107.72C552,-107.72 552,-100.26 552,-100.26"/>
<polygon fill="black" stroke="black" points="555.5,-100.26 552,-90.26 548.5,-100.26 555.5,-100.26"/>
</g>
<!-- r -->
<g id="node18" class="node">
<title>r</title>
<polygon fill="none" stroke="black" points="578.5,-36 524.5,-36 524.5,0 578.5,0 578.5,-36"/>
<text text-anchor="middle" x="551.5" y="-14.3" font-family="Times,serif" font-size="14.00">DDR</text>
</g>
<!-- q&#45;&gt;r -->
<g id="edge15" class="edge">
<title>q&#45;&gt;r</title>
<path fill="none" stroke="black" d="M552,-53.72C552,-53.72 552,-46.26 552,-46.26"/>
<polygon fill="black" stroke="black" points="555.5,-46.26 552,-36.26 548.5,-46.26 555.5,-46.26"/>
</g>
</g>
</svg>
