<?xml version="1.0" encoding="UTF-8" standalone="no"?>
<!DOCTYPE svg PUBLIC "-//W3C//DTD SVG 1.1//EN"
 "http://www.w3.org/Graphics/SVG/1.1/DTD/svg11.dtd">
<!-- Generated by graphviz version 2.43.0 (0)
 -->
<!-- Title: Output Pipeline Pages: 1 -->
<svg width="519pt" height="362pt"
 viewBox="0.00 0.00 519.00 362.00" xmlns="http://www.w3.org/2000/svg" xmlns:xlink="http://www.w3.org/1999/xlink">
<g id="graph0" class="graph" transform="scale(1 1) rotate(0) translate(4 358)">
<title>Output Pipeline</title>
<polygon fill="white" stroke="transparent" points="-4,4 -4,-358 515,-358 515,4 -4,4"/>
<g id="clust2" class="cluster">
<title>cluster_internal</title>
<polygon fill="none" stroke="black" stroke-dasharray="5,2" points="121,-91 121,-310 485,-310 485,-91 121,-91"/>
<text text-anchor="middle" x="303" y="-294.8" font-family="Times,serif" font-size="14.00">Internal Pipeline</text>
</g>
<g id="clust5" class="cluster">
<title>cluster_output</title>
<polygon fill="none" stroke="black" stroke-dasharray="5,2" points="8,-8 8,-83 503,-83 503,-8 8,-8"/>
<text text-anchor="middle" x="255.5" y="-67.8" font-family="Times,serif" font-size="14.00">Outputs</text>
</g>
<!-- drm_crtc -->
<g id="node1" class="node">
<title>drm_crtc</title>
<polygon fill="lightgrey" stroke="black" points="336,-354 268,-354 268,-318 336,-318 336,-354"/>
<text text-anchor="middle" x="302" y="-332.3" font-family="Times,serif" font-size="14.00">drm_crtc</text>
</g>
<!-- drm_encoder A -->
<g id="node2" class="node">
<title>drm_encoder A</title>
<polygon fill="lightgrey" stroke="black" points="476.5,-279 371.5,-279 371.5,-243 476.5,-243 476.5,-279"/>
<text text-anchor="middle" x="424" y="-257.3" font-family="Times,serif" font-size="14.00">drm_encoder A</text>
</g>
<!-- drm_crtc&#45;&gt;drm_encoder A -->
<g id="edge4" class="edge">
<title>drm_crtc&#45;&gt;drm_encoder A</title>
<path fill="none" stroke="black" d="M336.04,-323C345.05,-319.3 354.6,-314.9 363,-310 374.94,-303.04 387.11,-293.95 397.4,-285.55"/>
<polygon fill="black" stroke="black" points="399.78,-288.12 405.21,-279.03 395.3,-282.75 399.78,-288.12"/>
</g>
<!-- drm_encoder B -->
<g id="node3" class="node">
<title>drm_encoder B</title>
<polygon fill="lightgrey" stroke="black" points="353.5,-279 250.5,-279 250.5,-243 353.5,-243 353.5,-279"/>
<text text-anchor="middle" x="302" y="-257.3" font-family="Times,serif" font-size="14.00">drm_encoder B</text>
</g>
<!-- drm_crtc&#45;&gt;drm_encoder B -->
<g id="edge5" class="edge">
<title>drm_crtc&#45;&gt;drm_encoder B</title>
<path fill="none" stroke="black" d="M302,-317.7C302,-309.25 302,-298.87 302,-289.37"/>
<polygon fill="black" stroke="black" points="305.5,-289.18 302,-279.18 298.5,-289.18 305.5,-289.18"/>
</g>
<!-- drm_encoder C -->
<g id="node4" class="node">
<title>drm_encoder C</title>
<polygon fill="lightgrey" stroke="black" points="232.5,-279 129.5,-279 129.5,-243 232.5,-243 232.5,-279"/>
<text text-anchor="middle" x="181" y="-257.3" font-family="Times,serif" font-size="14.00">drm_encoder C</text>
</g>
<!-- drm_crtc&#45;&gt;drm_encoder C -->
<g id="edge6" class="edge">
<title>drm_crtc&#45;&gt;drm_encoder C</title>
<path fill="none" stroke="black" d="M267.9,-322.68C259.22,-319.04 250.08,-314.74 242,-310 230.17,-303.06 218.1,-294.05 207.86,-285.71"/>
<polygon fill="black" stroke="black" points="210,-282.94 200.07,-279.22 205.51,-288.31 210,-282.94"/>
</g>
<!-- drm_connector A -->
<g id="node8" class="node">
<title>drm_connector A</title>
<polygon fill="none" stroke="black" points="494.5,-52 377.5,-52 377.5,-16 494.5,-16 494.5,-52"/>
<text text-anchor="middle" x="436" y="-30.3" font-family="Times,serif" font-size="14.00">drm_connector A</text>
</g>
<!-- drm_encoder A&#45;&gt;drm_connector A -->
<g id="edge7" class="edge">
<title>drm_encoder A&#45;&gt;drm_connector A</title>
<path fill="none" stroke="black" d="M424.92,-242.72C427,-203.77 432.06,-108.88 434.56,-62.05"/>
<polygon fill="black" stroke="black" points="438.05,-62.2 435.09,-52.03 431.06,-61.83 438.05,-62.2"/>
</g>
<!-- drm_bridge B -->
<g id="node5" class="node">
<title>drm_bridge B</title>
<polygon fill="lightgrey" stroke="black" points="348.5,-207 255.5,-207 255.5,-171 348.5,-171 348.5,-207"/>
<text text-anchor="middle" x="302" y="-185.3" font-family="Times,serif" font-size="14.00">drm_bridge B</text>
</g>
<!-- drm_encoder B&#45;&gt;drm_bridge B -->
<g id="edge1" class="edge">
<title>drm_encoder B&#45;&gt;drm_bridge B</title>
<path fill="none" stroke="black" d="M302,-242.7C302,-234.98 302,-225.71 302,-217.11"/>
<polygon fill="black" stroke="black" points="305.5,-217.1 302,-207.1 298.5,-217.1 305.5,-217.1"/>
</g>
<!-- drm_bridge C1 -->
<g id="node6" class="node">
<title>drm_bridge C1</title>
<polygon fill="lightgrey" stroke="black" points="230,-207 130,-207 130,-171 230,-171 230,-207"/>
<text text-anchor="middle" x="180" y="-185.3" font-family="Times,serif" font-size="14.00">drm_bridge C1</text>
</g>
<!-- drm_encoder C&#45;&gt;drm_bridge C1 -->
<g id="edge2" class="edge">
<title>drm_encoder C&#45;&gt;drm_bridge C1</title>
<path fill="none" stroke="black" d="M180.75,-242.7C180.64,-234.98 180.51,-225.71 180.39,-217.11"/>
<polygon fill="black" stroke="black" points="183.89,-217.05 180.24,-207.1 176.89,-217.15 183.89,-217.05"/>
</g>
<!-- drm_connector B -->
<g id="node9" class="node">
<title>drm_connector B</title>
<polygon fill="none" stroke="black" points="359.5,-52 244.5,-52 244.5,-16 359.5,-16 359.5,-52"/>
<text text-anchor="middle" x="302" y="-30.3" font-family="Times,serif" font-size="14.00">drm_connector B</text>
</g>
<!-- drm_bridge B&#45;&gt;drm_connector B -->
<g id="edge8" class="edge">
<title>drm_bridge B&#45;&gt;drm_connector B</title>
<path fill="none" stroke="black" d="M302,-170.75C302,-144.46 302,-94.13 302,-62.69"/>
<polygon fill="black" stroke="black" points="305.5,-62.43 302,-52.43 298.5,-62.43 305.5,-62.43"/>
</g>
<!-- drm_bridge C2 -->
<g id="node7" class="node">
<title>drm_bridge C2</title>
<polygon fill="lightgrey" stroke="black" points="229,-135 129,-135 129,-99 229,-99 229,-135"/>
<text text-anchor="middle" x="179" y="-113.3" font-family="Times,serif" font-size="14.00">drm_bridge C2</text>
</g>
<!-- drm_bridge C1&#45;&gt;drm_bridge C2 -->
<g id="edge3" class="edge">
<title>drm_bridge C1&#45;&gt;drm_bridge C2</title>
<path fill="none" stroke="black" d="M179.75,-170.7C179.64,-162.98 179.51,-153.71 179.39,-145.11"/>
<polygon fill="black" stroke="black" points="182.89,-145.05 179.24,-135.1 175.89,-145.15 182.89,-145.05"/>
</g>
<!-- drm_connector C -->
<g id="node10" class="node">
<title>drm_connector C</title>
<polygon fill="none" stroke="black" points="226.5,-52 111.5,-52 111.5,-16 226.5,-16 226.5,-52"/>
<text text-anchor="middle" x="169" y="-30.3" font-family="Times,serif" font-size="14.00">drm_connector C</text>
</g>
<!-- drm_bridge C2&#45;&gt;drm_connector C -->
<g id="edge9" class="edge">
<title>drm_bridge C2&#45;&gt;drm_connector C</title>
<path fill="none" stroke="black" d="M176.88,-98.82C175.57,-88.19 173.85,-74.31 172.36,-62.2"/>
<polygon fill="black" stroke="black" points="175.82,-61.65 171.12,-52.15 168.87,-62.51 175.82,-61.65"/>
</g>
<!-- drm_panel -->
<g id="node11" class="node">
<title>drm_panel</title>
<polygon fill="none" stroke="black" points="93.5,-52 16.5,-52 16.5,-16 93.5,-16 93.5,-52"/>
<text text-anchor="middle" x="55" y="-30.3" font-family="Times,serif" font-size="14.00">drm_panel</text>
</g>
</g>
</svg>
