<?xml version="1.0" encoding="UTF-8" standalone="no"?>
<!DOCTYPE svg PUBLIC "-//W3C//DTD SVG 1.1//EN"
 "http://www.w3.org/Graphics/SVG/1.1/DTD/svg11.dtd">
<!-- Generated by graphviz version 2.43.0 (0)
 -->
<!-- Title: decoder_state_machine Pages: 1 -->
<svg width="1264pt" height="960pt"
 viewBox="0.00 0.00 1264.04 960.23" xmlns="http://www.w3.org/2000/svg" xmlns:xlink="http://www.w3.org/1999/xlink">
<g id="graph0" class="graph" transform="scale(1 1) rotate(0) translate(4 956.23)">
<title>decoder_state_machine</title>
<polygon fill="white" stroke="transparent" points="-4,4 -4,-956.23 1260.04,-956.23 1260.04,4 -4,4"/>
<!-- Decoding -->
<g id="node1" class="node">
<title>Decoding</title>
<ellipse fill="none" stroke="black" cx="571.04" cy="-903.38" rx="44.71" ry="44.71"/>
<ellipse fill="none" stroke="black" cx="571.04" cy="-903.38" rx="48.69" ry="48.69"/>
<text text-anchor="middle" x="571.04" y="-899.68" font-family="Times,serif" font-size="14.00">Decoding</text>
</g>
<!-- Decoding&#45;&gt;Decoding -->
<g id="edge9" class="edge">
<title>Decoding&#45;&gt;Decoding</title>
<path fill="none" stroke="black" d="M617.28,-919.68C629.05,-918.61 637.89,-913.18 637.89,-903.38 637.89,-896.64 633.71,-891.97 627.27,-889.36"/>
<polygon fill="black" stroke="black" points="627.81,-885.89 617.28,-887.08 626.25,-892.72 627.81,-885.89"/>
</g>
<!-- ResChange -->
<g id="node4" class="node">
<title>ResChange</title>
<ellipse fill="none" stroke="black" cx="214.04" cy="-710.49" rx="54.39" ry="54.39"/>
<text text-anchor="middle" x="214.04" y="-721.79" font-family="Times,serif" font-size="14.00">Dynamic</text>
<text text-anchor="middle" x="214.04" y="-706.79" font-family="Times,serif" font-size="14.00">Resolution</text>
<text text-anchor="middle" x="214.04" y="-691.79" font-family="Times,serif" font-size="14.00">Change</text>
</g>
<!-- Decoding&#45;&gt;ResChange -->
<g id="edge4" class="edge">
<title>Decoding&#45;&gt;ResChange</title>
<path fill="none" stroke="black" d="M522.02,-900.12C436.18,-895.06 264.06,-879.67 225.04,-836.53 210.02,-819.92 205.29,-796.5 205,-774.41"/>
<polygon fill="black" stroke="black" points="208.5,-774.44 205.16,-764.38 201.5,-774.33 208.5,-774.44"/>
<text text-anchor="middle" x="253.54" y="-825.33" font-family="Times,serif" font-size="14.00">Stream</text>
<text text-anchor="middle" x="253.54" y="-810.33" font-family="Times,serif" font-size="14.00">resolution</text>
<text text-anchor="middle" x="253.54" y="-795.33" font-family="Times,serif" font-size="14.00">change</text>
</g>
<!-- Stopped -->
<g id="node5" class="node">
<title>Stopped</title>
<ellipse fill="none" stroke="black" cx="529.04" cy="-343.88" rx="40.09" ry="40.09"/>
<text text-anchor="middle" x="529.04" y="-340.18" font-family="Times,serif" font-size="14.00">Stopped</text>
</g>
<!-- Decoding&#45;&gt;Stopped -->
<g id="edge8" class="edge">
<title>Decoding&#45;&gt;Stopped</title>
<path fill="none" stroke="black" d="M532.33,-873.19C476.2,-828.14 374.61,-735.7 335.04,-629.44 328.06,-610.7 321.66,-599.31 335.04,-584.44 360.45,-556.2 478.15,-593.27 505.04,-566.44 549.76,-521.83 547.2,-444.02 539.48,-393.49"/>
<polygon fill="black" stroke="black" points="542.91,-392.75 537.83,-383.45 536,-393.89 542.91,-392.75"/>
<text text-anchor="middle" x="442.04" y="-603.24" font-family="Times,serif" font-size="14.00">VIDIOC_STREAMOFF(CAPTURE)</text>
</g>
<!-- Drain -->
<g id="node6" class="node">
<title>Drain</title>
<ellipse fill="none" stroke="black" cx="808.04" cy="-523.31" rx="31.7" ry="31.7"/>
<text text-anchor="middle" x="808.04" y="-519.61" font-family="Times,serif" font-size="14.00">Drain</text>
</g>
<!-- Decoding&#45;&gt;Drain -->
<g id="edge5" class="edge">
<title>Decoding&#45;&gt;Drain</title>
<path fill="none" stroke="black" d="M593.51,-859.45C623.48,-805.18 680.77,-711.16 749.04,-647.44 760.41,-636.84 769.63,-641.83 779.04,-629.44 793.12,-610.92 800.36,-585.95 804.09,-565"/>
<polygon fill="black" stroke="black" points="807.56,-565.5 805.65,-555.08 800.64,-564.41 807.56,-565.5"/>
<text text-anchor="middle" x="821.54" y="-706.79" font-family="Times,serif" font-size="14.00">V4L2_DEC_CMD_STOP</text>
</g>
<!-- Seek -->
<g id="node7" class="node">
<title>Seek</title>
<ellipse fill="none" stroke="black" cx="387.04" cy="-194.64" rx="27.9" ry="27.9"/>
<text text-anchor="middle" x="387.04" y="-190.94" font-family="Times,serif" font-size="14.00">Seek</text>
</g>
<!-- Decoding&#45;&gt;Seek -->
<g id="edge7" class="edge">
<title>Decoding&#45;&gt;Seek</title>
<path fill="none" stroke="black" d="M524.04,-889.76C470.38,-872.74 384.3,-837 340.04,-773.53 302.33,-719.46 270.82,-541.08 296.04,-480.18 300.37,-469.73 308.36,-471.96 314.04,-462.18 357.32,-387.7 375.8,-286.6 382.98,-232.84"/>
<polygon fill="black" stroke="black" points="386.47,-233.11 384.27,-222.74 379.53,-232.22 386.47,-233.11"/>
<text text-anchor="middle" x="398.54" y="-519.61" font-family="Times,serif" font-size="14.00">VIDIOC_STREAMOFF(OUTPUT)</text>
</g>
<!-- EoS -->
<g id="node8" class="node">
<title>EoS</title>
<ellipse fill="none" stroke="black" cx="966.04" cy="-710.49" rx="63.09" ry="63.09"/>
<text text-anchor="middle" x="966.04" y="-706.79" font-family="Times,serif" font-size="14.00">End of Stream</text>
</g>
<!-- Decoding&#45;&gt;EoS -->
<g id="edge6" class="edge">
<title>Decoding&#45;&gt;EoS</title>
<path fill="none" stroke="black" d="M617.91,-888.99C682.13,-869.44 799.69,-829.23 889.04,-773.53 896.27,-769.03 903.58,-763.94 910.68,-758.67"/>
<polygon fill="black" stroke="black" points="913.06,-761.25 918.9,-752.41 908.82,-755.68 913.06,-761.25"/>
<text text-anchor="middle" x="893.04" y="-817.83" font-family="Times,serif" font-size="14.00">EoS mark</text>
<text text-anchor="middle" x="893.04" y="-802.83" font-family="Times,serif" font-size="14.00">in the stream</text>
</g>
<!-- Initialization -->
<g id="node2" class="node">
<title>Initialization</title>
<ellipse fill="none" stroke="black" cx="288.04" cy="-57.84" rx="57.69" ry="57.69"/>
<text text-anchor="middle" x="288.04" y="-54.14" font-family="Times,serif" font-size="14.00">Initialization</text>
</g>
<!-- CaptureSetup -->
<g id="node3" class="node">
<title>CaptureSetup</title>
<ellipse fill="none" stroke="black" cx="216.04" cy="-523.31" rx="43.27" ry="43.27"/>
<text text-anchor="middle" x="216.04" y="-527.11" font-family="Times,serif" font-size="14.00">Capture</text>
<text text-anchor="middle" x="216.04" y="-512.11" font-family="Times,serif" font-size="14.00">setup</text>
</g>
<!-- Initialization&#45;&gt;CaptureSetup -->
<g id="edge2" class="edge">
<title>Initialization&#45;&gt;CaptureSetup</title>
<path fill="none" stroke="black" d="M275.16,-114.29C267.14,-150.17 257.06,-197.96 250.04,-240.58 236.94,-320.21 226.68,-413.28 221,-469.99"/>
<polygon fill="black" stroke="black" points="217.49,-469.85 219.99,-480.15 224.46,-470.54 217.49,-469.85"/>
<text text-anchor="middle" x="282.04" y="-274.38" font-family="Times,serif" font-size="14.00">CAPTURE</text>
<text text-anchor="middle" x="282.04" y="-259.38" font-family="Times,serif" font-size="14.00">format</text>
<text text-anchor="middle" x="282.04" y="-244.38" font-family="Times,serif" font-size="14.00">established</text>
</g>
<!-- CaptureSetup&#45;&gt;Stopped -->
<g id="edge3" class="edge">
<title>CaptureSetup&#45;&gt;Stopped</title>
<path fill="none" stroke="black" d="M250.15,-496.32C257.87,-490.78 266.12,-485.12 274.04,-480.18 344.88,-435.96 431.54,-391.98 483.41,-366.67"/>
<polygon fill="black" stroke="black" points="485.21,-369.68 492.68,-362.16 482.15,-363.39 485.21,-369.68"/>
<text text-anchor="middle" x="442.04" y="-443.48" font-family="Times,serif" font-size="14.00">CAPTURE</text>
<text text-anchor="middle" x="442.04" y="-428.48" font-family="Times,serif" font-size="14.00">buffers</text>
<text text-anchor="middle" x="442.04" y="-413.48" font-family="Times,serif" font-size="14.00">ready</text>
</g>
<!-- ResChange&#45;&gt;CaptureSetup -->
<g id="edge10" class="edge">
<title>ResChange&#45;&gt;CaptureSetup</title>
<path fill="none" stroke="black" d="M214.62,-655.93C214.89,-631.07 215.21,-601.61 215.47,-576.87"/>
<polygon fill="black" stroke="black" points="218.98,-576.63 215.58,-566.59 211.98,-576.55 218.98,-576.63"/>
<text text-anchor="middle" x="248.04" y="-618.24" font-family="Times,serif" font-size="14.00">CAPTURE</text>
<text text-anchor="middle" x="248.04" y="-603.24" font-family="Times,serif" font-size="14.00">format</text>
<text text-anchor="middle" x="248.04" y="-588.24" font-family="Times,serif" font-size="14.00">established</text>
</g>
<!-- ResChange&#45;&gt;Seek -->
<g id="edge11" class="edge">
<title>ResChange&#45;&gt;Seek</title>
<path fill="none" stroke="black" d="M168.89,-679.58C94.05,-626.04 -42.25,-509.41 13.04,-402.18 80.55,-271.26 268.37,-219.17 349.23,-202.39"/>
<polygon fill="black" stroke="black" points="350.34,-205.74 359.45,-200.34 348.96,-198.87 350.34,-205.74"/>
<text text-anchor="middle" x="115.54" y="-428.48" font-family="Times,serif" font-size="14.00">VIDIOC_STREAMOFF(OUTPUT)</text>
</g>
<!-- Stopped&#45;&gt;Decoding -->
<g id="edge17" class="edge">
<title>Stopped&#45;&gt;Decoding</title>
<path fill="none" stroke="black" d="M542.92,-381.79C544.97,-388.49 546.8,-395.48 548.04,-402.18 563.45,-485.38 568.72,-731.29 570.37,-844.34"/>
<polygon fill="black" stroke="black" points="566.87,-844.58 570.51,-854.53 573.87,-844.48 566.87,-844.58"/>
<text text-anchor="middle" x="667.54" y="-618.24" font-family="Times,serif" font-size="14.00">V4L2_DEC_CMD_START</text>
<text text-anchor="middle" x="667.54" y="-603.24" font-family="Times,serif" font-size="14.00">or</text>
<text text-anchor="middle" x="667.54" y="-588.24" font-family="Times,serif" font-size="14.00">VIDIOC_STREAMON(CAPTURE)</text>
</g>
<!-- Stopped&#45;&gt;Seek -->
<g id="edge18" class="edge">
<title>Stopped&#45;&gt;Seek</title>
<path fill="none" stroke="black" d="M501.33,-314.14C475.76,-287.63 438.09,-248.57 413.08,-222.63"/>
<polygon fill="black" stroke="black" points="415.52,-220.13 406.06,-215.36 410.48,-224.99 415.52,-220.13"/>
<text text-anchor="middle" x="572.54" y="-259.38" font-family="Times,serif" font-size="14.00">VIDIOC_STREAMOFF(OUTPUT)</text>
</g>
<!-- Drain&#45;&gt;Stopped -->
<g id="edge13" class="edge">
<title>Drain&#45;&gt;Stopped</title>
<path fill="none" stroke="black" d="M776.14,-521.82C730.56,-519.43 646.73,-508.51 596.04,-462.18 574.96,-442.91 586.99,-427.1 573.04,-402.18 569.46,-395.78 565.22,-389.32 560.81,-383.16"/>
<polygon fill="black" stroke="black" points="563.51,-380.92 554.74,-374.97 557.89,-385.09 563.51,-380.92"/>
<text text-anchor="middle" x="703.04" y="-450.98" font-family="Times,serif" font-size="14.00">All CAPTURE</text>
<text text-anchor="middle" x="703.04" y="-435.98" font-family="Times,serif" font-size="14.00">buffers dequeued</text>
<text text-anchor="middle" x="703.04" y="-420.98" font-family="Times,serif" font-size="14.00">or</text>
<text text-anchor="middle" x="703.04" y="-405.98" font-family="Times,serif" font-size="14.00">VIDIOC_STREAMOFF(CAPTURE)</text>
</g>
<!-- Drain&#45;&gt;Seek -->
<g id="edge14" class="edge">
<title>Drain&#45;&gt;Seek</title>
<path fill="none" stroke="black" d="M814.32,-491.74C818.07,-466.88 820.35,-431.28 810.04,-402.18 779.16,-315.03 760.45,-284.41 679.04,-240.58 643.06,-221.22 536.31,-229.51 496.04,-222.58 471.61,-218.39 444.55,-211.71 423.5,-206.05"/>
<polygon fill="black" stroke="black" points="424.26,-202.63 413.69,-203.37 422.41,-209.38 424.26,-202.63"/>
<text text-anchor="middle" x="904.54" y="-340.18" font-family="Times,serif" font-size="14.00">VIDIOC_STREAMOFF(OUTPUT)</text>
</g>
<!-- Seek&#45;&gt;Decoding -->
<g id="edge15" class="edge">
<title>Seek&#45;&gt;Decoding</title>
<path fill="none" stroke="black" d="M413.67,-203.52C435.58,-209.69 467.56,-217.98 496.04,-222.58 621.91,-242.93 1057.04,-215.38 1057.04,-342.88 1057.04,-711.49 1057.04,-711.49 1057.04,-711.49 1057.04,-789.44 1006.94,-808.92 934.04,-836.53 831.21,-875.48 703.05,-891.8 629.78,-898.33"/>
<polygon fill="black" stroke="black" points="629.48,-894.84 619.81,-899.19 630.08,-901.82 629.48,-894.84"/>
<text text-anchor="middle" x="1156.54" y="-519.61" font-family="Times,serif" font-size="14.00">VIDIOC_STREAMON(OUTPUT)</text>
</g>
<!-- Seek&#45;&gt;Initialization -->
<g id="edge16" class="edge">
<title>Seek&#45;&gt;Initialization</title>
<path fill="none" stroke="black" d="M359.33,-189.22C336.18,-183.92 304.54,-172.55 289.04,-148.69 284.51,-141.71 281.83,-133.75 280.41,-125.5"/>
<polygon fill="black" stroke="black" points="283.87,-124.91 279.28,-115.36 276.91,-125.69 283.87,-124.91"/>
<text text-anchor="middle" x="387.04" y="-137.49" font-family="Times,serif" font-size="14.00">VIDIOC_REQBUFS(OUTPUT, 0)</text>
</g>
<!-- EoS&#45;&gt;Drain -->
<g id="edge12" class="edge">
<title>EoS&#45;&gt;Drain</title>
<path fill="none" stroke="black" d="M925.35,-661.8C896.94,-628.5 859.79,-584.97 834.99,-555.9"/>
<polygon fill="black" stroke="black" points="837.49,-553.43 828.34,-548.1 832.17,-557.98 837.49,-553.43"/>
<text text-anchor="middle" x="918.54" y="-610.74" font-family="Times,serif" font-size="14.00">Implicit</text>
<text text-anchor="middle" x="918.54" y="-595.74" font-family="Times,serif" font-size="14.00">drain</text>
</g>
<!-- qi -->
<g id="node9" class="node">
<title>qi</title>
<ellipse fill="black" stroke="black" cx="507.04" cy="-194.64" rx="1.8" ry="1.8"/>
</g>
<!-- qi&#45;&gt;Initialization -->
<g id="edge1" class="edge">
<title>qi&#45;&gt;Initialization</title>
<path fill="none" stroke="black" d="M506.97,-192.64C506.5,-186.35 503.12,-151.98 485.04,-133.69 450.27,-98.52 397.3,-79.63 355.04,-69.62"/>
<polygon fill="black" stroke="black" points="355.62,-66.17 345.1,-67.39 354.09,-73 355.62,-66.17"/>
<text text-anchor="middle" x="513.04" y="-137.49" font-family="Times,serif" font-size="14.00">open()</text>
</g>
</g>
</svg>
