<?xml version="1.0" encoding="UTF-8" standalone="no"?>
<!DOCTYPE svg PUBLIC "-//W3C//DTD SVG 1.1//EN"
 "http://www.w3.org/Graphics/SVG/1.1/DTD/svg11.dtd">
<!-- Generated by graphviz version 2.43.0 (0)
 -->
<!-- Title: writeback_data_flow Pages: 1 -->
<svg width="274pt" height="44pt"
 viewBox="0.00 0.00 274.00 44.00" xmlns="http://www.w3.org/2000/svg" xmlns:xlink="http://www.w3.org/1999/xlink">
<g id="graph0" class="graph" transform="scale(1 1) rotate(0) translate(4 40)">
<title>writeback_data_flow</title>
<polygon fill="white" stroke="transparent" points="-4,4 -4,-40 270,-40 270,4 -4,4"/>
<!-- Scaler&#45;n -->
<g id="node1" class="node">
<title>Scaler&#45;n</title>
<polygon fill="none" stroke="black" stroke-dasharray="5,2" points="159,-36 96,-36 96,0 159,0 159,-36"/>
<text text-anchor="middle" x="127.5" y="-14.3" font-family="Times,serif" font-size="14.00">Scaler&#45;n</text>
</g>
<!-- Wb_layer -->
<g id="node3" class="node">
<title>Wb_layer</title>
<polygon fill="none" stroke="black" points="266,-36 195,-36 195,0 266,0 266,-36"/>
<text text-anchor="middle" x="230.5" y="-14.3" font-family="Times,serif" font-size="14.00">Wb_layer</text>
</g>
<!-- Scaler&#45;n&#45;&gt;Wb_layer -->
<g id="edge2" class="edge">
<title>Scaler&#45;n&#45;&gt;Wb_layer</title>
<path fill="none" stroke="black" d="M159.08,-18C167.17,-18 176.08,-18 184.76,-18"/>
<polygon fill="black" stroke="black" points="184.78,-21.5 194.78,-18 184.78,-14.5 184.78,-21.5"/>
</g>
<!-- Compiz -->
<g id="node2" class="node">
<title>Compiz</title>
<polygon fill="none" stroke="black" points="60,-36 0,-36 0,0 60,0 60,-36"/>
<text text-anchor="middle" x="30" y="-14.3" font-family="Times,serif" font-size="14.00">Compiz</text>
</g>
<!-- Compiz&#45;&gt;Scaler&#45;n -->
<g id="edge1" class="edge">
<title>Compiz&#45;&gt;Scaler&#45;n</title>
<path fill="none" stroke="black" d="M60.17,-18C68.21,-18 77.07,-18 85.63,-18"/>
<polygon fill="black" stroke="black" points="85.85,-21.5 95.85,-18 85.85,-14.5 85.85,-21.5"/>
</g>
</g>
</svg>
