<?xml version="1.0" encoding="UTF-8" standalone="no"?>
<!DOCTYPE svg PUBLIC "-//W3C//DTD SVG 1.1//EN"
 "http://www.w3.org/Graphics/SVG/1.1/DTD/svg11.dtd">
<!-- Generated by graphviz version 2.43.0 (0)
 -->
<!-- Title: T Pages: 1 -->
<svg width="485pt" height="459pt"
 viewBox="0.00 0.00 485.41 459.00" xmlns="http://www.w3.org/2000/svg" xmlns:xlink="http://www.w3.org/1999/xlink">
<g id="graph0" class="graph" transform="scale(1 1) rotate(0) translate(4 455)">
<title>T</title>
<polygon fill="white" stroke="transparent" points="-4,4 -4,-455 481.41,-455 481.41,4 -4,4"/>
<g id="clust1" class="cluster">
<title>cluster_driver</title>
<polygon fill="grey" stroke="black" points="234,-319 234,-443 423,-443 423,-319 234,-319"/>
</g>
<g id="clust3" class="cluster">
<title>cluster_topology</title>
<polygon fill="none" stroke="black" points="8,-8 8,-371 226,-371 226,-8 8,-8"/>
<text text-anchor="middle" x="117" y="-15.8" font-family="Times,serif" font-size="14.00">Topology Manager</text>
</g>
<!-- driver -->
<g id="node1" class="node">
<title>driver</title>
<polygon fill="lightblue" stroke="black" points="370,-435 286,-435 286,-399 370,-399 370,-435"/>
<text text-anchor="middle" x="328" y="-413.3" font-family="Times,serif" font-size="14.00">DRM driver</text>
</g>
<!-- payload1 -->
<g id="node2" class="node">
<title>payload1</title>
<polygon fill="lightblue" stroke="black" points="319.5,-363 242.5,-363 242.5,-327 319.5,-327 319.5,-363"/>
<text text-anchor="middle" x="281" y="-341.3" font-family="Times,serif" font-size="14.00">Payload #1</text>
</g>
<!-- driver&#45;&gt;payload1 -->
<g id="edge1" class="edge">
<title>driver&#45;&gt;payload1</title>
<path fill="none" stroke="black" d="M316.38,-398.7C309.1,-387.85 299.74,-373.92 292.48,-363.1"/>
</g>
<!-- payload2 -->
<g id="node3" class="node">
<title>payload2</title>
<polygon fill="lightblue" stroke="black" points="414.5,-363 337.5,-363 337.5,-327 414.5,-327 414.5,-363"/>
<text text-anchor="middle" x="376" y="-341.3" font-family="Times,serif" font-size="14.00">Payload #2</text>
</g>
<!-- driver&#45;&gt;payload2 -->
<g id="edge2" class="edge">
<title>driver&#45;&gt;payload2</title>
<path fill="none" stroke="black" d="M339.87,-398.7C347.31,-387.85 356.86,-373.92 364.27,-363.1"/>
</g>
<!-- port1 -->
<g id="node4" class="node">
<title>port1</title>
<ellipse fill="none" stroke="black" cx="172" cy="-273" rx="37.89" ry="18"/>
<text text-anchor="middle" x="172" y="-269.3" font-family="Times,serif" font-size="14.00">Port #1</text>
</g>
<!-- driver&#45;&gt;port1 -->
<g id="edge3" class="edge">
<title>driver&#45;&gt;port1</title>
<path fill="none" stroke="black" stroke-dasharray="5,2" d="M285.61,-413.11C230.21,-408.35 137.79,-396.7 117,-371 102.46,-353.03 107.1,-339.88 117,-319 121.93,-308.59 130.59,-299.78 139.6,-292.8"/>
<polygon fill="black" stroke="black" points="141.75,-295.56 147.87,-286.9 137.69,-289.86 141.75,-295.56"/>
</g>
<!-- port2 -->
<g id="node5" class="node">
<title>port2</title>
<ellipse fill="none" stroke="black" cx="62" cy="-273" rx="37.89" ry="18"/>
<text text-anchor="middle" x="62" y="-269.3" font-family="Times,serif" font-size="14.00">Port #2</text>
</g>
<!-- driver&#45;&gt;port2 -->
<g id="edge4" class="edge">
<title>driver&#45;&gt;port2</title>
<path fill="none" stroke="black" stroke-dasharray="5,2" d="M285.72,-412.25C228.52,-406.41 130.48,-393.41 103,-371 81.72,-353.64 71.29,-323.26 66.31,-301.11"/>
<polygon fill="black" stroke="black" points="69.74,-300.4 64.34,-291.29 62.88,-301.79 69.74,-300.4"/>
</g>
<!-- port3 -->
<g id="node6" class="node">
<title>port3</title>
<ellipse fill="none" stroke="black" cx="163" cy="-129" rx="37.89" ry="18"/>
<text text-anchor="middle" x="163" y="-125.3" font-family="Times,serif" font-size="14.00">Port #3</text>
</g>
<!-- driver&#45;&gt;port3 -->
<g id="edge5" class="edge">
<title>driver&#45;&gt;port3:e</title>
<path fill="none" stroke="black" stroke-dasharray="5,2" d="M370.05,-413.56C399.67,-409.38 437.43,-398.56 457,-371 486.85,-328.97 480.5,-300.89 457,-255 400.94,-145.56 332.28,-129.81 212.25,-129.03"/>
<polygon fill="black" stroke="black" points="212.01,-125.53 202,-129 211.99,-132.53 212.01,-125.53"/>
</g>
<!-- port4 -->
<g id="node7" class="node">
<title>port4</title>
<ellipse fill="grey" stroke="black" cx="62" cy="-129" rx="37.89" ry="18"/>
<text text-anchor="middle" x="62" y="-125.3" font-family="Times,serif" font-size="14.00">Port #4</text>
</g>
<!-- driver&#45;&gt;port4 -->
<g id="edge6" class="edge">
<title>driver&#45;&gt;port4</title>
<path fill="none" stroke="red" stroke-dasharray="5,2" d="M370.46,-407.18C390.32,-400.69 412.15,-389.64 424,-371 436.4,-351.5 434.74,-339.46 424,-319 374.56,-224.79 322.45,-230 227,-183 224.09,-181.57 150.4,-158.07 102.49,-142.85"/>
<polygon fill="red" stroke="red" points="103.29,-139.43 92.7,-139.74 101.17,-146.1 103.29,-139.43"/>
</g>
<!-- payload1&#45;&gt;port1 -->
<g id="edge7" class="edge">
<title>payload1:s&#45;&gt;port1:e</title>
<path fill="none" stroke="black" stroke-dasharray="5,2" d="M281,-326C281,-290.48 255.34,-275.71 221.31,-273.35"/>
<polygon fill="black" stroke="black" points="221.11,-269.84 211,-273 220.88,-276.83 221.11,-269.84"/>
</g>
<!-- payload2&#45;&gt;port3 -->
<g id="edge8" class="edge">
<title>payload2:s&#45;&gt;port3:e</title>
<path fill="none" stroke="black" stroke-dasharray="5,2" d="M376,-326C376,-212.6 322.12,-133.73 212.11,-129.21"/>
<polygon fill="black" stroke="black" points="212.07,-125.7 202,-129 211.93,-132.7 212.07,-125.7"/>
</g>
<!-- mstb2 -->
<g id="node9" class="node">
<title>mstb2</title>
<ellipse fill="palegreen" stroke="black" cx="172" cy="-201" rx="46.29" ry="18"/>
<text text-anchor="middle" x="172" y="-197.3" font-family="Times,serif" font-size="14.00">MSTB #2</text>
</g>
<!-- port1&#45;&gt;mstb2 -->
<g id="edge11" class="edge">
<title>port1&#45;&gt;mstb2</title>
<path fill="none" stroke="black" d="M166.12,-255.05C165.3,-247.35 165.06,-238.03 165.39,-229.36"/>
<polygon fill="black" stroke="black" points="168.89,-229.49 166.09,-219.28 161.91,-229.01 168.89,-229.49"/>
</g>
<!-- port1&#45;&gt;mstb2 -->
<g id="edge18" class="edge">
<title>port1&#45;&gt;mstb2</title>
<path fill="none" stroke="black" stroke-dasharray="5,2" d="M178.59,-245.01C178.94,-236.36 178.71,-227.03 177.91,-219.28"/>
<polygon fill="black" stroke="black" points="175.09,-244.83 177.88,-255.05 182.08,-245.33 175.09,-244.83"/>
</g>
<!-- mstb3 -->
<g id="node10" class="node">
<title>mstb3</title>
<ellipse fill="palegreen" stroke="black" cx="62" cy="-201" rx="46.29" ry="18"/>
<text text-anchor="middle" x="62" y="-197.3" font-family="Times,serif" font-size="14.00">MSTB #3</text>
</g>
<!-- port2&#45;&gt;mstb3 -->
<g id="edge12" class="edge">
<title>port2&#45;&gt;mstb3</title>
<path fill="none" stroke="red" d="M56.12,-255.05C55.3,-247.35 55.06,-238.03 55.39,-229.36"/>
<polygon fill="red" stroke="red" points="58.89,-229.49 56.09,-219.28 51.91,-229.01 58.89,-229.49"/>
</g>
<!-- port2&#45;&gt;mstb3 -->
<g id="edge19" class="edge">
<title>port2&#45;&gt;mstb3</title>
<path fill="none" stroke="black" stroke-dasharray="5,2" d="M68.59,-245.01C68.94,-236.36 68.71,-227.03 67.91,-219.28"/>
<polygon fill="black" stroke="black" points="65.09,-244.83 67.88,-255.05 72.08,-245.33 65.09,-244.83"/>
</g>
<!-- mstb4 -->
<g id="node11" class="node">
<title>mstb4</title>
<ellipse fill="grey" stroke="black" cx="163" cy="-57" rx="46.29" ry="18"/>
<text text-anchor="middle" x="163" y="-53.3" font-family="Times,serif" font-size="14.00">MSTB #4</text>
</g>
<!-- port3&#45;&gt;mstb4 -->
<g id="edge15" class="edge">
<title>port3&#45;&gt;mstb4</title>
<path fill="none" stroke="red" d="M157.12,-111.05C156.3,-103.35 156.06,-94.03 156.39,-85.36"/>
<polygon fill="red" stroke="red" points="159.89,-85.49 157.09,-75.28 152.91,-85.01 159.89,-85.49"/>
</g>
<!-- port3&#45;&gt;mstb4 -->
<g id="edge22" class="edge">
<title>port3&#45;&gt;mstb4</title>
<path fill="none" stroke="red" stroke-dasharray="5,2" d="M169.59,-101.01C169.94,-92.36 169.71,-83.03 168.91,-75.28"/>
<polygon fill="red" stroke="red" points="166.09,-100.83 168.88,-111.05 173.08,-101.33 166.09,-100.83"/>
</g>
<!-- mstb1 -->
<g id="node8" class="node">
<title>mstb1</title>
<ellipse fill="palegreen" stroke="black" cx="172" cy="-345" rx="46.29" ry="18"/>
<text text-anchor="middle" x="172" y="-341.3" font-family="Times,serif" font-size="14.00">MSTB #1</text>
</g>
<!-- mstb1&#45;&gt;port1 -->
<g id="edge9" class="edge">
<title>mstb1&#45;&gt;port1</title>
<path fill="none" stroke="black" d="M166.12,-327.05C165.29,-319.23 165.05,-309.75 165.41,-300.98"/>
<polygon fill="black" stroke="black" points="168.92,-301.01 166.14,-290.79 161.93,-300.51 168.92,-301.01"/>
</g>
<!-- mstb1&#45;&gt;port1 -->
<g id="edge16" class="edge">
<title>mstb1&#45;&gt;port1</title>
<path fill="none" stroke="black" stroke-dasharray="5,2" d="M178.6,-316.85C178.94,-308.07 178.7,-298.59 177.86,-290.79"/>
<polygon fill="black" stroke="black" points="175.09,-316.83 177.88,-327.05 182.07,-317.33 175.09,-316.83"/>
</g>
<!-- mstb1&#45;&gt;port2 -->
<g id="edge10" class="edge">
<title>mstb1&#45;&gt;port2</title>
<path fill="none" stroke="black" d="M145.05,-330.34C127.8,-320.24 105.66,-306.31 88.5,-294.83"/>
<polygon fill="black" stroke="black" points="90.28,-291.81 80.04,-289.08 86.35,-297.6 90.28,-291.81"/>
</g>
<!-- mstb1&#45;&gt;port2 -->
<g id="edge17" class="edge">
<title>mstb1&#45;&gt;port2</title>
<path fill="none" stroke="black" stroke-dasharray="5,2" d="M144.61,-322.58C127.02,-310.84 104.47,-296.68 87.28,-286.69"/>
<polygon fill="black" stroke="black" points="143.06,-325.76 153.31,-328.46 146.99,-319.96 143.06,-325.76"/>
</g>
<!-- mstb3&#45;&gt;port3 -->
<g id="edge13" class="edge">
<title>mstb3&#45;&gt;port3</title>
<path fill="none" stroke="red" d="M79.16,-184.12C93.2,-173.54 113.23,-159.59 130.26,-148.51"/>
<polygon fill="red" stroke="red" points="132.31,-151.35 138.84,-143.01 128.53,-145.46 132.31,-151.35"/>
</g>
<!-- mstb3&#45;&gt;port3 -->
<g id="edge20" class="edge">
<title>mstb3&#45;&gt;port3</title>
<path fill="none" stroke="black" stroke-dasharray="5,2" d="M96.29,-180.48C113.22,-169.41 132.79,-155.75 146.44,-145.43"/>
<polygon fill="black" stroke="black" points="94.23,-177.64 87.72,-186 98.02,-183.53 94.23,-177.64"/>
</g>
<!-- mstb3&#45;&gt;port4 -->
<g id="edge14" class="edge">
<title>mstb3&#45;&gt;port4</title>
<path fill="none" stroke="red" d="M56.12,-183.05C55.29,-175.23 55.05,-165.75 55.41,-156.98"/>
<polygon fill="red" stroke="red" points="58.92,-157.01 56.14,-146.79 51.93,-156.51 58.92,-157.01"/>
</g>
<!-- mstb3&#45;&gt;port4 -->
<g id="edge21" class="edge">
<title>mstb3&#45;&gt;port4</title>
<path fill="none" stroke="red" stroke-dasharray="5,2" d="M68.6,-172.85C68.94,-164.07 68.7,-154.59 67.86,-146.79"/>
<polygon fill="red" stroke="red" points="65.09,-172.83 67.88,-183.05 72.07,-173.33 65.09,-172.83"/>
</g>
</g>
</svg>
