<?xml version="1.0" encoding="UTF-8" standalone="no"?>
<!DOCTYPE svg PUBLIC "-//W3C//DTD SVG 1.1//EN"
 "http://www.w3.org/Graphics/SVG/1.1/DTD/svg11.dtd">
<!-- Generated by graphviz version 2.43.0 (0)
 -->
<!-- Title: single_ppl Pages: 1 -->
<svg width="657pt" height="238pt"
 viewBox="0.00 0.00 657.49 238.00" xmlns="http://www.w3.org/2000/svg" xmlns:xlink="http://www.w3.org/1999/xlink">
<g id="graph0" class="graph" transform="scale(1 1) rotate(0) translate(4 234)">
<title>single_ppl</title>
<polygon fill="white" stroke="transparent" points="-4,4 -4,-234 653.49,-234 653.49,4 -4,4"/>
<g id="clust2" class="cluster">
<title>cluster_pipeline</title>
<polygon fill="none" stroke="black" stroke-dasharray="5,2" points="8,-8 8,-222 537,-222 537,-8 8,-8"/>
</g>
<!-- Memory -->
<g id="node1" class="node">
<title>Memory</title>
<ellipse fill="none" stroke="black" cx="607.25" cy="-142" rx="42.49" ry="18"/>
<text text-anchor="middle" x="607.25" y="-138.3" font-family="Times,serif" font-size="14.00">Memory</text>
</g>
<!-- Monitor -->
<g id="node2" class="node">
<title>Monitor</title>
<ellipse fill="none" stroke="black" cx="607.25" cy="-88" rx="40.09" ry="18"/>
<text text-anchor="middle" x="607.25" y="-84.3" font-family="Times,serif" font-size="14.00">Monitor</text>
</g>
<!-- Scaler&#45;0 -->
<g id="node3" class="node">
<title>Scaler&#45;0</title>
<polygon fill="none" stroke="black" stroke-dasharray="5,2" points="173,-180 111,-180 111,-144 173,-144 173,-180"/>
<text text-anchor="middle" x="142" y="-158.3" font-family="Times,serif" font-size="14.00">Scaler&#45;0</text>
</g>
<!-- Compiz -->
<g id="node10" class="node">
<title>Compiz</title>
<polygon fill="lightgrey" stroke="black" points="269,-133 209,-133 209,-97 269,-97 269,-133"/>
<text text-anchor="middle" x="239" y="-111.3" font-family="Times,serif" font-size="14.00">Compiz</text>
</g>
<!-- Scaler&#45;0&#45;&gt;Compiz -->
<g id="edge9" class="edge">
<title>Scaler&#45;0&#45;&gt;Compiz</title>
<path fill="none" stroke="black" d="M173.06,-147.13C181.53,-142.94 190.86,-138.32 199.75,-133.93"/>
<polygon fill="black" stroke="black" points="201.38,-137.02 208.79,-129.45 198.27,-130.75 201.38,-137.02"/>
</g>
<!-- Scaler&#45;1 -->
<g id="node4" class="node">
<title>Scaler&#45;1</title>
<polygon fill="none" stroke="black" stroke-dasharray="5,2" points="173,-86 111,-86 111,-50 173,-50 173,-86"/>
<text text-anchor="middle" x="142" y="-64.3" font-family="Times,serif" font-size="14.00">Scaler&#45;1</text>
</g>
<!-- Scaler&#45;1&#45;&gt;Compiz -->
<g id="edge10" class="edge">
<title>Scaler&#45;1&#45;&gt;Compiz</title>
<path fill="none" stroke="black" d="M173.06,-82.87C181.53,-87.06 190.86,-91.68 199.75,-96.07"/>
<polygon fill="black" stroke="black" points="198.27,-99.25 208.79,-100.55 201.38,-92.98 198.27,-99.25"/>
</g>
<!-- Scaler&#45;0/1 -->
<g id="node5" class="node">
<title>Scaler&#45;0/1</title>
<polygon fill="none" stroke="black" stroke-dasharray="5,2" points="377,-160 305,-160 305,-124 377,-124 377,-160"/>
<text text-anchor="middle" x="341" y="-138.3" font-family="Times,serif" font-size="14.00">Scaler&#45;0/1</text>
</g>
<!-- Wb_layer -->
<g id="node11" class="node">
<title>Wb_layer</title>
<polygon fill="lightgrey" stroke="black" points="506.5,-160 435.5,-160 435.5,-124 506.5,-124 506.5,-160"/>
<text text-anchor="middle" x="471" y="-138.3" font-family="Times,serif" font-size="14.00">Wb_layer</text>
</g>
<!-- Scaler&#45;0/1&#45;&gt;Wb_layer -->
<g id="edge12" class="edge">
<title>Scaler&#45;0/1&#45;&gt;Wb_layer</title>
<path fill="none" stroke="black" d="M377.32,-142C392.13,-142 409.52,-142 425.22,-142"/>
<polygon fill="black" stroke="black" points="425.24,-145.5 435.24,-142 425.24,-138.5 425.24,-145.5"/>
</g>
<!-- Layer&#45;0 -->
<g id="node6" class="node">
<title>Layer&#45;0</title>
<polygon fill="lightgrey" stroke="black" points="75,-214 16,-214 16,-178 75,-178 75,-214"/>
<text text-anchor="middle" x="45.5" y="-192.3" font-family="Times,serif" font-size="14.00">Layer&#45;0</text>
</g>
<!-- Layer&#45;0&#45;&gt;Scaler&#45;0 -->
<g id="edge1" class="edge">
<title>Layer&#45;0&#45;&gt;Scaler&#45;0</title>
<path fill="none" stroke="black" d="M75.11,-185.71C83.32,-182.75 92.42,-179.48 101.18,-176.33"/>
<polygon fill="black" stroke="black" points="102.62,-179.53 110.85,-172.85 100.25,-172.94 102.62,-179.53"/>
</g>
<!-- Layer&#45;0&#45;&gt;Compiz -->
<g id="edge5" class="edge">
<title>Layer&#45;0&#45;&gt;Compiz</title>
<path fill="none" stroke="black" d="M75.2,-200.5C101.92,-203.32 142.14,-204.01 173,-189 193.89,-178.84 210.91,-158.63 222.29,-141.89"/>
<polygon fill="black" stroke="black" points="225.52,-143.33 228.02,-133.03 219.65,-139.53 225.52,-143.33"/>
</g>
<!-- Layer&#45;1 -->
<g id="node7" class="node">
<title>Layer&#45;1</title>
<polygon fill="lightgrey" stroke="black" points="75,-160 16,-160 16,-124 75,-124 75,-160"/>
<text text-anchor="middle" x="45.5" y="-138.3" font-family="Times,serif" font-size="14.00">Layer&#45;1</text>
</g>
<!-- Layer&#45;1&#45;&gt;Scaler&#45;0 -->
<g id="edge2" class="edge">
<title>Layer&#45;1&#45;&gt;Scaler&#45;0</title>
<path fill="none" stroke="black" d="M75.11,-148.05C83.23,-149.77 92.23,-151.68 100.9,-153.51"/>
<polygon fill="black" stroke="black" points="100.34,-156.97 110.85,-155.62 101.79,-150.12 100.34,-156.97"/>
</g>
<!-- Layer&#45;1&#45;&gt;Compiz -->
<g id="edge6" class="edge">
<title>Layer&#45;1&#45;&gt;Compiz</title>
<path fill="none" stroke="black" d="M75.17,-137.96C107.93,-133.34 161.75,-125.75 198.48,-120.57"/>
<polygon fill="black" stroke="black" points="199.41,-123.98 208.82,-119.11 198.43,-117.04 199.41,-123.98"/>
</g>
<!-- Layer&#45;2 -->
<g id="node8" class="node">
<title>Layer&#45;2</title>
<polygon fill="lightgrey" stroke="black" points="75,-106 16,-106 16,-70 75,-70 75,-106"/>
<text text-anchor="middle" x="45.5" y="-84.3" font-family="Times,serif" font-size="14.00">Layer&#45;2</text>
</g>
<!-- Layer&#45;2&#45;&gt;Scaler&#45;1 -->
<g id="edge3" class="edge">
<title>Layer&#45;2&#45;&gt;Scaler&#45;1</title>
<path fill="none" stroke="black" d="M75.11,-81.95C83.23,-80.23 92.23,-78.32 100.9,-76.49"/>
<polygon fill="black" stroke="black" points="101.79,-79.88 110.85,-74.38 100.34,-73.03 101.79,-79.88"/>
</g>
<!-- Layer&#45;2&#45;&gt;Compiz -->
<g id="edge7" class="edge">
<title>Layer&#45;2&#45;&gt;Compiz</title>
<path fill="none" stroke="black" d="M75.17,-92.04C107.93,-96.66 161.75,-104.25 198.48,-109.43"/>
<polygon fill="black" stroke="black" points="198.43,-112.96 208.82,-110.89 199.41,-106.02 198.43,-112.96"/>
</g>
<!-- Layer&#45;3 -->
<g id="node9" class="node">
<title>Layer&#45;3</title>
<polygon fill="lightgrey" stroke="black" points="75,-52 16,-52 16,-16 75,-16 75,-52"/>
<text text-anchor="middle" x="45.5" y="-30.3" font-family="Times,serif" font-size="14.00">Layer&#45;3</text>
</g>
<!-- Layer&#45;3&#45;&gt;Scaler&#45;1 -->
<g id="edge4" class="edge">
<title>Layer&#45;3&#45;&gt;Scaler&#45;1</title>
<path fill="none" stroke="black" d="M75.11,-44.29C83.32,-47.25 92.42,-50.52 101.18,-53.67"/>
<polygon fill="black" stroke="black" points="100.25,-57.06 110.85,-57.15 102.62,-50.47 100.25,-57.06"/>
</g>
<!-- Layer&#45;3&#45;&gt;Compiz -->
<g id="edge8" class="edge">
<title>Layer&#45;3&#45;&gt;Compiz</title>
<path fill="none" stroke="black" d="M75.2,-29.5C101.92,-26.68 142.14,-25.99 173,-41 193.89,-51.16 210.91,-71.37 222.29,-88.11"/>
<polygon fill="black" stroke="black" points="219.65,-90.47 228.02,-96.97 225.52,-86.67 219.65,-90.47"/>
</g>
<!-- Compiz&#45;&gt;Scaler&#45;0/1 -->
<g id="edge11" class="edge">
<title>Compiz&#45;&gt;Scaler&#45;0/1</title>
<path fill="none" stroke="black" d="M269.19,-122.88C277.32,-125.08 286.34,-127.51 295.14,-129.89"/>
<polygon fill="black" stroke="black" points="294.36,-133.3 304.93,-132.53 296.19,-126.55 294.36,-133.3"/>
</g>
<!-- Improc -->
<g id="node12" class="node">
<title>Improc</title>
<polygon fill="lightgrey" stroke="black" points="369,-106 313,-106 313,-70 369,-70 369,-106"/>
<text text-anchor="middle" x="341" y="-84.3" font-family="Times,serif" font-size="14.00">Improc</text>
</g>
<!-- Compiz&#45;&gt;Improc -->
<g id="edge13" class="edge">
<title>Compiz&#45;&gt;Improc</title>
<path fill="none" stroke="black" d="M269.19,-107.12C279.79,-104.26 291.9,-100.99 303.07,-97.97"/>
<polygon fill="black" stroke="black" points="304.25,-101.28 313,-95.29 302.43,-94.52 304.25,-101.28"/>
</g>
<!-- Wb_layer&#45;&gt;Memory -->
<g id="edge15" class="edge">
<title>Wb_layer&#45;&gt;Memory</title>
<path fill="none" stroke="black" d="M506.57,-142C521.1,-142 538.32,-142 554.32,-142"/>
<polygon fill="black" stroke="black" points="554.61,-145.5 564.61,-142 554.61,-138.5 554.61,-145.5"/>
</g>
<!-- Timing Controller -->
<g id="node13" class="node">
<title>Timing Controller</title>
<polygon fill="lightgrey" stroke="black" points="529,-106 413,-106 413,-70 529,-70 529,-106"/>
<text text-anchor="middle" x="471" y="-84.3" font-family="Times,serif" font-size="14.00">Timing Controller</text>
</g>
<!-- Improc&#45;&gt;Timing Controller -->
<g id="edge14" class="edge">
<title>Improc&#45;&gt;Timing Controller</title>
<path fill="none" stroke="black" d="M369.15,-88C379.12,-88 390.91,-88 402.84,-88"/>
<polygon fill="black" stroke="black" points="402.87,-91.5 412.87,-88 402.87,-84.5 402.87,-91.5"/>
</g>
<!-- Timing Controller&#45;&gt;Monitor -->
<g id="edge16" class="edge">
<title>Timing Controller&#45;&gt;Monitor</title>
<path fill="none" stroke="black" d="M529.32,-88C538.44,-88 547.8,-88 556.72,-88"/>
<polygon fill="black" stroke="black" points="556.94,-91.5 566.94,-88 556.94,-84.5 556.94,-91.5"/>
</g>
</g>
</svg>
