<?xml version="1.0" encoding="UTF-8" standalone="no"?>
<!DOCTYPE svg PUBLIC "-//W3C//DTD SVG 1.1//EN"
 "http://www.w3.org/Graphics/SVG/1.1/DTD/svg11.dtd">
<!-- Generated by graphviz version 2.43.0 (0)
 -->
<!-- Title: slave_ppl Pages: 1 -->
<svg width="854pt" height="506pt"
 viewBox="0.00 0.00 854.49 506.00" xmlns="http://www.w3.org/2000/svg" xmlns:xlink="http://www.w3.org/1999/xlink">
<g id="graph0" class="graph" transform="scale(1 1) rotate(0) translate(4 502)">
<title>slave_ppl</title>
<polygon fill="white" stroke="transparent" points="-4,4 -4,-502 850.49,-502 850.49,4 -4,4"/>
<g id="clust2" class="cluster">
<title>cluster_pipeline_slave</title>
<polygon fill="none" stroke="black" stroke-dasharray="5,2" points="8,-8 8,-245 378,-245 378,-8 8,-8"/>
<text text-anchor="middle" x="193" y="-229.8" font-family="Times,serif" font-size="14.00">Slave Pipeline_B</text>
</g>
<g id="clust4" class="cluster">
<title>cluster_pipeline_master</title>
<polygon fill="none" stroke="black" stroke-dasharray="5,2" points="155,-253 155,-490 734,-490 734,-253 155,-253"/>
<text text-anchor="middle" x="444.5" y="-474.8" font-family="Times,serif" font-size="14.00">Master Pipeline_A</text>
</g>
<!-- Memory -->
<g id="node1" class="node">
<title>Memory</title>
<ellipse fill="none" stroke="black" cx="804.25" cy="-374" rx="42.49" ry="18"/>
<text text-anchor="middle" x="804.25" y="-370.3" font-family="Times,serif" font-size="14.00">Memory</text>
</g>
<!-- Monitor -->
<g id="node2" class="node">
<title>Monitor</title>
<ellipse fill="none" stroke="black" cx="804.25" cy="-320" rx="40.09" ry="18"/>
<text text-anchor="middle" x="804.25" y="-316.3" font-family="Times,serif" font-size="14.00">Monitor</text>
</g>
<!-- Slave.Scaler&#45;0 -->
<g id="node3" class="node">
<title>Slave.Scaler&#45;0</title>
<polygon fill="none" stroke="black" stroke-dasharray="5,2" points="240,-183 145,-183 145,-147 240,-147 240,-183"/>
<text text-anchor="middle" x="192.5" y="-161.3" font-family="Times,serif" font-size="14.00">Slave.Scaler&#45;0</text>
</g>
<!-- Slave.Compiz -->
<g id="node9" class="node">
<title>Slave.Compiz</title>
<polygon fill="lightgrey" stroke="black" points="370,-146 276,-146 276,-110 370,-110 370,-146"/>
<text text-anchor="middle" x="323" y="-124.3" font-family="Times,serif" font-size="14.00">Slave.Compiz</text>
</g>
<!-- Slave.Scaler&#45;0&#45;&gt;Slave.Compiz -->
<g id="edge9" class="edge">
<title>Slave.Scaler&#45;0&#45;&gt;Slave.Compiz</title>
<path fill="none" stroke="black" d="M240.25,-151.54C248.7,-149.11 257.58,-146.55 266.26,-144.05"/>
<polygon fill="black" stroke="black" points="267.28,-147.4 275.92,-141.27 265.35,-140.67 267.28,-147.4"/>
</g>
<!-- Slave.Scaler&#45;1 -->
<g id="node4" class="node">
<title>Slave.Scaler&#45;1</title>
<polygon fill="none" stroke="black" stroke-dasharray="5,2" points="240,-89 145,-89 145,-53 240,-53 240,-89"/>
<text text-anchor="middle" x="192.5" y="-67.3" font-family="Times,serif" font-size="14.00">Slave.Scaler&#45;1</text>
</g>
<!-- Slave.Scaler&#45;1&#45;&gt;Slave.Compiz -->
<g id="edge10" class="edge">
<title>Slave.Scaler&#45;1&#45;&gt;Slave.Compiz</title>
<path fill="none" stroke="black" d="M234.16,-89.04C246.11,-94.34 259.33,-100.2 271.8,-105.73"/>
<polygon fill="black" stroke="black" points="270.6,-109.03 281.17,-109.89 273.44,-102.63 270.6,-109.03"/>
</g>
<!-- Slave.Layer&#45;0 -->
<g id="node5" class="node">
<title>Slave.Layer&#45;0</title>
<polygon fill="lightgrey" stroke="black" points="109,-214 16,-214 16,-178 109,-178 109,-214"/>
<text text-anchor="middle" x="62.5" y="-192.3" font-family="Times,serif" font-size="14.00">Slave.Layer&#45;0</text>
</g>
<!-- Slave.Layer&#45;0&#45;&gt;Slave.Scaler&#45;0 -->
<g id="edge1" class="edge">
<title>Slave.Layer&#45;0&#45;&gt;Slave.Scaler&#45;0</title>
<path fill="none" stroke="black" d="M109.35,-184.9C117.6,-182.9 126.29,-180.79 134.8,-178.73"/>
<polygon fill="black" stroke="black" points="135.78,-182.1 144.68,-176.34 134.13,-175.29 135.78,-182.1"/>
</g>
<!-- Slave.Layer&#45;0&#45;&gt;Slave.Compiz -->
<g id="edge5" class="edge">
<title>Slave.Layer&#45;0&#45;&gt;Slave.Compiz</title>
<path fill="none" stroke="black" d="M109.17,-202.68C145.67,-206.21 197.56,-207.14 240,-192 262.16,-184.09 283,-167.66 298.13,-153.42"/>
<polygon fill="black" stroke="black" points="300.78,-155.72 305.5,-146.24 295.9,-150.71 300.78,-155.72"/>
</g>
<!-- Slave.Layer&#45;1 -->
<g id="node6" class="node">
<title>Slave.Layer&#45;1</title>
<polygon fill="lightgrey" stroke="black" points="109,-160 16,-160 16,-124 109,-124 109,-160"/>
<text text-anchor="middle" x="62.5" y="-138.3" font-family="Times,serif" font-size="14.00">Slave.Layer&#45;1</text>
</g>
<!-- Slave.Layer&#45;1&#45;&gt;Slave.Scaler&#45;0 -->
<g id="edge2" class="edge">
<title>Slave.Layer&#45;1&#45;&gt;Slave.Scaler&#45;0</title>
<path fill="none" stroke="black" d="M109.35,-150.24C117.6,-151.72 126.29,-153.28 134.8,-154.81"/>
<polygon fill="black" stroke="black" points="134.22,-158.26 144.68,-156.59 135.45,-151.37 134.22,-158.26"/>
</g>
<!-- Slave.Layer&#45;1&#45;&gt;Slave.Compiz -->
<g id="edge6" class="edge">
<title>Slave.Layer&#45;1&#45;&gt;Slave.Compiz</title>
<path fill="none" stroke="black" d="M109.12,-139.53C152.87,-137.16 219.03,-133.58 265.96,-131.03"/>
<polygon fill="black" stroke="black" points="266.17,-134.53 275.97,-130.49 265.79,-127.54 266.17,-134.53"/>
</g>
<!-- Slave.Layer&#45;2 -->
<g id="node7" class="node">
<title>Slave.Layer&#45;2</title>
<polygon fill="lightgrey" stroke="black" points="109,-106 16,-106 16,-70 109,-70 109,-106"/>
<text text-anchor="middle" x="62.5" y="-84.3" font-family="Times,serif" font-size="14.00">Slave.Layer&#45;2</text>
</g>
<!-- Slave.Layer&#45;2&#45;&gt;Slave.Scaler&#45;1 -->
<g id="edge3" class="edge">
<title>Slave.Layer&#45;2&#45;&gt;Slave.Scaler&#45;1</title>
<path fill="none" stroke="black" d="M109.35,-81.91C117.51,-80.83 126.1,-79.69 134.52,-78.57"/>
<polygon fill="black" stroke="black" points="135.23,-82 144.68,-77.22 134.3,-75.07 135.23,-82"/>
</g>
<!-- Slave.Layer&#45;2&#45;&gt;Slave.Compiz -->
<g id="edge7" class="edge">
<title>Slave.Layer&#45;2&#45;&gt;Slave.Compiz</title>
<path fill="none" stroke="black" d="M109.12,-95.06C152.87,-101.83 219.03,-112.07 265.96,-119.33"/>
<polygon fill="black" stroke="black" points="265.55,-122.81 275.97,-120.88 266.62,-115.89 265.55,-122.81"/>
</g>
<!-- Slave.Layer&#45;3 -->
<g id="node8" class="node">
<title>Slave.Layer&#45;3</title>
<polygon fill="lightgrey" stroke="black" points="109,-52 16,-52 16,-16 109,-16 109,-52"/>
<text text-anchor="middle" x="62.5" y="-30.3" font-family="Times,serif" font-size="14.00">Slave.Layer&#45;3</text>
</g>
<!-- Slave.Layer&#45;3&#45;&gt;Slave.Scaler&#45;1 -->
<g id="edge4" class="edge">
<title>Slave.Layer&#45;3&#45;&gt;Slave.Scaler&#45;1</title>
<path fill="none" stroke="black" d="M109.35,-47.25C117.6,-49.64 126.29,-52.15 134.8,-54.61"/>
<polygon fill="black" stroke="black" points="134.1,-58.05 144.68,-57.47 136.04,-51.33 134.1,-58.05"/>
</g>
<!-- Slave.Layer&#45;3&#45;&gt;Slave.Compiz -->
<g id="edge8" class="edge">
<title>Slave.Layer&#45;3&#45;&gt;Slave.Compiz</title>
<path fill="none" stroke="black" d="M109.16,-27.79C146.12,-24.78 198.66,-25.19 240,-44 266.98,-56.28 289.78,-81.73 304.43,-101.41"/>
<polygon fill="black" stroke="black" points="301.72,-103.63 310.39,-109.71 307.4,-99.55 301.72,-103.63"/>
</g>
<!-- Compiz -->
<g id="node17" class="node">
<title>Compiz</title>
<polygon fill="lightgrey" stroke="black" points="466,-365 406,-365 406,-329 466,-329 466,-365"/>
<text text-anchor="middle" x="436" y="-343.3" font-family="Times,serif" font-size="14.00">Compiz</text>
</g>
<!-- Slave.Compiz&#45;&gt;Compiz -->
<g id="edge15" class="edge">
<title>Slave.Compiz&#45;&gt;Compiz</title>
<path fill="none" stroke="black" d="M333.27,-146.3C352.83,-184.88 398.37,-274.74 421.3,-319.97"/>
<polygon fill="black" stroke="black" points="418.19,-321.57 425.83,-328.91 424.43,-318.41 418.19,-321.57"/>
</g>
<!-- Scaler&#45;0 -->
<g id="node10" class="node">
<title>Scaler&#45;0</title>
<polygon fill="none" stroke="black" stroke-dasharray="5,2" points="354,-422 292,-422 292,-386 354,-386 354,-422"/>
<text text-anchor="middle" x="323" y="-400.3" font-family="Times,serif" font-size="14.00">Scaler&#45;0</text>
</g>
<!-- Scaler&#45;0&#45;&gt;Compiz -->
<g id="edge20" class="edge">
<title>Scaler&#45;0&#45;&gt;Compiz</title>
<path fill="none" stroke="black" d="M354.04,-388.57C367.21,-381.81 382.81,-373.8 396.79,-366.62"/>
<polygon fill="black" stroke="black" points="398.41,-369.72 405.71,-362.04 395.21,-363.5 398.41,-369.72"/>
</g>
<!-- Scaler&#45;1 -->
<g id="node11" class="node">
<title>Scaler&#45;1</title>
<polygon fill="none" stroke="black" stroke-dasharray="5,2" points="354,-328 292,-328 292,-292 354,-292 354,-328"/>
<text text-anchor="middle" x="323" y="-306.3" font-family="Times,serif" font-size="14.00">Scaler&#45;1</text>
</g>
<!-- Scaler&#45;1&#45;&gt;Compiz -->
<g id="edge21" class="edge">
<title>Scaler&#45;1&#45;&gt;Compiz</title>
<path fill="none" stroke="black" d="M354.04,-320.01C366.95,-324.32 382.22,-329.41 395.99,-334"/>
<polygon fill="black" stroke="black" points="395.11,-337.39 405.71,-337.24 397.33,-330.75 395.11,-337.39"/>
</g>
<!-- Scaler&#45;0/1 -->
<g id="node12" class="node">
<title>Scaler&#45;0/1</title>
<polygon fill="none" stroke="black" stroke-dasharray="5,2" points="574,-392 502,-392 502,-356 574,-356 574,-392"/>
<text text-anchor="middle" x="538" y="-370.3" font-family="Times,serif" font-size="14.00">Scaler&#45;0/1</text>
</g>
<!-- Wb_layer -->
<g id="node18" class="node">
<title>Wb_layer</title>
<polygon fill="lightgrey" stroke="black" points="703.5,-392 632.5,-392 632.5,-356 703.5,-356 703.5,-392"/>
<text text-anchor="middle" x="668" y="-370.3" font-family="Times,serif" font-size="14.00">Wb_layer</text>
</g>
<!-- Scaler&#45;0/1&#45;&gt;Wb_layer -->
<g id="edge23" class="edge">
<title>Scaler&#45;0/1&#45;&gt;Wb_layer</title>
<path fill="none" stroke="black" d="M574.32,-374C589.13,-374 606.52,-374 622.22,-374"/>
<polygon fill="black" stroke="black" points="622.24,-377.5 632.24,-374 622.24,-370.5 622.24,-377.5"/>
</g>
<!-- Layer&#45;0 -->
<g id="node13" class="node">
<title>Layer&#45;0</title>
<polygon fill="lightgrey" stroke="black" points="222,-459 163,-459 163,-423 222,-423 222,-459"/>
<text text-anchor="middle" x="192.5" y="-437.3" font-family="Times,serif" font-size="14.00">Layer&#45;0</text>
</g>
<!-- Layer&#45;0&#45;&gt;Scaler&#45;0 -->
<g id="edge11" class="edge">
<title>Layer&#45;0&#45;&gt;Scaler&#45;0</title>
<path fill="none" stroke="black" d="M222.02,-432.79C239.65,-427.71 262.54,-421.12 281.97,-415.53"/>
<polygon fill="black" stroke="black" points="283.13,-418.83 291.77,-412.7 281.19,-412.11 283.13,-418.83"/>
</g>
<!-- Layer&#45;0&#45;&gt;Compiz -->
<g id="edge16" class="edge">
<title>Layer&#45;0&#45;&gt;Compiz</title>
<path fill="none" stroke="black" d="M222.22,-446.87C260.47,-453.12 328.99,-458.7 378,-431 399.92,-418.61 415.13,-393.89 424.29,-374.46"/>
<polygon fill="black" stroke="black" points="427.56,-375.71 428.41,-365.15 421.16,-372.87 427.56,-375.71"/>
</g>
<!-- Layer&#45;1 -->
<g id="node14" class="node">
<title>Layer&#45;1</title>
<polygon fill="lightgrey" stroke="black" points="222,-405 163,-405 163,-369 222,-369 222,-405"/>
<text text-anchor="middle" x="192.5" y="-383.3" font-family="Times,serif" font-size="14.00">Layer&#45;1</text>
</g>
<!-- Layer&#45;1&#45;&gt;Scaler&#45;0 -->
<g id="edge12" class="edge">
<title>Layer&#45;1&#45;&gt;Scaler&#45;0</title>
<path fill="none" stroke="black" d="M222.02,-390.77C239.57,-393.09 262.33,-396.11 281.7,-398.67"/>
<polygon fill="black" stroke="black" points="281.4,-402.16 291.77,-400 282.32,-395.22 281.4,-402.16"/>
</g>
<!-- Layer&#45;1&#45;&gt;Compiz -->
<g id="edge17" class="edge">
<title>Layer&#45;1&#45;&gt;Compiz</title>
<path fill="none" stroke="black" d="M222.15,-382.25C265.22,-375.12 346.78,-361.61 395.47,-353.55"/>
<polygon fill="black" stroke="black" points="396.34,-356.95 405.63,-351.86 395.2,-350.05 396.34,-356.95"/>
</g>
<!-- Layer&#45;2 -->
<g id="node15" class="node">
<title>Layer&#45;2</title>
<polygon fill="lightgrey" stroke="black" points="222,-351 163,-351 163,-315 222,-315 222,-351"/>
<text text-anchor="middle" x="192.5" y="-329.3" font-family="Times,serif" font-size="14.00">Layer&#45;2</text>
</g>
<!-- Layer&#45;2&#45;&gt;Scaler&#45;1 -->
<g id="edge13" class="edge">
<title>Layer&#45;2&#45;&gt;Scaler&#45;1</title>
<path fill="none" stroke="black" d="M222.02,-327.9C239.57,-324.75 262.33,-320.68 281.7,-317.21"/>
<polygon fill="black" stroke="black" points="282.54,-320.62 291.77,-315.41 281.31,-313.73 282.54,-320.62"/>
</g>
<!-- Layer&#45;2&#45;&gt;Compiz -->
<g id="edge18" class="edge">
<title>Layer&#45;2&#45;&gt;Compiz</title>
<path fill="none" stroke="black" d="M222.15,-334.66C265.22,-337.16 346.78,-341.89 395.47,-344.71"/>
<polygon fill="black" stroke="black" points="395.45,-348.21 405.63,-345.3 395.85,-341.22 395.45,-348.21"/>
</g>
<!-- Layer&#45;3 -->
<g id="node16" class="node">
<title>Layer&#45;3</title>
<polygon fill="lightgrey" stroke="black" points="222,-297 163,-297 163,-261 222,-261 222,-297"/>
<text text-anchor="middle" x="192.5" y="-275.3" font-family="Times,serif" font-size="14.00">Layer&#45;3</text>
</g>
<!-- Layer&#45;3&#45;&gt;Scaler&#45;1 -->
<g id="edge14" class="edge">
<title>Layer&#45;3&#45;&gt;Scaler&#45;1</title>
<path fill="none" stroke="black" d="M222.02,-285.88C239.65,-290.13 262.54,-295.66 281.97,-300.34"/>
<polygon fill="black" stroke="black" points="281.23,-303.76 291.77,-302.71 282.87,-296.96 281.23,-303.76"/>
</g>
<!-- Layer&#45;3&#45;&gt;Compiz -->
<g id="edge19" class="edge">
<title>Layer&#45;3&#45;&gt;Compiz</title>
<path fill="none" stroke="black" d="M222.26,-272.83C259.95,-266.22 327.24,-259.57 378,-283 395.12,-290.9 409.25,-306.66 419.17,-320.56"/>
<polygon fill="black" stroke="black" points="416.29,-322.55 424.78,-328.89 422.09,-318.64 416.29,-322.55"/>
</g>
<!-- Compiz&#45;&gt;Scaler&#45;0/1 -->
<g id="edge22" class="edge">
<title>Compiz&#45;&gt;Scaler&#45;0/1</title>
<path fill="none" stroke="black" d="M466.19,-354.88C474.32,-357.08 483.34,-359.51 492.14,-361.89"/>
<polygon fill="black" stroke="black" points="491.36,-365.3 501.93,-364.53 493.19,-358.55 491.36,-365.3"/>
</g>
<!-- Improc -->
<g id="node19" class="node">
<title>Improc</title>
<polygon fill="lightgrey" stroke="black" points="566,-338 510,-338 510,-302 566,-302 566,-338"/>
<text text-anchor="middle" x="538" y="-316.3" font-family="Times,serif" font-size="14.00">Improc</text>
</g>
<!-- Compiz&#45;&gt;Improc -->
<g id="edge24" class="edge">
<title>Compiz&#45;&gt;Improc</title>
<path fill="none" stroke="black" d="M466.19,-339.12C476.79,-336.26 488.9,-332.99 500.07,-329.97"/>
<polygon fill="black" stroke="black" points="501.25,-333.28 510,-327.29 499.43,-326.52 501.25,-333.28"/>
</g>
<!-- Wb_layer&#45;&gt;Memory -->
<g id="edge26" class="edge">
<title>Wb_layer&#45;&gt;Memory</title>
<path fill="none" stroke="black" d="M703.57,-374C718.1,-374 735.32,-374 751.32,-374"/>
<polygon fill="black" stroke="black" points="751.61,-377.5 761.61,-374 751.61,-370.5 751.61,-377.5"/>
</g>
<!-- Timing Controller -->
<g id="node20" class="node">
<title>Timing Controller</title>
<polygon fill="lightgrey" stroke="black" points="726,-338 610,-338 610,-302 726,-302 726,-338"/>
<text text-anchor="middle" x="668" y="-316.3" font-family="Times,serif" font-size="14.00">Timing Controller</text>
</g>
<!-- Improc&#45;&gt;Timing Controller -->
<g id="edge25" class="edge">
<title>Improc&#45;&gt;Timing Controller</title>
<path fill="none" stroke="black" d="M566.15,-320C576.12,-320 587.91,-320 599.84,-320"/>
<polygon fill="black" stroke="black" points="599.87,-323.5 609.87,-320 599.87,-316.5 599.87,-323.5"/>
</g>
<!-- Timing Controller&#45;&gt;Monitor -->
<g id="edge27" class="edge">
<title>Timing Controller&#45;&gt;Monitor</title>
<path fill="none" stroke="black" d="M726.32,-320C735.44,-320 744.8,-320 753.72,-320"/>
<polygon fill="black" stroke="black" points="753.94,-323.5 763.94,-320 753.94,-316.5 753.94,-323.5"/>
</g>
</g>
</svg>
